<?xml version="1.0" encoding="UTF-8"?>
<svg width="664px" height="157px" viewBox="0 0 664 157" version="1.1" xmlns="http://www.w3.org/2000/svg" xmlns:xlink="http://www.w3.org/1999/xlink">
    <!-- Generator: Sketch 63.1 (92452) - https://sketch.com -->
    <title>Expl-3</title>
    <desc>Created with Sketch.</desc>
    <g id="Unificate" stroke="none" stroke-width="1" fill="none" fill-rule="evenodd">
        <g id="Use-cases_desktop-Fintech" transform="translate(-325.000000, -2535.000000)">
            <g id="First-info" transform="translate(324.000000, 1593.000000)">
                <g id="Expl-3" transform="translate(0.000000, 943.000000)">
                    <path d="M3.464,151.482885 L3.464,140.154885 L1.448,140.154885 L1.448,151.482885 L3.464,151.482885 Z M7.688,151.482885 L7.688,147.290885 C7.688,147.034885 7.72,146.789552 7.784,146.554885 C7.848,146.320218 7.952,146.112218 8.096,145.930885 C8.24,145.749552 8.42133333,145.605552 8.64,145.498885 C8.85866667,145.392218 9.128,145.338885 9.448,145.338885 C9.77866667,145.338885 10.04,145.416218 10.232,145.570885 C10.424,145.725552 10.5653333,145.917552 10.656,146.146885 C10.7466667,146.376218 10.8026667,146.621552 10.824,146.882885 C10.8453333,147.144218 10.856,147.381552 10.856,147.594885 L10.856,147.594885 L10.856,151.482885 L12.776,151.482885 L12.776,146.634885 C12.776,146.240218 12.728,145.861552 12.632,145.498885 C12.536,145.136218 12.376,144.816218 12.152,144.538885 C11.928,144.261552 11.6373333,144.037552 11.28,143.866885 C10.9226667,143.696218 10.488,143.610885 9.976,143.610885 C9.336,143.610885 8.82933333,143.752218 8.456,144.034885 C8.08266667,144.317552 7.80533333,144.650885 7.624,145.034885 L7.624,145.034885 L7.592,145.034885 L7.592,143.802885 L5.768,143.802885 L5.768,151.482885 L7.688,151.482885 Z M19.096,151.482885 L22.12,143.802885 L20.152,143.802885 L18.088,149.178885 L18.056,149.178885 L16.008,143.802885 L13.912,143.802885 L17.048,151.482885 L19.096,151.482885 Z M27.048,151.674885 C27.656,151.674885 28.2373333,151.557552 28.792,151.322885 C29.3466667,151.088218 29.848,150.693552 30.296,150.138885 L30.296,150.138885 L28.92,149.098885 C28.6746667,149.397552 28.3893333,149.645552 28.064,149.842885 C27.7386667,150.040218 27.336,150.138885 26.856,150.138885 C26.312,150.138885 25.848,149.978885 25.464,149.658885 C25.08,149.338885 24.856,148.890885 24.792,148.314885 L24.792,148.314885 L30.648,148.314885 L30.648,147.786885 C30.648,147.114885 30.56,146.520218 30.384,146.002885 C30.208,145.485552 29.9626667,145.050885 29.648,144.698885 C29.3333333,144.346885 28.9546667,144.077552 28.512,143.890885 C28.0693333,143.704218 27.5813333,143.610885 27.048,143.610885 C26.472,143.610885 25.928,143.706885 25.416,143.898885 C24.904,144.090885 24.4613333,144.362885 24.088,144.714885 C23.7146667,145.066885 23.4186667,145.490885 23.2,145.986885 C22.9813333,146.482885 22.872,147.034885 22.872,147.642885 C22.872,148.250885 22.9813333,148.802885 23.2,149.298885 C23.4186667,149.794885 23.7146667,150.218885 24.088,150.570885 C24.4613333,150.922885 24.904,151.194885 25.416,151.386885 C25.928,151.578885 26.472,151.674885 27.048,151.674885 Z M28.728,146.874885 L24.792,146.874885 C24.8666667,146.320218 25.072,145.877552 25.408,145.546885 C25.744,145.216218 26.2,145.050885 26.776,145.050885 C27.384,145.050885 27.8586667,145.213552 28.2,145.538885 C28.5413333,145.864218 28.7173333,146.309552 28.728,146.874885 L28.728,146.874885 Z M34.744,151.674885 C35.1386667,151.674885 35.5333333,151.632218 35.928,151.546885 C36.3226667,151.461552 36.6773333,151.322885 36.992,151.130885 C37.3066667,150.938885 37.5626667,150.685552 37.76,150.370885 C37.9573333,150.056218 38.056,149.669552 38.056,149.210885 C38.056,148.709552 37.9546667,148.314885 37.752,148.026885 C37.5493333,147.738885 37.2933333,147.512218 36.984,147.346885 C36.6746667,147.181552 36.3413333,147.058885 35.984,146.978885 C35.6266667,146.898885 35.2933333,146.821552 34.984,146.746885 C34.6746667,146.672218 34.4186667,146.581552 34.216,146.474885 C34.0133333,146.368218 33.912,146.197552 33.912,145.962885 C33.912,145.674885 34.0346667,145.466885 34.28,145.338885 C34.5253333,145.210885 34.776,145.146885 35.032,145.146885 C35.6613333,145.146885 36.1626667,145.408218 36.536,145.930885 L36.536,145.930885 L37.816,144.778885 C37.5066667,144.352218 37.1013333,144.050885 36.6,143.874885 C36.0986667,143.698885 35.592,143.610885 35.08,143.610885 C34.696,143.610885 34.3173333,143.658885 33.944,143.754885 C33.5706667,143.850885 33.24,144.000218 32.952,144.202885 C32.664,144.405552 32.432,144.664218 32.256,144.978885 C32.08,145.293552 31.992,145.664218 31.992,146.090885 C31.992,146.581552 32.0933333,146.965552 32.296,147.242885 C32.4986667,147.520218 32.7546667,147.736218 33.064,147.890885 C33.3733333,148.045552 33.7066667,148.157552 34.064,148.226885 C34.4213333,148.296218 34.7546667,148.370885 35.064,148.450885 C35.3733333,148.530885 35.6293333,148.634885 35.832,148.762885 C36.0346667,148.890885 36.136,149.088218 36.136,149.354885 C36.136,149.504218 36.096,149.634885 36.016,149.746885 C35.936,149.858885 35.832,149.952218 35.704,150.026885 C35.576,150.101552 35.4373333,150.154885 35.288,150.186885 C35.1386667,150.218885 34.9946667,150.234885 34.856,150.234885 C34.4506667,150.234885 34.1066667,150.146885 33.824,149.970885 C33.5413333,149.794885 33.2773333,149.568218 33.032,149.290885 L33.032,149.290885 L31.752,150.490885 C32.1466667,150.938885 32.5946667,151.248218 33.096,151.418885 C33.5973333,151.589552 34.1466667,151.674885 34.744,151.674885 Z M42.744,151.674885 C42.968,151.674885 43.2266667,151.656218 43.52,151.618885 C43.8133333,151.581552 44.0613333,151.514885 44.264,151.418885 L44.264,151.418885 L44.264,149.802885 C44.1466667,149.888218 43.9866667,149.949552 43.784,149.986885 C43.5813333,150.024218 43.3946667,150.042885 43.224,150.042885 C42.7973333,150.042885 42.512,149.930885 42.368,149.706885 C42.224,149.482885 42.152,149.178885 42.152,148.794885 L42.152,148.794885 L42.152,145.434885 L44.264,145.434885 L44.264,143.802885 L42.152,143.802885 L42.152,141.578885 L40.232,141.578885 L40.232,143.802885 L38.648,143.802885 L38.648,145.434885 L40.232,145.434885 L40.232,148.954885 C40.232,149.402885 40.2666667,149.797552 40.336,150.138885 C40.4053333,150.480218 40.5333333,150.765552 40.72,150.994885 C40.9066667,151.224218 41.1626667,151.394885 41.488,151.506885 C41.8133333,151.618885 42.232,151.674885 42.744,151.674885 Z M49.56,151.674885 C50.136,151.674885 50.68,151.578885 51.192,151.386885 C51.704,151.194885 52.1466667,150.922885 52.52,150.570885 C52.8933333,150.218885 53.1893333,149.794885 53.408,149.298885 C53.6266667,148.802885 53.736,148.250885 53.736,147.642885 C53.736,147.034885 53.6266667,146.482885 53.408,145.986885 C53.1893333,145.490885 52.8933333,145.066885 52.52,144.714885 C52.1466667,144.362885 51.704,144.090885 51.192,143.898885 C50.68,143.706885 50.136,143.610885 49.56,143.610885 C48.984,143.610885 48.44,143.706885 47.928,143.898885 C47.416,144.090885 46.9733333,144.362885 46.6,144.714885 C46.2266667,145.066885 45.9306667,145.490885 45.712,145.986885 C45.4933333,146.482885 45.384,147.034885 45.384,147.642885 C45.384,148.250885 45.4933333,148.802885 45.712,149.298885 C45.9306667,149.794885 46.2266667,150.218885 46.6,150.570885 C46.9733333,150.922885 47.416,151.194885 47.928,151.386885 C48.44,151.578885 48.984,151.674885 49.56,151.674885 Z M49.56,149.946885 C49.208,149.946885 48.8933333,149.882885 48.616,149.754885 C48.3386667,149.626885 48.1013333,149.456218 47.904,149.242885 C47.7066667,149.029552 47.5573333,148.784218 47.456,148.506885 C47.3546667,148.229552 47.304,147.941552 47.304,147.642885 C47.304,147.344218 47.3546667,147.056218 47.456,146.778885 C47.5573333,146.501552 47.7066667,146.256218 47.904,146.042885 C48.1013333,145.829552 48.3386667,145.658885 48.616,145.530885 C48.8933333,145.402885 49.208,145.338885 49.56,145.338885 C49.912,145.338885 50.2266667,145.402885 50.504,145.530885 C50.7813333,145.658885 51.0186667,145.829552 51.216,146.042885 C51.4133333,146.256218 51.5626667,146.501552 51.664,146.778885 C51.7653333,147.056218 51.816,147.344218 51.816,147.642885 C51.816,147.941552 51.7653333,148.229552 51.664,148.506885 C51.5626667,148.784218 51.4133333,149.029552 51.216,149.242885 C51.0186667,149.456218 50.7813333,149.626885 50.504,149.754885 C50.2266667,149.882885 49.912,149.946885 49.56,149.946885 Z M57.448,151.482885 L57.448,147.370885 C57.448,147.264218 57.472,147.104218 57.52,146.890885 C57.568,146.677552 57.664,146.464218 57.808,146.250885 C57.952,146.037552 58.16,145.848218 58.432,145.682885 C58.704,145.517552 59.064,145.434885 59.512,145.434885 C59.6613333,145.434885 59.8133333,145.448218 59.968,145.474885 C60.1226667,145.501552 60.28,145.536218 60.44,145.578885 L60.44,145.578885 L60.44,143.722885 C60.3226667,143.690885 60.208,143.664218 60.096,143.642885 C59.984,143.621552 59.8693333,143.610885 59.752,143.610885 C59.24,143.610885 58.7866667,143.733552 58.392,143.978885 C57.9973333,144.224218 57.6933333,144.570885 57.48,145.018885 L57.48,145.018885 L57.448,145.018885 L57.448,143.802885 L55.528,143.802885 L55.528,151.482885 L57.448,151.482885 Z M64.056,151.674885 C64.4506667,151.674885 64.8453333,151.632218 65.24,151.546885 C65.6346667,151.461552 65.9893333,151.322885 66.304,151.130885 C66.6186667,150.938885 66.8746667,150.685552 67.072,150.370885 C67.2693333,150.056218 67.368,149.669552 67.368,149.210885 C67.368,148.709552 67.2666667,148.314885 67.064,148.026885 C66.8613333,147.738885 66.6053333,147.512218 66.296,147.346885 C65.9866667,147.181552 65.6533333,147.058885 65.296,146.978885 C64.9386667,146.898885 64.6053333,146.821552 64.296,146.746885 C63.9866667,146.672218 63.7306667,146.581552 63.528,146.474885 C63.3253333,146.368218 63.224,146.197552 63.224,145.962885 C63.224,145.674885 63.3466667,145.466885 63.592,145.338885 C63.8373333,145.210885 64.088,145.146885 64.344,145.146885 C64.9733333,145.146885 65.4746667,145.408218 65.848,145.930885 L65.848,145.930885 L67.128,144.778885 C66.8186667,144.352218 66.4133333,144.050885 65.912,143.874885 C65.4106667,143.698885 64.904,143.610885 64.392,143.610885 C64.008,143.610885 63.6293333,143.658885 63.256,143.754885 C62.8826667,143.850885 62.552,144.000218 62.264,144.202885 C61.976,144.405552 61.744,144.664218 61.568,144.978885 C61.392,145.293552 61.304,145.664218 61.304,146.090885 C61.304,146.581552 61.4053333,146.965552 61.608,147.242885 C61.8106667,147.520218 62.0666667,147.736218 62.376,147.890885 C62.6853333,148.045552 63.0186667,148.157552 63.376,148.226885 C63.7333333,148.296218 64.0666667,148.370885 64.376,148.450885 C64.6853333,148.530885 64.9413333,148.634885 65.144,148.762885 C65.3466667,148.890885 65.448,149.088218 65.448,149.354885 C65.448,149.504218 65.408,149.634885 65.328,149.746885 C65.248,149.858885 65.144,149.952218 65.016,150.026885 C64.888,150.101552 64.7493333,150.154885 64.6,150.186885 C64.4506667,150.218885 64.3066667,150.234885 64.168,150.234885 C63.7626667,150.234885 63.4186667,150.146885 63.136,149.970885 C62.8533333,149.794885 62.5893333,149.568218 62.344,149.290885 L62.344,149.290885 L61.064,150.490885 C61.4586667,150.938885 61.9066667,151.248218 62.408,151.418885 C62.9093333,151.589552 63.4586667,151.674885 64.056,151.674885 Z" id="Investors" fill="#333333" fill-rule="nonzero"></path>
                    <path d="M307.74,151.770885 C308.572,151.770885 309.356,151.610885 310.092,151.290885 C310.828,150.970885 311.452,150.458885 311.964,149.754885 L311.964,149.754885 L310.3,148.570885 C309.926667,149.050885 309.524,149.400218 309.092,149.618885 C308.66,149.837552 308.214667,149.946885 307.756,149.946885 C307.169333,149.946885 306.638667,149.840218 306.164,149.626885 C305.689333,149.413552 305.281333,149.120218 304.94,148.746885 C304.598667,148.373552 304.334667,147.930885 304.148,147.418885 C303.961333,146.906885 303.868,146.346885 303.868,145.738885 C303.868,145.173552 303.961333,144.645552 304.148,144.154885 C304.334667,143.664218 304.598667,143.234885 304.94,142.866885 C305.281333,142.498885 305.689333,142.210885 306.164,142.002885 C306.638667,141.794885 307.169333,141.690885 307.756,141.690885 C308.150667,141.690885 308.542667,141.765552 308.932,141.914885 C309.321333,142.064218 309.724,142.362885 310.14,142.810885 L310.14,142.810885 L311.708,141.658885 C311.142667,141.008218 310.532,140.546885 309.876,140.274885 C309.22,140.002885 308.508,139.866885 307.74,139.866885 C306.865333,139.866885 306.062667,140.008218 305.332,140.290885 C304.601333,140.573552 303.972,140.976218 303.444,141.498885 C302.916,142.021552 302.502667,142.653552 302.204,143.394885 C301.905333,144.136218 301.756,144.960218 301.756,145.866885 C301.756,146.752218 301.905333,147.557552 302.204,148.282885 C302.502667,149.008218 302.916,149.629552 303.444,150.146885 C303.972,150.664218 304.601333,151.064218 305.332,151.346885 C306.062667,151.629552 306.865333,151.770885 307.74,151.770885 Z M316.94,151.674885 C317.516,151.674885 318.06,151.578885 318.572,151.386885 C319.084,151.194885 319.526667,150.922885 319.9,150.570885 C320.273333,150.218885 320.569333,149.794885 320.788,149.298885 C321.006667,148.802885 321.116,148.250885 321.116,147.642885 C321.116,147.034885 321.006667,146.482885 320.788,145.986885 C320.569333,145.490885 320.273333,145.066885 319.9,144.714885 C319.526667,144.362885 319.084,144.090885 318.572,143.898885 C318.06,143.706885 317.516,143.610885 316.94,143.610885 C316.364,143.610885 315.82,143.706885 315.308,143.898885 C314.796,144.090885 314.353333,144.362885 313.98,144.714885 C313.606667,145.066885 313.310667,145.490885 313.092,145.986885 C312.873333,146.482885 312.764,147.034885 312.764,147.642885 C312.764,148.250885 312.873333,148.802885 313.092,149.298885 C313.310667,149.794885 313.606667,150.218885 313.98,150.570885 C314.353333,150.922885 314.796,151.194885 315.308,151.386885 C315.82,151.578885 316.364,151.674885 316.94,151.674885 Z M316.94,149.946885 C316.588,149.946885 316.273333,149.882885 315.996,149.754885 C315.718667,149.626885 315.481333,149.456218 315.284,149.242885 C315.086667,149.029552 314.937333,148.784218 314.836,148.506885 C314.734667,148.229552 314.684,147.941552 314.684,147.642885 C314.684,147.344218 314.734667,147.056218 314.836,146.778885 C314.937333,146.501552 315.086667,146.256218 315.284,146.042885 C315.481333,145.829552 315.718667,145.658885 315.996,145.530885 C316.273333,145.402885 316.588,145.338885 316.94,145.338885 C317.292,145.338885 317.606667,145.402885 317.884,145.530885 C318.161333,145.658885 318.398667,145.829552 318.596,146.042885 C318.793333,146.256218 318.942667,146.501552 319.044,146.778885 C319.145333,147.056218 319.196,147.344218 319.196,147.642885 C319.196,147.941552 319.145333,148.229552 319.044,148.506885 C318.942667,148.784218 318.793333,149.029552 318.596,149.242885 C318.398667,149.456218 318.161333,149.626885 317.884,149.754885 C317.606667,149.882885 317.292,149.946885 316.94,149.946885 Z M324.748,151.482885 L324.748,147.290885 C324.748,147.034885 324.78,146.789552 324.844,146.554885 C324.908,146.320218 325.012,146.112218 325.156,145.930885 C325.3,145.749552 325.481333,145.605552 325.7,145.498885 C325.918667,145.392218 326.188,145.338885 326.508,145.338885 C326.977333,145.338885 327.313333,145.480218 327.516,145.762885 C327.718667,146.045552 327.82,146.426885 327.82,146.906885 L327.82,146.906885 L327.82,151.482885 L329.74,151.482885 L329.74,147.322885 C329.74,147.077552 329.769333,146.834885 329.828,146.594885 C329.886667,146.354885 329.982667,146.141552 330.116,145.954885 C330.249333,145.768218 330.42,145.618885 330.628,145.506885 C330.836,145.394885 331.089333,145.338885 331.388,145.338885 C331.676,145.338885 331.910667,145.386885 332.092,145.482885 C332.273333,145.578885 332.417333,145.709552 332.524,145.874885 C332.630667,146.040218 332.705333,146.232218 332.748,146.450885 C332.790667,146.669552 332.812,146.896218 332.812,147.130885 L332.812,147.130885 L332.812,151.482885 L334.732,151.482885 L334.732,146.906885 C334.732,146.448218 334.684,146.018885 334.588,145.618885 C334.492,145.218885 334.334667,144.869552 334.116,144.570885 C333.897333,144.272218 333.612,144.037552 333.26,143.866885 C332.908,143.696218 332.476,143.610885 331.964,143.610885 C331.388,143.610885 330.892,143.725552 330.476,143.954885 C330.06,144.184218 329.713333,144.544218 329.436,145.034885 C329.041333,144.085552 328.241333,143.610885 327.036,143.610885 C326.396,143.610885 325.886667,143.752218 325.508,144.034885 C325.129333,144.317552 324.854667,144.640218 324.684,145.002885 L324.684,145.002885 L324.652,145.002885 L324.652,143.802885 L322.828,143.802885 L322.828,151.482885 L324.748,151.482885 Z M338.748,155.130885 L338.748,150.506885 L338.796,150.506885 C338.892,150.634885 339.014667,150.765552 339.164,150.898885 C339.313333,151.032218 339.494667,151.157552 339.708,151.274885 C339.921333,151.392218 340.166667,151.488218 340.444,151.562885 C340.721333,151.637552 341.041333,151.674885 341.404,151.674885 C341.948,151.674885 342.449333,151.570885 342.908,151.362885 C343.366667,151.154885 343.758667,150.869552 344.084,150.506885 C344.409333,150.144218 344.662667,149.717552 344.844,149.226885 C345.025333,148.736218 345.116,148.208218 345.116,147.642885 C345.116,147.077552 345.030667,146.549552 344.86,146.058885 C344.689333,145.568218 344.438667,145.141552 344.108,144.778885 C343.777333,144.416218 343.377333,144.130885 342.908,143.922885 C342.438667,143.714885 341.910667,143.610885 341.324,143.610885 C340.78,143.610885 340.273333,143.717552 339.804,143.930885 C339.334667,144.144218 338.961333,144.485552 338.684,144.954885 L338.684,144.954885 L338.652,144.954885 L338.652,143.802885 L336.828,143.802885 L336.828,155.130885 L338.748,155.130885 Z M340.94,149.946885 C340.588,149.946885 340.273333,149.882885 339.996,149.754885 C339.718667,149.626885 339.481333,149.456218 339.284,149.242885 C339.086667,149.029552 338.937333,148.784218 338.836,148.506885 C338.734667,148.229552 338.684,147.941552 338.684,147.642885 C338.684,147.344218 338.734667,147.056218 338.836,146.778885 C338.937333,146.501552 339.086667,146.256218 339.284,146.042885 C339.481333,145.829552 339.718667,145.658885 339.996,145.530885 C340.273333,145.402885 340.588,145.338885 340.94,145.338885 C341.292,145.338885 341.606667,145.402885 341.884,145.530885 C342.161333,145.658885 342.398667,145.829552 342.596,146.042885 C342.793333,146.256218 342.942667,146.501552 343.044,146.778885 C343.145333,147.056218 343.196,147.344218 343.196,147.642885 C343.196,147.941552 343.145333,148.229552 343.044,148.506885 C342.942667,148.784218 342.793333,149.029552 342.596,149.242885 C342.398667,149.456218 342.161333,149.626885 341.884,149.754885 C341.606667,149.882885 341.292,149.946885 340.94,149.946885 Z M349.196,151.674885 C349.708,151.674885 350.177333,151.576218 350.604,151.378885 C351.030667,151.181552 351.382667,150.864218 351.66,150.426885 L351.66,150.426885 L351.708,150.426885 L351.708,151.482885 L353.436,151.482885 L353.436,147.066885 C353.436,146.885552 353.430667,146.674885 353.42,146.434885 C353.409333,146.194885 353.374667,145.946885 353.316,145.690885 C353.257333,145.434885 353.161333,145.181552 353.028,144.930885 C352.894667,144.680218 352.705333,144.458885 352.46,144.266885 C352.214667,144.074885 351.905333,143.917552 351.532,143.794885 C351.158667,143.672218 350.7,143.610885 350.156,143.610885 C349.548,143.610885 348.958667,143.706885 348.388,143.898885 C347.817333,144.090885 347.318667,144.405552 346.892,144.842885 L346.892,144.842885 L347.9,145.850885 C348.156,145.605552 348.46,145.410885 348.812,145.266885 C349.164,145.122885 349.542667,145.050885 349.948,145.050885 C350.46,145.050885 350.881333,145.170885 351.212,145.410885 C351.542667,145.650885 351.708,146.010885 351.708,146.490885 L351.708,146.490885 L351.708,146.698885 L351.228,146.698885 C350.908,146.698885 350.566667,146.706885 350.204,146.722885 C349.841333,146.738885 349.481333,146.776218 349.124,146.834885 C348.766667,146.893552 348.422667,146.981552 348.092,147.098885 C347.761333,147.216218 347.470667,147.373552 347.22,147.570885 C346.969333,147.768218 346.769333,148.013552 346.62,148.306885 C346.470667,148.600218 346.396,148.954885 346.396,149.370885 C346.396,149.754885 346.476,150.090885 346.636,150.378885 C346.796,150.666885 347.006667,150.906885 347.268,151.098885 C347.529333,151.290885 347.828,151.434885 348.164,151.530885 C348.5,151.626885 348.844,151.674885 349.196,151.674885 Z M349.66,150.234885 C349.5,150.234885 349.34,150.216218 349.18,150.178885 C349.02,150.141552 348.876,150.080218 348.748,149.994885 C348.62,149.909552 348.516,149.805552 348.436,149.682885 C348.356,149.560218 348.316,149.408218 348.316,149.226885 C348.316,148.949552 348.417333,148.733552 348.62,148.578885 C348.822667,148.424218 349.070667,148.306885 349.364,148.226885 C349.657333,148.146885 349.969333,148.096218 350.3,148.074885 C350.630667,148.053552 350.929333,148.042885 351.196,148.042885 L351.196,148.042885 L351.596,148.042885 L351.596,148.474885 C351.596,149.018885 351.438667,149.448218 351.124,149.762885 C350.809333,150.077552 350.321333,150.234885 349.66,150.234885 Z M357.42,151.482885 L357.42,147.290885 C357.42,147.034885 357.452,146.789552 357.516,146.554885 C357.58,146.320218 357.684,146.112218 357.828,145.930885 C357.972,145.749552 358.153333,145.605552 358.372,145.498885 C358.590667,145.392218 358.86,145.338885 359.18,145.338885 C359.510667,145.338885 359.772,145.416218 359.964,145.570885 C360.156,145.725552 360.297333,145.917552 360.388,146.146885 C360.478667,146.376218 360.534667,146.621552 360.556,146.882885 C360.577333,147.144218 360.588,147.381552 360.588,147.594885 L360.588,147.594885 L360.588,151.482885 L362.508,151.482885 L362.508,146.634885 C362.508,146.240218 362.46,145.861552 362.364,145.498885 C362.268,145.136218 362.108,144.816218 361.884,144.538885 C361.66,144.261552 361.369333,144.037552 361.012,143.866885 C360.654667,143.696218 360.22,143.610885 359.708,143.610885 C359.068,143.610885 358.561333,143.752218 358.188,144.034885 C357.814667,144.317552 357.537333,144.650885 357.356,145.034885 L357.356,145.034885 L357.324,145.034885 L357.324,143.802885 L355.5,143.802885 L355.5,151.482885 L357.42,151.482885 Z M365.292,155.322885 C365.718667,155.322885 366.084,155.277552 366.388,155.186885 C366.692,155.096218 366.956,154.957552 367.18,154.770885 C367.404,154.584218 367.598667,154.354885 367.764,154.082885 C367.929333,153.810885 368.081333,153.493552 368.22,153.130885 L368.22,153.130885 L371.852,143.802885 L369.852,143.802885 L367.932,149.130885 L367.9,149.130885 L365.756,143.802885 L363.644,143.802885 L366.924,151.546885 L366.556,152.458885 C366.470667,152.661552 366.390667,152.834885 366.316,152.978885 C366.241333,153.122885 366.148,153.240218 366.036,153.330885 C365.924,153.421552 365.788,153.488218 365.628,153.530885 C365.468,153.573552 365.270667,153.594885 365.036,153.594885 C364.865333,153.594885 364.697333,153.576218 364.532,153.538885 C364.366667,153.501552 364.209333,153.456218 364.06,153.402885 L364.06,153.402885 L363.82,155.130885 C364.3,155.258885 364.790667,155.322885 365.292,155.322885 Z" id="Company" fill="#333333" fill-rule="nonzero"></path>
                    <path d="M589.736,151.482885 L589.736,146.778885 L594.728,146.778885 L594.728,144.954885 L589.736,144.954885 L589.736,141.978885 L595.032,141.978885 L595.032,140.154885 L587.72,140.154885 L587.72,151.482885 L589.736,151.482885 Z M601.128,151.482885 C601.810667,151.482885 602.506667,151.368218 603.216,151.138885 C603.925333,150.909552 604.570667,150.562885 605.152,150.098885 C605.733333,149.634885 606.208,149.048218 606.576,148.338885 C606.944,147.629552 607.128,146.789552 607.128,145.818885 C607.128,144.858885 606.968,144.024218 606.648,143.314885 C606.328,142.605552 605.901333,142.016218 605.368,141.546885 C604.834667,141.077552 604.221333,140.728218 603.528,140.498885 C602.834667,140.269552 602.114667,140.154885 601.368,140.154885 L601.368,140.154885 L596.904,140.154885 L596.904,151.482885 L601.128,151.482885 Z M600.424,149.658885 L598.92,149.658885 L598.92,141.978885 L600.76,141.978885 C601.378667,141.978885 601.946667,142.050885 602.464,142.194885 C602.981333,142.338885 603.429333,142.562885 603.808,142.866885 C604.186667,143.170885 604.482667,143.568218 604.696,144.058885 C604.909333,144.549552 605.016,145.136218 605.016,145.818885 C605.016,146.512218 604.896,147.101552 604.656,147.586885 C604.416,148.072218 604.088,148.466885 603.672,148.770885 C603.256,149.074885 602.768,149.298885 602.208,149.442885 C601.648,149.586885 601.053333,149.658885 600.424,149.658885 L600.424,149.658885 Z M611.016,151.482885 L611.016,140.154885 L609,140.154885 L609,151.482885 L611.016,151.482885 Z M618.872,151.770885 C619.704,151.770885 620.488,151.610885 621.224,151.290885 C621.96,150.970885 622.584,150.458885 623.096,149.754885 L623.096,149.754885 L621.432,148.570885 C621.058667,149.050885 620.656,149.400218 620.224,149.618885 C619.792,149.837552 619.346667,149.946885 618.888,149.946885 C618.301333,149.946885 617.770667,149.840218 617.296,149.626885 C616.821333,149.413552 616.413333,149.120218 616.072,148.746885 C615.730667,148.373552 615.466667,147.930885 615.28,147.418885 C615.093333,146.906885 615,146.346885 615,145.738885 C615,145.173552 615.093333,144.645552 615.28,144.154885 C615.466667,143.664218 615.730667,143.234885 616.072,142.866885 C616.413333,142.498885 616.821333,142.210885 617.296,142.002885 C617.770667,141.794885 618.301333,141.690885 618.888,141.690885 C619.282667,141.690885 619.674667,141.765552 620.064,141.914885 C620.453333,142.064218 620.856,142.362885 621.272,142.810885 L621.272,142.810885 L622.84,141.658885 C622.274667,141.008218 621.664,140.546885 621.008,140.274885 C620.352,140.002885 619.64,139.866885 618.872,139.866885 C617.997333,139.866885 617.194667,140.008218 616.464,140.290885 C615.733333,140.573552 615.104,140.976218 614.576,141.498885 C614.048,142.021552 613.634667,142.653552 613.336,143.394885 C613.037333,144.136218 612.888,144.960218 612.888,145.866885 C612.888,146.752218 613.037333,147.557552 613.336,148.282885 C613.634667,149.008218 614.048,149.629552 614.576,150.146885 C615.104,150.664218 615.733333,151.064218 616.464,151.346885 C617.194667,151.629552 617.997333,151.770885 618.872,151.770885 Z M625.512,153.498885 L626.872,149.274885 L624.92,149.274885 L623.8,153.498885 L625.512,153.498885 Z M635.944,151.482885 L635.944,146.778885 L640.936,146.778885 L640.936,144.954885 L635.944,144.954885 L635.944,141.978885 L641.24,141.978885 L641.24,140.154885 L633.928,140.154885 L633.928,151.482885 L635.944,151.482885 Z M647.192,151.482885 C647.725333,151.482885 648.250667,151.429552 648.768,151.322885 C649.285333,151.216218 649.744,151.037552 650.144,150.786885 C650.544,150.536218 650.866667,150.205552 651.112,149.794885 C651.357333,149.384218 651.48,148.869552 651.48,148.250885 C651.48,147.888218 651.418667,147.549552 651.296,147.234885 C651.173333,146.920218 651.005333,146.642885 650.792,146.402885 C650.578667,146.162885 650.32,145.965552 650.016,145.810885 C649.712,145.656218 649.384,145.557552 649.032,145.514885 L649.032,145.514885 L649.032,145.482885 C649.618667,145.301552 650.093333,145.002885 650.456,144.586885 C650.818667,144.170885 651,143.642885 651,143.002885 C651,142.490885 650.898667,142.053552 650.696,141.690885 C650.493333,141.328218 650.229333,141.032218 649.904,140.802885 C649.578667,140.573552 649.208,140.408218 648.792,140.306885 C648.376,140.205552 647.954667,140.154885 647.528,140.154885 L647.528,140.154885 L643.112,140.154885 L643.112,151.482885 L647.192,151.482885 Z M646.968,144.762885 L645.128,144.762885 L645.128,141.882885 L646.792,141.882885 C647.56,141.882885 648.117333,142.002885 648.464,142.242885 C648.810667,142.482885 648.984,142.848218 648.984,143.338885 C648.984,143.765552 648.816,144.109552 648.48,144.370885 C648.144,144.632218 647.64,144.762885 646.968,144.762885 L646.968,144.762885 Z M646.984,149.754885 L645.128,149.754885 L645.128,146.490885 L647.064,146.490885 C647.885333,146.490885 648.490667,146.608218 648.88,146.842885 C649.269333,147.077552 649.464,147.493552 649.464,148.090885 C649.464,148.464218 649.384,148.760218 649.224,148.978885 C649.064,149.197552 648.861333,149.365552 648.616,149.482885 C648.370667,149.600218 648.101333,149.674885 647.808,149.706885 C647.514667,149.738885 647.24,149.754885 646.984,149.754885 L646.984,149.754885 Z M658.856,151.770885 C659.741333,151.760218 660.552,151.608218 661.288,151.314885 C662.024,151.021552 662.658667,150.613552 663.192,150.090885 C663.725333,149.568218 664.141333,148.944218 664.44,148.218885 C664.738667,147.493552 664.888,146.688218 664.888,145.802885 C664.888,144.896218 664.738667,144.074885 664.44,143.338885 C664.141333,142.602885 663.725333,141.973552 663.192,141.450885 C662.658667,140.928218 662.024,140.530885 661.288,140.258885 C660.552,139.986885 659.741333,139.856218 658.856,139.866885 C657.981333,139.866885 657.178667,140.008218 656.448,140.290885 C655.717333,140.573552 655.088,140.976218 654.56,141.498885 C654.032,142.021552 653.618667,142.653552 653.32,143.394885 C653.021333,144.136218 652.872,144.960218 652.872,145.866885 C652.872,146.752218 653.021333,147.557552 653.32,148.282885 C653.618667,149.008218 654.032,149.629552 654.56,150.146885 C655.088,150.664218 655.717333,151.064218 656.448,151.346885 C657.178667,151.629552 657.981333,151.770885 658.856,151.770885 Z M658.872,149.946885 C658.285333,149.946885 657.754667,149.840218 657.28,149.626885 C656.805333,149.413552 656.397333,149.120218 656.056,148.746885 C655.714667,148.373552 655.450667,147.930885 655.264,147.418885 C655.077333,146.906885 654.984,146.346885 654.984,145.738885 C654.984,145.173552 655.077333,144.645552 655.264,144.154885 C655.450667,143.664218 655.714667,143.234885 656.056,142.866885 C656.397333,142.498885 656.805333,142.210885 657.28,142.002885 C657.754667,141.794885 658.285333,141.690885 658.872,141.690885 C659.458667,141.690885 659.992,141.794885 660.472,142.002885 C660.952,142.210885 661.362667,142.498885 661.704,142.866885 C662.045333,143.234885 662.309333,143.664218 662.496,144.154885 C662.682667,144.645552 662.776,145.173552 662.776,145.738885 C662.776,146.346885 662.682667,146.906885 662.496,147.418885 C662.309333,147.930885 662.045333,148.373552 661.704,148.746885 C661.362667,149.120218 660.952,149.413552 660.472,149.626885 C659.992,149.840218 659.458667,149.946885 658.872,149.946885 Z" id="FDIC,FBO" fill="#333333" fill-rule="nonzero"></path>
                    <g id="investors" transform="translate(3.000000, 51.482885)" fill-rule="nonzero">
                        <circle id="Oval" fill="#A1BDFB" opacity="0.6" cx="12" cy="42" r="12"></circle>
                        <circle id="Oval-Copy" fill="#A1BDFB" opacity="0.6" cx="30" cy="12" r="12"></circle>
                        <circle id="Oval-Copy-3" fill="#A1BDFB" opacity="0.6" cx="48" cy="42" r="12"></circle>
                        <circle id="Oval" fill="#004FFF" cx="12" cy="42" r="2"></circle>
                        <circle id="Oval-Copy-2" fill="#004FFF" cx="30" cy="12" r="2"></circle>
                        <circle id="Oval-Copy-4" fill="#004FFF" cx="48" cy="42" r="2"></circle>
                    </g>
                    <g id="safe" transform="translate(589.000000, 51.482885)">
                        <rect id="Rectangle-Copy-3" fill="#C7D7FD" x="0" y="0" width="70" height="46" rx="6"></rect>
                        <rect id="Rectangle-Copy-4" stroke="#135CFF" x="5" y="5" width="60" height="36" rx="4"></rect>
                        <rect id="Rectangle-Copy-5" fill="#C7D7FD" x="3" y="48" width="16" height="6" rx="2"></rect>
                        <rect id="Rectangle-Copy-6" fill="#C7D7FD" x="51" y="48" width="16" height="6" rx="2"></rect>
                        <circle id="Oval-Copy-8" fill="#004FFF" fill-rule="nonzero" cx="35" cy="23" r="2"></circle>
                        <circle id="Oval-Copy-9" stroke="#004FFF" cx="35" cy="23" r="11"></circle>
                    </g>
                    <g id="company" transform="translate(289.000000, 42.482885)">
                        <rect id="Rectangle" fill="#E5EDFF" x="0" y="0.5" width="62" height="70" rx="2"></rect>
                        <polygon id="Rectangle-path" fill="#C7D7FD" points="8 12.5 18 12.5 18 22.5 8 22.5"></polygon>
                        <polygon id="Rectangle-path-Copy-3" fill="#C7D7FD" points="8 30.5 18 30.5 18 40.5 8 40.5"></polygon>
                        <polygon id="Rectangle-path-Copy-6" fill="#C7D7FD" points="8 48.5 18 48.5 18 58.5 8 58.5"></polygon>
                        <polygon id="Rectangle-path-Copy" fill="#C7D7FD" points="26 12.5 36 12.5 36 22.5 26 22.5"></polygon>
                        <polygon id="Rectangle-path-Copy-4" fill="#004FFF" points="26 30.5 36 30.5 36 40.5 26 40.5"></polygon>
                        <polygon id="Rectangle-path-Copy-7" fill="#C7D7FD" points="26 48.5 36 48.5 36 58.5 26 58.5"></polygon>
                        <polygon id="Rectangle-path-Copy-2" fill="#C7D7FD" points="44 12.5 54 12.5 54 22.5 44 22.5"></polygon>
                        <polygon id="Rectangle-path-Copy-5" fill="#C7D7FD" points="44 30.5 54 30.5 54 40.5 44 40.5"></polygon>
                        <polygon id="Rectangle-path-Copy-8" fill="#C7D7FD" points="44 48.5 54 48.5 54 58.5 44 58.5"></polygon>
                    </g>
                    <g id="money-copy" transform="translate(524.000000, 53.000000)">
                        <g id="money" transform="translate(12.000000, 12.500000)" fill="#004FFF" fill-rule="nonzero">
                            <path d="M10.3679997,7.45686654 C10.3679997,9.35070049 14.1350396,10.3418705 17.8560175,10.3418705 C21.5769954,10.3418705 25.3440353,9.35070049 25.3440353,7.45686654 C25.3440353,3.66914465 10.3679997,3.66914465 10.3679997,7.45686654 Z" id="Path"></path>
                            <path d="M25.0661513,10.2511505 C24.8945933,10.1474705 24.6791333,10.1401265 24.5008253,10.2337085 C22.9494594,11.0473804 20.5897674,11.4959044 17.8560175,11.4959044 C15.1222676,11.4959044 12.7625756,11.0473804 11.2112097,10.2337085 C11.0329017,10.1401805 10.8174417,10.1474705 10.6458837,10.2511505 C10.4731917,10.3553705 10.3679997,10.5430205 10.3679997,10.7447644 L10.3679997,10.9188604 C10.3679997,12.8126944 14.1350396,13.8038644 17.8560175,13.8038644 C21.5769954,13.8038644 25.3440353,12.8126944 25.3440353,10.9188604 L25.3440353,10.7447644 C25.3440353,10.5430205 25.2387893,10.3553705 25.0661513,10.2511505 Z" id="Path"></path>
                            <path d="M3.4559999,18.9969362 C3.4559999,20.8908242 7.2230398,21.8819401 10.9440177,21.8819401 C14.6649956,21.8819401 18.4320355,20.8907702 18.4320355,18.9969362 C18.4320355,15.2092143 3.4559999,15.2092143 3.4559999,18.9969362 Z" id="Path"></path>
                            <path d="M18.1541515,21.7912741 C17.9819995,21.6881341 17.7671335,21.6802501 17.5888255,21.7738321 C16.0374595,22.5875041 13.6777676,23.0360281 10.9440177,23.0360281 C8.21026777,23.0360281 5.85057584,22.5875041 4.29920988,21.7738321 C4.12090188,21.6803041 3.90544189,21.6881881 3.73388389,21.7912741 C3.5611919,21.8954941 3.4559999,22.0831441 3.4559999,22.2848881 L3.4559999,22.4589841 C3.4559999,24.3528721 7.2230398,25.343988 10.9440177,25.343988 C14.6649956,25.343988 18.4320355,24.3528181 18.4320355,22.4589841 L18.4320355,22.2848881 C18.4320355,22.0831441 18.3267895,21.8954941 18.1541515,21.7912741 Z" id="Path"></path>
                            <path d="M7.48801779,5.72584259 C8.26594177,5.72584259 9.04391975,5.68188659 9.80045972,5.59456859 C9.92363372,5.58047459 10.0389777,5.52696059 10.1295357,5.4418566 C11.0019597,4.61916662 12.4925756,4.01231464 14.4399776,3.68718065 C14.6458796,3.65278265 14.8174376,3.50968265 14.8877456,3.31247466 C14.9473616,3.14626266 14.9760356,2.99187667 14.9760356,2.84083867 C14.9760356,-0.946937223 -4.26325648e-14,-0.946937223 -4.26325648e-14,2.84078467 C-4.26325648e-14,4.73467262 3.76703989,5.72584259 7.48801779,5.72584259 Z" id="Path"></path>
                            <path d="M7.48801779,9.18783649 C7.96499978,9.18783649 8.43020976,9.17147449 8.88078575,9.14161249 C9.06249574,9.12919249 9.22730374,9.0323165 9.32628574,8.8790105 C9.42472773,8.7262985 9.44551773,8.53530051 9.38255374,8.36455251 C9.27061174,8.06307052 9.21607174,7.76612453 9.21887974,7.42581654 C9.21887974,7.26802855 9.15418774,7.11704455 9.03997775,7.00828855 C8.92636175,6.89953256 8.76603575,6.83359856 8.61526776,6.84936656 C8.23894177,6.86740256 7.86261578,6.87976856 7.48801779,6.87976856 C4.75426787,6.87976856 2.39457593,6.43124457 0.843209976,5.61757259 C0.664901981,5.52404459 0.449441987,5.53138859 0.277883992,5.63501459 C0.105191997,5.73934259 -1.45483627e-13,5.92699258 -1.45483627e-13,6.12873658 L-1.45483627e-13,6.30283257 C-1.45483627e-13,8.19672052 3.76703989,9.18783649 7.48801779,9.18783649 Z" id="Path"></path>
                            <path d="M7.48801779,12.6498844 C7.96499978,12.6498844 8.43020976,12.6335224 8.88078575,12.6036604 C9.06249574,12.5912404 9.22730374,12.4943644 9.32628574,12.3410584 C9.42472773,12.1883464 9.44551773,11.9973484 9.38255374,11.8266004 C9.27061174,11.5251184 9.21607174,11.2281724 9.21607174,10.8878644 C9.21607174,10.7300764 9.15137974,10.5790925 9.03716975,10.4703365 C8.92355375,10.3615805 8.76603575,10.2995885 8.61245976,10.3114145 C8.23726777,10.3294505 7.86207578,10.3418165 7.48801779,10.3418165 C4.75426787,10.3418165 2.39457593,9.89329247 0.843209976,9.07962049 C0.664901981,8.9860925 0.449441987,8.9934365 0.277883992,9.09706249 C0.105191997,9.20139049 -1.45483627e-13,9.38904049 -1.45483627e-13,9.59073048 L-1.45483627e-13,9.76482648 C-1.45483627e-13,11.6587144 3.76703989,12.6498844 7.48801779,12.6498844 Z" id="Path"></path>
                            <path d="M25.0661513,17.1751923 C24.8934593,17.0698383 24.6791333,17.0641683 24.5008253,17.1577503 C23.4168833,17.7263163 21.8919234,18.1235402 20.0914014,18.3055742 C19.7876514,18.3365702 19.5711114,18.6915662 19.5840174,18.9969902 C19.5840174,19.2894542 19.5367675,19.5689042 19.4399995,19.8500822 C19.3758475,20.0365982 19.4113255,20.2434182 19.5339595,20.3978042 C19.6442274,20.5358822 19.8101694,20.6153162 19.9845354,20.6153162 C20.0047854,20.6153162 20.0255754,20.6141822 20.0464194,20.6119142 C23.3634773,20.2535162 25.3440353,19.2184442 25.3440353,17.8429562 L25.3440353,17.6688063 C25.3440353,17.4671163 25.2387893,17.2794663 25.0661513,17.1751923 Z" id="Path"></path>
                            <path d="M10.9440177,14.9578983 L11.3259597,14.9646483 C11.3293617,14.9646483 11.3327097,14.9646483 11.3361117,14.9646483 C11.6049777,14.9646483 11.8384197,14.7781323 11.8980357,14.5149903 C11.9582457,14.2479063 11.8232457,13.9757464 11.5745757,13.8624544 L11.4514017,13.8072124 C11.3692677,13.7711404 11.2865937,13.7350684 11.2100757,13.6950544 C11.0306337,13.6009324 10.8180357,13.6094104 10.6453437,13.7136304 C10.4731917,13.8178504 10.3680537,14.0049604 10.3680537,14.2066504 L10.3680537,14.3807463 C10.3679997,14.6998323 10.6256337,14.9578983 10.9440177,14.9578983 Z" id="Path"></path>
                            <path d="M25.0661513,13.7131984 C24.8945933,13.6095184 24.6791333,13.6021744 24.5008253,13.6957564 C22.9494594,14.5094283 20.5897674,14.9579523 17.8560175,14.9579523 L17.4757495,14.9506083 C17.2434415,14.9308983 16.9655575,15.1354503 16.9064815,15.4019403 C16.8468655,15.6684843 16.9818655,15.9400503 17.2299415,16.0527483 C17.8537495,16.3367343 18.3634015,16.6742883 18.7442095,17.0557443 C18.8527495,17.1639603 18.9990355,17.2242243 19.1514775,17.2242243 C19.1633035,17.2242243 19.1756695,17.2236843 19.1880355,17.2230903 C22.0275174,17.0427843 25.3440353,16.1902323 25.3440353,14.3809083 L25.3440353,14.2068124 C25.3440353,14.0050684 25.2387893,13.8174184 25.0661513,13.7131984 Z" id="Path"></path>
                            <path d="M4.81723186,15.9327603 C4.88921386,15.9327603 4.96124986,15.9192603 5.02928986,15.8922063 C6.04405783,15.4904463 7.2815218,15.2137503 8.70803975,15.0701103 C9.01178975,15.0397083 9.22892374,14.6553903 9.21596374,14.3499663 C9.21596374,14.1921784 9.15127174,14.0411944 9.03706175,13.9324384 C8.92344575,13.8236824 8.76592775,13.7656324 8.61235176,13.7735164 C8.23715977,13.7915524 7.86196778,13.8039184 7.48790979,13.8039184 C4.75415987,13.8039184 2.39446793,13.3553944 0.843101976,12.5417224 C0.664793981,12.4481944 0.449333987,12.4555384 0.277775992,12.5591644 C0.105191997,12.6634384 2.05169218e-13,12.8510344 2.05169218e-13,13.0527784 L2.05169218e-13,13.2268744 C2.05169218e-13,14.5020303 1.77076795,15.5117763 4.73736587,15.9270903 C4.76382587,15.9310323 4.79082587,15.9327603 4.81723186,15.9327603 Z" id="Path"></path>
                        </g>
                        <ellipse id="Oval" stroke="#C7D7FD" cx="24.5" cy="24" rx="24.5" ry="24"></ellipse>
                    </g>
                    <g id="money-copy-2" transform="translate(79.000000, 53.000000)">
                        <g id="money" transform="translate(12.000000, 12.500000)" fill="#004FFF" fill-rule="nonzero">
                            <path d="M10.3679997,7.45686654 C10.3679997,9.35070049 14.1350396,10.3418705 17.8560175,10.3418705 C21.5769954,10.3418705 25.3440353,9.35070049 25.3440353,7.45686654 C25.3440353,3.66914465 10.3679997,3.66914465 10.3679997,7.45686654 Z" id="Path"></path>
                            <path d="M25.0661513,10.2511505 C24.8945933,10.1474705 24.6791333,10.1401265 24.5008253,10.2337085 C22.9494594,11.0473804 20.5897674,11.4959044 17.8560175,11.4959044 C15.1222676,11.4959044 12.7625756,11.0473804 11.2112097,10.2337085 C11.0329017,10.1401805 10.8174417,10.1474705 10.6458837,10.2511505 C10.4731917,10.3553705 10.3679997,10.5430205 10.3679997,10.7447644 L10.3679997,10.9188604 C10.3679997,12.8126944 14.1350396,13.8038644 17.8560175,13.8038644 C21.5769954,13.8038644 25.3440353,12.8126944 25.3440353,10.9188604 L25.3440353,10.7447644 C25.3440353,10.5430205 25.2387893,10.3553705 25.0661513,10.2511505 Z" id="Path"></path>
                            <path d="M3.4559999,18.9969362 C3.4559999,20.8908242 7.2230398,21.8819401 10.9440177,21.8819401 C14.6649956,21.8819401 18.4320355,20.8907702 18.4320355,18.9969362 C18.4320355,15.2092143 3.4559999,15.2092143 3.4559999,18.9969362 Z" id="Path"></path>
                            <path d="M18.1541515,21.7912741 C17.9819995,21.6881341 17.7671335,21.6802501 17.5888255,21.7738321 C16.0374595,22.5875041 13.6777676,23.0360281 10.9440177,23.0360281 C8.21026777,23.0360281 5.85057584,22.5875041 4.29920988,21.7738321 C4.12090188,21.6803041 3.90544189,21.6881881 3.73388389,21.7912741 C3.5611919,21.8954941 3.4559999,22.0831441 3.4559999,22.2848881 L3.4559999,22.4589841 C3.4559999,24.3528721 7.2230398,25.343988 10.9440177,25.343988 C14.6649956,25.343988 18.4320355,24.3528181 18.4320355,22.4589841 L18.4320355,22.2848881 C18.4320355,22.0831441 18.3267895,21.8954941 18.1541515,21.7912741 Z" id="Path"></path>
                            <path d="M7.48801779,5.72584259 C8.26594177,5.72584259 9.04391975,5.68188659 9.80045972,5.59456859 C9.92363372,5.58047459 10.0389777,5.52696059 10.1295357,5.4418566 C11.0019597,4.61916662 12.4925756,4.01231464 14.4399776,3.68718065 C14.6458796,3.65278265 14.8174376,3.50968265 14.8877456,3.31247466 C14.9473616,3.14626266 14.9760356,2.99187667 14.9760356,2.84083867 C14.9760356,-0.946937223 -4.26325648e-14,-0.946937223 -4.26325648e-14,2.84078467 C-4.26325648e-14,4.73467262 3.76703989,5.72584259 7.48801779,5.72584259 Z" id="Path"></path>
                            <path d="M7.48801779,9.18783649 C7.96499978,9.18783649 8.43020976,9.17147449 8.88078575,9.14161249 C9.06249574,9.12919249 9.22730374,9.0323165 9.32628574,8.8790105 C9.42472773,8.7262985 9.44551773,8.53530051 9.38255374,8.36455251 C9.27061174,8.06307052 9.21607174,7.76612453 9.21887974,7.42581654 C9.21887974,7.26802855 9.15418774,7.11704455 9.03997775,7.00828855 C8.92636175,6.89953256 8.76603575,6.83359856 8.61526776,6.84936656 C8.23894177,6.86740256 7.86261578,6.87976856 7.48801779,6.87976856 C4.75426787,6.87976856 2.39457593,6.43124457 0.843209976,5.61757259 C0.664901981,5.52404459 0.449441987,5.53138859 0.277883992,5.63501459 C0.105191997,5.73934259 -1.45483627e-13,5.92699258 -1.45483627e-13,6.12873658 L-1.45483627e-13,6.30283257 C-1.45483627e-13,8.19672052 3.76703989,9.18783649 7.48801779,9.18783649 Z" id="Path"></path>
                            <path d="M7.48801779,12.6498844 C7.96499978,12.6498844 8.43020976,12.6335224 8.88078575,12.6036604 C9.06249574,12.5912404 9.22730374,12.4943644 9.32628574,12.3410584 C9.42472773,12.1883464 9.44551773,11.9973484 9.38255374,11.8266004 C9.27061174,11.5251184 9.21607174,11.2281724 9.21607174,10.8878644 C9.21607174,10.7300764 9.15137974,10.5790925 9.03716975,10.4703365 C8.92355375,10.3615805 8.76603575,10.2995885 8.61245976,10.3114145 C8.23726777,10.3294505 7.86207578,10.3418165 7.48801779,10.3418165 C4.75426787,10.3418165 2.39457593,9.89329247 0.843209976,9.07962049 C0.664901981,8.9860925 0.449441987,8.9934365 0.277883992,9.09706249 C0.105191997,9.20139049 -1.45483627e-13,9.38904049 -1.45483627e-13,9.59073048 L-1.45483627e-13,9.76482648 C-1.45483627e-13,11.6587144 3.76703989,12.6498844 7.48801779,12.6498844 Z" id="Path"></path>
                            <path d="M25.0661513,17.1751923 C24.8934593,17.0698383 24.6791333,17.0641683 24.5008253,17.1577503 C23.4168833,17.7263163 21.8919234,18.1235402 20.0914014,18.3055742 C19.7876514,18.3365702 19.5711114,18.6915662 19.5840174,18.9969902 C19.5840174,19.2894542 19.5367675,19.5689042 19.4399995,19.8500822 C19.3758475,20.0365982 19.4113255,20.2434182 19.5339595,20.3978042 C19.6442274,20.5358822 19.8101694,20.6153162 19.9845354,20.6153162 C20.0047854,20.6153162 20.0255754,20.6141822 20.0464194,20.6119142 C23.3634773,20.2535162 25.3440353,19.2184442 25.3440353,17.8429562 L25.3440353,17.6688063 C25.3440353,17.4671163 25.2387893,17.2794663 25.0661513,17.1751923 Z" id="Path"></path>
                            <path d="M10.9440177,14.9578983 L11.3259597,14.9646483 C11.3293617,14.9646483 11.3327097,14.9646483 11.3361117,14.9646483 C11.6049777,14.9646483 11.8384197,14.7781323 11.8980357,14.5149903 C11.9582457,14.2479063 11.8232457,13.9757464 11.5745757,13.8624544 L11.4514017,13.8072124 C11.3692677,13.7711404 11.2865937,13.7350684 11.2100757,13.6950544 C11.0306337,13.6009324 10.8180357,13.6094104 10.6453437,13.7136304 C10.4731917,13.8178504 10.3680537,14.0049604 10.3680537,14.2066504 L10.3680537,14.3807463 C10.3679997,14.6998323 10.6256337,14.9578983 10.9440177,14.9578983 Z" id="Path"></path>
                            <path d="M25.0661513,13.7131984 C24.8945933,13.6095184 24.6791333,13.6021744 24.5008253,13.6957564 C22.9494594,14.5094283 20.5897674,14.9579523 17.8560175,14.9579523 L17.4757495,14.9506083 C17.2434415,14.9308983 16.9655575,15.1354503 16.9064815,15.4019403 C16.8468655,15.6684843 16.9818655,15.9400503 17.2299415,16.0527483 C17.8537495,16.3367343 18.3634015,16.6742883 18.7442095,17.0557443 C18.8527495,17.1639603 18.9990355,17.2242243 19.1514775,17.2242243 C19.1633035,17.2242243 19.1756695,17.2236843 19.1880355,17.2230903 C22.0275174,17.0427843 25.3440353,16.1902323 25.3440353,14.3809083 L25.3440353,14.2068124 C25.3440353,14.0050684 25.2387893,13.8174184 25.0661513,13.7131984 Z" id="Path"></path>
                            <path d="M4.81723186,15.9327603 C4.88921386,15.9327603 4.96124986,15.9192603 5.02928986,15.8922063 C6.04405783,15.4904463 7.2815218,15.2137503 8.70803975,15.0701103 C9.01178975,15.0397083 9.22892374,14.6553903 9.21596374,14.3499663 C9.21596374,14.1921784 9.15127174,14.0411944 9.03706175,13.9324384 C8.92344575,13.8236824 8.76592775,13.7656324 8.61235176,13.7735164 C8.23715977,13.7915524 7.86196778,13.8039184 7.48790979,13.8039184 C4.75415987,13.8039184 2.39446793,13.3553944 0.843101976,12.5417224 C0.664793981,12.4481944 0.449333987,12.4555384 0.277775992,12.5591644 C0.105191997,12.6634384 2.05169218e-13,12.8510344 2.05169218e-13,13.0527784 L2.05169218e-13,13.2268744 C2.05169218e-13,14.5020303 1.77076795,15.5117763 4.73736587,15.9270903 C4.76382587,15.9310323 4.79082587,15.9327603 4.81723186,15.9327603 Z" id="Path"></path>
                        </g>
                        <ellipse id="Oval" stroke="#C7D7FD" cx="24.5" cy="24" rx="24.5" ry="24"></ellipse>
                    </g>
                    <line x1="435" y1="78" x2="515" y2="78" id="Line-3-Copy" stroke="#004FFF" stroke-width="2" stroke-linecap="round" stroke-linejoin="round" stroke-dasharray="1,7"></line>
                    <circle id="Oval" fill="#004FFF" cx="530" cy="62" r="4"></circle>
                    <circle id="Oval-Copy-6" fill="#004FFF" cx="117" cy="57" r="4"></circle>
                    <g id="Group" transform="translate(358.017630, 40.000000)">
                        <rect id="Rectangle" fill="#F3F5F9" x="0.982369533" y="3" width="21" height="70" rx="2"></rect>
                        <path d="M0.982369533,38 L21.9823695,38 L21.9823695,71 C21.9823695,72.1045695 21.086939,73 19.9823695,73 L2.98236953,73 C1.87780003,73 0.982369533,72.1045695 0.982369533,71 L0.982369533,38 L0.982369533,38 Z" id="Rectangle" fill="#E88888"></path>
                        <line x1="1.48895301" y1="16.674785" x2="21.4945092" y2="16.3852542" id="Line-4" stroke="#CECECE" stroke-linecap="square" transform="translate(11.499848, 16.210197) rotate(1.000000) translate(-11.499848, -16.210197) "></line>
                        <text id="MIN" font-family="Avenir-Heavy, Avenir" font-size="8" font-weight="600" line-spacing="32" letter-spacing="1.1" fill="#333333">
                            <tspan x="27.3323695" y="8">MIN</tspan>
                        </text>
                        <g id="coin" transform="translate(10.982370, 42.500000) scale(-1, -1) translate(-10.982370, -42.500000) translate(6.982370, 35.000000)" fill="#FFFFFF" fill-rule="nonzero">
                            <path d="M4.81078899,6.79506579 L3.18921101,6.79506579 C2.26538491,6.79506579 1.51383948,6.09520677 1.51383948,5.23496241 C1.51383948,4.37467105 2.26543537,3.67481203 3.18921101,3.67481203 L6.4323165,3.67481203 C6.85035198,3.67481203 7.18926147,3.35921053 7.18926147,2.96992481 C7.18926147,2.5806391 6.85035198,2.26503759 6.4323165,2.26503759 L4.75694497,2.26503759 L4.75694497,0.704887218 C4.75694497,0.315601504 4.41803548,0 4,0 C3.58196452,0 3.24305503,0.315601504 3.24305503,0.704887218 L3.24305503,2.26503759 L3.18926147,2.26503759 C1.43067646,2.26503759 0,3.59736842 0,5.23496241 C0,6.87255639 1.43072692,8.20484023 3.18926147,8.20484023 L4.81083945,8.20484023 C5.73461509,8.20484023 6.48616052,8.90474624 6.48616052,9.7649906 C6.48616052,10.625235 5.73461509,11.325141 4.81083945,11.325141 L1.56773396,11.325141 C1.14969848,11.325141 0.810788989,11.6407425 0.810788989,12.0300282 C0.810788989,12.4193139 1.14969848,12.7349154 1.56773396,12.7349154 L3.24305503,12.7349154 L3.24305503,14.2951128 C3.24305503,14.6843985 3.58196452,15 4,15 C4.41803548,15 4.75694497,14.6843985 4.75694497,14.2951128 L4.75694497,12.7349154 L4.81078899,12.7349154 C6.56932354,12.7349154 8,11.4025846 8,9.7649906 C8,8.12739662 6.56932354,6.79506579 4.81078899,6.79506579 Z" id="Path"></path>
                        </g>
                    </g>
                    <path d="M128,49.9657702 C183.373858,16.6552567 249.024779,0 324.952765,0 C438.844743,0 521,49.9657702 521,49.9657702" id="Line-3-Copy-2" stroke="#004FFF" stroke-width="2" stroke-linecap="round" stroke-linejoin="round" stroke-dasharray="1,7"></path>
                    <g id="wrong" transform="translate(405.000000, 66.000000)" stroke="#E88888" stroke-width="1.5">
                        <circle id="Oval" cx="12" cy="12" r="12"></circle>
                        <line x1="8" y1="8" x2="16" y2="16" id="Line-2" stroke-linecap="round" stroke-linejoin="round"></line>
                        <line x1="8" y1="8" x2="16" y2="16" id="Line-2-Copy" stroke-linecap="round" stroke-linejoin="round" transform="translate(12.000000, 12.000000) scale(-1, 1) translate(-12.000000, -12.000000) "></line>
                    </g>
                </g>
            </g>
        </g>
    </g>
</svg>