<svg width="106" height="123" viewBox="0 0 106 123" fill="none" xmlns="http://www.w3.org/2000/svg">
<path d="M63.3623 116.671L0 81.6286L41.8807 57.6768L105.077 92.8978L63.3623 116.671Z" fill="#F9F9F9"/>
<path d="M64.2598 73.7974L105.039 92.8977L84.92 62.0188L64.2598 73.7974Z" fill="url(#paint0_linear)"/>
<path d="M63.3563 116.748C53.6321 99.6424 43.8994 82.537 34.1582 65.4315L72.3589 78.6362C69.3665 91.3401 66.3657 104.044 63.3563 116.748Z" fill="url(#paint1_linear)"/>
<path d="M63.3623 116.652L0 81.6095V87.8044L31.0954 105.141L63.3623 122.968L105.077 99.2009V92.8978L63.3623 116.652Z" fill="#EDEFF1"/>
<path d="M63.3245 116.678L63.2354 116.633V122.949L63.3245 123L105.04 99.2646V92.8978L63.3245 116.678Z" fill="#CFD8DB"/>
<path d="M32.2796 55.9131L0 81.6094L63.6679 73.269L32.2796 55.9131Z" fill="url(#paint2_linear)"/>
<path d="M74.3385 64.3556C74.6268 64.3556 74.8606 64.1218 74.8606 63.8335C74.8606 63.5451 74.6268 63.3114 74.3385 63.3114C74.0501 63.3114 73.8164 63.5451 73.8164 63.8335C73.8164 64.1218 74.0501 64.3556 74.3385 64.3556Z" fill="#6291FB"/>
<path d="M76.7646 62.9611C77.0283 62.9611 77.2421 62.7473 77.2421 62.4836C77.2421 62.2199 77.0283 62.0061 76.7646 62.0061C76.5009 62.0061 76.2871 62.2199 76.2871 62.4836C76.2871 62.7473 76.5009 62.9611 76.7646 62.9611Z" fill="#6291FB"/>
<path d="M79.1965 61.5733C79.028 61.5758 78.8748 61.476 78.8091 61.3207C78.7434 61.1655 78.7784 60.986 78.8976 60.8668C79.0168 60.7477 79.1963 60.7127 79.3515 60.7783C79.5067 60.844 79.6066 60.9973 79.604 61.1658C79.604 61.2738 79.5611 61.3775 79.4847 61.4539C79.4083 61.5303 79.3046 61.5733 79.1965 61.5733Z" fill="#6291FB"/>
<path d="M32.7256 35.5522L41.55 44.1346L55.5569 34.9601L32.7256 35.5522Z" fill="url(#paint3_linear)"/>
<path d="M47.9924 26.0846C47.6865 26.0846 47.4385 25.8366 47.4385 25.5307C47.4385 25.2248 47.6865 24.9768 47.9924 24.9768C48.2983 24.9768 48.5463 25.2248 48.5463 25.5307C48.5463 25.8366 48.2983 26.0846 47.9924 26.0846Z" fill="#6291FB"/>
<path d="M50.4191 24.6967C50.718 24.6967 50.9603 24.4544 50.9603 24.1556C50.9603 23.8567 50.718 23.6144 50.4191 23.6144C50.1202 23.6144 49.8779 23.8567 49.8779 24.1556C49.8779 24.4544 50.1202 24.6967 50.4191 24.6967Z" fill="#6291FB"/>
<path d="M52.8444 23.3152C52.6275 23.3152 52.4321 23.1842 52.3497 22.9836C52.2673 22.783 52.3142 22.5524 52.4685 22.4C52.6228 22.2476 52.8538 22.2034 53.0535 22.2882C53.2531 22.373 53.3818 22.5699 53.3792 22.7868C53.3757 23.0797 53.1373 23.3153 52.8444 23.3152Z" fill="#6291FB"/>
<path d="M55.2706 21.9336C54.9858 21.9336 54.7549 21.7028 54.7549 21.4179C54.7549 21.1331 54.9858 20.9022 55.2706 20.9022C55.5554 20.9022 55.7863 21.1331 55.7863 21.4179C55.7863 21.5547 55.732 21.6859 55.6353 21.7826C55.5385 21.8793 55.4074 21.9336 55.2706 21.9336Z" fill="#6291FB"/>
<path d="M57.6836 20.5457C57.4816 20.5483 57.2982 20.4282 57.2197 20.2421C57.1412 20.0559 57.1833 19.8408 57.3261 19.698C57.469 19.5551 57.6841 19.513 57.8703 19.5915C58.0564 19.67 58.1764 19.8534 58.1739 20.0554C58.1739 20.3262 57.9544 20.5457 57.6836 20.5457Z" fill="#6291FB"/>
<path d="M60.122 19.1641C59.8583 19.1641 59.6445 18.9503 59.6445 18.6866C59.6445 18.4229 59.8583 18.2091 60.122 18.2091C60.3858 18.2091 60.5995 18.4229 60.5995 18.6866C60.5995 18.9503 60.3858 19.1641 60.122 19.1641Z" fill="#6291FB"/>
<path fill-rule="evenodd" clip-rule="evenodd" d="M67.4434 37.8123V45.5926L63.7252 47.7191L61.9552 44.2365C61.631 45.3623 61.1441 46.4347 60.51 47.4198L63.2668 54.7926L58.4726 57.5239L53.4747 51.4691C52.2964 51.5179 51.1172 51.3979 49.9729 51.1126L48.3876 56.4925L44.6949 58.6254L40.0216 45.3697C38.7736 44.2224 37.6057 42.9907 36.5263 41.6833L31.522 41.9635L26.7342 33.6867L29.491 29.5164C28.8958 27.9352 28.4128 26.3141 28.0457 24.6649L18.8457 14.147L22.5512 11.9059L28.0457 13.2493C28.3685 12.1229 28.8554 11.0503 29.491 10.0659L26.7087 2.73135L31.4965 0L36.5008 6.05481C37.6795 6.0051 38.8591 6.12735 40.0025 6.41772L37.9461 3.27252L41.6133 1.03143L48.3876 4.94061L49.9729 12.1797C51.2231 13.3247 52.3931 14.5542 53.4747 15.8597L58.4726 15.5286L63.2668 23.8054L60.51 27.9566C61.104 29.5446 61.5869 31.1721 61.9552 32.8271L67.4434 37.8123ZM36.9202 24.0791C36.9202 29.198 40.5429 35.4311 44.9996 38.0096C49.4564 40.5818 53.0727 38.5254 53.0727 33.4065C53.0727 28.2876 49.4627 22.0481 44.9996 19.4759C40.5365 16.9037 36.9202 18.9602 36.9202 24.0791Z" fill="#6A98FF"/>
<path fill-rule="evenodd" clip-rule="evenodd" d="M82.8385 70.1238V73.9439L80.9984 75.0326L80.1198 73.3072C79.9579 73.8637 79.7156 74.3935 79.4004 74.8798L80.7692 78.5153L78.3944 79.865L75.9178 76.8663C75.3349 76.8925 74.7513 76.8324 74.186 76.688L73.3965 79.3557L71.5692 80.4126L69.2517 73.842C68.6346 73.2743 68.0561 72.6659 67.52 72.0211L65.0433 72.1612L62.6685 68.0674L64.0373 66.0682C63.7414 65.2838 63.501 64.4796 63.3179 63.6616L58.7656 58.4535L60.5993 57.3393L63.3179 57.976C63.4798 57.4196 63.7222 56.8897 64.0373 56.4034L62.6685 52.768L65.0433 51.4182L67.52 54.417C68.1049 54.391 68.6906 54.451 69.2581 54.5952L68.2394 53.0354L70.0412 51.9276L73.3965 53.8376L74.186 57.4157C74.8031 57.9835 75.3816 58.5918 75.9178 59.2366L78.3944 59.0966L80.7692 63.1968L79.4004 65.2469C79.6963 66.0312 79.9367 66.8354 80.1198 67.6535L82.8385 70.1238ZM67.7177 63.2858C67.8758 66.0933 69.3634 68.657 71.7224 70.1874C73.9316 71.4608 75.7207 70.4421 75.7207 67.9081C75.565 65.1015 74.0797 62.5376 71.7224 61.0065C69.5131 59.7332 67.7177 60.7391 67.7177 63.2858Z" fill="#6595FF"/>
<path fill-rule="evenodd" clip-rule="evenodd" d="M63.7507 39.9452V47.6936L58.2625 46.3693C57.9374 47.4948 57.4506 48.5671 56.8172 49.5527L59.5931 56.8872L54.8053 59.644L49.8074 53.5892C48.6287 53.6389 47.4491 53.5167 46.3057 53.2263L44.7203 58.6126L37.9461 54.6971L36.3544 47.458C35.1042 46.313 33.9342 45.0834 32.8526 43.778L27.8292 44.0645L23.0414 35.7877L25.7791 31.6429C25.183 30.062 24.7001 28.4408 24.3339 26.7914L18.8457 21.8062V14.026L24.3721 15.4076C24.6954 14.2814 25.1824 13.2089 25.8173 12.2242L23.0605 4.89603L27.8483 2.16467L32.8526 8.21948C34.0315 8.15964 35.2129 8.26898 36.3607 8.54419L37.9461 3.16425L44.6949 7.07346L46.2993 14.2743C47.551 15.42 48.7211 16.6518 49.801 17.9607L54.799 17.6805L59.5931 25.9574L56.97 29.9621C57.6444 31.6012 58.2081 33.2837 58.6572 34.9982L63.7507 39.9452ZM33.2338 26.2121C33.2338 31.331 36.8501 37.5959 41.3069 40.1427C45.7636 42.7148 49.4054 40.6584 49.4054 35.5395C49.4054 30.4206 45.77 24.1366 41.3069 21.5898C36.8437 19.0431 33.2338 21.0932 33.2338 26.2121Z" fill="#D5E1FB"/>
<path fill-rule="evenodd" clip-rule="evenodd" d="M81.0361 71.2506V75.0707L78.3111 74.3831C78.1526 74.9417 77.9123 75.4738 77.598 75.9621L78.9605 79.5912L76.5857 80.9473L74.109 77.9485C73.5263 77.9713 72.9432 77.9113 72.3773 77.7702L71.5942 80.4379L68.2325 78.4961L67.4494 74.9243C66.8275 74.3591 66.2486 73.7484 65.7176 73.097L63.2346 73.2371L60.8661 69.1432L62.2159 67.0868C61.922 66.3044 61.6837 65.5024 61.5028 64.6865L58.7842 62.2162V58.3961L61.5028 59.0328C61.6653 58.4735 61.9099 57.9413 62.2286 57.4538L60.8661 53.8248L63.2473 52.4686L65.6858 55.5501C66.2685 55.5277 66.8516 55.5877 67.4175 55.7284L68.2007 53.0607L71.5623 54.9708L72.3454 58.5425C72.9642 59.1087 73.5428 59.7171 74.0772 60.3634L76.5539 60.2297L78.9287 64.3236L77.6553 66.3036C77.9875 67.1165 78.2661 67.9502 78.4894 68.7994L81.0361 71.2506ZM65.9219 64.4192C66.0785 67.2238 67.5639 69.7853 69.9202 71.3144V71.2953C72.1295 72.575 73.9186 71.55 73.9186 69.0351C73.7608 66.2291 72.276 63.6661 69.9202 62.1335C67.7109 60.8601 65.9219 61.8725 65.9219 64.4192Z" fill="#D5E1FB"/>
<path d="M4.35545 50.877C4.3238 50.877 4.29815 50.8513 4.29815 50.8197C4.29815 50.788 4.3238 50.7624 4.35545 50.7624C4.3871 50.7624 4.41275 50.788 4.41275 50.8197C4.41275 50.8349 4.40671 50.8495 4.39597 50.8602C4.38522 50.8709 4.37065 50.877 4.35545 50.877Z" fill="#6291FB"/>
<path d="M6.78051 49.5145C6.70908 49.5146 6.65021 49.4585 6.6468 49.3872C6.65003 49.3147 6.70804 49.2567 6.78051 49.2535C6.85185 49.2569 6.90792 49.3158 6.90784 49.3872C6.90784 49.4575 6.85083 49.5145 6.78051 49.5145Z" fill="#6291FB"/>
<path d="M9.20644 48.1392C9.12809 48.1418 9.05612 48.0963 9.02494 48.0243C8.99375 47.9524 9.00968 47.8687 9.06512 47.8133C9.12055 47.7579 9.20423 47.7419 9.27616 47.7731C9.34808 47.8043 9.39365 47.8763 9.39108 47.9546C9.39108 48.0566 9.30841 48.1392 9.20644 48.1392Z" fill="#6291FB"/>
<path d="M11.6259 46.7641C11.4888 46.7641 11.3776 46.6529 11.3776 46.5158C11.3776 46.3787 11.4888 46.2675 11.6259 46.2675C11.763 46.2675 11.8742 46.3787 11.8742 46.5158C11.876 46.5822 11.8504 46.6464 11.8034 46.6933C11.7565 46.7403 11.6923 46.7659 11.6259 46.7641Z" fill="#6291FB"/>
<path d="M14.0517 45.3825C13.8865 45.3825 13.7525 45.2485 13.7525 45.0832C13.7525 44.918 13.8865 44.784 14.0517 44.784C14.217 44.784 14.351 44.918 14.351 45.0832C14.351 45.2485 14.217 45.3825 14.0517 45.3825Z" fill="#6291FB"/>
<path d="M16.4776 44.0072C16.6675 44.0072 16.8214 43.8533 16.8214 43.6634C16.8214 43.4735 16.6675 43.3196 16.4776 43.3196C16.2877 43.3196 16.1338 43.4735 16.1338 43.6634C16.1338 43.8533 16.2877 44.0072 16.4776 44.0072Z" fill="#6291FB"/>
<path d="M18.9025 42.6319C18.7443 42.6345 18.6003 42.5408 18.5386 42.3951C18.4769 42.2495 18.5097 42.0809 18.6216 41.969C18.7335 41.8571 18.902 41.8243 19.0477 41.886C19.1934 41.9478 19.2871 42.0917 19.2845 42.2499C19.2845 42.3512 19.2443 42.4484 19.1726 42.52C19.101 42.5917 19.0038 42.6319 18.9025 42.6319Z" fill="#6291FB"/>
<path d="M21.3279 41.2441C21.5565 41.2441 21.7417 41.0588 21.7417 40.8302C21.7417 40.6017 21.5565 40.4164 21.3279 40.4164C21.0993 40.4164 20.9141 40.6017 20.9141 40.8302C20.9141 41.0588 21.0993 41.2441 21.3279 41.2441Z" fill="#6291FB"/>
<path d="M23.7479 39.8752C23.5026 39.8717 23.3063 39.6706 23.3086 39.4253C23.3109 39.18 23.5111 38.9827 23.7564 38.9839C24.0017 38.985 24.1999 39.1842 24.1999 39.4295C24.1965 39.6767 23.9951 39.8752 23.7479 39.8752Z" fill="#6291FB"/>
<path d="M26.1738 38.4936C25.9801 38.4936 25.8056 38.3765 25.732 38.1973C25.6585 38.0181 25.7005 37.8122 25.8384 37.6762C25.9763 37.5401 26.1827 37.5009 26.361 37.5768C26.5392 37.6527 26.6539 37.8288 26.6513 38.0225C26.6478 38.2837 26.435 38.4936 26.1738 38.4936Z" fill="#6291FB"/>
<path d="M28.6001 37.1183C28.3259 37.1183 28.1035 36.896 28.1035 36.6217C28.1035 36.3475 28.3259 36.1251 28.6001 36.1251C28.8744 36.1251 29.0967 36.3475 29.0967 36.6217C29.0967 36.7534 29.0444 36.8798 28.9513 36.9729C28.8581 37.066 28.7318 37.1183 28.6001 37.1183Z" fill="#6291FB"/>
<path d="M31.0255 35.7432C31.3103 35.7432 31.5412 35.5123 31.5412 35.2275C31.5412 34.9427 31.3103 34.7118 31.0255 34.7118C30.7407 34.7118 30.5098 34.9427 30.5098 35.2275C30.5098 35.5123 30.7407 35.7432 31.0255 35.7432Z" fill="#6291FB"/>
<path d="M33.4513 34.3616C33.2339 34.3642 33.0365 34.2348 32.9521 34.0344C32.8677 33.834 32.913 33.6024 33.0668 33.4487C33.2206 33.2949 33.4522 33.2495 33.6526 33.3339C33.853 33.4183 33.9823 33.6157 33.9798 33.8331C33.9798 34.125 33.7432 34.3616 33.4513 34.3616Z" fill="#6291FB"/>
<path d="M35.8698 32.9863C35.6478 32.9863 35.4477 32.8522 35.3633 32.6468C35.279 32.4414 35.327 32.2054 35.4849 32.0494C35.6428 31.8933 35.8794 31.848 36.0838 31.9348C36.2882 32.0215 36.4199 32.2231 36.4173 32.4452C36.4173 32.5898 36.3595 32.7284 36.2566 32.8301C36.1537 32.9318 36.0144 32.988 35.8698 32.9863Z" fill="#6291FB"/>
<path d="M38.2961 31.6111C37.9902 31.6111 37.7422 31.3631 37.7422 31.0572C37.7422 30.7513 37.9902 30.5033 38.2961 30.5033C38.602 30.5033 38.85 30.7513 38.85 31.0572C38.8517 31.2046 38.7939 31.3465 38.6897 31.4508C38.5854 31.555 38.4435 31.6128 38.2961 31.6111Z" fill="#6291FB"/>
<path d="M40.7214 30.2294C40.412 30.2294 40.1611 29.9786 40.1611 29.6692C40.1611 29.3597 40.412 29.1089 40.7214 29.1089C41.0308 29.1089 41.2817 29.3597 41.2817 29.6692C41.2834 29.8183 41.2249 29.9618 41.1195 30.0672C41.014 30.1727 40.8705 30.2312 40.7214 30.2294Z" fill="#6291FB"/>
<path d="M43.1477 28.8542C42.8347 28.8542 42.5811 28.6005 42.5811 28.2876C42.5811 27.9746 42.8347 27.7209 43.1477 27.7209C43.4606 27.7209 43.7143 27.9746 43.7143 28.2876C43.7143 28.6005 43.4606 28.8542 43.1477 28.8542Z" fill="#6291FB"/>
<path d="M45.5862 27.4664C45.3584 27.4689 45.1518 27.3334 45.0634 27.1234C44.9751 26.9135 45.0226 26.671 45.1836 26.5099C45.3447 26.3489 45.5872 26.3014 45.7972 26.3897C46.0071 26.4781 46.1426 26.6847 46.1401 26.9124C46.1401 27.2184 45.8921 27.4664 45.5862 27.4664Z" fill="#6291FB"/>
<path d="M62.5404 17.7761C62.7865 17.7761 62.9861 17.5766 62.9861 17.3304C62.9861 17.0843 62.7865 16.8848 62.5404 16.8848C62.2943 16.8848 62.0947 17.0843 62.0947 17.3304C62.0947 17.5766 62.2943 17.7761 62.5404 17.7761Z" fill="#6291FB"/>
<path d="M64.9666 16.3945C64.738 16.3945 64.5527 16.2092 64.5527 15.9806C64.5527 15.7521 64.738 15.5668 64.9666 15.5668C65.1951 15.5668 65.3804 15.7521 65.3804 15.9806C65.3804 16.2092 65.1951 16.3945 64.9666 16.3945Z" fill="#6291FB"/>
<path d="M67.3927 15.0064C67.6037 15.0064 67.7748 14.8354 67.7748 14.6244C67.7748 14.4135 67.6037 14.2424 67.3927 14.2424C67.1818 14.2424 67.0107 14.4135 67.0107 14.6244C67.0107 14.8354 67.1818 15.0064 67.3927 15.0064Z" fill="#6291FB"/>
<path d="M69.8179 13.6249C69.6777 13.6275 69.55 13.5447 69.4952 13.4157C69.4403 13.2866 69.4693 13.1372 69.5685 13.0381C69.6676 12.9389 69.817 12.9099 69.9461 12.9648C70.0751 13.0196 70.1579 13.1473 70.1553 13.2875C70.1519 13.4724 70.0028 13.6215 69.8179 13.6249Z" fill="#6291FB"/>
<path d="M72.2446 12.2434C72.4098 12.2434 72.5438 12.1094 72.5438 11.9441C72.5438 11.7789 72.4098 11.6449 72.2446 11.6449C72.0793 11.6449 71.9453 11.7789 71.9453 11.9441C71.9453 12.1094 72.0793 12.2434 72.2446 12.2434Z" fill="#6291FB"/>
<path d="M74.6699 10.8553C74.5363 10.8553 74.428 10.747 74.428 10.6134C74.428 10.4798 74.5363 10.3714 74.6699 10.3714C74.8035 10.3714 74.9118 10.4798 74.9118 10.6134C74.9118 10.747 74.8035 10.8553 74.6699 10.8553Z" fill="#6291FB"/>
<path d="M77.0893 9.49285C76.9987 9.47611 76.933 9.39713 76.933 9.30503C76.933 9.21294 76.9987 9.13396 77.0893 9.11721C77.1646 9.10328 77.241 9.13573 77.2833 9.19963C77.3256 9.26354 77.3256 9.34653 77.2833 9.41043C77.241 9.47434 77.1646 9.50679 77.0893 9.49285Z" fill="#6291FB"/>
<path d="M79.5146 8.09223C79.5884 8.09223 79.6483 8.03237 79.6483 7.95853C79.6483 7.88469 79.5884 7.82483 79.5146 7.82483C79.4407 7.82483 79.3809 7.88469 79.3809 7.95853C79.3809 8.03237 79.4407 8.09223 79.5146 8.09223Z" fill="#6291FB"/>
<path d="M81.9404 6.70425C81.9088 6.70425 81.8831 6.6786 81.8831 6.64695C81.8831 6.61531 81.9088 6.58965 81.9404 6.58965C81.9721 6.58965 81.9977 6.61531 81.9977 6.64695C81.9977 6.6786 81.9721 6.70425 81.9404 6.70425Z" fill="#6291FB"/>
<path d="M52.4687 76.7771C52.4371 76.7771 52.4114 76.7515 52.4114 76.7198C52.4114 76.6882 52.4371 76.6625 52.4687 76.6625C52.5004 76.6625 52.526 76.6882 52.526 76.7198C52.526 76.735 52.52 76.7496 52.5092 76.7603C52.4985 76.7711 52.4839 76.7771 52.4687 76.7771Z" fill="#6291FB"/>
<path d="M54.9002 75.402C54.8153 75.4167 54.7296 75.3796 54.6823 75.3075C54.635 75.2354 54.635 75.142 54.6823 75.0699C54.7296 74.9978 54.8153 74.9607 54.9002 74.9754C55.004 74.9934 55.0797 75.0834 55.0797 75.1887C55.0797 75.294 55.004 75.384 54.9002 75.402Z" fill="#6291FB"/>
<path d="M57.3276 74.0203C57.1957 74.0202 57.0769 73.9404 57.027 73.8183C56.9772 73.6962 57.0061 73.556 57.1003 73.4637C57.1945 73.3714 57.3352 73.3452 57.4563 73.3974C57.5774 73.4497 57.6549 73.5701 57.6523 73.7019C57.6523 73.7875 57.6179 73.8694 57.5568 73.9293C57.4957 73.9892 57.4131 74.022 57.3276 74.0203Z" fill="#6291FB"/>
<path d="M59.7586 72.6451C59.9871 72.6451 60.1724 72.4598 60.1724 72.2312C60.1724 72.0027 59.9871 71.8174 59.7586 71.8174C59.53 71.8174 59.3447 72.0027 59.3447 72.2312C59.3447 72.4598 59.53 72.6451 59.7586 72.6451Z" fill="#6291FB"/>
<path d="M62.184 71.2507C61.9878 71.2507 61.8109 71.1321 61.7364 70.9505C61.6619 70.7689 61.7045 70.5603 61.8442 70.4224C61.9839 70.2846 62.1931 70.2448 62.3737 70.3217C62.5543 70.3986 62.6705 70.5769 62.6679 70.7732C62.6644 71.038 62.4488 71.2507 62.184 71.2507Z" fill="#6291FB"/>
<path d="M64.6168 69.8946C64.3285 69.8946 64.0947 69.6609 64.0947 69.3725C64.0947 69.0842 64.3285 68.8505 64.6168 68.8505C64.9051 68.8505 65.1389 69.0842 65.1389 69.3725C65.1389 69.6609 64.9051 69.8946 64.6168 69.8946Z" fill="#6291FB"/>
<path d="M67.0485 68.5131C67.3509 68.5131 67.5961 68.2679 67.5961 67.9655C67.5961 67.6631 67.3509 67.418 67.0485 67.418C66.7461 67.418 66.501 67.6631 66.501 67.9655C66.501 68.2679 66.7461 68.5131 67.0485 68.5131Z" fill="#6291FB"/>
<path d="M69.4748 67.1442C69.1619 67.1442 68.9082 66.8905 68.9082 66.5775C68.9082 66.2646 69.1619 66.0109 69.4748 66.0109C69.7878 66.0109 70.0415 66.2646 70.0415 66.5775C70.0415 66.7278 69.9818 66.8719 69.8755 66.9782C69.7693 67.0845 69.6251 67.1442 69.4748 67.1442Z" fill="#6291FB"/>
<path d="M71.9069 65.7498C71.6045 65.7498 71.3594 65.5046 71.3594 65.2022C71.3594 64.8998 71.6045 64.6547 71.9069 64.6547C72.2093 64.6547 72.4545 64.8998 72.4545 65.2022C72.4562 65.3479 72.3991 65.4882 72.296 65.5913C72.1929 65.6943 72.0527 65.7515 71.9069 65.7498Z" fill="#6291FB"/>
<path d="M81.6284 60.1853C81.8077 60.1853 81.9531 60.0399 81.9531 59.8606C81.9531 59.6813 81.8077 59.5359 81.6284 59.5359C81.4491 59.5359 81.3037 59.6813 81.3037 59.8606C81.3037 60.0399 81.4491 60.1853 81.6284 60.1853Z" fill="#6291FB"/>
<path d="M84.0547 58.7909C83.9386 58.7909 83.8446 58.6968 83.8446 58.5808C83.8446 58.4648 83.9386 58.3707 84.0547 58.3707C84.1707 58.3707 84.2648 58.4648 84.2648 58.5808C84.2648 58.6968 84.1707 58.7909 84.0547 58.7909Z" fill="#6291FB"/>
<path d="M86.487 57.3966C86.5186 57.3966 86.5443 57.3709 86.5443 57.3393C86.5443 57.3076 86.5186 57.282 86.487 57.282C86.4553 57.282 86.4297 57.3076 86.4297 57.3393C86.4297 57.3709 86.4553 57.3966 86.487 57.3966Z" fill="#6291FB"/>
<defs>
<linearGradient id="paint0_linear" x1="133.441" y1="71.0046" x2="94.6167" y2="44.5545" gradientUnits="userSpaceOnUse">
<stop stop-color="#6291FB"/>
<stop offset="0.01" stop-color="#6392FB" stop-opacity="0.99"/>
<stop offset="0.29" stop-color="#9AB8FC" stop-opacity="0.64"/>
<stop offset="0.55" stop-color="#C5D6FE" stop-opacity="0.37"/>
<stop offset="0.75" stop-color="#E4ECFE" stop-opacity="0.17"/>
<stop offset="0.91" stop-color="#F8FAFF" stop-opacity="0.05"/>
<stop offset="1" stop-color="white" stop-opacity="0.01"/>
</linearGradient>
<linearGradient id="paint1_linear" x1="110.827" y1="127.393" x2="68.6915" y2="57.1644" gradientUnits="userSpaceOnUse">
<stop stop-color="#6291FB"/>
<stop offset="0.01" stop-color="#6392FB" stop-opacity="0.99"/>
<stop offset="0.29" stop-color="#9AB8FC" stop-opacity="0.64"/>
<stop offset="0.55" stop-color="#C5D6FE" stop-opacity="0.37"/>
<stop offset="0.75" stop-color="#E4ECFE" stop-opacity="0.17"/>
<stop offset="0.91" stop-color="#F8FAFF" stop-opacity="0.05"/>
<stop offset="1" stop-color="white" stop-opacity="0.01"/>
</linearGradient>
<linearGradient id="paint2_linear" x1="-15.189" y1="96.0786" x2="37.838" y2="43.3898" gradientUnits="userSpaceOnUse">
<stop stop-color="#6291FB"/>
<stop offset="0.01" stop-color="#6392FB" stop-opacity="0.99"/>
<stop offset="0.29" stop-color="#9AB8FC" stop-opacity="0.64"/>
<stop offset="0.55" stop-color="#C5D6FE" stop-opacity="0.37"/>
<stop offset="0.75" stop-color="#E4ECFE" stop-opacity="0.17"/>
<stop offset="0.91" stop-color="#F8FAFF" stop-opacity="0.05"/>
<stop offset="1" stop-color="white" stop-opacity="0.01"/>
</linearGradient>
<linearGradient id="paint3_linear" x1="66.4768" y1="50.8281" x2="66.8269" y2="31.4784" gradientUnits="userSpaceOnUse">
<stop stop-color="#6291FB"/>
<stop offset="0.01" stop-color="#6392FB" stop-opacity="0.99"/>
<stop offset="0.29" stop-color="#9AB8FC" stop-opacity="0.64"/>
<stop offset="0.55" stop-color="#C5D6FE" stop-opacity="0.37"/>
<stop offset="0.75" stop-color="#E4ECFE" stop-opacity="0.17"/>
<stop offset="0.91" stop-color="#F8FAFF" stop-opacity="0.05"/>
<stop offset="1" stop-color="white" stop-opacity="0.01"/>
</linearGradient>
</defs>
</svg>
