<svg xmlns="http://www.w3.org/2000/svg" width="19" height="12" viewBox="0 0 19 12">
    <path fill="#004FFF" fill-rule="nonzero" d="M17.158 1.698h-4.76v-1.2h4.76v1.2zM9.228 6.62c.308.483.461 1.07.461 1.758 0 .712-.173 1.35-.525 1.915a3.303 3.303 0 0 1-.836.942 3.209 3.209 0 0 1-1.335.603A8.13 8.13 0 0 1 5.324 12H0V0h5.71C7.148.024 8.168.447 8.77 1.278c.362.51.54 1.122.54 1.833 0 .733-.18 1.32-.545 1.766-.203.25-.503.478-.9.683.6.224 1.057.576 1.362 1.06zM2.726 4.731h2.502c.514 0 .93-.1 1.25-.297.32-.198.48-.55.48-1.056 0-.558-.212-.928-.636-1.107-.364-.123-.83-.187-1.395-.187h-2.2V4.73zm4.472 3.476c0-.624-.25-1.055-.752-1.286-.28-.131-.675-.198-1.182-.203H2.726v3.198h2.499c.513 0 .91-.069 1.197-.21.517-.262.776-.76.776-1.5zm11.727-1.953c.057.393.083.963.073 1.707h-6.166c.034.864.328 1.468.885 1.814.336.217.744.322 1.22.322.504 0 .914-.129 1.23-.394.171-.14.323-.34.454-.59h2.26c-.06.51-.331 1.028-.82 1.554-.758.836-1.82 1.255-3.185 1.255a4.58 4.58 0 0 1-2.983-1.058c-.86-.707-1.291-1.853-1.291-3.443 0-1.492.387-2.633 1.165-3.427.78-.796 1.788-1.192 3.03-1.192.735 0 1.399.133 1.99.402.59.268 1.078.691 1.462 1.272a4.28 4.28 0 0 1 .676 1.778zm-2.225.224c-.041-.597-.238-1.05-.591-1.358-.351-.31-.79-.465-1.313-.465-.569 0-1.008.166-1.32.493-.315.326-.51.769-.59 1.33H16.7z"/>
</svg>
