<svg width="126" height="124" viewBox="0 0 126 124" fill="none" xmlns="http://www.w3.org/2000/svg">
<path fill-rule="evenodd" clip-rule="evenodd" d="M102.032 6.80115C102.032 6.56964 102.22 6.38196 102.451 6.38196C102.683 6.38196 102.871 6.56964 102.871 6.80115V7.16129C102.871 7.39279 102.683 7.58044 102.451 7.58044C102.22 7.58044 102.032 7.39279 102.032 7.16129V6.80115ZM102.032 10.0424C102.032 9.81085 102.22 9.62317 102.451 9.62317C102.683 9.62317 102.871 9.81085 102.871 10.0424V10.4025C102.871 10.634 102.683 10.8217 102.451 10.8217C102.22 10.8217 102.032 10.634 102.032 10.4025V10.0424ZM102.451 12.8643C102.22 12.8643 102.032 13.0519 102.032 13.2834V13.6436C102.032 13.8751 102.22 14.0627 102.451 14.0627C102.683 14.0627 102.871 13.8751 102.871 13.6436V13.2834C102.871 13.0519 102.683 12.8643 102.451 12.8643ZM102.032 16.5247C102.032 16.2932 102.22 16.1055 102.451 16.1055C102.683 16.1055 102.871 16.2932 102.871 16.5247V16.8848C102.871 17.1163 102.683 17.304 102.451 17.304C102.22 17.304 102.032 17.1163 102.032 16.8848V16.5247ZM102.451 19.3464C102.22 19.3464 102.032 19.5341 102.032 19.7656V20.1258C102.032 20.3573 102.22 20.5449 102.451 20.5449C102.683 20.5449 102.871 20.3573 102.871 20.1258V19.7656C102.871 19.5341 102.683 19.3464 102.451 19.3464ZM102.032 23.0068C102.032 22.7753 102.22 22.5876 102.451 22.5876C102.683 22.5876 102.871 22.7753 102.871 23.0068V23.367C102.871 23.5985 102.683 23.7861 102.451 23.7861C102.22 23.7861 102.032 23.5985 102.032 23.367V23.0068ZM102.451 25.8287C102.22 25.8287 102.032 26.0164 102.032 26.2479V26.6081C102.032 26.8396 102.22 27.0272 102.451 27.0272C102.683 27.0272 102.871 26.8396 102.871 26.6081V26.2479C102.871 26.0164 102.683 25.8287 102.451 25.8287Z" fill="url(#paint0_linear)"/>
<g opacity="0.8">
<path d="M101.975 32.4551C103.497 29.8176 103.535 26.9882 102.058 26.1356C100.581 25.2829 98.1492 26.7298 96.6264 29.3674C95.1036 32.0049 95.0664 34.8343 96.5432 35.6869C98.0201 36.5396 100.452 35.0927 101.975 32.4551Z" fill="#0050FF"/>
<path d="M101.975 32.4551C103.497 29.8176 103.535 26.9882 102.058 26.1356C100.581 25.2829 98.1492 26.7298 96.6264 29.3674C95.1036 32.0049 95.0664 34.8343 96.5432 35.6869C98.0201 36.5396 100.452 35.0927 101.975 32.4551Z" fill="#0050FF"/>
<path d="M94.7252 34.3124C94.2664 33.8934 94.0967 33.1288 94.0967 32.2029C94.1281 29.7373 95.8734 26.7145 97.9937 25.4513C98.9952 24.8564 99.9003 24.76 100.575 25.0826C100.575 25.0826 101.893 25.8828 102.578 26.5825C103.395 27.4204 96.8162 35.8144 96.8162 35.8144C96.8162 35.8144 96.1101 35.5609 94.7252 34.3124Z" fill="#6999FF"/>
<path d="M101.975 32.4551C103.497 29.8176 103.535 26.9882 102.058 26.1356C100.581 25.2829 98.1492 26.7298 96.6264 29.3674C95.1036 32.0049 95.0664 34.8343 96.5432 35.6869C98.0201 36.5396 100.452 35.0927 101.975 32.4551Z" fill="#B8CDFF"/>
</g>
<g opacity="0.8">
<path d="M49.3603 43.1169C50.8831 40.4793 50.9203 37.65 49.4435 36.7973C47.9666 35.9447 45.5349 37.3916 44.0121 40.0291C42.4893 42.6667 42.4521 45.496 43.929 46.3487C45.4058 47.2014 47.8375 45.7544 49.3603 43.1169Z" fill="#0050FF"/>
<path d="M49.3603 43.1169C50.8831 40.4793 50.9203 37.65 49.4435 36.7973C47.9666 35.9447 45.5349 37.3916 44.0121 40.0291C42.4893 42.6667 42.4521 45.496 43.929 46.3487C45.4058 47.2014 47.8375 45.7544 49.3603 43.1169Z" fill="#0050FF"/>
<path d="M42.111 44.9729C41.6521 44.5539 41.4824 43.7914 41.4824 42.8655C41.5159 40.3978 43.2612 37.375 45.3815 36.1139C46.3809 35.519 47.2881 35.4226 47.9607 35.7452C47.9607 35.7452 49.2785 36.5454 49.9637 37.243C50.7808 38.0809 44.202 46.477 44.202 46.477C44.202 46.477 43.4959 46.2235 42.111 44.9729Z" fill="#6999FF"/>
<path d="M49.3603 43.1169C50.8831 40.4793 50.9203 37.65 49.4435 36.7973C47.9666 35.9447 45.5349 37.3916 44.0121 40.0291C42.4893 42.6667 42.4521 45.496 43.929 46.3487C45.4058 47.2014 47.8375 45.7544 49.3603 43.1169Z" fill="#B8CDFF"/>
</g>
<g opacity="0.3">
<path d="M88.2507 45.0296C89.3343 43.1526 89.3608 41.1391 88.3097 40.5323C87.2587 39.9255 85.5282 40.9551 84.4445 42.8321C83.3609 44.709 83.3345 46.7225 84.3855 47.3293C85.4365 47.9361 87.167 46.9065 88.2507 45.0296Z" fill="url(#paint1_linear)"/>
<path d="M88.2507 45.0296C89.3343 43.1526 89.3608 41.1391 88.3097 40.5323C87.2587 39.9255 85.5282 40.9551 84.4445 42.8321C83.3609 44.709 83.3345 46.7225 84.3855 47.3293C85.4365 47.9361 87.167 46.9065 88.2507 45.0296Z" fill="url(#paint2_linear)"/>
<path d="M83.0832 46.3493C82.7564 46.056 82.6307 45.5113 82.6391 44.8494C82.6621 43.0939 83.8962 40.9425 85.4131 40.0459C86.1254 39.627 86.7707 39.5537 87.2505 39.782C87.759 40.091 88.2362 40.4488 88.6752 40.8504C89.2556 41.4432 84.575 47.4197 84.575 47.4197C84.575 47.4197 84.0763 47.2396 83.0832 46.3493Z" fill="#0050FF"/>
<path d="M88.2507 45.0296C89.3343 43.1526 89.3608 41.1391 88.3097 40.5323C87.2587 39.9255 85.5282 40.9551 84.4445 42.8321C83.3609 44.709 83.3345 46.7225 84.3855 47.3293C85.4365 47.9361 87.167 46.9065 88.2507 45.0296Z" fill="#99B9FF"/>
</g>
<g opacity="0.3">
<path d="M45.9352 11.7252C47.0189 9.84829 47.0453 7.83481 45.9943 7.228C44.9433 6.62118 43.2128 7.65083 42.1291 9.52777C41.0455 11.4047 41.019 13.4182 42.0701 14.025C43.1211 14.6318 44.8516 13.6022 45.9352 11.7252Z" fill="url(#paint3_linear)"/>
<path d="M45.9352 11.7252C47.0189 9.84829 47.0453 7.83481 45.9943 7.228C44.9433 6.62118 43.2128 7.65083 42.1291 9.52777C41.0455 11.4047 41.019 13.4182 42.0701 14.025C43.1211 14.6318 44.8516 13.6022 45.9352 11.7252Z" fill="url(#paint4_linear)"/>
<path d="M40.7725 13.0478C40.4478 12.7525 40.3221 12.2099 40.3305 11.548C40.3535 9.7925 41.5876 7.64112 43.1045 6.74244C43.8168 6.32348 44.46 6.25016 44.9398 6.48059C45.4483 6.78877 45.9255 7.14589 46.3646 7.54685C46.947 8.13969 42.2643 14.1162 42.2643 14.1162C42.2643 14.1162 41.7594 13.9361 40.7725 13.0478Z" fill="#0050FF"/>
<path d="M45.9352 11.7252C47.0189 9.84829 47.0453 7.83481 45.9943 7.228C44.9433 6.62118 43.2128 7.65083 42.1291 9.52777C41.0455 11.4047 41.019 13.4182 42.0701 14.025C43.1211 14.6318 44.8516 13.6022 45.9352 11.7252Z" fill="#99B9FF"/>
</g>
<path fill-rule="evenodd" clip-rule="evenodd" d="M52.0131 10.4142C51.7815 10.4142 51.5939 10.6019 51.5939 10.8334V11.1935C51.5939 11.425 51.7815 11.6127 52.0131 11.6127C52.2446 11.6127 52.4322 11.425 52.4322 11.1935V10.8334C52.4322 10.6019 52.2446 10.4142 52.0131 10.4142ZM52.0129 13.6554C51.7814 13.6554 51.5938 13.8431 51.5938 14.0746V14.4347C51.5938 14.6662 51.7814 14.8539 52.0129 14.8539C52.2444 14.8539 52.4321 14.6662 52.4321 14.4347V14.0746C52.4321 13.8431 52.2444 13.6554 52.0129 13.6554ZM51.5938 17.3158C51.5938 17.0843 51.7814 16.8966 52.0129 16.8966C52.2444 16.8966 52.4321 17.0843 52.4321 17.3158V17.6759C52.4321 17.9074 52.2444 18.0951 52.0129 18.0951C51.7814 18.0951 51.5938 17.9074 51.5938 17.6759V17.3158ZM52.0129 20.1377C51.7814 20.1377 51.5938 20.3254 51.5938 20.5569V20.917C51.5938 21.1485 51.7814 21.3362 52.0129 21.3362C52.2444 21.3362 52.4321 21.1485 52.4321 20.917V20.5569C52.4321 20.3254 52.2444 20.1377 52.0129 20.1377ZM51.5938 23.798C51.5938 23.5665 51.7814 23.3788 52.0129 23.3788C52.2444 23.3788 52.4321 23.5665 52.4321 23.798V24.1581C52.4321 24.3896 52.2444 24.5773 52.0129 24.5773C51.7814 24.5773 51.5938 24.3896 51.5938 24.1581V23.798ZM52.0129 26.62C51.7814 26.62 51.5938 26.8077 51.5938 27.0392V27.3993C51.5938 27.6308 51.7814 27.8185 52.0129 27.8185C52.2444 27.8185 52.4321 27.6308 52.4321 27.3993V27.0392C52.4321 26.8077 52.2444 26.62 52.0129 26.62ZM51.5938 30.2803C51.5938 30.0488 51.7814 29.8611 52.0129 29.8611C52.2444 29.8611 52.4321 30.0488 52.4321 30.2803V30.6404C52.4321 30.8719 52.2444 31.0596 52.0129 31.0596C51.7814 31.0596 51.5938 30.8719 51.5938 30.6404V30.2803ZM52.0129 33.1022C51.7814 33.1022 51.5938 33.2899 51.5938 33.5214V33.8815C51.5938 34.113 51.7814 34.3007 52.0129 34.3007C52.2444 34.3007 52.4321 34.113 52.4321 33.8815V33.5214C52.4321 33.2899 52.2444 33.1022 52.0129 33.1022ZM51.5938 36.7626C51.5938 36.5311 51.7814 36.3434 52.0129 36.3434C52.2444 36.3434 52.4321 36.5311 52.4321 36.7626V37.1227C52.4321 37.3542 52.2444 37.5419 52.0129 37.5419C51.7814 37.5419 51.5938 37.3542 51.5938 37.1227V36.7626ZM52.0129 39.5845C51.7814 39.5845 51.5938 39.7722 51.5938 40.0037V40.3638C51.5938 40.5953 51.7814 40.783 52.0129 40.783C52.2444 40.783 52.4321 40.5953 52.4321 40.3638V40.0037C52.4321 39.7722 52.2444 39.5845 52.0129 39.5845ZM51.5938 43.2449C51.5938 43.0134 51.7814 42.8257 52.0129 42.8257C52.2444 42.8257 52.4321 43.0134 52.4321 43.2449V43.605C52.4321 43.8365 52.2444 44.0242 52.0129 44.0242C51.7814 44.0242 51.5938 43.8365 51.5938 43.605V43.2449ZM52.0129 46.0668C51.7814 46.0668 51.5938 46.2545 51.5938 46.486V46.8461C51.5938 47.0776 51.7814 47.2653 52.0129 47.2653C52.2444 47.2653 52.4321 47.0776 52.4321 46.8461V46.486C52.4321 46.2545 52.2444 46.0668 52.0129 46.0668ZM51.5938 49.7271C51.5938 49.4955 51.7814 49.3079 52.0129 49.3079C52.2444 49.3079 52.4321 49.4955 52.4321 49.7271V50.0872C52.4321 50.3187 52.2444 50.5063 52.0129 50.5063C51.7814 50.5063 51.5938 50.3187 51.5938 50.0872V49.7271ZM52.0129 52.5491C51.7814 52.5491 51.5938 52.7368 51.5938 52.9683V53.3284C51.5938 53.5599 51.7814 53.7476 52.0129 53.7476C52.2444 53.7476 52.4321 53.5599 52.4321 53.3284V52.9683C52.4321 52.7368 52.2444 52.5491 52.0129 52.5491ZM51.5938 56.2094C51.5938 55.9778 51.7814 55.7902 52.0129 55.7902C52.2444 55.7902 52.4321 55.9778 52.4321 56.2094V56.5695C52.4321 56.801 52.2444 56.9886 52.0129 56.9886C51.7814 56.9886 51.5938 56.801 51.5938 56.5695V56.2094ZM52.0129 59.0314C51.7814 59.0314 51.5938 59.2191 51.5938 59.4506V59.8107C51.5938 60.0422 51.7814 60.2299 52.0129 60.2299C52.2444 60.2299 52.4321 60.0422 52.4321 59.8107V59.4506C52.4321 59.2191 52.2444 59.0314 52.0129 59.0314ZM51.5938 62.6917C51.5938 62.4601 51.7814 62.2725 52.0129 62.2725C52.2444 62.2725 52.4321 62.4601 52.4321 62.6917V63.0518C52.4321 63.2833 52.2444 63.4709 52.0129 63.4709C51.7814 63.4709 51.5938 63.2833 51.5938 63.0518V62.6917ZM52.0129 65.5135C51.7814 65.5135 51.5938 65.7012 51.5938 65.9327V66.2929C51.5938 66.5244 51.7814 66.712 52.0129 66.712C52.2444 66.712 52.4321 66.5244 52.4321 66.2929V65.9327C52.4321 65.7012 52.2444 65.5135 52.0129 65.5135ZM51.5938 69.174C51.5938 68.9424 51.7814 68.7548 52.0129 68.7548C52.2444 68.7548 52.4321 68.9424 52.4321 69.174V69.5341C52.4321 69.7656 52.2444 69.9532 52.0129 69.9532C51.7814 69.9532 51.5938 69.7656 51.5938 69.5341V69.174ZM52.0129 71.9958C51.7814 71.9958 51.5938 72.1835 51.5938 72.415V72.7752C51.5938 73.0067 51.7814 73.1943 52.0129 73.1943C52.2444 73.1943 52.4321 73.0067 52.4321 72.7752V72.415C52.4321 72.1835 52.2444 71.9958 52.0129 71.9958Z" fill="url(#paint5_linear)"/>
<path fill-rule="evenodd" clip-rule="evenodd" d="M80.4759 24.5712C80.2444 24.5712 80.0567 24.7589 80.0567 24.9904V25.3505C80.0567 25.582 80.2444 25.7697 80.4759 25.7697C80.7074 25.7697 80.8951 25.582 80.8951 25.3505V24.9904C80.8951 24.7589 80.7074 24.5712 80.4759 24.5712ZM80.4758 27.8125C80.2443 27.8125 80.0566 28.0002 80.0566 28.2317V28.5918C80.0566 28.8233 80.2443 29.011 80.4758 29.011C80.7073 29.011 80.895 28.8233 80.895 28.5918V28.2317C80.895 28.0002 80.7073 27.8125 80.4758 27.8125ZM80.0566 31.4727C80.0566 31.2411 80.2443 31.0535 80.4758 31.0535C80.7073 31.0535 80.895 31.2411 80.895 31.4727V31.8328C80.895 32.0643 80.7073 32.252 80.4758 32.252C80.2443 32.252 80.0566 32.0643 80.0566 31.8328V31.4727ZM80.4758 34.2947C80.2443 34.2947 80.0566 34.4824 80.0566 34.7139V35.074C80.0566 35.3055 80.2443 35.4932 80.4758 35.4932C80.7073 35.4932 80.895 35.3055 80.895 35.074V34.7139C80.895 34.4824 80.7073 34.2947 80.4758 34.2947ZM80.0566 37.955C80.0566 37.7234 80.2443 37.5358 80.4758 37.5358C80.7073 37.5358 80.895 37.7234 80.895 37.955V38.3151C80.895 38.5466 80.7073 38.7343 80.4758 38.7343C80.2443 38.7343 80.0566 38.5466 80.0566 38.3151V37.955ZM80.4758 40.777C80.2443 40.777 80.0566 40.9647 80.0566 41.1962V41.5563C80.0566 41.7878 80.2443 41.9755 80.4758 41.9755C80.7073 41.9755 80.895 41.7878 80.895 41.5563V41.1962C80.895 40.9647 80.7073 40.777 80.4758 40.777ZM80.0566 44.4373C80.0566 44.2057 80.2443 44.0181 80.4758 44.0181C80.7073 44.0181 80.895 44.2057 80.895 44.4373V44.7974C80.895 45.0289 80.7073 45.2166 80.4758 45.2166C80.2443 45.2166 80.0566 45.0289 80.0566 44.7974V44.4373ZM80.4758 47.2593C80.2443 47.2593 80.0566 47.447 80.0566 47.6785V48.0386C80.0566 48.2701 80.2443 48.4578 80.4758 48.4578C80.7073 48.4578 80.895 48.2701 80.895 48.0386V47.6785C80.895 47.447 80.7073 47.2593 80.4758 47.2593ZM80.0566 50.9196C80.0566 50.688 80.2443 50.5004 80.4758 50.5004C80.7073 50.5004 80.895 50.688 80.895 50.9196V51.2797C80.895 51.5112 80.7073 51.6989 80.4758 51.6989C80.2443 51.6989 80.0566 51.5112 80.0566 51.2797V50.9196ZM80.4758 53.7415C80.2443 53.7415 80.0566 53.9291 80.0566 54.1606V54.5208C80.0566 54.7523 80.2443 54.9399 80.4758 54.9399C80.7073 54.9399 80.895 54.7523 80.895 54.5208V54.1606C80.895 53.9291 80.7073 53.7415 80.4758 53.7415ZM80.0566 57.4017C80.0566 57.1702 80.2443 56.9825 80.4758 56.9825C80.7073 56.9825 80.895 57.1702 80.895 57.4017V57.7619C80.895 57.9934 80.7073 58.181 80.4758 58.181C80.2443 58.181 80.0566 57.9934 80.0566 57.7619V57.4017ZM80.4758 60.2238C80.2443 60.2238 80.0566 60.4114 80.0566 60.6429V61.0031C80.0566 61.2346 80.2443 61.4222 80.4758 61.4222C80.7073 61.4222 80.895 61.2346 80.895 61.0031V60.6429C80.895 60.4114 80.7073 60.2238 80.4758 60.2238ZM80.0566 63.884C80.0566 63.6525 80.2443 63.4648 80.4758 63.4648C80.7073 63.4648 80.895 63.6525 80.895 63.884V64.2442C80.895 64.4757 80.7073 64.6633 80.4758 64.6633C80.2443 64.6633 80.0566 64.4757 80.0566 64.2442V63.884ZM80.4758 66.7061C80.2443 66.7061 80.0566 66.8937 80.0566 67.1252V67.4854C80.0566 67.7169 80.2443 67.9045 80.4758 67.9045C80.7073 67.9045 80.895 67.7169 80.895 67.4854V67.1252C80.895 66.8937 80.7073 66.7061 80.4758 66.7061ZM80.0566 70.3663C80.0566 70.1348 80.2443 69.9471 80.4758 69.9471C80.7073 69.9471 80.895 70.1348 80.895 70.3663V70.7265C80.895 70.958 80.7073 71.1456 80.4758 71.1456C80.2443 71.1456 80.0566 70.958 80.0566 70.7265V70.3663ZM80.4758 73.1884C80.2443 73.1884 80.0566 73.376 80.0566 73.6075V73.9677C80.0566 74.1992 80.2443 74.3868 80.4758 74.3868C80.7073 74.3868 80.895 74.1992 80.895 73.9677V73.6075C80.895 73.376 80.7073 73.1884 80.4758 73.1884ZM80.0566 76.8486C80.0566 76.6171 80.2443 76.4294 80.4758 76.4294C80.7073 76.4294 80.895 76.6171 80.895 76.8486V77.2088C80.895 77.4403 80.7073 77.6279 80.4758 77.6279C80.2443 77.6279 80.0566 77.4403 80.0566 77.2088V76.8486ZM80.4758 79.6705C80.2443 79.6705 80.0566 79.8582 80.0566 80.0897V80.4499C80.0566 80.6814 80.2443 80.869 80.4758 80.869C80.7073 80.869 80.895 80.6814 80.895 80.4499V80.0897C80.895 79.8582 80.7073 79.6705 80.4758 79.6705ZM80.0566 83.3309C80.0566 83.0994 80.2443 82.9117 80.4758 82.9117C80.7073 82.9117 80.895 83.0994 80.895 83.3309V83.6911C80.895 83.9226 80.7073 84.1102 80.4758 84.1102C80.2443 84.1102 80.0566 83.9226 80.0566 83.6911V83.3309ZM80.4758 86.1528C80.2443 86.1528 80.0566 86.3405 80.0566 86.572V86.9322C80.0566 87.1637 80.2443 87.3513 80.4758 87.3513C80.7073 87.3513 80.895 87.1637 80.895 86.9322V86.572C80.895 86.3405 80.7073 86.1528 80.4758 86.1528Z" fill="url(#paint6_linear)"/>
<path fill-rule="evenodd" clip-rule="evenodd" d="M31.7551 42.7786C31.5236 42.7786 31.3359 42.9662 31.3359 43.1978V43.5579C31.3359 43.7894 31.5236 43.9771 31.7551 43.9771C31.9866 43.9771 32.1743 43.7894 32.1743 43.5579V43.1978C32.1743 42.9662 31.9866 42.7786 31.7551 42.7786ZM31.7551 46.0197C31.5236 46.0197 31.3359 46.2073 31.3359 46.4388V46.799C31.3359 47.0305 31.5236 47.2181 31.7551 47.2181C31.9866 47.2181 32.1743 47.0305 32.1743 46.799V46.4388C32.1743 46.2073 31.9866 46.0197 31.7551 46.0197ZM31.3359 49.6799C31.3359 49.4484 31.5236 49.2607 31.7551 49.2607C31.9866 49.2607 32.1743 49.4484 32.1743 49.6799V50.0401C32.1743 50.2716 31.9866 50.4592 31.7551 50.4592C31.5236 50.4592 31.3359 50.2716 31.3359 50.0401V49.6799ZM31.7551 52.502C31.5236 52.502 31.3359 52.6896 31.3359 52.9211V53.0245C31.3359 53.256 31.5236 53.4437 31.7551 53.4437C31.9866 53.4437 32.1743 53.256 32.1743 53.0245V52.9211C32.1743 52.6896 31.9866 52.502 31.7551 52.502Z" fill="url(#paint7_linear)"/>
<path d="M69.5224 82.1812V85.8052L34.6357 106.039V102.415L69.5224 82.1812Z" fill="url(#paint8_linear)"/>
<path d="M1 83.0149V86.6389L34.6359 106.039V102.415L1 83.0149Z" fill="#E7E9EB"/>
<path d="M34.638 102.425L1.05664 83.0399L35.9559 62.894L69.5352 82.2795L34.638 102.425Z" fill="#FAFAFA" stroke="white" stroke-width="0.5" stroke-linecap="round" stroke-linejoin="round"/>
<path d="M125.037 87.5083V90.0158L100.907 104.011V101.504L125.037 87.5083Z" fill="url(#paint9_linear)"/>
<path d="M77.6436 88.0842V90.5917L100.908 104.011V101.504L77.6436 88.0842Z" fill="#E7E9EB"/>
<path d="M100.917 101.516L77.6875 88.1073L101.828 74.1726L125.055 87.5815L100.917 101.516Z" fill="#F5FAFA" stroke="white" stroke-width="0.5" stroke-linecap="round" stroke-linejoin="round"/>
<path d="M53.5072 115.131V116.478L40.5381 124V122.651L53.5072 115.131Z" fill="url(#paint10_linear)"/>
<path d="M28.0342 115.441V116.788L40.5382 124V122.651L28.0342 115.441Z" fill="#E7E9EB"/>
<path d="M40.5338 122.651L28.0508 115.445L41.0241 107.956L53.5071 115.162L40.5338 122.651Z" fill="#F2F6F7"/>
<path d="M112.396 84.0538V88.895L65.7803 115.933V111.092L112.396 84.0538Z" fill="url(#paint11_linear)"/>
<path d="M20.833 85.1663V90.0095L65.7807 115.933V111.092L20.833 85.1663Z" fill="#E7E9EB"/>
<path d="M65.7844 111.092L20.9121 85.1892L67.5443 58.2687L112.419 84.1711L65.7844 111.092Z" fill="#FAFAFA" stroke="white" stroke-width="0.5" stroke-linecap="round" stroke-linejoin="round"/>
<path d="M65.6062 64.8884L36.9883 48.3708L66.7292 31.2017L95.3471 47.7214L65.6062 64.8884Z" fill="#F7F7F7" stroke="white" stroke-width="0.5" stroke-linecap="round" stroke-linejoin="round"/>
<path d="M59.6516 54.9652L53.9297 51.6617L73.5908 40.5906L79.0717 43.7558L59.6516 54.9652Z" fill="url(#paint12_linear)"/>
<path d="M36.9883 48.3707V84.1125L65.6062 100.63V64.8884L36.9883 48.3707Z" fill="url(#paint13_linear)"/>
<path d="M36.9883 48.3707V84.1125L65.6062 100.63V64.8884L36.9883 48.3707Z" fill="#E6E9ED"/>
<path d="M41.6562 56.8945V80.9766L60.9381 92.1063V68.0243L41.6562 56.8945Z" fill="white"/>
<path d="M65.6064 64.8885L95.3474 47.7214V83.4632L65.6064 100.63V64.8885Z" fill="url(#paint14_linear)"/>
<path d="M74.7162 77.7108C74.8954 78.8443 75.9307 79.6393 77.0723 79.5199C78.2139 79.4006 79.0623 78.4086 79.003 77.2625L78.9359 77.0676C79.6108 77.6945 80.6093 77.824 81.4218 77.3899C82.2342 76.9558 82.6815 76.054 82.5354 75.1446L82.4621 75.0294C83.1364 75.6663 84.1423 75.8011 84.9605 75.3643C85.7788 74.9275 86.2263 74.0167 86.0721 73.1022L86.0406 72.9199C86.689 73.6126 87.7139 73.8005 88.5659 73.383C89.418 72.9654 89.8973 72.0404 89.747 71.1037L89.6339 70.8942C90.2915 71.5659 91.3083 71.7347 92.1477 71.3115C92.9871 70.8882 93.4559 69.9704 93.3067 69.0424L93.2794 68.7533C93.9279 69.446 94.9527 69.6339 95.8048 69.2164C96.6568 68.7988 97.1361 67.8738 96.9858 66.9371L96.9544 66.7549C97.6028 67.4475 98.6276 67.6354 99.4797 67.2179C100.332 66.8004 100.811 65.8754 100.661 64.9386L100.61 64.6915C101.086 65.1963 101.736 65.3576 102.471 65.2382C103.648 65.0497 104.3 63.7132 104.275 62.8773V62.4584C104.275 51.7413 95.0562 47.6941 95.0562 47.6941L65.6064 64.6935C65.6064 64.6935 73.235 68.173 74.5968 76.8728L74.7162 77.7108Z" fill="#EBEEF0"/>
<path d="M65.6064 64.6936V73.9632L75.2149 78.7582C75.2149 78.7582 75.3553 70.3203 65.6064 64.6936Z" fill="#B5C4C9"/>
<path d="M41.6562 80.9766L43.5461 79.6338L60.9276 89.668L60.9381 92.1063L41.6562 80.9766Z" fill="url(#paint15_linear)"/>
<path d="M41.6562 80.9766V61.7001L43.5461 62.5254V79.6338L41.6562 80.9766Z" fill="url(#paint16_linear)"/>
<path fill-rule="evenodd" clip-rule="evenodd" d="M111.504 20.9213C111.273 20.9213 111.085 21.1089 111.085 21.3405V21.7006C111.085 21.9321 111.273 22.1198 111.504 22.1198C111.736 22.1198 111.924 21.9321 111.924 21.7006V21.3405C111.924 21.1089 111.736 20.9213 111.504 20.9213ZM111.504 24.1625C111.273 24.1625 111.085 24.3502 111.085 24.5817V24.9418C111.085 25.1733 111.273 25.361 111.504 25.361C111.736 25.361 111.923 25.1733 111.923 24.9418V24.5817C111.923 24.3502 111.736 24.1625 111.504 24.1625ZM111.085 27.8228C111.085 27.5912 111.273 27.4036 111.504 27.4036C111.736 27.4036 111.923 27.5912 111.923 27.8228V28.1829C111.923 28.4144 111.736 28.6021 111.504 28.6021C111.273 28.6021 111.085 28.4144 111.085 28.1829V27.8228ZM111.504 30.6447C111.273 30.6447 111.085 30.8323 111.085 31.0638V31.424C111.085 31.6555 111.273 31.8431 111.504 31.8431C111.736 31.8431 111.923 31.6555 111.923 31.424V31.0638C111.923 30.8323 111.736 30.6447 111.504 30.6447ZM111.085 34.3051C111.085 34.0735 111.273 33.8859 111.504 33.8859C111.736 33.8859 111.923 34.0735 111.923 34.3051V34.6652C111.923 34.8967 111.736 35.0844 111.504 35.0844C111.273 35.0844 111.085 34.8967 111.085 34.6652V34.3051ZM111.504 37.127C111.273 37.127 111.085 37.3146 111.085 37.5461V37.9063C111.085 38.1378 111.273 38.3254 111.504 38.3254C111.736 38.3254 111.923 38.1378 111.923 37.9063V37.5461C111.923 37.3146 111.736 37.127 111.504 37.127ZM111.085 40.7874C111.085 40.5558 111.273 40.3682 111.504 40.3682C111.736 40.3682 111.923 40.5558 111.923 40.7874V41.1475C111.923 41.379 111.736 41.5667 111.504 41.5667C111.273 41.5667 111.085 41.379 111.085 41.1475V40.7874ZM111.504 43.6093C111.273 43.6093 111.085 43.7969 111.085 44.0284V44.3886C111.085 44.6201 111.273 44.8077 111.504 44.8077C111.736 44.8077 111.923 44.6201 111.923 44.3886V44.0284C111.923 43.7969 111.736 43.6093 111.504 43.6093ZM111.085 47.2697C111.085 47.0381 111.273 46.8505 111.504 46.8505C111.736 46.8505 111.923 47.0381 111.923 47.2697V47.6298C111.923 47.8613 111.736 48.049 111.504 48.049C111.273 48.049 111.085 47.8613 111.085 47.6298V47.2697ZM111.504 50.0914C111.273 50.0914 111.085 50.2791 111.085 50.5106V50.8708C111.085 51.1023 111.273 51.2899 111.504 51.2899C111.736 51.2899 111.923 51.1023 111.923 50.8708V50.5106C111.923 50.2791 111.736 50.0914 111.504 50.0914ZM111.085 53.7518C111.085 53.5203 111.273 53.3326 111.504 53.3326C111.736 53.3326 111.923 53.5203 111.923 53.7518V54.112C111.923 54.3435 111.736 54.5311 111.504 54.5311C111.273 54.5311 111.085 54.3435 111.085 54.112V53.7518ZM111.504 56.5737C111.273 56.5737 111.085 56.7614 111.085 56.9929V57.3531C111.085 57.5846 111.273 57.7722 111.504 57.7722C111.736 57.7722 111.923 57.5846 111.923 57.3531V56.9929C111.923 56.7614 111.736 56.5737 111.504 56.5737ZM111.085 60.2341C111.085 60.0026 111.273 59.8149 111.504 59.8149C111.736 59.8149 111.923 60.0026 111.923 60.2341V60.5943C111.923 60.8258 111.736 61.0134 111.504 61.0134C111.273 61.0134 111.085 60.8258 111.085 60.5943V60.2341ZM111.504 63.0562C111.273 63.0562 111.085 63.2438 111.085 63.4753V63.8355C111.085 64.067 111.273 64.2546 111.504 64.2546C111.736 64.2546 111.923 64.067 111.923 63.8355V63.4753C111.923 63.2438 111.736 63.0562 111.504 63.0562ZM111.085 66.7164C111.085 66.4849 111.273 66.2972 111.504 66.2972C111.736 66.2972 111.923 66.4849 111.923 66.7164V67.0766C111.923 67.3081 111.736 67.4957 111.504 67.4957C111.273 67.4957 111.085 67.3081 111.085 67.0766V66.7164ZM111.504 69.5383C111.273 69.5383 111.085 69.726 111.085 69.9575V70.3177C111.085 70.5492 111.273 70.7368 111.504 70.7368C111.736 70.7368 111.923 70.5492 111.923 70.3177V69.9575C111.923 69.726 111.736 69.5383 111.504 69.5383ZM111.085 73.1987C111.085 72.9672 111.273 72.7795 111.504 72.7795C111.736 72.7795 111.923 72.9672 111.923 73.1987V73.5589C111.923 73.7904 111.736 73.978 111.504 73.978C111.273 73.978 111.085 73.7904 111.085 73.5589V73.1987ZM111.504 76.0205C111.273 76.0205 111.085 76.2082 111.085 76.4397V76.7998C111.085 77.0313 111.273 77.219 111.504 77.219C111.736 77.219 111.923 77.0313 111.923 76.7998V76.4397C111.923 76.2082 111.736 76.0205 111.504 76.0205ZM111.085 79.6809C111.085 79.4494 111.273 79.2617 111.504 79.2617C111.736 79.2617 111.923 79.4494 111.923 79.6809V80.041C111.923 80.2726 111.736 80.4602 111.504 80.4602C111.273 80.4602 111.085 80.2726 111.085 80.041V79.6809ZM111.504 82.5029C111.273 82.5029 111.085 82.6906 111.085 82.9221V83.2823C111.085 83.5138 111.273 83.7014 111.504 83.7014C111.736 83.7014 111.923 83.5138 111.923 83.2823V82.9221C111.923 82.6906 111.736 82.5029 111.504 82.5029Z" fill="url(#paint17_linear)"/>
<path d="M56.7528 77.5327C56.6194 78.6717 55.5948 79.4917 54.454 79.3725C53.3132 79.2532 52.4804 78.239 52.5855 77.097L52.6526 76.9064C51.9976 77.519 51.0253 77.6468 50.2341 77.2243C49.443 76.8018 49.0086 75.9227 49.1537 75.0378L49.2228 74.9247C48.57 75.5416 47.5964 75.6738 46.8026 75.2533C46.0088 74.8328 45.5715 73.9531 45.7155 73.0665L45.7469 72.8885C45.1181 73.5668 44.1188 73.7525 43.2882 73.3455C42.4576 72.9385 41.9923 72.035 42.1432 71.1226L42.2543 70.9131C41.615 71.562 40.6297 71.7235 39.8167 71.3128C39.0036 70.902 38.5492 70.0131 38.6925 69.1136L38.7176 68.8329C38.0916 69.5189 37.0887 69.7109 36.2535 69.3048C35.4183 68.8986 34.9502 67.9912 35.1035 67.0754L35.1349 66.8973C34.5052 67.5627 33.5162 67.742 32.6931 67.3398C31.8699 66.9377 31.4035 66.0474 31.5417 65.1418L31.5878 64.9009C31.1268 65.3911 30.4941 65.5482 29.7796 65.433C28.6357 65.2508 28.0029 63.9499 28.0281 63.1287V62.7223C28.0281 52.3048 36.9891 48.3707 36.9891 48.3707L65.607 64.8905C65.607 64.8905 58.1985 68.2736 56.8681 76.7367L56.7528 77.5327Z" fill="#EBEEF0"/>
<path d="M65.6071 64.8884V73.8961L56.2647 78.5676C56.2647 78.5676 56.1327 70.358 65.6071 64.8884Z" fill="#BFCED4"/>
<path d="M73.4289 33.3966C77.0994 27.0393 77.189 20.2195 73.6291 18.1642C70.0692 16.1089 64.2079 19.5964 60.5375 25.9537C56.8671 32.3111 56.7775 39.1309 60.3373 41.1862C63.8972 43.2415 69.7585 39.754 73.4289 33.3966Z" fill="#0050FF"/>
<path d="M73.4289 33.3966C77.0994 27.0393 77.189 20.2195 73.6291 18.1642C70.0692 16.1089 64.2079 19.5964 60.5375 25.9537C56.8671 32.3111 56.7775 39.1309 60.3373 41.1862C63.8972 43.2415 69.7585 39.754 73.4289 33.3966Z" fill="#0050FF"/>
<path d="M55.9529 37.8736C54.8466 36.8765 54.4213 35.0225 54.4506 32.7916C54.5282 26.8444 58.7353 19.5586 63.8475 16.5169C66.2611 15.082 68.4422 14.8411 70.068 15.6266C70.068 15.6266 73.2443 17.5559 74.8869 19.2402C76.8564 21.2491 60.998 41.4955 60.998 41.4955C60.998 41.4955 59.2905 40.8859 55.9529 37.8736Z" fill="#6999FF"/>
<path d="M73.4289 33.3966C77.0994 27.0393 77.189 20.2195 73.6291 18.1642C70.0692 16.1089 64.2079 19.5964 60.5375 25.9537C56.8671 32.3111 56.7775 39.1309 60.3373 41.1862C63.8972 43.2415 69.7585 39.754 73.4289 33.3966Z" fill="#B8CDFF"/>
<path opacity="0.3" d="M37.1359 52.6023C37.1359 52.6023 32.6942 54.9338 31.7891 62.8941" stroke="white" stroke-width="0.8148"/>
<path opacity="0.3" d="M40.6428 54.5944C40.6428 54.5944 36.201 56.928 35.2959 64.8883" stroke="white" stroke-width="0.8148"/>
<path opacity="0.3" d="M44.3223 56.8945C44.3223 56.8945 39.8827 59.2261 38.9775 67.1885" stroke="white" stroke-width="0.8148"/>
<path opacity="0.3" d="M47.9484 59.1591C47.9484 59.1591 43.5067 61.4906 42.6016 69.453" stroke="white" stroke-width="0.8148"/>
<path opacity="0.3" d="M51.299 61.256C51.299 61.256 46.8573 63.5875 45.9521 71.5478" stroke="white" stroke-width="0.8148"/>
<path opacity="0.3" d="M54.84 63.6063C54.84 63.6063 50.3983 65.94 49.4932 73.9003" stroke="white" stroke-width="0.8148"/>
<path opacity="0.3" d="M58.0705 64.9324C58.0705 64.9324 53.6287 67.2639 52.7236 75.2263" stroke="white" stroke-width="0.8148"/>
<path opacity="0.3" d="M95.1572 52.3635C95.1572 52.3635 99.599 54.6951 100.502 62.6575" stroke="url(#paint18_linear)" stroke-width="0.8148" stroke-linecap="round" stroke-linejoin="round"/>
<path opacity="0.3" d="M91.6494 54.5944C91.6494 54.5944 96.0912 56.928 96.9942 64.8883" stroke="url(#paint19_linear)" stroke-width="0.8148" stroke-linecap="round" stroke-linejoin="round"/>
<path opacity="0.3" d="M87.7227 56.8945C87.7227 56.8945 92.1623 59.2261 93.0674 67.1885" stroke="url(#paint20_linear)" stroke-width="0.8148" stroke-linecap="round" stroke-linejoin="round"/>
<path opacity="0.3" d="M83.8682 59.1591C83.8682 59.1591 88.3099 61.4906 89.2129 69.453" stroke="url(#paint21_linear)" stroke-width="0.8148" stroke-linecap="round" stroke-linejoin="round"/>
<path opacity="0.3" d="M80.5186 61.0172C80.5186 61.0172 84.9603 63.3487 85.8633 71.3112" stroke="url(#paint22_linear)" stroke-width="0.8148" stroke-linecap="round" stroke-linejoin="round"/>
<path opacity="0.3" d="M76.9775 63.3696C76.9775 63.3696 81.4193 65.7012 82.3223 73.6636" stroke="url(#paint23_linear)" stroke-width="0.8148" stroke-linecap="round" stroke-linejoin="round"/>
<path opacity="0.3" d="M73.5078 65.4141C73.5078 65.4141 77.9496 67.7456 78.8547 75.708" stroke="url(#paint24_linear)" stroke-width="0.8148" stroke-linecap="round" stroke-linejoin="round"/>
<path fill-rule="evenodd" clip-rule="evenodd" d="M22.4299 0.723999C22.1984 0.723999 22.0107 0.911682 22.0107 1.14319V1.50333C22.0107 1.73483 22.1984 1.92249 22.4299 1.92249C22.6614 1.92249 22.8491 1.73483 22.8491 1.50333V1.14319C22.8491 0.911682 22.6614 0.723999 22.4299 0.723999ZM22.4299 3.96509C22.1984 3.96509 22.0107 4.15277 22.0107 4.38428V4.74442C22.0107 4.97592 22.1984 5.16357 22.4299 5.16357C22.6614 5.16357 22.8491 4.97592 22.8491 4.74442V4.38428C22.8491 4.15277 22.6614 3.96509 22.4299 3.96509ZM22.0107 7.62537C22.0107 7.39386 22.1984 7.20618 22.4299 7.20618C22.6614 7.20618 22.8491 7.39386 22.8491 7.62537V7.9855C22.8491 8.21701 22.6614 8.40466 22.4299 8.40466C22.1984 8.40466 22.0107 8.21701 22.0107 7.9855V7.62537ZM22.4299 10.4474C22.1984 10.4474 22.0107 10.6351 22.0107 10.8666V11.2267C22.0107 11.4582 22.1984 11.6459 22.4299 11.6459C22.6614 11.6459 22.8491 11.4582 22.8491 11.2267V10.8666C22.8491 10.6351 22.6614 10.4474 22.4299 10.4474ZM22.0107 14.1077C22.0107 13.8762 22.1984 13.6885 22.4299 13.6885C22.6614 13.6885 22.8491 13.8762 22.8491 14.1077V14.4678C22.8491 14.6993 22.6614 14.887 22.4299 14.887C22.1984 14.887 22.0107 14.6993 22.0107 14.4678V14.1077ZM22.4299 16.9297C22.1984 16.9297 22.0107 17.1174 22.0107 17.3489V17.709C22.0107 17.9405 22.1984 18.1282 22.4299 18.1282C22.6614 18.1282 22.8491 17.9405 22.8491 17.709V17.3489C22.8491 17.1174 22.6614 16.9297 22.4299 16.9297ZM22.0107 20.59C22.0107 20.3585 22.1984 20.1708 22.4299 20.1708C22.6614 20.1708 22.8491 20.3585 22.8491 20.59V20.9501C22.8491 21.1816 22.6614 21.3693 22.4299 21.3693C22.1984 21.3693 22.0107 21.1816 22.0107 20.9501V20.59ZM22.4299 23.4119C22.1984 23.4119 22.0107 23.5995 22.0107 23.8311V24.1912C22.0107 24.4227 22.1984 24.6104 22.4299 24.6104C22.6614 24.6104 22.8491 24.4227 22.8491 24.1912V23.8311C22.8491 23.5995 22.6614 23.4119 22.4299 23.4119ZM22.0107 27.0723C22.0107 26.8408 22.1984 26.6531 22.4299 26.6531C22.6614 26.6531 22.8491 26.8408 22.8491 27.0723V27.4324C22.8491 27.6639 22.6614 27.8516 22.4299 27.8516C22.1984 27.8516 22.0107 27.6639 22.0107 27.4324V27.0723ZM22.4299 29.8942C22.1984 29.8942 22.0107 30.0818 22.0107 30.3134V30.6735C22.0107 30.905 22.1984 31.0927 22.4299 31.0927C22.6614 31.0927 22.8491 30.905 22.8491 30.6735V30.3134C22.8491 30.0818 22.6614 29.8942 22.4299 29.8942ZM22.0107 33.5546C22.0107 33.3231 22.1984 33.1354 22.4299 33.1354C22.6614 33.1354 22.8491 33.3231 22.8491 33.5546V33.9147C22.8491 34.1462 22.6614 34.3339 22.4299 34.3339C22.1984 34.3339 22.0107 34.1462 22.0107 33.9147V33.5546ZM22.4299 36.3765C22.1984 36.3765 22.0107 36.5641 22.0107 36.7957V37.1558C22.0107 37.3873 22.1984 37.575 22.4299 37.575C22.6614 37.575 22.8491 37.3873 22.8491 37.1558V36.7957C22.8491 36.5641 22.6614 36.3765 22.4299 36.3765ZM22.0107 40.0367C22.0107 39.8052 22.1984 39.6176 22.4299 39.6176C22.6614 39.6176 22.8491 39.8052 22.8491 40.0367V40.3969C22.8491 40.6284 22.6614 40.816 22.4299 40.816C22.1984 40.816 22.0107 40.6284 22.0107 40.3969V40.0367ZM22.4299 42.8588C22.1984 42.8588 22.0107 43.0464 22.0107 43.278V43.6381C22.0107 43.8696 22.1984 44.0573 22.4299 44.0573C22.6614 44.0573 22.8491 43.8696 22.8491 43.6381V43.278C22.8491 43.0464 22.6614 42.8588 22.4299 42.8588ZM22.0107 46.519C22.0107 46.2875 22.1984 46.0999 22.4299 46.0999C22.6614 46.0999 22.8491 46.2875 22.8491 46.519V46.8792C22.8491 47.1107 22.6614 47.2983 22.4299 47.2983C22.1984 47.2983 22.0107 47.1107 22.0107 46.8792V46.519ZM22.4299 49.3409C22.1984 49.3409 22.0107 49.5286 22.0107 49.7601V50.1203C22.0107 50.3518 22.1984 50.5394 22.4299 50.5394C22.6614 50.5394 22.8491 50.3518 22.8491 50.1203V49.7601C22.8491 49.5286 22.6614 49.3409 22.4299 49.3409ZM22.0107 53.0013C22.0107 52.7698 22.1984 52.5822 22.4299 52.5822C22.6614 52.5822 22.8491 52.7698 22.8491 53.0013V53.3615C22.8491 53.593 22.6614 53.7806 22.4299 53.7806C22.1984 53.7806 22.0107 53.593 22.0107 53.3615V53.0013ZM22.4299 55.8232C22.1984 55.8232 22.0107 56.0109 22.0107 56.2424V56.6026C22.0107 56.8341 22.1984 57.0217 22.4299 57.0217C22.6614 57.0217 22.8491 56.8341 22.8491 56.6026V56.2424C22.8491 56.0109 22.6614 55.8232 22.4299 55.8232ZM22.0107 59.4836C22.0107 59.2521 22.1984 59.0645 22.4299 59.0645C22.6614 59.0645 22.8491 59.2521 22.8491 59.4836V59.8438C22.8491 60.0753 22.6614 60.2629 22.4299 60.2629C22.1984 60.2629 22.0107 60.0753 22.0107 59.8438V59.4836ZM22.4299 62.3055C22.1984 62.3055 22.0107 62.4932 22.0107 62.7247V63.0849C22.0107 63.3164 22.1984 63.504 22.4299 63.504C22.6614 63.504 22.8491 63.3164 22.8491 63.0849V62.7247C22.8491 62.4932 22.6614 62.3055 22.4299 62.3055ZM22.0107 65.9659C22.0107 65.7344 22.1984 65.5468 22.4299 65.5468C22.6614 65.5468 22.8491 65.7344 22.8491 65.9659V66.3261C22.8491 66.5576 22.6614 66.7452 22.4299 66.7452C22.1984 66.7452 22.0107 66.5576 22.0107 66.3261V65.9659ZM22.4299 68.7878C22.1984 68.7878 22.0107 68.9755 22.0107 69.207V69.5672C22.0107 69.7987 22.1984 69.9863 22.4299 69.9863C22.6614 69.9863 22.8491 69.7987 22.8491 69.5672V69.207C22.8491 68.9755 22.6614 68.7878 22.4299 68.7878ZM22.0107 72.4481C22.0107 72.2166 22.1984 72.0289 22.4299 72.0289C22.6614 72.0289 22.8491 72.2166 22.8491 72.4481V72.8083C22.8491 73.0398 22.6614 73.2274 22.4299 73.2274C22.1984 73.2274 22.0107 73.0398 22.0107 72.8083V72.4481ZM22.4299 75.27C22.1984 75.27 22.0107 75.4577 22.0107 75.6892V76.0493C22.0107 76.2809 22.1984 76.4685 22.4299 76.4685C22.6614 76.4685 22.8491 76.2809 22.8491 76.0493V75.6892C22.8491 75.4577 22.6614 75.27 22.4299 75.27ZM22.0107 78.9304C22.0107 78.6989 22.1984 78.5112 22.4299 78.5112C22.6614 78.5112 22.8491 78.6989 22.8491 78.9304V79.2906C22.8491 79.5221 22.6614 79.7097 22.4299 79.7097C22.1984 79.7097 22.0107 79.5221 22.0107 79.2906V78.9304ZM22.4299 81.7524C22.1984 81.7524 22.0107 81.9401 22.0107 82.1716V82.5318C22.0107 82.7633 22.1984 82.9509 22.4299 82.9509C22.6614 82.9509 22.8491 82.7633 22.8491 82.5318V82.1716C22.8491 81.9401 22.6614 81.7524 22.4299 81.7524Z" fill="url(#paint25_linear)"/>
<defs>
<linearGradient id="paint0_linear" x1="102.468" y1="27.428" x2="102.468" y2="5.9812" gradientUnits="userSpaceOnUse">
<stop stop-color="#004FFF"/>
<stop offset="0.22" stop-color="#0351FF" stop-opacity="0.99"/>
<stop offset="0.35" stop-color="#0B57FF" stop-opacity="0.96"/>
<stop offset="0.47" stop-color="#1A61FF" stop-opacity="0.9"/>
<stop offset="0.57" stop-color="#2E6FFF" stop-opacity="0.82"/>
<stop offset="0.66" stop-color="#4981FF" stop-opacity="0.71"/>
<stop offset="0.75" stop-color="#6A98FF" stop-opacity="0.58"/>
<stop offset="0.83" stop-color="#91B3FF" stop-opacity="0.43"/>
<stop offset="0.91" stop-color="#BED2FF" stop-opacity="0.25"/>
<stop offset="0.98" stop-color="#F0F5FF" stop-opacity="0.06"/>
<stop offset="1" stop-color="white" stop-opacity="0.01"/>
</linearGradient>
<linearGradient id="paint1_linear" x1="73.0512" y1="53.3954" x2="86.647" y2="60.2483" gradientUnits="userSpaceOnUse">
<stop stop-color="#292929"/>
<stop offset="1" stop-color="#171717"/>
</linearGradient>
<linearGradient id="paint2_linear" x1="73.0512" y1="53.3954" x2="86.647" y2="60.2483" gradientUnits="userSpaceOnUse">
<stop stop-color="#292929"/>
<stop offset="1" stop-color="#171717"/>
</linearGradient>
<linearGradient id="paint3_linear" x1="30.7322" y1="20.0909" x2="44.3279" y2="26.9438" gradientUnits="userSpaceOnUse">
<stop stop-color="#292929"/>
<stop offset="1" stop-color="#171717"/>
</linearGradient>
<linearGradient id="paint4_linear" x1="30.7322" y1="20.0909" x2="44.3279" y2="26.9438" gradientUnits="userSpaceOnUse">
<stop stop-color="#292929"/>
<stop offset="1" stop-color="#171717"/>
</linearGradient>
<linearGradient id="paint5_linear" x1="52.0187" y1="73.6175" x2="52.0187" y2="9.99099" gradientUnits="userSpaceOnUse">
<stop stop-color="#004FFF"/>
<stop offset="0.22" stop-color="#0351FF" stop-opacity="0.99"/>
<stop offset="0.35" stop-color="#0B57FF" stop-opacity="0.96"/>
<stop offset="0.47" stop-color="#1A61FF" stop-opacity="0.9"/>
<stop offset="0.57" stop-color="#2E6FFF" stop-opacity="0.82"/>
<stop offset="0.66" stop-color="#4981FF" stop-opacity="0.71"/>
<stop offset="0.75" stop-color="#6A98FF" stop-opacity="0.58"/>
<stop offset="0.83" stop-color="#91B3FF" stop-opacity="0.43"/>
<stop offset="0.91" stop-color="#BED2FF" stop-opacity="0.25"/>
<stop offset="0.98" stop-color="#F0F5FF" stop-opacity="0.06"/>
<stop offset="1" stop-color="white" stop-opacity="0.01"/>
</linearGradient>
<linearGradient id="paint6_linear" x1="80.4815" y1="87.7745" x2="80.4815" y2="24.148" gradientUnits="userSpaceOnUse">
<stop stop-color="#004FFF"/>
<stop offset="0.22" stop-color="#0351FF" stop-opacity="0.99"/>
<stop offset="0.35" stop-color="#0B57FF" stop-opacity="0.96"/>
<stop offset="0.47" stop-color="#1A61FF" stop-opacity="0.9"/>
<stop offset="0.57" stop-color="#2E6FFF" stop-opacity="0.82"/>
<stop offset="0.66" stop-color="#4981FF" stop-opacity="0.71"/>
<stop offset="0.75" stop-color="#6A98FF" stop-opacity="0.58"/>
<stop offset="0.83" stop-color="#91B3FF" stop-opacity="0.43"/>
<stop offset="0.91" stop-color="#BED2FF" stop-opacity="0.25"/>
<stop offset="0.98" stop-color="#F0F5FF" stop-opacity="0.06"/>
<stop offset="1" stop-color="white" stop-opacity="0.01"/>
</linearGradient>
<linearGradient id="paint7_linear" x1="31.7909" y1="53.8984" x2="31.7909" y2="42.3239" gradientUnits="userSpaceOnUse">
<stop stop-color="#004FFF"/>
<stop offset="0.22" stop-color="#0351FF" stop-opacity="0.99"/>
<stop offset="0.35" stop-color="#0B57FF" stop-opacity="0.96"/>
<stop offset="0.47" stop-color="#1A61FF" stop-opacity="0.9"/>
<stop offset="0.57" stop-color="#2E6FFF" stop-opacity="0.82"/>
<stop offset="0.66" stop-color="#4981FF" stop-opacity="0.71"/>
<stop offset="0.75" stop-color="#6A98FF" stop-opacity="0.58"/>
<stop offset="0.83" stop-color="#91B3FF" stop-opacity="0.43"/>
<stop offset="0.91" stop-color="#BED2FF" stop-opacity="0.25"/>
<stop offset="0.98" stop-color="#F0F5FF" stop-opacity="0.06"/>
<stop offset="1" stop-color="white" stop-opacity="0.01"/>
</linearGradient>
<linearGradient id="paint8_linear" x1="34.6368" y1="82.1812" x2="34.6368" y2="106.039" gradientUnits="userSpaceOnUse">
<stop stop-color="#CFD8DB"/>
<stop offset="1" stop-color="#CFD8DB"/>
</linearGradient>
<linearGradient id="paint9_linear" x1="100.907" y1="104.011" x2="125.037" y2="104.011" gradientUnits="userSpaceOnUse">
<stop stop-color="#CFD8DB"/>
<stop offset="1" stop-color="#CFD8DB"/>
</linearGradient>
<linearGradient id="paint10_linear" x1="40.5381" y1="115.131" x2="40.5381" y2="124" gradientUnits="userSpaceOnUse">
<stop stop-color="#CFD8DB"/>
<stop offset="1" stop-color="#CFD8DB"/>
</linearGradient>
<linearGradient id="paint11_linear" x1="65.7813" y1="84.0538" x2="65.7813" y2="115.933" gradientUnits="userSpaceOnUse">
<stop stop-color="#CFD8DB"/>
<stop offset="1" stop-color="#CFD8DB"/>
</linearGradient>
<linearGradient id="paint12_linear" x1="79.0717" y1="54.9652" x2="79.0717" y2="40.5906" gradientUnits="userSpaceOnUse">
<stop stop-color="#CFD8DB"/>
<stop offset="1" stop-color="#E3EBED"/>
</linearGradient>
<linearGradient id="paint13_linear" x1="11.007" y1="92.1684" x2="72.782" y2="112.897" gradientUnits="userSpaceOnUse">
<stop stop-color="#C9D7F5"/>
<stop offset="1" stop-color="#5C7DD1"/>
</linearGradient>
<linearGradient id="paint14_linear" x1="65.6064" y1="100.631" x2="95.3474" y2="100.631" gradientUnits="userSpaceOnUse">
<stop stop-color="#CFD8DB"/>
<stop offset="1" stop-color="#CFD8DB"/>
</linearGradient>
<linearGradient id="paint15_linear" x1="60.9381" y1="79.6345" x2="41.6583" y2="79.6345" gradientUnits="userSpaceOnUse">
<stop stop-color="#CFD8DB"/>
<stop offset="1" stop-color="#DEE6E8"/>
</linearGradient>
<linearGradient id="paint16_linear" x1="434.374" y1="-4350.86" x2="-434.078" y2="-4351" gradientUnits="userSpaceOnUse">
<stop stop-color="#CFD8DB"/>
<stop offset="1" stop-color="#CFD8DB"/>
</linearGradient>
<linearGradient id="paint17_linear" x1="111.51" y1="84.1246" x2="111.51" y2="20.4981" gradientUnits="userSpaceOnUse">
<stop stop-color="#004FFF"/>
<stop offset="0.22" stop-color="#0351FF" stop-opacity="0.99"/>
<stop offset="0.35" stop-color="#0B57FF" stop-opacity="0.96"/>
<stop offset="0.47" stop-color="#1A61FF" stop-opacity="0.9"/>
<stop offset="0.57" stop-color="#2E6FFF" stop-opacity="0.82"/>
<stop offset="0.66" stop-color="#4981FF" stop-opacity="0.71"/>
<stop offset="0.75" stop-color="#6A98FF" stop-opacity="0.58"/>
<stop offset="0.83" stop-color="#91B3FF" stop-opacity="0.43"/>
<stop offset="0.91" stop-color="#BED2FF" stop-opacity="0.25"/>
<stop offset="0.98" stop-color="#F0F5FF" stop-opacity="0.06"/>
<stop offset="1" stop-color="white" stop-opacity="0.01"/>
</linearGradient>
<linearGradient id="paint18_linear" x1="94.9477" y1="63.061" x2="100.712" y2="63.061" gradientUnits="userSpaceOnUse">
<stop stop-color="#CFD8DB"/>
<stop offset="1" stop-color="#CFD8DB"/>
</linearGradient>
<linearGradient id="paint19_linear" x1="91.4399" y1="65.2918" x2="97.2037" y2="65.2918" gradientUnits="userSpaceOnUse">
<stop stop-color="#CFD8DB"/>
<stop offset="1" stop-color="#CFD8DB"/>
</linearGradient>
<linearGradient id="paint20_linear" x1="87.5131" y1="67.592" x2="93.277" y2="67.592" gradientUnits="userSpaceOnUse">
<stop stop-color="#CFD8DB"/>
<stop offset="1" stop-color="#CFD8DB"/>
</linearGradient>
<linearGradient id="paint21_linear" x1="83.6586" y1="69.8565" x2="89.4225" y2="69.8565" gradientUnits="userSpaceOnUse">
<stop stop-color="#CFD8DB"/>
<stop offset="1" stop-color="#CFD8DB"/>
</linearGradient>
<linearGradient id="paint22_linear" x1="80.309" y1="71.7147" x2="86.0728" y2="71.7147" gradientUnits="userSpaceOnUse">
<stop stop-color="#CFD8DB"/>
<stop offset="1" stop-color="#CFD8DB"/>
</linearGradient>
<linearGradient id="paint23_linear" x1="76.768" y1="74.0671" x2="82.5318" y2="74.0671" gradientUnits="userSpaceOnUse">
<stop stop-color="#CFD8DB"/>
<stop offset="1" stop-color="#CFD8DB"/>
</linearGradient>
<linearGradient id="paint24_linear" x1="73.2983" y1="76.1114" x2="79.0642" y2="76.1114" gradientUnits="userSpaceOnUse">
<stop stop-color="#CFD8DB"/>
<stop offset="1" stop-color="#CFD8DB"/>
</linearGradient>
<linearGradient id="paint25_linear" x1="22.4341" y1="83.3614" x2="22.4341" y2="0.313532" gradientUnits="userSpaceOnUse">
<stop stop-color="#004FFF"/>
<stop offset="0.22" stop-color="#0351FF" stop-opacity="0.99"/>
<stop offset="0.35" stop-color="#0B57FF" stop-opacity="0.96"/>
<stop offset="0.47" stop-color="#1A61FF" stop-opacity="0.9"/>
<stop offset="0.57" stop-color="#2E6FFF" stop-opacity="0.82"/>
<stop offset="0.66" stop-color="#4981FF" stop-opacity="0.71"/>
<stop offset="0.75" stop-color="#6A98FF" stop-opacity="0.58"/>
<stop offset="0.83" stop-color="#91B3FF" stop-opacity="0.43"/>
<stop offset="0.91" stop-color="#BED2FF" stop-opacity="0.25"/>
<stop offset="0.98" stop-color="#F0F5FF" stop-opacity="0.06"/>
<stop offset="1" stop-color="white" stop-opacity="0.01"/>
</linearGradient>
</defs>
</svg>
