<?xml version="1.0" encoding="UTF-8"?>
<svg width="444px" height="1408px" viewBox="0 0 444 1408" version="1.1" xmlns="http://www.w3.org/2000/svg" xmlns:xlink="http://www.w3.org/1999/xlink">
    <!-- Generator: Sketch 50.2 (55047) - http://www.bohemiancoding.com/sketch -->
    <title>exclamation-icon</title>
    <desc>Created with Sketch.</desc>
    <defs></defs>
    <g id="Page-1" stroke="none" stroke-width="1" fill="none" fill-rule="evenodd">
        <g id="exclamation-icon" transform="translate(-1.000000, 0.000000)" fill="#004FFF" fill-rule="nonzero">
            <path d="M415,1120 L415,1344 C415,1361.33333 408.666667,1376.33333 396,1389 C383.333333,1401.66667 368.333333,1408 351,1408 L95,1408 C77.6666667,1408 62.6666667,1401.66667 50,1389 C37.3333333,1376.33333 31,1361.33333 31,1344 L31,1120 C31,1102.66667 37.3333333,1087.66667 50,1075 C62.6666667,1062.33333 77.6666667,1056 95,1056 L351,1056 C368.333333,1056 383.333333,1062.33333 396,1075 C408.666667,1087.66667 415,1102.66667 415,1120 Z M445,64 L417,832 C416.333333,849.333333 409.5,864.333333 396.5,877 C383.5,889.666667 368.333333,896 351,896 L95,896 C77.6666667,896 62.5,889.666667 49.5,877 C36.5,864.333333 29.6666667,849.333333 29,832 L1,64 C0.333333333,46.6666667 6.16666667,31.6666667 18.5,19 C30.8333333,6.33333333 45.6666667,0 63,0 L383,0 C400.333333,0 415.166667,6.33333333 427.5,19 C439.833333,31.6666667 445.666667,46.6666667 445,64 Z" id="Shape"></path>
        </g>
    </g>
</svg>