<?xml version="1.0" encoding="UTF-8" standalone="no"?>
<svg width="856" height="528" viewBox="0 0 856 528" fill="none" version="1.1" xmlns="http://www.w3.org/2000/svg" xmlns:xlink="http://www.w3.org/1999/xlink">
<rect x="124" width="607" height="264" fill="#3271FF"/>
<rect x="124" y="264" width="607" height="264" fill="#FFF500"/>
<path fill-rule="evenodd" clip-rule="evenodd" d="M736.354 0H120.641C114.958 12.5236 109.276 25.0488 103.594 37.5746C74.5129 101.682 45.4252 165.804 16.059 229.798C15.0299 232.051 13.8265 234.776 12.5214 237.731C8.6086 246.591 3.78188 257.52 0 264L16.059 300.089C41.3275 355.287 66.3834 410.55 91.6411 466.259C100.942 486.773 110.27 507.347 119.646 528H735.823L756.328 478.158C774.067 439.024 791.881 401.17 809.731 363.241C825.137 330.507 840.568 297.717 856 264C829.822 207.704 800.699 142.929 772.958 81.2312C760.334 53.1539 747.997 25.7138 736.354 0ZM431.303 189.461H428.425C416.723 230.689 404.359 271.837 391.819 313.569C379.029 356.133 366.055 399.306 353.416 443.796H284.251C251.98 326.206 219.796 208.865 186.914 88.7759H253.637C264.913 133.792 277.374 182.675 289.759 231.259C300.653 273.993 311.488 316.497 321.406 355.936C327.846 333.455 334.785 309.147 341.875 284.314C353.51 243.558 365.548 201.389 376.442 163.561H484.594C497.086 208.629 509.579 253.833 523.229 303.229C528.068 320.739 533.052 338.775 538.234 357.519C562.743 262.747 584.809 177.468 607.573 89.6919H674.471C666.482 117.445 658.527 145.085 650.593 172.653C624.483 263.376 598.599 353.31 572.511 443.879H504.916C493.094 401.454 480.518 358.753 467.915 315.958C455.507 273.826 443.072 231.602 431.303 189.461Z" fill="black"/>
</svg>
