<svg width="103" height="124" viewBox="0 0 103 124" fill="none" xmlns="http://www.w3.org/2000/svg">
<path d="M102.126 88.1221V93.4799L50.6416 123.393V118.035L102.126 88.1221Z" fill="url(#paint0_linear)"/>
<path d="M1 89.3542V94.7121L50.6418 123.393V118.035L1 89.3542Z" fill="#EDEFF1"/>
<path d="M50.5913 117.974L1 89.2962L52.535 59.4972L102.126 88.1726L50.5913 117.974Z" fill="#FAFAFA" stroke="white" stroke-width="0.5" stroke-linecap="round" stroke-linejoin="round"/>
<path d="M50.6431 123.393L50.5927 117.974L50.6431 123.393Z" fill="#FAFAFA"/>
<path d="M50.6431 123.393L50.5927 117.974" stroke="white" stroke-width="0.5" stroke-linecap="round" stroke-linejoin="round"/>
<path opacity="0.15" d="M51.8594 72.4928L80.4037 89.0007L50.7376 106.155L22.1934 89.6471L51.8594 72.4928Z" fill="#004FFF"/>
<path opacity="0.25" d="M51.8594 63.4385L80.4037 79.9438L50.7376 97.0981L22.1934 80.5927L51.8594 63.4385Z" fill="#004FFF"/>
<path opacity="0.6" d="M46.2939 94.3358L75.3323 77.6714" stroke="#F7F7F7" stroke-width="0.85995" stroke-linecap="round" stroke-linejoin="round"/>
<path opacity="0.6" d="M39.0859 90.3136L68.1268 73.6492" stroke="#F7F7F7" stroke-width="0.85995" stroke-linecap="round" stroke-linejoin="round"/>
<path opacity="0.6" d="M32.7852 86.5692L61.8235 69.9048" stroke="#F7F7F7" stroke-width="0.85995" stroke-linecap="round" stroke-linejoin="round"/>
<path opacity="0.6" d="M26.3525 82.8954L55.3934 66.231" stroke="#F7F7F7" stroke-width="0.85995" stroke-linecap="round" stroke-linejoin="round"/>
<path opacity="0.38" d="M51.8594 54.3816L80.4037 70.8895L50.7376 88.0437L22.1934 71.5358L51.8594 54.3816Z" fill="#004FFF"/>
<path opacity="0.7" d="M51.6373 61.012L68.9383 71.0157L50.9592 81.4133L33.6582 71.4096L51.6373 61.012Z" fill="#F7F7F7"/>
<path opacity="0.6" d="M51.8594 45.3273L80.4037 61.8326L50.7376 78.9894L22.1934 62.4815L51.8594 45.3273Z" fill="#004FFF"/>
<path d="M53.8236 60.3631C52.8304 60.5171 51.8851 60.7444 50.9372 60.9641C50.3766 61.0969 49.8056 61.1814 49.2305 61.2165C48.0608 61.2797 47.3222 60.7116 47.7306 60.0803C47.8706 59.8919 48.0472 59.7339 48.2499 59.6157C49.164 59.0468 50.1792 58.6602 51.2397 58.477C51.8271 58.3659 51.8951 58.2548 51.6027 57.9316C51.3103 57.6084 50.9548 57.2625 50.6322 56.9217C50.3821 56.693 50.0277 56.6186 49.707 56.7272C49.0066 56.8732 48.3206 57.082 47.6575 57.3509C46.8332 57.6968 46.8306 57.6943 46.087 57.2676C45.0383 56.6666 45.0383 56.6666 44.0299 57.2499C43.8837 57.3332 43.735 57.4165 43.5938 57.5024C43.135 57.7827 43.1425 57.8786 43.6215 58.1715C43.8358 58.3028 44.0627 58.424 44.2845 58.5578C44.9349 58.9365 44.9223 58.934 44.5366 59.4138C43.6291 60.5777 43.7627 61.6862 45.3206 62.7088C46.697 63.6051 48.4238 63.7516 50.2994 63.4991C51.4565 63.3425 52.5077 63.037 53.6119 62.8022C54.0476 62.7018 54.4913 62.6401 54.9379 62.6179C56.2891 62.5573 57.1916 63.2339 56.7227 63.9611C56.4023 64.3929 55.9648 64.7233 55.4622 64.913C54.5383 65.3266 53.5659 65.6218 52.5682 65.7917C51.9405 65.9003 51.88 66.0038 52.2002 66.3497C52.475 66.6476 52.7699 66.9405 53.0623 67.2334C53.4581 67.6248 53.6396 67.6677 54.3833 67.5288C55.27 67.349 56.1358 67.0782 56.9672 66.7209C57.5924 66.4684 57.6327 66.4684 58.2277 66.7966L59.0218 67.2486C59.3275 67.4419 59.7142 67.4525 60.0301 67.2763C60.4083 67.0668 60.7864 66.8496 61.1444 66.6274C61.4418 66.4482 61.4242 66.2588 61.104 66.0719C60.7461 65.8649 60.4007 65.6478 60.0301 65.4483C59.6595 65.2488 59.6142 65.0494 59.8562 64.7994C60.4158 64.2212 60.6427 63.5849 60.5066 62.9158C60.1486 61.0701 56.9874 59.8682 53.8236 60.3631Z" fill="#F7F7F7"/>
<path fill-rule="evenodd" clip-rule="evenodd" d="M50.2461 57.8964C50.2461 57.6178 50.4719 57.392 50.7505 57.392C51.0291 57.392 51.2549 57.6178 51.2549 57.8964V58.2395C51.2549 58.5181 51.0291 58.744 50.7505 58.744C50.4719 58.744 50.2461 58.5181 50.2461 58.2395V57.8964ZM50.2463 61.3279C50.2463 61.0493 50.4722 60.8235 50.7508 60.8235C51.0293 60.8235 51.2552 61.0493 51.2552 61.3279V61.6711C51.2552 61.9496 51.0293 62.1755 50.7508 62.1755C50.4722 62.1755 50.2463 61.9496 50.2463 61.6711V61.3279ZM50.7508 64.2551C50.4722 64.2551 50.2463 64.481 50.2463 64.7596V65.1027C50.2463 65.3813 50.4722 65.6071 50.7508 65.6071C51.0293 65.6071 51.2552 65.3813 51.2552 65.1027V64.7596C51.2552 64.481 51.0293 64.2551 50.7508 64.2551ZM50.2463 68.1908C50.2463 67.9122 50.4722 67.6864 50.7508 67.6864C51.0293 67.6864 51.2552 67.9122 51.2552 68.1908V68.534C51.2552 68.8126 51.0293 69.0384 50.7508 69.0384C50.4722 69.0384 50.2463 68.8126 50.2463 68.534V68.1908ZM50.7508 71.1179C50.4722 71.1179 50.2463 71.3438 50.2463 71.6223V71.9655C50.2463 72.2441 50.4722 72.4699 50.7508 72.4699C51.0293 72.4699 51.2552 72.2441 51.2552 71.9655V71.6223C51.2552 71.3438 51.0293 71.1179 50.7508 71.1179ZM50.2463 75.0536C50.2463 74.775 50.4722 74.5492 50.7508 74.5492C51.0293 74.5492 51.2552 74.775 51.2552 75.0536V75.3968C51.2552 75.6754 51.0293 75.9012 50.7508 75.9012C50.4722 75.9012 50.2463 75.6754 50.2463 75.3968V75.0536ZM50.7508 77.9807C50.4722 77.9807 50.2463 78.2065 50.2463 78.4851V78.8283C50.2463 79.1069 50.4722 79.3327 50.7508 79.3327C51.0293 79.3327 51.2552 79.1069 51.2552 78.8283V78.4851C51.2552 78.2065 51.0293 77.9807 50.7508 77.9807ZM50.2463 81.9167C50.2463 81.6381 50.4722 81.4122 50.7508 81.4122C51.0293 81.4122 51.2552 81.6381 51.2552 81.9167V82.2598C51.2552 82.5384 51.0293 82.7642 50.7508 82.7642C50.4722 82.7642 50.2463 82.5384 50.2463 82.2598V81.9167ZM50.7508 84.8438C50.4722 84.8438 50.2463 85.0696 50.2463 85.3482V85.6913C50.2463 85.9699 50.4722 86.1957 50.7508 86.1957C51.0293 86.1957 51.2552 85.9699 51.2552 85.6913V85.3482C51.2552 85.0696 51.0293 84.8438 50.7508 84.8438ZM50.2463 88.7796C50.2463 88.501 50.4722 88.2751 50.7508 88.2751C51.0293 88.2751 51.2552 88.501 51.2552 88.7796V89.1227C51.2552 89.4013 51.0293 89.6271 50.7508 89.6271C50.4722 89.6271 50.2463 89.4013 50.2463 89.1227V88.7796ZM50.7508 91.7065C50.4722 91.7065 50.2463 91.9324 50.2463 92.211V92.5541C50.2463 92.8327 50.4722 93.0585 50.7508 93.0585C51.0293 93.0585 51.2552 92.8327 51.2552 92.5541V92.211C51.2552 91.9324 51.0293 91.7065 50.7508 91.7065ZM50.2463 95.6424C50.2463 95.3638 50.4722 95.1379 50.7508 95.1379C51.0293 95.1379 51.2552 95.3638 51.2552 95.6424V95.9855C51.2552 96.2641 51.0293 96.4899 50.7508 96.4899C50.4722 96.4899 50.2463 96.2641 50.2463 95.9855V95.6424ZM50.7508 98.5693C50.4722 98.5693 50.2463 98.7952 50.2463 99.0738V99.4169C50.2463 99.6955 50.4722 99.9213 50.7508 99.9213C51.0293 99.9213 51.2552 99.6955 51.2552 99.4169V99.0738C51.2552 98.7952 51.0293 98.5693 50.7508 98.5693ZM50.2463 102.505C50.2463 102.227 50.4722 102.001 50.7508 102.001C51.0293 102.001 51.2552 102.227 51.2552 102.505V102.849C51.2552 103.127 51.0293 103.353 50.7508 103.353C50.4722 103.353 50.2463 103.127 50.2463 102.849V102.505ZM50.7508 105.432C50.4722 105.432 50.2463 105.658 50.2463 105.937V106.28C50.2463 106.558 50.4722 106.784 50.7508 106.784C51.0293 106.784 51.2552 106.558 51.2552 106.28V105.937C51.2552 105.658 51.0293 105.432 50.7508 105.432ZM50.2463 109.368C50.2463 109.09 50.4722 108.864 50.7508 108.864C51.0293 108.864 51.2552 109.09 51.2552 109.368V109.711C51.2552 109.99 51.0293 110.216 50.7508 110.216C50.4722 110.216 50.2463 109.99 50.2463 109.711V109.368ZM50.7508 112.295C50.4722 112.295 50.2463 112.521 50.2463 112.8V113.143C50.2463 113.421 50.4722 113.647 50.7508 113.647C51.0293 113.647 51.2552 113.421 51.2552 113.143V112.8C51.2552 112.521 51.0293 112.295 50.7508 112.295Z" fill="url(#paint1_linear)"/>
<path fill-rule="evenodd" clip-rule="evenodd" d="M6.87338 32.3771C6.87338 32.0985 7.09922 31.8727 7.37781 31.8727C7.65639 31.8727 7.88223 32.0985 7.88223 32.3771V32.7202C7.88223 32.9988 7.65639 33.2247 7.37781 33.2247C7.09922 33.2247 6.87338 32.9988 6.87338 32.7202V32.3771ZM6.87305 35.8086C6.87305 35.53 7.09888 35.3042 7.37747 35.3042C7.65605 35.3042 7.88189 35.53 7.88189 35.8086V36.1518C7.88189 36.4304 7.65605 36.6562 7.37747 36.6562C7.09888 36.6562 6.87305 36.4304 6.87305 36.1518V35.8086ZM7.37747 38.7356C7.09888 38.7356 6.87305 38.9614 6.87305 39.24V39.5832C6.87305 39.8618 7.09888 40.0876 7.37747 40.0876C7.65605 40.0876 7.88189 39.8618 7.88189 39.5832V39.24C7.88189 38.9614 7.65605 38.7356 7.37747 38.7356ZM6.87305 42.6715C6.87305 42.3929 7.09888 42.1671 7.37747 42.1671C7.65605 42.1671 7.88189 42.3929 7.88189 42.6715V43.0147C7.88189 43.2933 7.65605 43.5191 7.37747 43.5191C7.09888 43.5191 6.87305 43.2933 6.87305 43.0147V42.6715ZM7.37747 45.5985C7.09888 45.5985 6.87305 45.8243 6.87305 46.1029V46.4461C6.87305 46.7247 7.09888 46.9505 7.37747 46.9505C7.65605 46.9505 7.88189 46.7247 7.88189 46.4461V46.1029C7.88189 45.8243 7.65605 45.5985 7.37747 45.5985ZM6.87305 49.5345C6.87305 49.2559 7.09888 49.03 7.37747 49.03C7.65605 49.03 7.88189 49.2559 7.88189 49.5345V49.8776C7.88189 50.1562 7.65605 50.382 7.37747 50.382C7.09888 50.382 6.87305 50.1562 6.87305 49.8776V49.5345ZM7.37747 52.4614C7.09888 52.4614 6.87305 52.6873 6.87305 52.9659V53.309C6.87305 53.5876 7.09888 53.8134 7.37747 53.8134C7.65605 53.8134 7.88189 53.5876 7.88189 53.309V52.9659C7.88189 52.6873 7.65605 52.4614 7.37747 52.4614ZM6.87305 56.3972C6.87305 56.1187 7.09888 55.8928 7.37747 55.8928C7.65605 55.8928 7.88189 56.1187 7.88189 56.3972V56.7404C7.88189 57.019 7.65605 57.2448 7.37747 57.2448C7.09888 57.2448 6.87305 57.019 6.87305 56.7404V56.3972ZM7.37747 59.3243C7.09888 59.3243 6.87305 59.5502 6.87305 59.8288V60.1719C6.87305 60.4505 7.09888 60.6763 7.37747 60.6763C7.65605 60.6763 7.88189 60.4505 7.88189 60.1719V59.8288C7.88189 59.5502 7.65605 59.3243 7.37747 59.3243ZM6.87305 63.26C6.87305 62.9814 7.09888 62.7556 7.37747 62.7556C7.65605 62.7556 7.88189 62.9814 7.88189 63.26V63.6032C7.88189 63.8818 7.65605 64.1076 7.37747 64.1076C7.09888 64.1076 6.87305 63.8818 6.87305 63.6032V63.26ZM7.37747 66.1873C7.09888 66.1873 6.87305 66.4131 6.87305 66.6917V67.0348C6.87305 67.3134 7.09888 67.5392 7.37747 67.5392C7.65605 67.5392 7.88189 67.3134 7.88189 67.0348V66.6917C7.88189 66.4131 7.65605 66.1873 7.37747 66.1873ZM6.87305 70.1231C6.87305 69.8445 7.09888 69.6187 7.37747 69.6187C7.65605 69.6187 7.88189 69.8445 7.88189 70.1231V70.4662C7.88189 70.7448 7.65605 70.9706 7.37747 70.9706C7.09888 70.9706 6.87305 70.7448 6.87305 70.4662V70.1231ZM7.37747 73.05C7.09888 73.05 6.87305 73.2759 6.87305 73.5545V73.8976C6.87305 74.1762 7.09888 74.402 7.37747 74.402C7.65605 74.402 7.88189 74.1762 7.88189 73.8976V73.5545C7.88189 73.2759 7.65605 73.05 7.37747 73.05ZM6.87305 76.986C6.87305 76.7074 7.09888 76.4816 7.37747 76.4816C7.65605 76.4816 7.88189 76.7074 7.88189 76.986V77.3291C7.88189 77.6077 7.65605 77.8336 7.37747 77.8336C7.09888 77.8336 6.87305 77.6077 6.87305 77.3291V76.986ZM7.37747 79.9131C7.09888 79.9131 6.87305 80.1389 6.87305 80.4175V80.7607C6.87305 81.0392 7.09888 81.2651 7.37747 81.2651C7.65605 81.2651 7.88189 81.0392 7.88189 80.7607V80.4175C7.88189 80.1389 7.65605 79.9131 7.37747 79.9131ZM6.87305 83.8488C6.87305 83.5702 7.09888 83.3444 7.37747 83.3444C7.65605 83.3444 7.88189 83.5702 7.88189 83.8488V84.1919C7.88189 84.4705 7.65605 84.6964 7.37747 84.6964C7.09888 84.6964 6.87305 84.4705 6.87305 84.1919V83.8488ZM7.37747 86.7758C7.09888 86.7758 6.87305 87.0016 6.87305 87.2802V87.6233C6.87305 87.9019 7.09888 88.1277 7.37747 88.1277C7.65605 88.1277 7.88189 87.9019 7.88189 87.6233V87.2802C7.88189 87.0016 7.65605 86.7758 7.37747 86.7758Z" fill="url(#paint2_linear)"/>
<path fill-rule="evenodd" clip-rule="evenodd" d="M94.9099 31.3671C94.9099 31.0885 95.1358 30.8627 95.4143 30.8627C95.6929 30.8627 95.9188 31.0885 95.9188 31.3671V31.7102C95.9188 31.9888 95.6929 32.2147 95.4143 32.2147C95.1358 32.2147 94.9099 31.9888 94.9099 31.7102V31.3671ZM94.9092 34.7982C94.9092 34.5197 95.135 34.2938 95.4136 34.2938C95.6922 34.2938 95.918 34.5197 95.918 34.7982V35.1414C95.918 35.42 95.6922 35.6458 95.4136 35.6458C95.135 35.6458 94.9092 35.42 94.9092 35.1414V34.7982ZM95.4136 37.7253C95.135 37.7253 94.9092 37.9512 94.9092 38.2298V38.5729C94.9092 38.8515 95.135 39.0773 95.4136 39.0773C95.6922 39.0773 95.918 38.8515 95.918 38.5729V38.2298C95.918 37.9512 95.6922 37.7253 95.4136 37.7253ZM94.9092 41.6613C94.9092 41.3827 95.135 41.1569 95.4136 41.1569C95.6922 41.1569 95.918 41.3827 95.918 41.6613V42.0044C95.918 42.283 95.6922 42.5089 95.4136 42.5089C95.135 42.5089 94.9092 42.283 94.9092 42.0044V41.6613ZM95.4136 44.5884C95.135 44.5884 94.9092 44.8142 94.9092 45.0928V45.4359C94.9092 45.7145 95.135 45.9404 95.4136 45.9404C95.6922 45.9404 95.918 45.7145 95.918 45.4359V45.0928C95.918 44.8142 95.6922 44.5884 95.4136 44.5884ZM94.9092 48.5244C94.9092 48.2458 95.135 48.02 95.4136 48.02C95.6922 48.02 95.918 48.2458 95.918 48.5244V48.8676C95.918 49.1462 95.6922 49.372 95.4136 49.372C95.135 49.372 94.9092 49.1462 94.9092 48.8676V48.5244ZM95.4136 51.4514C95.135 51.4514 94.9092 51.6772 94.9092 51.9558V52.299C94.9092 52.5776 95.135 52.8034 95.4136 52.8034C95.6922 52.8034 95.918 52.5776 95.918 52.299V51.9558C95.918 51.6772 95.6922 51.4514 95.4136 51.4514ZM94.9092 55.387C94.9092 55.1084 95.135 54.8826 95.4136 54.8826C95.6922 54.8826 95.918 55.1084 95.918 55.387V55.7301C95.918 56.0087 95.6922 56.2346 95.4136 56.2346C95.135 56.2346 94.9092 56.0087 94.9092 55.7301V55.387ZM95.4136 58.3141C95.135 58.3141 94.9092 58.5399 94.9092 58.8185V59.1617C94.9092 59.4402 95.135 59.6661 95.4136 59.6661C95.6922 59.6661 95.918 59.4402 95.918 59.1617V58.8185C95.918 58.5399 95.6922 58.3141 95.4136 58.3141ZM94.9092 62.25C94.9092 61.9714 95.135 61.7456 95.4136 61.7456C95.6922 61.7456 95.918 61.9714 95.918 62.25V62.5932C95.918 62.8718 95.6922 63.0976 95.4136 63.0976C95.135 63.0976 94.9092 62.8718 94.9092 62.5932V62.25ZM95.4136 65.177C95.135 65.177 94.9092 65.4028 94.9092 65.6814V66.0246C94.9092 66.3032 95.135 66.529 95.4136 66.529C95.6922 66.529 95.918 66.3032 95.918 66.0246V65.6814C95.918 65.4028 95.6922 65.177 95.4136 65.177ZM94.9092 69.1129C94.9092 68.8344 95.135 68.6085 95.4136 68.6085C95.6922 68.6085 95.918 68.8344 95.918 69.1129V69.4561C95.918 69.7347 95.6922 69.9605 95.4136 69.9605C95.135 69.9605 94.9092 69.7347 94.9092 69.4561V69.1129ZM95.4136 72.04C95.135 72.04 94.9092 72.2659 94.9092 72.5445V72.8876C94.9092 73.1662 95.135 73.392 95.4136 73.392C95.6922 73.392 95.918 73.1662 95.918 72.8876V72.5445C95.918 72.2659 95.6922 72.04 95.4136 72.04ZM94.9092 75.9757C94.9092 75.6971 95.135 75.4713 95.4136 75.4713C95.6922 75.4713 95.918 75.6971 95.918 75.9757V76.3189C95.918 76.5975 95.6922 76.8233 95.4136 76.8233C95.135 76.8233 94.9092 76.5975 94.9092 76.3189V75.9757ZM95.4136 78.9028C95.135 78.9028 94.9092 79.1287 94.9092 79.4073V79.7504C94.9092 80.029 95.135 80.2548 95.4136 80.2548C95.6922 80.2548 95.918 80.029 95.918 79.7504V79.4073C95.918 79.1287 95.6922 78.9028 95.4136 78.9028ZM94.9092 82.8387C94.9092 82.5601 95.135 82.3342 95.4136 82.3342C95.6922 82.3342 95.918 82.5601 95.918 82.8387V83.1818C95.918 83.4604 95.6922 83.6862 95.4136 83.6862C95.135 83.6862 94.9092 83.4604 94.9092 83.1818V82.8387ZM95.4136 85.7657C95.135 85.7657 94.9092 85.9916 94.9092 86.2702V86.6133C94.9092 86.8919 95.135 87.1177 95.4136 87.1177C95.6922 87.1177 95.918 86.8919 95.918 86.6133V86.2702C95.918 85.9916 95.6922 85.7657 95.4136 85.7657Z" fill="url(#paint3_linear)"/>
<g opacity="0.5">
<path d="M41.8158 69.3318C41.7091 69.3805 41.5857 69.3758 41.4831 69.3191L35.9774 66.1352C35.8791 66.0772 35.869 65.9913 35.9547 65.9408C36.0618 65.8928 36.1852 65.8985 36.2875 65.956L41.7931 69.15C41.8914 69.1954 41.9015 69.2813 41.8158 69.3318Z" fill="#F7F7F7"/>
</g>
<g opacity="0.5">
<path d="M41.5798 67.4102C41.4723 67.459 41.3481 67.4543 41.2445 67.3976L35.7414 64.2136C35.6406 64.1556 35.6305 64.0697 35.7162 64.0217C35.8235 63.9717 35.9482 63.9764 36.0515 64.0344L41.5546 67.2183C41.6554 67.2738 41.6655 67.3622 41.5798 67.4102Z" fill="#F7F7F7"/>
</g>
<g opacity="0.5">
<path d="M41.3623 65.6605C41.2544 65.7086 41.1302 65.703 41.027 65.6454L35.5213 62.4615C35.423 62.4059 35.4129 62.3176 35.4986 62.2696C35.6053 62.2208 35.7287 62.2255 35.8314 62.2822L41.3371 65.4661C41.4455 65.5242 41.4455 65.6151 41.3623 65.6605Z" fill="#F7F7F7"/>
</g>
<g opacity="0.5">
<path d="M56.8481 50.8239C56.9557 50.7751 57.0799 50.7798 57.1834 50.8366L62.6891 54.0205C62.7874 54.0786 62.7975 54.1644 62.7118 54.2149C62.6047 54.2629 62.4813 54.2573 62.379 54.1997L56.8734 51.0158C56.775 50.9704 56.7624 50.8744 56.8481 50.8239Z" fill="#F7F7F7"/>
</g>
<g opacity="0.5">
<path d="M57.0875 52.738C57.1942 52.6892 57.3176 52.6939 57.4203 52.7506L62.9259 55.9345C63.0243 55.9926 63.0369 56.0784 62.9511 56.1289C62.8432 56.1769 62.719 56.1713 62.6159 56.1138L57.1102 52.9299C57.0119 52.8819 57.0018 52.7935 57.0875 52.738Z" fill="#F7F7F7"/>
</g>
<g opacity="0.5">
<path d="M57.3035 54.5054C57.4107 54.4554 57.5355 54.4601 57.6387 54.518L63.1419 57.7019C63.2427 57.76 63.2528 57.8458 63.1671 57.8938C63.0627 57.9477 62.9387 57.9477 62.8343 57.8938L57.3261 54.6897C57.2303 54.6316 57.2177 54.5458 57.3035 54.5054Z" fill="#F7F7F7"/>
</g>
<g opacity="0.75">
<path opacity="0.6" d="M34.837 75.0656V75.1792C34.8337 75.4 34.9506 75.6051 35.142 75.7145C35.328 75.8221 35.5572 75.8219 35.743 75.714C35.9287 75.6061 36.0428 75.407 36.042 75.1919V75.0782C36.0429 74.8634 35.9283 74.6646 35.742 74.5581C35.558 74.4493 35.3302 74.4467 35.1438 74.5512C34.9574 74.6557 34.8405 74.8517 34.837 75.0656Z" fill="#F7F7F7"/>
<path opacity="0.6" d="M28.8408 71.1697V71.2833C28.8416 71.4991 28.9568 71.6981 29.1433 71.806C29.3293 71.9135 29.5585 71.9133 29.7443 71.8054C29.9301 71.6975 30.0441 71.4984 30.0433 71.2833V71.1697C30.0442 70.9548 29.9296 70.7561 29.7433 70.6496C29.5574 70.5426 29.3287 70.5428 29.1428 70.6499C28.957 70.757 28.842 70.955 28.8408 71.1697Z" fill="#F7F7F7"/>
<path opacity="0.6" d="M31.7383 73.2073V73.3209C31.7373 73.5358 31.852 73.7345 32.0383 73.841C32.2242 73.948 32.4529 73.9479 32.6388 73.8408C32.8246 73.7337 32.9396 73.5357 32.9408 73.3209V73.2073C32.9405 72.9914 32.8252 72.7921 32.6383 72.6846C32.4523 72.5771 32.2231 72.5773 32.0373 72.6852C31.8515 72.7931 31.7375 72.9922 31.7383 73.2073Z" fill="#F7F7F7"/>
</g>
<g opacity="0.65">
<path opacity="0.6" d="M67.6161 75.1036L67.5127 75.0556C67.3197 74.9601 67.0903 74.9766 66.9127 75.0985C66.7357 75.2198 66.6364 75.4262 66.652 75.6404C66.6676 75.8547 66.7957 76.0445 66.9884 76.1388L67.0892 76.1868C67.2825 76.2806 67.5111 76.2643 67.6892 76.1438C67.8664 76.023 67.9661 75.8169 67.9511 75.6027C67.936 75.3885 67.8085 75.1984 67.6161 75.1036Z" fill="#F7F7F7"/>
<path opacity="0.6" d="M73.7431 71.397L73.6423 71.3465C73.4487 71.2537 73.2207 71.27 73.0423 71.3895C72.8636 71.5094 72.7628 71.7159 72.7779 71.9308C72.793 72.1457 72.9217 72.336 73.1154 72.4297L73.2187 72.4802C73.4112 72.5742 73.6391 72.5578 73.8162 72.4373C73.9948 72.3174 74.0957 72.1108 74.0806 71.896C74.0655 71.6811 73.9367 71.4907 73.7431 71.397Z" fill="#F7F7F7"/>
<path opacity="0.6" d="M70.642 73.1217L70.5411 73.0737C70.3481 72.9782 70.1186 72.9946 69.9411 73.1166C69.7639 73.2375 69.6642 73.4436 69.6792 73.6578C69.6943 73.872 69.8219 74.0621 70.0142 74.1569L70.1176 74.2048C70.31 74.2988 70.538 74.2824 70.7151 74.1619C70.8923 74.0411 70.992 73.835 70.977 73.6207C70.9619 73.4065 70.8343 73.2165 70.642 73.1217Z" fill="#F7F7F7"/>
</g>
<path d="M96.3276 26.2896V31.0339L50.7471 57.5177V52.7734L96.3276 26.2896Z" fill="url(#paint4_linear)"/>
<path d="M6.79785 27.3802V32.1246L50.7474 57.5176V52.7733L6.79785 27.3802Z" fill="#EDEFF1"/>
<path d="M50.7499 52.7733L6.8457 27.3853L52.4717 1L96.3758 26.388L50.7499 52.7733Z" fill="#F7F7F7" stroke="white" stroke-width="0.5" stroke-linecap="round" stroke-linejoin="round"/>
<path d="M50.7475 57.5177L50.75 52.7734L50.7475 57.5177Z" fill="#F7F7F7"/>
<path d="M50.7475 57.5177L50.75 52.7734" stroke="white" stroke-width="0.5" stroke-linecap="round" stroke-linejoin="round"/>
<path d="M54.069 31.4253L46.166 35.9953C45.9526 36.1025 45.7012 36.1025 45.4878 35.9953L32.127 28.2691C31.9379 28.158 31.9304 27.9813 32.1144 27.8752L51.059 16.9196C51.2731 16.8116 51.5256 16.8116 51.7397 16.9196L54.6665 18.6113C55.3276 18.318 56.0315 18.133 56.7513 18.0634L53.2573 16.0435C52.196 15.4299 50.5044 15.4123 49.4759 16.0006L30.5313 26.9562C29.5229 27.547 29.5431 28.5241 30.6019 29.1377L43.9627 36.8664C45.024 37.4775 46.7155 37.4977 47.7441 36.9068L54.0942 33.2356L57.1042 34.9273L56.0958 35.5055C55.4681 35.8691 55.4278 36.5534 56.1311 36.826C56.7565 37.0446 57.4449 36.9887 58.0268 36.672L61.2208 34.8263C60.2744 34.7385 59.3557 34.4584 58.5209 34.0032L54.069 31.4253Z" fill="#80A5FF"/>
<path d="M65.7652 30.8268L65.0694 30.4278L61.7368 32.3543L49.8507 25.479C49.6213 25.3452 49.6137 25.1331 49.833 25.0068L57.3756 20.6438C57.6326 20.5149 57.9353 20.5149 58.1924 20.6438L61.5603 22.5905L62.1275 22.2623C62.5072 22.0572 62.9219 21.9253 63.3501 21.8734L59.7099 19.7676C58.6108 19.1314 56.8563 19.1112 55.8 19.7222L48.2524 24.1029C47.1961 24.7139 47.2289 25.7264 48.328 26.3753L60.0402 33.1497C61.1393 33.7834 62.8939 33.8036 63.9501 33.1926L67.2273 31.2989C66.7147 31.2346 66.2187 31.0744 65.7652 30.8268Z" fill="#80A5FF"/>
<path fill-rule="evenodd" clip-rule="evenodd" d="M63.1243 22.8404L59.4438 24.9664C58.9219 25.2694 58.9396 25.7719 59.4816 26.0875L66.7242 30.2763C67.3297 30.5905 68.0483 30.598 68.6602 30.2965L72.3408 28.1705C72.8626 27.8675 72.8449 27.3651 72.3029 27.0494L65.0478 22.8631C64.446 22.5523 63.7332 22.5439 63.1243 22.8404ZM60.8143 25.5421L64.1167 23.6333L70.3761 27.2515L67.0737 29.1629L60.8143 25.5421ZM69.642 29.0468C69.7744 29.0481 69.9051 29.0169 70.0226 28.9559L70.01 28.9584C70.1058 28.9194 70.1712 28.8294 70.1789 28.7261C70.1737 28.6157 70.1062 28.5178 70.005 28.4736C69.7482 28.3436 69.445 28.3436 69.1882 28.4736C68.9663 28.6024 68.9739 28.8145 69.2033 28.9458C69.3382 29.0173 69.4894 29.0521 69.642 29.0468Z" fill="#80A5FF"/>
<defs>
<linearGradient id="paint0_linear" x1="50.6416" y1="123.391" x2="102.126" y2="123.391" gradientUnits="userSpaceOnUse">
<stop stop-color="#CFD8DB"/>
<stop offset="1" stop-color="#CFD8DB"/>
</linearGradient>
<linearGradient id="paint1_linear" x1="49.7326" y1="56.8903" x2="49.7326" y2="114.149" gradientUnits="userSpaceOnUse">
<stop stop-color="#004FFF"/>
<stop offset="0.22" stop-color="#0351FF" stop-opacity="0.99"/>
<stop offset="0.35" stop-color="#0B57FF" stop-opacity="0.96"/>
<stop offset="0.47" stop-color="#1A61FF" stop-opacity="0.9"/>
<stop offset="0.57" stop-color="#2E6FFF" stop-opacity="0.82"/>
<stop offset="0.66" stop-color="#4981FF" stop-opacity="0.71"/>
<stop offset="0.75" stop-color="#6A98FF" stop-opacity="0.58"/>
<stop offset="0.83" stop-color="#91B3FF" stop-opacity="0.43"/>
<stop offset="0.91" stop-color="#BED2FF" stop-opacity="0.25"/>
<stop offset="0.98" stop-color="#F0F5FF" stop-opacity="0.06"/>
<stop offset="1" stop-color="white" stop-opacity="0.01"/>
</linearGradient>
<linearGradient id="paint2_linear" x1="6.35965" y1="31.3818" x2="6.35965" y2="88.6186" gradientUnits="userSpaceOnUse">
<stop stop-color="#004FFF"/>
<stop offset="0.22" stop-color="#0351FF" stop-opacity="0.99"/>
<stop offset="0.35" stop-color="#0B57FF" stop-opacity="0.96"/>
<stop offset="0.47" stop-color="#1A61FF" stop-opacity="0.9"/>
<stop offset="0.57" stop-color="#2E6FFF" stop-opacity="0.82"/>
<stop offset="0.66" stop-color="#4981FF" stop-opacity="0.71"/>
<stop offset="0.75" stop-color="#6A98FF" stop-opacity="0.58"/>
<stop offset="0.83" stop-color="#91B3FF" stop-opacity="0.43"/>
<stop offset="0.91" stop-color="#BED2FF" stop-opacity="0.25"/>
<stop offset="0.98" stop-color="#F0F5FF" stop-opacity="0.06"/>
<stop offset="1" stop-color="white" stop-opacity="0.01"/>
</linearGradient>
<linearGradient id="paint3_linear" x1="94.3956" y1="30.3718" x2="94.3956" y2="87.6086" gradientUnits="userSpaceOnUse">
<stop stop-color="#004FFF"/>
<stop offset="0.22" stop-color="#0351FF" stop-opacity="0.99"/>
<stop offset="0.35" stop-color="#0B57FF" stop-opacity="0.96"/>
<stop offset="0.47" stop-color="#1A61FF" stop-opacity="0.9"/>
<stop offset="0.57" stop-color="#2E6FFF" stop-opacity="0.82"/>
<stop offset="0.66" stop-color="#4981FF" stop-opacity="0.71"/>
<stop offset="0.75" stop-color="#6A98FF" stop-opacity="0.58"/>
<stop offset="0.83" stop-color="#91B3FF" stop-opacity="0.43"/>
<stop offset="0.91" stop-color="#BED2FF" stop-opacity="0.25"/>
<stop offset="0.98" stop-color="#F0F5FF" stop-opacity="0.06"/>
<stop offset="1" stop-color="white" stop-opacity="0.01"/>
</linearGradient>
<linearGradient id="paint4_linear" x1="50.7471" y1="57.5177" x2="96.3276" y2="57.5177" gradientUnits="userSpaceOnUse">
<stop stop-color="#CFD8DB"/>
<stop offset="1" stop-color="#CFD8DB"/>
</linearGradient>
</defs>
</svg>
