<?xml version="1.0" encoding="UTF-8"?>
<svg width="69px" height="69px" viewBox="0 0 69 69" version="1.1" xmlns="http://www.w3.org/2000/svg" xmlns:xlink="http://www.w3.org/1999/xlink">
    <!-- Generator: Sketch 50.2 (55047) - http://www.bohemiancoding.com/sketch -->
    <title>Flexibility-01</title>
    <desc>Created with Sketch.</desc>
    <defs></defs>
    <g id="index" stroke="none" stroke-width="1" fill="none" fill-rule="evenodd">
        <g id="Desktop-main-final" transform="translate(-922.000000, -493.000000)">
            <g id="Main-page" transform="translate(128.000000, 24.000000)">
                <g id="icons" transform="translate(26.000000, 469.000000)">
                    <g id="Flexibility" transform="translate(765.000000, 0.000000)">
                        <g id="Flexibility-01" transform="translate(3.000000, 0.000000)">
                            <circle id="Oval" stroke="#004FFF" stroke-width="0.779999971" cx="34.5" cy="34.5" r="34.1079545"></circle>
                            <circle id="Oval" stroke="#A1BDFB" stroke-width="0.779999971" opacity="0.6" cx="34.5" cy="34.5" r="22.3465909"></circle>
                            <circle id="Oval" stroke="#A1BDFB" stroke-width="0.779999971" opacity="0.6" cx="34.5" cy="34.5" r="10.5852273"></circle>
                            <circle id="Oval" fill="#A1BDFB" fill-rule="nonzero" cx="1.56818182" cy="43.125" r="1.56818182"></circle>
                            <circle id="Oval" fill="#A1BDFB" fill-rule="nonzero" cx="34.5" cy="57.2386364" r="1.56818182"></circle>
                            <circle id="Oval" fill="#A1BDFB" fill-rule="nonzero" cx="21.9545455" cy="16.4659091" r="1.56818182"></circle>
                            <circle id="Oval" fill="#004FFF" fill-rule="nonzero" opacity="0.1" cx="51.75" cy="20.3863636" r="8.625"></circle>
                            <path d="M51.75,29.0113636 C56.513456,29.0113636 60.375,25.1498196 60.375,20.3863636 C60.375,15.6229077 56.513456,11.7613636 51.75,11.7613636 C46.986544,11.7613636 43.125,15.6229077 43.125,20.3863636 C43.125,25.1498196 46.986544,29.0113636 51.75,29.0113636 Z" id="Oval" stroke="#004FFF" stroke-width="0.584999979" stroke-linecap="round" stroke-linejoin="round" stroke-dasharray="0.7799999713897705"></path>
                            <path d="M51.75,32.1477273 C58.2456218,32.1477273 63.5113636,26.8819854 63.5113636,20.3863636 C63.5113636,13.8907419 58.2456218,8.625 51.75,8.625 C45.2543782,8.625 39.9886364,13.8907419 39.9886364,20.3863636 C39.9886364,26.8819854 45.2543782,32.1477273 51.75,32.1477273 Z" id="Oval" stroke="#A1BDFB" stroke-width="0.584999979" stroke-linecap="round" stroke-linejoin="round" stroke-dasharray="0.7799999713897705" transform="translate(51.750000, 20.386364) rotate(-29.619500) translate(-51.750000, -20.386364) "></path>
                            <circle id="Oval" fill="#A1BDFB" fill-rule="nonzero" cx="44.6931818" cy="34.5" r="1.56818182"></circle>
                            <circle id="Oval" fill="#004FFF" fill-rule="nonzero" cx="51.75" cy="20.3863636" r="1.56818182"></circle>
                        </g>
                    </g>
                </g>
            </g>
        </g>
    </g>
</svg>