<?xml version="1.0" encoding="UTF-8"?>
<svg width="24px" height="24px" viewBox="0 0 24 24" version="1.1" xmlns="http://www.w3.org/2000/svg" xmlns:xlink="http://www.w3.org/1999/xlink">
    <!-- Generator: Sketch 60.1 (88133) - https://sketch.com -->
    <title>github</title>
    <desc>Created with Sketch.</desc>
    <g id="Symbols" stroke="none" stroke-width="1" fill="none" fill-rule="evenodd" opacity="0.404227121">
        <g id="Footer/deskop" transform="translate(-272.000000, -183.000000)" fill="#FFFFFF" fill-rule="nonzero">
            <g id="Footer">
                <g id="github" transform="translate(272.000000, 183.000000)">
                    <path d="M11.7503995,0 C8.38266474,0 0,0 0,0 C0,0 0,8.70761517 0,12.108995 C0,14.976864 0,23.9863982 0,23.9863982 C0,23.9863982 8,23.9863982 8.13599964,23.9797802 C8.75039961,24.0939223 8.9663996,23.7018688 8.9663996,23.3792931 C8.9663996,23.0716056 8.9519996,21.3743612 8.9519996,20.3321936 C8.9519996,20.3321936 5.59199975,21.076599 4.88639978,18.8533081 C4.88639978,18.8533081 4.33919981,17.4091616 3.55199984,17.0369589 C3.55199984,17.0369589 2.45279989,16.2578145 3.62879984,16.2727026 C3.62879984,16.2727026 4.82399978,16.3719567 5.48159975,17.55308 C6.53279971,19.4686833 8.29439963,18.9178233 8.9807996,18.5902849 C9.09119959,17.7962524 9.40319958,17.2453924 9.74879956,16.917854 C7.06559968,16.6101664 4.35839981,16.2081875 4.35839981,11.4340674 C4.35839981,10.0693241 4.72319979,9.38447109 5.49119975,8.51103539 C5.36639976,8.1884597 4.95839978,6.85845534 5.61599975,5.14136015 C6.6191997,4.81878447 8.9279996,6.48128992 8.9279996,6.48128992 C9.88799956,6.20337856 10.9199995,6.05946018 11.9423995,6.05946018 C12.9647994,6.05946018 13.9967994,6.20337856 14.9567993,6.48128992 C14.9567993,6.48128992 17.2655992,4.81382177 18.2687992,5.14136015 C18.9263992,6.86341804 18.5183992,8.1884597 18.3935992,8.51103539 C19.1615991,9.38943379 19.6319991,10.0742868 19.6319991,11.4340674 C19.6319991,16.2230756 16.8047992,16.6052037 14.1215994,16.917854 C14.5631993,17.3099075 14.9375993,18.054313 14.9375993,19.2205481 C14.9375993,20.892979 14.9231993,22.9624261 14.9231993,23.3693677 C14.9231993,23.6919434 15.1439993,24.0839969 15.7535993,23.9698548 C15.6,23.9863982 24,23.9863982 24,23.9863982 C24,23.9863982 24,14.8717635 24,11.9931991 C24,8.5011418 24,0 24,0 C24,0 15.0304296,0 11.7503995,0 Z" id="Path"></path>
                </g>
            </g>
        </g>
    </g>
</svg>