<svg xmlns="http://www.w3.org/2000/svg" width="17" height="17" viewBox="0 0 17 17">
    <path fill="#004FFF" fill-rule="evenodd" d="M8.5 0C3.804 0 0 3.899 0 8.713c0 3.855 2.433 7.111 5.812 8.266.425.076.584-.185.584-.414 0-.207-.01-.893-.01-1.623-2.136.403-2.689-.533-2.859-1.023-.095-.25-.51-1.024-.87-1.231-.298-.163-.723-.566-.011-.577.669-.011 1.147.631 1.307.893.765 1.318 1.986.947 2.475.719.075-.567.298-.948.542-1.166-1.891-.218-3.867-.97-3.867-4.302 0-.947.329-1.731.87-2.341-.084-.218-.382-1.111.086-2.31 0 0 .712-.228 2.337.894a7.707 7.707 0 0 1 2.125-.294c.723 0 1.445.098 2.125.294 1.626-1.133 2.338-.893 2.338-.893.467 1.198.17 2.09.085 2.309.542.61.871 1.383.871 2.341 0 3.344-1.987 4.084-3.878 4.302.308.272.574.795.574 1.612 0 1.165-.011 2.102-.011 2.396 0 .229.16.501.584.414C14.567 15.824 17 12.557 17 8.713 17 3.899 13.196 0 8.5 0z"/>
</svg>
