<?xml version="1.0" encoding="UTF-8"?>
<svg width="440px" height="390px" viewBox="0 0 440 390" version="1.1" xmlns="http://www.w3.org/2000/svg" xmlns:xlink="http://www.w3.org/1999/xlink">
    <!-- Generator: Sketch 60.1 (88133) - https://sketch.com -->
    <title>illustration-contacts</title>
    <desc>Created with Sketch.</desc>
    <defs>
        <linearGradient x1="23.976217%" y1="24.6689779%" x2="76.023783%" y2="75.335199%" id="linearGradient-1">
            <stop stop-color="#CFD8DB" offset="0%"></stop>
            <stop stop-color="#CFD8DB" offset="100%"></stop>
        </linearGradient>
        <linearGradient x1="50%" y1="100%" x2="50%" y2="0%" id="linearGradient-2">
            <stop stop-color="#004FFF" offset="0%"></stop>
            <stop stop-color="#FFFFFF" stop-opacity="0" offset="100%"></stop>
        </linearGradient>
        <linearGradient x1="50.0034846%" y1="100%" x2="50.0034846%" y2="25.4750845%" id="linearGradient-3">
            <stop stop-color="#004FFF" offset="0%"></stop>
            <stop stop-color="#FFFFFF" stop-opacity="0" offset="100%"></stop>
        </linearGradient>
        <linearGradient x1="23.976217%" y1="24.6689779%" x2="76.023783%" y2="75.335199%" id="linearGradient-4">
            <stop stop-color="#CFD8DB" offset="0%"></stop>
            <stop stop-color="#CFD8DB" offset="100%"></stop>
        </linearGradient>
    </defs>
    <g id="Contacts" stroke="none" stroke-width="1" fill="none" fill-rule="evenodd">
        <g id="Desktop-Contacts(new)" transform="translate(-128.000000, -451.000000)">
            <g id="illustration-contacts" transform="translate(126.000000, 419.000000)">
                <g id="Group-10" transform="translate(2.000000, 32.000000)">
                    <g id="Group-11" transform="translate(0.000000, 128.535001)" fill-rule="nonzero">
                        <path d="M119.13482,131.727838 C61.2879474,99.4775742 57.8185511,98.3925719 -1.48503433e-14,66.1280315 L114.702489,5.19762016e-14 C172.421915,32.4215802 175.707221,33.6778986 233.412485,66.0994788 C195.31993,87.989875 157.227375,109.865995 119.13482,131.727838 Z" id="Path" fill="#F9F9F9"></path>
                        <polygon id="Path" fill="#EDEFF1" points="119.142048 131.463784 -1.48503433e-14 64.7084118 -1.48503433e-14 82.1328413 30.7591262 99.4998593 119.142048 149.060449 233.412485 83.0370745 233.412485 65.5265275"></polygon>
                        <polygon id="Path" fill="#CFD8DB" points="119.257762 131.577741 119.017257 131.449087 119.017257 148.917499 119.257762 149.060449 233.412485 83.3037414 233.412485 65.8639191"></polygon>
                        <path d="M119.03282,102.840154 C77.4418499,79.6330636 75.030166,78.7925366 33.5097132,55.6566769 L115.859551,8.08855147 C157.28128,31.4096121 159.580137,32.3071239 201.058279,55.6281845 L119.03282,102.840154 Z" id="Path" fill="#FCFCFC"></path>
                        <polygon id="Path" fill="#EDEFF1" points="119.025621 103.039831 33.5097132 55.4643529 33.5097132 67.875964 55.5796994 80.2592057 119.039724 115.550735 201.058279 68.5426448 201.058279 56.0459256"></polygon>
                        <polygon id="Path" fill="#CFD8DB" points="119.200228 102.917555 119.017257 102.817292 119.017257 115.450472 119.200228 115.550735 201.058279 68.0832094 201.058279 55.4643529"></polygon>
                    </g>
                    <g id="Group-5" transform="translate(57.380001, 67.925001)">
                        <polygon id="Shape" stroke="#FFFFFF" stroke-width="0.687552886" fill="#F7F7F7" fill-rule="nonzero" stroke-linecap="round" stroke-linejoin="round" points="62.3386513 73.4155252 0.0264218708 37.439321 64.7835894 0.0529459095 127.095819 36.0243372"></polygon>
                        <polygon id="Shape" fill="#EDEFF1" fill-rule="nonzero" points="0.0264218708 37.439321 0.0264218708 115.27787 62.3386513 151.249261 62.3386513 73.4155252"></polygon>
                        <polygon id="Shape" fill="url(#linearGradient-1)" fill-rule="nonzero" points="62.3386513 73.4155252 127.095819 36.0243372 127.095819 113.862886 62.3386513 151.249261"></polygon>
                        <polygon id="Shape" fill="#E0E8EA" fill-rule="nonzero" opacity="0.4" points="62.6948037 63.3903167 18.6089134 37.9350466 64.427437 11.4835125 108.513327 36.9387825"></polygon>
                        <polygon id="Shape" fill="#DBDEE2" fill-rule="nonzero" points="108.513327 36.9387825 64.427437 11.4835125 64.278238 18.0398559 102.481587 40.2602701"></polygon>
                        <polygon id="Shape" fill="#E7E9EB" fill-rule="nonzero" points="64.427437 11.4835125 18.6089134 37.9350466 24.4914551 41.1747154 64.278238 18.0398559"></polygon>
                        <line x1="40.3630864" y1="60.8250569" x2="40.3630864" y2="138.663605" id="Shape" stroke="#FFFFFF" stroke-width="0.687552886" opacity="0.4"></line>
                        <line x1="18.6089134" y1="48.2008986" x2="18.6089134" y2="126.039447" id="Shape" stroke="#FFFFFF" stroke-width="0.687552886" opacity="0.4"></line>
                        <polyline id="Shape" stroke="#FFFFFF" stroke-width="0.687552886" points="106.487109 48.037261 106.299407 48.1527699 106.299407 125.991318 106.487109 125.87581"></polyline>
                        <line x1="84.6366786" y1="60.8250569" x2="84.6366786" y2="138.663605" id="Shape" stroke="#FFFFFF" stroke-width="0.687552886" opacity="0.4"></line>
                        <line x1="0.0264218708" y1="63.3903167" x2="62.3386513" y2="99.3665209" id="Shape" stroke="#FFFFFF" stroke-width="0.687552886" opacity="0.4"></line>
                        <line x1="0.0793634422" y1="89.5338272" x2="62.3915929" y2="125.510031" id="Shape" stroke="#FFFFFF" stroke-width="0.687552886" opacity="0.4"></line>
                        <line x1="126.441269" y1="62.081216" x2="62.3049613" y2="99.1066259" id="Shape" stroke="#FFFFFF" stroke-width="0.687552886" opacity="0.4"></line>
                        <line x1="127.076567" y1="88.614569" x2="62.3386513" y2="125.991318" id="Shape" stroke="#FFFFFF" stroke-width="0.687552886" opacity="0.4"></line>
                    </g>
                    <g id="Group-7" transform="translate(280.060003, 73.150001)" fill-rule="nonzero">
                        <path d="M60.0863823,67.5971801 C30.5836749,51.1639069 29.4883299,50.4773806 7.87068196e-13,34.0874669 L57.3323161,-7.42517166e-15 C86.7631359,16.491086 88.4309303,18.7518883 117.86175,35.2429743 L60.0863823,67.5971801 Z" id="Path" fill="#82A9FF"></path>
                        <polygon id="Path" fill="#6291FB" opacity="0.5" points="60.1553387 67.3649036 7.87068196e-13 34.0874669 7.87068196e-13 44.4258309 15.5193655 53.2374558 60.1553387 78.3534853 117.86175 44.8896007 117.86175 35.2429743"></polygon>
                        <polygon id="Path" fill="#6291FB" points="60.2001974 67.5224399 60.0875005 67.4025006 60.0863823 78.3534853 60.2001974 78.3534853 117.86175 45.496266 117.86175 35.2429743"></polygon>
                    </g>
                    <g id="web-isom" transform="translate(311.410003, 91.960001)" fill="#FFFFFF" fill-rule="nonzero">
                        <path d="M26.1250002,0 L56.7226005,17.6605002 C54.5176505,21.0776502 51.7797505,25.1949502 49.6270505,28.6225503 C44.4020504,29.7407003 39.3442504,30.7125503 34.0983503,31.8725003 L30.6185003,32.7085003 L0,15.0271001 C2.09000002,11.8398501 4.09640004,8.70485008 6.11325006,5.55940005 L7.09555006,4.06505004 C7.77480007,3.97100004 8.93475008,3.68885003 9.58265009,3.55300003 C15.1141835,2.38260002 20.6283002,1.19826668 26.1250002,0 Z M32.0501503,14.2329001 L32.1964503,14.3165001 C29.1764003,17.4515002 26.2817502,20.5865002 23.2930502,23.7215002 L26.6475002,25.6652002 L49.2195004,18.4442502 L45.8964004,16.5319002 L29.1764003,22.1749002 L36.0943003,15.1107001 L30.7230003,11.9757001 L18.5278502,15.9153501 C21.6628502,12.8953001 25.2263002,9.36320009 28.3508503,6.34315006 L25.0800002,4.43080004 L12.3414501,17.3470002 L15.7795001,19.3325002 C21.3702502,17.5351002 26.7729002,15.9258001 32.0606003,14.2329001 L32.0501503,14.2329001 Z" id="Shape"></path>
                    </g>
                    <g id="Group" opacity="0.3" transform="translate(249.755002, 0.000000)" fill="url(#linearGradient-2)" fill-rule="nonzero">
                        <polygon id="Shape" points="30.3050003 107.112501 90.3925008 140.552501 148.390001 108.157501 178.217019 2.47653196 0.477982942 0.119899894"></polygon>
                    </g>
                    <g id="Group" opacity="0.3" transform="translate(339.625003, 9.405000)" fill="url(#linearGradient-3)" fill-rule="nonzero">
                        <polygon id="Shape" points="0.522500005 131.147501 0.522500005 40.2325004 87.1765833 0.765475921 58.5200005 98.7525009"></polygon>
                    </g>
                    <path d="M207.955002,256.547502 L227.810002,266.460576 L412.144691,159.904237 L392.397504,149.957501" id="Path-3" stroke="#7DA3FF" stroke-width="2.09000002" stroke-linecap="round" stroke-linejoin="round" stroke-dasharray="3.135000141859052,5.224999934434891"></path>
                    <path d="M343.805003,204.297502 L438.900004,260.205002 L386.650004,291.555003" id="Path-3-Copy" stroke="#7DA3FF" stroke-width="2.09000002" stroke-linecap="round" stroke-linejoin="round" stroke-dasharray="3.135000141859052,5.224999934434891"></path>
                    <g id="Group-9" transform="translate(365.750003, 135.850001)" fill-rule="nonzero">
                        <g id="Group" opacity="0.1" fill="#7FAFF4">
                            <ellipse id="Oval" transform="translate(17.775267, 10.463237) rotate(-1.718358) translate(-17.775267, -10.463237) " cx="17.7752671" cy="10.4632368" rx="17.4541509" ry="9.86355932"></ellipse>
                        </g>
                        <path d="M17.9413906,15.6656806 C23.1346964,15.4949061 27.2657298,13.0213262 27.1683121,10.1407854 C27.0708944,7.26024458 22.7819155,5.06354499 17.5886097,5.23431954 C12.395304,5.40509409 8.26427048,7.87867395 8.36168823,10.7592148 C8.45910597,13.6397556 12.7480848,15.8364552 17.9413906,15.6656806 Z" id="Oval" fill="#4B83FF"></path>
                        <path d="M17.8230713,11.4921343 C19.5541809,11.4402638 20.9315231,10.6977039 20.8994513,9.83358033 C20.8673794,8.96945675 19.4380385,8.31099548 17.706929,8.36286593 C15.9758194,8.41473638 14.5984772,9.15729626 14.6305491,10.0214198 C14.6626209,10.8855434 16.0919618,11.5440047 17.8230713,11.4921343 Z" id="Oval" fill="#FFFFFF"></path>
                    </g>
                    <g id="Group-9-Copy" transform="translate(181.830002, 242.440002)" fill-rule="nonzero">
                        <path d="M13.8397863,14.6169528 C21.341228,14.3778685 27.3082763,10.9148567 27.1675618,6.88209951 C27.0268473,2.84934235 20.8316556,-0.226037084 13.3302139,0.0130472909 C5.82877226,0.252131666 -0.138276081,3.71514346 0.00243843912,7.74790062 C0.143152959,11.7806578 6.33834462,14.8560372 13.8397863,14.6169528 Z" id="Oval" fill="#4B83FF"></path>
                        <path d="M13.6430713,8.35713423 C15.3741808,8.30526378 16.7515231,7.56270389 16.7194512,6.6985803 C16.6873794,5.83445672 15.2580385,5.17599545 13.5269289,5.2278659 C11.7958194,5.27973635 10.4184772,6.02229623 10.450549,6.88641982 C10.4826208,7.75054341 11.9119618,8.40900468 13.6430713,8.35713423 Z" id="Oval" fill="#FFFFFF"></path>
                    </g>
                </g>
                <g id="Group-11" transform="translate(241.305002, 302.655002)" fill-rule="nonzero">
                    <path d="M95.3078574,105.382272 C49.0303586,79.5820605 46.2548415,78.7140587 -1.18802748e-14,52.902426 L91.7619928,4.15809619e-14 C137.937534,25.9372646 140.565779,26.9423193 186.729991,52.8795838 C156.255946,70.391901 125.781902,87.8927971 95.3078574,105.382272 Z" id="Path" fill="#F9F9F9"></path>
                    <polygon id="Path" fill="#EDEFF1" points="95.31364 105.171029 -1.18802748e-14 51.7667302 -1.18802748e-14 65.706274 24.6073013 79.5998886 95.31364 119.248361 186.729991 66.4296606 186.729991 52.4212228"></polygon>
                    <polygon id="Path" fill="#CFD8DB" points="95.4062108 105.262195 95.2138073 105.159271 95.2138073 119.134001 95.4062108 119.248361 186.729991 66.6429941 186.729991 52.6911361"></polygon>
                    <path d="M95.2262572,82.2721247 C61.9534808,63.7064518 60.0241337,63.0340302 26.807771,44.5253422 L92.6876425,6.47084127 C125.825026,25.12769 127.664111,25.8456995 160.846626,44.5025482 L95.2262572,82.2721247 Z" id="Path" fill="#FCFCFC"></path>
                    <polygon id="Path" fill="#EDEFF1" points="95.2204986 82.4318663 26.807771 44.371483 26.807771 54.300772 44.4637602 64.2073655 95.2317803 92.4405896 160.846626 54.8341167 160.846626 44.8367411"></polygon>
                    <polygon id="Path" fill="#CFD8DB" points="95.3601835 82.3340456 95.2138073 82.253835 95.2138073 92.3603789 95.3601835 92.4405896 160.846626 54.4665683 160.846626 44.371483"></polygon>
                </g>
                <g id="Group-5" transform="translate(287.285003, 254.585002)">
                    <polygon id="Shape" stroke="#FFFFFF" stroke-width="0.550042317" fill="#F7F7F7" fill-rule="nonzero" stroke-linecap="round" stroke-linejoin="round" points="50.6309218 58.732421 0.781137499 29.9514573 52.5868723 0.0423567283 102.436657 28.8194702"></polygon>
                    <polygon id="Shape" fill="#EDEFF1" fill-rule="nonzero" points="0.781137499 29.9514573 0.781137499 92.222297 50.6309218 120.99941 50.6309218 58.732421"></polygon>
                    <polygon id="Shape" fill="url(#linearGradient-4)" fill-rule="nonzero" points="50.6309218 58.732421 102.436657 28.8194702 102.436657 91.0903099 50.6309218 120.99941"></polygon>
                    <polygon id="Shape" fill="#E0E8EA" fill-rule="nonzero" opacity="0.4" points="50.9158437 50.7122541 15.647131 30.3480378 52.3019504 9.1868101 87.5706631 29.5510265"></polygon>
                    <polygon id="Shape" fill="#DBDEE2" fill-rule="nonzero" points="87.5706631 29.5510265 52.3019504 9.1868101 52.1825912 14.431885 82.7452705 32.2082166"></polygon>
                    <polygon id="Shape" fill="#E7E9EB" fill-rule="nonzero" points="52.3019504 9.1868101 15.647131 30.3480378 20.3531644 32.9397728 52.1825912 14.431885"></polygon>
                    <line x1="33.0504696" y1="48.6600463" x2="33.0504696" y2="110.930886" id="Shape" stroke="#FFFFFF" stroke-width="0.550042317" opacity="0.4"></line>
                    <line x1="15.647131" y1="38.5607195" x2="15.647131" y2="100.831559" id="Shape" stroke="#FFFFFF" stroke-width="0.550042317" opacity="0.4"></line>
                    <polyline id="Shape" stroke="#FFFFFF" stroke-width="0.550042317" opacity="0.400437128" points="85.9496885 38.4298094 85.7995269 38.5222165 85.7995269 100.793056 85.9496885 100.700649"></polyline>
                    <line x1="68.4693439" y1="48.6600463" x2="68.4693439" y2="110.930886" id="Shape" stroke="#FFFFFF" stroke-width="0.550042317" opacity="0.4"></line>
                    <line x1="0.781137499" y1="50.7122541" x2="50.6309218" y2="79.4932179" id="Shape" stroke="#FFFFFF" stroke-width="0.550042317" opacity="0.4"></line>
                    <line x1="0.823490756" y1="71.6270628" x2="50.6732751" y2="100.408027" id="Shape" stroke="#FFFFFF" stroke-width="0.550042317" opacity="0.4"></line>
                    <line x1="101.913016" y1="49.6649736" x2="50.6039698" y2="79.2853019" id="Shape" stroke="#FFFFFF" stroke-width="0.550042317" opacity="0.4"></line>
                    <line x1="102.421255" y1="70.8916563" x2="50.6309218" y2="100.793056" id="Shape" stroke="#FFFFFF" stroke-width="0.550042317" opacity="0.4"></line>
                </g>
            </g>
        </g>
    </g>
</svg>