<?xml version="1.0" encoding="UTF-8"?>
<svg width="699px" height="358px" viewBox="0 0 699 358" version="1.1" xmlns="http://www.w3.org/2000/svg" xmlns:xlink="http://www.w3.org/1999/xlink">
    <!-- Generator: Sketch 60.1 (88133) - https://sketch.com -->
    <title>illustration-404</title>
    <desc>Created with Sketch.</desc>
    <defs>
        <linearGradient x1="50%" y1="100%" x2="50%" y2="0%" id="linearGradient-1">
            <stop stop-color="#B1C1C6" offset="0%"></stop>
            <stop stop-color="#E3EBED" offset="100%"></stop>
        </linearGradient>
        <linearGradient x1="0%" y1="50%" x2="100%" y2="50%" id="linearGradient-2">
            <stop stop-color="#CFD8DB" offset="0%"></stop>
            <stop stop-color="#CFD8DB" offset="100%"></stop>
        </linearGradient>
        <linearGradient x1="0%" y1="49.9793984%" x2="100%" y2="49.9793984%" id="linearGradient-3">
            <stop stop-color="#CFD8DB" offset="0%"></stop>
            <stop stop-color="#CFD8DB" offset="100%"></stop>
        </linearGradient>
        <linearGradient x1="0%" y1="49.9588477%" x2="100%" y2="49.9588477%" id="linearGradient-4">
            <stop stop-color="#CFD8DB" offset="0%"></stop>
            <stop stop-color="#CFD8DB" offset="100%"></stop>
        </linearGradient>
        <linearGradient x1="-1.5%" y1="50.0206016%" x2="98.5%" y2="50.0206016%" id="linearGradient-5">
            <stop stop-color="#CFD8DB" offset="0%"></stop>
            <stop stop-color="#CFD8DB" offset="100%"></stop>
        </linearGradient>
        <linearGradient x1="0%" y1="49.9177632%" x2="100%" y2="49.9177632%" id="linearGradient-6">
            <stop stop-color="#CFD8DB" offset="0%"></stop>
            <stop stop-color="#CFD8DB" offset="100%"></stop>
        </linearGradient>
        <linearGradient x1="3.2394671e-07%" y1="50.0213915%" x2="100%" y2="50.0213915%" id="linearGradient-7">
            <stop stop-color="#CFD8DB" offset="0%"></stop>
            <stop stop-color="#CFD8DB" offset="100%"></stop>
        </linearGradient>
        <linearGradient x1="0.000564198738%" y1="49.8792555%" x2="99.9996513%" y2="49.8792555%" id="linearGradient-8">
            <stop stop-color="#CFD8DB" offset="0%"></stop>
            <stop stop-color="#CFD8DB" offset="100%"></stop>
        </linearGradient>
        <linearGradient x1="0.123039268%" y1="33.4429104%" x2="99.8769611%" y2="66.5570896%" id="linearGradient-9">
            <stop stop-color="#CFD8DB" offset="0%"></stop>
            <stop stop-color="#CFD8DB" offset="100%"></stop>
        </linearGradient>
        <linearGradient x1="0%" y1="50.0019796%" x2="100%" y2="50.0019796%" id="linearGradient-10">
            <stop stop-color="#CFD8DB" offset="0%"></stop>
            <stop stop-color="#CFD8DB" offset="100%"></stop>
        </linearGradient>
        <linearGradient x1="78.3739246%" y1="37.9728237%" x2="29.5077828%" y2="14.7729176%" id="linearGradient-11">
            <stop stop-color="#F7F7F7" offset="0%"></stop>
            <stop stop-color="#EAEDF0" offset="100%"></stop>
        </linearGradient>
        <linearGradient x1="0.123039268%" y1="33.4429104%" x2="99.8769611%" y2="66.5570896%" id="linearGradient-12">
            <stop stop-color="#CFD8DB" offset="0%"></stop>
            <stop stop-color="#CFD8DB" offset="100%"></stop>
        </linearGradient>
    </defs>
    <g id="404-error" stroke="none" stroke-width="1" fill="none" fill-rule="evenodd">
        <g id="Desktop-404" transform="translate(-618.000000, -211.000000)">
            <g id="illustration-404" transform="translate(618.000000, 211.000000)">
                <path d="M299.680236,235.816615 C241.677476,203.479442 238.198731,202.391516 180.224369,170.040029 L295.235961,103.733794 C353.11093,136.242744 356.405089,137.502448 414.265859,170.011399 C376.070652,191.960786 337.875444,213.895858 299.680236,235.816615 Z" id="Path" fill="#F9F9F9" fill-rule="nonzero"></path>
                <polygon id="Path" fill="#EDEFF1" fill-rule="nonzero" points="299.687484 235.551849 180.224369 168.616583 180.224369 181.896704 211.066386 199.310523 299.687484 249.004669 414.265859 182.803374 414.265859 169.436904"></polygon>
                <polygon id="Path" fill="#CFD8DB" fill-rule="nonzero" points="299.803509 235.666114 299.562357 235.537113 299.562357 248.861335 299.803509 249.004669 414.265859 183.07076 414.265859 169.775204"></polygon>
                <polygon id="Shape" fill="#F7F7F7" fill-rule="nonzero" points="298.236175 127.28777 239.949887 93.6461813 300.523418 58.6777015 340.102994 81.5250756 320.107818 93.7795408 337.956094 104.360665"></polygon>
                <polygon id="Shape" fill="url(#linearGradient-1)" fill-rule="nonzero" points="318.759629 93.8575318 340.016324 81.7296557 340.016324 109.496782 337.920692 111.068506 337.920692 104.257702"></polygon>
                <polygon id="Shape" fill="#E6E9ED" fill-rule="nonzero" points="239.949887 93.6461813 239.949887 166.441716 298.236175 200.083305 298.236175 127.28777"></polygon>
                <path d="M248.856323,128.88138 C248.566977,128.88138 248.332415,128.591559 248.332415,128.234047 L248.332415,113.811471 C248.332415,113.453959 248.566977,113.164139 248.856323,113.164139 C249.14567,113.164139 249.380231,113.453959 249.380231,113.811471 L249.380231,128.234047 C249.380231,128.591559 249.14567,128.88138 248.856323,128.88138 Z" id="Shape" fill="url(#linearGradient-2)" fill-rule="nonzero"></path>
                <path d="M254.095403,133.072645 C253.806057,133.072645 253.571496,132.782704 253.571496,132.425045 L253.571496,118.003003 C253.571496,117.645343 253.806057,117.355403 254.095403,117.355403 C254.38475,117.355403 254.619312,117.645343 254.619312,118.003003 L254.619312,132.425045 C254.619312,132.782704 254.38475,133.072645 254.095403,133.072645 Z" id="Shape" fill="url(#linearGradient-3)" fill-rule="nonzero"></path>
                <path d="M259.334484,137.263909 C259.045138,137.263909 258.810576,136.973849 258.810576,136.616042 L258.810576,122.194534 C258.810576,121.836727 259.045138,121.546667 259.334484,121.546667 C259.623831,121.546667 259.858392,121.836727 259.858392,122.194534 L259.858392,136.616042 C259.858392,136.973849 259.623831,137.263909 259.334484,137.263909 Z" id="Shape" fill="url(#linearGradient-4)" fill-rule="nonzero"></path>
                <path d="M277.147359,174.985288 C276.858012,174.985288 276.62345,174.695348 276.62345,174.337689 L276.62345,159.915647 C276.62345,159.557987 276.858012,159.268047 277.147359,159.268047 C277.436705,159.268047 277.671266,159.557987 277.671266,159.915647 L277.671266,174.337689 C277.671266,174.695348 277.436705,174.985288 277.147359,174.985288 Z" id="Shape" fill="url(#linearGradient-5)" fill-rule="nonzero"></path>
                <path d="M282.386439,179.176553 C282.097092,179.176553 281.862531,178.887209 281.862531,178.530285 L281.862531,164.105579 C281.862531,163.748656 282.097092,163.459311 282.386439,163.459311 C282.675786,163.459311 282.910347,163.748656 282.910347,164.105579 L282.910347,178.530285 C282.910347,178.887209 282.675786,179.176553 282.386439,179.176553 Z" id="Shape" fill="url(#linearGradient-6)" fill-rule="nonzero"></path>
                <path d="M287.625519,183.367817 C287.336173,183.367817 287.101611,183.077997 287.101611,182.720484 L287.101611,168.297909 C287.101611,167.940397 287.336173,167.650576 287.625519,167.650576 C287.914865,167.650576 288.149427,167.940397 288.149427,168.297909 L288.149427,182.720484 C288.149427,183.077997 287.914865,183.367817 287.625519,183.367817 Z" id="Shape" fill="url(#linearGradient-2)" fill-rule="nonzero"></path>
                <path d="M276.62345,149.74779 L276.62345,149.92851 C276.623407,150.270408 276.821511,150.586738 277.144063,150.759823 C277.469305,150.928641 277.868042,150.927327 278.191944,150.756368 C278.515845,150.585409 278.71643,150.270395 278.719082,149.92851 L278.719082,149.74779 C278.716421,149.40499 278.515987,149.088938 278.191879,148.916477 C277.867581,148.746757 277.468946,148.747756 277.145672,148.919101 C276.822397,149.090446 276.623415,149.4062 276.62345,149.74779 Z" id="Shape" fill="url(#linearGradient-7)" fill-rule="nonzero" opacity="0.6"></path>
                <path d="M276.62345,144.505851 L276.62345,144.686331 C276.62207,145.0281 276.820528,145.34458 277.14407,145.516538 C277.46877,145.689118 277.869837,145.689777 278.195217,145.518265 C278.520597,145.346753 278.720476,145.029328 278.719082,144.686331 L278.719082,144.505851 C278.718117,144.164654 278.516911,143.8501 278.191876,143.681661 C277.869156,143.508673 277.469566,143.507099 277.145223,143.677539 C276.820879,143.847979 276.621682,144.164211 276.62345,144.505851 Z" id="Shape" fill="url(#linearGradient-8)" fill-rule="nonzero" opacity="0.6"></path>
                <path d="M276.62345,139.266771 L276.62345,139.447251 C276.62207,139.789019 276.820528,140.105499 277.14407,140.277457 C277.46877,140.450038 277.869837,140.450697 278.195217,140.279185 C278.520597,140.107673 278.720476,139.790247 278.719082,139.447251 L278.719082,139.266771 C278.718117,138.925573 278.516911,138.611019 278.191876,138.44258 C277.869156,138.269592 277.469566,138.268018 277.145223,138.438459 C276.820879,138.608899 276.621682,138.925131 276.62345,139.266771 Z" id="Shape" fill="url(#linearGradient-8)" fill-rule="nonzero" opacity="0.6"></path>
                <g id="Group-8-Copy-3" transform="translate(375.232027, 133.825542) rotate(30.000000) translate(-375.232027, -133.825542) translate(368.732027, 125.825542)" fill-rule="nonzero">
                    <polygon id="Shape" fill="#EDEFF1" points="0 3.77213773 0 11.5116873 6.28689622 15.0885509 6.28689622 7.34983822"></polygon>
                    <polygon id="Shape" fill="url(#linearGradient-9)" points="6.28689622 7.44424731 12.5737924 3.77213773 12.5737924 11.4172681 6.28689622 15.0885509"></polygon>
                    <polygon id="Shape" stroke="#FFFFFF" stroke-width="0.594000021" fill="#F7F7F7" stroke-linecap="round" stroke-linejoin="round" points="6.16612251 7.54427546 0 3.8439798 6.40766993 0 12.5737924 3.69943012"></polygon>
                </g>
                <polygon id="Shape" fill="url(#linearGradient-10)" fill-rule="nonzero" points="298.236175 127.28777 337.920692 104.257702 338.4446 132.548736 358.809708 119.451035 358.809708 165.119091 298.236175 200.083305"></polygon>
                <polygon id="Path-4" fill="url(#linearGradient-11)" points="338.4446 133.072645 358.877014 119.451035 340.016324 108.972874 337.920692 110.02069"></polygon>
                <g id="Group-8" transform="translate(380.304741, 162.835019) rotate(10.000000) translate(-380.304741, -162.835019) translate(369.804741, 149.835019)" fill-rule="nonzero">
                    <polygon id="Shape" fill="#EDEFF1" points="0 6.28689659 0 19.1861466 10.478161 25.1475864 10.478161 12.2497311"></polygon>
                    <polygon id="Shape" fill="url(#linearGradient-12)" points="10.478161 12.4070796 20.956322 6.28689659 20.956322 19.0287814 10.478161 25.1475864"></polygon>
                    <polygon id="Shape" stroke="#FFFFFF" stroke-width="0.594000021" fill="#F7F7F7" stroke-linecap="round" stroke-linejoin="round" points="10.2768715 12.5737932 0 6.40663338 10.6794505 0 20.956322 6.16571724"></polygon>
                </g>
                <g id="Group-8-Copy" transform="translate(426.693169, 170.104394) rotate(-30.000000) translate(-426.693169, -170.104394) translate(416.193169, 157.104394)" fill-rule="nonzero">
                    <polygon id="Shape" fill="#EDEFF1" points="0 6.28689659 0 19.1861466 10.478161 25.1475864 10.478161 12.2497311"></polygon>
                    <polygon id="Shape" fill="url(#linearGradient-12)" points="10.478161 12.4070796 20.956322 6.28689659 20.956322 19.0287814 10.478161 25.1475864"></polygon>
                    <polygon id="Shape" stroke="#FFFFFF" stroke-width="0.594000021" fill="#F7F7F7" stroke-linecap="round" stroke-linejoin="round" points="10.2768715 12.5737932 0 6.40663338 10.6794505 0 20.956322 6.16571724"></polygon>
                </g>
                <g id="Group-8-Copy-2" transform="translate(442.178394, 178.128737)" fill-rule="nonzero">
                    <polygon id="Shape" fill="#EDEFF1" points="0 3.77213773 0 11.5116873 6.28689622 15.0885509 6.28689622 7.34983822"></polygon>
                    <polygon id="Shape" fill="url(#linearGradient-9)" points="6.28689622 7.44424731 12.5737924 3.77213773 12.5737924 11.4172681 6.28689622 15.0885509"></polygon>
                    <polygon id="Shape" stroke="#FFFFFF" stroke-width="0.594000021" fill="#F7F7F7" stroke-linecap="round" stroke-linejoin="round" points="6.16612251 7.54427546 0 3.8439798 6.40766993 0 12.5737924 3.69943012"></polygon>
                </g>
                <g id="Group-12" transform="translate(0.000000, 200.132875)">
                    <g id="Asset-1" fill="#F9F9F9" fill-rule="nonzero">
                        <polygon id="Path" points="101.173124 23.009179 193.548298 76.1275123 132.385056 111.298686 40.0098817 58.1803526 0 81.1895317 92.3751739 134.307865 94.9294174 135.780452 132.134251 157.172415 233.307375 98.9920622 318.343224 147.896429 358.353106 124.88725 273.317257 75.9828831 233.558179 53.1183333 141.183006 0"></polygon>
                    </g>
                    <polygon id="Path" fill="#CFD8DB" fill-rule="nonzero" points="101.114254 23.0519542 113.164139 29.8627588 140.931265 45.5800003 140.898905 0"></polygon>
                    <polygon id="Path-Copy-2" fill="#CFD8DB" fill-rule="nonzero" points="1.41343476e-13 81.4707126 12.0498851 88.3598024 39.8170117 104.257702 39.7846517 58.1537935"></polygon>
                    <polygon id="Path-6" fill="#EDEFF1" points="132.548736 111.068506 193.32207 75.9666671 193.32207 121.546667 132.548736 157.172415"></polygon>
                </g>
                <g id="Group-12-Copy" transform="translate(354.161841, 0.000000)">
                    <g id="Asset-1" fill="#F9F9F9" fill-rule="nonzero">
                        <polygon id="Path" points="97.1261967 22.0888114 185.806362 73.0824101 127.089651 106.846736 38.4094856 55.8531373 0 77.9419486 88.680165 128.935547 91.1322387 130.349231 126.848878 150.885515 223.975075 95.0323775 305.609488 141.980568 344.018974 119.891757 262.384561 72.9435662 224.215847 50.9935988 135.535682 0"></polygon>
                    </g>
                    <polygon id="Path" fill="#CFD8DB" fill-rule="nonzero" points="97.0696812 22.1298755 108.637571 28.6682478 135.294012 43.7567993 135.262946 0"></polygon>
                    <polygon id="Path-Copy-2" fill="#CFD8DB" fill-rule="nonzero" points="1.35689734e-13 78.2118824 11.5678895 84.8254084 38.2243304 100.087392 38.1932647 55.8276405"></polygon>
                    <polygon id="Path-6" fill="#EDEFF1" points="127.246784 106.625764 185.589183 72.9279988 185.589183 116.684798 127.246784 150.885515"></polygon>
                </g>
            </g>
        </g>
    </g>
</svg>