<?xml version="1.0" encoding="UTF-8"?>
<svg width="228" height="153" viewBox="0 0 228 153" fill="none" version="1.1" xmlns="http://www.w3.org/2000/svg" xmlns:xlink="http://www.w3.org/1999/xlink">
<path d="M61.8886 135.764C31.8381 119.011 30.0358 118.447 0 101.686L59.586 67.334C89.5703 84.1765 91.277 84.8291 121.254 101.672C101.465 113.043 81.677 124.408 61.8886 135.764Z" fill="#F9F9F9"/>
<path d="M61.8923 135.627L0 100.949V110.001L15.9789 119.023L61.8923 144.768L121.254 110.47V101.374L61.8923 135.627Z" fill="#EDEFF1"/>
<path d="M61.9521 135.686L61.8271 135.619V144.694L61.9521 144.768L121.254 110.609V101.549L61.9521 135.686Z" fill="#CFD8DB"/>
<path d="M61.8341 120.757C40.2283 108.702 38.9754 108.265 17.4062 96.2463L60.1856 71.5354C81.7035 83.6503 82.8977 84.1165 104.445 96.2314L61.8341 120.757Z" fill="#FCFCFC"/>
<path d="M61.8303 120.861L17.4062 96.1462V102.594L28.8712 109.027L61.8377 127.36L104.445 102.94V96.4484L61.8303 120.861Z" fill="#EDEFF1"/>
<path d="M61.9222 120.797L61.8271 120.745V127.308L61.9222 127.36L104.446 102.702V96.1462L61.9222 120.797Z" fill="#CFD8DB"/>
<path d="M62.1934 73.9864L29.8232 55.2973L63.4635 35.8757L95.8337 54.5623L62.1934 73.9864Z" fill="#F7F7F7" stroke="white" stroke-width="0.55" stroke-linecap="round" stroke-linejoin="round"/>
<path d="M29.8223 55.2969V95.7327L62.1924 114.419V73.9859L29.8223 55.2969Z" fill="#EDEFF1"/>
<path d="M62.1924 73.9859L95.8327 54.5618V94.9976L62.1924 114.419V73.9859Z" fill="url(#paint0_linear_28_19)"/>
<path opacity="0.4" d="M62.3775 68.7784L39.4756 55.5549L63.2775 41.8137L86.1794 55.0373L62.3775 68.7784Z" fill="#E0E8EA"/>
<path d="M86.1786 55.0373L63.2767 41.8137L63.1992 45.2196L83.0452 56.7628L86.1786 55.0373Z" fill="#DBDEE2"/>
<path d="M63.2775 41.8137L39.4756 55.5549L42.5315 57.2378L63.2 45.2196L63.2775 41.8137Z" fill="#E7E9EB"/>
<path opacity="0.4" d="M50.7764 67.4453V107.881" stroke="white" stroke-width="0.55"/>
<path opacity="0.4" d="M39.4746 60.8875V101.323" stroke="white" stroke-width="0.55"/>
<path d="M85.1269 60.8022L85.0294 60.8623V101.298L85.1269 101.238" stroke="white" stroke-width="0.55"/>
<path opacity="0.4" d="M73.7764 67.4453V107.881" stroke="white" stroke-width="0.55"/>
<path opacity="0.4" d="M29.8223 68.7783L62.1924 87.4674" stroke="white" stroke-width="0.55"/>
<path opacity="0.4" d="M29.8506 82.3594L62.2208 101.048" stroke="white" stroke-width="0.55"/>
<path opacity="0.4" d="M95.4925 68.0981L62.1748 87.3322" stroke="white" stroke-width="0.55"/>
<path opacity="0.4" d="M95.8226 81.8813L62.1924 101.298" stroke="white" stroke-width="0.55"/>
<path d="M176.7 73.6779C161.374 65.1411 160.805 64.7844 145.486 56.2701L175.27 38.5623C190.558 47.1291 191.425 48.3035 206.714 56.8704L176.7 73.6779Z" fill="#82A9FF"/>
<path opacity="0.5" d="M176.735 73.5571L145.485 56.27V61.6406L153.547 66.2181L176.735 79.2655L206.713 61.8815V56.8703L176.735 73.5571Z" fill="#6291FB"/>
<path d="M176.76 73.6388L176.702 73.5765L176.701 79.2653H176.76L206.715 62.1965V56.8701L176.76 73.6388Z" fill="#6291FB"/>
<path fill-rule="evenodd" clip-rule="evenodd" d="M191.238 57.5078L175.343 48.3335C172.488 48.956 169.623 49.5712 166.75 50.1792C166.654 50.1992 166.538 50.2252 166.412 50.2534C166.092 50.3249 165.711 50.4102 165.458 50.4452L164.947 51.2215C164.874 51.3353 164.801 51.4491 164.728 51.5629C163.754 53.0825 162.782 54.5994 161.771 56.1398L177.677 65.325L179.485 64.8907C181.043 64.5462 182.569 64.2337 184.098 63.9206C185.243 63.6861 186.389 63.4512 187.552 63.2024C188.268 62.062 189.109 60.7746 189.922 59.53C190.379 58.8313 190.826 58.146 191.238 57.5078ZM178.424 55.7285L178.498 55.7708C177.602 56.7014 176.727 57.632 175.852 58.5627C175.195 59.2606 174.539 59.9586 173.873 60.6565L175.616 61.6663L187.342 57.9151L185.615 56.9217L176.93 59.8531L180.523 56.1834L177.733 54.5548L171.398 56.6014C172.26 55.7711 173.184 54.8663 174.104 53.9658C174.922 53.1649 175.737 52.3673 176.501 51.6288L174.802 50.6353L168.184 57.3451L169.97 58.3765C171.485 57.8895 172.973 57.4291 174.44 56.9753C175.785 56.5593 177.111 56.1488 178.424 55.7285Z" fill="white"/>
<g opacity="0.3">
<path d="M145.487 56.2049L176.701 73.5764L206.83 56.7478L222.325 1.84825L129.992 0.624023L145.487 56.2049Z" fill="url(#paint1_linear_28_19)"/>
</g>
<g opacity="0.3">
<path d="M176.702 73.5767V26.3479L221.718 5.84546L206.831 56.7481L176.702 73.5767Z" fill="url(#paint2_linear_28_19)"/>
</g>
<path d="M108.028 133.834L118.343 138.984L214.101 83.6293L203.843 78.4622" stroke="#7DA3FF" stroke-width="1.6093" stroke-linecap="round" stroke-linejoin="round" stroke-dasharray="2.41 4.02"/>
<g opacity="0.1">
<path d="M199.389 81.6913C204.395 81.5426 208.383 79.1291 208.297 76.3005C208.212 73.4719 204.085 71.2994 199.079 71.4481C194.074 71.5968 190.085 74.0104 190.171 76.839C190.257 79.6675 194.384 81.84 199.389 81.6913Z" fill="#7FAFF4"/>
</g>
<path d="M199.322 79.2724C202.02 79.1837 204.166 77.8987 204.115 76.4023C204.065 74.9059 201.837 73.7648 199.139 73.8535C196.441 73.9422 194.295 75.2272 194.346 76.7236C194.396 78.22 196.624 79.3611 199.322 79.2724Z" fill="#4B83FF"/>
<path d="M199.258 77.1041C200.158 77.0772 200.873 76.6914 200.856 76.2426C200.84 75.7937 200.097 75.4516 199.198 75.4785C198.299 75.5055 197.583 75.8912 197.6 76.3401C197.617 76.789 198.359 77.1311 199.258 77.1041Z" fill="white"/>
<path d="M101.647 134.099C105.543 133.974 108.643 132.175 108.57 130.081C108.497 127.986 105.279 126.388 101.382 126.512C97.485 126.636 94.3852 128.435 94.4583 130.53C94.5314 132.625 97.7497 134.223 101.647 134.099Z" fill="#4B83FF"/>
<path d="M101.544 130.848C102.444 130.821 103.159 130.435 103.143 129.986C103.126 129.537 102.383 129.195 101.484 129.222C100.585 129.249 99.8694 129.635 99.886 130.084C99.9027 130.532 100.645 130.874 101.544 130.848Z" fill="white"/>
<defs>
<linearGradient id="paint0_linear_28_19" x1="42.7733" y1="118.646" x2="101.689" y2="128.827" gradientUnits="userSpaceOnUse">
<stop stop-color="#CFD8DB"/>
<stop offset="1" stop-color="#CFD8DB"/>
</linearGradient>
<linearGradient id="paint1_linear_28_19" x1="222.325" y1="73.5764" x2="222.325" y2="0.624023" gradientUnits="userSpaceOnUse">
<stop stop-color="#004FFF"/>
<stop offset="1" stop-color="white" stop-opacity="0.01"/>
</linearGradient>
<linearGradient id="paint2_linear_28_19" x1="215.985" y1="73.5767" x2="215.985" y2="23.1001" gradientUnits="userSpaceOnUse">
<stop stop-color="#004FFF"/>
<stop offset="1" stop-color="white" stop-opacity="0.01"/>
</linearGradient>
</defs>
</svg>
