<?xml version="1.0" encoding="UTF-8"?>
<svg width="69px" height="69px" viewBox="0 0 69 69" version="1.1" xmlns="http://www.w3.org/2000/svg" xmlns:xlink="http://www.w3.org/1999/xlink">
    <!-- Generator: Sketch 50.2 (55047) - http://www.bohemiancoding.com/sketch -->
    <title>Individual team-04</title>
    <desc>Created with Sketch.</desc>
    <defs></defs>
    <g id="index" stroke="none" stroke-width="1" fill="none" fill-rule="evenodd">
        <g id="Desktop-main-final" transform="translate(-180.000000, -493.000000)">
            <g id="Main-page" transform="translate(128.000000, 24.000000)">
                <g id="icons" transform="translate(26.000000, 469.000000)">
                    <g id="Individual">
                        <g id="Individual-team-04" transform="translate(26.000000, 0.000000)">
                            <path d="M40.820775,23.34045 C40.940325,23.13345 41.20545,23.0619 41.408625,23.1879 C41.6118,23.313825 41.66565,23.58315 41.53335,23.782275 L40.832775,24.8367 C40.72035,25.005975 40.492275,25.0515 40.31955,24.9444 C40.146825,24.8373 40.086225,24.612825 40.18785,24.4368 L40.820775,23.34045 Z" id="Shape" fill="#004FFF" fill-rule="nonzero"></path>
                            <path d="M34.148025,21.552525 C34.148025,21.313425 34.3419,21.11895 34.58085,21.12645 C34.8198,21.13395 35.001,21.340275 34.986,21.57885 L34.9065,22.8423 C34.89375,23.0451 34.719,23.19855 34.5159,23.192175 C34.3128,23.1858 34.148025,23.021625 34.148025,22.81845 L34.148025,21.552525 Z" id="Shape" fill="#004FFF" fill-rule="nonzero"></path>
                            <path d="M27.475275,23.34045 C27.355725,23.13345 27.426375,22.868025 27.63705,22.755075 C27.847725,22.642125 28.1079,22.730175 28.214175,22.9443 L28.77705,24.078225 C28.867425,24.26025 28.7928,24.480525 28.6137,24.576525 C28.4346,24.672525 28.2099,24.612825 28.108275,24.4368 L27.475275,23.34045 Z" id="Shape" fill="#004FFF" fill-rule="nonzero"></path>
                            <path d="M22.59045,28.225275 C22.38345,28.105725 22.3119,27.8406 22.4379,27.637425 C22.5639,27.43425 22.83315,27.3804 23.032275,27.5127 L24.0867,28.213275 C24.255975,28.3257 24.3015,28.553775 24.1944,28.7265 C24.087375,28.899225 23.862825,28.959825 23.6868,28.8582 L22.59045,28.225275 Z" id="Shape" fill="#004FFF" fill-rule="nonzero"></path>
                            <path d="M20.802525,34.898025 C20.563425,34.898025 20.36895,34.70415 20.37645,34.4652 C20.38395,34.22625 20.590275,34.04505 20.82885,34.06005 L22.0923,34.13955 C22.2951,34.1523 22.44855,34.32705 22.442175,34.53015 C22.4358,34.73325 22.2717,34.898025 22.06845,34.898025 L20.802525,34.898025 Z" id="Shape" fill="#004FFF" fill-rule="nonzero"></path>
                            <path d="M22.59045,41.570775 C22.38345,41.690325 22.1181,41.619675 22.005075,41.409 C21.892125,41.198325 21.980175,40.93815 22.1943,40.831875 L23.328225,40.269 C23.51025,40.178625 23.730525,40.25325 23.826525,40.43235 C23.9226,40.61145 23.862825,40.836225 23.6868,40.937775 L22.59045,41.570775 Z" id="Shape" fill="#004FFF" fill-rule="nonzero"></path>
                            <path d="M27.475275,46.4556 C27.355725,46.6626 27.0906,46.73415 26.887425,46.60815 C26.68425,46.48215 26.6304,46.2129 26.7627,46.013775 L27.463275,44.95935 C27.575775,44.790075 27.80385,44.74455 27.9765,44.85165 C28.149225,44.95875 28.209825,45.183225 28.108275,45.35925 L27.475275,46.4556 Z" id="Shape" fill="#004FFF" fill-rule="nonzero"></path>
                            <path d="M34.148025,48.243525 C34.148025,48.482625 33.954225,48.6771 33.715275,48.6696 C33.476325,48.6621 33.29505,48.455775 33.31005,48.2172 L33.38955,46.95375 C33.4023,46.75095 33.57705,46.5975 33.78015,46.603875 C33.98325,46.61025 34.148025,46.77435 34.148025,46.9776 L34.148025,48.243525 Z" id="Shape" fill="#004FFF" fill-rule="nonzero"></path>
                            <path d="M40.820775,46.4556 C40.940325,46.6626 40.869675,46.92795 40.659,47.040975 C40.448325,47.153925 40.188225,47.065875 40.081875,46.85175 L39.519,45.717825 C39.4287,45.5358 39.50325,45.315525 39.68235,45.219525 C39.86145,45.123525 40.086225,45.183225 40.18785,45.35925 L40.820775,46.4556 Z" id="Shape" fill="#004FFF" fill-rule="nonzero"></path>
                            <path d="M45.7056,41.570775 C45.9126,41.690325 45.98415,41.95545 45.85815,42.158625 C45.732225,42.3618 45.4629,42.41565 45.263775,42.28335 L44.20935,41.582775 C44.040075,41.470275 43.99455,41.2422 44.10165,41.06955 C44.20875,40.896825 44.4333,40.836225 44.60925,40.937775 L45.7056,41.570775 Z" id="Shape" fill="#004FFF" fill-rule="nonzero"></path>
                            <path d="M47.493525,34.898025 C47.732625,34.898025 47.9271,35.0919 47.9196,35.33085 C47.9121,35.569725 47.705775,35.751 47.4672,35.736 L46.20375,35.6565 C46.00095,35.64375 45.8475,35.469 45.853875,35.2659 C45.86025,35.0628 46.024425,34.898025 46.2276,34.898025 L47.493525,34.898025 Z" id="Shape" fill="#004FFF" fill-rule="nonzero"></path>
                            <path d="M45.7056,28.225275 C45.9126,28.105725 46.178025,28.176375 46.290975,28.38705 C46.403925,28.597725 46.315875,28.857825 46.10175,28.964175 L44.967825,29.52705 C44.7858,29.61735 44.565525,29.5428 44.469525,29.3637 C44.373525,29.1846 44.4333,28.959825 44.60925,28.8582 L45.7056,28.225275 Z" id="Shape" fill="#004FFF" fill-rule="nonzero"></path>
                            <path d="M37.57905,21.984225 C37.640925,21.7533 37.878525,21.6156 38.107425,21.684675 C38.33625,21.753825 38.457975,21.999975 38.3817,22.22655 L37.9779,23.4264 C37.9131,23.619 37.7046,23.721975 37.51005,23.66325 C37.3155,23.604525 37.1988,23.403375 37.25145,23.207025 L37.57905,21.984225 Z" id="Shape" fill="#004FFF" fill-rule="nonzero"></path>
                            <path d="M30.67095,21.984225 C30.609075,21.7533 30.74595,21.51525 30.978675,21.46065 C31.211475,21.40605 31.439925,21.55845 31.487175,21.792825 L31.737375,23.033775 C31.777575,23.232975 31.6485,23.4264 31.45065,23.472825 C31.2528,23.51925 31.0512,23.403375 30.99855,23.207025 L30.67095,21.984225 Z" id="Shape" fill="#004FFF" fill-rule="nonzero"></path>
                            <path d="M24.688275,25.43835 C24.519225,25.2693 24.518775,24.99465 24.693075,24.831 C24.8673,24.66735 25.14135,24.68505 25.29945,24.864375 L26.136675,25.814025 C26.271,25.966425 26.256,26.198475 26.107875,26.3376 C25.95975,26.476725 25.727175,26.477175 25.583475,26.333475 L24.688275,25.43835 Z" id="Shape" fill="#004FFF" fill-rule="nonzero"></path>
                            <path d="M21.234225,31.42095 C21.0033,31.359075 20.8656,31.121475 20.934675,30.89265 C21.003825,30.66375 21.249975,30.5421 21.47655,30.6183 L22.6764,31.0221 C22.869,31.0869 22.971975,31.295475 22.91325,31.48995 C22.854525,31.6845 22.6533,31.8012 22.457025,31.748625 L21.234225,31.42095 Z" id="Shape" fill="#004FFF" fill-rule="nonzero"></path>
                            <path d="M21.234225,38.329125 C21.0033,38.391 20.76525,38.25405 20.71065,38.021325 C20.65605,37.7886 20.80845,37.560075 21.04275,37.512825 L22.283775,37.262625 C22.482975,37.222425 22.6764,37.3515 22.722825,37.54935 C22.769175,37.7472 22.6533,37.948875 22.457025,38.00145 L21.234225,38.329125 Z" id="Shape" fill="#004FFF" fill-rule="nonzero"></path>
                            <path d="M24.688275,44.311725 C24.519225,44.480775 24.24465,44.481225 24.081,44.307 C23.91735,44.1327 23.93505,43.85865 24.114375,43.70055 L25.06395,42.8634 C25.216425,42.729 25.448475,42.744075 25.5876,42.8922 C25.726725,43.040325 25.727175,43.2729 25.583475,43.416525 L24.688275,44.311725 Z" id="Shape" fill="#004FFF" fill-rule="nonzero"></path>
                            <path d="M30.67095,47.765775 C30.609075,47.9967 30.371475,48.1344 30.142575,48.065325 C29.91375,47.99625 29.792025,47.750025 29.8683,47.52345 L30.2721,46.323675 C30.3369,46.131075 30.5454,46.028025 30.73995,46.08675 C30.9345,46.14555 31.0512,46.3467 30.99855,46.542975 L30.67095,47.765775 Z" id="Shape" fill="#004FFF" fill-rule="nonzero"></path>
                            <path d="M37.57905,47.765775 C37.640925,47.9967 37.50405,48.23475 37.271325,48.28935 C37.038525,48.34395 36.810075,48.191625 36.762825,47.95725 L36.512625,46.7163 C36.472425,46.5171 36.6015,46.3236 36.79935,46.277175 C36.9972,46.230825 37.1988,46.3467 37.25145,46.542975 L37.57905,47.765775 Z" id="Shape" fill="#004FFF" fill-rule="nonzero"></path>
                            <path d="M43.561725,44.311725 C43.730775,44.480775 43.731225,44.75535 43.556925,44.919 C43.3827,45.08265 43.10865,45.06495 42.95055,44.885625 L42.113325,43.93605 C41.979,43.783575 41.994,43.551525 42.142125,43.4124 C42.29025,43.27335 42.522825,43.2729 42.666525,43.416525 L43.561725,44.311725 Z" id="Shape" fill="#004FFF" fill-rule="nonzero"></path>
                            <path d="M47.015775,38.329125 C47.2467,38.391 47.3844,38.628525 47.315325,38.857425 C47.24625,39.08625 47.000025,39.207975 46.77345,39.1317 L45.5736,38.7279 C45.381,38.6631 45.278025,38.4546 45.33675,38.26005 C45.395475,38.0655 45.5967,37.948875 45.792975,38.00145 L47.015775,38.329125 Z" id="Shape" fill="#004FFF" fill-rule="nonzero"></path>
                            <path d="M47.015775,31.42095 C47.2467,31.359075 47.48475,31.49595 47.53935,31.72875 C47.59395,31.961475 47.44155,32.189925 47.20725,32.237175 L45.966225,32.48745 C45.767025,32.527575 45.5736,32.3985 45.527175,32.20065 C45.480825,32.0028 45.5967,31.8012 45.792975,31.748625 L47.015775,31.42095 Z" id="Shape" fill="#004FFF" fill-rule="nonzero"></path>
                            <path d="M43.561725,25.43835 C43.730775,25.2693 44.00535,25.268775 44.169,25.443075 C44.33265,25.617375 44.31495,25.89135 44.135625,26.04945 L43.18605,26.886675 C43.033575,27.021075 42.801525,27.006 42.6624,26.857875 C42.523275,26.70975 42.522825,26.477175 42.666525,26.333475 L43.561725,25.43835 Z" id="Shape" fill="#004FFF" fill-rule="nonzero"></path>
                            <circle id="Oval" stroke="#A1BDFB" stroke-width="0.75" cx="34.5" cy="34.5" r="34.125"></circle>
                            <circle id="Oval" stroke="#004FFF" stroke-width="0.75" cx="34.5" cy="34.5" r="22.875"></circle>
                            <circle id="Oval" fill="#A1BDFB" fill-rule="nonzero" opacity="0.6" cx="34.5" cy="34.5" r="7.5"></circle>
                            <circle id="Oval" fill="#004FFF" fill-rule="nonzero" cx="34.5" cy="34.5" r="1.5"></circle>
                        </g>
                    </g>
                </g>
            </g>
        </g>
    </g>
</svg>