<?xml version="1.0" encoding="UTF-8"?>
<svg width="24px" height="24px" viewBox="0 0 24 24" version="1.1" xmlns="http://www.w3.org/2000/svg" xmlns:xlink="http://www.w3.org/1999/xlink">
    <!-- Generator: Sketch 60.1 (88133) - https://sketch.com -->
    <title>instagram</title>
    <desc>Created with Sketch.</desc>
    <g id="Symbols" stroke="none" stroke-width="1" fill="none" fill-rule="evenodd" opacity="0.404227121">
        <g id="Footer/deskop" transform="translate(-176.000000, -183.000000)" fill="#FFFFFF" fill-rule="nonzero">
            <g id="Footer">
                <g id="instagram" transform="translate(176.000000, 183.000000)">
                    <path d="M11.9997367,9.61358699 C10.6842209,9.61358699 9.61306036,10.6842209 9.61306036,11.9997367 C9.61306036,13.3157791 10.6842209,14.3869396 11.9997367,14.3869396 C13.3157791,14.3869396 14.386413,13.3157791 14.386413,11.9997367 C14.386413,10.6842209 13.3157791,9.61358699 11.9997367,9.61358699 Z M11.9997367,9.61358699 C10.6842209,9.61358699 9.61306036,10.6842209 9.61306036,11.9997367 C9.61306036,13.3157791 10.6842209,14.3869396 11.9997367,14.3869396 C13.3157791,14.3869396 14.386413,13.3157791 14.386413,11.9997367 C14.386413,10.6842209 13.3157791,9.61358699 11.9997367,9.61358699 Z M15.9757751,5.72233559 L8.02422487,5.72233559 C6.75505233,5.72233559 5.72233559,6.75505233 5.72233559,8.02422487 L5.72233559,15.9757751 C5.72233559,17.2449477 6.75505233,18.2776644 8.02422487,18.2776644 L15.9757751,18.2776644 C17.2449477,18.2776644 18.2776644,17.2449477 18.2776644,15.9757751 L18.2776644,8.02422487 C18.2776644,6.75505233 17.2449477,5.72233559 15.9757751,5.72233559 Z M11.9997367,16.1332368 C9.72101902,16.1332368 7.86676322,14.278981 7.86676322,11.9997367 C7.86676322,9.72101902 9.72101902,7.86676322 11.9997367,7.86676322 C14.278981,7.86676322 16.1332368,9.72101902 16.1332368,11.9997367 C16.1332368,14.278981 14.278981,16.1332368 11.9997367,16.1332368 Z M16.2659469,8.72147982 C15.7266803,8.72147982 15.2879995,8.28279903 15.2879995,7.74353235 C15.2879995,7.20426568 15.7266803,6.76558489 16.2659469,6.76558489 C16.8052136,6.76558489 17.2438944,7.20426568 17.2438944,7.74353235 C17.2438944,8.28279903 16.8052136,8.72147982 16.2659469,8.72147982 Z M11.9997367,9.61358699 C10.6842209,9.61358699 9.61306036,10.6842209 9.61306036,11.9997367 C9.61306036,13.3157791 10.6842209,14.3869396 11.9997367,14.3869396 C13.3157791,14.3869396 14.386413,13.3157791 14.386413,11.9997367 C14.386413,10.6842209 13.3157791,9.61358699 11.9997367,9.61358699 Z M15.9757751,5.72233559 L8.02422487,5.72233559 C6.75505233,5.72233559 5.72233559,6.75505233 5.72233559,8.02422487 L5.72233559,15.9757751 C5.72233559,17.2449477 6.75505233,18.2776644 8.02422487,18.2776644 L15.9757751,18.2776644 C17.2449477,18.2776644 18.2776644,17.2449477 18.2776644,15.9757751 L18.2776644,8.02422487 C18.2776644,6.75505233 17.2449477,5.72233559 15.9757751,5.72233559 Z M11.9997367,16.1332368 C9.72101902,16.1332368 7.86676322,14.278981 7.86676322,11.9997367 C7.86676322,9.72101902 9.72101902,7.86676322 11.9997367,7.86676322 C14.278981,7.86676322 16.1332368,9.72101902 16.1332368,11.9997367 C16.1332368,14.278981 14.278981,16.1332368 11.9997367,16.1332368 Z M16.2659469,8.72147982 C15.7266803,8.72147982 15.2879995,8.28279903 15.2879995,7.74353235 C15.2879995,7.20426568 15.7266803,6.76558489 16.2659469,6.76558489 C16.8052136,6.76558489 17.2438944,7.20426568 17.2438944,7.74353235 C17.2438944,8.28279903 16.8052136,8.72147982 16.2659469,8.72147982 Z M11.9997367,9.61358699 C10.6842209,9.61358699 9.61306036,10.6842209 9.61306036,11.9997367 C9.61306036,13.3157791 10.6842209,14.3869396 11.9997367,14.3869396 C13.3157791,14.3869396 14.386413,13.3157791 14.386413,11.9997367 C14.386413,10.6842209 13.3157791,9.61358699 11.9997367,9.61358699 Z M0,0 L0,24 L24,24 L24,0 L0,0 Z M20.0239616,15.9757751 C20.0239616,18.2081496 18.2081496,20.0239616 15.9757751,20.0239616 L8.02422487,20.0239616 C5.79185044,20.0239616 3.97603844,18.2081496 3.97603844,15.9757751 L3.97603844,8.02422487 C3.97603844,5.79185044 5.79185044,3.97603844 8.02422487,3.97603844 L15.9757751,3.97603844 C18.2081496,3.97603844 20.0239616,5.79185044 20.0239616,8.02422487 L20.0239616,15.9757751 Z M15.9757751,5.72233559 L8.02422487,5.72233559 C6.75505233,5.72233559 5.72233559,6.75505233 5.72233559,8.02422487 L5.72233559,15.9757751 C5.72233559,17.2449477 6.75505233,18.2776644 8.02422487,18.2776644 L15.9757751,18.2776644 C17.2449477,18.2776644 18.2776644,17.2449477 18.2776644,15.9757751 L18.2776644,8.02422487 C18.2776644,6.75505233 17.2449477,5.72233559 15.9757751,5.72233559 Z M11.9997367,16.1332368 C9.72101902,16.1332368 7.86676322,14.278981 7.86676322,11.9997367 C7.86676322,9.72101902 9.72101902,7.86676322 11.9997367,7.86676322 C14.278981,7.86676322 16.1332368,9.72101902 16.1332368,11.9997367 C16.1332368,14.278981 14.278981,16.1332368 11.9997367,16.1332368 Z M16.2659469,8.72147982 C15.7266803,8.72147982 15.2879995,8.28279903 15.2879995,7.74353235 C15.2879995,7.20426568 15.7266803,6.76558489 16.2659469,6.76558489 C16.8052136,6.76558489 17.2438944,7.20426568 17.2438944,7.74353235 C17.2438944,8.28279903 16.8052136,8.72147982 16.2659469,8.72147982 Z M11.9997367,9.61358699 C10.6842209,9.61358699 9.61306036,10.6842209 9.61306036,11.9997367 C9.61306036,13.3157791 10.6842209,14.3869396 11.9997367,14.3869396 C13.3157791,14.3869396 14.386413,13.3157791 14.386413,11.9997367 C14.386413,10.6842209 13.3157791,9.61358699 11.9997367,9.61358699 Z M11.9997367,9.61358699 C10.6842209,9.61358699 9.61306036,10.6842209 9.61306036,11.9997367 C9.61306036,13.3157791 10.6842209,14.3869396 11.9997367,14.3869396 C13.3157791,14.3869396 14.386413,13.3157791 14.386413,11.9997367 C14.386413,10.6842209 13.3157791,9.61358699 11.9997367,9.61358699 Z M11.9997367,9.61358699 C10.6842209,9.61358699 9.61306036,10.6842209 9.61306036,11.9997367 C9.61306036,13.3157791 10.6842209,14.3869396 11.9997367,14.3869396 C13.3157791,14.3869396 14.386413,13.3157791 14.386413,11.9997367 C14.386413,10.6842209 13.3157791,9.61358699 11.9997367,9.61358699 Z M15.9757751,5.72233559 L8.02422487,5.72233559 C6.75505233,5.72233559 5.72233559,6.75505233 5.72233559,8.02422487 L5.72233559,15.9757751 C5.72233559,17.2449477 6.75505233,18.2776644 8.02422487,18.2776644 L15.9757751,18.2776644 C17.2449477,18.2776644 18.2776644,17.2449477 18.2776644,15.9757751 L18.2776644,8.02422487 C18.2776644,6.75505233 17.2449477,5.72233559 15.9757751,5.72233559 Z M11.9997367,16.1332368 C9.72101902,16.1332368 7.86676322,14.278981 7.86676322,11.9997367 C7.86676322,9.72101902 9.72101902,7.86676322 11.9997367,7.86676322 C14.278981,7.86676322 16.1332368,9.72101902 16.1332368,11.9997367 C16.1332368,14.278981 14.278981,16.1332368 11.9997367,16.1332368 Z M16.2659469,8.72147982 C15.7266803,8.72147982 15.2879995,8.28279903 15.2879995,7.74353235 C15.2879995,7.20426568 15.7266803,6.76558489 16.2659469,6.76558489 C16.8052136,6.76558489 17.2438944,7.20426568 17.2438944,7.74353235 C17.2438944,8.28279903 16.8052136,8.72147982 16.2659469,8.72147982 Z M11.9997367,9.61358699 C10.6842209,9.61358699 9.61306036,10.6842209 9.61306036,11.9997367 C9.61306036,13.3157791 10.6842209,14.3869396 11.9997367,14.3869396 C13.3157791,14.3869396 14.386413,13.3157791 14.386413,11.9997367 C14.386413,10.6842209 13.3157791,9.61358699 11.9997367,9.61358699 Z M11.9997367,9.61358699 C10.6842209,9.61358699 9.61306036,10.6842209 9.61306036,11.9997367 C9.61306036,13.3157791 10.6842209,14.3869396 11.9997367,14.3869396 C13.3157791,14.3869396 14.386413,13.3157791 14.386413,11.9997367 C14.386413,10.6842209 13.3157791,9.61358699 11.9997367,9.61358699 Z M11.9997367,9.61358699 C10.6842209,9.61358699 9.61306036,10.6842209 9.61306036,11.9997367 C9.61306036,13.3157791 10.6842209,14.3869396 11.9997367,14.3869396 C13.3157791,14.3869396 14.386413,13.3157791 14.386413,11.9997367 C14.386413,10.6842209 13.3157791,9.61358699 11.9997367,9.61358699 Z M15.9757751,5.72233559 L8.02422487,5.72233559 C6.75505233,5.72233559 5.72233559,6.75505233 5.72233559,8.02422487 L5.72233559,15.9757751 C5.72233559,17.2449477 6.75505233,18.2776644 8.02422487,18.2776644 L15.9757751,18.2776644 C17.2449477,18.2776644 18.2776644,17.2449477 18.2776644,15.9757751 L18.2776644,8.02422487 C18.2776644,6.75505233 17.2449477,5.72233559 15.9757751,5.72233559 Z M11.9997367,16.1332368 C9.72101902,16.1332368 7.86676322,14.278981 7.86676322,11.9997367 C7.86676322,9.72101902 9.72101902,7.86676322 11.9997367,7.86676322 C14.278981,7.86676322 16.1332368,9.72101902 16.1332368,11.9997367 C16.1332368,14.278981 14.278981,16.1332368 11.9997367,16.1332368 Z M16.2659469,8.72147982 C15.7266803,8.72147982 15.2879995,8.28279903 15.2879995,7.74353235 C15.2879995,7.20426568 15.7266803,6.76558489 16.2659469,6.76558489 C16.8052136,6.76558489 17.2438944,7.20426568 17.2438944,7.74353235 C17.2438944,8.28279903 16.8052136,8.72147982 16.2659469,8.72147982 Z M11.9997367,9.61358699 C10.6842209,9.61358699 9.61306036,10.6842209 9.61306036,11.9997367 C9.61306036,13.3157791 10.6842209,14.3869396 11.9997367,14.3869396 C13.3157791,14.3869396 14.386413,13.3157791 14.386413,11.9997367 C14.386413,10.6842209 13.3157791,9.61358699 11.9997367,9.61358699 Z" id="Shape"></path>
                </g>
            </g>
        </g>
    </g>
</svg>