<svg xmlns="http://www.w3.org/2000/svg" width="16" height="15" viewBox="0 0 16 15">
    <path fill="#004FFF" fill-rule="nonzero" d="M15.967 9.195v5.789h-3.422V9.582c0-1.357-.495-2.283-1.734-2.283-.945 0-1.508.624-1.756 1.228-.09.216-.113.516-.113.818v5.639H5.518s.046-9.149 0-10.097h3.423V6.32l-.022.032h.022V6.32c.455-.687 1.267-1.669 3.085-1.669 2.253 0 3.941 1.443 3.941 4.545zM1.937.02C.766.02 0 .774 0 1.764c0 .97.744 1.746 1.892 1.746h.023c1.193 0 1.936-.776 1.936-1.746C3.828.774 3.108.02 1.937.02zM.203 14.984h3.422V4.887H.203v10.097z"/>
</svg>
