<?xml version="1.0" encoding="UTF-8"?>
<svg width="24px" height="24px" viewBox="0 0 24 24" version="1.1" xmlns="http://www.w3.org/2000/svg" xmlns:xlink="http://www.w3.org/1999/xlink">
    <!-- Generator: Sketch 60.1 (88133) - https://sketch.com -->
    <title>linkedin</title>
    <desc>Created with Sketch.</desc>
    <g id="Symbols" stroke="none" stroke-width="1" fill="none" fill-rule="evenodd" opacity="0.404227121">
        <g id="Footer/deskop" transform="translate(-224.000000, -183.000000)" fill="#FFFFFF" fill-rule="nonzero">
            <g id="Footer">
                <g id="linkedin" transform="translate(224.000000, 183.000000)">
                    <path d="M0,0 L0,24 L24,24 L24,0 L0,0 Z M7.36961058,19.7992061 C7.36961058,20.1048601 7.12183284,20.3526378 6.81617884,20.3526378 L4.46105268,20.3526378 C4.15539869,20.3526378 3.90762094,20.1048601 3.90762094,19.7992061 L3.90762094,9.75206865 C3.90762094,9.44641466 4.15539869,9.19863692 4.46105268,9.19863692 L6.81617884,9.19863692 C7.12183284,9.19863692 7.36961058,9.44641466 7.36961058,9.75206865 L7.36961058,19.7992061 Z M5.63479772,7.66194093 C4.56532472,7.68358527 3.62545449,6.79032148 3.6256651,5.65085983 C3.6256651,4.54573422 4.53578098,3.64414973 5.64833202,3.64504433 C6.74755942,3.64594026 7.65414685,4.55384426 7.65178167,5.65854857 C7.6491439,6.81523091 6.6892092,7.68711367 5.63479772,7.66194093 Z M20.3743875,20.1251879 C20.3743875,20.2521049 20.2714321,20.3549024 20.1445151,20.3549024 L17.1347396,20.3541651 C17.0078753,20.3541124 16.9050251,20.2512623 16.9050251,20.1243979 L16.9050251,13.9203697 C16.9050251,13.384106 16.687739,12.8983457 16.3361632,12.5469806 C15.9799531,12.1905598 15.4857142,11.9721151 14.9405505,11.9782767 C13.8726047,11.9903364 13.0207864,12.8771227 13.0207864,13.9451211 L13.0207864,20.1236607 C13.0207864,20.2505776 12.9178836,20.3534278 12.7909666,20.3533751 L9.78861653,20.3526378 C9.66175222,20.3525852 9.55895473,20.249735 9.55895473,20.1229234 L9.55895473,9.42840404 C9.55895473,9.30153972 9.66180488,9.19863692 9.78872186,9.19863692 L12.7270341,9.19863692 C12.8538985,9.19863692 12.9568013,9.30148706 12.9568013,9.42840404 L12.9568013,10.6616579 C12.9570646,10.6611312 12.9686504,10.6626058 12.9883462,10.6656076 C13.0451165,10.5629154 13.1069425,10.4634357 13.1737187,10.3676423 C13.7860799,9.48880809 14.8041542,8.91383733 15.9565182,8.91383733 L16.5605588,8.91383733 C18.6668539,8.91383733 20.3743875,10.6213183 20.3743875,12.7276661 L20.3743875,20.1251879 L20.3743875,20.1251879 Z" id="Shape"></path>
                </g>
            </g>
        </g>
    </g>
</svg>