<?xml version="1.0" encoding="UTF-8"?>
<svg width="40px" height="53px" viewBox="0 0 40 53" version="1.1" xmlns="http://www.w3.org/2000/svg" xmlns:xlink="http://www.w3.org/1999/xlink">
    <!-- Generator: Sketch 60.1 (88133) - https://sketch.com -->
    <title>marker</title>
    <desc>Created with Sketch.</desc>
    <g id="Contacts" stroke="none" stroke-width="1" fill="none" fill-rule="evenodd">
        <g id="Desktop-Contacts(new)" transform="translate(-378.000000, -1790.000000)">
            <g id="Loc-kyiv" transform="translate(128.000000, 1639.000000)">
                <g id="marker" transform="translate(250.000000, 151.000000)">
                    <path d="M17.7418696,51.5869167 C15.9539298,48.9835934 13.6502364,45.6951844 10.8307925,41.7216896 C7.3924462,36.7890761 5.12313729,33.4664133 4.02286579,31.7536997 C2.44122677,29.287393 1.37533821,27.2150097 0.825203238,25.5365514 C0.275068271,23.8580932 0,21.9227264 0,19.7304542 C0,16.1680106 0.893970699,12.8796015 2.68191052,9.8652271 C4.46985035,6.85085268 6.87669417,4.45305338 9.90243886,2.67183234 C12.9281835,0.890611303 16.2289965,0 19.8048777,0 C23.3807589,0 26.6815719,0.890611303 29.7073166,2.67183234 C32.7330612,4.45305338 35.1399051,6.85085268 36.9278449,9.8652271 C38.7157847,12.8796015 39.6097554,16.1680106 39.6097554,19.7304542 C39.6097554,21.9227264 39.3346872,23.8580932 38.7845522,25.5365514 C38.2344172,27.2150097 37.1685287,29.287393 35.5868896,31.7536997 C34.4866181,33.4664133 32.2173092,36.7890761 28.7789629,41.7216896 L21.8678858,51.5869167 C21.3865167,52.2720025 20.6988484,52.6145446 19.8048777,52.6145446 C18.910907,52.6145446 18.2232387,52.2720025 17.7418696,51.5869167 Z" id="map-marker" fill="#0351FF"></path>
                    <ellipse id="Oval" fill="#FFFFFF" cx="19.8048777" cy="19.5618178" rx="15.7073168" ry="15.5145452"></ellipse>
                    <g id="Favicon" transform="translate(9.560975, 12.141818)" fill="#000000">
                        <g id="Shape">
                            <path d="M2.88747041,0 L17.624158,0 C18.5151763,2.10076278 19.5761391,4.65246648 20.4878045,6.74545442 C19.6904942,8.60519705 18.8931839,10.3545369 18.1022267,12.2173895 L17.6114521,13.4909089 L2.8636464,13.4909089 C2.02980593,11.5300933 1.21184814,9.5972671 0.384360747,7.6675509 L0,6.74545442 C0.120708334,6.52464887 0.28588816,6.10169736 0.384360747,5.87156199 C1.22455429,3.91696628 2.05521821,1.95770565 2.88747041,0 Z M10.2540658,4.84090324 C10.3292172,4.84090324 10.2498907,4.84090324 10.3229546,4.84090324 C10.8907655,7.01133021 11.5232901,9.1902686 12.0848384,11.3415447 L13.7026819,11.3415447 C14.5168225,8.32422571 15.3226129,5.33456898 16.1430161,2.29171549 L14.541873,2.29171549 C13.997025,4.53449001 13.4688773,6.71342848 12.8822787,9.134944 C12.4084071,7.30497618 12.0034243,5.7388642 11.5984416,4.1791358 L9.00989198,4.1791358 C8.59029641,5.73460849 8.09972454,7.57734348 7.69265426,9.09451448 C7.185382,6.94111049 6.57790788,4.43022441 6.07063563,2.26830894 L4.47366753,2.26830894 C5.26067016,5.33669683 6.03097241,8.33486507 6.8033622,11.3394169 L8.4587814,11.3394169 C9.05790539,9.08813087 9.6883425,6.96877279 10.2540658,4.84090324 Z" fill-rule="nonzero"></path>
                        </g>
                    </g>
                </g>
            </g>
        </g>
    </g>
</svg>