<?xml version="1.0" encoding="UTF-8"?>
<svg width="70px" height="49px" viewBox="0 0 70 49" version="1.1" xmlns="http://www.w3.org/2000/svg" xmlns:xlink="http://www.w3.org/1999/xlink">
    <!-- Generator: Sketch 60.1 (88133) - https://sketch.com -->
    <title>sign-left</title>
    <desc>Created with Sketch.</desc>
    <g id="Use-cases" stroke="none" stroke-width="1" fill="none" fill-rule="evenodd">
        <g id="Use-cases_desktop-Fintech" transform="translate(-226.000000, -3284.000000)" fill="#000000" fill-rule="nonzero">
            <g id="Legal" transform="translate(128.000000, 3058.000000)">
                <g id="Quote" transform="translate(0.000000, 162.000000)">
                    <g id="sign-left" transform="translate(98.000000, 64.000000)">
                        <path d="M0.0501773315,48.8611898 L0.0501773315,23.1813031 C-0.0167257772,22.0255038 -0.0167257772,20.8668474 0.0501773315,19.7110482 C0.0501773315,18.7393768 0.0501773315,17.6288952 0.0501773315,16.101983 C0.494348708,14.4721396 1.20312803,12.924968 2.14867201,11.5212465 C2.94007889,9.77637092 4.02856469,8.1798353 5.36636385,6.80169972 C7.15893039,5.06944914 9.2419297,3.66028213 11.5219482,2.63739377 C13.5832664,1.74258037 15.7431035,1.09035759 17.9573319,0.694050992 C20.1957263,0.694050992 23.5533177,0.694050992 27.7503071,0.694050992 L27.7503071,7.9121813 L25.5119128,7.9121813 C24.2698794,8.04232059 23.0484314,8.32199815 21.874522,8.74504249 C20.1628228,9.26514101 18.6189773,10.2225304 17.3977334,11.5212465 C16.2755184,12.6132991 15.4149276,13.9415711 14.8795397,15.407932 C14.3456914,16.9739381 14.0624567,18.6132743 14.0401419,20.266289 C14.0401419,21.9320113 14.0401419,23.4589235 14.0401419,25.1246459 L28.0301064,25.1246459 L28.0301064,48.8611898 L0.0501773315,48.8611898 Z M42.0200709,48.8611898 L42.0200709,23.1813031 C41.9563864,22.0254144 41.9563864,20.8669369 42.0200709,19.7110482 C42.0200709,18.878187 42.0200709,17.7677054 42.0200709,16.2407932 C42.3121036,14.6667311 42.7813766,13.1301895 43.4190674,11.6600567 C44.3414679,9.9228054 45.520314,8.33205964 46.9165585,6.94050992 C48.5816728,5.12235715 50.6376476,3.69912632 52.9322433,2.77620397 C54.9834867,1.88380269 57.149045,1.27656298 59.367627,0.971671388 C62.60616,0.429231119 65.8779415,0.10460081 69.1606021,0 L69.1606021,8.1898017 C66.9695591,8.32455779 64.8058859,8.74458855 62.7252184,9.43909348 C60.4674173,10.1086458 58.6236923,11.7347499 57.6888312,13.8810198 C56.7142435,15.5322011 56.1395419,17.3854362 56.0100355,19.2946176 C55.8772039,21.2357257 55.8772039,23.1835377 56.0100355,25.1246459 L70,25.1246459 L70,49 L42.0200709,48.8611898 Z" id="Shape"></path>
                    </g>
                </g>
            </g>
        </g>
    </g>
</svg>