<?xml version="1.0" encoding="UTF-8"?>
<svg width="69px" height="69px" viewBox="0 0 69 69" version="1.1" xmlns="http://www.w3.org/2000/svg" xmlns:xlink="http://www.w3.org/1999/xlink">
    <!-- Generator: Sketch 50.2 (55047) - http://www.bohemiancoding.com/sketch -->
    <title>Skills &amp; Experience-03</title>
    <desc>Created with Sketch.</desc>
    <defs></defs>
    <g id="index" stroke="none" stroke-width="1" fill="none" fill-rule="evenodd">
        <g id="Desktop-main-final" transform="translate(-674.000000, -493.000000)">
            <g id="Main-page" transform="translate(128.000000, 24.000000)">
                <g id="icons" transform="translate(26.000000, 469.000000)">
                    <g id="Skill&amp;Experience" transform="translate(481.000000, 0.000000)">
                        <g id="Skills-&amp;-Experience-03" transform="translate(39.000000, 0.000000)">
                            <path d="M28.6193182,27.4431818 C28.6193182,27.2266943 28.4437602,27.0511364 28.2272727,27.0511364 C28.0107852,27.0511364 27.8352273,27.2266943 27.8352273,27.4431818 L28.6193182,27.4431818 Z M27.8352273,48.6136364 C27.8352273,48.8301239 28.0107852,49.0056818 28.2272727,49.0056818 C28.4437602,49.0056818 28.6193182,48.8301239 28.6193182,48.6136364 L27.8352273,48.6136364 Z M27.8352273,27.821192 C27.8352273,28.037758 28.0107852,28.2132375 28.2272727,28.2132375 C28.4437602,28.2132375 28.6193182,28.037758 28.6193182,27.821192 L27.8352273,27.821192 Z M28.6193182,30.0894886 C28.6193182,29.8730011 28.4437602,29.6974432 28.2272727,29.6974432 C28.0107852,29.6974432 27.8352273,29.8730011 27.8352273,30.0894886 L28.6193182,30.0894886 Z M27.8352273,30.8455875 C27.8352273,31.062075 28.0107852,31.237633 28.2272727,31.237633 C28.4437602,31.237633 28.6193182,31.062075 28.6193182,30.8455875 L27.8352273,30.8455875 Z M28.6193182,33.1138057 C28.6193182,32.8973182 28.4437602,32.7217602 28.2272727,32.7217602 C28.0107852,32.7217602 27.8352273,32.8973182 27.8352273,33.1138057 L28.6193182,33.1138057 Z M27.8352273,33.8699045 C27.8352273,34.0864705 28.0107852,34.26195 28.2272727,34.26195 C28.4437602,34.26195 28.6193182,34.0864705 28.6193182,33.8699045 L27.8352273,33.8699045 Z M28.6193182,36.1382011 C28.6193182,35.9216352 28.4437602,35.7461557 28.2272727,35.7461557 C28.0107852,35.7461557 27.8352273,35.9216352 27.8352273,36.1382011 L28.6193182,36.1382011 Z M27.8352273,36.8943 C27.8352273,37.1107875 28.0107852,37.2863455 28.2272727,37.2863455 C28.4437602,37.2863455 28.6193182,37.1107875 28.6193182,36.8943 L27.8352273,36.8943 Z M28.6193182,39.1625182 C28.6193182,38.9460307 28.4437602,38.7704727 28.2272727,38.7704727 C28.0107852,38.7704727 27.8352273,38.9460307 27.8352273,39.1625182 L28.6193182,39.1625182 Z M27.8352273,39.918617 C27.8352273,40.135183 28.0107852,40.3106625 28.2272727,40.3106625 C28.4437602,40.3106625 28.6193182,40.135183 28.6193182,39.918617 L27.8352273,39.918617 Z M28.6193182,42.1869136 C28.6193182,41.9703477 28.4437602,41.7948682 28.2272727,41.7948682 C28.0107852,41.7948682 27.8352273,41.9703477 27.8352273,42.1869136 L28.6193182,42.1869136 Z M27.8352273,42.9430125 C27.8352273,43.1595 28.0107852,43.335058 28.2272727,43.335058 C28.4437602,43.335058 28.6193182,43.1595 28.6193182,42.9430125 L27.8352273,42.9430125 Z M28.6193182,45.2112307 C28.6193182,44.9947432 28.4437602,44.8191852 28.2272727,44.8191852 C28.0107852,44.8191852 27.8352273,44.9947432 27.8352273,45.2112307 L28.6193182,45.2112307 Z M27.8352273,45.9673295 C27.8352273,46.183817 28.0107852,46.359375 28.2272727,46.359375 C28.4437602,46.359375 28.6193182,46.183817 28.6193182,45.9673295 L27.8352273,45.9673295 Z M28.6193182,48.2356261 C28.6193182,48.0190602 28.4437602,47.8435807 28.2272727,47.8435807 C28.0107852,47.8435807 27.8352273,48.0190602 27.8352273,48.2356261 L28.6193182,48.2356261 Z M27.8352273,27.4431818 L27.8352273,27.821192 L28.6193182,27.821192 L28.6193182,27.4431818 L27.8352273,27.4431818 Z M27.8352273,30.0894886 L27.8352273,30.8455875 L28.6193182,30.8455875 L28.6193182,30.0894886 L27.8352273,30.0894886 Z M27.8352273,33.1138057 L27.8352273,33.8699045 L28.6193182,33.8699045 L28.6193182,33.1138057 L27.8352273,33.1138057 Z M27.8352273,36.1382011 L27.8352273,36.8943 L28.6193182,36.8943 L28.6193182,36.1382011 L27.8352273,36.1382011 Z M27.8352273,39.1625182 L27.8352273,39.918617 L28.6193182,39.918617 L28.6193182,39.1625182 L27.8352273,39.1625182 Z M27.8352273,42.1869136 L27.8352273,42.9430125 L28.6193182,42.9430125 L28.6193182,42.1869136 L27.8352273,42.1869136 Z M27.8352273,45.2112307 L27.8352273,45.9673295 L28.6193182,45.9673295 L28.6193182,45.2112307 L27.8352273,45.2112307 Z M27.8352273,48.2356261 L27.8352273,48.6136364 L28.6193182,48.6136364 L28.6193182,48.2356261 L27.8352273,48.2356261 Z" id="Shape" fill="#A1BDFB" fill-rule="nonzero"></path>
                            <path d="M41.9488636,27.4431818 C41.9488636,27.2266943 41.7733057,27.0511364 41.5568182,27.0511364 C41.3403307,27.0511364 41.1647727,27.2266943 41.1647727,27.4431818 L41.9488636,27.4431818 Z M41.1647727,48.6136364 C41.1647727,48.8301239 41.3403307,49.0056818 41.5568182,49.0056818 C41.7733057,49.0056818 41.9488636,48.8301239 41.9488636,48.6136364 L41.1647727,48.6136364 Z M41.1647727,27.821192 C41.1647727,28.037758 41.3403307,28.2132375 41.5568182,28.2132375 C41.7733057,28.2132375 41.9488636,28.037758 41.9488636,27.821192 L41.1647727,27.821192 Z M41.9488636,30.0894886 C41.9488636,29.8730011 41.7733057,29.6974432 41.5568182,29.6974432 C41.3403307,29.6974432 41.1647727,29.8730011 41.1647727,30.0894886 L41.9488636,30.0894886 Z M41.1647727,30.8455875 C41.1647727,31.062075 41.3403307,31.237633 41.5568182,31.237633 C41.7733057,31.237633 41.9488636,31.062075 41.9488636,30.8455875 L41.1647727,30.8455875 Z M41.9488636,33.1138057 C41.9488636,32.8973182 41.7733057,32.7217602 41.5568182,32.7217602 C41.3403307,32.7217602 41.1647727,32.8973182 41.1647727,33.1138057 L41.9488636,33.1138057 Z M41.1647727,33.8699045 C41.1647727,34.0864705 41.3403307,34.26195 41.5568182,34.26195 C41.7733057,34.26195 41.9488636,34.0864705 41.9488636,33.8699045 L41.1647727,33.8699045 Z M41.9488636,36.1382011 C41.9488636,35.9216352 41.7733057,35.7461557 41.5568182,35.7461557 C41.3403307,35.7461557 41.1647727,35.9216352 41.1647727,36.1382011 L41.9488636,36.1382011 Z M41.1647727,36.8943 C41.1647727,37.1107875 41.3403307,37.2863455 41.5568182,37.2863455 C41.7733057,37.2863455 41.9488636,37.1107875 41.9488636,36.8943 L41.1647727,36.8943 Z M41.9488636,39.1625182 C41.9488636,38.9460307 41.7733057,38.7704727 41.5568182,38.7704727 C41.3403307,38.7704727 41.1647727,38.9460307 41.1647727,39.1625182 L41.9488636,39.1625182 Z M41.1647727,39.918617 C41.1647727,40.135183 41.3403307,40.3106625 41.5568182,40.3106625 C41.7733057,40.3106625 41.9488636,40.135183 41.9488636,39.918617 L41.1647727,39.918617 Z M41.9488636,42.1869136 C41.9488636,41.9703477 41.7733057,41.7948682 41.5568182,41.7948682 C41.3403307,41.7948682 41.1647727,41.9703477 41.1647727,42.1869136 L41.9488636,42.1869136 Z M41.1647727,42.9430125 C41.1647727,43.1595 41.3403307,43.335058 41.5568182,43.335058 C41.7733057,43.335058 41.9488636,43.1595 41.9488636,42.9430125 L41.1647727,42.9430125 Z M41.9488636,45.2112307 C41.9488636,44.9947432 41.7733057,44.8191852 41.5568182,44.8191852 C41.3403307,44.8191852 41.1647727,44.9947432 41.1647727,45.2112307 L41.9488636,45.2112307 Z M41.1647727,45.9673295 C41.1647727,46.183817 41.3403307,46.359375 41.5568182,46.359375 C41.7733057,46.359375 41.9488636,46.183817 41.9488636,45.9673295 L41.1647727,45.9673295 Z M41.9488636,48.2356261 C41.9488636,48.0190602 41.7733057,47.8435807 41.5568182,47.8435807 C41.3403307,47.8435807 41.1647727,48.0190602 41.1647727,48.2356261 L41.9488636,48.2356261 Z M41.1647727,27.4431818 L41.1647727,27.821192 L41.9488636,27.821192 L41.9488636,27.4431818 L41.1647727,27.4431818 Z M41.1647727,30.0894886 L41.1647727,30.8455875 L41.9488636,30.8455875 L41.9488636,30.0894886 L41.1647727,30.0894886 Z M41.1647727,33.1138057 L41.1647727,33.8699045 L41.9488636,33.8699045 L41.9488636,33.1138057 L41.1647727,33.1138057 Z M41.1647727,36.1382011 L41.1647727,36.8943 L41.9488636,36.8943 L41.9488636,36.1382011 L41.1647727,36.1382011 Z M41.1647727,39.1625182 L41.1647727,39.918617 L41.9488636,39.918617 L41.9488636,39.1625182 L41.1647727,39.1625182 Z M41.1647727,42.1869136 L41.1647727,42.9430125 L41.9488636,42.9430125 L41.9488636,42.1869136 L41.1647727,42.1869136 Z M41.1647727,45.2112307 L41.1647727,45.9673295 L41.9488636,45.9673295 L41.9488636,45.2112307 L41.1647727,45.2112307 Z M41.1647727,48.2356261 L41.1647727,48.6136364 L41.9488636,48.6136364 L41.9488636,48.2356261 L41.1647727,48.2356261 Z" id="Shape" fill="#A1BDFB" fill-rule="nonzero"></path>
                            <circle id="Oval" stroke="#004FFF" stroke-width="0.779999971" opacity="0.6" cx="34.5" cy="34.5" r="34.1079545"></circle>
                            <circle id="Oval" stroke="#A1BDFB" stroke-width="0.779999971" opacity="0.6" cx="34.5" cy="34.5" r="19.9943182"></circle>
                            <rect id="Rectangle-path" stroke="#A1BDFB" stroke-width="0.779999971" x="9.80113636" y="38.0284091" width="10.9772727" height="10.9772727"></rect>
                            <rect id="Rectangle-path" fill="#A1BDFB" fill-rule="nonzero" x="10.1931818" y="22.7386364" width="10.1931818" height="10.1931818"></rect>
                            <circle id="Oval" stroke="#A1BDFB" stroke-width="0.779999971" cx="54.4943182" cy="43.5170455" r="6.27272727"></circle>
                            <polygon id="Shape" stroke="#004FFF" stroke-width="0.779999971" points="28.4411727 48.8096591 34.8920455 37.6363636 41.3429182 48.8096591"></polygon>
                            <polygon id="Shape" fill="#004FFF" fill-rule="nonzero" points="34.8920455 14.8977273 42.0220193 27.2471591 27.7620716 27.2471591"></polygon>
                            <circle id="Oval" fill="#A1BDFB" fill-rule="nonzero" cx="54.4943182" cy="27.8352273" r="5.88068182"></circle>
                        </g>
                    </g>
                </g>
            </g>
        </g>
    </g>
</svg>