<?xml version="1.0" encoding="UTF-8"?>
<svg width="69px" height="69px" viewBox="0 0 69 69" version="1.1" xmlns="http://www.w3.org/2000/svg" xmlns:xlink="http://www.w3.org/1999/xlink">
    <!-- Generator: Sketch 50.2 (55047) - http://www.bohemiancoding.com/sketch -->
    <title>Transparency-01</title>
    <desc>Created with Sketch.</desc>
    <defs></defs>
    <g id="index" stroke="none" stroke-width="1" fill="none" fill-rule="evenodd">
        <g id="Desktop-main-final" transform="translate(-1159.000000, -493.000000)">
            <g id="Main-page" transform="translate(128.000000, 24.000000)">
                <g id="icons" transform="translate(26.000000, 469.000000)">
                    <g id="Transparency" transform="translate(987.000000, 0.000000)">
                        <g id="Transparency-01" transform="translate(18.000000, 0.000000)">
                            <path d="M34.5,60.375 C48.7903679,60.375 60.375,48.7903679 60.375,34.5 C60.375,20.2096321 48.7903679,8.625 34.5,8.625 C20.2096321,8.625 8.625,20.2096321 8.625,34.5 C8.625,48.7903679 20.2096321,60.375 34.5,60.375 Z" id="Oval" stroke="#004FFF" stroke-width="0.779999971" stroke-linecap="round" stroke-linejoin="round" stroke-dasharray="1.039999961853027,3.119999885559082"></path>
                            <path d="M17.2993193,25.0909091 C15.7683034,27.8838409 14.8977273,31.0902239 14.8977273,34.5 C14.8977273,37.84305 15.7345875,40.9906261 17.2102466,43.744667 M51.7897534,43.744667 C53.2654125,40.9906261 54.1022727,37.84305 54.1022727,34.5 C54.1022727,31.2058773 53.2897193,28.1015045 51.8541273,25.3763966" id="Shape" stroke="#A1BDFB" stroke-width="0.779999971" stroke-linecap="round" stroke-linejoin="round"></path>
                            <circle id="Oval" fill="#004FFF" fill-rule="nonzero" cx="34.5" cy="34.5" r="10.1931818"></circle>
                            <circle id="Oval" stroke="#A1BDFB" stroke-width="0.779999971" opacity="0.6" cx="34.5" cy="34.5" r="34.1079545"></circle>
                            <circle id="Oval" stroke="#D0DEFD" stroke-width="0.779999971" opacity="0.6" cx="34.5" cy="34.5" r="34.1079545"></circle>
                            <polygon id="Shape" stroke="#004FFF" stroke-width="0.779999971" stroke-linecap="round" stroke-linejoin="round" points="34.5613943 54.0608727 1.53934295 34.4994511 34.4386057 14.9391273 67.4606727 34.5005489"></polygon>
                            <path d="M33.5434091,37.0388864 L33.5434091,36.2626364 C33.5434091,36.0556364 33.5528182,35.8815682 33.5716364,35.7404318 C33.5998636,35.5898864 33.6422045,35.4581591 33.6986591,35.34525 C33.7645227,35.2229318 33.8445,35.1100227 33.9385909,35.0065227 C34.0420909,34.8936136 34.1644091,34.7618864 34.3055455,34.6113409 L35.3922955,33.5104773 C35.6275227,33.27525 35.7451364,32.9694545 35.7451364,32.5930909 C35.7451364,32.2261364 35.6228182,31.92975 35.3781818,31.7039318 C35.1429545,31.4687045 34.8418636,31.3510909 34.4749091,31.3510909 C34.0797273,31.3510909 33.7551136,31.4875227 33.5010682,31.7603864 C33.2470227,32.0238409 33.1011818,32.3484545 33.0635455,32.7342273 L31.257,32.5930909 C31.3134545,32.1414545 31.4310682,31.7415682 31.6098409,31.3934318 C31.7886136,31.0358864 32.0191364,30.7347955 32.3014091,30.4901591 C32.5930909,30.2455227 32.9271136,30.0620455 33.3034773,29.9397273 C33.6798409,29.808 34.0938409,29.7421364 34.5454773,29.7421364 C34.9688864,29.7421364 35.3593636,29.8032955 35.7169091,29.9256136 C36.0838636,30.0479318 36.3990682,30.2267045 36.6625227,30.4619318 C36.9353864,30.68775 37.1470909,30.9747273 37.2976364,31.3228636 C37.4481818,31.6615909 37.5234545,32.0520682 37.5234545,32.4942955 C37.5234545,32.8047955 37.4811136,33.0776591 37.3964318,33.3128864 C37.31175,33.5481136 37.1988409,33.7645227 37.0577045,33.9621136 C36.9165682,34.1597045 36.7519091,34.3478864 36.5637273,34.5266591 C36.3849545,34.7054318 36.1920682,34.8936136 35.9850682,35.0912045 C35.8533409,35.2135227 35.7404318,35.3217273 35.6463409,35.4158182 C35.55225,35.5099091 35.4722727,35.6087045 35.4064091,35.7122045 C35.3499545,35.8062955 35.3076136,35.9192045 35.2793864,36.0509318 C35.2511591,36.17325 35.2370455,36.3237955 35.2370455,36.5025682 L35.2370455,37.0388864 L33.5434091,37.0388864 Z M33.2611364,39.0006818 C33.2611364,38.6995909 33.3693409,38.4408409 33.58575,38.2244318 C33.8115682,38.0080227 34.0797273,37.8998182 34.3902273,37.8998182 C34.6913182,37.8998182 34.9547727,38.0033182 35.1805909,38.2103182 C35.4064091,38.4173182 35.5193182,38.6713636 35.5193182,38.9724545 C35.5193182,39.2735455 35.4064091,39.5322955 35.1805909,39.7487045 C34.9641818,39.9651136 34.7007273,40.0733182 34.3902273,40.0733182 C34.2396818,40.0733182 34.0938409,40.0450909 33.9527045,39.9886364 C33.8209773,39.9321818 33.7033636,39.8569091 33.5998636,39.7628182 C33.4963636,39.6687273 33.4116818,39.5558182 33.3458182,39.4240909 C33.2893636,39.2923636 33.2611364,39.1512273 33.2611364,39.0006818 Z" id="Shape" fill="#FFFFFF" fill-rule="nonzero"></path>
                        </g>
                    </g>
                </g>
            </g>
        </g>
    </g>
</svg>