<?xml version="1.0" encoding="UTF-8"?>
<svg width="37px" height="37px" viewBox="0 0 37 37" version="1.1" xmlns="http://www.w3.org/2000/svg" xmlns:xlink="http://www.w3.org/1999/xlink">
    <title>thumbnnail</title>
    <defs>
        <rect id="path-1" x="0" y="0" width="35" height="35" rx="2"></rect>
    </defs>
    <g id="Text-recognition" stroke="none" stroke-width="1" fill="none" fill-rule="evenodd">
        <g id="TextRecognition_desktop" transform="translate(-240.000000, -494.000000)">
            <g id="Filters" transform="translate(126.000000, 293.000000)">
                <g id="filters" transform="translate(100.000000, 12.000000)">
                    <g id="File-upload" transform="translate(0.000000, 23.000000)">
                        <g id="dropdown" transform="translate(0.000000, 37.000000)">
                            <g id="option3-upload" transform="translate(15.000000, 130.000000)">
                                <g id="thumbnnail">
                                    <mask id="mask-2" fill="white">
                                        <use xlink:href="#path-1"></use>
                                    </mask>
                                    <use id="Mask" stroke-opacity="0.5" stroke="#D7D7D7" xlink:href="#path-1"></use>
                                    <path d="M18.2499779,21.0000048 C18.4583109,21.0000048 18.6353935,20.9270884 18.7812267,20.7812553 C18.9270598,20.6354221 18.9999762,20.4583396 18.9999762,20.2500066 L18.9999762,15.0000191 L21.7499696,15.0000191 C22.0208024,15.0000191 22.208302,14.8698109 22.3124683,14.609395 C22.4166345,14.3489791 22.3749681,14.1250212 22.1874686,13.9375216 L17.4374799,9.18753293 C17.3124802,9.06253323 17.166647,9.00003338 16.9999809,9.00003338 C16.8333148,9.00003338 16.6874817,9.06253323 16.562482,9.18753293 L11.8124933,13.9375216 C11.6249937,14.1250212 11.5833273,14.3489791 11.6874936,14.609395 C11.7916599,14.8698109 11.9791594,15.0000191 12.2499923,15.0000191 L14.9999857,15.0000191 L14.9999857,20.2500066 C14.9999857,20.4583396 15.072902,20.6354221 15.2187352,20.7812553 C15.3645683,20.9270884 15.5416509,21.0000048 15.7499839,21.0000048 L18.2499779,21.0000048 Z M24.2499636,24.9999952 C24.4582966,24.9999952 24.6353792,24.9270789 24.7812124,24.7812458 C24.9270455,24.6354126 24.9999619,24.45833 24.9999619,24.249997 L24.9999619,20.7500054 C24.9999619,20.5416724 24.9270455,20.3645898 24.7812124,20.2187566 C24.6353792,20.0729235 24.4582966,20.0000072 24.2499636,20.0000072 L19.9999738,20.0000072 L19.9999738,20.2500066 C19.9999738,20.7291719 19.8280992,21.1406294 19.48435,21.4843786 C19.1406008,21.8281278 18.7291433,22.0000072 18.2499779,22.0000072 L15.7499839,22.0000072 C15.2708185,22.0000072 14.859361,21.8281278 14.5156118,21.4843786 C14.1718627,21.1406294 13.9999881,20.7291719 13.9999881,20.2500066 L13.9999881,20.0000072 L9.74999821,20.0000072 C9.54166522,20.0000072 9.36458262,20.0729235 9.21874948,20.2187566 C9.07291633,20.3645898 9,20.5416724 9,20.7500054 L9,24.249997 C9,24.45833 9.07291633,24.6354126 9.21874948,24.7812458 C9.36458262,24.9270789 9.54166522,24.9999952 9.74999821,24.9999952 L24.2499636,24.9999952 Z M20.4999726,24.1249973 C20.3333065,24.1249973 20.1874733,24.0624975 20.0624736,23.9374978 C19.9374739,23.8124981 19.8749741,23.6666649 19.8749741,23.4999988 C19.8749741,23.3333327 19.9374739,23.1874996 20.0624736,23.0624999 C20.1874733,22.9375001 20.3333065,22.8750003 20.4999726,22.8750003 C20.6666387,22.8750003 20.8124718,22.9375001 20.9374715,23.0624999 C21.0624712,23.1874996 21.1249711,23.3333327 21.1249711,23.4999988 C21.1249711,23.6666649 21.0624712,23.8124981 20.9374715,23.9374978 C20.8124718,24.0624975 20.6666387,24.1249973 20.4999726,24.1249973 Z M22.4999678,24.1249973 C22.3333017,24.1249973 22.1874686,24.0624975 22.0624689,23.9374978 C21.9374692,23.8124981 21.8749693,23.6666649 21.8749693,23.4999988 C21.8749693,23.3333327 21.9374692,23.1874996 22.0624689,23.0624999 C22.1874686,22.9375001 22.3333017,22.8750003 22.4999678,22.8750003 C22.6666339,22.8750003 22.8124671,22.9375001 22.9374668,23.0624999 C23.0624665,23.1874996 23.1249663,23.3333327 23.1249663,23.4999988 C23.1249663,23.6666649 23.0624665,23.8124981 22.9374668,23.9374978 C22.8124671,24.0624975 22.6666339,24.1249973 22.4999678,24.1249973 Z" id="u" fill="#D7D7D7" fill-rule="nonzero" opacity="0.5" mask="url(#mask-2)"></path>
                                </g>
                            </g>
                        </g>
                    </g>
                </g>
            </g>
        </g>
    </g>
</svg>