<?xml version="1.0" encoding="UTF-8"?>
<svg width="462px" height="404px" viewBox="0 0 462 404" version="1.1" xmlns="http://www.w3.org/2000/svg" xmlns:xlink="http://www.w3.org/1999/xlink">
    <!-- Generator: Sketch 60.1 (88133) - https://sketch.com -->
    <title>Book a call</title>
    <desc>Created with Sketch.</desc>
    <defs>
        <filter x="-5.2%" y="-9.0%" width="110.4%" height="118.0%" filterUnits="objectBoundingBox" id="filter-1">
            <feGaussianBlur stdDeviation="7" in="SourceGraphic"></feGaussianBlur>
        </filter>
        <linearGradient x1="0%" y1="50%" x2="100%" y2="50%" id="linearGradient-2">
            <stop stop-color="#CFD8DB" offset="0%"></stop>
            <stop stop-color="#CFD8DB" offset="100%"></stop>
        </linearGradient>
        <linearGradient x1="0%" y1="49.9793984%" x2="100%" y2="49.9793984%" id="linearGradient-3">
            <stop stop-color="#CFD8DB" offset="0%"></stop>
            <stop stop-color="#CFD8DB" offset="100%"></stop>
        </linearGradient>
        <linearGradient x1="0%" y1="49.9588477%" x2="100%" y2="49.9588477%" id="linearGradient-4">
            <stop stop-color="#CFD8DB" offset="0%"></stop>
            <stop stop-color="#CFD8DB" offset="100%"></stop>
        </linearGradient>
        <linearGradient x1="-1.5%" y1="50.0206016%" x2="98.5%" y2="50.0206016%" id="linearGradient-5">
            <stop stop-color="#CFD8DB" offset="0%"></stop>
            <stop stop-color="#CFD8DB" offset="100%"></stop>
        </linearGradient>
        <linearGradient x1="0%" y1="49.9177632%" x2="100%" y2="49.9177632%" id="linearGradient-6">
            <stop stop-color="#CFD8DB" offset="0%"></stop>
            <stop stop-color="#CFD8DB" offset="100%"></stop>
        </linearGradient>
        <linearGradient x1="3.2394671e-07%" y1="50.0213915%" x2="100%" y2="50.0213915%" id="linearGradient-7">
            <stop stop-color="#CFD8DB" offset="0%"></stop>
            <stop stop-color="#CFD8DB" offset="100%"></stop>
        </linearGradient>
        <linearGradient x1="0.000564198738%" y1="49.8792555%" x2="99.9996513%" y2="49.8792555%" id="linearGradient-8">
            <stop stop-color="#CFD8DB" offset="0%"></stop>
            <stop stop-color="#CFD8DB" offset="100%"></stop>
        </linearGradient>
        <linearGradient x1="0%" y1="50.0019796%" x2="100%" y2="50.0019796%" id="linearGradient-9">
            <stop stop-color="#CFD8DB" offset="0%"></stop>
            <stop stop-color="#CFD8DB" offset="100%"></stop>
        </linearGradient>
        <linearGradient x1="0%" y1="50%" x2="100%" y2="50%" id="linearGradient-10">
            <stop stop-color="#CFD8DB" offset="0%"></stop>
            <stop stop-color="#CFD8DB" offset="100%"></stop>
        </linearGradient>
        <linearGradient x1="0%" y1="49.9793984%" x2="100%" y2="49.9793984%" id="linearGradient-11">
            <stop stop-color="#CFD8DB" offset="0%"></stop>
            <stop stop-color="#CFD8DB" offset="100%"></stop>
        </linearGradient>
        <linearGradient x1="0%" y1="49.9588477%" x2="100%" y2="49.9588477%" id="linearGradient-12">
            <stop stop-color="#CFD8DB" offset="0%"></stop>
            <stop stop-color="#CFD8DB" offset="100%"></stop>
        </linearGradient>
        <linearGradient x1="-1.5%" y1="50.0206016%" x2="98.5%" y2="50.0206016%" id="linearGradient-13">
            <stop stop-color="#CFD8DB" offset="0%"></stop>
            <stop stop-color="#CFD8DB" offset="100%"></stop>
        </linearGradient>
        <linearGradient x1="0%" y1="49.9177632%" x2="100%" y2="49.9177632%" id="linearGradient-14">
            <stop stop-color="#CFD8DB" offset="0%"></stop>
            <stop stop-color="#CFD8DB" offset="100%"></stop>
        </linearGradient>
        <linearGradient x1="0%" y1="50.0019796%" x2="100%" y2="50.0019796%" id="linearGradient-15">
            <stop stop-color="#CFD8DB" offset="0%"></stop>
            <stop stop-color="#CFD8DB" offset="100%"></stop>
        </linearGradient>
        <linearGradient x1="0%" y1="50%" x2="100%" y2="50%" id="linearGradient-16">
            <stop stop-color="#CFD8DB" offset="0%"></stop>
            <stop stop-color="#CFD8DB" offset="100%"></stop>
        </linearGradient>
        <linearGradient x1="0%" y1="49.9793984%" x2="100%" y2="49.9793984%" id="linearGradient-17">
            <stop stop-color="#CFD8DB" offset="0%"></stop>
            <stop stop-color="#CFD8DB" offset="100%"></stop>
        </linearGradient>
        <linearGradient x1="0%" y1="49.9588477%" x2="100%" y2="49.9588477%" id="linearGradient-18">
            <stop stop-color="#CFD8DB" offset="0%"></stop>
            <stop stop-color="#CFD8DB" offset="100%"></stop>
        </linearGradient>
        <linearGradient x1="-1.5%" y1="50.0206016%" x2="98.5%" y2="50.0206016%" id="linearGradient-19">
            <stop stop-color="#CFD8DB" offset="0%"></stop>
            <stop stop-color="#CFD8DB" offset="100%"></stop>
        </linearGradient>
        <linearGradient x1="0%" y1="49.9177632%" x2="100%" y2="49.9177632%" id="linearGradient-20">
            <stop stop-color="#CFD8DB" offset="0%"></stop>
            <stop stop-color="#CFD8DB" offset="100%"></stop>
        </linearGradient>
        <linearGradient x1="0%" y1="50.0019796%" x2="100%" y2="50.0019796%" id="linearGradient-21">
            <stop stop-color="#CFD8DB" offset="0%"></stop>
            <stop stop-color="#CFD8DB" offset="100%"></stop>
        </linearGradient>
        <linearGradient x1="0%" y1="50%" x2="100%" y2="50%" id="linearGradient-22">
            <stop stop-color="#CFD8DB" offset="0%"></stop>
            <stop stop-color="#CFD8DB" offset="100%"></stop>
        </linearGradient>
        <linearGradient x1="0%" y1="49.9793984%" x2="100%" y2="49.9793984%" id="linearGradient-23">
            <stop stop-color="#CFD8DB" offset="0%"></stop>
            <stop stop-color="#CFD8DB" offset="100%"></stop>
        </linearGradient>
        <linearGradient x1="0%" y1="49.9588477%" x2="100%" y2="49.9588477%" id="linearGradient-24">
            <stop stop-color="#CFD8DB" offset="0%"></stop>
            <stop stop-color="#CFD8DB" offset="100%"></stop>
        </linearGradient>
        <linearGradient x1="-1.5%" y1="50.0206016%" x2="98.5%" y2="50.0206016%" id="linearGradient-25">
            <stop stop-color="#CFD8DB" offset="0%"></stop>
            <stop stop-color="#CFD8DB" offset="100%"></stop>
        </linearGradient>
        <linearGradient x1="0%" y1="49.9177632%" x2="100%" y2="49.9177632%" id="linearGradient-26">
            <stop stop-color="#CFD8DB" offset="0%"></stop>
            <stop stop-color="#CFD8DB" offset="100%"></stop>
        </linearGradient>
        <linearGradient x1="0%" y1="50.0019796%" x2="100%" y2="50.0019796%" id="linearGradient-27">
            <stop stop-color="#CFD8DB" offset="0%"></stop>
            <stop stop-color="#CFD8DB" offset="100%"></stop>
        </linearGradient>
        <linearGradient x1="0%" y1="50%" x2="100%" y2="50%" id="linearGradient-28">
            <stop stop-color="#CFD8DB" offset="0%"></stop>
            <stop stop-color="#CFD8DB" offset="100%"></stop>
        </linearGradient>
        <linearGradient x1="0%" y1="49.9793984%" x2="100%" y2="49.9793984%" id="linearGradient-29">
            <stop stop-color="#CFD8DB" offset="0%"></stop>
            <stop stop-color="#CFD8DB" offset="100%"></stop>
        </linearGradient>
        <linearGradient x1="0%" y1="49.9588477%" x2="100%" y2="49.9588477%" id="linearGradient-30">
            <stop stop-color="#CFD8DB" offset="0%"></stop>
            <stop stop-color="#CFD8DB" offset="100%"></stop>
        </linearGradient>
        <linearGradient x1="-1.5%" y1="50.0206016%" x2="98.5%" y2="50.0206016%" id="linearGradient-31">
            <stop stop-color="#CFD8DB" offset="0%"></stop>
            <stop stop-color="#CFD8DB" offset="100%"></stop>
        </linearGradient>
        <linearGradient x1="0%" y1="49.9177632%" x2="100%" y2="49.9177632%" id="linearGradient-32">
            <stop stop-color="#CFD8DB" offset="0%"></stop>
            <stop stop-color="#CFD8DB" offset="100%"></stop>
        </linearGradient>
        <linearGradient x1="0%" y1="50.0019796%" x2="100%" y2="50.0019796%" id="linearGradient-33">
            <stop stop-color="#CFD8DB" offset="0%"></stop>
            <stop stop-color="#CFD8DB" offset="100%"></stop>
        </linearGradient>
    </defs>
    <g id="Services" stroke="none" stroke-width="1" fill="none" fill-rule="evenodd">
        <g id="Service_desktop-Fintech-Software" transform="translate(-814.000000, -4834.000000)">
            <rect fill="none" x="0" y="0" width="1400" height="5763"></rect>
            <g id="Book-a-call" transform="translate(128.000000, 4758.000000)">
                <g id="illustration-webdevelop" transform="translate(686.000000, 76.000000)" fill-rule="nonzero">
                    <g id="Group-3" transform="translate(26.000000, 93.000000)">
                        <path d="M136.717884,267.457965 C42.1216388,214.719524 94.5499313,243.704984 0,190.943197 L265.976825,34 C266.25,34.0818749 403.5,108.331875 403.5,108.331875 C341.207736,144.128958 199.010148,231.707574 136.717884,267.457965 Z" id="Path" fill="#0743C9" opacity="0.403915" filter="url(#filter-1)"></path>
                        <path d="M136.717884,233.457965 C42.1216388,180.719524 94.5499313,209.704984 0,156.943197 L265.976825,-2.34479103e-13 C266.25,0.0818748935 403.5,74.3318749 403.5,74.3318749 C341.207736,110.128958 199.010148,197.707574 136.717884,233.457965 Z" id="Path" fill="#F9F9F9"></path>
                        <polygon id="Path" fill="#EDEFF1" points="136.729704 233.02616 9.34759838e-13 156.330586 9.34759838e-13 164.318031 22.9580019 177.338216 136.729704 241.295259 323.594677 129.910336 323.594677 121.782065"></polygon>
                        <polygon id="Path" fill="#CFD8DB" points="136.918929 233.212513 136.525635 233.002127 136.525635 241.061495 136.918929 241.295259 403.5 82.5818749 403.5 73.5818749"></polygon>
                        <g id="webdev-logo-iso" transform="translate(200.495713, 111.590639) rotate(-1.000000) translate(-200.495713, -111.590639) translate(88.495713, 45.090639)" fill="#2267FF">
                            <g id="Group-2" transform="translate(0.243000, 0.243000)">
                                <path d="M0.242999991,98.7430462 L170.841143,0.242999991 C181.448093,2.40569991 194.229893,5.10299981 204.861142,7.18064973 L204.861142,7.18064973 C208.141642,12.6116995 211.045492,17.8240493 214.362442,23.2550991 L216.792442,26.900099 L46.1942982,125.387995 C36.3041986,123.383245 26.559899,121.390645 16.7912994,119.422345 L12.1621495,118.462495 L12.1621495,118.462495 C11.7136533,117.573591 11.2104885,116.713341 10.6555496,115.886696 C7.21709973,110.151896 3.73004986,104.441396 0.242999991,98.7430462 Z M66.7277975,100.103846 C62.8762476,95.8513463 59.4377977,91.7324965 55.7927979,87.7108467 L55.9871979,87.5893467 C63.0706476,89.7641966 70.3484973,91.8296965 77.3590471,93.9802464 L82.0975469,91.2464965 L66.6548975,74.0906972 L61.9649976,76.7879971 L74.1757472,89.4482966 L58.0648478,84.4910968 L50.4832481,88.8650966 L58.8910478,98.1598463 L58.8910478,98.1598463 L37.1182486,91.0763965 L32.4404988,93.7979964 L61.8920976,102.922646 L66.7520975,100.128146 L66.7277975,100.103846 Z M165.981144,28.6375489 C167.669994,25.879499 165.519444,23.7775491 161.995944,22.9756491 C158.083644,22.0765492 154.705944,23.2429491 151.559094,24.8467491 C151.340394,24.956099 151.158144,25.077599 150.939444,25.199099 C147.391644,27.252449 143.819545,29.3057989 140.283895,31.3712988 L138.327745,32.5862988 L161.096844,45.7933483 C165.410094,43.3633483 170.330844,40.5202485 174.619793,37.9565986 C175.600774,37.3358404 176.495462,36.5882246 177.280643,35.7331486 C179.795693,33.1087487 178.495643,29.7431989 173.635643,28.4431489 C171.112075,27.8277836 168.470223,27.8948783 165.981144,28.6375489 L165.981144,28.6375489 Z M105.012446,66.3025475 L118.559695,58.4414978 L115.497896,56.6797478 L106.737746,61.7462976 L100.298246,58.0283978 L114.149246,50.0579981 L111.221096,48.3691482 L92.5829965,59.0975977 L105.012446,66.3025475 Z M134.172445,61.2116977 L131.280745,59.5471477 L112.132346,70.5185973 L114.999746,72.1831473 L134.172445,61.2116977 Z" id="Shape"></path>
                                <path d="M146.164494,31.6871988 C148.715994,30.2170488 151.024494,28.8562489 153.369444,27.544049 C155.981694,26.086049 157.779894,25.879499 159.833244,26.729999 C162.166044,27.6776989 162.688494,28.9655989 160.477194,30.6908988 C159.926407,31.1293675 159.350313,31.5350678 158.751894,31.9058988 L161.181894,33.3395987 C161.886594,32.9629487 162.822144,32.4526488 163.453944,32.1245988 C166.637244,30.6665988 169.395294,30.6908988 171.509393,32.1974988 C173.222543,33.4124987 173.198243,34.8826487 171.084143,36.2069986 C168.398994,37.8958486 165.482994,39.4753485 162.579144,41.1763484 L146.164494,31.6871988 Z" id="Shape-2"></path>
                                <path d="M70.7129973,131.657395 L60.8714977,125.971195 L64.4192975,123.917845 C66.7691676,122.573644 69.55328,122.207084 72.1709973,122.897245 C72.9502786,123.115012 73.7007858,123.425004 74.4065972,123.820645 C75.0476881,124.162361 75.6137067,124.629223 76.0711471,125.193595 C76.4186015,125.609175 76.607957,126.134207 76.6057662,126.675895 C76.5762236,127.229433 76.3672361,127.7583 76.0103971,128.182495 C75.5476006,128.746632 74.9880718,129.223877 74.3579972,129.591895 L70.7129973,131.645245 L70.7129973,131.657395 Z M73.6411472,124.270195 C73.0129236,123.906236 72.3386397,123.62835 71.6363973,123.443995 C70.1898983,123.071059 68.6724465,123.071059 67.2259474,123.443995 C66.4653321,123.619759 65.7360232,123.910664 65.0632475,124.306645 L62.2687476,125.922595 L70.8466473,130.867645 L73.6289972,129.263845 C74.2108649,128.958263 74.7301659,128.546119 75.1598971,128.048845 C75.4598123,127.683587 75.6154292,127.221059 75.5972971,126.748795 C75.5458515,126.296787 75.3547298,125.872072 75.0505471,125.533795 C74.677639,125.033279 74.216477,124.605057 73.6897472,124.270195 L73.6411472,124.270195 Z" id="Shape-3"></path>
                                <polygon id="Shape-4" points="103.044146 112.278146 103.688096 112.642646 96.5560463 116.749346 86.7145467 111.075296 93.7007964 107.041496 94.3325964 107.405996 88.1239466 111.002396 91.9876465 113.225846 97.4186963 110.091146 98.0261963 110.443496 92.5951465 113.578196 96.6775463 115.935296"></polygon>
                                <polygon id="Shape-5" points="110.625746 97.2728963 123.650545 100.091696 118.754095 92.5708465 119.568145 92.1091465 124.901995 100.395446 124.185145 100.808546 109.811696 97.7467463"></polygon>
                                <polygon id="Shape-6" points="152.616144 83.6648968 153.247944 84.0293968 146.115894 88.1360966 136.274395 82.4620469 143.260645 78.428247 143.892445 78.792747 137.683795 82.3891469 141.547495 84.6125968 146.978544 81.4778969 147.586044 81.8302469 142.154995 84.9649468 146.237394 87.3220467"></polygon>
                                <polygon id="Shape-7" points="170.391594 74.1271472 160.550094 68.4530974 161.327694 68.0035474 170.525244 73.3130972 176.916143 69.6316473 177.547943 69.9961473"></polygon>
                                <path d="M198.543142,57.9554978 C197.787332,58.3930932 196.967269,58.7088176 196.113143,58.8910478 C195.226343,59.0773507 194.32196,59.1669742 193.415843,59.1583477 C192.534979,59.1447969 191.658546,59.0306568 190.803593,58.8181478 C190.030422,58.6392052 189.286102,58.3529283 188.592293,57.9676478 C188.004605,57.6494635 187.494334,57.2055689 187.097843,56.6675978 C186.762943,56.2208022 186.572215,55.6825247 186.551093,55.1245479 C186.542304,54.5712249 186.712797,54.0299124 187.037093,53.581498 C187.449508,53.003966 187.990151,52.5298641 188.616593,52.196398 C189.372171,51.7609901 190.192536,51.4492516 191.046593,51.272998 C191.940396,51.0798747 192.854069,50.9942178 193.768193,51.0178481 C194.652236,51.032616 195.532115,51.1426009 196.392593,51.345898 C197.148949,51.5234868 197.876855,51.8056525 198.555292,52.184248 C199.152889,52.5133542 199.674502,52.9645904 200.086192,53.508598 C200.402073,53.9544304 200.583397,54.4815369 200.608642,55.0273479 C200.614849,55.5802918 200.444606,56.1208145 200.122642,56.5703978 C199.710557,57.1482286 199.169838,57.6223981 198.543142,57.9554978 L198.543142,57.9554978 Z M189.309143,57.5302478 C189.919095,57.8702384 190.57336,58.1237659 191.253143,58.2835478 C191.991121,58.4771654 192.750131,58.5791829 193.513043,58.5872978 C194.288739,58.5965816 195.063044,58.5191511 195.821543,58.3564478 C196.554493,58.2080301 197.25965,57.9456459 197.911342,57.5788478 C198.452785,57.2845131 198.918588,56.8686174 199.272142,56.3638479 C199.526061,55.9619078 199.64523,55.4894855 199.612342,55.0151979 C199.553658,54.5433386 199.364288,54.0972656 199.065592,53.727298 C198.736275,53.2865977 198.323427,52.9150341 197.850592,52.633798 C197.225848,52.2886711 196.554808,52.0349854 195.857993,51.880498 C195.118383,51.6968738 194.360088,51.5990293 193.598093,51.588898 C192.827322,51.5715138 192.057039,51.6407985 191.301743,51.795448 C190.584143,51.9438429 189.89499,52.2063774 189.260543,52.573048 C188.70685,52.8544591 188.234251,53.2726885 187.887593,53.788048 C187.625358,54.1867647 187.501546,54.6606656 187.535243,55.1366979 C187.581475,55.6132516 187.767458,56.0655281 188.069843,56.4367479 C188.406038,56.8801054 188.827375,57.2518726 189.309143,57.5302478 Z" id="Shape-8"></path>
                                <path d="M220.595392,45.1979983 L210.753892,39.5117985 L215.164342,36.9724486 C215.633134,36.7035185 216.141671,36.5107665 216.670942,36.4013986 C217.763215,36.1581707 218.895618,36.1581707 219.987892,36.4013986 C220.454774,36.5091137 220.904529,36.6808383 221.324392,36.9116986 C221.69124,37.1018786 222.010896,37.3717181 222.259942,37.7014486 C222.467444,37.9679449 222.593968,38.2884721 222.624442,38.6248485 C222.632955,38.9604765 222.539777,39.2908343 222.357142,39.5725485 C222.095382,39.9279284 221.759602,40.2222546 221.372992,40.4351985 L217.655092,42.5735984 L221.372992,44.6998483 L220.595392,45.1493983 L220.595392,45.1979983 Z M216.950392,42.2212484 L220.595392,40.0949985 C220.89088,39.9380299 221.144892,39.713167 221.336542,39.4388985 C221.478226,39.2239002 221.538543,38.9654002 221.506642,38.7098985 C221.472481,38.4468181 221.357911,38.2007054 221.178592,38.0051986 C220.973469,37.7531253 220.721867,37.5427694 220.437442,37.3855486 C220.089515,37.1859156 219.712281,37.0424026 219.319642,36.9602986 C218.92125,36.8670821 218.513776,36.8181852 218.104642,36.8144986 C217.672125,36.8060855 217.240054,36.846847 216.816742,36.9359986 C216.434644,37.0216416 216.066524,37.1607092 215.723242,37.3490986 L212.078242,39.4388985 L216.938242,42.2333984 L216.950392,42.2212484 Z" id="Shape-9"></path>
                            </g>
                        </g>
                    </g>
                    <g id="Group-20-Copy-2" transform="translate(337.000000, 92.000000)">
                        <polygon id="Shape" stroke="#FFFFFF" stroke-width="0.820260013" fill="#F7F7F7" stroke-linecap="round" stroke-linejoin="round" points="38.3276445 45.1163106 -4.89576989e-15 22.994421 39.8316797 1.46873097e-14 78.1593247 22.1246952"></polygon>
                        <polygon id="Shape" fill="#E6E9ED" points="1.02811168e-13 22.994421 1.02811168e-13 70.8629925 38.3276445 92.9848821 38.3276445 45.1163106"></polygon>
                        <g id="Group-21" transform="translate(4.823129, 36.517973)">
                            <path d="M0.344509179,10.3352754 C0.154242083,10.3352754 0,10.1446962 0,9.90960508 L0,0.425670293 C0,0.190579121 0.154242083,0 0.344509179,0 C0.534776275,0 0.689018358,0.190579121 0.689018358,0.425670293 L0.689018358,9.90960508 C0.689018358,10.1446962 0.534776275,10.3352754 0.344509179,10.3352754 Z" id="Shape" fill="url(#linearGradient-2)"></path>
                            <path d="M3.78960066,13.0913488 C3.59933339,13.0913488 3.44509179,12.9006912 3.44509179,12.665503 L3.44509179,3.18191919 C3.44509179,2.94673108 3.59933339,2.75607343 3.78960066,2.75607343 C3.97986792,2.75607343 4.13411015,2.94673108 4.13411015,3.18191919 L4.13411015,12.665503 C4.13411015,12.9006912 3.97986792,13.0913488 3.78960066,13.0913488 Z" id="Shape" fill="url(#linearGradient-3)"></path>
                            <path d="M7.23469276,15.8474222 C7.04442566,15.8474222 6.89018358,15.6566861 6.89018358,15.421401 L6.89018358,5.93816808 C6.89018358,5.70288302 7.04442566,5.51214686 7.23469276,5.51214686 C7.42495985,5.51214686 7.57920194,5.70288302 7.57920194,5.93816808 L7.57920194,15.421401 C7.57920194,15.6566861 7.42495985,15.8474222 7.23469276,15.8474222 Z" id="Shape" fill="url(#linearGradient-4)"></path>
                            <path d="M18.9480052,40.6520831 C18.7577379,40.6520831 18.6034957,40.4614255 18.6034957,40.2262374 L18.6034957,30.7426535 C18.6034957,30.5074654 18.7577379,30.3168077 18.9480052,30.3168077 C19.1382724,30.3168077 19.292514,30.5074654 19.292514,30.7426535 L19.292514,40.2262374 C19.292514,40.4614255 19.1382724,40.6520831 18.9480052,40.6520831 Z" id="Shape" fill="url(#linearGradient-5)"></path>
                            <path d="M22.3930969,43.4081565 C22.2028297,43.4081565 22.0485875,43.2178909 22.0485875,42.9831863 L22.0485875,33.4978514 C22.0485875,33.2631468 22.2028297,33.0728812 22.3930969,33.0728812 C22.5833642,33.0728812 22.7376058,33.2631468 22.7376058,33.4978514 L22.7376058,42.9831863 C22.7376058,43.2178909 22.5833642,43.4081565 22.3930969,43.4081565 Z" id="Shape" fill="url(#linearGradient-6)"></path>
                            <path d="M25.8381884,46.16423 C25.6479213,46.16423 25.4936792,45.9736509 25.4936792,45.7385597 L25.4936792,36.2546249 C25.4936792,36.0195337 25.6479213,35.8289546 25.8381884,35.8289546 C26.0284556,35.8289546 26.1826976,36.0195337 26.1826976,36.2546249 L26.1826976,45.7385597 C26.1826976,45.9736509 26.0284556,46.16423 25.8381884,46.16423 Z" id="Shape" fill="url(#linearGradient-2)"></path>
                            <path d="M18.6034957,24.0565187 L18.6034957,24.1753559 C18.6034673,24.4001791 18.7337357,24.6081903 18.945838,24.722007 C19.1597092,24.8330177 19.4219093,24.8321531 19.6348988,24.7197348 C19.8478883,24.6073165 19.9797886,24.4001706 19.9815324,24.1753559 L19.9815324,24.0565187 C19.9797823,23.8311014 19.847982,23.6232735 19.6348563,23.5098676 C19.4216062,23.3982633 19.159473,23.3989207 18.946896,23.5115928 C18.7343182,23.624265 18.6034728,23.8318974 18.6034957,24.0565187 Z" id="Shape" fill="url(#linearGradient-7)" opacity="0.6"></path>
                            <path d="M18.6034957,20.6095473 L18.6034957,20.7282263 C18.6025879,20.952965 18.7330896,21.1610746 18.9458426,21.2741499 C19.1593576,21.3876347 19.4230897,21.3880682 19.6370511,21.2752861 C19.8510132,21.162504 19.9824486,20.9537727 19.9815324,20.7282263 L19.9815324,20.6095473 C19.9808978,20.3851842 19.8485893,20.1783409 19.6348547,20.0675797 C19.4226417,19.9538269 19.1598811,19.952792 18.9466007,20.0648693 C18.7333203,20.1769464 18.6023328,20.3848929 18.6034957,20.6095473 Z" id="Shape" fill="url(#linearGradient-8)" opacity="0.6"></path>
                            <path d="M18.6034957,17.1644555 L18.6034957,17.2831345 C18.6025879,17.5078732 18.7330896,17.7159828 18.9458426,17.8290581 C19.1593576,17.9425429 19.4230897,17.9429764 19.6370511,17.8301943 C19.8510132,17.7174122 19.9824486,17.5086809 19.9815324,17.2831345 L19.9815324,17.1644555 C19.9808978,16.9400923 19.8485893,16.7332491 19.6348547,16.6224879 C19.4226417,16.5087351 19.1598811,16.5077002 18.9466007,16.6197775 C18.7333203,16.7318546 18.6023328,16.9398011 18.6034957,17.1644555 Z" id="Shape" fill="url(#linearGradient-8)" opacity="0.6"></path>
                        </g>
                        <polygon id="Shape" fill="url(#linearGradient-9)" points="38.3276445 45.1163106 78.1593247 22.1246952 78.1593247 69.9932667 38.3276445 92.9848821"></polygon>
                    </g>
                    <g id="Group-20-Copy-4" transform="translate(191.000000, 52.000000)">
                        <polygon id="Shape" stroke="#FFFFFF" stroke-width="0.569625015" fill="#F7F7F7" stroke-linecap="round" stroke-linejoin="round" points="26.6164201 31.3307716 -3.39984024e-15 15.9683481 27.660889 1.01995207e-14 54.2773095 15.3643719"></polygon>
                        <polygon id="Shape" fill="#E6E9ED" points="7.13966451e-14 15.9683481 7.13966451e-14 49.210412 26.6164201 64.5728355 26.6164201 31.3307716"></polygon>
                        <g id="Group-21" transform="translate(3.349395, 25.359704)">
                            <path d="M0.239242488,7.17727464 C0.107112559,7.17727464 0,7.04492803 0,6.88167027 L0,0.295604374 C0,0.132346614 0.107112559,0 0.239242488,0 C0.371372418,0 0.478484976,0.132346614 0.478484976,0.295604374 L0.478484976,6.88167027 C0.478484976,7.04492803 0.371372418,7.17727464 0.239242488,7.17727464 Z" id="Shape" fill="url(#linearGradient-10)"></path>
                            <path d="M2.63166715,9.09121455 C2.4995371,9.09121455 2.39242488,8.95881341 2.39242488,8.79548833 L2.39242488,2.20966613 C2.39242488,2.04634105 2.4995371,1.91393991 2.63166715,1.91393991 C2.7637972,1.91393991 2.87090986,2.04634105 2.87090986,2.20966613 L2.87090986,8.79548833 C2.87090986,8.95881341 2.7637972,9.09121455 2.63166715,9.09121455 Z" id="Shape" fill="url(#linearGradient-11)"></path>
                            <path d="M5.02409225,11.0051545 C4.89196232,11.0051545 4.78484976,10.8726988 4.78484976,10.7093064 L4.78484976,4.12372788 C4.78484976,3.96033548 4.89196232,3.82787981 5.02409225,3.82787981 C5.15622218,3.82787981 5.26333474,3.96033548 5.26333474,4.12372788 L5.26333474,10.7093064 C5.26333474,10.8726988 5.15622218,11.0051545 5.02409225,11.0051545 Z" id="Shape" fill="url(#linearGradient-12)"></path>
                            <path d="M13.1583371,28.2306136 C13.026207,28.2306136 12.9190944,28.0982125 12.9190944,27.9348874 L12.9190944,21.3490652 C12.9190944,21.1857401 13.026207,21.053339 13.1583371,21.053339 C13.2904671,21.053339 13.3975793,21.1857401 13.3975793,21.3490652 L13.3975793,27.9348874 C13.3975793,28.0982125 13.2904671,28.2306136 13.1583371,28.2306136 Z" id="Shape" fill="url(#linearGradient-13)"></path>
                            <path d="M15.5507619,30.1445535 C15.4186319,30.1445535 15.3115192,30.0124246 15.3115192,29.8494353 L15.3115192,23.262397 C15.3115192,23.0994078 15.4186319,22.9672789 15.5507619,22.9672789 C15.682892,22.9672789 15.7900042,23.0994078 15.7900042,23.262397 L15.7900042,29.8494353 C15.7900042,30.0124246 15.682892,30.1445535 15.5507619,30.1445535 Z" id="Shape" fill="url(#linearGradient-14)"></path>
                            <path d="M17.9431866,32.0584934 C17.8110566,32.0584934 17.7039441,31.9261469 17.7039441,31.762889 L17.7039441,25.1768232 C17.7039441,25.0135654 17.8110566,24.8812188 17.9431866,24.8812188 C18.0753166,24.8812188 18.1824291,25.0135654 18.1824291,25.1768232 L18.1824291,31.762889 C18.1824291,31.9261469 18.0753166,32.0584934 17.9431866,32.0584934 Z" id="Shape" fill="url(#linearGradient-10)"></path>
                            <path d="M12.9190944,16.705916 L12.9190944,16.7884418 C12.9190747,16.944569 13.0095388,17.0890212 13.1568321,17.1680606 C13.3053538,17.2451514 13.4874372,17.2445509 13.6353466,17.1664827 C13.783256,17.0884145 13.8748534,16.9445631 13.8760643,16.7884418 L13.8760643,16.705916 C13.874849,16.5493761 13.783321,16.4050512 13.635317,16.3262972 C13.4872267,16.2487941 13.3051898,16.2492507 13.1575668,16.3274952 C13.0099434,16.4057398 12.9190785,16.5499289 12.9190944,16.705916 Z" id="Shape" fill="url(#linearGradient-7)" opacity="0.6"></path>
                            <path d="M12.9190944,14.3121858 L12.9190944,14.3946018 C12.918464,14.5506703 13.0090902,14.6951909 13.1568353,14.7737154 C13.3051096,14.8525242 13.4882569,14.8528253 13.6368412,14.7745044 C13.785426,14.6961835 13.8767006,14.5512312 13.8760643,14.3946018 L13.8760643,14.3121858 C13.8756236,14.1563781 13.7837428,14.0127369 13.6353159,13.9358194 C13.4879458,13.8568244 13.3054732,13.8561057 13.1573618,13.9339372 C13.0092504,14.0117685 12.9182868,14.1561758 12.9190944,14.3121858 Z" id="Shape" fill="url(#linearGradient-8)" opacity="0.6"></path>
                            <path d="M12.9190944,11.9197609 L12.9190944,12.0021769 C12.918464,12.1582454 13.0090902,12.302766 13.1568353,12.3812905 C13.3051096,12.4600994 13.4882569,12.4604004 13.6368412,12.3820795 C13.785426,12.3037586 13.8767006,12.1588063 13.8760643,12.0021769 L13.8760643,11.9197609 C13.8756236,11.7639531 13.7837428,11.620312 13.6353159,11.5433945 C13.4879458,11.4643995 13.3054732,11.4636808 13.1573618,11.5415123 C13.0092504,11.6193436 12.9182868,11.7637509 12.9190944,11.9197609 Z" id="Shape" fill="url(#linearGradient-8)" opacity="0.6"></path>
                        </g>
                        <polygon id="Shape" fill="url(#linearGradient-15)" points="26.6164201 31.3307716 54.2773095 15.3643719 54.2773095 48.6064358 26.6164201 64.5728355"></polygon>
                    </g>
                    <g id="Group-20-Copy-5" transform="translate(69.000000, 187.000000)">
                        <polygon id="Shape" stroke="#FFFFFF" stroke-width="0.569625015" fill="#F7F7F7" stroke-linecap="round" stroke-linejoin="round" points="23.9547791 28.1976956 -3.05985634e-15 14.3715139 24.8948011 9.17956902e-15 48.8495805 13.8279352"></polygon>
                        <polygon id="Shape" fill="#E6E9ED" points="6.42569831e-14 14.3715139 6.42569831e-14 44.2893726 23.9547791 58.1155543 23.9547791 28.1976956"></polygon>
                        <g id="Group-21" transform="translate(3.014455, 22.823734)">
                            <path d="M0.215318248,6.45954744 C0.0964013067,6.45954744 0,6.34043548 0,6.19350349 L0,0.266043947 C0,0.119111957 0.0964013067,0 0.215318248,0 C0.334235189,0 0.430636496,0.119111957 0.430636496,0.266043947 L0.430636496,6.19350349 C0.430636496,6.34043548 0.334235189,6.45954744 0.215318248,6.45954744 Z" id="Shape" fill="url(#linearGradient-16)"></path>
                            <path d="M2.36850053,8.18209342 C2.24958348,8.18209342 2.15318248,8.06293239 2.15318248,7.91593981 L2.15318248,1.9886996 C2.15318248,1.84170702 2.24958348,1.72254598 2.36850053,1.72254598 C2.48741758,1.72254598 2.58381897,1.84170702 2.58381897,1.9886996 L2.58381897,7.91593981 C2.58381897,8.06293239 2.48741758,8.18209342 2.36850053,8.18209342 Z" id="Shape" fill="url(#linearGradient-17)"></path>
                            <path d="M4.52168321,9.9046394 C4.40276626,9.9046394 4.30636496,9.7854293 4.30636496,9.63837613 L4.30636496,3.71135524 C4.30636496,3.56430207 4.40276626,3.44509197 4.52168321,3.44509197 C4.64060015,3.44509197 4.73700145,3.56430207 4.73700145,3.71135524 L4.73700145,9.63837613 C4.73700145,9.7854293 4.64060015,9.9046394 4.52168321,9.9046394 Z" id="Shape" fill="url(#linearGradient-18)"></path>
                            <path d="M11.8425038,25.4075533 C11.7235868,25.4075533 11.6271854,25.2883922 11.6271854,25.1413996 L11.6271854,19.2141594 C11.6271854,19.0671668 11.7235868,18.9480058 11.8425038,18.9480058 C11.9614209,18.9480058 12.0578219,19.0671668 12.0578219,19.2141594 L12.0578219,25.1413996 C12.0578219,25.2883922 11.9614209,25.4075533 11.8425038,25.4075533 Z" id="Shape" fill="url(#linearGradient-19)"></path>
                            <path d="M13.9956863,27.1300992 C13.8767693,27.1300992 13.7803679,27.0111832 13.7803679,26.8644928 L13.7803679,20.9361582 C13.7803679,20.7894678 13.8767693,20.6705518 13.9956863,20.6705518 C14.1146034,20.6705518 14.2110044,20.7894678 14.2110044,20.9361582 L14.2110044,26.8644928 C14.2110044,27.0111832 14.1146034,27.1300992 13.9956863,27.1300992 Z" id="Shape" fill="url(#linearGradient-20)"></path>
                            <path d="M16.1488686,28.8526452 C16.0299516,28.8526452 15.9335503,28.7335333 15.9335503,28.5866013 L15.9335503,22.6591417 C15.9335503,22.5122097 16.0299516,22.3930978 16.1488686,22.3930978 C16.2677856,22.3930978 16.3641868,22.5122097 16.3641868,22.6591417 L16.3641868,28.5866013 C16.3641868,28.7335333 16.2677856,28.8526452 16.1488686,28.8526452 Z" id="Shape" fill="url(#linearGradient-16)"></path>
                            <path d="M11.6271854,15.035325 L11.6271854,15.1095982 C11.6271677,15.2501127 11.7085854,15.3801197 11.8411493,15.4512552 C11.9748189,15.5206368 12.1386939,15.5200965 12.2718124,15.449835 C12.4049309,15.3795736 12.4873685,15.2501074 12.4884584,15.1095982 L12.4884584,15.035325 C12.4873646,14.8944391 12.4049894,14.7645467 12.2717858,14.693668 C12.1385045,14.6239153 11.9746713,14.6243262 11.8418106,14.6947463 C11.7089495,14.7651664 11.6271711,14.8949366 11.6271854,15.035325 Z" id="Shape" fill="url(#linearGradient-7)" opacity="0.6"></path>
                            <path d="M11.6271854,12.8809677 L11.6271854,12.9551421 C11.626618,13.0956038 11.7081816,13.2256723 11.8411522,13.2963444 C11.9745991,13.3672724 12.1394317,13.3675433 12.2731575,13.2970545 C12.4068839,13.2265657 12.489031,13.0961086 12.4884584,12.9551421 L12.4884584,12.8809677 C12.4880618,12.7407408 12.405369,12.6114637 12.2717848,12.542238 C12.1391517,12.4711424 11.9749263,12.4704957 11.8416261,12.5405439 C11.7083258,12.6105922 11.6264586,12.7405587 11.6271854,12.8809677 Z" id="Shape" fill="url(#linearGradient-8)" opacity="0.6"></path>
                            <path d="M11.6271854,10.7277853 L11.6271854,10.8019596 C11.626618,10.9424213 11.7081816,11.0724898 11.8411522,11.1431619 C11.9745991,11.2140899 12.1394317,11.2143608 12.2731575,11.143872 C12.4068839,11.0733832 12.489031,10.9429261 12.4884584,10.8019596 L12.4884584,10.7277853 C12.4880618,10.5875582 12.405369,10.4582813 12.2717848,10.3890555 C12.1391517,10.3179599 11.9749263,10.3173132 11.8416261,10.3873615 C11.7083258,10.4574097 11.6264586,10.5873762 11.6271854,10.7277853 Z" id="Shape" fill="url(#linearGradient-8)" opacity="0.6"></path>
                        </g>
                        <polygon id="Shape" fill="url(#linearGradient-21)" points="23.9547791 28.1976956 48.8495805 13.8279352 48.8495805 43.7457939 23.9547791 58.1155543"></polygon>
                    </g>
                    <g id="Group-20-Copy-7" transform="translate(158.000000, 93.000000)">
                        <polygon id="Shape" stroke="#FFFFFF" stroke-width="0.740512561" fill="#F7F7F7" stroke-linecap="round" stroke-linejoin="round" points="9.34236379 10.9971012 -1.19334397e-15 5.60489039 9.70897239 3.5800319e-15 19.0513363 5.39289471"></polygon>
                        <polygon id="Shape" fill="#E6E9ED" points="2.50602233e-14 5.60489039 2.50602233e-14 17.2728552 9.34236379 22.6650661 9.34236379 10.9971012"></polygon>
                        <g id="Group-21" transform="translate(1.175638, 8.901256)">
                            <path d="M0.0839741163,2.51922349 C0.0375965094,2.51922349 0,2.47276983 0,2.41546635 L0,0.103757139 C0,0.046453663 0.0375965094,0 0.0839741163,0 C0.130351723,0 0.167948233,0.046453663 0.167948233,0.103757139 L0.167948233,2.41546635 C0.167948233,2.47276983 0.130351723,2.51922349 0.0839741163,2.51922349 Z" id="Shape" fill="url(#linearGradient-22)"></path>
                            <path d="M0.923715203,3.19101642 C0.877337554,3.19101642 0.839741163,3.14454362 0.839741163,3.08721651 L0.839741163,0.775592839 C0.839741163,0.718265733 0.877337554,0.67179293 0.923715203,0.67179293 C0.970092852,0.67179293 1.0076894,0.718265733 1.0076894,0.775592839 L1.0076894,3.08721651 C1.0076894,3.14454362 0.970092852,3.19101642 0.923715203,3.19101642 Z" id="Shape" fill="url(#linearGradient-23)"></path>
                            <path d="M1.76345644,3.86280935 C1.71707884,3.86280935 1.67948233,3.81631741 1.67948233,3.75896667 L1.67948233,1.44742854 C1.67948233,1.3900778 1.71707884,1.34358586 1.76345644,1.34358586 C1.80983405,1.34358586 1.84743056,1.3900778 1.84743056,1.44742854 L1.84743056,3.75896667 C1.84743056,3.81631741 1.80983405,3.86280935 1.76345644,3.86280935 Z" id="Shape" fill="url(#linearGradient-24)"></path>
                            <path d="M4.61857647,9.90894572 C4.57219882,9.90894572 4.53460228,9.86247292 4.53460228,9.80514581 L4.53460228,7.49352214 C4.53460228,7.43619504 4.57219882,7.38972223 4.61857647,7.38972223 C4.66495412,7.38972223 4.70255051,7.43619504 4.70255051,7.49352214 L4.70255051,9.80514581 C4.70255051,9.86247292 4.66495412,9.90894572 4.61857647,9.90894572 Z" id="Shape" fill="url(#linearGradient-25)"></path>
                            <path d="M5.45831764,10.5807387 C5.41193999,10.5807387 5.37434344,10.5343614 5.37434344,10.4771521 L5.37434344,8.16510165 C5.37434344,8.10789242 5.41193999,8.06151516 5.45831764,8.06151516 C5.50469528,8.06151516 5.54229168,8.10789242 5.54229168,8.16510165 L5.54229168,10.4771521 C5.54229168,10.5343614 5.50469528,10.5807387 5.45831764,10.5807387 Z" id="Shape" fill="url(#linearGradient-26)"></path>
                            <path d="M6.29805872,11.2525316 C6.2516811,11.2525316 6.21408461,11.2060779 6.21408461,11.1487744 L6.21408461,8.83706524 C6.21408461,8.77976175 6.2516811,8.73330809 6.29805872,8.73330809 C6.34443635,8.73330809 6.38203284,8.77976175 6.38203284,8.83706524 L6.38203284,11.1487744 C6.38203284,11.2060779 6.34443635,11.2525316 6.29805872,11.2525316 Z" id="Shape" fill="url(#linearGradient-22)"></path>
                            <path d="M4.53460228,5.86377671 L4.53460228,5.89274327 C4.53460228,5.94754393 4.56634828,5.99824666 4.61804822,6.0259895 C4.67017933,6.05304834 4.73409061,6.05283759 4.78600681,6.02543563 C4.83792301,5.99803369 4.87007371,5.94754186 4.87049875,5.89274327 L4.87049875,5.86377671 C4.87007217,5.80883123 4.83794585,5.75817319 4.78599645,5.7305305 C4.73401674,5.70332694 4.67012177,5.70348718 4.61830612,5.73095102 C4.56649028,5.75841486 4.53460228,5.80902526 4.53460228,5.86377671 Z" id="Shape" fill="url(#linearGradient-7)" opacity="0.6"></path>
                            <path d="M4.53460228,5.0235774 L4.53460228,5.0525054 C4.53438101,5.10728545 4.56619081,5.15801218 4.61804935,5.18557429 C4.67009364,5.21323619 4.73437833,5.21334187 4.78653142,5.18585123 C4.8386847,5.1583606 4.87072208,5.10748232 4.87049875,5.0525054 L4.87049875,5.0235774 C4.87034406,4.96888887 4.83809388,4.91847083 4.78599605,4.89147278 C4.73426914,4.86374552 4.67022125,4.86349328 4.61823414,4.89081211 C4.56624703,4.91813092 4.53431884,4.96881788 4.53460228,5.0235774 Z" id="Shape" fill="url(#linearGradient-8)" opacity="0.6"></path>
                            <path d="M4.53460228,4.18383623 L4.53460228,4.21276424 C4.53438101,4.26754429 4.56619081,4.31827102 4.61804935,4.34583311 C4.67009364,4.37349503 4.73437833,4.37360071 4.78653142,4.34611006 C4.8386847,4.31861942 4.87072208,4.26774116 4.87049875,4.21276424 L4.87049875,4.18383623 C4.87034406,4.12914769 4.83809388,4.07872967 4.78599605,4.05173162 C4.73426914,4.02400436 4.67022125,4.02375212 4.61823414,4.05107095 C4.56624703,4.07838976 4.53431884,4.12907672 4.53460228,4.18383623 Z" id="Shape" fill="url(#linearGradient-8)" opacity="0.6"></path>
                        </g>
                        <polygon id="Shape" fill="url(#linearGradient-27)" points="9.34236379 10.9971012 19.0513363 5.39289471 19.0513363 17.0608596 9.34236379 22.6650661"></polygon>
                    </g>
                    <g id="Group-20-Copy-6" transform="translate(49.000000, 219.000000)">
                        <polygon id="Shape" stroke="#FFFFFF" stroke-width="0.683549978" fill="#F7F7F7" stroke-linecap="round" stroke-linejoin="round" points="14.3728666 16.9186163 -1.83591369e-15 8.62290781 14.9368798 5.50774108e-15 29.3097465 8.29676064"></polygon>
                        <polygon id="Shape" fill="#E6E9ED" points="3.85541876e-14 8.62290781 3.85541876e-14 26.573622 14.3728666 34.8693305 14.3728666 16.9186163"></polygon>
                        <g id="Group-21" transform="translate(1.808673, 13.694240)">
                            <path d="M0.129190941,3.87572823 C0.0578407806,3.87572823 0,3.80426106 0,3.71610187 L0,0.159626359 C0,0.07146717 0.0578407806,0 0.129190941,0 C0.200541102,0 0.258381882,0.07146717 0.258381882,0.159626359 L0.258381882,3.71610187 C0.258381882,3.80426106 0.200541102,3.87572823 0.129190941,3.87572823 Z" id="Shape" fill="url(#linearGradient-28)"></path>
                            <path d="M1.42110023,4.90925576 C1.34975001,4.90925576 1.29190941,4.83775914 1.29190941,4.7495636 L1.29190941,1.19321969 C1.29190941,1.10502414 1.34975001,1.03352753 1.42110023,1.03352753 C1.49245046,1.03352753 1.55029129,1.10502414 1.55029129,1.19321969 L1.55029129,4.7495636 C1.55029129,4.83775914 1.49245046,4.90925576 1.42110023,4.90925576 Z" id="Shape" fill="url(#linearGradient-29)"></path>
                            <path d="M2.71300976,5.94278329 C2.6416596,5.94278329 2.58381882,5.87125723 2.58381882,5.78302533 L2.58381882,2.22681301 C2.58381882,2.13858112 2.6416596,2.06705506 2.71300976,2.06705506 C2.78435992,2.06705506 2.8422007,2.13858112 2.8422007,2.22681301 L2.8422007,5.78302533 C2.8422007,5.87125723 2.78435992,5.94278329 2.71300976,5.94278329 Z" id="Shape" fill="url(#linearGradient-30)"></path>
                            <path d="M7.10550187,15.244531 C7.03415165,15.244531 6.97631082,15.1730344 6.97631082,15.0848389 L6.97631082,11.528495 C6.97631082,11.4402994 7.03415165,11.3688028 7.10550187,11.3688028 C7.1768521,11.3688028 7.2346927,11.4402994 7.2346927,11.528495 L7.2346927,15.0848389 C7.2346927,15.1730344 7.1768521,15.244531 7.10550187,15.244531 Z" id="Shape" fill="url(#linearGradient-31)"></path>
                            <path d="M8.39741128,16.2780586 C8.32606106,16.2780586 8.26822023,16.2067089 8.26822023,16.1186947 L8.26822023,12.5616942 C8.26822023,12.47368 8.32606106,12.4023303 8.39741128,12.4023303 C8.46876151,12.4023303 8.52660211,12.47368 8.52660211,12.5616942 L8.52660211,16.1186947 C8.52660211,16.2067089 8.46876151,16.2780586 8.39741128,16.2780586 Z" id="Shape" fill="url(#linearGradient-32)"></path>
                            <path d="M9.68932058,17.3115861 C9.61797039,17.3115861 9.56012964,17.240119 9.56012964,17.1519597 L9.56012964,13.5954842 C9.56012964,13.507325 9.61797039,13.4358579 9.68932058,13.4358579 C9.76067076,13.4358579 9.81851152,13.507325 9.81851152,13.5954842 L9.81851152,17.1519597 C9.81851152,17.240119 9.76067076,17.3115861 9.68932058,17.3115861 Z" id="Shape" fill="url(#linearGradient-28)"></path>
                            <path d="M6.97631082,9.02119444 L6.97631082,9.06575838 C6.97630019,9.15006708 7.02515081,9.22807128 7.10468918,9.27075256 C7.18489089,9.31238155 7.28321593,9.31205732 7.363087,9.26990046 C7.44295807,9.22774363 7.49242068,9.1500639 7.49307458,9.06575838 L7.49307458,9.02119444 C7.49241831,8.93666294 7.4429932,8.85872749 7.36307106,8.81620029 C7.28310227,8.77434866 7.18480232,8.77459518 7.10508595,8.81684724 C7.02536927,8.85909929 6.97631082,8.93696145 6.97631082,9.02119444 Z" id="Shape" fill="url(#linearGradient-7)" opacity="0.6"></path>
                            <path d="M6.97631082,7.72858018 L6.97631082,7.77308481 C6.9759704,7.85736179 7.02490855,7.93540292 7.10469092,7.97780615 C7.18475905,8.02036293 7.28365857,8.02052551 7.36389409,7.97823222 C7.4441299,7.93593895 7.49341818,7.85766468 7.49307458,7.77308481 L7.49307458,7.72858018 C7.49283661,7.644444 7.44322094,7.56687779 7.36307044,7.52534233 C7.28349059,7.48268501 7.18495537,7.48229695 7.10497521,7.52432591 C7.02499505,7.56635485 6.97587475,7.64433478 6.97631082,7.72858018 Z" id="Shape" fill="url(#linearGradient-8)" opacity="0.6"></path>
                            <path d="M6.97631082,6.43667077 L6.97631082,6.4811754 C6.9759704,6.56545239 7.02490855,6.64349351 7.10469092,6.68589672 C7.18475905,6.72845353 7.28365857,6.7286161 7.36389409,6.68632281 C7.4441299,6.64402952 7.49341818,6.56575527 7.49307458,6.4811754 L7.49307458,6.43667077 C7.49283661,6.35253456 7.44322094,6.27496838 7.36307044,6.23343292 C7.28349059,6.1907756 7.18495537,6.19038754 7.10497521,6.2324165 C7.02499505,6.27444544 6.97587475,6.35242537 6.97631082,6.43667077 Z" id="Shape" fill="url(#linearGradient-8)" opacity="0.6"></path>
                        </g>
                        <polygon id="Shape" fill="url(#linearGradient-33)" points="14.3728666 16.9186163 29.3097465 8.29676064 29.3097465 26.2474748 14.3728666 34.8693305"></polygon>
                    </g>
                </g>
                <g id="Book-a-call-text" transform="translate(98.000000, 88.000000)" fill="#FFFFFF" font-family="Avenir-Black, Avenir" font-size="34" font-weight="700" letter-spacing="0.3" line-spacing="44">
                    <text id="Do-you-consieder-bui">
                        <tspan x="0" y="34">Do you consieder building a similar </tspan>
                        <tspan x="0" y="78">product?</tspan>
                    </text>
                </g>
            </g>
        </g>
    </g>
</svg>