<svg id="Слой_1" data-name="Слой 1" xmlns="http://www.w3.org/2000/svg" xmlns:xlink="http://www.w3.org/1999/xlink" width="1000" height="1000" viewBox="0 0 1000 1000">
  <defs>
    <style>
      .cls-1 {
        fill: #cfd8db;
      }

      .cls-2 {
        fill: #edeff1;
      }

      .cls-3 {
        fill: #fafafa;
      }

      .cls-4 {
        fill: #bcc7ca;
      }

      .cls-5 {
        fill: #6291fb;
      }

      .cls-6 {
        opacity: 0.5;
        fill: url(#Безымянный_градиент_23);
      }

      .cls-7 {
        fill: #ffb657;
      }

      .cls-8 {
        fill: #1d1d1f;
      }

      .cls-9 {
        fill: #2e2e30;
      }

      .cls-10 {
        fill: #d8d8da;
      }

      .cls-11 {
        fill: #c6c5cb;
      }

      .cls-12 {
        fill: #ff3502;
      }

      .cls-13 {
        fill: #ff5023;
      }

      .cls-14 {
        fill: #e0e0e2;
      }

      .cls-15 {
        fill: #fec377;
      }

      .cls-16 {
        fill: #3e3d43;
      }

      .cls-17 {
        fill: url(#Безымянный_градиент_23-2);
      }

      .cls-18 {
        fill: #cd2a01;
      }
    </style>
    <linearGradient id="Безымянный_градиент_23" data-name="Безымянный градиент 23" x1="701.93" y1="674.25" x2="858.37" y2="830.68" gradientUnits="userSpaceOnUse">
      <stop offset="0" stop-color="#6291fb"/>
      <stop offset="1" stop-color="#fff" stop-opacity="0"/>
    </linearGradient>
    <linearGradient id="Безымянный_градиент_23-2" x1="636.58" y1="696.08" x2="817.69" y2="877.19" xlink:href="#Безымянный_градиент_23"/>
  </defs>
  <title>1</title>
  <g>
    <polygon class="cls-1" points="930.7 730.5 502.3 908 502.3 939.4 930.7 762 930.7 730.5"/>
    <path class="cls-1" d="M611.6,802.6V721l59.9-24.8,9.5-3.9,4.9-2,53-21.9,7.1-2.9v87.9l61.3-25.4V171.4l-305,126.3V854.2l109.3-45.3v-6.3Zm167.7-220-54.5,22.6V541l49.4-20.5,5.1-2.1v64.2Zm-89.6,37.1-54.5,22.6V578.1l49.4-20.5,5.1-2.1v64.2Zm-89,36.9-54.5,22.6V615l49.4-20.5,5.1-2.1Zm0-97.9-54.5,22.6V517.1l49.4-20.5,5.1-2.1Zm0-97-54.5,22.6V420.1l49.4-20.5,5.1-2.1Zm0-97.6-54.5,22.6V322.5L595.6,302l5.1-2.1v64.2Zm89,60.7-54.5,22.6V383.2l49.4-20.5,5.1-2.1v64.2Zm0-97.6-54.5,22.6V285.6l49.4-20.5,5.1-2.1v64.2Zm89.6,157.5-54.5,22.6V443.1l49.4-20.5,5.1-2.1v64.2Zm-89.6,37.1-54.5,22.6V480.2l49.4-20.5,5.1-2.1v64.2Zm89.6-134.1-54.5,22.6V346.1l49.4-20.5,5.1-2.1v64.2Zm0-97.6-54.5,22.6V248.5L774.3,228l5.1-2.1v64.2ZM686,771.8V690.2l-4.9,2v87.9l4.9-2v-6.3Z"/>
    <polygon class="cls-1" points="489.9 168.1 534.7 149.5 534.7 131.2 489.9 149.8 489.9 168.1"/>
    <polygon class="cls-1" points="445.8 186.5 445.8 168.3 445.8 168.3 400.7 186.9 400.7 205.2 445.8 186.5"/>
    <polygon class="cls-1" points="274.3 180.7 501.8 86.5 501.8 67.9 251.9 171.5 274.3 180.7"/>
    <path class="cls-2" d="M224.8,298.3V234.1l5.7,2.3,49,20.3V321l-54.7-22.7Zm277.5-.6L191.9,169.1V725.6L502.3,854.2V297.7ZM313.5,335.1V270.9l5.7,2.3,49,20.3v64.2Zm89.7,37.1V308l5.7,2.3,49,20.3v64.2ZM224.8,397.7V333.5l5.7,2.3,49,20.3v64.2l-54.7-22.7Zm5.7,38.9,49,20.3v64.2l-54.7-22.7V434.3Zm0,99.4,49,20.3v64.2l-54.7-22.7V533.7Zm0,99.6,49,20.3v64.2l-54.7-22.7V633.3Zm83-1V570.4l5.7,2.3,49,20.3v64.2Zm0-99.4V471l5.7,2.3,49,20.3v64.2Zm0-100.7V370.3l5.7,2.3,49,20.3v64.2l-54.7-22.7Zm5.7,237.9,49,20.3v64.2l-54.7-22.7V670Zm89.7-62.5,49,20.3v64.2l-54.7-22.7V607.6l5.7,2.3Zm-5.7-37.6V508.2l5.7,2.3,49,20.3V595l-54.7-22.7Zm0-100.7V407.4l5.7,2.3,49,20.3v64.2l-54.7-22.7Zm0,299.7V707.2l5.7,2.3,49,20.3V794l-54.7-22.7Z"/>
    <polygon class="cls-2" points="370.9 192.8 400.7 205.2 400.7 186.9 370.9 174.6 370.9 192.8"/>
    <polygon class="cls-2" points="460.9 156 489.9 168.1 489.9 149.8 460.9 137.7 460.9 156"/>
    <polygon class="cls-2" points="502.3 908 69.3 728.6 69.3 760.1 502.3 939.4 502.3 908"/>
    <polygon class="cls-2" points="501.8 86.5 729.8 180.9 752.2 171.7 501.8 67.9 501.8 86.5"/>
    <path class="cls-3" d="M502.3,275.2l-228-94.4-22.4-9.3L501.8,67.9,752.2,171.7l-22.4,9.3ZM191.9,169.1,502.3,297.7l305-126.3L496.9,42.8Z"/>
    <path class="cls-3" d="M501.8,86.5,274.3,180.7l228,94.4,227.5-94.2Zm-56,100-45.1,18.7-29.8-12.4V174.6l45-18.7,29.8,12.4h.1Zm44.1-18.4-29-12V137.7l44.7-18.5h.1l29,12v18.3Z"/>
    <polygon class="cls-3" points="445.8 168.3 415.9 155.9 370.9 174.6 400.7 186.9 445.8 168.3"/>
    <polygon class="cls-3" points="460.9 137.7 489.9 149.8 534.7 131.2 505.7 119.2 505.6 119.2 460.9 137.7"/>
    <polygon class="cls-3" points="502.3 854.2 191.9 725.6 191.9 678.2 191.4 678 69.3 728.6 502.3 908 930.7 730.5 807.3 679.4 807.3 727.9 746 753.2 686 778.1 681.1 780.1 611.6 808.9 502.3 854.2"/>
    <polygon class="cls-4" points="595.6 302 595.6 360.5 600.7 364.1 600.7 299.9 595.6 302"/>
    <polygon class="cls-4" points="684.6 265.1 684.6 323.7 689.7 327.2 689.7 263 684.6 265.1"/>
    <polygon class="cls-4" points="774.3 228 774.3 286.5 779.4 290.1 779.4 225.9 774.3 228"/>
    <polygon class="cls-4" points="779.4 323.5 774.3 325.6 774.3 384.1 779.4 387.7 779.4 323.5"/>
    <polygon class="cls-4" points="689.7 424.8 689.7 360.6 684.6 362.7 684.6 421.3 689.7 424.8"/>
    <polygon class="cls-4" points="600.7 461.7 600.7 397.5 595.6 399.6 595.6 458.1 600.7 461.7"/>
    <polygon class="cls-4" points="600.7 494.5 595.6 496.6 595.6 555.1 600.7 558.7 600.7 494.5"/>
    <polygon class="cls-4" points="600.7 592.4 595.6 594.5 595.6 653.1 600.7 656.6 600.7 592.4"/>
    <polygon class="cls-4" points="684.6 557.7 684.6 616.2 689.7 619.7 689.7 555.5 684.6 557.7"/>
    <polygon class="cls-4" points="684.6 518.3 689.7 521.8 689.7 457.6 684.6 459.8 684.6 518.3"/>
    <polygon class="cls-4" points="774.3 422.6 774.3 481.2 779.4 484.7 779.4 420.5 774.3 422.6"/>
    <polygon class="cls-4" points="779.4 518.4 774.3 520.5 774.3 579.1 779.4 582.6 779.4 518.4"/>
    <polygon class="cls-4" points="681.1 780.1 681.1 692.2 671.5 696.2 671.5 777.8 681.1 780.1"/>
    <polygon class="cls-4" points="738.9 668.3 738.9 749.9 746 753.2 746 665.3 738.9 668.3"/>
    <polygon class="cls-4" points="408.8 768 408.8 709.5 403.2 707.2 403.2 771.3 408.8 768"/>
    <polygon class="cls-4" points="319.2 730.9 319.2 672.4 313.5 670 313.5 734.2 319.2 730.9"/>
    <polygon class="cls-4" points="230.4 694.1 230.4 635.6 224.8 633.3 224.8 697.5 230.4 694.1"/>
    <polygon class="cls-4" points="224.8 597.9 230.4 594.5 230.4 536 224.8 533.7 224.8 597.9"/>
    <polygon class="cls-4" points="313.5 570.4 313.5 634.6 319.2 631.3 319.2 572.8 313.5 570.4"/>
    <polygon class="cls-4" points="403.2 607.6 403.2 671.7 408.8 668.4 408.8 609.9 403.2 607.6"/>
    <polygon class="cls-4" points="403.2 572.3 408.8 569 408.8 510.5 403.2 508.2 403.2 572.3"/>
    <polygon class="cls-4" points="319.2 531.9 319.2 473.4 313.5 471 313.5 535.2 319.2 531.9"/>
    <polygon class="cls-4" points="230.4 495.1 230.4 436.6 224.8 434.3 224.8 498.5 230.4 495.1"/>
    <polygon class="cls-4" points="224.8 397.7 230.4 394.4 230.4 335.9 224.8 333.6 224.8 397.7"/>
    <polygon class="cls-4" points="313.5 370.3 313.5 434.5 319.2 431.2 319.2 372.6 313.5 370.3"/>
    <polygon class="cls-4" points="403.2 407.4 403.2 471.6 408.8 468.3 408.8 409.8 403.2 407.4"/>
    <polygon class="cls-4" points="403.2 372.2 408.8 368.9 408.8 310.4 403.2 308 403.2 372.2"/>
    <polygon class="cls-4" points="319.2 331.8 319.2 273.2 313.5 270.9 313.5 335.1 319.2 331.8"/>
    <polygon class="cls-4" points="230.4 295 230.4 236.5 224.8 234.1 224.8 298.3 230.4 295"/>
    <polygon class="cls-1" points="279.5 315.3 230.4 295 224.8 298.3 279.5 321 279.5 315.3"/>
    <polygon class="cls-1" points="319.2 331.8 313.5 335.1 368.2 357.7 368.2 352.1 319.2 331.8"/>
    <polygon class="cls-1" points="279.5 414.7 230.4 394.4 224.8 397.7 279.5 420.4 279.5 414.7"/>
    <polygon class="cls-1" points="403.2 372.2 457.8 394.9 457.8 389.2 408.8 368.9 403.2 372.2"/>
    <polygon class="cls-1" points="368.2 451.5 319.2 431.2 313.5 434.5 368.2 457.1 368.2 451.5"/>
    <polygon class="cls-1" points="408.8 468.3 403.2 471.6 457.8 494.3 457.8 488.6 408.8 468.3"/>
    <polygon class="cls-1" points="457.8 589.3 408.8 569 403.2 572.3 457.8 595 457.8 589.3"/>
    <polygon class="cls-1" points="368.2 557.9 368.2 552.2 319.2 531.9 313.5 535.2 368.2 557.9"/>
    <polygon class="cls-1" points="279.5 521.1 279.5 515.5 230.4 495.1 224.8 498.5 279.5 521.1"/>
    <polygon class="cls-1" points="279.5 614.9 230.4 594.5 224.8 597.9 279.5 620.5 279.5 614.9"/>
    <polygon class="cls-1" points="319.2 631.3 313.5 634.6 368.2 657.3 368.2 651.6 319.2 631.3"/>
    <polygon class="cls-1" points="408.8 668.4 403.2 671.7 457.8 694.4 457.8 688.7 408.8 668.4"/>
    <polygon class="cls-1" points="457.8 788.3 408.8 768 403.2 771.3 457.8 794 457.8 788.3"/>
    <polygon class="cls-1" points="368.2 756.9 368.2 751.2 319.2 730.9 313.5 734.2 368.2 756.9"/>
    <polygon class="cls-1" points="279.5 720.1 279.5 714.5 230.4 694.1 224.8 697.5 279.5 720.1"/>
    <polygon class="cls-2" points="546.2 386.7 600.7 364.1 595.6 360.5 546.2 381 546.2 386.7"/>
    <polygon class="cls-2" points="635.2 344.1 635.2 349.8 689.7 327.2 684.6 323.7 635.2 344.1"/>
    <polygon class="cls-2" points="724.9 307 724.9 312.7 779.4 290.1 774.3 286.5 724.9 307"/>
    <polygon class="cls-2" points="774.3 384.1 724.9 404.6 724.9 410.3 779.4 387.7 774.3 384.1"/>
    <polygon class="cls-2" points="689.7 424.8 684.6 421.3 635.2 441.7 635.2 447.4 689.7 424.8"/>
    <polygon class="cls-2" points="600.7 461.7 595.6 458.1 546.2 478.6 546.2 484.3 600.7 461.7"/>
    <polygon class="cls-2" points="595.6 555.1 546.2 575.6 546.2 581.3 600.7 558.7 595.6 555.1"/>
    <polygon class="cls-2" points="635.2 538.7 635.2 544.4 689.7 521.8 684.6 518.3 635.2 538.7"/>
    <polygon class="cls-2" points="724.9 501.6 724.9 507.3 779.4 484.7 774.3 481.2 724.9 501.6"/>
    <polygon class="cls-2" points="774.3 579.1 724.9 599.5 724.9 605.2 779.4 582.6 774.3 579.1"/>
    <polygon class="cls-2" points="689.7 619.7 684.6 616.2 635.2 636.7 635.2 642.3 689.7 619.7"/>
    <polygon class="cls-2" points="600.7 656.6 595.6 653.1 546.2 673.5 546.2 679.2 600.7 656.6"/>
    <polygon class="cls-2" points="671.5 777.8 611.6 802.6 611.6 808.9 681.1 780.1 671.5 777.8"/>
    <polygon class="cls-2" points="686 771.8 686 778.1 746 753.2 738.9 749.9 686 771.8"/>
    <polygon class="cls-5" points="457.8 788.3 457.8 729.8 408.8 709.5 408.8 768 457.8 788.3"/>
    <polygon class="cls-5" points="368.2 751.2 368.2 692.7 319.2 672.4 319.2 730.9 368.2 751.2"/>
    <polygon class="cls-5" points="279.5 714.5 279.5 655.9 230.4 635.6 230.4 694.1 279.5 714.5"/>
    <polygon class="cls-5" points="230.4 594.5 279.5 614.9 279.5 556.3 230.4 536 230.4 594.5"/>
    <polygon class="cls-5" points="319.2 572.8 319.2 631.3 368.2 651.6 368.2 593.1 319.2 572.8"/>
    <polygon class="cls-5" points="408.8 609.9 408.8 668.4 457.8 688.7 457.8 630.2 408.8 609.9"/>
    <polygon class="cls-5" points="408.8 569 457.8 589.3 457.8 530.8 408.8 510.5 408.8 569"/>
    <polygon class="cls-5" points="368.2 552.2 368.2 493.7 319.2 473.4 319.2 531.9 368.2 552.2"/>
    <polygon class="cls-5" points="279.5 515.5 279.5 456.9 230.4 436.6 230.4 495.1 279.5 515.5"/>
    <polygon class="cls-5" points="408.8 409.8 408.8 468.3 457.8 488.6 457.8 430.1 408.8 409.8"/>
    <polygon class="cls-5" points="368.2 451.5 368.2 392.9 319.2 372.6 319.2 431.2 368.2 451.5"/>
    <polygon class="cls-5" points="279.5 414.7 279.5 356.2 230.4 335.9 230.4 394.4 279.5 414.7"/>
    <polygon class="cls-5" points="230.4 295 279.5 315.3 279.5 256.8 230.4 236.5 230.4 295"/>
    <polygon class="cls-5" points="319.2 273.2 319.2 331.8 368.2 352.1 368.2 293.5 319.2 273.2"/>
    <polygon class="cls-5" points="408.8 310.4 408.8 368.9 457.8 389.2 457.8 330.7 408.8 310.4"/>
    <polygon class="cls-5" points="546.2 322.5 546.2 381 595.6 360.5 595.6 302 546.2 322.5"/>
    <polygon class="cls-5" points="595.6 399.6 546.2 420.1 546.2 478.6 595.6 458.1 595.6 399.6"/>
    <polygon class="cls-5" points="635.2 383.2 635.2 441.7 684.6 421.3 684.6 362.7 635.2 383.2"/>
    <polygon class="cls-5" points="635.2 344.1 684.6 323.7 684.6 265.1 635.2 285.6 635.2 344.1"/>
    <polygon class="cls-5" points="724.9 248.5 724.9 307 774.3 286.5 774.3 228 724.9 248.5"/>
    <polygon class="cls-5" points="774.3 325.6 724.9 346.1 724.9 404.6 774.3 384.1 774.3 325.6"/>
    <polygon class="cls-5" points="595.6 496.6 546.2 517.1 546.2 575.6 595.6 555.1 595.6 496.6"/>
    <polygon class="cls-5" points="595.6 594.5 546.2 615 546.2 673.5 595.6 653.1 595.6 594.5"/>
    <polygon class="cls-5" points="635.2 578.1 635.2 636.7 684.6 616.2 684.6 557.7 635.2 578.1"/>
    <polygon class="cls-5" points="724.9 541 724.9 599.5 774.3 579.1 774.3 520.5 724.9 541"/>
    <polygon class="cls-5" points="724.9 501.6 774.3 481.2 774.3 422.6 724.9 443.1 724.9 501.6"/>
    <polygon class="cls-5" points="684.6 518.3 684.6 459.8 635.2 480.2 635.2 538.7 684.6 518.3"/>
    <polygon class="cls-5" points="671.5 696.2 611.6 721 611.6 802.6 671.5 777.8 671.5 696.2"/>
    <polygon class="cls-5" points="686 690.2 686 771.8 738.9 749.9 738.9 668.3 686 690.2"/>
    <polygon class="cls-6" points="686 690.2 686 771.8 747.5 878.4 896.8 792.2 896.8 710.6 738.9 668.3 686 690.2"/>
    <path class="cls-7" d="M877,752.4s-.6,5.7-.2,6.1a7.7,7.7,0,0,0,2.4,1.4c.4,0,3.3-1.1,3.6-1.9a3.9,3.9,0,0,0-.7-3.3,5.2,5.2,0,0,1-.8-3.1Z"/>
    <path class="cls-8" d="M883.7,816.6s-9.7,9.5-7.6,10.8,14.9-5.8,14.9-6.4-.8-6.6-.8-6.6Z"/>
    <path class="cls-8" d="M896.9,823.9s-9.4,10.2-6.7,12.1,13.9-7,13.9-7.6-.8-6.6-.8-6.6l-6.4,2.1Z"/>
    <path class="cls-9" d="M881.6,757.7l-.2,59.9s-.1,1.8,4.5,1.8,4.9-2.2,4.9-2.2l1.2-43.4h.2l2.5,51.3s-.3,1.4,4.4,1.4,4.9-2.2,4.9-2.2l.5-64.5-23-2Z"/>
    <path class="cls-10" d="M911.5,742.1c-.3-16.8-1-18.9-4.1-20.8a47.6,47.6,0,0,0-22.3-9h-1c-1.4.4-4.2,1.8-4.8,6.9a178.2,178.2,0,0,0-2,17.8c-.3,8.6-1.1,14.9-1.1,14.9,0,1.6,2.7,3.1,4.5,3,.1,1.5.1,2.4.1,2.4.4,2,12.1,8.3,23.2,5a26,26,0,0,0,.4,4.4s2.7,2.6,7.1-.8c0,0,0-21.2,0-23.9Z"/>
    <path class="cls-7" d="M904.8,766.1s-.1,3.5,0,4.2a2.9,2.9,0,0,0,.8,1.3s-.1,1.6.6,2.1,4.3-1.3,4.8-1.9-.2-6.6-.2-6.6-5.1-2-6,.9Z"/>
    <path class="cls-11" d="M880.4,737.9c.1-5.2-.2-10.4-.4-13.8v30.7h.7C880.6,751.3,880.3,744.4,880.4,737.9Z"/>
    <path class="cls-7" d="M889.5,709.9s-.7,4.9-1,7.6,3.3,3.3,6,2.4a6.8,6.8,0,0,0,3.8-2.8,43.1,43.1,0,0,1-1.2-10.5l-7.6,3.3Z"/>
    <polygon class="cls-12" points="892.4 720.2 888.6 719.4 889.4 722.5 885.8 740 888.2 745.5 892 741.9 891.1 722.8 892.4 720.2"/>
    <polygon class="cls-13" points="888.6 719.4 889.4 722.5 891.1 722.8 892.4 720.2 888.6 719.4"/>
    <path class="cls-14" d="M898,715.8a.8.8,0,0,1-.2.8,16.2,16.2,0,0,1-6.5,3.2l1.4,4.8s6.5-4.9,6.4-7.1a4,4,0,0,0-1.3-2.8l.2,1.1Z"/>
    <path class="cls-14" d="M888.7,715.6a9.1,9.1,0,0,0-1.5,3.1c-.6,2,.8,4.9.8,4.9l2-4.1s-1.3-.9-1.4-1.6a14.1,14.1,0,0,1,.1-2.3Z"/>
    <path class="cls-15" d="M883,701.9s.6,9.2,2.8,10.9,9.2.1,13.1-6.5,1.9-16.3-5.1-17.4-11.3,4.8-10.8,13.1Z"/>
    <path class="cls-11" d="M904,750.5a152.6,152.6,0,0,0-.5-18.5h0l-.6,30.5,1-.3c-.1-2.5-.1-6.2,0-11.8Z"/>
    <path class="cls-14" d="M894.8,730.9l5.4,2.5s.2,5.9-.2,6.2c-2,1.3-4.8-.4-5.2-1.6S894.8,730.9,894.8,730.9Z"/>
    <path class="cls-16" d="M902.9,696.2c-.3-2.2-2.1-4.4-4.3-4.4a6.3,6.3,0,0,0-5.1-3.6,10.2,10.2,0,0,0-6.3,1.6,9.3,9.3,0,0,0-4.2,4.6,5.4,5.4,0,0,0,1.3,5.9,5.9,5.9,0,0,0,4.6,1.1,24.4,24.4,0,0,0,3.7-.5,3.6,3.6,0,0,1-2.5,1.7c1.5.3,4-.9,5.4-1.6a43,43,0,0,0,.3,6.5c.3-2.2.9-5.2,2-6.5.5,2-.8,6.1-.9,8.5a60.4,60.4,0,0,0,4.5-6.9,11.1,11.1,0,0,0,1.5-6.4Z"/>
    <path class="cls-15" d="M896.2,705.7s.7-5.1,2.2-5.2,1.5,2.2.7,3.8a10.7,10.7,0,0,1-3,3.3v-1.9Z"/>
    <path class="cls-8" d="M595.6,871s-.5-11-.4-21.1c.1-7.8.3-11,.4-14.9h0c-1.4,11.8-.4,38.8-.4,38.9a6.1,6.1,0,0,0,2.2.6v-1.1a17.3,17.3,0,0,1-1.8-2.4Z"/>
    <path class="cls-8" d="M618.2,845.1c-.1,6.8-.4,24.3.5,34.6l.9-.3c-.6-9.5-1.5-24.8-1.4-34.3Z"/>
    <path class="cls-8" d="M618.2,842.2h0Z"/>
    <polygon class="cls-17" points="611.6 721 611.6 802.6 673.2 909.2 865.2 829.7 865.2 748.1 671.5 696.2 611.6 721"/>
    <g>
      <path class="cls-16" d="M612.7,949V956a4.2,4.2,0,0,0,4.6,1.4c3-.8,13.4-6.3,12.6-7.9-1.9-4.1-6.4-1.3-12.2-.9Z"/>
      <path class="cls-16" d="M596.6,940.1v6.9a4.2,4.2,0,0,0,4.6,1.4c3-.8,13.6-6.4,12.6-7.9-2.6-3.9-6.4-1.3-12.2-.9Z"/>
      <path class="cls-15" d="M594.7,872.6l.3,6,2.2,1.6c.2.2,5.2-1.6,5.2-2.2s-1.1-4.1-1.1-4.6-.4-3.2-.4-3.2l-6.3,2.4Z"/>
      <path class="cls-9" d="M603,822c-1.9-.2-8.1-.7-9.1,11.7a193.8,193.8,0,0,0-.5,20.5l.8,19s3.6,3.3,8.5-.5c0,0-1.4-20.9-.7-28.5,1-11.2,4.9-21.7,1.1-22.2Z"/>
      <path class="cls-8" d="M596.4,868.2l-.8,72.3s-.2,2,5.2,2,5.6-2.5,5.6-2.5l2.1-53.1,1,.5,2.2,62.2s-.2,2,5.2,2,5.6-2.5,5.6-2.5l.8-76.1-26.7-4.7Z"/>
      <path class="cls-9" d="M595.6,871s-.5-11-.4-21.1c.1-8.4.4-11.5.4-15.9,0-9.8,4.2-12.1,7.4-12.1,0,0,12.7,3.8,22.5,12.5l.6,38.5c-2,6.9-11.8,9.2-20.3,6.1l-1.2-4.5-1.2,3.4a17.8,17.8,0,0,1-7.8-7Z"/>
      <path class="cls-15" d="M621,807.5s.6,10.7-2,12.6-15,.7-18.6-5.8-1.7-18.6,6.5-19.9S621.6,798,621,807.5Z"/>
      <path class="cls-15" d="M607.4,816.8l-2.1,10.8s3.5,3.8,10.1,1.1c0,0,.6-8.3,1.2-9.6s-9.2-2.3-9.2-2.3Z"/>
      <path class="cls-16" d="M621.5,802.3c3.5-10.6-14.6-11-19-6.9-1.9,1.8-7.1,8.3-2.8,17.9,1.9,4.1,7.3,7.9,7.3,7.9s5.9-5.1,6.1-6.1-2.7-4.7,0-6.5,3.8,5.3,3.8,5.3.4-7.1.4-9.2c.6-4.9,3.4-.3,4.2-2.5Z"/>
      <path class="cls-15" d="M621.1,886.4s.1,5.1.2,5.8-.6,1.1-.1,2.4a7.9,7.9,0,0,0,2.2,1.4c.6.2,4.3-2.3,4.8-2.7s.1-3.6.1-4.4-.1-4-.6-4.2-6.5,1.6-6.5,1.6Z"/>
      <path class="cls-9" d="M626.1,834.9c-1.1-1.6-5.3-4.3-7.3,2.5s1.4,50.6,1.4,50.6,5.2,3.3,8.6-1.9c0,0-2-16.5-2-26.6s1.2-21.5-.8-24.6Z"/>
      <path class="cls-18" d="M605,827.3c-.1-.6.2-2.8.8-2.6s.1,2.7,9.8,1.3l1,2s-3.2,2.3-6.3,2-5.1-1.5-5.3-2.8Z"/>
    </g>
  </g>
</svg>
