<svg id="Слой_1" data-name="Слой 1" xmlns="http://www.w3.org/2000/svg" xmlns:xlink="http://www.w3.org/1999/xlink" width="1000" height="1000" viewBox="0 0 1000 1000">
  <defs>
    <style>
      .cls-1 {
        fill: #cfd8db;
      }

      .cls-1, .cls-10, .cls-2, .cls-3, .cls-4, .cls-5, .cls-6, .cls-7, .cls-8, .cls-9 {
        fill-rule: evenodd;
      }

      .cls-2 {
        fill: #edeff1;
      }

      .cls-3 {
        fill: #6291fb;
      }

      .cls-4 {
        fill: #fafafa;
      }

      .cls-5 {
        fill: #d8d8da;
      }

      .cls-6 {
        fill: #c6c5cb;
      }

      .cls-7 {
        fill: #3e3d43;
      }

      .cls-10, .cls-8, .cls-9 {
        opacity: 0.5;
      }

      .cls-8 {
        fill: url(#Безымянный_градиент_17);
      }

      .cls-9 {
        fill: url(#Безымянный_градиент_17-2);
      }

      .cls-10 {
        fill: url(#Безымянный_градиент_17-3);
      }
    </style>
    <linearGradient id="Безымянный_градиент_17" data-name="Безымянный градиент 17" x1="714.64" y1="227.5" x2="714.64" y2="47.61" gradientUnits="userSpaceOnUse">
      <stop offset="0" stop-color="#6291fb"/>
      <stop offset="1" stop-color="#fff" stop-opacity="0"/>
    </linearGradient>
    <linearGradient id="Безымянный_градиент_17-2" x1="488.88" y1="455.97" x2="488.88" y2="276.09" xlink:href="#Безымянный_градиент_17"/>
    <linearGradient id="Безымянный_градиент_17-3" x1="263.06" y1="684.44" x2="263.06" y2="504.55" xlink:href="#Безымянный_градиент_17"/>
  </defs>
  <title>3</title>
  <g>
    <polygon class="cls-1" points="704.6 238.4 704.6 508.3 704.6 778.2 855.1 715.8 855.1 445.9 855.1 176.1 704.6 238.4 704.6 238.4"/>
    <polygon class="cls-1" points="629.3 539.5 629.3 404.5 478.8 466.9 478.8 601.8 478.8 871.7 629.3 809.4 629.3 747 629.3 539.5 629.3 539.5"/>
    <polygon class="cls-1" points="403.5 840.5 403.5 633 253 695.3 253 965.2 403.5 902.9 403.5 840.5 403.5 840.5"/>
    <polygon class="cls-1" points="142.7 638.7 253.2 592.9 253.2 583.9 131.8 634.2 142.7 638.7 142.7 638.7"/>
    <polygon class="cls-1" points="368.4 410.3 479 364.5 479 355.5 357.6 405.8 368.4 410.3 368.4 410.3"/>
    <polygon class="cls-1" points="594.2 181.8 704.8 136 704.8 127 583.4 177.3 594.2 181.8 594.2 181.8"/>
    <polygon class="cls-2" points="253 695.3 105.1 634.1 105.1 904 253 965.2 253 695.3 253 695.3"/>
    <polygon class="cls-2" points="253.2 592.9 363.6 638.6 374.4 634.1 253.2 583.9 253.2 592.9 253.2 592.9"/>
    <polygon class="cls-2" points="330.9 540.6 330.9 602.9 403.5 633 403.5 840.5 478.8 871.7 478.8 601.8 478.8 466.9 330.9 405.6 330.9 540.6 330.9 540.6"/>
    <polygon class="cls-2" points="479 364.5 589.4 410.2 600.2 405.7 479 355.5 479 364.5 479 364.5"/>
    <polygon class="cls-2" points="556.7 177.2 556.7 374.4 629.3 404.5 629.3 539.5 629.3 747 704.6 778.2 704.6 508.3 704.6 238.4 556.7 177.2 556.7 177.2"/>
    <polygon class="cls-2" points="704.8 136 815.2 181.7 826 177.2 704.8 127 704.8 136 704.8 136"/>
    <polygon class="cls-3" points="815.2 181.7 704.8 136 594.2 181.8 704.6 227.5 815.2 181.7 815.2 181.7"/>
    <path class="cls-4" d="M704.8,127,826,177.2l-10.9,4.5L704.6,227.5,594.2,181.8l-10.9-4.5L704.8,127ZM556.7,177.2l147.9,61.3,150.5-62.4L707.2,114.8,556.7,177.2Z"/>
    <path class="cls-4" d="M478.8,456,368.4,410.3l-10.9-4.5L479,355.5l121.2,50.2-10.9,4.5L478.8,456Zm77.9-81.5-75.3-31.2L330.9,405.6l147.9,61.3,150.5-62.4-72.6-30.1Z"/>
    <polygon class="cls-3" points="479 364.5 368.4 410.3 478.8 456 589.4 410.2 479 364.5 479 364.5"/>
    <polygon class="cls-3" points="363.6 638.6 253.2 592.9 142.7 638.7 253 684.4 363.6 638.6 363.6 638.6"/>
    <path class="cls-4" d="M142.7,638.7l-10.9-4.5,121.4-50.3,121.2,50.2-10.9,4.5L253,684.4,142.7,638.7Zm-37.6-4.6L253,695.3,403.5,633l-72.6-30.1-75.3-31.2L105.1,634.1Z"/>
    <path class="cls-1" d="M444.3,940.8v7.5a4.5,4.5,0,0,0,4.9,1.5c3.2-.9,14.4-6.7,13.6-8.6-2-4.5-6.9-1.4-13.1-.9l-5.4.6Z"/>
    <path class="cls-1" d="M427,931.2v7.5a4.5,4.5,0,0,0,4.9,1.5c3.2-.9,14.7-6.9,13.6-8.6-2.8-4.2-6.9-1.4-13.1-.9l-5.4.6Z"/>
    <path class="cls-4" d="M424.9,858.3l.3,6.5,2.4,1.7c.2.2,5.6-1.7,5.6-2.3s-1.2-4.4-1.2-5-.4-3.4-.4-3.4l-6.8,2.6Z"/>
    <path class="cls-2" d="M426.7,853.6l-.8,78s-.2,2.1,5.6,2.1,6-2.7,6-2.7l2.3-57.3h0a2.1,2.1,0,0,1,1.1,1.8l2.3,66s-.2,2.1,5.6,2.1,6-2.7,6-2.7l.8-82.1-28.8-5.1Z"/>
    <path class="cls-5" d="M459.7,844.2c0-10.9,1.3-23.2-.9-26.5a5.1,5.1,0,0,0-2-1.7,74.2,74.2,0,0,0-22.3-12.1l-.6-.2c-2-.3-8.8-.7-9.9,12.7a209,209,0,0,0-.6,22.1l.8,20.5a6.3,6.3,0,0,0,2.4,1.2v-3.7c5.8,5.5,17.9,7.6,24.9,6.1.5,7.2.9,12.4.9,12.4s5.6,3.6,9.3-2.1c0,0-2.1-17.8-2.1-28.7Z"/>
    <path class="cls-6" d="M426.7,860.2v-3.7l-.3-.3s-1-11.4-.9-22.3c.2-9.1.4-12.5.4-17.2q0-.5,0-1h0a191.8,191.8,0,0,0-.4,40.1l.4,4.2.8.2Z"/>
    <path class="cls-4" d="M453.2,787.7s.6,11.2-2.1,13.3-15.8.7-19.7-6.1-1.7-19.6,6.9-21,15.5,3.8,14.9,13.9Z"/>
    <path class="cls-4" d="M438.6,798l-2.3,11.6s3.8,4.1,10.9,1.2c0,0,.7-8.9,1.3-10.3s-9.9-2.5-9.9-2.5Z"/>
    <path class="cls-4" d="M453.3,873.3s.2,5.5.2,6.2-.7,1.2-.1,2.6a8.6,8.6,0,0,0,2.3,1.6c.6.2,4.6-2.5,5.2-2.9s.1-3.9.1-4.7-.1-4.3-.6-4.5-7.1,1.7-7.1,1.7Z"/>
    <path class="cls-6" d="M450.3,825.5v-1.1L448.9,863l2.7-.4c-.7-11.5-1.6-28.2-1.3-37.1Z"/>
    <path class="cls-6" d="M436,809.4c-.1-.6.2-3,.8-2.8s.1,2.9,10.5,1.4l1.1,2.2s-3.5,2.5-6.8,2.2-5.5-1.6-5.7-3Z"/>
    <path class="cls-7" d="M454,782.3c-2.9-12.2-14.5-12.2-19.8-8.4a7.5,7.5,0,0,0-2.7,4.6,4.6,4.6,0,0,0-2.3,2.6,20.6,20.6,0,0,0,1.2,13.1c2,4.5,7.9,8.6,7.9,8.6s6.4-5.5,6.6-6.6-2.9-5.1,0-7,4.1,5.8,4.1,5.8v-8.7a6.5,6.5,0,0,0,3.7-.5,4.6,4.6,0,0,1-2.5-.4l-.8-.4c1.2,0,5.1-.3,4.5-2.7Z"/>
    <path class="cls-1" d="M670.3,845v8.9a5.4,5.4,0,0,0,5.9,1.8c3.8-1.1,17.3-8.1,16.3-10.3-2.4-5.3-8.3-1.7-15.7-1.1l-6.5.7Z"/>
    <path class="cls-1" d="M649.6,833.5v8.9a5.4,5.4,0,0,0,5.9,1.8c3.8-1.1,17.6-8.3,16.3-10.3-3.4-5.1-8.3-1.7-15.7-1.1l-6.5.7Z"/>
    <path class="cls-4" d="M647.1,746.3l.4,7.8,2.9,2c.3.3,6.7-2,6.7-2.8s-1.4-5.3-1.4-5.9-.5-4.1-.5-4.1l-8.1,3.1Z"/>
    <path class="cls-2" d="M649.3,740.6l-1,93.3s-.2,2.6,6.6,2.6,7.2-3.3,7.2-3.3l2.7-68.6h0a2.5,2.5,0,0,1,1.3,2.1l2.8,78.9s-.2,2.6,6.6,2.6,7.2-3.3,7.2-3.3l1-98.2-34.5-6.1Z"/>
    <path class="cls-5" d="M688.7,729.4c0-13.1,1.5-27.8-1-31.7a6.1,6.1,0,0,0-2.4-2c-10.8-8.9-23.6-13.4-26.7-14.5l-.7-.2c-2.4-.3-10.5-.9-11.8,15.1a250,250,0,0,0-.7,26.5l1,24.5a7.5,7.5,0,0,0,2.9,1.5v-4.4c6.9,6.6,21.4,9.1,29.8,7.3.6,8.6,1,14.8,1,14.8s6.7,4.3,11.1-2.5c0,0-2.5-21.2-2.5-34.3Z"/>
    <path class="cls-6" d="M649.3,748.6v-4.4l-.4-.4s-1.3-13.7-1-26.6c.2-10.9.5-14.9.5-20.5q0-.6,0-1.2h0a229.3,229.3,0,0,0-.5,48l.5,5.1.9.3Z"/>
    <path class="cls-4" d="M681,661.9s.7,13.5-2.5,15.9-18.9.8-23.5-7.3-2.1-23.5,8.2-25.2c12-1.9,18.6,4.5,17.9,16.6Z"/>
    <path class="cls-4" d="M663.5,674.3l-2.7,13.9s4.6,4.9,13.1,1.4c0,0,.8-10.7,1.6-12.3s-11.9-3-11.9-3Z"/>
    <path class="cls-4" d="M681.2,764.2s.2,6.6.2,7.5-.8,1.4-.1,3.1a10.2,10.2,0,0,0,2.8,1.9c.8.2,5.5-3,6.2-3.5s.1-4.6.1-5.6-.1-5.2-.7-5.4-8.4,2.1-8.4,2.1Z"/>
    <path class="cls-6" d="M677.5,707.1v-1.3l-1.6,46.2,3.2-.5c-.9-13.8-2-33.7-1.5-44.3Z"/>
    <path class="cls-6" d="M660.5,687.8c-.1-.8.3-3.6,1-3.3s.2,3.5,12.6,1.7l1.3,2.6s-4.1,2.9-8.1,2.6-6.5-2-6.8-3.6Z"/>
    <path class="cls-7" d="M682,655.5c-3.4-14.5-17.4-14.5-23.7-10.1A8.9,8.9,0,0,0,655,651a5.5,5.5,0,0,0-2.8,3.2,24.6,24.6,0,0,0,1.5,15.7c2.4,5.4,9.4,10.3,9.4,10.3s7.7-6.6,7.9-7.9-3.5-6,0-8.4,4.9,6.9,4.9,6.9V660.4a7.8,7.8,0,0,0,4.4-.6,5.4,5.4,0,0,1-3-.5l-1-.5c1.4,0,6.1-.3,5.4-3.3Z"/>
    <path class="cls-1" d="M898.8,748.4v9.9a6,6,0,0,0,6.5,2c4.2-1.2,19.1-8.9,18-11.4-2.7-5.9-9.1-1.9-17.4-1.3-4.5.4-7.2.7-7.2.7Z"/>
    <path class="cls-1" d="M875.9,735.7v9.9a6,6,0,0,0,6.5,2c4.2-1.2,19.5-9.1,18-11.4-3.7-5.6-9.1-1.9-17.4-1.3-4.5.4-7.2.7-7.2.7Z"/>
    <path class="cls-4" d="M873.1,639.2l.5,8.6,3.2,2.2c.3.3,7.4-2.3,7.4-3.1s-1.6-5.8-1.6-6.6-.5-4.6-.5-4.6l-8.9,3.4Z"/>
    <path class="cls-2" d="M875.6,632.9l-1.1,103.3s-.2,2.8,7.4,2.8,8-3.6,8-3.6l3-75.9h0a2.8,2.8,0,0,1,1.4,2.3l3.1,87.3s-.2,2.8,7.4,2.8,8-3.6,8-3.6l1.1-108.7-38.2-6.8Z"/>
    <path class="cls-5" d="M919.2,620.5c0-14.5,1.7-30.8-1.2-35.1a6.8,6.8,0,0,0-2.7-2.2c-11.9-9.8-26.1-14.9-29.5-16l-.8-.3c-2.6-.4-11.6-1-13.1,16.7a276.8,276.8,0,0,0-.8,29.3l1.1,27.1a8.3,8.3,0,0,0,3.2,1.6v-4.9c7.7,7.3,23.7,10.1,32.9,8,.6,9.5,1.1,16.4,1.1,16.4s7.4,4.8,12.3-2.7c0,0-2.8-23.5-2.8-38Z"/>
    <path class="cls-6" d="M875.5,641.7v-4.9l-.5-.5s-1.4-15.1-1.1-29.5c.2-12,.5-16.5.5-22.7q0-.7,0-1.3v-.2a253.8,253.8,0,0,0-.6,53.1l.6,5.6,1,.3Z"/>
    <path class="cls-4" d="M910.6,545.7s.8,14.9-2.8,17.6-20.9.9-26-8.1-2.3-26,9.1-27.8c13.3-2.2,20.6,5,19.8,18.4Z"/>
    <path class="cls-4" d="M891.2,559.4l-3,15.4s5.1,5.4,14.5,1.5c0,0,.9-11.8,1.7-13.6s-13.2-3.3-13.2-3.3Z"/>
    <path class="cls-4" d="M910.8,659s.2,7.3.3,8.3-.9,1.6-.1,3.5a11.3,11.3,0,0,0,3.1,2.1c.8.3,6.1-3.3,6.9-3.9s.1-5.1.1-6.2-.1-5.7-.8-5.9-9.3,2.3-9.3,2.3Z"/>
    <path class="cls-6" d="M906.8,595.8v-1.5L905,645.3l3.5-.5c-1-15.2-2.2-37.3-1.7-49Z"/>
    <path class="cls-6" d="M887.9,574.5c-.2-.8.3-3.9,1.1-3.7s.2,3.8,14,1.9l1.4,2.8s-4.6,3.2-9,2.9-7.2-2.2-7.5-4Z"/>
    <path class="cls-7" d="M911.7,538.6c-3.8-16.1-19.3-16.1-26.2-11.1a9.9,9.9,0,0,0-3.6,6.1,6.1,6.1,0,0,0-3.1,3.5,27.3,27.3,0,0,0,1.6,17.4c2.7,5.9,10.4,11.3,10.4,11.3s8.5-7.3,8.8-8.7-3.9-6.7,0-9.3,5.4,7.7,5.4,7.7l.2-11.5a8.6,8.6,0,0,0,4.9-.7,6,6,0,0,1-3.4-.6l-1.1-.6c1.6,0,6.8-.3,6-3.6Z"/>
    <polygon class="cls-8" points="856.3 110.4 704.8 47.6 572.9 102.2 594.3 181.8 704.6 227.5 815.2 181.7 856.3 110.4 856.3 110.4"/>
    <polygon class="cls-9" points="630.6 338.9 479.1 276.1 347.2 330.7 368.5 410.3 478.8 456 589.4 410.2 630.6 338.9 630.6 338.9"/>
    <polygon class="cls-10" points="404.8 567.3 253.2 504.6 121.4 559.2 142.7 638.7 253 684.4 363.6 638.6 404.8 567.3 404.8 567.3"/>
  </g>
</svg>
