<svg id="Слой_1" data-name="Слой 1" xmlns="http://www.w3.org/2000/svg" xmlns:xlink="http://www.w3.org/1999/xlink" width="1000" height="1000" viewBox="0 0 1000 1000">
  <defs>
    <style>
      .cls-1 {
        fill: none;
        stroke: #6291fb;
        stroke-linecap: round;
        stroke-miterlimit: 22.93;
        stroke-width: 12px;
      }

      .cls-2 {
        fill: #fafafa;
      }

      .cls-10, .cls-11, .cls-12, .cls-13, .cls-14, .cls-15, .cls-16, .cls-2, .cls-3, .cls-4, .cls-5, .cls-6, .cls-7, .cls-8, .cls-9 {
        fill-rule: evenodd;
      }

      .cls-3 {
        fill: #cfd8db;
      }

      .cls-4 {
        fill: #edeff1;
      }

      .cls-5 {
        fill: #d8d8da;
      }

      .cls-6 {
        fill: #c6c5cb;
      }

      .cls-7 {
        fill: #3e3d43;
      }

      .cls-8 {
        fill: #e0e0e2;
      }

      .cls-9 {
        fill: #a66206;
      }

      .cls-10 {
        fill: #1d1d1f;
      }

      .cls-11, .cls-12, .cls-13, .cls-14, .cls-15, .cls-16 {
        opacity: 0.5;
      }

      .cls-11 {
        fill: url(#Безымянный_градиент_110);
      }

      .cls-12 {
        fill: url(#Безымянный_градиент_140);
      }

      .cls-13 {
        fill: url(#Безымянный_градиент_140-2);
      }

      .cls-14 {
        fill: url(#Безымянный_градиент_140-3);
      }

      .cls-15 {
        fill: url(#Безымянный_градиент_140-4);
      }

      .cls-16 {
        fill: url(#Безымянный_градиент_140-5);
      }
    </style>
    <linearGradient id="Безымянный_градиент_110" data-name="Безымянный градиент 110" x1="164.93" y1="824.17" x2="238.09" y2="697.45" gradientUnits="userSpaceOnUse">
      <stop offset="0" stop-color="#6291fb"/>
      <stop offset="1" stop-color="#fff" stop-opacity="0"/>
    </linearGradient>
    <linearGradient id="Безымянный_градиент_140" data-name="Безымянный градиент 140" x1="655.96" y1="799.15" x2="633.69" y2="672.87" xlink:href="#Безымянный_градиент_110"/>
    <linearGradient id="Безымянный_градиент_140-2" data-name="Безымянный градиент 140" x1="941.45" y1="548.21" x2="882.42" y2="498.67" xlink:href="#Безымянный_градиент_110"/>
    <linearGradient id="Безымянный_градиент_140-3" data-name="Безымянный градиент 140" x1="129.48" y1="583.65" x2="58.38" y2="460.51" xlink:href="#Безымянный_градиент_110"/>
    <linearGradient id="Безымянный_градиент_140-4" data-name="Безымянный градиент 140" x1="410.63" y1="356.58" x2="380.48" y2="273.74" xlink:href="#Безымянный_градиент_110"/>
    <linearGradient id="Безымянный_градиент_140-5" data-name="Безымянный градиент 140" x1="794.33" y1="350.22" x2="842.42" y2="218.1" xlink:href="#Безымянный_градиент_110"/>
  </defs>
  <title>2</title>
  <g>
    <path class="cls-1" d="M668.6,301.8c136.2-.4,242,44.5,270.1,127,19.6,57.7-2.1,124.1-54,187M728.9,742.5a832.1,832.1,0,0,1-148.1,66.7l-19.1,6.3M355.3,852.3C209.5,857.4,94.6,812.3,65.2,725.7,43.3,661.2,73,586,138.6,516.8M307.4,394.2a848.7,848.7,0,0,1,115.6-49q31-10.6,61.8-18.5"/>
    <g>
      <path class="cls-2" d="M763.2,509.1s-1.5,14.2-.6,15.1,4.9,3.3,5.9,3.3,8.1-2.7,8.9-4.6.2-5.6-1.8-8.1-2-7.7-2-7.7l-10.3,1.9Z"/>
      <path class="cls-3" d="M779.6,667.7s-24,23.5-18.8,26.7c7.3,4.6,36.7-14.3,36.7-15.8s-2.1-16.2-2.1-16.2l-15.8,5.2Z"/>
      <path class="cls-3" d="M812.1,685.8s-23.2,25.3-16.5,29.8,34.4-17.3,34.4-18.8-2.1-16.2-2.1-16.2l-15.8,5.2Z"/>
      <path class="cls-4" d="M774.4,522.3l-.5,148s-.3,4.3,11.2,4.3,12.2-5.5,12.2-5.5l3.1-107.2h.6L807,688.7s-.7,3.4,10.9,3.4,12.2-5.5,12.2-5.5l1.1-159.3-56.7-5Z"/>
      <path class="cls-2" d="M782.6,410c-1.7-.2-11.8,1.8-13.7,17.2-.7,5.6-2.1,25.3-2.8,43.8-.8,21.3-2.9,38.1-2.9,38.1,0,4.9,8.5,8.5,12.1,4.9.5-.5,6.6-26.1,6.9-47.9.3-27.8,12.3-55,.4-56.2Z"/>
      <path class="cls-5" d="M782.5,410c-1.7-.2-12.1,1.3-13.9,17.4-.6,5.6-2.1,25.6-2.8,44.4v.3a18.8,18.8,0,0,0,16,2.8c.2-2.7.3-5.3.3-7.9.3-28.1,12.4-55.7.4-56.9Z"/>
      <path class="cls-5" d="M772.6,521.2s-1.5-24.9-1.1-47.8c.3-19.2-1.6-38.3-1.5-43,.2-11.9,7.7-20.3,12.1-20.4,0,0,30.6,2.5,56.1,22.4,0,0-2.7,99.5-6.1,100.6-28,9.5-58.3-6.6-59.4-11.8Z"/>
      <path class="cls-6" d="M831.2,504.5c0-1.4,0-2.8-.1-4.1h-.4c-.4-18.2-1.3-29.1-2-37l-1.3,71,4.1-1.2c0-6.5-.1-16-.3-28.6Z"/>
      <path class="cls-2" d="M793.9,404.3s-1.6,12.1-2.4,18.8c-.6,4.9,2.6,8.3,9.4,6.9,9.8-2.1,14.7-7.9,14.7-7.9-3.1-10.6-2.9-25.9-2.9-25.9l-18.9,8.1Z"/>
      <path class="cls-6" d="M814.8,418.9a2,2,0,0,1-.5,1.9c-1.9,1.9-7.8,7.6-15.6,9.6l3.1,10.3s16-12,15.8-17.5a9.9,9.9,0,0,0-3.3-7l.5,2.7Z"/>
      <path class="cls-6" d="M792.1,418.4a22.5,22.5,0,0,0-3.7,7.6c-1.5,5,1.9,12,1.9,12l4.1-8.5s-2.4-3.9-2.6-5.4a34.9,34.9,0,0,1,.4-5.8Z"/>
      <path class="cls-2" d="M778,384.3s1.5,22.8,7,26.9,22.7.2,32.2-16.1c8-13.6,4.6-40.2-12.5-43-20-3.3-27.9,11.8-26.7,32.3Z"/>
      <path class="cls-7" d="M804.7,368.9c-4.7,2-10,2.1-15,1.6-7.3-.8-13.9-4.6-16.9-11.3,1.5-.9,24.6-9.9,32.5-8,3.8.9,11.2,3.4,10.2,8.2s-7,7.9-10.8,9.5Z"/>
      <path class="cls-7" d="M807.9,365.5c-1.7,4.9.7,10.2,2.2,15.2s.7,8.7.5,13.2a31.1,31.1,0,0,1,2.1-6.6c.9-2.2,2.2-4.4,3.9-4.4s1.8,2.2,1.9,4.1c0,5.3-2.1,9.1-4.6,13.7,5.3-4.3,10.2-10.9,11.1-17.6a32.3,32.3,0,0,0-4-20.3c-1.5-2.6-3.5-5-6.7-3.7a12,12,0,0,0-6.3,6.5Z"/>
      <path class="cls-2" d="M831.7,543s-.3,8.7,0,10.3a7.1,7.1,0,0,0,2,3.3s-.2,4,1.4,5.2,10.6-3.2,11.9-4.6-.4-16.4-.4-16.4-12.7-5.1-14.9,2.2Z"/>
      <path class="cls-2" d="M838.1,432.3s-9.5,2.3-10,13.6,2.5,21.8,3,58.6c.4,27.3.4,39.8.4,39.8s4.3,4.6,15-3.6c0,0,1.7-50.5,1.6-57.2-.7-41.5-2.6-46.8-10.1-51.3Z"/>
      <path class="cls-5" d="M848.4,498c.1-5.7,0-11,0-12.6-.7-42.9-.9-48.3-10.4-53,0,0-9.8,2.3-10.3,14s2.3,19.5,3,54c4.4,1.1,17.8,2.7,17.7-2.4Z"/>
      <path class="cls-2" d="M810.6,393.7s1.8-12.6,5.5-12.7,3.8,5.3,1.8,9.5-7.4,8.1-7.4,8.1v-4.8Z"/>
    </g>
    <g>
      <path class="cls-2" d="M537.2,414.6s-1.5,14.3-.6,15.1,5,3.4,5.9,3.4,8.1-2.7,8.9-4.6.2-5.7-1.8-8.1-2-7.7-2-7.7l-10.4,1.9Z"/>
      <path class="cls-3" d="M553.6,574s-24.1,23.6-18.9,26.9c7.3,4.6,36.9-14.3,36.9-15.9s-2.1-16.3-2.1-16.3L553.6,574Z"/>
      <path class="cls-3" d="M586.4,592.1s-23.3,25.4-16.6,29.9,34.6-17.4,34.6-18.9-2.1-16.3-2.1-16.3l-15.9,5.3Z"/>
      <path class="cls-4" d="M548.5,427.8l-.5,148.7s-.3,4.4,11.3,4.4,12.2-5.6,12.2-5.6l3.1-107.7h.6l6.1,127.4s-.7,3.4,10.9,3.4,12.2-5.6,12.2-5.6l1.1-160-57-5Z"/>
      <path class="cls-2" d="M606,448.6s-.3,8.7,0,10.4a7.1,7.1,0,0,0,2,3.3s-.2,4,1.4,5.2,10.6-3.2,12-4.7-.4-16.4-.4-16.4-12.7-5.1-15,2.2Z"/>
      <path class="cls-5" d="M622.6,389c-.7-41.7-2.6-47-10.1-51.5-22.8-17.7-49.5-21.7-55.2-22.4h-1.1l-1.3.2c-3.5.9-10.4,4.6-11.9,17.1-.7,5.6-7.7,81.1-7.7,81.1,0,3.3,4.8,6.6,9,7.3-.1,3.2-.2,5.1-.2,5.1,1.1,5.2,5.8,9.6,12,13l6.2-5.7,8.2,11c12.8,3.1,27.8,2.3,34.5-3l.3,9s6.8,6.4,17.5-1.9c0,0,.1-52.5,0-59.2Z"/>
      <path class="cls-6" d="M545.4,388.2l-.8-42.5h0l-2.5,74.3,2.2.6c.3-6.7.8-19.1,1.1-32.4Z"/>
      <path class="cls-6" d="M565,392.8l27.8-24.9-7.7-3.2,8.9-.4s6.1-29.5,4.4-34.6c-5.7-17.2-30.2-14.4-37.9-6.7s-12.7,23.9-12.7,23.9l7.6,5.7-8.6,1L565,392.8Z"/>
      <path class="cls-5" d="M568.9,321.2s-8.6,2.4-9.6,21.6c-.4,8.6,5.8,50,5.8,50s30.3-55.1,27.6-64.5c-1.9-6.7-5.6-6.2-5.6-6.2l-18.1-.9Z"/>
      <path class="cls-2" d="M568,309.3s-1.6,12.2-2.4,18.9c-.6,5,8.2,8.2,14.9,6.1a16.8,16.8,0,0,0,9.4-7.1c-3.2-10.6-3-26.1-3-26.1l-19,8.2Z"/>
      <path class="cls-4" d="M565,392.8s4-7.3,9-17.1l-2-34.6,3.2-6.4-9.3-2,1.9,7.6-5.9,30.2c1.5,11.6,3.1,22.2,3.1,22.2Z"/>
      <polygon class="cls-4" points="565.9 332.7 567.9 340.4 572.1 341.1 575.2 334.7 565.9 332.7 565.9 332.7"/>
      <path class="cls-2" d="M554.4,289.2s1.5,22.9,7,27,22.8.2,32.4-16.2c8-13.6,4.7-40.4-12.6-43.2-20.1-3.3-28.1,11.9-26.9,32.4Z"/>
      <path class="cls-6" d="M602.5,363.5l-1.1,79.6a16.3,16.3,0,0,0,3.4-2c-.6-17.6-1.9-56.8-2.3-77.6Z"/>
      <path class="cls-8" d="M589.1,323.9a2,2,0,0,1-.5,1.9c-1.9,1.9-8.3,6.1-16.2,8.1l3.6,11.9s16.1-12.1,15.9-17.6a10,10,0,0,0-3.3-7l.5,2.7Z"/>
      <path class="cls-8" d="M566.2,323.4a22.6,22.6,0,0,0-3.8,7.7c-1.5,5,1.9,12.1,1.9,12.1l4.9-10.1s-3.1-2.4-3.4-3.9a35,35,0,0,1,.4-5.8Z"/>
      <path class="cls-9" d="M587.2,298.6v.8h0v-.8Z"/>
      <path class="cls-7" d="M593.2,260.2a26.2,26.2,0,0,0-3-2.4,27.4,27.4,0,0,0-4.6-2.5l-2.7-.7c-19.6-3-30.6,10.1-30.9,28.4,7.6,6.5,29.4,6.9,35.3-3.8l-.2,19.4s1.8-12.6,5.5-12.8,3.8,5.3,1.8,9.5a19.7,19.7,0,0,1-4.3,5.5c-.1.8-.3,2.3-.6,5,1.1-.5,4.9-5.2,6.4-8.2,5.6-11,5.9-27.8-2.9-37.5Z"/>
    </g>
    <g>
      <path class="cls-3" d="M461.5,847.3v15.5a9.4,9.4,0,0,0,10.2,3.1c6.7-1.9,30-14,28.2-17.8-4.2-9.2-14.3-3-27.2-2-7.1.6-11.2,1.1-11.2,1.1Z"/>
      <path class="cls-3" d="M425.6,827.3v15.5a9.4,9.4,0,0,0,10.2,3.1c6.7-1.9,30.6-14.3,28.2-17.8-5.9-8.8-14.3-3-27.2-2-7.1.6-11.2,1.1-11.2,1.1Z"/>
      <path class="cls-2" d="M421.2,675.9l.7,13.5s4.5,3,5,3.5,11.6-3.5,11.6-4.8-2.5-9.1-2.5-10.3-.8-7.2-.8-7.2l-14,5.3Z"/>
      <path class="cls-5" d="M439.9,562.7c-4.1-.6-18.2-1.5-20.5,26.3a434.1,434.1,0,0,0-1.2,45.9l1.8,42.6s8.1,7.4,19-1.1c0,0-3.1-46.9-1.6-63.9,2.2-25.1,11.1-48.6,2.5-49.8Z"/>
      <path class="cls-6" d="M423.4,672.5s-1.2-24.7-.8-47.2c.3-17.4.7-24.7.8-33.4h0c-3.1,26.5-.9,87-.9,87.1a13.7,13.7,0,0,0,5,1.3V678a38.9,38.9,0,0,1-4-5.5Z"/>
      <path class="cls-4" d="M425.1,666.2,423.4,828s-.4,4.5,11.5,4.5,12.5-5.7,12.5-5.7l4.7-119,2.2,1.2,4.9,139.3s-.4,4.5,11.5,4.5,12.5-5.7,12.5-5.7L485,676.7l-59.9-10.6Z"/>
      <path class="cls-5" d="M423.4,672.5s-1.2-24.7-.8-47.2c.3-18.8.8-25.9.8-35.6,0-21.9,9.4-27.2,16.5-27,0,0,28.5,8.5,50.4,27.9l1.3,86.2c-4.5,15.4-26.3,20.5-45.4,13.6l-2.7-10-2.7,7.7c-7.2-3.7-12.9-8-17.5-15.6Z"/>
      <path class="cls-2" d="M480.2,530.3s1.3,23.9-4.5,28.1-33.5,1.5-41.7-13-3.7-41.7,14.5-44.6c21.3-3.5,33,8,31.7,29.4Z"/>
      <path class="cls-2" d="M449.7,551l-4.7,24.1s7.9,8.5,22.7,2.4c0,0,1.4-18.6,2.7-21.4s-20.6-5.2-20.6-5.2Z"/>
      <path class="cls-7" d="M481.4,518.6c7.9-23.6-32.7-24.6-42.6-15.4-4.4,4-15.9,18.7-6.2,40.2,4.2,9.3,16.3,17.7,16.3,17.7s13.2-11.4,13.7-13.6c0,0-6-10.4,0-14.5s8.5,12,8.5,12,1-15.9,1-20.7c1.4-11,7.7-.7,9.4-5.7Z"/>
      <path class="cls-2" d="M480.4,707.1s.3,11.5.4,13-1.4,2.5-.2,5.4a17.7,17.7,0,0,0,4.8,3.2c1.3.4,9.6-5.2,10.8-6.1s.2-8.1.1-9.8-.2-9-1.2-9.3-14.6,3.6-14.6,3.6Z"/>
      <path class="cls-5" d="M491.6,591.6c-2.4-3.6-11.9-9.6-16.4,5.5s3.2,113.4,3.2,113.4,11.6,7.5,19.3-4.3c0,0-4.4-36.9-4.4-59.6s2.7-48.2-1.8-55Z"/>
      <path class="cls-6" d="M473.9,614.4c-.3,15.3-.9,54.4,1.2,77.4l2-.7c-1.4-21.4-3.4-55.5-3.2-76.7Z"/>
      <path class="cls-10" d="M474.1,608.1h0Z"/>
      <path class="cls-6" d="M444.4,574.5c-.2-1.3.5-6.2,1.8-5.8s.3,6,21.9,3l2.3,4.5s-7.2,5.1-14.1,4.6c-4.9-.4-11.3-3.4-11.8-6.2Z"/>
    </g>
    <g>
      <path class="cls-3" d="M238.2,754.8v15.5a9.4,9.4,0,0,0,10.2,3.1c6.6-1.9,29.9-13.9,28.1-17.7-4.2-9.2-14.3-3-27.1-2-7.1.6-11.2,1.1-11.2,1.1Z"/>
      <path class="cls-3" d="M202.4,734.9v15.5a9.4,9.4,0,0,0,10.2,3.1c6.6-1.9,30.4-14.3,28.1-17.7-5.8-8.8-14.3-3-27.1-2-7.1.6-11.2,1.1-11.2,1.1Z"/>
      <path class="cls-2" d="M198,584.1l.7,13.4s4.5,3,5,3.5,11.6-3.5,11.6-4.8-2.5-9.1-2.5-10.3-.8-7.1-.8-7.1l-14,5.3Z"/>
      <path class="cls-4" d="M201.9,574.4l-1.8,161.3s-.3,4.4,11.5,4.4,12.5-5.7,12.5-5.7l4.7-118.5h0a4.3,4.3,0,0,1,2.2,3.6l4.8,136.3s-.3,4.4,11.5,4.4,12.5-5.7,12.5-5.7l1.7-169.7-59.6-10.5Z"/>
      <path class="cls-5" d="M270,555c0-22.6,2.6-48-1.8-54.8a10.6,10.6,0,0,0-4.2-3.5c-18.7-15.4-40.7-23.2-46.1-25l-1.2-.4c-4.1-.6-18.2-1.5-20.4,26.2a432.2,432.2,0,0,0-1.2,45.7l1.7,42.4a13,13,0,0,0,5,2.5v-7.7c12,11.5,36.9,15.8,51.4,12.5,1,14.9,1.8,25.6,1.8,25.6s11.6,7.5,19.3-4.3c0,0-4.4-36.7-4.4-59.4Z"/>
      <path class="cls-6" d="M201.8,588.1v-7.7l-.7-.7s-2.2-23.6-1.8-46c.3-18.8.8-25.8.8-35.5q0-1.1,0-2.1v-.3a396.3,396.3,0,0,0-.9,82.9l.9,8.7,1.6.5Z"/>
      <path class="cls-2" d="M256.7,438.3s1.3,23.3-4.4,27.4-32.7,1.4-40.6-12.6-3.6-40.6,14.2-43.5c20.8-3.4,32.1,7.8,30.9,28.7Z"/>
      <path class="cls-2" d="M226.4,459.7l-4.7,24s7.9,8.5,22.6,2.4c0,0,1.4-18.5,2.7-21.3s-20.5-5.1-20.5-5.1Z"/>
      <path class="cls-2" d="M256.9,615.1s.3,11.5.4,12.9-1.4,2.5-.2,5.4a17.7,17.7,0,0,0,4.8,3.2c1.3.4,9.5-5.2,10.7-6.1s.2-8,.1-9.7-.2-8.9-1.2-9.3-14.6,3.6-14.6,3.6Z"/>
      <path class="cls-6" d="M250.7,516.4l-.2-2.3-2.7,79.8a42,42,0,0,0,5.5-.9c-1.5-23.8-3.4-58.2-2.6-76.6Z"/>
      <path class="cls-6" d="M221.1,483.1c-.2-1.3.5-6.2,1.8-5.8s.3,6,21.8,3l2.3,4.4s-7.2,5.1-14,4.5c-4.9-.4-11.3-3.4-11.8-6.2Z"/>
      <path class="cls-7" d="M258.3,427.2c-5.9-25.1-30.1-25.1-40.9-17.4-4.8,3.4-5.7,9.6-5.7,9.6a9.5,9.5,0,0,0-4.8,5.4c-1.9,6.6-1.8,17.4,2.6,27.1s16.3,17.7,16.3,17.7,13.2-11.4,13.7-13.6c0,0-6-10.4,0-14.5s8.5,12,8.5,12l.2-17.9a13.5,13.5,0,0,0,7.7-1,9.4,9.4,0,0,1-5.2-.9l-1.7-.9c2.4,0,10.6-.5,9.4-5.7Z"/>
    </g>
    <path class="cls-11" d="M356.2,765.6C210.4,770.7,95.5,725.6,66.1,639l-.7-2c-8.7,30.7-8.9,60.7.7,88.7,29.4,86.6,144.3,131.7,290.1,126.6V765.6Z"/>
    <path class="cls-12" d="M561.2,729.1v86.7l19.1-6.3a832.1,832.1,0,0,0,148.1-66.7V656.2a832.1,832.1,0,0,1-148.1,66.7l-19.1,6.3Z"/>
    <path class="cls-13" d="M884.6,529.3V616c51.3-62.2,73.2-127.8,54.7-185.1-9.2,32.6-27.9,65.9-54.7,98.3Z"/>
    <path class="cls-14" d="M138.1,517.6V430.9c-65,68.5-94.8,142.9-74.1,207,11.3-40,36.9-81.1,74.1-120.3Z"/>
    <path class="cls-15" d="M307.5,307.4v86.7a848.7,848.7,0,0,1,115.6-49q31-10.6,61.8-18.5V239.9q-30.6,7.9-61.8,18.5a848.7,848.7,0,0,0-115.6,49Z"/>
    <path class="cls-16" d="M668.7,215.6v86.7c136.2-.4,242,44.5,270.1,127l.7,2c8.7-30.7,8.9-60.7-.7-88.7-28.1-82.5-133.9-127.4-270.1-127Z"/>
  </g>
</svg>
