<?xml version="1.0" encoding="UTF-8"?>
<svg width="266px" height="266px" viewBox="0 0 266 266" version="1.1" xmlns="http://www.w3.org/2000/svg" xmlns:xlink="http://www.w3.org/1999/xlink">
    <!-- Generator: Sketch 63.1 (92452) - https://sketch.com -->
    <title>ServicesList_desktop Copy 7</title>
    <desc>Created with Sketch.</desc>
    <defs>
        <linearGradient x1="0%" y1="50%" x2="100%" y2="50%" id="linearGradient-1">
            <stop stop-color="#CFD8DB" offset="0%"></stop>
            <stop stop-color="#CFD8DB" offset="100%"></stop>
        </linearGradient>
        <linearGradient x1="0.0129971406%" y1="50.0036526%" x2="100%" y2="50.0036526%" id="linearGradient-2">
            <stop stop-color="#CFD8DB" offset="0%"></stop>
            <stop stop-color="#CFD8DB" offset="100%"></stop>
        </linearGradient>
        <linearGradient x1="0%" y1="49.9793984%" x2="100%" y2="49.9793984%" id="linearGradient-3">
            <stop stop-color="#CFD8DB" offset="0%"></stop>
            <stop stop-color="#CFD8DB" offset="100%"></stop>
        </linearGradient>
        <linearGradient x1="0%" y1="49.9793984%" x2="100%" y2="49.9793984%" id="linearGradient-4">
            <stop stop-color="#CFD8DB" offset="0%"></stop>
            <stop stop-color="#CFD8DB" offset="100%"></stop>
        </linearGradient>
        <linearGradient x1="0%" y1="50%" x2="100%" y2="50%" id="linearGradient-5">
            <stop stop-color="#CFD8DB" offset="0%"></stop>
            <stop stop-color="#CFD8DB" offset="100%"></stop>
        </linearGradient>
        <linearGradient x1="0%" y1="50%" x2="100%" y2="50%" id="linearGradient-6">
            <stop stop-color="#CFD8DB" offset="0%"></stop>
            <stop stop-color="#CFD8DB" offset="100%"></stop>
        </linearGradient>
        <linearGradient x1="0%" y1="50.0825083%" x2="100%" y2="50.0825083%" id="linearGradient-7">
            <stop stop-color="#CFD8DB" offset="0%"></stop>
            <stop stop-color="#CFD8DB" offset="100%"></stop>
        </linearGradient>
        <linearGradient x1="0%" y1="50.0825083%" x2="100%" y2="50.0825083%" id="linearGradient-8">
            <stop stop-color="#CFD8DB" offset="0%"></stop>
            <stop stop-color="#CFD8DB" offset="100%"></stop>
        </linearGradient>
        <linearGradient x1="0%" y1="49.9793984%" x2="100%" y2="49.9793984%" id="linearGradient-9">
            <stop stop-color="#CFD8DB" offset="0%"></stop>
            <stop stop-color="#CFD8DB" offset="100%"></stop>
        </linearGradient>
        <linearGradient x1="0%" y1="50%" x2="100%" y2="50%" id="linearGradient-10">
            <stop stop-color="#CFD8DB" offset="0%"></stop>
            <stop stop-color="#CFD8DB" offset="100%"></stop>
        </linearGradient>
        <linearGradient x1="0%" y1="50.0617028%" x2="99.9774718%" y2="50.0617028%" id="linearGradient-11">
            <stop stop-color="#CFD8DB" offset="0%"></stop>
            <stop stop-color="#CFD8DB" offset="100%"></stop>
        </linearGradient>
        <linearGradient x1="0%" y1="50.0617028%" x2="99.9774718%" y2="50.0617028%" id="linearGradient-12">
            <stop stop-color="#CFD8DB" offset="0%"></stop>
            <stop stop-color="#CFD8DB" offset="100%"></stop>
        </linearGradient>
        <linearGradient x1="0%" y1="49.9848255%" x2="100%" y2="49.9848255%" id="linearGradient-13">
            <stop stop-color="#C6CED1" offset="0%"></stop>
            <stop stop-color="#B7C4C7" offset="100%"></stop>
        </linearGradient>
        <linearGradient x1="0%" y1="50.0146929%" x2="99.9816312%" y2="50.0146929%" id="linearGradient-14">
            <stop stop-color="#CFD8DB" offset="0%"></stop>
            <stop stop-color="#CFD8DB" offset="100%"></stop>
        </linearGradient>
        <linearGradient x1="1077.78474%" y1="-230.663697%" x2="978.490844%" y2="-228.665111%" id="linearGradient-15">
            <stop stop-color="#B8CCF8" offset="0%"></stop>
            <stop stop-color="#AABDEA" offset="54%"></stop>
            <stop stop-color="#9AADDB" offset="100%"></stop>
        </linearGradient>
        <linearGradient x1="50.0311312%" y1="-5.33599127%" x2="50.0311312%" y2="105.009068%" id="linearGradient-16">
            <stop stop-color="#C8D4FA" offset="0%"></stop>
            <stop stop-color="#B5C7FF" offset="100%"></stop>
        </linearGradient>
        <linearGradient x1="9.34307553%" y1="111.634718%" x2="110.636052%" y2="5.55111512e-15%" id="linearGradient-17">
            <stop stop-color="#004FFF" offset="0%"></stop>
            <stop stop-color="#FFFFFF" stop-opacity="0" offset="100%"></stop>
        </linearGradient>
        <linearGradient x1="-1.02690758%" y1="33.4429104%" x2="101.026908%" y2="66.5570896%" id="linearGradient-18">
            <stop stop-color="#CFD8DB" offset="0%"></stop>
            <stop stop-color="#CFD8DB" offset="100%"></stop>
        </linearGradient>
        <linearGradient x1="0.5%" y1="49.9588477%" x2="100.5%" y2="49.9588477%" id="linearGradient-19">
            <stop stop-color="#CFD8DB" offset="0%"></stop>
            <stop stop-color="#CFD8DB" offset="100%"></stop>
        </linearGradient>
        <linearGradient x1="0%" y1="50.0206016%" x2="100%" y2="50.0206016%" id="linearGradient-20">
            <stop stop-color="#CFD8DB" offset="0%"></stop>
            <stop stop-color="#CFD8DB" offset="100%"></stop>
        </linearGradient>
        <linearGradient x1="0%" y1="50.0206016%" x2="100%" y2="50.0206016%" id="linearGradient-21">
            <stop stop-color="#CFD8DB" offset="0%"></stop>
            <stop stop-color="#CFD8DB" offset="100%"></stop>
        </linearGradient>
        <linearGradient x1="0%" y1="50.0206016%" x2="100%" y2="50.0206016%" id="linearGradient-22">
            <stop stop-color="#CFD8DB" offset="0%"></stop>
            <stop stop-color="#CFD8DB" offset="100%"></stop>
        </linearGradient>
        <linearGradient x1="2.82801375e-05%" y1="50.0378437%" x2="99.999434%" y2="50.0378437%" id="linearGradient-23">
            <stop stop-color="#CFD8DB" offset="0%"></stop>
            <stop stop-color="#CFD8DB" offset="100%"></stop>
        </linearGradient>
        <linearGradient x1="3.24968623e-07%" y1="49.8559213%" x2="99.9999997%" y2="49.8559213%" id="linearGradient-24">
            <stop stop-color="#CFD8DB" offset="0%"></stop>
            <stop stop-color="#CFD8DB" offset="100%"></stop>
        </linearGradient>
        <linearGradient x1="0%" y1="50%" x2="100%" y2="50%" id="linearGradient-25">
            <stop stop-color="#CFD8DB" offset="0%"></stop>
            <stop stop-color="#CFD8DB" offset="100%"></stop>
        </linearGradient>
        <linearGradient x1="0%" y1="50.0146929%" x2="100%" y2="50.0146929%" id="linearGradient-26">
            <stop stop-color="#CFD8DB" offset="0%"></stop>
            <stop stop-color="#CFD8DB" offset="100%"></stop>
        </linearGradient>
        <linearGradient x1="-1.02690758%" y1="33.4404675%" x2="101.026908%" y2="66.5522279%" id="linearGradient-27">
            <stop stop-color="#CFD8DB" offset="0%"></stop>
            <stop stop-color="#CFD8DB" offset="100%"></stop>
        </linearGradient>
        <linearGradient x1="0%" y1="49.9588477%" x2="100%" y2="49.9588477%" id="linearGradient-28">
            <stop stop-color="#CFD8DB" offset="0%"></stop>
            <stop stop-color="#CFD8DB" offset="100%"></stop>
        </linearGradient>
        <linearGradient x1="-1.5%" y1="50.0206016%" x2="98.5%" y2="50.0206016%" id="linearGradient-29">
            <stop stop-color="#CFD8DB" offset="0%"></stop>
            <stop stop-color="#CFD8DB" offset="100%"></stop>
        </linearGradient>
        <linearGradient x1="0%" y1="49.9177632%" x2="100%" y2="49.9177632%" id="linearGradient-30">
            <stop stop-color="#CFD8DB" offset="0%"></stop>
            <stop stop-color="#CFD8DB" offset="100%"></stop>
        </linearGradient>
        <linearGradient x1="3.2394671e-07%" y1="50.0213915%" x2="100%" y2="50.0213915%" id="linearGradient-31">
            <stop stop-color="#CFD8DB" offset="0%"></stop>
            <stop stop-color="#CFD8DB" offset="100%"></stop>
        </linearGradient>
        <linearGradient x1="0.000564198738%" y1="49.8792555%" x2="99.9996513%" y2="49.8792555%" id="linearGradient-32">
            <stop stop-color="#CFD8DB" offset="0%"></stop>
            <stop stop-color="#CFD8DB" offset="100%"></stop>
        </linearGradient>
        <linearGradient x1="0%" y1="50.0151745%" x2="100%" y2="50.0151745%" id="linearGradient-33">
            <stop stop-color="#C6CED1" offset="0%"></stop>
            <stop stop-color="#B7C4C7" offset="100%"></stop>
        </linearGradient>
        <linearGradient x1="0%" y1="50.0146929%" x2="100%" y2="50.0146929%" id="linearGradient-34">
            <stop stop-color="#CFD8DB" offset="0%"></stop>
            <stop stop-color="#CFD8DB" offset="100%"></stop>
        </linearGradient>
        <linearGradient x1="100%" y1="50%" x2="0%" y2="50%" id="linearGradient-35">
            <stop stop-color="#004FFF" offset="0%"></stop>
            <stop stop-color="#004FFF" stop-opacity="0" offset="100%"></stop>
        </linearGradient>
        <linearGradient x1="0%" y1="50%" x2="100%" y2="50%" id="linearGradient-36">
            <stop stop-color="#CFD8DB" offset="0%"></stop>
            <stop stop-color="#CFD8DB" offset="100%"></stop>
        </linearGradient>
        <linearGradient x1="0.5%" y1="50%" x2="100.5%" y2="50%" id="linearGradient-37">
            <stop stop-color="#CFD8DB" offset="0%"></stop>
            <stop stop-color="#CFD8DB" offset="100%"></stop>
        </linearGradient>
        <linearGradient x1="2.82801991e-05%" y1="50.1438285%" x2="99.9996517%" y2="50.1438285%" id="linearGradient-38">
            <stop stop-color="#CFD8DB" offset="0%"></stop>
            <stop stop-color="#CFD8DB" offset="100%"></stop>
        </linearGradient>
        <linearGradient x1="0.000560946941%" y1="50.0378437%" x2="99.999434%" y2="50.0378437%" id="linearGradient-39">
            <stop stop-color="#CFD8DB" offset="0%"></stop>
            <stop stop-color="#CFD8DB" offset="100%"></stop>
        </linearGradient>
        <linearGradient x1="0%" y1="50%" x2="100%" y2="50%" id="linearGradient-40">
            <stop stop-color="#C6CED1" offset="0%"></stop>
            <stop stop-color="#B7C4C7" offset="100%"></stop>
        </linearGradient>
        <linearGradient x1="0%" y1="49.9853071%" x2="100%" y2="49.9853071%" id="linearGradient-41">
            <stop stop-color="#CFD8DB" offset="0%"></stop>
            <stop stop-color="#CFD8DB" offset="100%"></stop>
        </linearGradient>
        <linearGradient x1="50.0028158%" y1="100%" x2="50.0028158%" y2="0%" id="linearGradient-42">
            <stop stop-color="#004FFF" offset="0%"></stop>
            <stop stop-color="#FFFFFF" stop-opacity="0" offset="100%"></stop>
        </linearGradient>
        <linearGradient x1="50.0028158%" y1="100%" x2="50.0028158%" y2="0%" id="linearGradient-43">
            <stop stop-color="#004FFF" offset="0%"></stop>
            <stop stop-color="#FFFFFF" stop-opacity="0" offset="100%"></stop>
        </linearGradient>
        <linearGradient x1="50%" y1="100%" x2="50%" y2="3.061617e-15%" id="linearGradient-44">
            <stop stop-color="#004FFF" offset="0%"></stop>
            <stop stop-color="#004FFF" stop-opacity="0" offset="100%"></stop>
        </linearGradient>
    </defs>
    <g id="Services" stroke="none" stroke-width="1" fill="none" fill-rule="evenodd">
        <g id="ServicesList_desktop-Copy" transform="translate(-520.000000, -1873.000000)">
            <rect fill="#FFFFFF" x="0" y="0" width="1400" height="2351"></rect>
            <g id="distributed-network-and-blockchain-development-copy" transform="translate(566.000000, 1875.000000)">
                <polygon id="Shape" fill="#EDEFF1" fill-rule="nonzero" points="105.968075 138.761401 105.968075 179.490935 138.564039 198.314252 138.564039 157.589122"></polygon>
                <path d="M127.325873,169.955961 L127.325873,170.088086 C127.325851,170.339195 127.46027,170.571093 127.678167,170.695858 C127.894873,170.81994 128.161253,170.81921 128.377276,170.693939 C128.593298,170.56867 128.726264,170.337822 128.72624,170.088086 L128.72624,169.955961 C128.726264,169.704852 128.591844,169.472954 128.373947,169.348189 C128.157241,169.224107 127.89086,169.224837 127.674839,169.350107 C127.458816,169.475377 127.325851,169.706225 127.325873,169.955961 Z" id="Shape" fill="url(#linearGradient-1)" fill-rule="nonzero" opacity="0.6"></path>
                <path d="M127.325873,166.582386 L127.325873,166.71451 C127.325851,166.965619 127.46027,167.197518 127.678167,167.322282 C127.894873,167.446365 128.161253,167.445634 128.377276,167.320364 C128.593298,167.195094 128.726264,166.964246 128.72624,166.71451 L128.72624,166.582386 C128.726264,166.331277 128.591844,166.099378 128.373947,165.974614 C128.157241,165.850531 127.89086,165.851262 127.674839,165.976532 C127.458816,166.101802 127.325851,166.33265 127.325873,166.582386 Z" id="Shape" fill="url(#linearGradient-1)" fill-rule="nonzero" opacity="0.6"></path>
                <path d="M127.325873,163.354147 L127.325873,163.486272 C127.325851,163.737381 127.46027,163.969279 127.678167,164.094044 C127.894873,164.218126 128.161253,164.217396 128.377276,164.092126 C128.593298,163.966856 128.726264,163.736008 128.72624,163.486272 L128.72624,163.354147 C128.726264,163.103038 128.591844,162.87114 128.373947,162.746375 C128.157241,162.622293 127.89086,162.623023 127.674839,162.748294 C127.458816,162.873563 127.325851,163.104411 127.325873,163.354147 Z" id="Shape" fill="url(#linearGradient-1)" fill-rule="nonzero" opacity="0.6"></path>
                <polygon id="Shape" fill="url(#linearGradient-2)" fill-rule="nonzero" points="138.564039 157.589122 172.445874 138.025908 172.445874 178.755443 138.564039 198.314252"></polygon>
                <g id="Group" opacity="0.6" transform="translate(109.055047, 145.336789)" fill="url(#linearGradient-4)" fill-rule="nonzero">
                    <path d="M0.691376157,10.6888602 C0.44816819,10.6888602 0.251009178,10.49168 0.251009178,10.2484458 L0.251009178,0.440414515 C0.251009178,0.197180294 0.44816819,0 0.691376157,0 C0.934584126,0 1.13174314,0.197180294 1.13174314,0.440414515 L1.13174314,10.2528499 C1.12932815,10.4943625 0.93287471,10.6888602 0.691376157,10.6888602 Z" id="Shape"></path>
                </g>
                <g id="Group" opacity="0.6" transform="translate(112.137616, 148.419691)" fill="url(#linearGradient-6)" fill-rule="nonzero">
                    <path d="M0.779449553,10.7769432 C0.536241586,10.7769432 0.339082574,10.5797629 0.339082574,10.3365286 L0.339082574,0.524093272 C0.339082574,0.280859052 0.536241586,0.083678758 0.779449553,0.083678758 C1.02265752,0.083678758 1.21981653,0.280859052 1.21981653,0.524093272 L1.21981653,10.3365286 C1.21981653,10.5797629 1.02265752,10.7769432 0.779449553,10.7769432 Z" id="Shape"></path>
                </g>
                <g id="Group" opacity="0.6" transform="translate(115.220185, 151.062178)" fill="url(#linearGradient-8)" fill-rule="nonzero">
                    <path d="M0.590091752,11.0103629 C0.346883785,11.0103629 0.149724773,10.8131826 0.149724773,10.5699483 L0.149724773,0.775129545 C0.149724773,0.531895326 0.346883785,0.334715031 0.590091752,0.334715031 C0.833299716,0.334715031 1.03045873,0.531895326 1.03045873,0.775129545 L1.03045873,10.5699483 C1.03045873,10.8131826 0.833299716,11.0103629 0.590091752,11.0103629 Z" id="Shape"></path>
                </g>
                <g id="Group" opacity="0.6" transform="translate(127.550460, 173.963733)" fill="url(#linearGradient-4)" fill-rule="nonzero">
                    <path d="M0.475596337,10.803368 C0.232388371,10.803368 0.0352293583,10.6061878 0.0352293583,10.3629535 L0.0352293583,0.554922288 C0.0352293583,0.311688068 0.232388371,0.114507774 0.475596337,0.114507774 C0.718804304,0.114507774 0.915963318,0.311688068 0.915963318,0.554922288 L0.915963318,10.3629535 C0.915963318,10.6061878 0.718804304,10.803368 0.475596337,10.803368 Z" id="Shape"></path>
                </g>
                <g id="Group" opacity="0.6" transform="translate(130.633029, 177.046635)" fill="url(#linearGradient-6)" fill-rule="nonzero">
                    <path d="M0.563669733,10.8958551 C0.320461766,10.8958551 0.123302754,10.6986748 0.123302754,10.4554406 L0.123302754,0.643005191 C0.123302754,0.399770971 0.320461766,0.202590677 0.563669733,0.202590677 C0.8068777,0.202590677 1.00403671,0.399770971 1.00403671,0.643005191 L1.00403671,10.4554406 C1.00403671,10.6986748 0.8068777,10.8958551 0.563669733,10.8958551 Z" id="Shape"></path>
                </g>
                <g id="Group" opacity="0.6" transform="translate(133.275232, 180.129536)" fill="url(#linearGradient-12)" fill-rule="nonzero">
                    <path d="M0.814678908,10.7064769 C0.571470945,10.7064769 0.374311932,10.5092966 0.374311932,10.2660623 L0.374311932,0.440414515 C0.374311932,0.197180294 0.571470945,0 0.814678908,0 C1.05788688,0 1.25504589,0.197180294 1.25504589,0.440414515 L1.25504589,10.2528499 C1.25861944,10.3719271 1.21380619,10.4873729 1.13083087,10.5728467 C1.04785555,10.6583205 0.933796902,10.7064769 0.814678908,10.7064769 Z" id="Shape"></path>
                </g>
                <g id="Group" opacity="0.4" transform="translate(143.844039, 144.896375)" fill="#9EB3BA" fill-rule="nonzero">
                    <path d="M0.493211016,45.8031095 C0.250003049,45.8031095 0.0528440375,45.6059292 0.0528440375,45.362695 L0.0528440375,35.5282388 C0.0528440375,35.2850047 0.250003049,35.0878244 0.493211016,35.0878244 C0.736418984,35.0878244 0.933577998,35.2850047 0.933577998,35.5282388 L0.933577998,45.362695 C0.933577998,45.6059292 0.736418984,45.8031095 0.493211016,45.8031095 Z" id="Shape"></path>
                    <path d="M3.66385326,42.6057002 C3.4206453,42.6057002 3.22348629,42.4085198 3.22348629,42.1652856 L3.22348629,32.3528502 C3.22348629,32.109616 3.4206453,31.9124357 3.66385326,31.9124357 C3.90706123,31.9124357 4.10422025,32.109616 4.10422025,32.3528502 L4.10422025,42.1652856 C4.10422025,42.4085198 3.90706123,42.6057002 3.66385326,42.6057002 Z" id="Shape"></path>
                    <path d="M6.55706432,39.7121768 C6.31385635,39.7121768 6.11669734,39.5149964 6.11669734,39.2717623 L6.11669734,29.4593268 C6.11669734,29.2160927 6.31385635,29.0189124 6.55706432,29.0189124 C6.80027229,29.0189124 6.9974313,29.2160927 6.9974313,29.4593268 L6.9974313,39.2717623 C6.9974313,39.5149964 6.80027229,39.7121768 6.55706432,39.7121768 Z" id="Shape"></path>
                    <path d="M18.7728443,17.0352335 C18.5296364,17.0352335 18.3324773,16.8380531 18.3324773,16.5948189 L18.3324773,6.78238352 C18.3324773,6.5391493 18.5296364,6.34196901 18.7728443,6.34196901 C19.0160523,6.34196901 19.2132113,6.5391493 19.2132113,6.78238352 L19.2132113,16.5948189 C19.2132113,16.8380531 19.0160523,17.0352335 18.7728443,17.0352335 Z" id="Shape"></path>
                    <path d="M21.9478902,13.8642489 C21.7046822,13.8642489 21.5075233,13.6670686 21.5075233,13.4238344 L21.5075233,3.61139901 C21.5075233,3.36816479 21.7046822,3.1709845 21.9478902,3.1709845 C22.1910982,3.1709845 22.3882572,3.36816479 22.3882572,3.61139901 L22.3882572,13.4238344 C22.3882572,13.6670686 22.1910982,13.8642489 21.9478902,13.8642489 Z" id="Shape"></path>
                    <path d="M24.8411013,10.9707255 C24.5978933,10.9707255 24.4007343,10.7735453 24.4007343,10.530311 L24.4007343,0.717875659 C24.4007343,0.474641438 24.5978933,0.277461144 24.8411013,0.277461144 C25.0843093,0.277461144 25.2814683,0.474641438 25.2814683,0.717875659 L25.2814683,10.530311 C25.2814683,10.7735453 25.0843093,10.9707255 24.8411013,10.9707255 Z" id="Shape"></path>
                </g>
                <path d="M163.660558,172.413474 L163.660558,172.545599 C163.659003,172.795132 163.524796,173.024987 163.308259,173.148967 C163.092235,173.272665 162.826785,173.272358 162.611047,173.148159 C162.39531,173.023961 162.261726,172.794547 162.260181,172.545599 L162.260181,172.413474 C162.259256,172.163275 162.391874,171.931588 162.608076,171.805702 C162.825053,171.67936 163.093061,171.678878 163.310491,171.804437 C163.527922,171.929996 163.661489,172.162375 163.660558,172.413474 Z" id="Shape" fill="#9EB3BA" fill-rule="nonzero" opacity="0.15"></path>
                <path d="M163.660558,169.039899 L163.660558,169.172023 C163.658775,169.422644 163.524839,169.65371 163.308259,169.779795 C163.091554,169.903878 162.825173,169.903147 162.609151,169.777877 C162.393129,169.652607 162.260163,169.421759 162.260186,169.172023 L162.260186,169.039899 C162.260158,168.789939 162.392536,168.55867 162.608076,168.432127 C162.825053,168.305785 163.093061,168.305303 163.310491,168.430862 C163.527922,168.556421 163.661489,168.7888 163.660558,169.039899 Z" id="Shape" fill="#9EB3BA" fill-rule="nonzero" opacity="0.15"></path>
                <path d="M163.660558,165.811661 L163.660558,165.943785 C163.658775,166.194406 163.524839,166.425471 163.308259,166.551557 C163.091554,166.675639 162.825173,166.674909 162.609151,166.549638 C162.393129,166.424369 162.260163,166.193521 162.260186,165.943785 L162.260186,165.811661 C162.260158,165.5617 162.392536,165.330431 162.608076,165.203889 C162.825053,165.077546 163.093061,165.077064 163.310491,165.202623 C163.527922,165.328182 163.661489,165.560562 163.660558,165.811661 Z" id="Shape" fill="#9EB3BA" fill-rule="nonzero" opacity="0.15"></path>
                <line x1="138.568442" y1="157.589122" x2="138.568442" y2="198.314252" id="Shape" stroke="#FFFFFF" stroke-width="0.5" fill="#F7F7F7" fill-rule="nonzero" stroke-linecap="round" stroke-linejoin="round"></line>
                <polygon id="Shape" stroke="#FFFFFF" stroke-width="0.5" fill="#F7F7F7" fill-rule="nonzero" stroke-linecap="round" stroke-linejoin="round" points="138.564039 157.589122 105.968075 138.761401 139.845507 119.202592 172.445874 138.025908"></polygon>
                <polygon id="Shape" fill="#004FFF" fill-rule="nonzero" opacity="0.6" points="138.753397 152.343785 115.686975 139.02565 139.660553 125.183422 162.726975 138.501556"></polygon>
                <polygon id="Shape" fill="url(#linearGradient-13)" fill-rule="nonzero" points="162.726975 138.501556 139.660553 125.183422 139.581287 127.522023 160.661654 139.69508"></polygon>
                <polygon id="Shape" fill="url(#linearGradient-14)" fill-rule="nonzero" points="139.660553 125.183422 115.686975 139.02565 117.673029 140.170728 139.581287 127.522023"></polygon>
                <path d="M123.146791,166.419433 C122.500896,166.048578 121.706357,166.049999 121.061792,166.423161 C120.417227,166.796322 120.020298,167.484685 120.020183,168.229536 L120.020183,168.427723 C120.019149,169.172092 120.415332,169.860451 121.059451,170.233423 C121.704939,170.606135 122.500163,170.606343 123.145846,170.233969 C123.791528,169.861595 124.189681,169.173147 124.190478,168.427723 L124.190478,168.238344 C124.193497,167.488834 123.795368,166.794973 123.146791,166.419433 Z" id="Shape" fill="#9FAFB3" fill-rule="nonzero" opacity="0.5"></path>
                <path d="M137.811011,53.7305707 C137.171136,54.1131731 136.78451,54.8086192 136.797237,55.5541068 C136.809963,56.2995944 137.220101,56.9814357 137.872663,57.3419697 L138.048809,57.4388609 C138.70114,57.8000185 139.496377,57.7865954 140.136149,57.4036278 C140.775368,57.0190616 141.160797,56.3225676 141.14717,55.576649 C141.133543,54.8307303 140.722933,54.1487819 140.070094,53.7878246 L139.898351,53.6909334 C139.245693,53.329296 138.449473,53.3444158 137.811011,53.7305707 Z" id="Shape" stroke="url(#linearGradient-16)" stroke-width="0.5" fill="url(#linearGradient-15)" fill-rule="nonzero" opacity="0.5"></path>
                <line x1="138.920736" y1="55.4129542" x2="139.634131" y2="139.69508" id="Shape" stroke="#CFD8DB" stroke-width="1.32000002" stroke-linecap="round" stroke-linejoin="round"></line>
                <line x1="123.478534" y1="167.200002" x2="20.6000004" y2="225.365547" id="Shape-Copy" stroke="#CFD8DB" stroke-width="1.32000002"></line>
                <line x1="108.936148" y1="175.707775" x2="77.4499092" y2="193.509329" id="Shape" stroke="url(#linearGradient-17)" stroke-width="1.32000002" stroke-linecap="round"></line>
                <ellipse id="Oval" fill="#004FFF" fill-rule="nonzero" cx="77.1372492" cy="193.689899" rx="1.33871562" ry="1.33886012"></ellipse>
                <ellipse id="Oval" fill="#004FFF" fill-rule="nonzero" cx="139.206975" cy="88.9020741" rx="1.33871562" ry="1.33886012"></ellipse>
                <polygon id="Shape" fill="#EDEFF1" fill-rule="nonzero" points="6.82825706 200.009848 6.82825706 240.739382 39.4286245 259.562698 39.4286245 218.837568"></polygon>
                <polygon id="Shape" fill="url(#linearGradient-18)" fill-rule="nonzero" points="39.4286245 218.837568 73.3060562 199.274355 73.3060562 240.00389 39.4286245 259.562698"></polygon>
                <path d="M9.75229382,217.441454 C9.50908582,217.441454 9.31192685,217.244274 9.31192685,217.001039 L9.31192685,207.188604 C9.31192685,206.94537 9.50908582,206.748189 9.75229382,206.748189 C9.99550174,206.748189 10.1926608,206.94537 10.1926608,207.188604 L10.1926608,217.001039 C10.1926608,217.244274 9.99550174,217.441454 9.75229382,217.441454 Z" id="Shape" fill="url(#linearGradient-6)" fill-rule="nonzero"></path>
                <path d="M12.922936,220.612438 C12.6797281,220.612438 12.4825691,220.415258 12.4825691,220.172024 L12.4825691,210.359589 C12.4825691,210.116354 12.6797281,209.919174 12.922936,209.919174 C13.166144,209.919174 13.363303,210.116354 13.363303,210.359589 L13.363303,220.172024 C13.363303,220.415258 13.166144,220.612438 12.922936,220.612438 Z" id="Shape" fill="url(#linearGradient-6)" fill-rule="nonzero"></path>
                <path d="M15.8161471,223.505962 C15.5729391,223.505962 15.3757801,223.308782 15.3757801,223.065547 L15.3757801,213.253112 C15.3757801,213.009878 15.5729391,212.812698 15.8161471,212.812698 C16.059355,212.812698 16.2565141,213.009878 16.2565141,213.253112 L16.2565141,223.065547 C16.2565141,223.308782 16.059355,223.505962 15.8161471,223.505962 Z" id="Shape" fill="url(#linearGradient-6)" fill-rule="nonzero"></path>
                <path d="M28.0275235,246.191713 C27.7843154,246.191713 27.5871565,245.994533 27.5871565,245.751299 L27.5871565,235.930056 C27.5871565,235.686821 27.7843154,235.489641 28.0275235,235.489641 C28.2707314,235.489641 28.4678904,235.686821 28.4678904,235.930056 L28.4678904,245.751299 C28.4678904,245.994533 28.2707314,246.191713 28.0275235,246.191713 Z" id="Shape" fill="url(#linearGradient-19)" fill-rule="nonzero"></path>
                <path d="M31.206973,249.35389 C30.963765,249.35389 30.7666061,249.156709 30.7666061,248.913475 L30.7666061,239.105444 C30.7666061,238.86221 30.963765,238.665029 31.206973,238.665029 C31.450181,238.665029 31.64734,238.86221 31.64734,239.105444 L31.64734,248.913475 C31.64734,249.156709 31.450181,249.35389 31.206973,249.35389 Z" id="Shape" fill="url(#linearGradient-20)" fill-rule="nonzero"></path>
                <g id="Group" opacity="0.6" transform="translate(33.311927, 241.347154)" fill="url(#linearGradient-22)" fill-rule="nonzero">
                    <path d="M0.788256893,10.9002592 C0.545048926,10.9002592 0.347889913,10.703079 0.347889913,10.4598447 L0.347889913,0.651813481 C0.347889913,0.408579261 0.545048926,0.211398967 0.788256893,0.211398967 C1.03146486,0.211398967 1.22862387,0.408579261 1.22862387,0.651813481 L1.22862387,10.4598447 C1.22862387,10.703079 1.03146486,10.9002592 0.788256893,10.9002592 Z" id="Shape"></path>
                </g>
                <g id="Group" opacity="0.4" transform="translate(43.880734, 206.554407)" fill="#9EB3BA" fill-rule="nonzero">
                    <path d="M0.462385328,45.5344566 C0.219177361,45.5344566 0.022018349,45.3372764 0.022018349,45.0940421 L0.022018349,35.2860109 C0.022018349,35.0427767 0.219177361,34.8455964 0.462385328,34.8455964 C0.705593295,34.8455964 0.902752309,35.0427767 0.902752309,35.2860109 L0.902752309,45.0940421 C0.902752309,45.3372764 0.705593295,45.5344566 0.462385328,45.5344566 Z" id="Shape"></path>
                    <path d="M3.63743125,42.3634722 C3.39422328,42.3634722 3.19706427,42.1662918 3.19706427,41.9230576 L3.19706427,32.1106222 C3.19706427,31.867388 3.39422328,31.6702078 3.63743125,31.6702078 C3.88063921,31.6702078 4.07779823,31.867388 4.07779823,32.1106222 L4.07779823,41.9230576 C4.07779823,42.0398628 4.03140256,42.151884 3.94881772,42.2344777 C3.8662329,42.3170714 3.75422383,42.3634722 3.63743125,42.3634722 Z" id="Shape"></path>
                    <path d="M6.5306423,39.4699487 C6.28743433,39.4699487 6.09027532,39.2727685 6.09027532,39.0295343 L6.09027532,29.2170989 C6.09027532,28.9738647 6.28743433,28.7766843 6.5306423,28.7766843 C6.77385027,28.7766843 6.97100928,28.9738647 6.97100928,29.2170989 L6.97100928,39.0295343 C6.97100928,39.2727685 6.77385027,39.4699487 6.5306423,39.4699487 Z" id="Shape"></path>
                    <path d="M18.7464223,16.7930055 C18.5032144,16.7930055 18.3060553,16.5958251 18.3060553,16.3525909 L18.3060553,6.54015554 C18.3060553,6.29692132 18.5032144,6.09974103 18.7464223,6.09974103 C18.9896303,6.09974103 19.1867892,6.29692132 19.1867892,6.54015554 L19.1867892,16.3525909 C19.1867892,16.5958251 18.9896303,16.7930055 18.7464223,16.7930055 Z" id="Shape"></path>
                    <path d="M21.9170646,13.6220209 C21.6738566,13.6220209 21.4766976,13.4248406 21.4766976,13.1816064 L21.4766976,3.36917103 C21.4766976,3.12593681 21.6738566,2.92875652 21.9170646,2.92875652 C22.1602725,2.92875652 22.3574315,3.12593681 22.3574315,3.36917103 L22.3574315,13.1816064 C22.3574315,13.4248406 22.1602725,13.6220209 21.9170646,13.6220209 Z" id="Shape"></path>
                    <path d="M24.8102756,10.7240934 C24.5670676,10.7240934 24.3699086,10.5269131 24.3699086,10.2836789 L24.3699086,0.475647675 C24.3699086,0.232413455 24.5670676,0.0352331612 24.8102756,0.0352331612 C25.0534836,0.0352331612 25.2506426,0.232413455 25.2506426,0.475647675 L25.2506426,10.2836789 C25.2506426,10.4004841 25.2042469,10.5125053 25.1216621,10.595099 C25.0390773,10.6776927 24.9270682,10.7240934 24.8102756,10.7240934 Z" id="Shape"></path>
                </g>
                <path d="M27.3361469,231.371765 L27.3361469,231.50389 C27.3358828,231.752759 27.4685331,231.982823 27.6840372,232.107257 C27.8996911,232.233898 28.166712,232.23505 28.3834503,232.110275 C28.6001887,231.9855 28.7332997,231.753995 28.7321185,231.50389 L28.7321185,231.371765 C28.7330408,231.121566 28.6004229,230.889879 28.3842207,230.763993 C28.1675147,230.639911 27.9011343,230.640641 27.6851122,230.765911 C27.4690902,230.891181 27.3361245,231.122029 27.3361469,231.371765 Z" id="Shape-2" fill="url(#linearGradient-23)" fill-rule="nonzero" opacity="0.6"></path>
                <path d="M27.3361473,227.99819 L27.3361473,228.130315 C27.336119,228.380275 27.4684978,228.611543 27.6840372,228.738087 C27.9000617,228.861785 28.1655115,228.861478 28.3812491,228.737279 C28.5969868,228.613081 28.7305704,228.383667 28.7321106,228.134719 L28.7321106,228.002594 C28.7321389,227.752634 28.5997601,227.521365 28.3842207,227.394822 C28.1681962,227.271123 27.9027464,227.271431 27.6870087,227.395629 C27.471271,227.519827 27.3376874,227.749241 27.3361473,227.99819 Z" id="Shape" fill="url(#linearGradient-24)" fill-rule="nonzero" opacity="0.6"></path>
                <path d="M27.3361473,224.769951 L27.3361473,224.902076 C27.336119,225.152036 27.4684978,225.383306 27.6840372,225.509848 C27.9007432,225.633931 28.1671236,225.6332 28.3831456,225.50793 C28.5991677,225.38266 28.7321334,225.151812 28.7321106,224.902076 L28.7321106,224.769951 C28.7321389,224.519991 28.5997601,224.288722 28.3842207,224.162179 C28.1675147,224.038097 27.9011343,224.038827 27.6851122,224.164098 C27.4690902,224.289367 27.3361245,224.520215 27.3361473,224.769951 Z" id="Shape" fill="url(#linearGradient-25)" fill-rule="nonzero" opacity="0.6"></path>
                <path d="M63.6444096,233.824874 L63.6444096,233.956999 C63.6453349,234.207198 63.512717,234.438884 63.2965148,234.564771 C63.0795376,234.691112 62.8115301,234.691595 62.5940993,234.566035 C62.3766686,234.440476 62.2431021,234.208097 62.2440328,233.956999 L62.2440328,233.824874 C62.2437528,233.574842 62.3784585,233.344133 62.5963312,233.221506 C62.8123557,233.097807 63.0778056,233.098115 63.2935433,233.222313 C63.5092809,233.346511 63.6428645,233.575925 63.6444096,233.824874 Z" id="Shape" fill="#9EB3BA" fill-rule="nonzero" opacity="0.15"></path>
                <path d="M63.6444051,230.455703 L63.6444051,230.587827 C63.6446692,230.836696 63.5120189,231.06676 63.2965148,231.191195 C63.0802177,231.317139 62.8131507,231.318039 62.5960097,231.193556 C62.3788688,231.069073 62.2446797,230.838139 62.2440328,230.587827 L62.2440328,230.455703 C62.2430915,230.204347 62.3777606,229.972017 62.5963312,229.847931 C62.8130373,229.723848 63.0794177,229.724579 63.2954397,229.849849 C63.5114617,229.975119 63.6444274,230.205967 63.6444051,230.455703 Z" id="Shape" fill="#9EB3BA" fill-rule="nonzero" opacity="0.15"></path>
                <path d="M63.6444051,227.227464 L63.6444051,227.359589 C63.6446692,227.608458 63.5120189,227.838522 63.2965148,227.962957 C63.0802177,228.088901 62.8131507,228.089801 62.5960097,227.965318 C62.3788688,227.840835 62.2446797,227.609901 62.2440328,227.359589 L62.2440328,227.227464 C62.2430915,226.976108 62.3777606,226.743779 62.5963312,226.619692 C62.8130373,226.49561 63.0794177,226.496341 63.2954397,226.621611 C63.5114617,226.74688 63.6444274,226.977728 63.6444051,227.227464 Z" id="Shape" fill="#9EB3BA" fill-rule="nonzero" opacity="0.15"></path>
                <polygon id="Shape" stroke="#FFFFFF" stroke-width="0.5" fill="#F7F7F7" fill-rule="nonzero" stroke-linecap="round" stroke-linejoin="round" points="39.4286245 218.837568 6.82825706 200.009848 40.7056888 180.451039 73.3060562 199.274355"></polygon>
                <polygon id="Shape" fill="#004FFF" fill-rule="nonzero" opacity="0.6" points="39.6135787 213.592231 16.5471563 200.274097 40.5207346 186.431868 63.587157 199.750003"></polygon>
                <polygon id="Shape" fill="url(#linearGradient-13)" fill-rule="nonzero" points="63.587157 199.750003 40.5207346 186.431868 40.4414686 188.770469 61.5218359 200.943526"></polygon>
                <polygon id="Shape" fill="url(#linearGradient-26)" fill-rule="nonzero" points="40.5207346 186.431868 16.5471563 200.274097 18.5332114 201.419174 40.4414686 188.770469"></polygon>
                <line x1="39.4286245" y1="259.562698" x2="39.4286245" y2="218.837568" id="Shape" stroke="#FFFFFF" stroke-width="0.5" fill="#FFFFFF" fill-rule="nonzero" stroke-linecap="round" stroke-linejoin="round"></line>
                <path d="M56.0084413,226.179278 C56.6546098,225.806171 57.4507721,225.806383 58.0967425,226.179832 C58.7427129,226.553282 59.140244,227.24317 59.1394517,227.989382 L59.1394517,228.187568 C59.1395792,228.932847 58.7415953,229.621416 58.0957808,229.993267 C57.4502935,230.365981 56.6550689,230.366189 56.0093864,229.993815 C55.363704,229.621439 54.9655513,228.932993 54.9647715,228.187568 L54.9647715,227.989382 C54.9657893,227.243259 55.3632561,226.553907 56.0084413,226.179278 Z" id="Shape" stroke="#CFD8DB" stroke-width="1.32000002" opacity="0.5" stroke-linecap="round"></path>
                <polygon id="Shape" fill="#EDEFF1" fill-rule="nonzero" points="105.888809 19.78342 105.888809 60.5129543 138.489177 79.3362706 138.489177 38.6067363"></polygon>
                <polygon id="Shape" fill="url(#linearGradient-27)" fill-rule="nonzero" points="138.489177 38.6067363 172.366608 19.0435236 172.366608 59.7730579 138.489177 79.3362706"></polygon>
                <path d="M108.812846,37.2106223 C108.569638,37.2106223 108.372478,37.013442 108.372478,36.7702078 L108.372478,26.9577724 C108.372478,26.7145382 108.569638,26.5173579 108.812846,26.5173579 C109.056054,26.5173579 109.253213,26.7145382 109.253213,26.9577724 L109.253213,36.7702078 C109.253213,37.013442 109.056054,37.2106223 108.812846,37.2106223 Z" id="Shape" fill="url(#linearGradient-6)" fill-rule="nonzero"></path>
                <path d="M111.987891,40.3816068 C111.744683,40.3816068 111.547525,40.1844265 111.547525,39.9411923 L111.547525,30.1331611 C111.547525,29.8899268 111.744683,29.6927465 111.987891,29.6927465 C112.231099,29.6927465 112.428259,29.8899268 112.428259,30.1331611 L112.428259,39.9411923 C112.428259,40.1844265 112.231099,40.3816068 111.987891,40.3816068 Z" id="Shape" fill="url(#linearGradient-4)" fill-rule="nonzero"></path>
                <path d="M114.881103,43.2751302 C114.637895,43.2751302 114.440735,43.0779499 114.440735,42.8347157 L114.440735,33.0310886 C114.440735,32.7878543 114.637895,32.5906741 114.881103,32.5906741 C115.124311,32.5906741 115.32147,32.7878543 115.32147,33.0310886 L115.32147,42.8347157 C115.32147,43.0779499 115.124311,43.2751302 114.881103,43.2751302 Z" id="Shape" fill="url(#linearGradient-28)" fill-rule="nonzero"></path>
                <path d="M127.110094,65.9520735 C126.866886,65.9520735 126.669727,65.7548932 126.669727,65.511659 L126.669727,55.7036278 C126.669727,55.4603935 126.866886,55.2632132 127.110094,55.2632132 C127.353302,55.2632132 127.55046,55.4603935 127.55046,55.7036278 L127.55046,65.511659 C127.55046,65.7548932 127.353302,65.9520735 127.110094,65.9520735 Z" id="Shape" fill="url(#linearGradient-29)" fill-rule="nonzero"></path>
                <path d="M130.267525,69.1450788 C130.024317,69.1450788 129.827158,68.9478985 129.827158,68.7046642 L129.827158,58.8746122 C129.827158,58.6313781 130.024317,58.4341978 130.267525,58.4341978 C130.510733,58.4341978 130.707892,58.6313781 130.707892,58.8746122 L130.707892,68.7046642 C130.707892,68.9478985 130.510733,69.1450788 130.267525,69.1450788 Z" id="Shape" fill="url(#linearGradient-30)" fill-rule="nonzero"></path>
                <g id="Group" opacity="0.6" transform="translate(132.394497, 61.217618)" fill="url(#linearGradient-6)" fill-rule="nonzero">
                    <path d="M0.766238543,10.803368 C0.523030577,10.803368 0.325871565,10.6061878 0.325871565,10.3629535 L0.325871565,0.550518143 C0.325871565,0.307283923 0.523030577,0.110103629 0.766238543,0.110103629 C1.00944651,0.110103629 1.20660552,0.307283923 1.20660552,0.550518143 L1.20660552,10.3629535 C1.20660552,10.6061878 1.00944651,10.803368 0.766238543,10.803368 Z" id="Shape"></path>
                </g>
                <g id="Group" opacity="0.4" transform="translate(142.963305, 25.984456)" fill="#9EB3BA" fill-rule="nonzero">
                    <path d="M0.440366979,45.87798 C0.197159013,45.87798 0,45.6807996 0,45.4375655 L0,35.6251301 C0,35.3818958 0.197159013,35.1847156 0.440366979,35.1847156 C0.683574946,35.1847156 0.880733957,35.3818958 0.880733957,35.6251301 L0.880733957,45.4375655 C0.880733957,45.6807996 0.683574946,45.87798 0.440366979,45.87798 Z" id="Shape"></path>
                    <path d="M3.6154129,42.7202079 C3.37220493,42.7202079 3.17504592,42.5230276 3.17504592,42.2797934 L3.17504592,32.4541455 C3.17504592,32.2109114 3.37220493,32.013731 3.6154129,32.013731 C3.85862087,32.013731 4.05577988,32.2109114 4.05577988,32.4541455 L4.05577988,42.2797934 C4.05577988,42.5230276 3.85862087,42.7202079 3.6154129,42.7202079 Z" id="Shape"></path>
                    <path d="M6.50862395,39.809068 C6.26541598,39.809068 6.06825697,39.6118876 6.06825697,39.3686535 L6.06825697,29.5606222 C6.06825697,29.317388 6.26541598,29.1202077 6.50862395,29.1202077 C6.75183192,29.1202077 6.94899093,29.317388 6.94899093,29.5606222 L6.94899093,39.3686535 C6.94899093,39.6118876 6.75183192,39.809068 6.50862395,39.809068 Z" id="Shape"></path>
                    <path d="M18.724404,17.1321246 C18.481196,17.1321246 18.284037,16.9349443 18.284037,16.6917101 L18.284037,6.87927471 C18.284037,6.63604049 18.481196,6.4388602 18.724404,6.4388602 C18.9676119,6.4388602 19.1647709,6.63604049 19.1647709,6.87927471 L19.1647709,16.6917101 C19.1647709,16.9349443 18.9676119,17.1321246 18.724404,17.1321246 Z" id="Shape"></path>
                    <path d="M21.8950462,13.9611401 C21.6518382,13.9611401 21.4546792,13.7639598 21.4546792,13.5207256 L21.4546792,3.70829021 C21.4546792,3.46505599 21.6518382,3.2678757 21.8950462,3.2678757 C22.1382542,3.2678757 22.3354132,3.46505599 22.3354132,3.70829021 L22.3354132,13.5207256 C22.3354132,13.7639598 22.1382542,13.9611401 21.8950462,13.9611401 Z" id="Shape"></path>
                    <path d="M24.7882572,11.0676167 C24.5450492,11.0676167 24.3478903,10.8704365 24.3478903,10.6272022 L24.3478903,0.814766852 C24.3478903,0.571532632 24.5450492,0.374352338 24.7882572,0.374352338 C25.0314653,0.374352338 25.2286242,0.571532632 25.2286242,0.814766852 L25.2286242,10.6272022 C25.2286242,10.8704365 25.0314653,11.0676167 24.7882572,11.0676167 Z" id="Shape"></path>
                </g>
                <path d="M126.3967,51.1409334 L126.3967,51.2730577 C126.396671,51.5230184 126.52905,51.7542873 126.744589,51.8808298 C126.961926,52.0042525 127.228375,52.0032913 127.444816,51.8783035 C127.661256,51.7533158 127.795294,51.5230089 127.797066,51.2730577 L127.797066,51.1409334 C127.795288,50.8903122 127.661352,50.6592472 127.444772,50.5331614 C127.228067,50.4090786 126.961686,50.4098095 126.745664,50.5350795 C126.529642,50.6603495 126.396676,50.8911972 126.3967,51.1409334 Z" id="Shape" fill="url(#linearGradient-31)" fill-rule="nonzero" opacity="0.6"></path>
                <path d="M126.396692,47.7673582 L126.396692,47.8994826 C126.395769,48.1496822 126.528387,48.3813689 126.744589,48.5072546 C126.961566,48.6335962 127.229574,48.6340789 127.447004,48.5085195 C127.664436,48.3829602 127.798002,48.1505814 127.797071,47.8994826 L127.797071,47.7673582 C127.796426,47.5175766 127.661972,47.2872998 127.444772,47.1639903 C127.229119,47.0373502 126.962098,47.0361981 126.74536,47.1609728 C126.528621,47.2857473 126.39551,47.5172524 126.396692,47.7673582 Z" id="Shape" fill="url(#linearGradient-32)" fill-rule="nonzero" opacity="0.6"></path>
                <path d="M126.396692,44.5391199 L126.396692,44.6712442 C126.395769,44.9214438 126.528387,45.1531305 126.744589,45.2790162 C126.961566,45.4053579 127.229574,45.4058405 127.447004,45.2802812 C127.664436,45.1547218 127.798002,44.922343 127.797071,44.6712442 L127.797071,44.5391199 C127.796426,44.2893382 127.661972,44.0590615 127.444772,43.9357519 C127.229119,43.8091119 126.962098,43.8079598 126.74536,43.9327344 C126.528621,44.057509 126.39551,44.289014 126.396692,44.5391199 Z" id="Shape" fill="url(#linearGradient-32)" fill-rule="nonzero" opacity="0.6"></path>
                <path d="M162.704965,53.5984464 L162.704965,53.7305707 C162.706139,53.9796845 162.573242,54.2101766 162.357066,54.3339386 C162.14077,54.459883 161.873702,54.4607832 161.656562,54.3362998 C161.439421,54.2118165 161.305231,53.9808827 161.30459,53.7305707 L161.30459,53.5984464 C161.305474,53.3475825 161.43965,53.1161056 161.656883,52.9906744 C161.873589,52.8665916 162.13997,52.8673225 162.355991,52.9925925 C162.572014,53.1178624 162.704979,53.3487102 162.704965,53.5984464 Z" id="Shape" fill="#9EB3BA" fill-rule="nonzero" opacity="0.15"></path>
                <path d="M162.704957,50.2072547 L162.704957,50.339379 C162.704985,50.5893396 162.572606,50.8206084 162.357066,50.947151 C162.13973,51.0705738 161.873281,51.0696125 161.65684,50.9446248 C161.440399,50.819637 161.306362,50.5893301 161.30459,50.339379 L161.30459,50.2072547 C161.306368,49.9566335 161.440304,49.7255684 161.656883,49.5994826 C161.873589,49.4753999 162.13997,49.4761307 162.355991,49.6014007 C162.572014,49.7266707 162.704979,49.9575184 162.704957,50.2072547 Z" id="Shape" fill="#9EB3BA" fill-rule="nonzero" opacity="0.15"></path>
                <path d="M162.704957,46.9966329 L162.704957,47.1287572 C162.704985,47.3787177 162.572606,47.6099866 162.357066,47.7365292 C162.13973,47.859952 161.873281,47.8589907 161.65684,47.734003 C161.440399,47.6090152 161.306362,47.3787083 161.30459,47.1287572 L161.30459,46.9966329 C161.306368,46.7460117 161.440304,46.5149466 161.656883,46.3888608 C161.873589,46.264778 162.13997,46.2655088 162.355991,46.3907789 C162.572014,46.5160489 162.704979,46.7468966 162.704957,46.9966329 Z" id="Shape" fill="#9EB3BA" fill-rule="nonzero" opacity="0.15"></path>
                <polygon id="Shape" stroke="#FFFFFF" stroke-width="0.5" fill="#F7F7F7" fill-rule="nonzero" stroke-linecap="round" stroke-linejoin="round" points="138.489177 38.6067363 105.888809 19.78342 139.766241 0.220207257 172.366608 19.0435236"></polygon>
                <polygon id="Shape" fill="#004FFF" fill-rule="nonzero" opacity="0.6" points="138.674131 33.3613995 115.607708 20.0432645 139.581287 6.20103636 162.647709 19.5235754"></polygon>
                <polygon id="Shape" fill="url(#linearGradient-33)" fill-rule="nonzero" points="162.647709 19.5235754 139.581287 6.20103636 139.502021 8.53963741 160.582388 20.7126946"></polygon>
                <polygon id="Shape" fill="url(#linearGradient-34)" fill-rule="nonzero" points="139.581287 6.20103636 115.607708 20.0432645 117.593763 21.1883423 139.502021 8.53963741"></polygon>
                <line x1="138.489177" y1="79.3362706" x2="138.489177" y2="38.6067363" id="Shape" stroke="#FFFFFF" stroke-width="0.5" fill="#FFFFFF" fill-rule="nonzero" stroke-linecap="round" stroke-linejoin="round"></line>
                <g id="Group" opacity="0.5" transform="translate(18.339450, 46.683938)">
                    <path d="M104.243671,0.440414515 C103.598184,0.0677015124 102.802959,0.067493125 102.157277,0.439867778 C101.511594,0.812242428 101.113442,1.50068925 101.11266,2.24611403 L101.11266,2.44430056 C101.11162,3.18982366 101.50985,3.87881837 102.156332,4.25000006 C102.801819,4.62271307 103.597044,4.62292145 104.242726,4.2505468 C104.888409,3.87817215 105.286562,3.18972534 105.287343,2.44430056 L105.287343,2.24611403 C105.288383,1.50059091 104.890154,0.811596204 104.243671,0.440414515 Z" id="Shape" fill="#9FAFB3" fill-rule="nonzero"></path>
                    <line x1="103.301286" y1="2.24170988" x2="0.4227523" y2="60.4072548" id="Shape" stroke="#CFD8DB" stroke-width="1.32000002"></line>
                </g>
                <line x1="63.7016524" y1="81.6836796" x2="95.1834879" y2="63.8821253" id="Shape" stroke="url(#linearGradient-35)" stroke-width="1.32000002" stroke-linecap="round"></line>
                <ellipse id="Oval" fill="#004FFF" fill-rule="nonzero" cx="95.1130287" cy="63.6487056" rx="2.38238536" ry="2.38264252"></ellipse>
                <polygon id="Shape" fill="#EDEFF1" fill-rule="nonzero" points="6.38789009 79.8471514 6.38789009 120.576686 38.9882575 139.400002 38.9882575 98.6704679"></polygon>
                <polygon id="Shape" fill="url(#linearGradient-18)" fill-rule="nonzero" points="38.9882575 98.6704679 72.8656892 79.1116592 72.8656892 119.836789 38.9882575 139.400002"></polygon>
                <path d="M9.31192685,97.2787582 C9.06871885,97.2787582 8.87155981,97.0815774 8.87155981,96.838343 L8.87155981,87.0259077 C8.87155981,86.7826741 9.06871885,86.5854933 9.31192685,86.5854933 C9.55513478,86.5854933 9.75229382,86.7826741 9.75229382,87.0259077 L9.75229382,96.838343 C9.75229382,97.0815774 9.55513478,97.2787582 9.31192685,97.2787582 Z" id="Shape" fill="url(#linearGradient-36)" fill-rule="nonzero"></path>
                <path d="M12.4825691,100.449742 C12.2393611,100.449742 12.0422021,100.252562 12.0422021,100.009328 L12.0422021,90.1968925 C12.0422021,89.9536581 12.2393611,89.7564781 12.4825691,89.7564781 C12.7257771,89.7564781 12.922936,89.9536581 12.922936,90.1968925 L12.922936,100.009328 C12.922936,100.252562 12.7257771,100.449742 12.4825691,100.449742 Z" id="Shape" fill="url(#linearGradient-6)" fill-rule="nonzero"></path>
                <path d="M15.3757801,103.343266 C15.1325721,103.343266 14.9354132,103.146086 14.9354132,102.902851 L14.9354132,93.0904158 C14.9354132,92.8471814 15.1325721,92.6500014 15.3757801,92.6500014 C15.6189881,92.6500014 15.8161471,92.8471814 15.8161471,93.0904158 L15.8161471,102.902851 C15.8161471,103.146086 15.6189881,103.343266 15.3757801,103.343266 Z" id="Shape" fill="url(#linearGradient-6)" fill-rule="nonzero"></path>
                <path d="M27.5871565,126.020209 C27.3439485,126.020209 27.1467894,125.823029 27.1467894,125.579795 L27.1467894,115.767359 C27.1467894,115.524125 27.3439485,115.326945 27.5871565,115.326945 C27.8303644,115.326945 28.0275235,115.524125 28.0275235,115.767359 L28.0275235,125.579795 C28.0275235,125.823029 27.8303644,126.020209 27.5871565,126.020209 Z" id="Shape" fill="url(#linearGradient-37)" fill-rule="nonzero"></path>
                <path d="M30.7666061,129.191194 C30.523398,129.191194 30.3262391,128.994013 30.3262391,128.75078 L30.3262391,118.942748 C30.3262391,118.699514 30.523398,118.502334 30.7666061,118.502334 C31.009814,118.502334 31.206973,118.699514 31.206973,118.942748 L31.206973,128.75078 C31.206973,128.994013 31.009814,129.191194 30.7666061,129.191194 Z" id="Shape" fill="url(#linearGradient-4)" fill-rule="nonzero"></path>
                <g id="Group" opacity="0.6" transform="translate(32.871561, 121.113991)" fill="url(#linearGradient-4)" fill-rule="nonzero">
                    <path d="M0.788256893,10.9707255 C0.545048926,10.9707255 0.347889913,10.7735453 0.347889913,10.530311 L0.347889913,0.722279804 C0.347889913,0.479045584 0.545048926,0.281865289 0.788256893,0.281865289 C1.03146486,0.281865289 1.22862387,0.479045584 1.22862387,0.722279804 L1.22862387,10.530311 C1.22862387,10.7735453 1.03146486,10.9707255 0.788256893,10.9707255 Z" id="Shape"></path>
                </g>
                <g id="Group" opacity="0.4" transform="translate(43.440368, 86.321244)" fill="#9EB3BA" fill-rule="nonzero">
                    <path d="M0.462385328,45.6049229 C0.219177361,45.6049229 0.022018349,45.4077427 0.022018349,45.1645084 L0.022018349,35.3520731 C0.022018349,35.1088388 0.219177361,34.9116585 0.462385328,34.9116585 C0.705593295,34.9116585 0.902752309,35.1088388 0.902752309,35.3520731 L0.902752309,45.1645084 C0.902752309,45.4077427 0.705593295,45.6049229 0.462385328,45.6049229 Z" id="Shape"></path>
                    <path d="M3.63743125,42.4339385 C3.39422328,42.4339385 3.19706427,42.2367581 3.19706427,41.9935239 L3.19706427,32.1810886 C3.19706427,31.9378543 3.39422328,31.7406741 3.63743125,31.7406741 C3.88063921,31.7406741 4.07779823,31.9378543 4.07779823,32.1810886 L4.07779823,41.9935239 C4.07779823,42.2367581 3.88063921,42.4339385 3.63743125,42.4339385 Z" id="Shape"></path>
                    <path d="M6.5306423,39.5404151 C6.28743433,39.5404151 6.09027532,39.3432348 6.09027532,39.1000006 L6.09027532,29.2875652 C6.09027532,29.044331 6.28743433,28.8471507 6.5306423,28.8471507 C6.77385027,28.8471507 6.97100928,29.044331 6.97100928,29.2875652 L6.97100928,39.1000006 C6.97100928,39.3432348 6.77385027,39.5404151 6.5306423,39.5404151 Z" id="Shape"></path>
                    <path d="M18.7464223,16.8634718 C18.5032144,16.8634718 18.3060553,16.6662914 18.3060553,16.4230572 L18.3060553,6.60621771 C18.3060553,6.36298349 18.5032144,6.1658032 18.7464223,6.1658032 C18.9896303,6.1658032 19.1867892,6.36298349 19.1867892,6.60621771 L19.1867892,16.4186531 C19.1879648,16.5362195 19.1420887,16.6493754 19.0593761,16.7329242 C18.9766635,16.8164729 18.8639819,16.8634718 18.7464223,16.8634718 Z" id="Shape"></path>
                    <path d="M21.9170646,13.6880831 C21.6738566,13.6880831 21.4766976,13.4909028 21.4766976,13.2476686 L21.4766976,3.43963736 C21.4766976,3.19640314 21.6738566,2.99922284 21.9170646,2.99922284 C22.1602725,2.99922284 22.3574315,3.19640314 22.3574315,3.43963736 L22.3574315,13.2476686 C22.3574315,13.4909028 22.1602725,13.6880831 21.9170646,13.6880831 Z" id="Shape"></path>
                    <path d="M24.8102756,10.7945598 C24.5670676,10.7945598 24.3699086,10.5973794 24.3699086,10.3541452 L24.3699086,0.546113998 C24.3699086,0.302879778 24.5670676,0.105699483 24.8102756,0.105699483 C25.0534836,0.105699483 25.2506426,0.302879778 25.2506426,0.546113998 L25.2506426,10.3541452 C25.2506426,10.5973794 25.0534836,10.7945598 24.8102756,10.7945598 Z" id="Shape"></path>
                </g>
                <path d="M26.8957799,111.209069 L26.8957799,111.341194 C26.8955158,111.590062 27.0281662,111.820126 27.2436702,111.944561 C27.4596947,112.06826 27.7251445,112.067953 27.9408822,111.943754 C28.1566199,111.819556 28.2902035,111.590142 28.2917485,111.341194 L28.2917485,111.209069 C28.2926739,110.95887 28.1600559,110.727182 27.9438537,110.601297 C27.7271477,110.477214 27.4607673,110.477945 27.2447452,110.603215 C27.0287232,110.728485 26.8957575,110.959333 26.8957799,111.209069 Z" id="Shape" fill="url(#linearGradient-38)" fill-rule="nonzero" opacity="0.6"></path>
                <path d="M26.8957725,107.835494 L26.8957725,107.967618 C26.8945974,108.216732 27.0274946,108.447224 27.2436702,108.570986 C27.4593241,108.697626 27.726345,108.698778 27.9430834,108.574004 C28.1598217,108.449229 28.2929327,108.217724 28.2917515,107.967618 L28.2917515,107.835494 C28.2917719,107.585534 28.1593931,107.354264 27.9438537,107.227722 C27.7271477,107.103639 27.4607673,107.10437 27.2447452,107.22964 C27.0287232,107.35491 26.8957575,107.585758 26.8957725,107.835494 Z" id="Shape" fill="url(#linearGradient-39)" fill-rule="nonzero" opacity="0.6"></path>
                <path d="M26.8957725,104.607255 L26.8957725,104.73938 C26.8945974,104.988494 27.0274946,105.218986 27.2436702,105.342748 C27.4593241,105.469388 27.726345,105.47054 27.9430834,105.345766 C28.1598217,105.22099 28.2929327,104.989486 28.2917515,104.73938 L28.2917515,104.607255 C28.2917719,104.357295 28.1593931,104.126026 27.9438537,103.999483 C27.7271477,103.875401 27.4607673,103.876131 27.2447452,104.001402 C27.0287232,104.126671 26.8957575,104.357519 26.8957725,104.607255 Z" id="Shape" fill="url(#linearGradient-39)" fill-rule="nonzero" opacity="0.6"></path>
                <path d="M63.2040456,113.662178 L63.2040456,113.794302 C63.2049679,114.044502 63.07235,114.276189 62.8561478,114.402075 C62.6391706,114.528416 62.3711631,114.528899 62.1537324,114.403339 C61.9363016,114.27778 61.8027352,114.045401 61.8036625,113.794302 L61.8036625,113.662178 C61.8024453,113.411893 61.937409,113.180742 62.1559643,113.05881 C62.3716181,112.93217 62.6386392,112.931018 62.8553775,113.055792 C63.0721158,113.180567 63.2052269,113.412072 63.2040456,113.662178 Z" id="Shape" fill="#9EB3BA" fill-rule="nonzero" opacity="0.15"></path>
                <path d="M63.2040381,110.293006 L63.2040381,110.425131 C63.2043022,110.674001 63.0716519,110.904065 62.8561478,111.028499 C62.6398508,111.154443 62.3727837,111.155343 62.1556428,111.03086 C61.9385018,110.906377 61.8043128,110.675443 61.8036658,110.425131 L61.8036658,110.293006 C61.8027245,110.04165 61.9373936,109.809321 62.1559643,109.685234 C62.3726703,109.561152 62.6390508,109.561883 62.8550728,109.687153 C63.0710948,109.812423 63.2040605,110.04327 63.2040381,110.293006 Z" id="Shape" fill="#9EB3BA" fill-rule="nonzero" opacity="0.15"></path>
                <path d="M63.2040381,107.064769 L63.2040381,107.196893 C63.2043022,107.445762 63.0716519,107.675826 62.8561478,107.800261 C62.6398508,107.926205 62.3727837,107.927106 62.1556428,107.802622 C61.9385018,107.678138 61.8043128,107.447205 61.8036658,107.196893 L61.8036658,107.064769 C61.8027245,106.813412 61.9373936,106.581083 62.1559643,106.456997 C62.3726703,106.332914 62.6390508,106.333645 62.8550728,106.458914 C63.0710948,106.584185 63.2040605,106.815032 63.2040381,107.064769 Z" id="Shape" fill="#9EB3BA" fill-rule="nonzero" opacity="0.15"></path>
                <polygon id="Shape" stroke="#FFFFFF" stroke-width="0.5" fill="#F7F7F7" fill-rule="nonzero" stroke-linecap="round" stroke-linejoin="round" points="38.9882575 98.6704679 6.38789009 79.8471514 40.2653218 60.2883429 72.8656892 79.1116592"></polygon>
                <polygon id="Shape" fill="#004FFF" fill-rule="nonzero" opacity="0.6" points="39.1732117 93.429535 16.1067893 80.1114004 40.0803676 66.2691719 63.14679 79.5873069"></polygon>
                <polygon id="Shape" fill="url(#linearGradient-40)" fill-rule="nonzero" points="63.14679 79.5873069 40.0803676 66.2691719 40.0011016 68.607773 61.0814689 80.776426"></polygon>
                <polygon id="Shape" fill="url(#linearGradient-41)" fill-rule="nonzero" points="40.0803676 66.2691719 16.1067893 80.1114004 18.0928443 81.256478 40.0011016 68.607773"></polygon>
                <line x1="38.9882575" y1="139.400002" x2="38.9882575" y2="98.6748719" id="Shape" stroke="#FFFFFF" stroke-width="0.5" fill="#FFFFFF" fill-rule="nonzero" stroke-linecap="round" stroke-linejoin="round"></line>
                <g id="Group" opacity="0.3" transform="translate(0.600000, 137.600002)" fill="url(#linearGradient-43)" fill-rule="nonzero">
                    <polygon id="Shape" points="15.7797829 62.3178832 38.7518618 75.5824564 62.6246335 61.7968381 78.4000012 0 1.13686839e-14 0"></polygon>
                </g>
                <line x1="139.25" y1="79.6507772" x2="139.25" y2="88.6507772" id="Shape-Copy-2" stroke="url(#linearGradient-44)" stroke-width="1.32000002" stroke-linecap="round"></line>
            </g>
        </g>
    </g>
</svg>