<?xml version="1.0" encoding="UTF-8"?>
<svg width="266px" height="266px" viewBox="0 0 266 266" version="1.1" xmlns="http://www.w3.org/2000/svg" xmlns:xlink="http://www.w3.org/1999/xlink">
    <!-- Generator: Sketch 63.1 (92452) - https://sketch.com -->
    <title>ServicesList_desktop Copy 5</title>
    <desc>Created with Sketch.</desc>
    <defs>
        <linearGradient x1="0%" y1="101.941182%" x2="0%" y2="-1.94118218%" id="linearGradient-1">
            <stop stop-color="#004FFF" offset="0%"></stop>
            <stop stop-color="#0351FF" stop-opacity="0.99" offset="22%"></stop>
            <stop stop-color="#0B57FF" stop-opacity="0.96" offset="35%"></stop>
            <stop stop-color="#1A61FF" stop-opacity="0.9" offset="47%"></stop>
            <stop stop-color="#2E6FFF" stop-opacity="0.82" offset="57%"></stop>
            <stop stop-color="#4981FF" stop-opacity="0.71" offset="66%"></stop>
            <stop stop-color="#6A98FF" stop-opacity="0.58" offset="75%"></stop>
            <stop stop-color="#91B3FF" stop-opacity="0.43" offset="83%"></stop>
            <stop stop-color="#BED2FF" stop-opacity="0.25" offset="91%"></stop>
            <stop stop-color="#F0F5FF" stop-opacity="0.06" offset="98%"></stop>
            <stop stop-color="#FFFFFF" stop-opacity="0" offset="100%"></stop>
        </linearGradient>
        <linearGradient x1="32.5861809%" y1="-3.85289414%" x2="67.4099929%" y2="103.84302%" id="linearGradient-2">
            <stop stop-color="#292929" offset="0%"></stop>
            <stop stop-color="#171717" offset="100%"></stop>
        </linearGradient>
        <linearGradient x1="32.5649808%" y1="-3.87582577%" x2="67.3887928%" y2="103.820088%" id="linearGradient-3">
            <stop stop-color="#292929" offset="0%"></stop>
            <stop stop-color="#171717" offset="100%"></stop>
        </linearGradient>
        <linearGradient x1="0%" y1="100.674082%" x2="0%" y2="-0.674081564%" id="linearGradient-4">
            <stop stop-color="#004FFF" offset="0%"></stop>
            <stop stop-color="#0351FF" stop-opacity="0.99" offset="22%"></stop>
            <stop stop-color="#0B57FF" stop-opacity="0.96" offset="35%"></stop>
            <stop stop-color="#1A61FF" stop-opacity="0.9" offset="47%"></stop>
            <stop stop-color="#2E6FFF" stop-opacity="0.82" offset="57%"></stop>
            <stop stop-color="#4981FF" stop-opacity="0.71" offset="66%"></stop>
            <stop stop-color="#6A98FF" stop-opacity="0.58" offset="75%"></stop>
            <stop stop-color="#91B3FF" stop-opacity="0.43" offset="83%"></stop>
            <stop stop-color="#BED2FF" stop-opacity="0.25" offset="91%"></stop>
            <stop stop-color="#F0F5FF" stop-opacity="0.06" offset="98%"></stop>
            <stop stop-color="#FFFFFF" stop-opacity="0" offset="100%"></stop>
        </linearGradient>
        <linearGradient x1="0%" y1="100.674082%" x2="0%" y2="-0.674081564%" id="linearGradient-5">
            <stop stop-color="#004FFF" offset="0%"></stop>
            <stop stop-color="#0351FF" stop-opacity="0.99" offset="22%"></stop>
            <stop stop-color="#0B57FF" stop-opacity="0.96" offset="35%"></stop>
            <stop stop-color="#1A61FF" stop-opacity="0.9" offset="47%"></stop>
            <stop stop-color="#2E6FFF" stop-opacity="0.82" offset="57%"></stop>
            <stop stop-color="#4981FF" stop-opacity="0.71" offset="66%"></stop>
            <stop stop-color="#6A98FF" stop-opacity="0.58" offset="75%"></stop>
            <stop stop-color="#91B3FF" stop-opacity="0.43" offset="83%"></stop>
            <stop stop-color="#BED2FF" stop-opacity="0.25" offset="91%"></stop>
            <stop stop-color="#F0F5FF" stop-opacity="0.06" offset="98%"></stop>
            <stop stop-color="#FFFFFF" stop-opacity="0" offset="100%"></stop>
        </linearGradient>
        <linearGradient x1="0%" y1="104.263483%" x2="0%" y2="-4.26348327%" id="linearGradient-6">
            <stop stop-color="#004FFF" offset="0%"></stop>
            <stop stop-color="#0351FF" stop-opacity="0.99" offset="22%"></stop>
            <stop stop-color="#0B57FF" stop-opacity="0.96" offset="35%"></stop>
            <stop stop-color="#1A61FF" stop-opacity="0.9" offset="47%"></stop>
            <stop stop-color="#2E6FFF" stop-opacity="0.82" offset="57%"></stop>
            <stop stop-color="#4981FF" stop-opacity="0.71" offset="66%"></stop>
            <stop stop-color="#6A98FF" stop-opacity="0.58" offset="75%"></stop>
            <stop stop-color="#91B3FF" stop-opacity="0.43" offset="83%"></stop>
            <stop stop-color="#BED2FF" stop-opacity="0.25" offset="91%"></stop>
            <stop stop-color="#F0F5FF" stop-opacity="0.06" offset="98%"></stop>
            <stop stop-color="#FFFFFF" stop-opacity="0" offset="100%"></stop>
        </linearGradient>
        <linearGradient x1="50.0030028%" y1="0%" x2="50.0030028%" y2="100%" id="linearGradient-7">
            <stop stop-color="#CFD8DB" offset="0%"></stop>
            <stop stop-color="#CFD8DB" offset="100%"></stop>
        </linearGradient>
        <linearGradient x1="0%" y1="50%" x2="100%" y2="50%" id="linearGradient-8">
            <stop stop-color="#CFD8DB" offset="0%"></stop>
            <stop stop-color="#CFD8DB" offset="100%"></stop>
        </linearGradient>
        <linearGradient x1="50%" y1="0%" x2="50%" y2="100%" id="linearGradient-9">
            <stop stop-color="#CFD8DB" offset="0%"></stop>
            <stop stop-color="#CFD8DB" offset="100%"></stop>
        </linearGradient>
        <linearGradient x1="50.0022473%" y1="0%" x2="50.0022473%" y2="100%" id="linearGradient-10">
            <stop stop-color="#CFD8DB" offset="0%"></stop>
            <stop stop-color="#CFD8DB" offset="100%"></stop>
        </linearGradient>
        <linearGradient x1="50%" y1="100%" x2="50%" y2="0%" id="linearGradient-11">
            <stop stop-color="#CFD8DB" offset="0%"></stop>
            <stop stop-color="#E3EBED" offset="100%"></stop>
        </linearGradient>
        <linearGradient x1="23.8231203%" y1="-3.49541027%" x2="76.1842009%" y2="103.49541%" id="linearGradient-12">
            <stop stop-color="#C9D7F5" offset="0%"></stop>
            <stop stop-color="#5C7DD1" offset="100%"></stop>
        </linearGradient>
        <linearGradient x1="0%" y1="50.0019796%" x2="100%" y2="50.0019796%" id="linearGradient-13">
            <stop stop-color="#CFD8DB" offset="0%"></stop>
            <stop stop-color="#CFD8DB" offset="100%"></stop>
        </linearGradient>
        <linearGradient x1="100%" y1="50%" x2="0.0108660219%" y2="50%" id="linearGradient-14">
            <stop stop-color="#CFD8DB" offset="0%"></stop>
            <stop stop-color="#DEE6E8" offset="100%"></stop>
        </linearGradient>
        <linearGradient x1="248.891353%" y1="85.9161052%" x2="-192.793792%" y2="10.9215388%" id="linearGradient-15">
            <stop stop-color="#CFD8DB" offset="0%"></stop>
            <stop stop-color="#CFD8DB" offset="100%"></stop>
        </linearGradient>
        <linearGradient x1="-3.92003136%" y1="50%" x2="103.920031%" y2="50%" id="linearGradient-16">
            <stop stop-color="#CFD8DB" offset="0%"></stop>
            <stop stop-color="#CFD8DB" offset="100%"></stop>
        </linearGradient>
        <linearGradient x1="-3.9184953%" y1="50%" x2="103.918495%" y2="50%" id="linearGradient-17">
            <stop stop-color="#CFD8DB" offset="0%"></stop>
            <stop stop-color="#CFD8DB" offset="100%"></stop>
        </linearGradient>
        <linearGradient x1="0%" y1="100.499189%" x2="0%" y2="-0.499188818%" id="linearGradient-18">
            <stop stop-color="#004FFF" offset="0%"></stop>
            <stop stop-color="#0351FF" stop-opacity="0.99" offset="22%"></stop>
            <stop stop-color="#0B57FF" stop-opacity="0.96" offset="35%"></stop>
            <stop stop-color="#1A61FF" stop-opacity="0.9" offset="47%"></stop>
            <stop stop-color="#2E6FFF" stop-opacity="0.82" offset="57%"></stop>
            <stop stop-color="#4981FF" stop-opacity="0.71" offset="66%"></stop>
            <stop stop-color="#6A98FF" stop-opacity="0.58" offset="75%"></stop>
            <stop stop-color="#91B3FF" stop-opacity="0.43" offset="83%"></stop>
            <stop stop-color="#BED2FF" stop-opacity="0.25" offset="91%"></stop>
            <stop stop-color="#F0F5FF" stop-opacity="0.06" offset="98%"></stop>
            <stop stop-color="#FFFFFF" stop-opacity="0" offset="100%"></stop>
        </linearGradient>
    </defs>
    <g id="Services" stroke="none" stroke-width="1" fill="none" fill-rule="evenodd">
        <g id="ServicesList_desktop-Copy" transform="translate(-913.000000, -1535.000000)">
            <g id="e-commerce-software" transform="translate(925.000000, 1539.000000)">
                <path d="M196.47663,12.6811612 C196.47663,12.2311596 196.841428,11.8663613 197.29143,11.8663613 C197.741432,11.8663613 198.10623,12.2311596 198.10623,12.6811612 L198.10623,13.3811612 C198.10623,13.8311627 197.741432,14.1959612 197.29143,14.1959612 C196.841428,14.1959612 196.47663,13.8311627 196.47663,13.3811612 L196.47663,12.6811612 Z M196.47663,18.9811611 C196.47663,18.5311595 196.841428,18.1663612 197.29143,18.1663612 C197.741432,18.1663612 198.10623,18.5311595 198.10623,18.9811611 L198.10623,19.6811611 C198.10623,20.1311626 197.741432,20.495961 197.29143,20.495961 C196.841428,20.495961 196.47663,20.1311626 196.47663,19.6811611 L196.47663,18.9811611 Z M196.47663,25.281161 C196.47663,24.8311594 196.841428,24.4663611 197.29143,24.4663611 C197.741432,24.4663611 198.10623,24.8311594 198.10623,25.281161 L198.10623,25.981161 C198.10623,26.4311625 197.741432,26.7959609 197.29143,26.7959609 C196.841428,26.7959609 196.47663,26.4311625 196.47663,25.981161 L196.47663,25.281161 Z M196.47663,31.5811609 C196.47663,31.1311593 196.841428,30.7663609 197.29143,30.7663609 C197.741432,30.7663609 198.10623,31.1311593 198.10623,31.5811609 L198.10623,32.2811608 C198.10623,32.7311624 197.741432,33.0959608 197.29143,33.0959608 C196.841428,33.0959608 196.47663,32.7311624 196.47663,32.2811608 L196.47663,31.5811609 Z M196.47663,37.8811608 C196.47663,37.4311592 196.841428,37.0663608 197.29143,37.0663608 C197.741432,37.0663608 198.10623,37.4311592 198.10623,37.8811608 L198.10623,38.5811609 C198.10623,39.0311622 197.741432,39.3959609 197.29143,39.3959609 C196.841428,39.3959609 196.47663,39.0311622 196.47663,38.5811609 L196.47663,37.8811608 Z M196.47663,44.1811608 C196.47663,43.7311588 196.841428,43.3663608 197.29143,43.3663608 C197.741432,43.3663608 198.10623,43.7311588 198.10623,44.1811608 L198.10623,44.8811608 C198.10623,45.3311621 197.741432,45.6959608 197.29143,45.6959608 C196.841428,45.6959608 196.47663,45.3311621 196.47663,44.8811608 L196.47663,44.1811608 Z M196.47663,50.4811607 C196.47663,50.0311587 196.841428,49.6663607 197.29143,49.6663607 C197.741432,49.6663607 198.10623,50.0311587 198.10623,50.4811607 L198.10623,51.1811607 C198.10623,51.631162 197.741432,51.9959607 197.29143,51.9959607 C196.841428,51.9959607 196.47663,51.631162 196.47663,51.1811607 L196.47663,50.4811607 Z" id="Shape" fill="url(#linearGradient-1)" fill-rule="nonzero"></path>
                <g id="Group" opacity="0.8" transform="translate(180.412307, 47.088026)" fill-rule="nonzero">
                    <ellipse id="Oval" fill="#0050FF" transform="translate(10.753363, 12.457366) rotate(-60.000000) translate(-10.753363, -12.457366) " cx="10.7533627" cy="12.4573657" rx="10.7188531" ry="6.00187877"></ellipse>
                    <ellipse id="Oval" fill="#0050FF" transform="translate(10.753363, 12.457366) rotate(-60.000000) translate(-10.753363, -12.457366) " cx="10.7533627" cy="12.4573657" rx="10.7188531" ry="6.00187877"></ellipse>
                    <path d="M1.86113825,19.0683842 C0.969257993,18.254018 0.639384475,16.7677997 0.639384475,14.9680505 C0.700472166,10.1755054 4.09287514,4.29985345 8.21425787,1.84453941 C10.1609189,0.688139425 11.9202443,0.500835203 13.2315934,1.12789716 C13.2315934,1.12789716 15.7932038,2.68333658 17.1249154,4.0433281 C18.7131953,5.67206047 5.9255058,21.9878869 5.9255058,21.9878869 C5.9255058,21.9878869 4.55306907,21.4951954 1.86113825,19.0683842 Z" id="Shape" fill="#6999FF"></path>
                    <ellipse id="Oval" fill="#B8CDFF" transform="translate(10.753363, 12.457366) rotate(-60.000000) translate(-10.753363, -12.457366) " cx="10.7533627" cy="12.4573657" rx="10.7188531" ry="6.00187877"></ellipse>
                </g>
                <g id="Group" opacity="0.8" transform="translate(78.192241, 67.854364)" fill-rule="nonzero">
                    <ellipse id="Oval" fill="#0050FF" transform="translate(10.704775, 12.415141) rotate(-60.000000) translate(-10.704775, -12.415141) " cx="10.7047752" cy="12.4151406" rx="10.7188531" ry="6.00187877"></ellipse>
                    <ellipse id="Oval" fill="#0050FF" transform="translate(10.704775, 12.415141) rotate(-60.000000) translate(-10.704775, -12.415141) " cx="10.7047752" cy="12.4151406" rx="10.7188531" ry="6.00187877"></ellipse>
                    <path d="M1.8122681,19.0235941 C0.920387844,18.2092279 0.590514324,16.7270814 0.590514324,14.9273322 C0.655674525,10.1307153 4.0480775,4.25506331 8.16946025,1.80382109 C10.1120487,0.647421116 11.8754467,0.460116893 13.1827232,1.08717886 C13.1827232,1.08717886 15.7443337,2.64261826 17.0760453,3.99853796 C18.6643252,5.62727033 5.87663565,21.9471686 5.87663565,21.9471686 C5.87663565,21.9471686 4.50419891,21.4544771 1.8122681,19.0235941 Z" id="Shape" fill="#6999FF"></path>
                    <ellipse id="Oval" fill="#B8CDFF" transform="translate(10.704775, 12.415141) rotate(-60.000000) translate(-10.704775, -12.415141) " cx="10.7047752" cy="12.4151406" rx="10.7188531" ry="6.00187877"></ellipse>
                </g>
                <g id="Group" opacity="0.3" transform="translate(158.420740, 75.998026)" fill-rule="nonzero">
                    <ellipse id="Oval" fill="url(#linearGradient-2)" transform="translate(7.568038, 8.854346) rotate(-60.000000) translate(-7.568038, -8.854346) " cx="7.5680385" cy="8.85434565" rx="7.62781608" ry="4.27135063"></ellipse>
                    <ellipse id="Oval" fill="url(#linearGradient-2)" transform="translate(7.568038, 8.854346) rotate(-60.000000) translate(-7.568038, -8.854346) " cx="7.5680385" cy="8.85434565" rx="7.62781608" ry="4.27135063"></ellipse>
                    <path d="M1.22175377,13.5551251 C0.586441811,12.9850688 0.342091057,11.9263927 0.358381107,10.6396942 C0.403178745,7.22749988 2.80188866,3.04572952 5.75038776,1.30298589 C7.13504206,0.48861971 8.38937589,0.346105628 9.32198132,0.789935196 C10.3103971,1.39050675 11.2378882,2.08600867 12.0912898,2.86656896 C13.2193758,4.01889711 4.12138273,15.6358307 4.12138273,15.6358307 C4.12138273,15.6358307 3.15212473,15.2856533 1.22175377,13.5551251 Z" id="Shape" fill="#0050FF"></path>
                    <ellipse id="Oval" fill="#99B9FF" transform="translate(7.568038, 8.854346) rotate(-60.000000) translate(-7.568038, -8.854346) " cx="7.5680385" cy="8.85434565" rx="7.62781608" ry="4.27135063"></ellipse>
                </g>
                <g id="Group" opacity="0.3" transform="translate(76.155985, 11.255915)" fill-rule="nonzero">
                    <ellipse id="Oval" fill="url(#linearGradient-3)" transform="translate(7.581454, 8.860922) rotate(-60.000000) translate(-7.581454, -8.860922) " cx="7.58145381" cy="8.86092205" rx="7.62781608" ry="4.27135063"></ellipse>
                    <ellipse id="Oval" fill="url(#linearGradient-3)" transform="translate(7.581454, 8.860922) rotate(-60.000000) translate(-7.581454, -8.860922) " cx="7.58145381" cy="8.86092205" rx="7.62781608" ry="4.27135063"></ellipse>
                    <path d="M1.24618885,13.5673406 C0.614949399,12.9932125 0.370598644,11.9386082 0.386888695,10.6519097 C0.431686333,7.23971537 2.83039624,3.05794502 5.77889535,1.31112955 C7.16354963,0.496763372 8.413811,0.35424929 9.34641636,0.802150692 C10.3348293,1.40117635 11.2623385,2.09532807 12.115725,2.87471262 C13.2478834,4.02704077 4.1458178,15.6439744 4.1458178,15.6439744 C4.1458178,15.6439744 3.16434227,15.2937969 1.24618885,13.5673406 Z" id="Shape" fill="#0050FF"></path>
                    <ellipse id="Oval" fill="#99B9FF" transform="translate(7.581454, 8.860922) rotate(-60.000000) translate(-7.581454, -8.860922) " cx="7.58145381" cy="8.86092205" rx="7.62781608" ry="4.27135063"></ellipse>
                </g>
                <path d="M98.4364042,20.5188106 C98.4364042,20.068809 98.8012022,19.7040107 99.2512042,19.7040107 C99.7012055,19.7040107 100.066004,20.068809 100.066004,20.5188106 L100.066004,21.2188106 C100.066004,21.6688122 99.7012055,22.0336106 99.2512042,22.0336106 C98.8012022,22.0336106 98.4364042,21.6688122 98.4364042,21.2188106 L98.4364042,20.5188106 Z M98.4364042,26.8188105 C98.4364042,26.3688089 98.8012022,26.0040106 99.2512042,26.0040106 C99.7012055,26.0040106 100.066004,26.3688089 100.066004,26.8188105 L100.066004,27.5188105 C100.066004,27.9688121 99.7012055,28.3336105 99.2512042,28.3336105 C98.8012022,28.3336105 98.4364042,27.9688121 98.4364042,27.5188105 L98.4364042,26.8188105 Z M98.4364042,33.1188104 C98.4364042,32.6688088 98.8012022,32.3040105 99.2512042,32.3040105 C99.7012055,32.3040105 100.066004,32.6688088 100.066004,33.1188104 L100.066004,33.8188104 C100.066004,34.268812 99.7012055,34.6336103 99.2512042,34.6336103 C98.8012022,34.6336103 98.4364042,34.268812 98.4364042,33.8188104 L98.4364042,33.1188104 Z M98.4364042,39.4188103 C98.4364042,38.9688087 98.8012022,38.6040103 99.2512042,38.6040103 C99.7012055,38.6040103 100.066004,38.9688087 100.066004,39.4188103 L100.066004,40.1188103 C100.066004,40.5688119 99.7012055,40.9336102 99.2512042,40.9336102 C98.8012022,40.9336102 98.4364042,40.5688119 98.4364042,40.1188103 L98.4364042,39.4188103 Z M98.4364042,45.7188102 C98.4364042,45.2688086 98.8012022,44.9040102 99.2512042,44.9040102 C99.7012055,44.9040102 100.066004,45.2688086 100.066004,45.7188102 L100.066004,46.4188101 C100.066004,46.8688118 99.7012055,47.2336101 99.2512042,47.2336101 C98.8012022,47.2336101 98.4364042,46.8688118 98.4364042,46.4188101 L98.4364042,45.7188102 Z M98.4364042,52.01881 C98.4364042,51.5688085 98.8012022,51.2040101 99.2512042,51.2040101 C99.7012055,51.2040101 100.066004,51.5688085 100.066004,52.01881 L100.066004,52.71881 C100.066004,53.1688117 99.7012055,53.5336099 99.2512042,53.5336099 C98.8012022,53.5336099 98.4364042,53.1688117 98.4364042,52.71881 L98.4364042,52.01881 Z M98.4364042,58.3188098 C98.4364042,57.8688085 98.8012022,57.5040098 99.2512042,57.5040098 C99.7012055,57.5040098 100.066004,57.8688085 100.066004,58.3188098 L100.066004,59.0188098 C100.066004,59.4688118 99.7012055,59.8336098 99.2512042,59.8336098 C98.8012022,59.8336098 98.4364042,59.4688118 98.4364042,59.0188098 L98.4364042,58.3188098 Z M98.4364042,64.6188097 C98.4364042,64.1688084 98.8012022,63.8040097 99.2512042,63.8040097 C99.7012055,63.8040097 100.066004,64.1688084 100.066004,64.6188097 L100.066004,65.3188097 C100.066004,65.7688117 99.7012055,66.1336097 99.2512042,66.1336097 C98.8012022,66.1336097 98.4364042,65.7688117 98.4364042,65.3188097 L98.4364042,64.6188097 Z M98.4364042,70.9188096 C98.4364042,70.4688083 98.8012022,70.1040096 99.2512042,70.1040096 C99.7012055,70.1040096 100.066004,70.4688083 100.066004,70.9188096 L100.066004,71.6188096 C100.066004,72.0688116 99.7012055,72.4336096 99.2512042,72.4336096 C98.8012022,72.4336096 98.4364042,72.0688116 98.4364042,71.6188096 L98.4364042,70.9188096 Z M98.4364042,77.2188095 C98.4364042,76.7688082 98.8012022,76.4040095 99.2512042,76.4040095 C99.7012055,76.4040095 100.066004,76.7688082 100.066004,77.2188095 L100.066004,77.9188095 C100.066004,78.3688115 99.7012055,78.7336095 99.2512042,78.7336095 C98.8012022,78.7336095 98.4364042,78.3688115 98.4364042,77.9188095 L98.4364042,77.2188095 Z M98.4364042,83.5188094 C98.4364042,83.0688081 98.8012022,82.7040094 99.2512042,82.7040094 C99.7012055,82.7040094 100.066004,83.0688081 100.066004,83.5188094 L100.066004,84.2188094 C100.066004,84.6688114 99.7012055,85.0336093 99.2512042,85.0336093 C98.8012022,85.0336093 98.4364042,84.6688114 98.4364042,84.2188094 L98.4364042,83.5188094 Z M98.4364042,89.8188093 C98.4364042,89.368808 98.8012022,89.0040093 99.2512042,89.0040093 C99.7012055,89.0040093 100.066004,89.368808 100.066004,89.8188093 L100.066004,90.5188093 C100.066004,90.9688112 99.7012055,91.3336092 99.2512042,91.3336092 C98.8012022,91.3336092 98.4364042,90.9688112 98.4364042,90.5188093 L98.4364042,89.8188093 Z M98.4364042,96.1188092 C98.4364042,95.6688079 98.8012022,95.3040092 99.2512042,95.3040092 C99.7012055,95.3040092 100.066004,95.6688079 100.066004,96.1188092 L100.066004,96.8188091 C100.066004,97.2688111 99.7012055,97.6336091 99.2512042,97.6336091 C98.8012022,97.6336091 98.4364042,97.2688111 98.4364042,96.8188091 L98.4364042,96.1188092 Z M98.4364042,102.418809 C98.4364042,101.968808 98.8012022,101.604009 99.2512042,101.604009 C99.7012055,101.604009 100.066004,101.968808 100.066004,102.418809 L100.066004,103.118809 C100.066004,103.568811 99.7012055,103.933609 99.2512042,103.933609 C98.8012022,103.933609 98.4364042,103.568811 98.4364042,103.118809 L98.4364042,102.418809 Z M98.4364042,108.718809 C98.4364042,108.268808 98.8012022,107.904009 99.2512042,107.904009 C99.7012055,107.904009 100.066004,108.268808 100.066004,108.718809 L100.066004,109.418809 C100.066004,109.868811 99.7012055,110.233609 99.2512042,110.233609 C98.8012022,110.233609 98.4364042,109.868811 98.4364042,109.418809 L98.4364042,108.718809 Z M98.4364042,115.018809 C98.4364042,114.568808 98.8012022,114.204009 99.2512042,114.204009 C99.7012055,114.204009 100.066004,114.568808 100.066004,115.018809 L100.066004,115.718809 C100.066004,116.168811 99.7012055,116.533609 99.2512042,116.533609 C98.8012022,116.533609 98.4364042,116.168811 98.4364042,115.718809 L98.4364042,115.018809 Z M98.4364042,121.318809 C98.4364042,120.868807 98.8012022,120.504009 99.2512042,120.504009 C99.7012055,120.504009 100.066004,120.868807 100.066004,121.318809 L100.066004,122.018809 C100.066004,122.468811 99.7012055,122.833609 99.2512042,122.833609 C98.8012022,122.833609 98.4364042,122.468811 98.4364042,122.018809 L98.4364042,121.318809 Z M98.4364042,127.618809 C98.4364042,127.168807 98.8012022,126.804009 99.2512042,126.804009 C99.7012055,126.804009 100.066004,127.168807 100.066004,127.618809 L100.066004,128.318809 C100.066004,128.768811 99.7012055,129.133609 99.2512042,129.133609 C98.8012022,129.133609 98.4364042,128.768811 98.4364042,128.318809 L98.4364042,127.618809 Z M98.4364042,133.918809 C98.4364042,133.468807 98.8012022,133.104009 99.2512042,133.104009 C99.7012055,133.104009 100.066004,133.468807 100.066004,133.918809 L100.066004,134.618809 C100.066004,135.06881 99.7012055,135.433608 99.2512042,135.433608 C98.8012022,135.433608 98.4364042,135.06881 98.4364042,134.618809 L98.4364042,133.918809 Z M98.4364042,140.218808 C98.4364042,139.768807 98.8012022,139.404008 99.2512042,139.404008 C99.7012055,139.404008 100.066004,139.768807 100.066004,140.218808 L100.066004,140.918808 C100.066004,141.36881 99.7012055,141.733608 99.2512042,141.733608 C98.8012022,141.733608 98.4364042,141.36881 98.4364042,140.918808 L98.4364042,140.218808 Z" id="Shape" fill="url(#linearGradient-4)" fill-rule="nonzero"></path>
                <path d="M153.761488,48.036763 C153.761488,47.5867617 154.126286,47.221963 154.576288,47.221963 C155.026289,47.221963 155.391087,47.5867617 155.391087,48.036763 L155.391087,48.736763 C155.391087,49.186765 155.026289,49.551563 154.576288,49.551563 C154.126286,49.551563 153.761488,49.186765 153.761488,48.736763 L153.761488,48.036763 Z M153.761488,54.3367629 C153.761488,53.8867616 154.126286,53.5219629 154.576288,53.5219629 C155.026289,53.5219629 155.391087,53.8867616 155.391087,54.3367629 L155.391087,55.0367629 C155.391087,55.4867649 155.026289,55.8515629 154.576288,55.8515629 C154.126286,55.8515629 153.761488,55.4867649 153.761488,55.0367629 L153.761488,54.3367629 Z M153.761488,60.6367628 C153.761488,60.1867615 154.126286,59.8219628 154.576288,59.8219628 C155.026289,59.8219628 155.391087,60.1867615 155.391087,60.6367628 L155.391087,61.3367628 C155.391087,61.7867648 155.026289,62.1515628 154.576288,62.1515628 C154.126286,62.1515628 153.761488,61.7867648 153.761488,61.3367628 L153.761488,60.6367628 Z M153.761488,66.9367627 C153.761488,66.4867614 154.126286,66.1219627 154.576288,66.1219627 C155.026289,66.1219627 155.391087,66.4867614 155.391087,66.9367627 L155.391087,67.6367627 C155.391087,68.0867647 155.026289,68.4515627 154.576288,68.4515627 C154.126286,68.4515627 153.761488,68.0867647 153.761488,67.6367627 L153.761488,66.9367627 Z M153.761488,73.2367626 C153.761488,72.7867613 154.126286,72.4219626 154.576288,72.4219626 C155.026289,72.4219626 155.391087,72.7867613 155.391087,73.2367626 L155.391087,73.9367626 C155.391087,74.3867646 155.026289,74.7515626 154.576288,74.7515626 C154.126286,74.7515626 153.761488,74.3867646 153.761488,73.9367626 L153.761488,73.2367626 Z M153.761488,79.5367625 C153.761488,79.0867612 154.126286,78.7219625 154.576288,78.7219625 C155.026289,78.7219625 155.391087,79.0867612 155.391087,79.5367625 L155.391087,80.2367625 C155.391087,80.6867645 155.026289,81.0515625 154.576288,81.0515625 C154.126286,81.0515625 153.761488,80.6867645 153.761488,80.2367625 L153.761488,79.5367625 Z M153.761488,85.8367624 C153.761488,85.3867611 154.126286,85.0219624 154.576288,85.0219624 C155.026289,85.0219624 155.391087,85.3867611 155.391087,85.8367624 L155.391087,86.5367624 C155.391087,86.9867644 155.026289,87.3515624 154.576288,87.3515624 C154.126286,87.3515624 153.761488,86.9867644 153.761488,86.5367624 L153.761488,85.8367624 Z M153.761488,92.1367623 C153.761488,91.686761 154.126286,91.3219623 154.576288,91.3219623 C155.026289,91.3219623 155.391087,91.686761 155.391087,92.1367623 L155.391087,92.8367623 C155.391087,93.2867643 155.026289,93.6515623 154.576288,93.6515623 C154.126286,93.6515623 153.761488,93.2867643 153.761488,92.8367623 L153.761488,92.1367623 Z M153.761488,98.4367622 C153.761488,97.9867609 154.126286,97.6219622 154.576288,97.6219622 C155.026289,97.6219622 155.391087,97.9867609 155.391087,98.4367622 L155.391087,99.1367622 C155.391087,99.5867642 155.026289,99.9515621 154.576288,99.9515621 C154.126286,99.9515621 153.761488,99.5867642 153.761488,99.1367622 L153.761488,98.4367622 Z M153.761488,104.736762 C153.761488,104.286761 154.126286,103.921962 154.576288,103.921962 C155.026289,103.921962 155.391087,104.286761 155.391087,104.736762 L155.391087,105.436762 C155.391087,105.886764 155.026289,106.251562 154.576288,106.251562 C154.126286,106.251562 153.761488,105.886764 153.761488,105.436762 L153.761488,104.736762 Z M153.761488,111.036762 C153.761488,110.586761 154.126286,110.221962 154.576288,110.221962 C155.026289,110.221962 155.391087,110.586761 155.391087,111.036762 L155.391087,111.736762 C155.391087,112.186764 155.026289,112.551562 154.576288,112.551562 C154.126286,112.551562 153.761488,112.186764 153.761488,111.736762 L153.761488,111.036762 Z M153.761488,117.336762 C153.761488,116.886761 154.126286,116.521962 154.576288,116.521962 C155.026289,116.521962 155.391087,116.886761 155.391087,117.336762 L155.391087,118.036762 C155.391087,118.486764 155.026289,118.851562 154.576288,118.851562 C154.126286,118.851562 153.761488,118.486764 153.761488,118.036762 L153.761488,117.336762 Z M153.761488,123.636762 C153.761488,123.18676 154.126286,122.821962 154.576288,122.821962 C155.026289,122.821962 155.391087,123.18676 155.391087,123.636762 L155.391087,124.336762 C155.391087,124.786764 155.026289,125.151562 154.576288,125.151562 C154.126286,125.151562 153.761488,124.786764 153.761488,124.336762 L153.761488,123.636762 Z M153.761488,129.936762 C153.761488,129.48676 154.126286,129.121962 154.576288,129.121962 C155.026289,129.121962 155.391087,129.48676 155.391087,129.936762 L155.391087,130.636762 C155.391087,131.086764 155.026289,131.451562 154.576288,131.451562 C154.126286,131.451562 153.761488,131.086764 153.761488,130.636762 L153.761488,129.936762 Z M153.761488,136.236762 C153.761488,135.78676 154.126286,135.421962 154.576288,135.421962 C155.026289,135.421962 155.391087,135.78676 155.391087,136.236762 L155.391087,136.936762 C155.391087,137.386764 155.026289,137.751562 154.576288,137.751562 C154.126286,137.751562 153.761488,137.386764 153.761488,136.936762 L153.761488,136.236762 Z M153.761488,142.536761 C153.761488,142.08676 154.126286,141.721961 154.576288,141.721961 C155.026289,141.721961 155.391087,142.08676 155.391087,142.536761 L155.391087,143.236761 C155.391087,143.686763 155.026289,144.051561 154.576288,144.051561 C154.126286,144.051561 153.761488,143.686763 153.761488,143.236761 L153.761488,142.536761 Z M153.761488,148.836761 C153.761488,148.38676 154.126286,148.021961 154.576288,148.021961 C155.026289,148.021961 155.391087,148.38676 155.391087,148.836761 L155.391087,149.536761 C155.391087,149.986763 155.026289,150.351561 154.576288,150.351561 C154.126286,150.351561 153.761488,149.986763 153.761488,149.536761 L153.761488,148.836761 Z M153.761488,155.136761 C153.761488,154.68676 154.126286,154.321961 154.576288,154.321961 C155.026289,154.321961 155.391087,154.68676 155.391087,155.136761 L155.391087,155.836761 C155.391087,156.286763 155.026289,156.651561 154.576288,156.651561 C154.126286,156.651561 153.761488,156.286763 153.761488,155.836761 L153.761488,155.136761 Z M153.761488,161.436761 C153.761488,160.98676 154.126286,160.621961 154.576288,160.621961 C155.026289,160.621961 155.391087,160.98676 155.391087,161.436761 L155.391087,162.136761 C155.391087,162.586763 155.026289,162.951561 154.576288,162.951561 C154.126286,162.951561 153.761488,162.586763 153.761488,162.136761 L153.761488,161.436761 Z M153.761488,167.736761 C153.761488,167.28676 154.126286,166.921961 154.576288,166.921961 C155.026289,166.921961 155.391087,167.28676 155.391087,167.736761 L155.391087,168.436761 C155.391087,168.886763 155.026289,169.251561 154.576288,169.251561 C154.126286,169.251561 153.761488,168.886763 153.761488,168.436761 L153.761488,167.736761 Z" id="Shape" fill="url(#linearGradient-5)" fill-rule="nonzero"></path>
                <path d="M59.0599634,83.4273413 C59.0599634,82.9773393 59.4247617,82.6125413 59.8747633,82.6125413 C60.3247649,82.6125413 60.6895633,82.9773393 60.6895633,83.4273413 L60.6895633,84.1273412 C60.6895633,84.5773425 60.3247649,84.9421412 59.8747633,84.9421412 C59.4247617,84.9421412 59.0599634,84.5773425 59.0599634,84.1273412 L59.0599634,83.4273413 Z M59.0599634,89.7273411 C59.0599634,89.2773392 59.4247617,88.9125412 59.8747633,88.9125412 C60.3247649,88.9125412 60.6895633,89.2773392 60.6895633,89.7273411 L60.6895633,90.4273411 C60.6895633,90.8773424 60.3247649,91.2421411 59.8747633,91.2421411 C59.4247617,91.2421411 59.0599634,90.8773424 59.0599634,90.4273411 L59.0599634,89.7273411 Z M59.0599634,96.027341 C59.0599634,95.577339 59.4247617,95.2125411 59.8747633,95.2125411 C60.3247649,95.2125411 60.6895633,95.577339 60.6895633,96.027341 L60.6895633,96.727341 C60.6895633,97.1773423 60.3247649,97.542141 59.8747633,97.542141 C59.4247617,97.542141 59.0599634,97.1773423 59.0599634,96.727341 L59.0599634,96.027341 Z M59.0599634,102.327341 C59.0599634,101.877339 59.4247617,101.512541 59.8747633,101.512541 C60.3247649,101.512541 60.6895633,101.877339 60.6895633,102.327341 L60.6895633,102.5283 C60.6895633,102.978302 60.3247649,103.3431 59.8747633,103.3431 C59.4247617,103.3431 59.0599634,102.978302 59.0599634,102.5283 L59.0599634,102.327341 Z" id="Shape" fill="url(#linearGradient-6)" fill-rule="nonzero"></path>
                <polygon id="Shape" fill="url(#linearGradient-7)" fill-rule="nonzero" points="133.285192 159.201819 133.285192 166.246087 65.4737847 205.575902 65.4737847 198.531634"></polygon>
                <polygon id="Shape" fill="#E7E9EB" fill-rule="nonzero" points="0.0936677894 160.822408 0.0936677894 167.866675 65.4737847 205.575902 65.4737847 198.531634"></polygon>
                <polygon id="Shape" stroke="#FFFFFF" stroke-width="0.5" fill="#FAFAFA" fill-rule="nonzero" stroke-linecap="round" stroke-linejoin="round" points="65.4778572 198.551993 0.203625629 160.87127 68.0394676 121.712472 133.309627 159.393195"></polygon>
                <polygon id="Shape" fill="url(#linearGradient-8)" fill-rule="nonzero" points="241.194557 169.556485 241.194557 174.430467 194.29143 201.634369 194.29143 196.760387"></polygon>
                <polygon id="Shape" fill="#E7E9EB" fill-rule="nonzero" points="149.07025 170.676239 149.07025 175.55022 194.29143 201.634369 194.29143 196.760387"></polygon>
                <polygon id="Shape" stroke="#FFFFFF" stroke-width="0.5" fill="#F5FAFA" fill-rule="nonzero" stroke-linecap="round" stroke-linejoin="round" points="194.30772 196.784818 149.155773 170.721029 196.079263 143.635209 241.227137 169.698999"></polygon>
                <polygon id="Shape" fill="url(#linearGradient-9)" fill-rule="nonzero" points="102.154906 223.247648 102.154906 225.865835 76.9460525 240.487779 76.9460525 237.865521"></polygon>
                <polygon id="Shape" fill="#E7E9EB" fill-rule="nonzero" points="52.6412976 223.850278 52.6412976 226.468466 76.9460525 240.487779 76.9460525 237.865521"></polygon>
                <polygon id="Shape" fill="#F2F6F7" fill-rule="nonzero" points="76.9379073 237.865521 52.6738777 223.858422 77.8908754 209.301626 102.154906 223.308725"></polygon>
                <polygon id="Shape" fill="url(#linearGradient-10)" fill-rule="nonzero" points="216.621016 162.842036 216.621016 172.252037 126.011684 224.807159 126.011684 215.397158"></polygon>
                <polygon id="Shape" fill="#E7E9EB" fill-rule="nonzero" points="38.6440719 165.004178 38.6440719 174.418251 126.011684 224.807159 126.011684 215.397158"></polygon>
                <polygon id="Shape" stroke="#FFFFFF" stroke-width="0.5" fill="#FAFAFA" fill-rule="nonzero" stroke-linecap="round" stroke-linejoin="round" points="126.01983 215.397158 38.7988273 165.048968 129.44074 112.721869 216.665814 163.070058"></polygon>
                <polygon id="Shape" stroke="#FFFFFF" stroke-width="0.5" fill="#F7F7F7" fill-rule="nonzero" stroke-linecap="round" stroke-linejoin="round" points="125.673666 125.588855 70.0472166 93.4824682 127.856532 60.1097419 183.482982 92.2202002"></polygon>
                <polygon id="Shape" fill="url(#linearGradient-11)" fill-rule="nonzero" points="114.099585 106.300591 102.977553 99.8793144 141.194011 78.359688 151.847704 84.5122245"></polygon>
                <polygon id="Shape" fill="url(#linearGradient-12)" fill-rule="nonzero" points="70.0472166 93.4824682 70.0472166 162.956047 125.673666 195.062434 125.673666 125.588855"></polygon>
                <polygon id="Shape" fill="#E6E9ED" fill-rule="nonzero" points="70.0472166 93.4824682 70.0472166 162.956047 125.673666 195.062434 125.673666 125.588855"></polygon>
                <polygon id="Shape" fill="#FFFFFF" fill-rule="nonzero" points="79.1207747 110.050748 79.1207747 156.860516 116.600108 178.494154 116.600108 131.684386"></polygon>
                <polygon id="Shape" fill="url(#linearGradient-13)" fill-rule="nonzero" points="125.673666 125.588855 183.482982 92.2202002 183.482982 161.693779 125.673666 195.062434"></polygon>
                <path d="M143.380951,150.512532 C143.729182,152.715932 145.741583,154.261223 147.96059,154.029167 C150.179598,153.79711 151.828631,151.868917 151.713311,149.64116 L151.582991,149.26248 C152.894823,150.480979 154.835614,150.732568 156.414867,149.888848 C157.99412,149.045128 158.863602,147.292142 158.579567,145.524539 L158.437029,145.300588 C159.747659,146.538598 161.702942,146.800704 163.293446,145.951593 C164.883949,145.102483 165.753815,143.332133 165.453968,141.554504 L165.392881,141.200254 C166.653227,142.546627 168.645305,142.911914 170.301485,142.100344 C171.957665,141.288773 172.889326,139.490781 172.597155,137.669977 L172.37724,137.262794 C173.65547,138.568416 175.631983,138.896481 177.263584,138.073838 C178.895185,137.251195 179.806425,135.467142 179.516354,133.663296 L179.463412,133.101382 C180.723758,134.447755 182.715836,134.813043 184.372015,134.001472 C186.028196,133.189902 186.959857,131.391909 186.667686,129.571105 L186.606599,129.216856 C187.866945,130.563229 189.859023,130.928516 191.515203,130.116945 C193.171383,129.305375 194.103044,127.507382 193.810873,125.686579 L193.713133,125.206103 C194.637594,126.187414 195.900072,126.500945 197.329524,126.268851 C199.618276,125.902386 200.884828,123.304558 200.835958,121.679897 L200.835958,120.865531 C200.835958,100.034044 182.916902,92.1672669 182.916902,92.1672669 L125.673666,125.210175 C125.673666,125.210175 140.501684,131.973486 143.148817,148.883799 L143.380951,150.512532 Z" id="Shape" fill="#EBEEF0" fill-rule="nonzero"></path>
                <path d="M125.673666,125.210175 L125.673666,143.228026 L144.350208,152.548448 C144.350208,152.548448 144.623066,136.147113 125.673666,125.210175 Z" id="Shape" fill="#B5C4C9" fill-rule="nonzero"></path>
                <polygon id="Shape" fill="url(#linearGradient-14)" fill-rule="nonzero" points="79.1207747 156.860516 82.7941807 154.250472 116.579745 173.754543 116.600108 178.494154"></polygon>
                <polygon id="Shape" fill="url(#linearGradient-15)" fill-rule="nonzero" points="79.1207747 156.860516 79.1207747 119.391528 82.7941807 120.99583 82.7941807 154.250472"></polygon>
                <path d="M214.072912,40.9419632 C214.072912,40.4919619 214.43771,40.1271632 214.887712,40.1271632 C215.337713,40.1271632 215.702512,40.4919619 215.702512,40.9419632 L215.702512,41.6419632 C215.702512,42.0919651 215.337713,42.4567631 214.887712,42.4567631 C214.43771,42.4567631 214.072912,42.0919651 214.072912,41.6419632 L214.072912,40.9419632 Z M214.072912,47.2419631 C214.072912,46.7919618 214.43771,46.4271631 214.887712,46.4271631 C215.337713,46.4271631 215.702512,46.7919618 215.702512,47.2419631 L215.702512,47.941963 C215.702512,48.391965 215.337713,48.756763 214.887712,48.756763 C214.43771,48.756763 214.072912,48.391965 214.072912,47.941963 L214.072912,47.2419631 Z M214.072912,53.541963 C214.072912,53.0919617 214.43771,52.727163 214.887712,52.727163 C215.337713,52.727163 215.702512,53.0919617 215.702512,53.541963 L215.702512,54.2419629 C215.702512,54.6919649 215.337713,55.0567629 214.887712,55.0567629 C214.43771,55.0567629 214.072912,54.6919649 214.072912,54.2419629 L214.072912,53.541963 Z M214.072912,59.8419628 C214.072912,59.3919616 214.43771,59.0271629 214.887712,59.0271629 C215.337713,59.0271629 215.702512,59.3919616 215.702512,59.8419628 L215.702512,60.5419628 C215.702512,60.9919648 215.337713,61.3567628 214.887712,61.3567628 C214.43771,61.3567628 214.072912,60.9919648 214.072912,60.5419628 L214.072912,59.8419628 Z M214.072912,66.1419627 C214.072912,65.6919614 214.43771,65.3271628 214.887712,65.3271628 C215.337713,65.3271628 215.702512,65.6919614 215.702512,66.1419627 L215.702512,66.8419627 C215.702512,67.2919647 215.337713,67.6567627 214.887712,67.6567627 C214.43771,67.6567627 214.072912,67.2919647 214.072912,66.8419627 L214.072912,66.1419627 Z M214.072912,72.4419626 C214.072912,71.9919613 214.43771,71.6271626 214.887712,71.6271626 C215.337713,71.6271626 215.702512,71.9919613 215.702512,72.4419626 L215.702512,73.1419626 C215.702512,73.5919646 215.337713,73.9567626 214.887712,73.9567626 C214.43771,73.9567626 214.072912,73.5919646 214.072912,73.1419626 L214.072912,72.4419626 Z M214.072912,78.7419625 C214.072912,78.2919612 214.43771,77.9271625 214.887712,77.9271625 C215.337713,77.9271625 215.702512,78.2919612 215.702512,78.7419625 L215.702512,79.4419625 C215.702512,79.8919645 215.337713,80.2567625 214.887712,80.2567625 C214.43771,80.2567625 214.072912,79.8919645 214.072912,79.4419625 L214.072912,78.7419625 Z M214.072912,85.0419624 C214.072912,84.5919611 214.43771,84.2271624 214.887712,84.2271624 C215.337713,84.2271624 215.702512,84.5919611 215.702512,85.0419624 L215.702512,85.7419624 C215.702512,86.1919644 215.337713,86.5567624 214.887712,86.5567624 C214.43771,86.5567624 214.072912,86.1919644 214.072912,85.7419624 L214.072912,85.0419624 Z M214.072912,91.3419623 C214.072912,90.891961 214.43771,90.5271623 214.887712,90.5271623 C215.337713,90.5271623 215.702512,90.891961 215.702512,91.3419623 L215.702512,92.0419623 C215.702512,92.4919643 215.337713,92.8567623 214.887712,92.8567623 C214.43771,92.8567623 214.072912,92.4919643 214.072912,92.0419623 L214.072912,91.3419623 Z M214.072912,97.6419622 C214.072912,97.1919609 214.43771,96.8271622 214.887712,96.8271622 C215.337713,96.8271622 215.702512,97.1919609 215.702512,97.6419622 L215.702512,98.3419622 C215.702512,98.7919642 215.337713,99.1567622 214.887712,99.1567622 C214.43771,99.1567622 214.072912,98.7919642 214.072912,98.3419622 L214.072912,97.6419622 Z M214.072912,103.941962 C214.072912,103.491961 214.43771,103.127162 214.887712,103.127162 C215.337713,103.127162 215.702512,103.491961 215.702512,103.941962 L215.702512,104.641962 C215.702512,105.091964 215.337713,105.456762 214.887712,105.456762 C214.43771,105.456762 214.072912,105.091964 214.072912,104.641962 L214.072912,103.941962 Z M214.072912,110.241962 C214.072912,109.791961 214.43771,109.427162 214.887712,109.427162 C215.337713,109.427162 215.702512,109.791961 215.702512,110.241962 L215.702512,110.941962 C215.702512,111.391964 215.337713,111.756762 214.887712,111.756762 C214.43771,111.756762 214.072912,111.391964 214.072912,110.941962 L214.072912,110.241962 Z M214.072912,116.541962 C214.072912,116.091961 214.43771,115.727162 214.887712,115.727162 C215.337713,115.727162 215.702512,116.091961 215.702512,116.541962 L215.702512,117.241962 C215.702512,117.691964 215.337713,118.056762 214.887712,118.056762 C214.43771,118.056762 214.072912,117.691964 214.072912,117.241962 L214.072912,116.541962 Z M214.072912,122.841962 C214.072912,122.39196 214.43771,122.027162 214.887712,122.027162 C215.337713,122.027162 215.702512,122.39196 215.702512,122.841962 L215.702512,123.541962 C215.702512,123.991964 215.337713,124.356762 214.887712,124.356762 C214.43771,124.356762 214.072912,123.991964 214.072912,123.541962 L214.072912,122.841962 Z M214.072912,129.141962 C214.072912,128.69196 214.43771,128.327162 214.887712,128.327162 C215.337713,128.327162 215.702512,128.69196 215.702512,129.141962 L215.702512,129.841962 C215.702512,130.291964 215.337713,130.656762 214.887712,130.656762 C214.43771,130.656762 214.072912,130.291964 214.072912,129.841962 L214.072912,129.141962 Z M214.072912,135.441962 C214.072912,134.99196 214.43771,134.627162 214.887712,134.627162 C215.337713,134.627162 215.702512,134.99196 215.702512,135.441962 L215.702512,136.141962 C215.702512,136.591964 215.337713,136.956762 214.887712,136.956762 C214.43771,136.956762 214.072912,136.591964 214.072912,136.141962 L214.072912,135.441962 Z M214.072912,141.741961 C214.072912,141.29196 214.43771,140.927161 214.887712,140.927161 C215.337713,140.927161 215.702512,141.29196 215.702512,141.741961 L215.702512,142.441961 C215.702512,142.891963 215.337713,143.256761 214.887712,143.256761 C214.43771,143.256761 214.072912,142.891963 214.072912,142.441961 L214.072912,141.741961 Z M214.072912,148.041961 C214.072912,147.59196 214.43771,147.227161 214.887712,147.227161 C215.337713,147.227161 215.702512,147.59196 215.702512,148.041961 L215.702512,148.741961 C215.702512,149.191963 215.337713,149.556761 214.887712,149.556761 C214.43771,149.556761 214.072912,149.191963 214.072912,148.741961 L214.072912,148.041961 Z M214.072912,154.341961 C214.072912,153.89196 214.43771,153.527161 214.887712,153.527161 C215.337713,153.527161 215.702512,153.89196 215.702512,154.341961 L215.702512,155.041961 C215.702512,155.491963 215.337713,155.856761 214.887712,155.856761 C214.43771,155.856761 214.072912,155.491963 214.072912,155.041961 L214.072912,154.341961 Z M214.072912,160.641961 C214.072912,160.19196 214.43771,159.827161 214.887712,159.827161 C215.337713,159.827161 215.702512,160.19196 215.702512,160.641961 L215.702512,161.341961 C215.702512,161.791963 215.337713,162.156761 214.887712,162.156761 C214.43771,162.156761 214.072912,161.791963 214.072912,161.341961 L214.072912,160.641961 Z" id="Shape" fill="url(#linearGradient-4)" fill-rule="nonzero"></path>
                <path d="M108.463227,150.166426 C108.203865,152.380409 106.212191,153.974334 103.994792,153.742488 C101.777393,153.510642 100.158627,151.539218 100.363,149.319486 L100.493321,148.948949 C99.2201956,150.139766 97.3301739,150.388273 95.7924091,149.567042 C94.2546442,148.74581 93.4102559,147.037012 93.6922243,145.316876 L93.8266173,145.096997 C92.5576559,146.296264 90.665255,146.553255 89.1223339,145.735846 C87.5794128,144.918438 86.7293713,143.208556 87.0092313,141.485282 L87.0703189,141.139177 C85.8480657,142.457621 83.9056967,142.818657 82.2911908,142.027493 C80.6766849,141.23633 79.7721428,139.48021 80.0655975,137.706624 L80.2814404,137.299441 C79.0389293,138.560715 77.1236908,138.874758 75.5433393,138.076349 C73.9629878,137.277941 73.0796971,135.550054 73.358169,133.801737 L73.4070394,133.256113 C72.1902582,134.589409 70.2408009,134.962701 68.6174109,134.173253 C66.9940209,133.383807 66.0841536,131.620038 66.381955,129.839846 L66.4430427,129.493741 C65.2191895,130.787165 63.2967514,131.135544 61.6967262,130.353855 C60.096701,129.572165 59.190209,127.841718 59.4586837,126.081546 L59.5482789,125.613286 C58.6523262,126.566094 57.4224274,126.871481 56.0337005,126.647531 C53.8101087,126.293281 52.5802099,123.764675 52.62908,122.168517 L52.62908,121.378581 C52.62908,101.129367 70.0472166,93.4824682 70.0472166,93.4824682 L125.673666,125.592926 C125.673666,125.592926 111.273261,132.168933 108.687216,148.619131 L108.463227,150.166426 Z" id="Shape" fill="#EBEEF0" fill-rule="nonzero"></path>
                <path d="M125.673666,125.588855 L125.673666,143.097727 L107.514332,152.177911 C107.514332,152.177911 107.257763,136.220405 125.673666,125.588855 Z" id="Shape" fill="#BFCED4" fill-rule="nonzero"></path>
                <ellipse id="Oval" fill="#0050FF" fill-rule="nonzero" transform="translate(128.348837, 57.142775) rotate(-60.000000) translate(-128.348837, -57.142775) " cx="128.348837" cy="57.1427752" rx="25.8360198" ry="14.4672152"></ellipse>
                <ellipse id="Oval" fill="#0050FF" fill-rule="nonzero" transform="translate(128.348837, 57.142775) rotate(-60.000000) translate(-128.348837, -57.142775) " cx="128.348837" cy="57.1427752" rx="25.8360198" ry="14.4672152"></ellipse>
                <path d="M106.907528,73.0785234 C104.757241,71.1403319 103.930521,67.5367614 103.987536,63.2002615 C104.138219,51.6403336 112.315824,37.4785057 122.252755,31.5662071 C126.944289,28.7770026 131.183775,28.3087425 134.344045,29.835679 C134.344045,29.835679 140.517974,33.5858352 143.710824,36.8595874 C147.538986,40.764473 116.714138,80.1187187 116.714138,80.1187187 C116.714138,80.1187187 113.39504,78.9338161 106.907528,73.0785234 Z" id="Shape" fill="#6999FF" fill-rule="nonzero"></path>
                <ellipse id="Oval" fill="#B8CDFF" fill-rule="nonzero" transform="translate(128.348837, 57.142775) rotate(-60.000000) translate(-128.348837, -57.142775) " cx="128.348837" cy="57.1427752" rx="25.8360198" ry="14.4672152"></ellipse>
                <path d="M70.3322923,101.707567 C70.3322923,101.707567 61.6985655,106.239514 59.9392402,121.712472" id="Shape" stroke="#FFFFFF" stroke-width="0.814799958" opacity="0.3"></path>
                <path d="M77.1496783,105.579878 C77.1496783,105.579878 68.5159516,110.115897 66.7566262,125.588855" id="Shape" stroke="#FFFFFF" stroke-width="0.814799958" opacity="0.3"></path>
                <path d="M84.3010105,110.050748 C84.3010105,110.050748 75.671356,114.582696 73.9120306,130.059725" id="Shape" stroke="#FFFFFF" stroke-width="0.814799958" opacity="0.3"></path>
                <path d="M91.3505297,114.452397 C91.3505297,114.452397 82.7168027,118.984345 80.9574773,134.461375" id="Shape" stroke="#FFFFFF" stroke-width="0.814799958" opacity="0.3"></path>
                <path d="M97.862477,118.5283 C97.862477,118.5283 89.2287507,123.060248 87.4694253,138.533205" id="Shape" stroke="#FFFFFF" stroke-width="0.814799958" opacity="0.3"></path>
                <path d="M104.745023,123.096894 C104.745023,123.096894 96.1112969,127.632914 94.3519715,143.105871" id="Shape" stroke="#FFFFFF" stroke-width="0.814799958" opacity="0.3"></path>
                <path d="M111.024838,125.674363 C111.024838,125.674363 102.391112,130.206311 100.631785,145.68334" id="Shape" stroke="#FFFFFF" stroke-width="0.814799958" opacity="0.3"></path>
                <path d="M183.112383,101.243378 C183.112383,101.243378 191.74611,105.775325 193.501363,121.252355" id="Shape" stroke="url(#linearGradient-16)" stroke-width="0.814799958" opacity="0.3" stroke-linecap="round" stroke-linejoin="round"></path>
                <path d="M176.294997,105.579878 C176.294997,105.579878 184.928723,110.115897 186.683977,125.588855" id="Shape" stroke="url(#linearGradient-16)" stroke-width="0.814799958" opacity="0.3" stroke-linecap="round" stroke-linejoin="round"></path>
                <path d="M168.663109,110.050748 C168.663109,110.050748 177.292762,114.582696 179.052088,130.059725" id="Shape" stroke="url(#linearGradient-16)" stroke-width="0.814799958" opacity="0.3" stroke-linecap="round" stroke-linejoin="round"></path>
                <path d="M161.169685,114.452397 C161.169685,114.452397 169.803412,118.984345 171.558665,134.461375" id="Shape" stroke="url(#linearGradient-16)" stroke-width="0.814799958" opacity="0.3" stroke-linecap="round" stroke-linejoin="round"></path>
                <path d="M154.657738,118.064112 C154.657738,118.064112 163.291464,122.596059 165.046717,138.073088" id="Shape" stroke="url(#linearGradient-16)" stroke-width="0.814799958" opacity="0.3" stroke-linecap="round" stroke-linejoin="round"></path>
                <path d="M147.775191,122.636777 C147.775191,122.636777 156.408918,127.168725 158.164171,142.645754" id="Shape" stroke="url(#linearGradient-16)" stroke-width="0.814799958" opacity="0.3" stroke-linecap="round" stroke-linejoin="round"></path>
                <path d="M141.031111,126.610885 C141.031111,126.610885 149.664837,131.142832 151.424163,146.619861" id="Shape" stroke="url(#linearGradient-17)" stroke-width="0.814799958" opacity="0.3" stroke-linecap="round" stroke-linejoin="round"></path>
                <path d="M40.9339683,1.68335422 C40.9339683,1.23335265 41.2987666,0.868554308 41.7487682,0.868554308 C42.1987698,0.868554308 42.5635682,1.23335265 42.5635682,1.68335422 L42.5635682,2.38335421 C42.5635682,2.83335585 42.1987698,3.1981542 41.7487682,3.1981542 C41.2987666,3.1981542 40.9339683,2.83335585 40.9339683,2.38335421 L40.9339683,1.68335422 Z M40.9339683,7.98335412 C40.9339683,7.53335254 41.2987666,7.1685542 41.7487682,7.1685542 C42.1987698,7.1685542 42.5635682,7.53335254 42.5635682,7.98335412 L42.5635682,8.6833541 C42.5635682,9.13335575 42.1987698,9.49815409 41.7487682,9.49815409 C41.2987666,9.49815409 40.9339683,9.13335575 40.9339683,8.6833541 L40.9339683,7.98335412 Z M40.9339683,14.283354 C40.9339683,13.8333524 41.2987666,13.4685541 41.7487682,13.4685541 C42.1987698,13.4685541 42.5635682,13.8333524 42.5635682,14.283354 L42.5635682,14.983354 C42.5635682,15.4333556 42.1987698,15.798154 41.7487682,15.798154 C41.2987666,15.798154 40.9339683,15.4333556 40.9339683,14.983354 L40.9339683,14.283354 Z M40.9339683,20.5833539 C40.9339683,20.1333523 41.2987666,19.768554 41.7487682,19.768554 C42.1987698,19.768554 42.5635682,20.1333523 42.5635682,20.5833539 L42.5635682,21.2833539 C42.5635682,21.7333555 42.1987698,22.0981539 41.7487682,22.0981539 C41.2987666,22.0981539 40.9339683,21.7333555 40.9339683,21.2833539 L40.9339683,20.5833539 Z M40.9339683,26.8833538 C40.9339683,26.4333522 41.2987666,26.0685539 41.7487682,26.0685539 C42.1987698,26.0685539 42.5635682,26.4333522 42.5635682,26.8833538 L42.5635682,27.5833538 C42.5635682,28.0333554 42.1987698,28.3981538 41.7487682,28.3981538 C41.2987666,28.3981538 40.9339683,28.0333554 40.9339683,27.5833538 L40.9339683,26.8833538 Z M40.9339683,33.1833537 C40.9339683,32.7333521 41.2987666,32.3685538 41.7487682,32.3685538 C42.1987698,32.3685538 42.5635682,32.7333521 42.5635682,33.1833537 L42.5635682,33.8833537 C42.5635682,34.333355 42.1987698,34.6981537 41.7487682,34.6981537 C41.2987666,34.6981537 40.9339683,34.333355 40.9339683,33.8833537 L40.9339683,33.1833537 Z M40.9339683,39.4833536 C40.9339683,39.0333523 41.2987666,38.6685536 41.7487682,38.6685536 C42.1987698,38.6685536 42.5635682,39.0333523 42.5635682,39.4833536 L42.5635682,40.1833536 C42.5635682,40.6333549 42.1987698,40.9981536 41.7487682,40.9981536 C41.2987666,40.9981536 40.9339683,40.6333549 40.9339683,40.1833536 L40.9339683,39.4833536 Z M40.9339683,45.7833535 C40.9339683,45.3333522 41.2987666,44.9685535 41.7487682,44.9685535 C42.1987698,44.9685535 42.5635682,45.3333522 42.5635682,45.7833535 L42.5635682,46.4833535 C42.5635682,46.9333548 42.1987698,47.2981534 41.7487682,47.2981534 C41.2987666,47.2981534 40.9339683,46.9333548 40.9339683,46.4833535 L40.9339683,45.7833535 Z M40.9339683,52.0833534 C40.9339683,51.6333521 41.2987666,51.2685534 41.7487682,51.2685534 C42.1987698,51.2685534 42.5635682,51.6333521 42.5635682,52.0833534 L42.5635682,52.7833534 C42.5635682,53.2333546 42.1987698,53.5981533 41.7487682,53.5981533 C41.2987666,53.5981533 40.9339683,53.2333546 40.9339683,52.7833534 L40.9339683,52.0833534 Z M40.9339683,58.3833533 C40.9339683,57.933352 41.2987666,57.5685533 41.7487682,57.5685533 C42.1987698,57.5685533 42.5635682,57.933352 42.5635682,58.3833533 L42.5635682,59.0833532 C42.5635682,59.5333545 42.1987698,59.8981532 41.7487682,59.8981532 C41.2987666,59.8981532 40.9339683,59.5333545 40.9339683,59.0833532 L40.9339683,58.3833533 Z M40.9339683,64.6833532 C40.9339683,64.2333519 41.2987666,63.8685532 41.7487682,63.8685532 C42.1987698,63.8685532 42.5635682,64.2333519 42.5635682,64.6833532 L42.5635682,65.3833531 C42.5635682,65.8333544 42.1987698,66.1981531 41.7487682,66.1981531 C41.2987666,66.1981531 40.9339683,65.8333544 40.9339683,65.3833531 L40.9339683,64.6833532 Z M40.9339683,70.983353 C40.9339683,70.5333518 41.2987666,70.1685531 41.7487682,70.1685531 C42.1987698,70.1685531 42.5635682,70.5333518 42.5635682,70.983353 L42.5635682,71.683353 C42.5635682,72.1333543 42.1987698,72.498153 41.7487682,72.498153 C41.2987666,72.498153 40.9339683,72.1333543 40.9339683,71.683353 L40.9339683,70.983353 Z M40.9339683,77.2833529 C40.9339683,76.8333516 41.2987666,76.468553 41.7487682,76.468553 C42.1987698,76.468553 42.5635682,76.8333516 42.5635682,77.2833529 L42.5635682,77.9833529 C42.5635682,78.4333542 42.1987698,78.7981529 41.7487682,78.7981529 C41.2987666,78.7981529 40.9339683,78.4333542 40.9339683,77.9833529 L40.9339683,77.2833529 Z M40.9339683,83.5833528 C40.9339683,83.1333515 41.2987666,82.7685528 41.7487682,82.7685528 C42.1987698,82.7685528 42.5635682,83.1333515 42.5635682,83.5833528 L42.5635682,84.2833528 C42.5635682,84.7333541 42.1987698,85.0981528 41.7487682,85.0981528 C41.2987666,85.0981528 40.9339683,84.7333541 40.9339683,84.2833528 L40.9339683,83.5833528 Z M40.9339683,89.8833527 C40.9339683,89.4333514 41.2987666,89.0685527 41.7487682,89.0685527 C42.1987698,89.0685527 42.5635682,89.4333514 42.5635682,89.8833527 L42.5635682,90.5833527 C42.5635682,91.033354 42.1987698,91.3981527 41.7487682,91.3981527 C41.2987666,91.3981527 40.9339683,91.033354 40.9339683,90.5833527 L40.9339683,89.8833527 Z M40.9339683,96.1833526 C40.9339683,95.7333513 41.2987666,95.3685526 41.7487682,95.3685526 C42.1987698,95.3685526 42.5635682,95.7333513 42.5635682,96.1833526 L42.5635682,96.8833526 C42.5635682,97.3333539 42.1987698,97.6981526 41.7487682,97.6981526 C41.2987666,97.6981526 40.9339683,97.3333539 40.9339683,96.8833526 L40.9339683,96.1833526 Z M40.9339683,102.483353 C40.9339683,102.033351 41.2987666,101.668553 41.7487682,101.668553 C42.1987698,101.668553 42.5635682,102.033351 42.5635682,102.483353 L42.5635682,103.183352 C42.5635682,103.633354 42.1987698,103.998152 41.7487682,103.998152 C41.2987666,103.998152 40.9339683,103.633354 40.9339683,103.183352 L40.9339683,102.483353 Z M40.9339683,108.783352 C40.9339683,108.333351 41.2987666,107.968552 41.7487682,107.968552 C42.1987698,107.968552 42.5635682,108.333351 42.5635682,108.783352 L42.5635682,109.483352 C42.5635682,109.933354 42.1987698,110.298152 41.7487682,110.298152 C41.2987666,110.298152 40.9339683,109.933354 40.9339683,109.483352 L40.9339683,108.783352 Z M40.9339683,115.083352 C40.9339683,114.633351 41.2987666,114.268552 41.7487682,114.268552 C42.1987698,114.268552 42.5635682,114.633351 42.5635682,115.083352 L42.5635682,115.783352 C42.5635682,116.233354 42.1987698,116.598152 41.7487682,116.598152 C41.2987666,116.598152 40.9339683,116.233354 40.9339683,115.783352 L40.9339683,115.083352 Z M40.9339683,121.383352 C40.9339683,120.933351 41.2987666,120.568552 41.7487682,120.568552 C42.1987698,120.568552 42.5635682,120.933351 42.5635682,121.383352 L42.5635682,122.083352 C42.5635682,122.533353 42.1987698,122.898152 41.7487682,122.898152 C41.2987666,122.898152 40.9339683,122.533353 40.9339683,122.083352 L40.9339683,121.383352 Z M40.9339683,127.683352 C40.9339683,127.233351 41.2987666,126.868552 41.7487682,126.868552 C42.1987698,126.868552 42.5635682,127.233351 42.5635682,127.683352 L42.5635682,128.383352 C42.5635682,128.833353 42.1987698,129.198152 41.7487682,129.198152 C41.2987666,129.198152 40.9339683,128.833353 40.9339683,128.383352 L40.9339683,127.683352 Z M40.9339683,133.983352 C40.9339683,133.533351 41.2987666,133.168552 41.7487682,133.168552 C42.1987698,133.168552 42.5635682,133.533351 42.5635682,133.983352 L42.5635682,134.683352 C42.5635682,135.133353 42.1987698,135.498152 41.7487682,135.498152 C41.2987666,135.498152 40.9339683,135.133353 40.9339683,134.683352 L40.9339683,133.983352 Z M40.9339683,140.283352 C40.9339683,139.833351 41.2987666,139.468552 41.7487682,139.468552 C42.1987698,139.468552 42.5635682,139.833351 42.5635682,140.283352 L42.5635682,140.983352 C42.5635682,141.433353 42.1987698,141.798152 41.7487682,141.798152 C41.2987666,141.798152 40.9339683,141.433353 40.9339683,140.983352 L40.9339683,140.283352 Z M40.9339683,146.583352 C40.9339683,146.13335 41.2987666,145.768552 41.7487682,145.768552 C42.1987698,145.768552 42.5635682,146.13335 42.5635682,146.583352 L42.5635682,147.283352 C42.5635682,147.733353 42.1987698,148.098152 41.7487682,148.098152 C41.2987666,148.098152 40.9339683,147.733353 40.9339683,147.283352 L40.9339683,146.583352 Z M40.9339683,152.883352 C40.9339683,152.43335 41.2987666,152.068552 41.7487682,152.068552 C42.1987698,152.068552 42.5635682,152.43335 42.5635682,152.883352 L42.5635682,153.583352 C42.5635682,154.033353 42.1987698,154.398152 41.7487682,154.398152 C41.2987666,154.398152 40.9339683,154.033353 40.9339683,153.583352 L40.9339683,152.883352 Z M40.9339683,159.183352 C40.9339683,158.73335 41.2987666,158.368552 41.7487682,158.368552 C42.1987698,158.368552 42.5635682,158.73335 42.5635682,159.183352 L42.5635682,159.883352 C42.5635682,160.333353 42.1987698,160.698152 41.7487682,160.698152 C41.2987666,160.698152 40.9339683,160.333353 40.9339683,159.883352 L40.9339683,159.183352 Z" id="Shape" fill="url(#linearGradient-18)" fill-rule="nonzero"></path>
            </g>
        </g>
    </g>
</svg>