<?xml version="1.0" encoding="UTF-8"?>
<svg width="266px" height="266px" viewBox="0 0 266 266" version="1.1" xmlns="http://www.w3.org/2000/svg" xmlns:xlink="http://www.w3.org/1999/xlink">
    <!-- Generator: Sketch 63.1 (92452) - https://sketch.com -->
    <title>ServicesList_desktop Copy 8</title>
    <desc>Created with Sketch.</desc>
    <defs>
        <linearGradient x1="0%" y1="50%" x2="100%" y2="50%" id="linearGradient-1">
            <stop stop-color="#CFD8DB" offset="0%"></stop>
            <stop stop-color="#CFD8DB" offset="100%"></stop>
        </linearGradient>
        <linearGradient x1="0%" y1="49.9793984%" x2="100%" y2="49.9793984%" id="linearGradient-2">
            <stop stop-color="#CFD8DB" offset="0%"></stop>
            <stop stop-color="#CFD8DB" offset="100%"></stop>
        </linearGradient>
        <linearGradient x1="0%" y1="49.9588477%" x2="100%" y2="49.9588477%" id="linearGradient-3">
            <stop stop-color="#CFD8DB" offset="0%"></stop>
            <stop stop-color="#CFD8DB" offset="100%"></stop>
        </linearGradient>
        <linearGradient x1="-1.5%" y1="50.0206016%" x2="98.5%" y2="50.0206016%" id="linearGradient-4">
            <stop stop-color="#CFD8DB" offset="0%"></stop>
            <stop stop-color="#CFD8DB" offset="100%"></stop>
        </linearGradient>
        <linearGradient x1="0%" y1="49.9177632%" x2="100%" y2="49.9177632%" id="linearGradient-5">
            <stop stop-color="#CFD8DB" offset="0%"></stop>
            <stop stop-color="#CFD8DB" offset="100%"></stop>
        </linearGradient>
        <linearGradient x1="3.2394671e-07%" y1="50.0213915%" x2="100%" y2="50.0213915%" id="linearGradient-6">
            <stop stop-color="#CFD8DB" offset="0%"></stop>
            <stop stop-color="#CFD8DB" offset="100%"></stop>
        </linearGradient>
        <linearGradient x1="0.000564198738%" y1="49.8792555%" x2="99.9996513%" y2="49.8792555%" id="linearGradient-7">
            <stop stop-color="#CFD8DB" offset="0%"></stop>
            <stop stop-color="#CFD8DB" offset="100%"></stop>
        </linearGradient>
        <linearGradient x1="-1.02690758%" y1="33.4429104%" x2="101.026908%" y2="66.5570896%" id="linearGradient-8">
            <stop stop-color="#CFD8DB" offset="0%"></stop>
            <stop stop-color="#CFD8DB" offset="100%"></stop>
        </linearGradient>
        <linearGradient x1="0%" y1="50%" x2="100%" y2="50%" id="linearGradient-9">
            <stop stop-color="#C6CED1" offset="0%"></stop>
            <stop stop-color="#B7C4C7" offset="100%"></stop>
        </linearGradient>
        <linearGradient x1="0%" y1="49.9853071%" x2="100%" y2="49.9853071%" id="linearGradient-10">
            <stop stop-color="#CFD8DB" offset="0%"></stop>
            <stop stop-color="#CFD8DB" offset="100%"></stop>
        </linearGradient>
        <linearGradient x1="50%" y1="0%" x2="50.0832986%" y2="94.6155468%" id="linearGradient-11">
            <stop stop-color="#004FFF" offset="0%"></stop>
            <stop stop-color="#0351FF" stop-opacity="0.99" offset="22%"></stop>
            <stop stop-color="#0B57FF" stop-opacity="0.96" offset="35%"></stop>
            <stop stop-color="#1A61FF" stop-opacity="0.9" offset="47%"></stop>
            <stop stop-color="#2E6FFF" stop-opacity="0.82" offset="57%"></stop>
            <stop stop-color="#4981FF" stop-opacity="0.71" offset="66%"></stop>
            <stop stop-color="#6A98FF" stop-opacity="0.58" offset="75%"></stop>
            <stop stop-color="#91B3FF" stop-opacity="0.43" offset="83%"></stop>
            <stop stop-color="#BED2FF" stop-opacity="0.25" offset="91%"></stop>
            <stop stop-color="#F0F5FF" stop-opacity="0.06" offset="98%"></stop>
            <stop stop-color="#FFFFFF" stop-opacity="0" offset="100%"></stop>
        </linearGradient>
        <linearGradient x1="50%" y1="0%" x2="50.1730104%" y2="94.6155468%" id="linearGradient-12">
            <stop stop-color="#004FFF" offset="0%"></stop>
            <stop stop-color="#0351FF" stop-opacity="0.99" offset="22%"></stop>
            <stop stop-color="#0B57FF" stop-opacity="0.96" offset="35%"></stop>
            <stop stop-color="#1A61FF" stop-opacity="0.9" offset="47%"></stop>
            <stop stop-color="#2E6FFF" stop-opacity="0.82" offset="57%"></stop>
            <stop stop-color="#4981FF" stop-opacity="0.71" offset="66%"></stop>
            <stop stop-color="#6A98FF" stop-opacity="0.58" offset="75%"></stop>
            <stop stop-color="#91B3FF" stop-opacity="0.43" offset="83%"></stop>
            <stop stop-color="#BED2FF" stop-opacity="0.25" offset="91%"></stop>
            <stop stop-color="#F0F5FF" stop-opacity="0.06" offset="98%"></stop>
            <stop stop-color="#FFFFFF" stop-opacity="0" offset="100%"></stop>
        </linearGradient>
        <linearGradient x1="50%" y1="100%" x2="50%" y2="0%" id="linearGradient-13">
            <stop stop-color="#004FFF" offset="0%"></stop>
            <stop stop-color="#FFFFFF" stop-opacity="0" offset="100%"></stop>
        </linearGradient>
        <linearGradient x1="50%" y1="100%" x2="50%" y2="0%" id="linearGradient-14">
            <stop stop-color="#004FFF" offset="0%"></stop>
            <stop stop-color="#FFFFFF" stop-opacity="0" offset="100%"></stop>
        </linearGradient>
        <linearGradient x1="50.0034846%" y1="100%" x2="50.0034846%" y2="0%" id="linearGradient-15">
            <stop stop-color="#004FFF" offset="0%"></stop>
            <stop stop-color="#FFFFFF" stop-opacity="0" offset="100%"></stop>
        </linearGradient>
        <linearGradient x1="50.0034846%" y1="100%" x2="50.0034846%" y2="0%" id="linearGradient-16">
            <stop stop-color="#004FFF" offset="0%"></stop>
            <stop stop-color="#FFFFFF" stop-opacity="0" offset="100%"></stop>
        </linearGradient>
    </defs>
    <g id="Services" stroke="none" stroke-width="1" fill="none" fill-rule="evenodd">
        <g id="ServicesList_desktop-Copy" transform="translate(-913.000000, -1873.000000)">
            <rect fill="#FFFFFF" x="0" y="0" width="1400" height="2351"></rect>
            <g id="cto-as-a-service" transform="translate(935.000000, 1877.000000)">
                <path d="M114.004611,202.352003 C58.6487529,171.490507 55.3287565,170.452227 0,139.577069 L109.763147,76.2966571 C164.997046,107.322092 168.140879,108.524311 223.361228,139.549746 C186.909022,160.497494 150.456817,181.431579 114.004611,202.352003 Z" id="Path" fill="#F9F9F9" fill-rule="nonzero"></path>
                <polygon id="Path" fill="#EDEFF1" fill-rule="nonzero" points="114.011528 202.09932 0 138.218582 0 154.892677 29.4345703 171.511833 114.011528 218.938233 223.361228 155.757972 223.361228 139.001467"></polygon>
                <polygon id="Path" fill="#CFD8DB" fill-rule="nonzero" points="114.122259 202.20837 113.892111 202.085256 113.892111 218.80144 114.122259 218.938233 223.361228 156.013155 223.361228 139.32433"></polygon>
                <path d="M113.907003,174.708287 C74.1070327,152.500545 71.7992013,151.696213 32.0667109,129.556634 L110.870383,84.0368976 C150.508401,106.353702 152.708264,107.212565 192.400266,129.529369 L113.907003,174.708287 Z" id="Path" fill="#FCFCFC" fill-rule="nonzero"></path>
                <polygon id="Path" fill="#EDEFF1" fill-rule="nonzero" points="113.900115 174.899366 32.0667109 129.372592 32.0667109 141.249732 53.1863148 153.099724 113.91361 186.871522 192.400266 141.887704 192.400266 129.929121"></polygon>
                <polygon id="Path" fill="#CFD8DB" fill-rule="nonzero" points="114.067202 174.782355 113.892111 174.686409 113.892111 186.775577 114.067202 186.871522 192.400266 141.448053 192.400266 129.372592"></polygon>
                <path d="M114.99786,152.04044 C86.7656043,136.31482 85.7174272,135.657857 57.49893,119.973729 L112.36239,87.3541436 C140.525853,103.135087 142.121829,105.298534 170.285293,121.079477 L114.99786,152.04044 Z" id="Path" fill="#82A9FF" fill-rule="nonzero"></path>
                <polygon id="Path" fill="#6291FB" fill-rule="nonzero" opacity="0.5" points="115.063847 151.818166 57.49893 119.973729 57.49893 127.8669 72.3499973 136.299077 115.063847 160.333555 170.285293 128.310699 170.285293 121.079477"></polygon>
                <polygon id="Path" fill="#6291FB" fill-rule="nonzero" points="115.106774 151.968918 114.99786 151.968918 114.99786 160.333555 115.106774 160.333555 170.285293 128.89124 170.285293 121.079477"></polygon>
                <g id="Group-3" transform="translate(68.556416, 33.172460)" fill-rule="nonzero">
                    <polygon id="Shape" fill="#EDEFF1" points="0 28.1152656 0 86.6628849 46.8621587 113.7209 46.8621587 55.1732809"></polygon>
                    <path d="M5.5,55 C5.22385773,55 5,54.7234049 5,54.3822076 L5,40.6177924 C5,40.2765951 5.22385773,40 5.5,40 C5.77614227,40 6,40.2765951 6,40.6177924 L6,54.3822076 C6,54.7234049 5.77614227,55 5.5,55 Z" id="Shape" fill="url(#linearGradient-1)"></path>
                    <path d="M10.5,59 C10.223857,59 10,58.7232909 10,58.381953 L10,44.618047 C10,44.2767091 10.223857,44 10.5,44 C10.7761421,44 11,44.2767091 11,44.618047 L11,58.381953 C11,58.7232909 10.7761421,59 10.5,59 Z" id="Shape" fill="url(#linearGradient-2)"></path>
                    <path d="M14.5,63 C14.2238577,63 14,62.723177 14,62.3816983 L14,48.6183017 C14,48.276823 14.2238577,48 14.5,48 C14.7761423,48 15,48.276823 15,48.6183017 L15,62.3816983 C15,62.723177 14.7761423,63 14.5,63 Z" id="Shape" fill="url(#linearGradient-3)"></path>
                    <path d="M31.5,95 C31.2238579,95 31,94.7232909 31,94.381953 L31,80.618047 C31,80.2767091 31.2238579,80 31.5,80 C31.776143,80 32,80.2767091 32,80.618047 L32,94.381953 C32,94.7232909 31.776143,95 31.5,95 Z" id="Shape" fill="url(#linearGradient-4)"></path>
                    <path d="M35.5,99 C35.2238579,99 35,98.7238598 35,98.3832236 L35,84.6167763 C35,84.2761402 35.2238579,84 35.5,84 C35.776143,84 36,84.2761402 36,84.6167763 L36,98.3832236 C36,98.7238598 35.776143,99 35.5,99 Z" id="Shape" fill="url(#linearGradient-5)"></path>
                    <path d="M39.5,103 C39.2238576,103 39,102.723405 39,102.382208 L39,88.6177924 C39,88.2765951 39.2238576,88 39.5,88 C39.7761424,88 40,88.2765951 40,88.6177924 L40,102.382208 C40,102.723405 39.7761424,103 39.5,103 Z" id="Shape" fill="url(#linearGradient-1)"></path>
                    <path d="M31,73.9141912 L31,74.0866644 C30.9999589,74.4129593 31.1890225,74.7148543 31.4968551,74.8800411 C31.807255,75.0411554 32.1877966,75.0399005 32.4969168,74.8767433 C32.806037,74.7135862 32.9974692,74.412947 33,74.0866644 L33,73.9141912 C32.9974601,73.587034 32.806173,73.2854051 32.4968551,73.1208146 C32.1873567,72.9588387 31.8069123,72.9597928 31.4983907,73.1233184 C31.189868,73.286844 30.9999669,73.5881893 31,73.9141912 Z" id="Shape" fill="url(#linearGradient-6)" opacity="0.6"></path>
                    <path d="M31,68.9114633 L31,69.0837069 C30.9986825,69.4098791 31.1880849,69.711917 31.4968619,69.8760277 C31.8067448,70.0407327 32.1895097,70.0413619 32.5000404,69.8776767 C32.8105723,69.7139916 33.0013298,69.4110513 33,69.0837069 L33,68.9114633 C32.999079,68.585836 32.8070544,68.2856362 32.4968527,68.1248839 C32.1888596,67.9597899 31.8075046,67.958288 31.4979621,68.1209502 C31.1884197,68.2836123 30.9983123,68.5854133 31,68.9114633 Z" id="Shape" fill="url(#linearGradient-7)" opacity="0.6"></path>
                    <path d="M31,64.9114633 L31,65.0837069 C30.9986825,65.4098791 31.1880849,65.711917 31.4968619,65.8760276 C31.8067448,66.0407327 32.1895097,66.0413619 32.5000404,65.8776767 C32.8105723,65.7139915 33.0013298,65.4110513 33,65.0837069 L33,64.9114633 C32.999079,64.5858359 32.8070544,64.2856362 32.4968527,64.124884 C32.1888596,63.9597899 31.8075046,63.958288 31.4979621,64.1209502 C31.1884197,64.2836123 30.9983123,64.5854133 31,64.9114633 Z" id="Shape" fill="url(#linearGradient-7)" opacity="0.6"></path>
                    <polygon id="Shape" fill="url(#linearGradient-8)" points="46.8621587 55.1732809 95.5600632 27.0580151 95.5600632 85.599303 46.8621587 113.7209"></polygon>
                    <polygon id="Shape" stroke="#FFFFFF" stroke-width="0.718736664" fill="#F7F7F7" stroke-linecap="round" stroke-linejoin="round" points="46.8621587 55.1732809 -2.27373675e-13 28.1152656 48.6979045 -1.56319402e-13 95.5600632 27.0580151"></polygon>
                    <polygon id="Shape" fill="#004FFF" opacity="0.6" points="47.1280254 47.6395797 13.9706584 28.4951164 48.4320378 8.59728224 81.5894047 27.741746"></polygon>
                    <polygon id="Shape" fill="url(#linearGradient-9)" points="81.5894047 27.741746 48.4320378 8.59728224 48.3180949 11.9589589 78.6205608 29.451073"></polygon>
                    <polygon id="Shape" fill="url(#linearGradient-10)" points="48.4320378 8.59728224 13.9706584 28.4951164 16.8255595 30.141135 48.3180949 11.9589589"></polygon>
                </g>
                <line x1="103.5" y1="81.5" x2="115.401711" y2="88.9528465" id="Shape" stroke="#7DA3FF" stroke-width="1.3345007" stroke-linecap="round" stroke-linejoin="round"></line>
                <line x1="153.5" y1="54.5" x2="164.050203" y2="60.2033815" id="Shape" stroke="#7DA3FF" stroke-width="1.3345007" stroke-linecap="round" stroke-linejoin="round"></line>
                <line x1="117.209357" y1="33.1724596" x2="130.5" y2="40.5" id="Shape-Copy-7" stroke="#7DA3FF" stroke-width="1.3345007" stroke-linecap="round" stroke-linejoin="round"></line>
                <line x1="69.00125" y1="61.5493403" x2="80.5" y2="68.5" id="Shape" stroke="#7DA3FF" stroke-width="1.3345007" stroke-linecap="round" stroke-linejoin="round"></line>
                <line x1="128.5" y1="81.5" x2="115.988891" y2="88.9528465" id="Shape" stroke="#7DA3FF" stroke-width="1.3345007" stroke-linecap="round" stroke-linejoin="round"></line>
                <line x1="97.3058815" y1="137.464251" x2="115.730888" y2="148.100222" id="Shape" stroke="#7DA3FF" stroke-width="1.3345007" stroke-linecap="round" stroke-linejoin="round"></line>
                <line x1="69.00125" y1="120.580248" x2="87.0970795" y2="131.02494" id="Shape" stroke="#7DA3FF" stroke-width="1.3345007" stroke-linecap="round" stroke-linejoin="round"></line>
                <line x1="134.440588" y1="137.112833" x2="116.344758" y2="147.561973" id="Shape" stroke="#7DA3FF" stroke-width="1.3345007" stroke-linecap="round" stroke-linejoin="round"></line>
                <line x1="164.050203" y1="119.256531" x2="145.958822" y2="129.701223" id="Shape" stroke="#7DA3FF" stroke-width="1.3345007" stroke-linecap="round" stroke-linejoin="round"></line>
                <line x1="164.103583" y1="60.5948351" x2="150.5" y2="68.5" id="Shape" stroke="#7DA3FF" stroke-width="1.3345007" stroke-linecap="round" stroke-linejoin="round"></line>
                <line x1="80.5" y1="54.5" x2="69.00125" y2="61.3091302" id="Shape" stroke="#7DA3FF" stroke-width="1.3345007" stroke-linecap="round" stroke-linejoin="round"></line>
                <line x1="116.50746" y1="33.1724596" x2="104.5" y2="40.5" id="Shape-Copy-6" stroke="#7DA3FF" stroke-width="1.3345007" stroke-linecap="round" stroke-linejoin="round"></line>
                <path d="M0,158.947159 C0,158.491468 0.495060538,158.122057 1.10574869,158.122057 C1.71643677,158.122057 2.21149731,158.491468 2.21149731,158.947159 L2.21149731,159.508453 C2.21149731,159.964144 1.71643677,160.333555 1.10574869,160.333555 C0.495060538,160.333555 0,159.964144 0,159.508453 L0,158.947159 Z M0,168.898897 C0,168.443206 0.495060538,168.073795 1.10574869,168.073795 C1.71643677,168.073795 2.21149731,168.443206 2.21149731,168.898897 L2.21149731,169.460191 C2.21149731,169.915882 1.71643677,170.285293 1.10574869,170.285293 C0.495060538,170.285293 0,169.915882 0,169.460191 L0,168.898897 Z M0,176.639138 C0,176.183446 0.495060538,175.814036 1.10574869,175.814036 C1.71643677,175.814036 2.21149731,176.183446 2.21149731,176.639138 L2.21149731,177.200431 C2.21149731,177.656122 1.71643677,178.025533 1.10574869,178.025533 C0.495060538,178.025533 0,177.656122 0,177.200431 L0,176.639138 Z M0,185.485127 C0,185.029435 0.495060538,184.660025 1.10574869,184.660025 C1.71643677,184.660025 2.21149731,185.029435 2.21149731,185.485127 L2.21149731,186.046421 C2.21149731,186.502111 1.71643677,186.871522 1.10574869,186.871522 C0.495060538,186.871522 0,186.502111 0,186.046421 L0,185.485127 Z M0,194.331116 C0,193.875425 0.495060538,193.506014 1.10574869,193.506014 C1.71643677,193.506014 2.21149731,193.875425 2.21149731,194.331116 L2.21149731,194.89241 C2.21149731,195.348101 1.71643677,195.717512 1.10574869,195.717512 C0.495060538,195.717512 0,195.348101 0,194.89241 L0,194.331116 Z M0,203.177105 C0,202.721414 0.495060538,202.352003 1.10574869,202.352003 C1.71643677,202.352003 2.21149731,202.721414 2.21149731,203.177105 L2.21149731,203.738399 C2.21149731,204.19409 1.71643677,204.563501 1.10574869,204.563501 C0.495060538,204.563501 0,204.19409 0,203.738399 L0,203.177105 Z M0,210.917346 C0,210.461654 0.495060538,210.092244 1.10574869,210.092244 C1.71643677,210.092244 2.21149731,210.461654 2.21149731,210.917346 L2.21149731,211.47864 C2.21149731,211.93433 1.71643677,212.303741 1.10574869,212.303741 C0.495060538,212.303741 0,211.93433 0,211.47864 L0,210.917346 Z" id="Shape" fill="url(#linearGradient-11)" fill-rule="nonzero"></path>
                <path d="M112.786363,223.080581 C112.786363,222.62489 113.281423,222.255479 113.892111,222.255479 C114.502799,222.255479 114.99786,222.62489 114.99786,223.080581 L114.99786,223.641875 C114.99786,224.097566 114.502799,224.466977 113.892111,224.466977 C113.281423,224.466977 112.786363,224.097566 112.786363,223.641875 L112.786363,223.080581 Z M112.786363,233.032319 C112.786363,232.576628 113.281423,232.207217 113.892111,232.207217 C114.502799,232.207217 114.99786,232.576628 114.99786,233.032319 L114.99786,233.593613 C114.99786,234.049303 114.502799,234.418714 113.892111,234.418714 C113.281423,234.418714 112.786363,234.049303 112.786363,233.593613 L112.786363,233.032319 Z M112.786363,240.772559 C112.786363,240.316868 113.281423,239.947458 113.892111,239.947458 C114.502799,239.947458 114.99786,240.316868 114.99786,240.772559 L114.99786,241.333853 C114.99786,241.789544 114.502799,242.158955 113.892111,242.158955 C113.281423,242.158955 112.786363,241.789544 112.786363,241.333853 L112.786363,240.772559 Z M112.786363,249.618549 C112.786363,249.162857 113.281423,248.793447 113.892111,248.793447 C114.502799,248.793447 114.99786,249.162857 114.99786,249.618549 L114.99786,250.179842 C114.99786,250.635533 114.502799,251.004944 113.892111,251.004944 C113.281423,251.004944 112.786363,250.635533 112.786363,250.179842 L112.786363,249.618549 Z M112.786363,258.464538 C112.786363,258.008847 113.281423,257.639436 113.892111,257.639436 C114.502799,257.639436 114.99786,258.008847 114.99786,258.464538 L114.99786,259.025832 C114.99786,259.481522 114.502799,259.850933 113.892111,259.850933 C113.281423,259.850933 112.786363,259.481522 112.786363,259.025832 L112.786363,258.464538 Z" id="Shape-Copy-3" fill="url(#linearGradient-12)" fill-rule="nonzero"></path>
                <path d="M221.149731,160.052908 C221.149731,159.597217 221.644791,159.227806 222.255479,159.227806 C222.866167,159.227806 223.361228,159.597217 223.361228,160.052908 L223.361228,160.614202 C223.361228,161.069893 222.866167,161.439303 222.255479,161.439303 C221.644791,161.439303 221.149731,161.069893 221.149731,160.614202 L221.149731,160.052908 Z M221.149731,170.004646 C221.149731,169.548954 221.644791,169.179544 222.255479,169.179544 C222.866167,169.179544 223.361228,169.548954 223.361228,170.004646 L223.361228,170.565939 C223.361228,171.02163 222.866167,171.391041 222.255479,171.391041 C221.644791,171.391041 221.149731,171.02163 221.149731,170.565939 L221.149731,170.004646 Z M221.149731,177.744886 C221.149731,177.289195 221.644791,176.919784 222.255479,176.919784 C222.866167,176.919784 223.361228,177.289195 223.361228,177.744886 L223.361228,178.30618 C223.361228,178.761871 222.866167,179.131282 222.255479,179.131282 C221.644791,179.131282 221.149731,178.761871 221.149731,178.30618 L221.149731,177.744886 Z M221.149731,186.590875 C221.149731,186.135184 221.644791,185.765774 222.255479,185.765774 C222.866167,185.765774 223.361228,186.135184 223.361228,186.590875 L223.361228,187.152169 C223.361228,187.60786 222.866167,187.977271 222.255479,187.977271 C221.644791,187.977271 221.149731,187.60786 221.149731,187.152169 L221.149731,186.590875 Z M221.149731,195.436865 C221.149731,194.981173 221.644791,194.611763 222.255479,194.611763 C222.866167,194.611763 223.361228,194.981173 223.361228,195.436865 L223.361228,195.998158 C223.361228,196.453849 222.866167,196.82326 222.255479,196.82326 C221.644791,196.82326 221.149731,196.453849 221.149731,195.998158 L221.149731,195.436865 Z M221.149731,204.282854 C221.149731,203.827163 221.644791,203.457752 222.255479,203.457752 C222.866167,203.457752 223.361228,203.827163 223.361228,204.282854 L223.361228,204.844148 C223.361228,205.299838 222.866167,205.669249 222.255479,205.669249 C221.644791,205.669249 221.149731,205.299838 221.149731,204.844148 L221.149731,204.282854 Z M221.149731,212.023094 C221.149731,211.567403 221.644791,211.197993 222.255479,211.197993 C222.866167,211.197993 223.361228,211.567403 223.361228,212.023094 L223.361228,212.584388 C223.361228,213.040079 222.866167,213.40949 222.255479,213.40949 C221.644791,213.40949 221.149731,213.040079 221.149731,212.584388 L221.149731,212.023094 Z" id="Shape-Copy-4" fill="url(#linearGradient-11)" fill-rule="nonzero"></path>
                <line x1="69.00125" y1="61.8251371" x2="69.00125" y2="77.7189701" id="Shape" stroke="#7DA3FF" stroke-width="1.3345007" stroke-linecap="round" stroke-linejoin="round"></line>
                <line x1="164.16586" y1="60.3590733" x2="164.5" y2="77.5" id="Shape" stroke="#7DA3FF" stroke-width="1.3345007" stroke-linecap="round" stroke-linejoin="round"></line>
                <line x1="163.987927" y1="103.824982" x2="163.987927" y2="120.411211" id="Shape" stroke="#7DA3FF" stroke-width="1.3345007" stroke-linecap="round" stroke-linejoin="round"></line>
                <line x1="69.00125" y1="104.93073" x2="69.00125" y2="121.51696" id="Shape" stroke="#7DA3FF" stroke-width="1.3345007" stroke-linecap="round" stroke-linejoin="round"></line>
                <line x1="115.681956" y1="89.3843351" x2="115.5" y2="104.5" id="Shape" stroke="#7DA3FF" stroke-width="1.3345007" stroke-linecap="round" stroke-linejoin="round"></line>
                <line x1="115.5" y1="132.5" x2="115.681956" y2="146.949179" id="Shape-Copy-5" stroke="#7DA3FF" stroke-width="1.3345007" stroke-linecap="round" stroke-linejoin="round"></line>
                <g id="Asset-1" transform="translate(124.949598, 85.142646)" fill="#B5C4C9" fill-rule="nonzero">
                    <path d="M17.7368422,36.7802008 L13.5778829,39.1813659 C12.9034379,39.5704959 12.3547011,39.2576382 12.3547011,38.4836156 L12.3547011,36.3882459 C11.2035542,36.7081658 10.1053743,36.8197494 9.07852306,36.7208779 L7.78613121,38.9497241 C7.3094293,39.7724763 6.53328797,40.2209292 6.05658605,39.9490326 L3.11515871,38.2717481 C2.6384568,37.9998514 2.6384568,37.1100079 3.11515871,36.2872557 L4.40755056,34.0577032 C3.80514059,33.2271825 3.34821298,32.2299927 3.04947978,31.0830833 L1.22318179,32.1374773 C0.548736866,32.5266073 0,32.2137496 0,31.4397269 L0,26.6677642 C0,25.8909167 0.548736866,24.9474 1.22318179,24.5575638 L3.04524243,23.5059947 C3.3621736,21.9523938 3.816169,20.4299376 4.40190076,18.9564929 L3.11515871,18.2206064 C2.6384568,17.9487097 2.6384568,17.0581599 3.11515871,16.2354077 L6.05658605,11.1654181 C6.53328797,10.3433721 7.3094293,9.89421299 7.78613121,10.1668159 L9.06863591,10.898465 C10.0599139,9.6504163 11.1595462,8.49241107 12.3547011,7.43796226 L12.3547011,5.35812948 C12.3547011,4.58128192 12.9034379,3.63776525 13.5778829,3.24792902 L17.7368422,0.846763839 C18.4112871,0.457633834 18.960024,0.770491533 18.960024,1.54451419 L18.960024,3.61728472 C20.1161144,3.29453987 21.2199442,3.18154386 22.2510327,3.28041537 L23.5285939,1.07840566 C24.0052958,0.255653469 24.7814371,-0.192799439 25.258139,0.079803431 L28.1988601,1.75638171 C28.6755621,2.02827835 28.6755621,2.91882814 28.1988601,3.74158033 L26.9220052,5.94359005 C27.5272401,6.77764183 27.9813428,7.77977518 28.2850196,8.93374692 L30.0908371,7.89065252 C30.765282,7.50152251 31.3147251,7.81438021 31.3147251,8.58840287 L31.3147251,13.3603656 C31.3147251,14.1372131 30.765282,15.081436 30.0908371,15.470566 L28.2807822,16.5157791 C27.962,18.0725503 27.5053922,19.5978848 26.9163554,21.0737556 L28.1988601,21.8054047 C28.6755621,22.0773014 28.6755621,22.9678512 28.1988601,23.7898971 L25.258139,28.8627117 C24.7814371,29.6854639 24.0052958,30.1339168 23.5278876,29.8613139 L22.2418518,29.1275461 C21.251471,30.3724218 20.1532778,31.5275688 18.960024,32.5795741 L18.960024,34.6700003 C18.960024,35.444023 18.4112871,36.3910708 17.7368422,36.7802008 Z M8.9867138,35.1848384 C9.08429892,35.1219396 9.20025798,35.0938208 9.31581467,35.1050349 C10.4796736,35.2858285 11.7522911,35.1565894 13.0983561,34.7215547 C13.3808461,34.6311579 13.5778829,34.8006519 13.5778829,35.1297528 L13.5778829,37.7773905 L17.7368422,35.3762254 L17.7368422,32.732825 C17.7368422,32.4030179 17.9367039,32.0025883 18.2170752,31.7702402 C19.6249598,30.5880387 20.8956505,29.251492 22.0052664,27.7857185 C22.2467954,27.4693297 22.5631842,27.325966 22.7658708,27.4417869 L24.3901884,28.3697666 L27.3309096,23.296952 L25.7065919,22.3717972 C25.5031991,22.2559763 25.4685941,21.9120447 25.6232574,21.5448077 C26.3453689,19.8566579 26.8737053,18.0920616 27.1981392,16.2848435 C27.2595808,15.9274936 27.508172,15.555313 27.7948994,15.3900564 L30.0865997,14.0665906 L30.0865997,9.29462792 L27.7984305,10.615975 C27.5109969,10.7819379 27.2631119,10.6957784 27.2009641,10.4097573 C26.9036434,9.03049975 26.3746808,7.86734709 25.6289072,6.9598479 C25.4749501,6.77128581 25.5095551,6.3878056 25.7122417,6.04175533 L27.3309096,3.24863524 L24.3930133,1.57135074 L22.775758,4.36164593 C22.5730714,4.71122733 22.2559763,4.93368822 22.0144474,4.89625829 C20.8463511,4.71475845 19.56879,4.84611631 18.2170752,5.28468207 C17.9345852,5.3757851 17.7368422,5.20629109 17.7368422,4.87648399 L17.7368422,2.25073924 L13.5778829,4.65190442 L13.5778829,7.28188652 C13.5778829,7.6109874 13.3787274,8.01071078 13.0983561,8.24376504 C11.6883326,9.42901287 10.4163963,10.7694143 9.30663375,12.2395864 C9.06510478,12.5566814 8.74800973,12.7000451 8.54461692,12.5842242 L6.92029929,11.6590694 L3.9802844,16.7311777 L5.60460202,17.6591574 C5.80728861,17.7742721 5.84189364,18.1174975 5.68793658,18.4840283 C4.9702946,20.1699317 4.44576248,21.9316394 4.12435431,23.7355178 C4.06291273,24.0928677 3.81432151,24.4657545 3.52759414,24.6310112 L1.22318179,25.9615392 L1.22318179,30.7335019 L3.53112526,29.4015614 C3.81855886,29.2363047 4.06644386,29.321758 4.12859166,29.6070729 C4.42661863,30.9799744 4.95416875,32.1353586 5.6971175,33.0414453 C5.85178079,33.2300074 5.81717576,33.6134876 5.61378295,33.9637752 L3.9802844,36.7802008 L6.92100552,38.456779 L8.55450407,35.6403535 C8.65744339,35.4541945 8.80621244,35.2974036 8.9867138,35.1848384 Z" id="Shape"></path>
                    <path d="M15.6570094,30.2560937 C13.3702527,31.5760283 11.0842022,31.8973607 9.34335745,30.9051145 C5.86166794,28.9199159 5.86166794,22.4191143 9.34335745,16.4140827 C10.7473329,13.9917307 12.5277262,11.9563901 14.4924443,10.5269906 C16.3943084,9.14349576 18.357614,8.44221428 20.0221865,8.54956049 C20.3166823,8.56862857 20.4212036,8.9358656 20.2566532,9.36948778 C20.0921028,9.80310996 19.7185097,10.1413918 19.421189,10.1216175 C16.4289134,9.92387444 12.6414284,12.712051 10.2084831,16.9070278 C7.20349554,22.0893072 7.20349554,27.699559 10.2084831,29.412861 C11.7106238,30.269512 13.6838166,29.9919656 15.6570094,28.8528245 C17.6302022,27.7136835 19.6041012,25.7122417 21.1062419,23.121102 C23.4558527,19.0687827 24.0370759,14.6322769 22.5540033,12.0806858 C22.4028711,11.8207949 22.5250481,11.3285561 22.8273124,10.9810933 C23.1295767,10.6336306 23.4968137,10.5623019 23.6479459,10.8214865 C25.3668977,13.7777446 24.693159,18.9190629 21.9713676,23.6140471 C20.2305229,26.6162098 17.9437661,28.9354529 15.6570094,30.2560937 Z" id="Path"></path>
                    <path d="M21.6726344,9.57853039 C21.5109089,9.6717521 21.3534207,9.68799528 21.2390122,9.62302257 C21.1246038,9.55804987 21.0610435,9.41468618 21.0610435,9.22965522 C21.0685651,9.01815785 21.1298118,8.81205786 21.2390122,8.63077637 C21.3427981,8.44477918 21.4919705,8.28807523 21.6726344,8.17526121 C21.8329475,8.08203951 21.9911419,8.06579633 22.1048442,8.13076903 C22.2185464,8.19574174 22.2842253,8.34263655 22.2842253,8.52343016 C22.2761482,8.73525379 22.2144266,8.94155952 22.1048442,9.12301523 C22.0013291,9.3087518 21.8526837,9.46541232 21.6726344,9.57853039 L21.6726344,9.57853039 Z" id="Path"></path>
                    <path d="M14.7940024,25.6825803 C14.6315706,25.7765082 14.4762011,25.7920452 14.3617927,25.7270725 L10.4937981,23.5215316 C10.255094,23.3852302 10.255094,22.9410146 10.4937981,22.5285792 L12.6873331,18.7446254 C12.790893,18.5588797 12.9398341,18.4024065 13.120249,18.2898164 C13.2819746,18.1958885 13.4380503,18.1803515 13.5524588,18.2453242 L14.7940024,18.9515493 L17.7601476,13.8321239 C17.9988517,13.4203947 18.385863,13.1965213 18.6245671,13.3328228 L20.8188083,14.5835473 C21.0575124,14.7198488 21.0575124,15.1640643 20.8188083,15.5764998 L15.2269184,25.2270651 C15.1237823,25.4133098 14.9747626,25.5701086 14.7940024,25.6825803 L14.7940024,25.6825803 Z M11.7939584,22.2764568 L14.7968273,23.9883464 L19.5285352,15.831447 L18.2001258,15.0736675 L15.2339806,20.1923867 C15.1304418,20.3783356 14.981509,20.535043 14.8010647,20.6479019 C14.6386329,20.7418298 14.4832634,20.7573668 14.3688549,20.6916878 L13.1273113,19.9854628 L11.7939584,22.2764568 Z" id="Shape"></path>
                </g>
                <g id="Group" opacity="0.3" transform="translate(65.239171, 0.000000)" fill="url(#linearGradient-14)" fill-rule="nonzero">
                    <polygon id="Shape" points="17.0994166 61.5371284 50.2137203 80.7196517 84.6294594 60.7827391 101.728876 0 0 0"></polygon>
                </g>
                <g id="Group" opacity="0.3" transform="translate(116.103609, 2.211497)" fill="url(#linearGradient-16)" fill-rule="nonzero">
                    <polygon id="Shape" points="0 78.5081544 0 1.80320946 50.864438 0 33.7253339 58.6046786"></polygon>
                </g>
            </g>
        </g>
    </g>
</svg>