<?xml version="1.0" encoding="UTF-8"?>
<svg width="266px" height="266px" viewBox="0 0 266 266" version="1.1" xmlns="http://www.w3.org/2000/svg" xmlns:xlink="http://www.w3.org/1999/xlink">
    <!-- Generator: Sketch 63.1 (92452) - https://sketch.com -->
    <title>ServicesList_desktop Copy 6</title>
    <desc>Created with Sketch.</desc>
    <defs>
        <linearGradient x1="141.250553%" y1="69.579731%" x2="31.1552405%" y2="37.0142155%" id="linearGradient-1">
            <stop stop-color="#6291FB" offset="0%"></stop>
            <stop stop-color="#6392FB" stop-opacity="0.99" offset="1%"></stop>
            <stop stop-color="#9AB8FC" stop-opacity="0.64" offset="29%"></stop>
            <stop stop-color="#C5D6FE" stop-opacity="0.37" offset="55%"></stop>
            <stop stop-color="#E4ECFE" stop-opacity="0.17" offset="75%"></stop>
            <stop stop-color="#F8FAFF" stop-opacity="0.05" offset="91%"></stop>
            <stop stop-color="#FFFFFF" stop-opacity="0" offset="100%"></stop>
        </linearGradient>
        <linearGradient x1="90.5182595%" y1="155.394541%" x2="52.1142917%" y2="0.229528536%" id="linearGradient-2">
            <stop stop-color="#6291FB" offset="0%"></stop>
            <stop stop-color="#6392FB" stop-opacity="0.99" offset="1%"></stop>
            <stop stop-color="#9AB8FC" stop-opacity="0.64" offset="29%"></stop>
            <stop stop-color="#C5D6FE" stop-opacity="0.37" offset="55%"></stop>
            <stop stop-color="#E4ECFE" stop-opacity="0.17" offset="75%"></stop>
            <stop stop-color="#F8FAFF" stop-opacity="0.05" offset="91%"></stop>
            <stop stop-color="#FFFFFF" stop-opacity="0" offset="100%"></stop>
        </linearGradient>
        <linearGradient x1="-52.4465676%" y1="55.7038939%" x2="90.1376287%" y2="46.3896711%" id="linearGradient-3">
            <stop stop-color="#6291FB" offset="0%"></stop>
            <stop stop-color="#6392FB" stop-opacity="0.99" offset="1%"></stop>
            <stop stop-color="#9AB8FC" stop-opacity="0.64" offset="29%"></stop>
            <stop stop-color="#C5D6FE" stop-opacity="0.37" offset="55%"></stop>
            <stop stop-color="#E4ECFE" stop-opacity="0.17" offset="75%"></stop>
            <stop stop-color="#F8FAFF" stop-opacity="0.05" offset="91%"></stop>
            <stop stop-color="#FFFFFF" stop-opacity="0" offset="100%"></stop>
        </linearGradient>
        <linearGradient x1="42.5543781%" y1="69.0891042%" x2="52.0356944%" y2="35.0906644%" id="linearGradient-4">
            <stop stop-color="#6291FB" offset="0%"></stop>
            <stop stop-color="#6392FB" stop-opacity="0.99" offset="1%"></stop>
            <stop stop-color="#9AB8FC" stop-opacity="0.64" offset="29%"></stop>
            <stop stop-color="#C5D6FE" stop-opacity="0.37" offset="55%"></stop>
            <stop stop-color="#E4ECFE" stop-opacity="0.17" offset="75%"></stop>
            <stop stop-color="#F8FAFF" stop-opacity="0.05" offset="91%"></stop>
            <stop stop-color="#FFFFFF" stop-opacity="0" offset="100%"></stop>
        </linearGradient>
    </defs>
    <g id="Services" stroke="none" stroke-width="1" fill="none" fill-rule="evenodd">
        <g id="ServicesList_desktop-Copy" transform="translate(-128.000000, -1873.000000)">
            <rect fill="#FFFFFF" x="0" y="0" width="1400" height="2351"></rect>
            <g id="ai-ml-development" transform="translate(159.000000, 1888.000000)" fill-rule="nonzero">
                <polygon id="Path" fill="#F9F9F9" points="119.125433 219.350237 0 153.467361 78.7386554 108.436224 197.552869 174.65426"></polygon>
                <polygon id="Path" fill="url(#linearGradient-1)" points="120.813203 138.744262 197.481049 174.65426 159.655851 116.599763"></polygon>
                <path d="M119.113463,219.493877 C100.831284,187.334479 82.5331452,155.175081 64.2190463,123.015683 L136.039042,147.841461 C130.413142,171.7256 124.771283,195.609739 119.113463,219.493877 Z" id="Path" fill="url(#linearGradient-2)"></path>
                <polygon id="Path" fill="#EDEFF1" points="119.125433 219.314327 0 153.431451 0 165.07826 58.4614766 197.672569 119.125433 231.188567 197.552869 186.504559 197.552869 174.65426"></polygon>
                <polygon id="Path" fill="#CFD8DB" points="119.053613 219.362207 118.886033 219.278417 118.886033 231.152657 119.053613 231.248417 197.481049 186.624259 197.481049 174.65426"></polygon>
                <polygon id="Path" fill="url(#linearGradient-3)" points="60.6878965 105.120534 0 153.431451 119.699993 137.750752"></polygon>
                <circle id="Oval" fill="#6291FB" cx="139.761712" cy="120.011213" r="1"></circle>
                <circle id="Oval" fill="#6291FB" cx="144.322282" cy="117.473573" r="1"></circle>
                <path d="M148.894821,115.761863 C148.578003,115.766701 148.289898,115.578932 148.166412,115.28713 C148.042925,114.995328 148.108727,114.65779 148.332778,114.43374 C148.556828,114.209689 148.894366,114.143887 149.186168,114.267374 C149.47797,114.39086 149.665739,114.678965 149.660901,114.995783 C149.660901,115.19896 149.58019,115.393816 149.436522,115.537484 C149.292854,115.681152 149.097998,115.761863 148.894821,115.761863 Z" id="Path" fill="#6291FB"></path>
                <polygon id="Path" fill="url(#linearGradient-4)" points="61.5257964 66.8404761 78.1162155 82.9760352 104.450214 65.7272662"></polygon>
                <path d="M90.2298548,49.0410872 C89.654711,49.0410872 89.1884648,48.574841 89.1884648,47.9996972 C89.1884648,47.4245534 89.654711,46.9583073 90.2298548,46.9583073 C90.8049986,46.9583073 91.2712447,47.4245534 91.2712447,47.9996972 C91.2712447,48.574841 90.8049986,49.0410872 90.2298548,49.0410872 Z" id="Path" fill="#6291FB"></path>
                <circle id="Oval" fill="#6291FB" cx="94.7904245" cy="45.4141774" r="1.01744994"></circle>
                <path d="M99.3509942,43.8341375 C98.9432325,43.8341086 98.5758635,43.5878159 98.4209618,43.2106221 C98.2660601,42.8334284 98.3543014,42.4000307 98.6443539,42.1134313 C98.9344063,41.8268319 99.3688296,41.743787 99.7441413,41.9031947 C100.119453,42.0626025 100.361328,42.4328947 100.356474,42.8406275 C100.349919,43.3912585 99.9016643,43.8341765 99.3509942,43.8341375 L99.3509942,43.8341375 Z" id="Path" fill="#6291FB"></path>
                <path d="M103.911564,41.2366476 C103.376085,41.2366476 102.941994,40.8025564 102.941994,40.2670777 C102.941994,39.731599 103.376085,39.2975077 103.911564,39.2975077 C104.447043,39.2975077 104.881134,39.731599 104.881134,40.2670777 C104.881134,40.5242236 104.778983,40.7708375 104.597153,40.9526671 C104.415324,41.1344968 104.16871,41.2366476 103.911564,41.2366476 Z" id="Path" fill="#6291FB"></path>
                <path d="M108.448194,38.6271878 C108.068428,38.6320261 107.723577,38.40634 107.576004,38.0563871 C107.42843,37.7064341 107.507546,37.3019627 107.776102,37.0334063 C108.044659,36.7648499 108.44913,36.6857339 108.799083,36.8333077 C109.149036,36.9808815 109.374722,37.3257325 109.369884,37.7054978 C109.369884,38.2145331 108.957229,38.6271878 108.448194,38.6271878 Z" id="Path" fill="#6291FB"></path>
                <path d="M113.032703,36.0296979 C112.53689,36.0296979 112.134954,35.6277616 112.134954,35.131948 C112.134954,34.6361344 112.53689,34.234198 113.032703,34.234198 C113.528517,34.234198 113.930453,34.6361344 113.930453,35.131948 C113.930453,35.6277616 113.528517,36.0296979 113.032703,36.0296979 Z" id="Path" fill="#6291FB"></path>
                <path d="M126.798203,85.717165 L126.798203,71.0898259 L116.480063,61.7173164 C115.787555,58.605707 114.879637,55.5459861 113.762873,52.560267 L118.945883,44.7558274 L109.932474,29.1948283 L100.536024,29.8172683 C98.5025992,27.3629646 96.3029176,25.0512992 93.9525246,22.8986087 L90.9719947,9.28871946 L78.2359155,1.93913989 L71.3411959,6.15257964 L75.2075056,12.0657593 C73.0577774,11.5198617 70.839994,11.2900186 68.624006,11.3834693 L59.2155866,8.50519605e-15 L50.2141471,5.1351297 L55.4450368,18.9245689 C54.2501953,20.7752454 53.3346283,22.7919128 52.7278469,24.9095686 L42.3977375,22.3838987 L35.4311979,26.5973385 L52.7278469,46.3717773 C53.4180291,49.4722529 54.3260115,52.5201937 55.4450368,55.4929168 L50.2620271,63.3332663 L59.2634666,78.8942654 L68.671886,78.3675855 C70.7012981,80.825382 72.8969648,83.1410304 75.2434156,85.2982151 L84.0293951,110.219754 L90.9719947,106.209804 L93.9525246,96.0951544 C96.1037998,96.6315739 98.3207818,96.857303 100.536024,96.7654744 L109.932474,108.148944 L118.945883,103.013814 L113.762873,89.1525548 C114.955131,87.3004686 115.87052,85.2841934 116.480063,83.1675552 L119.807723,89.7151448 L126.798203,85.717165 Z M84.6039551,71.4608959 C76.2249556,66.6130461 69.414026,54.8944168 69.414026,45.2705374 C69.414026,35.6466579 76.2129856,31.7803482 84.6039551,36.6162279 C92.9949246,41.4521076 99.7819142,53.1827069 99.7819142,62.8065864 C99.7819142,72.4304658 92.9829546,76.2967756 84.6039551,71.4608959 Z" id="Shape" fill="#6A98FF"></path>
                <path d="M155.741661,139.019572 L155.741661,131.837572 L150.630471,127.193213 C150.286205,125.655155 149.834221,124.143207 149.277861,122.668553 L151.851411,118.814213 L147.386601,111.105534 L142.730272,111.368874 C141.722312,110.156615 140.634618,109.012937 139.474432,107.945454 L137.990152,101.218314 L131.681962,97.6273143 L128.294453,99.7100942 L130.209652,102.642744 C129.142674,102.371593 128.041648,102.258667 126.941843,102.307584 L122.285513,96.6697144 L117.820703,99.2073542 L120.394253,106.042224 C119.801723,106.956579 119.346035,107.952639 119.041643,108.998814 L113.930453,107.801814 L110.483094,109.896564 L119.041643,119.688023 C119.385909,121.226081 119.837893,122.738029 120.394253,124.212683 L117.820703,127.971263 L122.285513,135.667972 L126.941843,135.404632 C127.949802,136.616891 129.037496,137.760569 130.197682,138.828052 L134.554762,151.181091 L137.990152,149.194071 L139.474432,144.178642 C140.53727,144.450169 141.634406,144.56311 142.730272,144.513802 L147.386601,150.151671 L151.851411,147.614031 L149.277861,140.779162 C149.870392,139.864807 150.326079,138.868747 150.630471,137.822572 L152.282331,141.066442 L155.741661,139.019572 Z M134.842042,131.957272 C130.407053,129.079963 127.610238,124.260016 127.312913,118.981793 C127.312913,114.193793 130.688452,112.302533 134.842042,114.696533 C139.273914,117.57514 142.066488,122.395444 142.359202,127.672013 C142.359202,132.436072 138.995632,134.351272 134.842042,131.957272 L134.842042,131.957272 Z" id="Shape" fill="#6595FF"></path>
                <path d="M119.855603,89.6672648 L119.855603,75.0997756 L110.279604,65.7990862 C109.43512,62.5756298 108.375392,59.4124415 107.107554,56.3308167 L112.039194,48.8016872 L103.025784,33.2406881 L93.6293346,33.767368 C91.5990671,31.3065242 89.3992017,28.9906659 87.045835,26.8367384 L84.0293951,13.2986692 L71.3411959,5.94908966 L68.360666,16.0637391 C66.2026138,15.5463039 63.9815588,15.3407253 61.7651964,15.4532691 L52.356777,4.06979976 L43.3553375,9.20492947 L48.5383472,22.9823987 C47.3445755,24.833659 46.4290824,26.8501636 45.8211573,28.9673983 L35.4311979,26.3699085 L35.4311979,40.9972476 L45.7493373,50.3697571 C46.4378127,53.470676 47.3458307,56.5187364 48.4665272,59.4908966 L43.3194275,67.2833661 L52.320867,82.8443652 L61.7651964,82.3057152 C63.7986214,84.7600189 65.998303,87.0716843 68.348696,89.2243748 L71.3411959,102.834264 L84.0772751,110.195814 L87.057805,100.069194 C89.2075332,100.615092 91.4253166,100.844935 93.6413046,100.751484 L103.037754,112.134954 L112.039194,106.951944 L106.820274,93.1625046 C108.011033,91.309602 108.926319,89.2935524 109.537464,87.1775049 L119.855603,89.6672648 Z M77.6613555,75.4708456 C69.282356,70.6828459 62.4833964,58.9043666 62.4833964,49.2804871 C62.4833964,39.6566077 69.270386,35.8022679 77.6613555,40.5902676 C86.052325,45.3782674 92.8871946,57.1926567 92.8871946,66.8165361 C92.8871946,76.4404156 86.040355,80.3067253 77.6613555,75.4708456 Z" id="Shape" fill="#D5E1FB"></path>
                <path d="M152.354151,141.138262 L152.354151,133.956262 L147.566151,129.347813 C147.146319,127.751219 146.622511,126.183793 145.998082,124.655573 L148.392081,120.932903 L143.927272,113.236193 L139.270942,113.487563 C138.266222,112.272428 137.178325,111.128536 136.015102,110.064144 L134.542792,103.348974 L128.222633,99.7579742 L126.750323,104.773404 C125.686257,104.508827 124.590134,104.395991 123.494483,104.438244 L118.909973,98.6447643 L114.433193,101.194374 L116.994773,108.017274 C116.39562,108.933871 115.935755,109.934279 115.630193,110.985834 L110.519004,109.788834 L110.519004,116.970833 L115.630193,121.615193 C115.970365,123.149086 116.418358,124.657061 116.970833,126.127883 L114.433193,129.994192 L118.886033,137.690902 L123.554333,137.427562 C124.552612,138.652117 125.640916,139.800438 126.810173,140.862952 L128.282483,147.578121 L134.602642,151.228971 L136.074952,146.213542 C137.138906,146.478754 138.23512,146.5916 139.330792,146.548702 L143.987122,152.186571 L148.451931,149.636961 L145.890352,142.814062 C146.481133,141.896044 146.9329,140.895702 147.230991,139.845502 L152.354151,141.138262 Z M131.454532,134.075962 C127.024506,131.201178 124.231911,126.385285 123.937373,121.112453 C123.937373,116.324453 127.300943,114.421223 131.454532,116.815223 C135.883519,119.69657 138.675167,124.515273 138.971692,129.790702 C138.971692,134.518852 135.608122,136.446022 131.454532,134.040052 L131.454532,134.075962 Z" id="Shape" fill="#D5E1FB"></path>
                <path d="M8.18747953,95.6522645 C8.12798189,95.6522645 8.07974953,95.6040321 8.07974953,95.5445345 C8.07974953,95.4850368 8.12798189,95.4368045 8.18747953,95.4368045 C8.24697716,95.4368045 8.29520952,95.4850368 8.29520952,95.5445345 C8.29520952,95.5731062 8.28385943,95.6005078 8.26365613,95.6207111 C8.24345284,95.6409144 8.2160513,95.6522645 8.18747953,95.6522645 L8.18747953,95.6522645 Z" id="Path" fill="#6291FB"></path>
                <path d="M12.7480493,93.0906846 C12.6137648,93.0908369 12.5030737,92.9854168 12.4966793,92.8512846 C12.5027431,92.7150475 12.6118122,92.6059785 12.7480493,92.5999146 C12.8821815,92.606309 12.9876016,92.7170001 12.9874492,92.8512846 C12.9874492,92.9835016 12.8802662,93.0906846 12.7480493,93.0906846 L12.7480493,93.0906846 Z" id="Path" fill="#6291FB"></path>
                <path d="M17.308619,90.5051648 C17.1613094,90.5099984 17.0260042,90.4243282 16.9673754,90.289102 C16.9087465,90.1538758 16.9387005,89.9965556 17.0429201,89.8923359 C17.1471398,89.7881162 17.30446,89.7581623 17.4396862,89.8167911 C17.5749125,89.87542 17.6605827,90.0107252 17.655749,90.1580348 C17.655749,90.3497494 17.5003336,90.5051648 17.308619,90.5051648 L17.308619,90.5051648 Z" id="Path" fill="#6291FB"></path>
                <path d="M21.8572187,87.9196449 C21.5993957,87.9196449 21.3903888,87.710638 21.3903888,87.4528149 C21.3903888,87.1949919 21.5993957,86.985985 21.8572187,86.985985 C22.1150418,86.985985 22.3240487,87.1949919 22.3240487,87.4528149 C22.3273786,87.577617 22.2792649,87.6983015 22.1909851,87.7865813 C22.1027053,87.8748611 21.9820208,87.9229748 21.8572187,87.9196449 L21.8572187,87.9196449 Z" id="Path" fill="#6291FB"></path>
                <path d="M26.4177885,85.3221551 C26.1070786,85.3221551 25.8551985,85.0702749 25.8551985,84.7595651 C25.8551985,84.4488552 26.1070786,84.1969751 26.4177885,84.1969751 C26.7284983,84.1969751 26.9803784,84.4488552 26.9803784,84.7595651 C26.9803784,85.0702749 26.7284983,85.3221551 26.4177885,85.3221551 L26.4177885,85.3221551 Z" id="Path" fill="#6291FB"></path>
                <circle id="Oval" fill="#6291FB" cx="30.9783582" cy="82.0902552" r="1"></circle>
                <path d="M35.5389279,80.1511154 C35.2414787,80.1559529 34.9708346,79.9798506 34.8547597,79.7059417 C34.7386847,79.4320327 34.8003901,79.11509 35.0107464,78.9047338 C35.2211026,78.6943776 35.5380453,78.6326722 35.8119542,78.7487471 C36.0858631,78.864822 36.2619654,79.1354661 36.2571279,79.4329154 C36.2571279,79.6233939 36.1814606,79.8060708 36.046772,79.9407595 C35.9120834,80.0754481 35.7294064,80.1511154 35.5389279,80.1511154 L35.5389279,80.1511154 Z" id="Path" fill="#6291FB"></path>
                <circle id="Oval" fill="#6291FB" cx="40.0994977" cy="76.7636056" r="1"></circle>
                <path d="M44.6480974,74.9681057 C44.1869537,74.9615172 43.8178285,74.5835096 43.8222052,74.1223396 C43.8265819,73.6611696 44.2028148,73.2902356 44.6640005,73.2923911 C45.1251862,73.2945653 45.4979203,73.6690149 45.4979674,74.1302057 C45.4914218,74.5948947 45.1128325,74.9681518 44.6480974,74.9681057 Z" id="Path" fill="#6291FB"></path>
                <path d="M49.2086671,72.3706158 C48.8444789,72.3705834 48.5163948,72.1505359 48.3781708,71.8135978 C48.2399468,71.4766598 48.318974,71.0896007 48.5782165,70.8338147 C48.837459,70.5780288 49.225544,70.5042039 49.5605964,70.6469379 C49.8956488,70.7896719 50.1112729,71.1206799 50.1064171,71.4848359 C50.0998681,71.9759686 49.6998435,72.3706595 49.2086671,72.3706158 L49.2086671,72.3706158 Z" id="Path" fill="#6291FB"></path>
                <path d="M53.7692369,69.785096 C53.2535907,69.785096 52.8355769,69.3670822 52.8355769,68.851436 C52.8355769,68.3357899 53.2535907,67.9177761 53.7692369,67.9177761 C54.284883,67.9177761 54.7028968,68.3357899 54.7028968,68.851436 C54.7028968,69.099058 54.6045294,69.3365381 54.4294342,69.5116333 C54.254339,69.6867285 54.0168589,69.785096 53.7692369,69.785096 L53.7692369,69.785096 Z" id="Path" fill="#6291FB"></path>
                <circle id="Oval" fill="#6291FB" cx="58.3298066" cy="66.2300062" r="1"></circle>
                <path d="M62.8903764,64.6020863 C62.4815595,64.6069248 62.1105184,64.363739 61.9518276,63.9869475 C61.7931368,63.610156 61.8783977,63.1747924 62.1674951,62.885695 C62.4565925,62.5965976 62.891956,62.5113368 63.2687475,62.6700276 C63.645539,62.8287184 63.8887249,63.1997595 63.8838863,63.6085763 C63.8838863,64.1572767 63.4390767,64.6020863 62.8903764,64.6020863 Z" id="Path" fill="#6291FB"></path>
                <path d="M67.4389761,62.0165664 C67.0215314,62.0165382 66.6454324,61.7644132 66.4868247,61.3782737 C66.3282169,60.9921343 66.4185059,60.5484392 66.715405,60.2549924 C67.0123041,59.9615456 67.4570249,59.876452 67.8412829,60.039565 C68.2255409,60.202678 68.47325,60.5817 68.468396,60.9991165 C68.4684149,61.2710478 68.359578,61.5316708 68.1661723,61.7228275 C67.9727667,61.9139843 67.7108886,62.0197656 67.4389761,62.0165664 L67.4389761,62.0165664 Z" id="Path" fill="#6291FB"></path>
                <path d="M71.9995458,59.4310466 C71.424402,59.4310466 70.9581559,58.9648004 70.9581559,58.3896566 C70.9581559,57.8145128 71.424402,57.3482667 71.9995458,57.3482667 C72.5746896,57.3482667 73.0409358,57.8145128 73.0409358,58.3896566 C73.0441779,58.6668316 72.9355018,58.9336011 72.7394961,59.1296069 C72.5434903,59.3256126 72.2767208,59.4342887 71.9995458,59.4310466 L71.9995458,59.4310466 Z" id="Path" fill="#6291FB"></path>
                <path d="M76.5601156,56.8335567 C75.9783609,56.8335567 75.5067556,56.3619514 75.5067556,55.7801968 C75.5067556,55.1984421 75.9783609,54.7268368 76.5601156,54.7268368 C77.1418702,54.7268368 77.6134755,55.1984421 77.6134755,55.7801968 C77.6167169,56.0605463 77.5067794,56.3303599 77.308529,56.5286103 C77.1102787,56.7268606 76.8404651,56.8367981 76.5601156,56.8335567 L76.5601156,56.8335567 Z" id="Path" fill="#6291FB"></path>
                <path d="M81.1206853,54.2480369 C80.5323198,54.2480369 80.0553554,53.7710724 80.0553554,53.1827069 C80.0553554,52.5943414 80.5323198,52.117377 81.1206853,52.117377 C81.7090508,52.117377 82.1860152,52.5943414 82.1860152,53.1827069 C82.1860152,53.7710724 81.7090508,54.2480369 81.1206853,54.2480369 L81.1206853,54.2480369 Z" id="Path" fill="#6291FB"></path>
                <path d="M85.705195,51.638577 C85.2770107,51.6434157 84.8885098,51.3885635 84.7224077,50.9938797 C84.5563055,50.5991959 84.645663,50.1432377 84.9484543,49.8404464 C85.2512457,49.537655 85.7072039,49.4482976 86.1018877,49.6143997 C86.4965715,49.7805018 86.7514237,50.1690028 86.746585,50.5971871 C86.746585,51.1723308 86.2803388,51.638577 85.705195,51.638577 Z" id="Path" fill="#6291FB"></path>
                <circle id="Oval" fill="#6291FB" cx="117.581303" cy="32.5823381" r="1"></circle>
                <path d="M122.141873,30.8227482 C121.712168,30.8227482 121.363823,30.4744034 121.363823,30.0446983 C121.363823,29.6149931 121.712168,29.2666483 122.141873,29.2666483 C122.571578,29.2666483 122.919923,29.6149931 122.919923,30.0446983 C122.919923,30.4744034 122.571578,30.8227482 122.141873,30.8227482 Z" id="Path" fill="#6291FB"></path>
                <circle id="Oval" fill="#6291FB" cx="126.702443" cy="27.4950884" r="1"></circle>
                <path d="M131.263012,25.6157985 C130.99946,25.6206356 130.759373,25.464951 130.656269,25.2223553 C130.553164,24.9797595 130.607701,24.6988587 130.794092,24.5124677 C130.980483,24.3260767 131.261383,24.2715406 131.503979,24.3746449 C131.746575,24.4777493 131.902259,24.7178362 131.897422,24.9813886 C131.891041,25.3290859 131.61071,25.6094171 131.263012,25.6157985 L131.263012,25.6157985 Z" id="Path" fill="#6291FB"></path>
                <circle id="Oval" fill="#6291FB" cx="135.823582" cy="22.4557187" r="1"></circle>
                <path d="M140.384152,20.4088488 C140.13294,20.4088488 139.929292,20.2052011 139.929292,19.9539888 C139.929292,19.7027766 140.13294,19.4991289 140.384152,19.4991289 C140.635364,19.4991289 140.839012,19.7027766 140.839012,19.9539888 C140.839012,20.2052011 140.635364,20.4088488 140.384152,20.4088488 L140.384152,20.4088488 Z" id="Path" fill="#6291FB"></path>
                <path d="M144.932752,17.847269 C144.762492,17.8157891 144.63894,17.6672992 144.63894,17.494154 C144.63894,17.3210088 144.762492,17.1725189 144.932752,17.141039 C145.074415,17.1148463 145.21802,17.1758513 145.297517,17.2959964 C145.377015,17.4161416 145.377015,17.5721664 145.297517,17.6923115 C145.21802,17.8124567 145.074415,17.8734617 144.932752,17.847269 L144.932752,17.847269 Z" id="Path" fill="#6291FB"></path>
                <circle id="Oval" fill="#6291FB" cx="149.493321" cy="14.9624991" r="1"></circle>
                <path d="M154.053891,12.6044093 C153.994393,12.6044093 153.946161,12.5561769 153.946161,12.4966793 C153.946161,12.4371816 153.994393,12.3889493 154.053891,12.3889493 C154.113389,12.3889493 154.161621,12.4371816 154.161621,12.4966793 C154.161621,12.5561769 154.113389,12.6044093 154.053891,12.6044093 L154.053891,12.6044093 Z" id="Path" fill="#6291FB"></path>
                <path d="M98.6447643,144.346222 C98.5852666,144.346222 98.5370343,144.297989 98.5370343,144.238492 C98.5370343,144.178994 98.5852666,144.130762 98.6447643,144.130762 C98.7042619,144.130762 98.7524943,144.178994 98.7524943,144.238492 C98.7524943,144.267063 98.7411442,144.294465 98.7209409,144.314668 C98.7007376,144.334872 98.6733361,144.346222 98.6447643,144.346222 L98.6447643,144.346222 Z" id="Path" fill="#6291FB"></path>
                <path d="M103.217304,141.760702 C103.057511,141.788413 102.896518,141.718607 102.807527,141.583026 C102.718537,141.447445 102.718537,141.271969 102.807527,141.136388 C102.896518,141.000807 103.057511,140.931001 103.217304,140.958712 C103.412332,140.992533 103.554745,141.161768 103.554745,141.359707 C103.554745,141.557645 103.412332,141.726881 103.217304,141.760702 Z" id="Path" fill="#6291FB"></path>
                <path d="M107.777874,139.163212 C107.529883,139.163164 107.306563,139.013099 107.212819,138.78351 C107.119074,138.55392 107.173535,138.290433 107.350619,138.116822 C107.527702,137.94321 107.792215,137.893977 108.019904,137.99225 C108.247593,138.090522 108.393206,138.316769 108.388344,138.564712 C108.388376,138.72554 108.323679,138.879613 108.208836,138.992204 C108.093994,139.104795 107.93867,139.166428 107.777874,139.163212 Z" id="Path" fill="#6291FB"></path>
                <circle id="Oval" fill="#6291FB" cx="112.350413" cy="135.799642" r="1"></circle>
                <path d="M116.910983,133.956262 C116.541953,133.95623 116.209504,133.733267 116.069427,133.391856 C115.92935,133.050445 116.009401,132.658237 116.272067,132.399027 C116.534733,132.139818 116.927966,132.064968 117.267492,132.209555 C117.607018,132.354142 117.825559,132.689514 117.820703,133.058512 C117.814153,133.556256 117.40877,133.956305 116.910983,133.956262 L116.910983,133.956262 Z" id="Path" fill="#6291FB"></path>
                <path d="M121.483523,131.406652 C120.941433,131.406652 120.501983,130.967202 120.501983,130.425112 C120.501983,129.883023 120.941433,129.443572 121.483523,129.443572 C122.025613,129.443572 122.465063,129.883023 122.465063,130.425112 C122.465063,130.967202 122.025613,131.406652 121.483523,131.406652 L121.483523,131.406652 Z" id="Path" fill="#6291FB"></path>
                <circle id="Oval" fill="#6291FB" cx="126.056063" cy="127.779743" r="1.02941994"></circle>
                <path d="M130.616632,126.235613 C130.028267,126.235613 129.551302,125.758648 129.551302,125.170283 C129.551302,124.581917 130.028267,124.104953 130.616632,124.104953 C131.204998,124.104953 131.681962,124.581917 131.681962,125.170283 C131.681962,125.452826 131.569723,125.723797 131.369934,125.923585 C131.170146,126.123373 130.899175,126.235613 130.616632,126.235613 L130.616632,126.235613 Z" id="Path" fill="#6291FB"></path>
                <path d="M135.189172,123.614183 C134.620639,123.614183 134.159752,123.153296 134.159752,122.584763 C134.159752,122.01623 134.620639,121.555343 135.189172,121.555343 C135.757705,121.555343 136.218592,122.01623 136.218592,122.584763 C136.221835,122.858763 136.11442,123.122489 135.920659,123.31625 C135.726898,123.510011 135.463173,123.617426 135.189172,123.614183 L135.189172,123.614183 Z" id="Path" fill="#6291FB"></path>
                <circle id="Oval" fill="#6291FB" cx="153.467361" cy="112.541933" r="1"></circle>
                <path d="M158.027931,110.530974 C157.809773,110.530974 157.632921,110.354122 157.632921,110.135964 C157.632921,109.917806 157.809773,109.740954 158.027931,109.740954 C158.246089,109.740954 158.422941,109.917806 158.422941,110.135964 C158.422941,110.354122 158.246089,110.530974 158.027931,110.530974 L158.027931,110.530974 Z" id="Path" fill="#6291FB"></path>
                <circle id="Oval" fill="#6291FB" cx="162.600471" cy="107.801814" r="1"></circle>
            </g>
        </g>
    </g>
</svg>