<?xml version="1.0" encoding="UTF-8"?>
<svg width="464px" height="464px" viewBox="0 0 464 464" version="1.1" xmlns="http://www.w3.org/2000/svg" xmlns:xlink="http://www.w3.org/1999/xlink">
    <!-- Generator: Sketch 63.1 (92452) - https://sketch.com -->
    <title>Competetive</title>
    <desc>Created with Sketch.</desc>
    <defs>
        <linearGradient x1="23.976217%" y1="24.6689779%" x2="76.023783%" y2="75.335199%" id="linearGradient-1">
            <stop stop-color="#CFD8DB" offset="0%"></stop>
            <stop stop-color="#CFD8DB" offset="100%"></stop>
        </linearGradient>
    </defs>
    <g id="Services" stroke="none" stroke-width="1" fill="none" fill-rule="evenodd">
        <g id="Service_desktop-MVP" transform="translate(-127.000000, -5677.000000)">
            <rect fill="#FFFFFF" x="0" y="0" width="1400" height="7537"></rect>
            <g id="illustration-next" transform="translate(127.000000, 5677.000000)" fill-rule="nonzero">
                <g id="Group-7-Copy" transform="translate(111.000000, 115.000000)">
                    <polygon id="Shape" stroke="#FFFFFF" stroke-width="0.650000036" fill="#E9EFFF" stroke-linecap="round" stroke-linejoin="round" points="10.3821456 36.7656986 0.67689897 31.1623373 56.3580876 -1.38093996e-13 65.9575729 4.67610405"></polygon>
                    <polygon id="Shape" fill="#CBDBFF" points="0.58808142 141.115016 10.3821456 146.611556 10.3821456 36.7656986 0.720724278 31.18764"></polygon>
                    <polygon id="Shape" fill="#9CBAFB" points="10.3821456 36.7656986 65.9575729 4.67610405 65.9575729 114.526092 10.3821456 146.611556"></polygon>
                    <polygon id="Shape" fill="#F7F7F7" points="43.9400048 30.9298979 59.1500065 21.9700024 59.1500065 45.446264 43.9400048 54.4050062"></polygon>
                    <polygon id="Shape-Copy-2" fill="#F7F7F7" points="43.9400048 94.1099002 59.1500065 85.1500047 59.1500065 108.626266 43.9400048 117.585008"></polygon>
                    <polygon id="Shape-Copy" fill="#F7F7F7" points="18.200001 77.2098993 33.4100027 68.2500038 33.4100027 91.0762653 18.200001 100.035008"></polygon>
                    <path d="M36.5005854,47.697473 L19.8378594,57.1939959 C19.0097594,57.6766599 18.3330834,57.1656039 18.3330834,56.0535839 C18.3523525,54.9107861 18.9101984,53.8442127 19.8378594,53.1765278 L36.5005854,43.6800049 C37.3334174,43.2020729 38.0290214,43.7083969 38.0290214,44.820417 C38.0065196,45.9680473 37.4389578,47.0363989 36.5005854,47.697473 Z" id="Path-Copy-4" fill="#EFF4FF"></path>
                    <path d="M36.5005854,110.877475 L19.8378594,120.373998 C19.0097594,120.856662 18.3330834,120.345606 18.3330834,119.233586 C18.3523525,118.090788 18.9101984,117.024215 19.8378594,116.35653 L36.5005854,106.860007 C37.3334174,106.382075 38.0290214,106.888399 38.0290214,108.000419 C38.0065196,109.14805 37.4389578,110.216401 36.5005854,110.877475 Z" id="Path-Copy-10" fill="#EFF4FF"></path>
                    <path d="M57.8175042,68.3024723 L41.1547782,77.7989951 C40.3266782,78.2816591 39.6500022,77.7706031 39.6500022,76.6585831 C39.6692713,75.5157853 40.2271172,74.4492119 41.1547782,73.781527 L57.8175042,64.2850041 C58.6503362,63.8070721 59.3459402,64.3133961 59.3459402,65.4254162 C59.3234384,66.5730465 58.7558766,67.6413982 57.8175042,68.3024723 Z" id="Path-Copy-7" fill="#EFF4FF"></path>
                    <path d="M36.5005854,39.4923636 L19.8378594,48.9888864 C19.0097594,49.4715504 18.3330834,48.9604944 18.3330834,47.8484744 C18.3523525,46.7056766 18.9101984,45.6391032 19.8378594,44.9714183 L36.5005854,35.4748954 C37.3334174,34.9969634 38.0290214,35.5032874 38.0290214,36.6153075 C38.0065196,37.7629378 37.4389578,38.8312895 36.5005854,39.4923636 Z" id="Path-Copy-6" fill="#EFF4FF"></path>
                    <path d="M36.5005854,102.672366 L19.8378594,112.168889 C19.0097594,112.651553 18.3330834,112.140497 18.3330834,111.028477 C18.3523525,109.885679 18.9101984,108.819105 19.8378594,108.151421 L36.5005854,98.6548977 C37.3334174,98.1769657 38.0290214,98.6832897 38.0290214,99.7953097 C38.0065196,100.94294 37.4389578,102.011292 36.5005854,102.672366 Z" id="Path-Copy-11" fill="#EFF4FF"></path>
                    <path d="M57.8175042,60.0973628 L41.1547782,69.5938856 C40.3266782,70.0765496 39.6500022,69.5654936 39.6500022,68.4534736 C39.6692713,67.3106758 40.2271172,66.2441024 41.1547782,65.5764175 L57.8175042,56.0798946 C58.6503362,55.6019626 59.3459402,56.1082867 59.3459402,57.2203067 C59.3234384,58.367937 58.7558766,59.4362887 57.8175042,60.0973628 Z" id="Path-Copy-8" fill="#EFF4FF"></path>
                    <path d="M36.5005854,56.0673656 L19.8378594,65.5638885 C19.0097594,66.0465525 18.3330834,65.5354965 18.3330834,64.4234764 C18.3523525,63.2806787 18.9101984,62.2141052 19.8378594,61.5464203 L36.5005854,52.0498975 C37.3334174,51.5719655 38.0290214,52.0782895 38.0290214,53.1903095 C38.0065196,54.3379399 37.4389578,55.4062915 36.5005854,56.0673656 Z" id="Path-Copy-5" fill="#EFF4FF"></path>
                    <path d="M36.5005854,119.247368 L19.8378594,128.743891 C19.0097594,129.226555 18.3330834,128.715499 18.3330834,127.603479 C18.3523525,126.460681 18.9101984,125.394108 19.8378594,124.726423 L36.5005854,115.2299 C37.3334174,114.751968 38.0290214,115.258292 38.0290214,116.370312 C38.0065196,117.517942 37.4389578,118.586294 36.5005854,119.247368 Z" id="Path-Copy-12" fill="#EFF4FF"></path>
                    <path d="M57.8175042,76.6723649 L41.1547782,86.1688877 C40.3266782,86.6515517 39.6500022,86.1404957 39.6500022,85.0284757 C39.6692713,83.8856779 40.2271172,82.8191045 41.1547782,82.1514196 L57.8175042,72.6548967 C58.6503362,72.1769647 59.3459402,72.6832887 59.3459402,73.7953088 C59.3234384,74.9429391 58.7558766,76.0112908 57.8175042,76.6723649 Z" id="Path-Copy-9" fill="#EFF4FF"></path>
                </g>
                <g id="Group-5" transform="translate(161.000000, 128.000000)">
                    <polygon id="Shape" stroke="#FFFFFF" stroke-width="0.955694444" fill="#F7F7F7" stroke-linecap="round" stroke-linejoin="round" points="86.9708509 102.047146 0.357220607 52.0404347 90.3693003 0.073594501 176.982931 50.0736156"></polygon>
                    <polygon id="Shape" fill="#EDEFF1" points="0.357220607 52.0404347 0.357220607 160.235557 86.9708509 210.235578 86.9708509 102.047146"></polygon>
                    <polygon id="Shape" fill="url(#linearGradient-1)" points="86.9708509 102.047146 176.982931 50.0736156 176.982931 158.268737 86.9708509 210.235578"></polygon>
                    <polygon id="Shape" fill="#E0E8EA" opacity="0.4" points="87.4659006 88.1121652 26.1867739 52.7294904 89.8742506 15.9620144 151.153377 51.3446892"></polygon>
                    <polygon id="Shape" fill="#DBDEE2" points="151.153377 51.3446892 89.8742506 15.9620144 89.6668649 25.075293 142.769293 55.9615372"></polygon>
                    <polygon id="Shape" fill="#E7E9EB" points="89.8742506 15.9620144 26.1867739 52.7294904 34.363472 57.2326108 89.6668649 25.075293"></polygon>
                </g>
                <g id="Group-7-Copy-2" transform="translate(152.000000, 276.000000)">
                    <polygon id="Shape" stroke="#FFFFFF" stroke-width="0.5" fill="#E9EFFF" stroke-linecap="round" stroke-linejoin="round" points="4.79175894 16.968782 0.312414873 14.3826156 26.011422 -6.37356831e-14 30.4419532 2.15820162"></polygon>
                    <polygon id="Shape" fill="#CBDBFF" points="0.271422163 65.1299997 4.79175894 67.6668642 4.79175894 16.968782 0.332641936 14.3942938"></polygon>
                    <polygon id="Shape" fill="#9CBAFB" points="4.79175894 16.968782 30.4419532 2.15820162 30.4419532 52.8581901 4.79175894 67.6668642"></polygon>
                    <polygon id="Shape" fill="#F7F7F7" points="20.2799999 14.2753359 27.2999999 10.14 27.2999999 20.9751964 20.2799999 25.11"></polygon>
                    <polygon id="Shape-Copy-2" fill="#F7F7F7" points="20.2799999 43.4353336 27.2999999 39.2999977 27.2999999 50.1351941 20.2799999 54.2699977"></polygon>
                    <polygon id="Shape-Copy" fill="#F7F7F7" points="8.3999995 35.635334 15.4199995 31.4999981 15.4199995 42.0351945 8.3999995 46.1699982"></polygon>
                    <path d="M16.8464221,22.0142158 L9.15593407,26.3972258 C8.7737341,26.6199938 8.46142213,26.3841219 8.46142213,25.8708819 C8.47031555,25.3434368 8.72778289,24.8511722 9.15593407,24.54301 L16.8464221,20.16 C17.2308061,19.939416 17.551854,20.173104 17.551854,20.6863439 C17.5414686,21.2160194 17.279517,21.7091047 16.8464221,22.0142158 Z" id="Path-Copy-4" fill="#EFF4FF"></path>
                    <path d="M16.8464221,51.1742135 L9.15593407,55.5572236 C8.7737341,55.7799915 8.46142213,55.5441196 8.46142213,55.0308796 C8.47031555,54.5034345 8.72778289,54.0111699 9.15593407,53.7030077 L16.8464221,49.3199977 C17.2308061,49.0994137 17.551854,49.3331017 17.551854,49.8463416 C17.5414686,50.3760171 17.279517,50.8691024 16.8464221,51.1742135 Z" id="Path-Copy-10" fill="#EFF4FF"></path>
                    <path d="M26.6849989,31.5242144 L18.9945109,35.9072244 C18.6123109,36.1299924 18.2999989,35.8941204 18.2999989,35.3808804 C18.3088923,34.8534354 18.5663597,34.3611708 18.9945109,34.0530086 L26.6849989,29.6699985 C27.0693828,29.4494145 27.3904308,29.6831025 27.3904308,30.1963425 C27.3800453,30.7260179 27.1180938,31.2191033 26.6849989,31.5242144 Z" id="Path-Copy-7" fill="#EFF4FF"></path>
                    <path d="M16.8464221,18.2272426 L9.15593407,22.6102527 C8.7737341,22.8330207 8.46142213,22.5971487 8.46142213,22.0839087 C8.47031555,21.5564636 8.72778289,21.0641991 9.15593407,20.7560368 L16.8464221,16.3730268 C17.2308061,16.1524428 17.551854,16.3861308 17.551854,16.8993707 C17.5414686,17.4290462 17.279517,17.9221315 16.8464221,18.2272426 Z" id="Path-Copy-6" fill="#EFF4FF"></path>
                    <path d="M16.8464221,47.3872403 L9.15593407,51.7702504 C8.7737341,51.9930184 8.46142213,51.7571464 8.46142213,51.2439064 C8.47031555,50.7164614 8.72778289,50.2241968 9.15593407,49.9160345 L16.8464221,45.5330245 C17.2308061,45.3124405 17.551854,45.5461285 17.551854,46.0593684 C17.5414686,46.5890439 17.279517,47.0821292 16.8464221,47.3872403 Z" id="Path-Copy-11" fill="#EFF4FF"></path>
                    <path d="M26.6849989,27.7372412 L18.9945109,32.1202512 C18.6123109,32.3430192 18.2999989,32.1071472 18.2999989,31.5939073 C18.3088923,31.0664622 18.5663597,30.5741976 18.9945109,30.2660354 L26.6849989,25.8830253 C27.0693828,25.6624414 27.3904308,25.8961293 27.3904308,26.4093693 C27.3800453,26.9390448 27.1180938,27.4321301 26.6849989,27.7372412 Z" id="Path-Copy-8" fill="#EFF4FF"></path>
                    <path d="M16.8464221,25.8772427 L9.15593407,30.2602528 C8.7737341,30.4830207 8.46142213,30.2471488 8.46142213,29.7339088 C8.47031555,29.2064637 8.72778289,28.7141991 9.15593407,28.4060369 L16.8464221,24.0230269 C17.2308061,23.8024429 17.551854,24.0361309 17.551854,24.5493708 C17.5414686,25.0790463 17.279517,25.5721316 16.8464221,25.8772427 Z" id="Path-Copy-5" fill="#EFF4FF"></path>
                    <path d="M16.8464221,55.0372404 L9.15593407,59.4202505 C8.7737341,59.6430184 8.46142213,59.4071465 8.46142213,58.8939065 C8.47031555,58.3664614 8.72778289,57.8741968 9.15593407,57.5660346 L16.8464221,53.1830246 C17.2308061,52.9624406 17.551854,53.1961286 17.551854,53.7093685 C17.5414686,54.239044 17.279517,54.7321293 16.8464221,55.0372404 Z" id="Path-Copy-12" fill="#EFF4FF"></path>
                    <path d="M26.6849989,35.3872413 L18.9945109,39.7702513 C18.6123109,39.9930193 18.2999989,39.7571473 18.2999989,39.2439073 C18.3088923,38.7164623 18.5663597,38.2241977 18.9945109,37.9160355 L26.6849989,33.5330254 C27.0693828,33.3124414 27.3904308,33.5461294 27.3904308,34.0593694 C27.3800453,34.5890448 27.1180938,35.0821302 26.6849989,35.3872413 Z" id="Path-Copy-9" fill="#EFF4FF"></path>
                </g>
                <g id="pie" transform="translate(261.000000, 225.000000)">
                    <path d="M27.8999993,69.0379548 C12.4909435,78.0055452 0,70.8242988 0,53.0039031 C0,35.1835073 12.4909435,13.4675903 27.8999993,4.49999988 L27.8999993,69.0379548 Z" id="Path" fill="#E9EFFF"></path>
                    <path d="M56.4742002,19.2504955 L29.8779009,35.0999991 L29.6999992,3.98646163 L29.6999992,3.86100382 C44.5137342,-4.96983219 56.5973629,1.8606487 56.6999992,19.1180678 L56.4742002,19.2504955 Z" id="Path" fill="#FFFFFF"></path>
                    <path d="M29.886154,68.1375425 L29.6999992,37.4371301 L56.589022,21.66216 L56.699336,21.5999994 C56.8027553,38.6941548 44.7854305,59.649172 29.8585755,68.3999982 L29.886154,68.1375425 Z" id="Path" fill="#9CBAFB"></path>
                </g>
                <g id="Group-7" transform="translate(302.000000, 124.000000)">
                    <polygon id="Shape" stroke="#FFFFFF" stroke-width="0.5" fill="#E9EFFF" stroke-linecap="round" stroke-linejoin="round" points="7.98626538 28.2813051 0.520691486 23.9710274 43.3523727 -1.06226145e-13 50.7365917 3.59700292"></polygon>
                    <polygon id="Shape" fill="#CBDBFF" points="0.452370298 108.550006 7.98626538 112.778114 7.98626538 28.2813051 0.55440326 23.990491"></polygon>
                    <polygon id="Shape" fill="#9CBAFB" points="7.98626538 28.2813051 50.7365917 3.59700292 50.7365917 88.0969888 7.98626538 112.778114"></polygon>
                    <polygon id="Shape" fill="#F7F7F7" points="33.8000019 23.7922279 45.5000025 16.9000009 45.5000025 34.9586627 33.8000019 41.8500025"></polygon>
                    <polygon id="Shape-Copy-2" fill="#F7F7F7" points="33.8000019 72.3922269 45.5000025 65.5 45.5000025 83.5586617 33.8000019 90.4500015"></polygon>
                    <polygon id="Shape-Copy" fill="#F7F7F7" points="14 59.3922269 25.7000006 52.5 25.7000006 70.0586617 14 76.9500015"></polygon>
                    <path d="M28.0773718,36.6903619 L15.259891,43.995379 C14.622891,44.366659 14.102371,43.973539 14.102371,43.1181391 C14.1171934,42.2390639 14.5463057,41.4186228 15.259891,40.9050191 L28.0773718,33.6000019 C28.7180118,33.2323619 29.2530918,33.6218419 29.2530918,34.4772419 C29.2357827,35.3600344 28.7991967,36.1818434 28.0773718,36.6903619 Z" id="Path-Copy-4" fill="#EFF4FF"></path>
                    <path d="M28.0773718,85.2903609 L15.259891,92.5953781 C14.622891,92.9666581 14.102371,92.5735381 14.102371,91.7181381 C14.1171934,90.839063 14.5463057,90.0186219 15.259891,89.5050182 L28.0773718,82.200001 C28.7180118,81.832361 29.2530918,82.221841 29.2530918,83.077241 C29.2357827,83.9600335 28.7991967,84.7818424 28.0773718,85.2903609 Z" id="Path-Copy-10" fill="#EFF4FF"></path>
                    <path d="M44.4750008,52.5403604 L31.65752,59.8453776 C31.02052,60.2166576 30.5,59.8235376 30.5,58.9681376 C30.5148224,58.0890624 30.9439346,57.2686214 31.65752,56.7550176 L44.4750008,49.4500005 C45.1156408,49.0823605 45.6507207,49.4718405 45.6507207,50.3272404 C45.6334116,51.210033 45.1968256,52.0318419 44.4750008,52.5403604 Z" id="Path-Copy-7" fill="#EFF4FF"></path>
                    <path d="M28.0773718,30.3787395 L15.259891,37.6837567 C14.622891,38.0550367 14.102371,37.6619167 14.102371,36.8065167 C14.1171934,35.9274416 14.5463057,35.1070005 15.259891,34.5933968 L28.0773718,27.2883796 C28.7180118,26.9207396 29.2530918,27.3102196 29.2530918,28.1656196 C29.2357827,29.0484121 28.7991967,29.870221 28.0773718,30.3787395 Z" id="Path-Copy-6" fill="#EFF4FF"></path>
                    <path d="M28.0773718,78.9787386 L15.259891,86.2837558 C14.622891,86.6550358 14.102371,86.2619158 14.102371,85.4065158 C14.1171934,84.5274406 14.5463057,83.7069996 15.259891,83.1933958 L28.0773718,75.8883787 C28.7180118,75.5207387 29.2530918,75.9102187 29.2530918,76.7656186 C29.2357827,77.6484112 28.7991967,78.4702201 28.0773718,78.9787386 Z" id="Path-Copy-11" fill="#EFF4FF"></path>
                    <path d="M44.4750008,46.2287381 L31.65752,53.5337552 C31.02052,53.9050352 30.5,53.5119152 30.5,52.6565153 C30.5148224,51.7774401 30.9439346,50.956999 31.65752,50.4433953 L44.4750008,43.1383781 C45.1156408,42.7707381 45.6507207,43.1602181 45.6507207,44.0156181 C45.6334116,44.8984106 45.1968256,45.7202195 44.4750008,46.2287381 Z" id="Path-Copy-8" fill="#EFF4FF"></path>
                    <path d="M28.0773718,43.1287404 L15.259891,50.4337576 C14.622891,50.8050376 14.102371,50.4119176 14.102371,49.5565176 C14.1171934,48.6774424 14.5463057,47.8570014 15.259891,47.3433977 L28.0773718,40.0383805 C28.7180118,39.6707405 29.2530918,40.0602205 29.2530918,40.9156205 C29.2357827,41.798413 28.7991967,42.6202219 28.0773718,43.1287404 Z" id="Path-Copy-5" fill="#EFF4FF"></path>
                    <path d="M28.0773718,91.7287395 L15.259891,99.0337567 C14.622891,99.4050367 14.102371,99.0119167 14.102371,98.1565167 C14.1171934,97.2774415 14.5463057,96.4570005 15.259891,95.9433967 L28.0773718,88.6383796 C28.7180118,88.2707396 29.2530918,88.6602196 29.2530918,89.5156195 C29.2357827,90.3984121 28.7991967,91.220221 28.0773718,91.7287395 Z" id="Path-Copy-12" fill="#EFF4FF"></path>
                    <path d="M44.4750008,58.978739 L31.65752,66.2837561 C31.02052,66.6550361 30.5,66.2619161 30.5,65.4065161 C30.5148224,64.527441 30.9439346,63.7069999 31.65752,63.1933962 L44.4750008,55.888379 C45.1156408,55.520739 45.6507207,55.910219 45.6507207,56.765619 C45.6334116,57.6484115 45.1968256,58.4702204 44.4750008,58.978739 Z" id="Path-Copy-9" fill="#EFF4FF"></path>
                </g>
            </g>
        </g>
    </g>
</svg>