<?xml version="1.0" encoding="UTF-8"?>
<svg width="462px" height="462px" viewBox="0 0 462 462" version="1.1" xmlns="http://www.w3.org/2000/svg" xmlns:xlink="http://www.w3.org/1999/xlink">
    <!-- Generator: Sketch 63.1 (92452) - https://sketch.com -->
    <title>Service_desktop-Service-detail</title>
    <desc>Created with Sketch.</desc>
    <defs>
        <linearGradient x1="50%" y1="100%" x2="50%" y2="0%" id="linearGradient-1">
            <stop stop-color="#004FFF" offset="0%"></stop>
            <stop stop-color="#FFFFFF" stop-opacity="0" offset="100%"></stop>
        </linearGradient>
        <linearGradient x1="50.0034846%" y1="100%" x2="50.0034846%" y2="25.4750845%" id="linearGradient-2">
            <stop stop-color="#004FFF" offset="0%"></stop>
            <stop stop-color="#FFFFFF" stop-opacity="0" offset="100%"></stop>
        </linearGradient>
    </defs>
    <g id="Services" stroke="none" stroke-width="1" fill="none" fill-rule="evenodd">
        <g id="Service_desktop-IOT" transform="translate(-128.000000, -1663.000000)">
            <rect fill="#FFFFFF" x="0" y="0" width="1400" height="7058"></rect>
            <g id="bg-abstr-hww" transform="translate(-3.000000, 283.000000)"></g>
            <g id="illustration-key-to-success" transform="translate(135.000000, 1767.000000)">
                <path d="M177.100004,147.400003 L332.130991,57.7517249 L370.150008,79.2000017" id="Path-19" stroke="#82A9FF" stroke-width="2.20000005" stroke-linecap="round" stroke-linejoin="round" stroke-dasharray="3.300000071525574,5.50000011920929"></path>
                <line x1="91.300002" y1="105.600002" x2="217.674747" y2="177.101503" id="Path-18" stroke="#82A9FF" stroke-width="2.20000005" stroke-linecap="round" stroke-linejoin="round" stroke-dasharray="3.300000071525574,5.50000011920929"></line>
                <g id="Group-11-Copy-2" transform="translate(339.900007, 61.600001)" fill-rule="nonzero">
                    <path d="M55.0578378,60.8776674 C28.3240606,45.9732943 26.7206884,45.4718634 0,30.5608926 L53.009448,2.50111034e-14 C79.6843259,14.9835464 81.2026212,15.5641506 107.870955,30.547697 C90.2665823,40.6642849 72.6622101,50.7742751 55.0578378,60.8776674 Z" id="Path" fill="#799EF0"></path>
                    <polygon id="Path" fill="#B0C8FD" points="55.0611783 60.7556355 0 29.9048191 0 37.9574725 14.2152477 45.9835933 55.0611783 68.8878868 107.870955 38.3753615 107.870955 30.2829091"></polygon>
                    <polygon id="Path" fill="#6291FB" points="55.114655 60.8083006 55.0035065 60.7488433 55.0035065 68.8218232 55.114655 68.8878868 107.870955 38.4986009 107.870955 30.4388337"></polygon>
                    <path d="M55.0106987,47.5273018 C35.7895434,36.8022069 34.6749902,36.4137597 15.4864242,25.7215841 L53.5441812,3.73810239 C72.6871222,14.515868 73.7495326,14.9306507 92.918545,25.7084164 L55.0106987,47.5273018 Z" id="Path" fill="#82A9FF"></path>
                    <polygon id="Path" fill="#B0C8FD" points="55.007372 47.6195819 15.4864242 25.6327021 15.4864242 31.3686949 25.6860092 37.0915768 55.0138893 53.4014627 92.918545 31.6767996 92.918545 25.9014743"></polygon>
                    <polygon id="Path" fill="#6291FB" points="55.0880657 47.5630725 55.0035065 47.516736 55.0035065 53.3551262 55.0880657 53.4014627 92.918545 31.4644728 92.918545 25.6327021"></polygon>
                </g>
                <g id="Group-11-Copy-4" transform="translate(0.000000, 47.300001)" fill-rule="nonzero">
                    <path d="M68.8223014,76.0970888 C35.4050779,57.4666213 33.4008625,56.8398327 -8.57880847e-15,38.201118 L66.261814,3.00258296e-14 C99.6054132,18.7294341 101.503282,19.4551894 134.838701,38.1846235 C112.833235,50.8303592 90.827768,63.4678476 68.8223014,76.0970888 Z" id="Path" fill="#F9F9F9"></path>
                    <polygon id="Path" fill="#EDEFF1" points="68.826477 75.9445489 -8.57880847e-15 37.3810261 -8.57880847e-15 47.4468435 17.7690607 57.4794951 68.826477 86.1098637 134.838701 47.9692047 134.838701 37.8536386"></polygon>
                    <polygon id="Path" fill="#CFD8DB" points="68.8933229 76.0103803 68.7543873 75.9360586 68.7543873 86.0272841 68.8933229 86.1098637 134.838701 48.123254 134.838701 38.0485444"></polygon>
                    <path d="M68.7633774,59.4091308 C44.7369319,46.0027614 43.3437403,45.5172023 19.3580314,32.151982 L66.9302305,4.67262826 C90.8589082,18.1448361 92.1869213,18.6633145 116.148188,32.1355224 L68.7633774,59.4091308 Z" id="Path" fill="#F6F9FF"></path>
                    <polygon id="Path" fill="#EDEFF1" points="68.7592191 59.5244809 19.3580314 32.0408795 19.3580314 39.2108709 32.1075134 46.3644738 68.7673657 66.7518323 116.148188 39.5960019 116.148188 32.3768448"></polygon>
                    <polygon id="Path" fill="#CFD8DB" points="68.8600863 59.4538441 68.7543873 59.3959236 68.7543873 66.6939118 68.8600863 66.7518323 116.148188 39.3305933 116.148188 32.0408795"></polygon>
                </g>
                <g id="Group" opacity="0.3" transform="translate(1.100000, 0.000000)" fill="url(#linearGradient-1)" fill-rule="nonzero">
                    <polygon id="Shape" points="18.1500004 79.2000017 67.6500015 106.700002 114.950002 79.2000017 133.807967 1.77415245 2.11031197e-13 -3.91233427e-13"></polygon>
                </g>
                <g id="Group" opacity="0.3" transform="translate(68.200001, 7.700000)" fill="url(#linearGradient-2)" fill-rule="nonzero">
                    <polygon id="Shape" points="0.550000012 99.0000021 0.393355704 30.1981245 65.6294851 0.486011502 47.850001 71.5000015"></polygon>
                </g>
                <g id="Group-11-Copy-3" transform="translate(193.600004, 155.100003)" fill-rule="nonzero">
                    <path d="M55.0578378,60.8776674 C28.3240606,45.9732943 26.7206884,45.4718634 0,30.5608926 L53.009448,2.50111034e-14 C79.6843259,14.9835464 81.2026212,15.5641506 107.870955,30.547697 C90.2665823,40.6642849 72.6622101,50.7742751 55.0578378,60.8776674 Z" id="Path" fill="#799EF0"></path>
                    <polygon id="Path" fill="#B0C8FD" points="55.0611783 60.7556355 0 29.9048191 0 37.9574725 14.2152477 45.9835933 55.0611783 68.8878868 107.870955 38.3753615 107.870955 30.2829091"></polygon>
                    <polygon id="Path" fill="#6291FB" points="55.114655 60.8083006 55.0035065 60.7488433 55.0035065 68.8218232 55.114655 68.8878868 107.870955 38.4986009 107.870955 30.4388337"></polygon>
                    <path d="M55.0106987,47.5273018 C35.7895434,36.8022069 34.6749902,36.4137597 15.4864242,25.7215841 L53.5441812,3.73810239 C72.6871222,14.515868 73.7495326,14.9306507 92.918545,25.7084164 L55.0106987,47.5273018 Z" id="Path" fill="#82A9FF"></path>
                    <polygon id="Path" fill="#B0C8FD" points="55.007372 47.6195819 15.4864242 25.6327021 15.4864242 31.3686949 25.6860092 37.0915768 55.0138893 53.4014627 92.918545 31.6767996 92.918545 25.9014743"></polygon>
                    <polygon id="Path" fill="#6291FB" points="55.0880657 47.5630725 55.0035065 47.516736 55.0035065 53.3551262 55.0880657 53.4014627 92.918545 31.4644728 92.918545 25.6327021"></polygon>
                </g>
            </g>
        </g>
    </g>
</svg>