<?xml version="1.0" encoding="UTF-8"?>
<svg width="298px" height="363px" viewBox="0 0 298 363" version="1.1" xmlns="http://www.w3.org/2000/svg" xmlns:xlink="http://www.w3.org/1999/xlink">
    <!-- Generator: Sketch 63.1 (92452) - https://sketch.com -->
    <title>illustration-traits</title>
    <desc>Created with Sketch.</desc>
    <defs>
        <linearGradient x1="0%" y1="49.9793984%" x2="100%" y2="49.9793984%" id="linearGradient-1">
            <stop stop-color="#CFD8DB" offset="0%"></stop>
            <stop stop-color="#CFD8DB" offset="100%"></stop>
        </linearGradient>
        <linearGradient x1="0%" y1="50%" x2="100%" y2="50%" id="linearGradient-2">
            <stop stop-color="#CFD8DB" offset="0%"></stop>
            <stop stop-color="#CFD8DB" offset="100%"></stop>
        </linearGradient>
        <linearGradient x1="0%" y1="50%" x2="100%" y2="50%" id="linearGradient-3">
            <stop stop-color="#CFD8DB" offset="0%"></stop>
            <stop stop-color="#CFD8DB" offset="100%"></stop>
        </linearGradient>
        <linearGradient x1="0.5%" y1="50%" x2="100.5%" y2="50%" id="linearGradient-4">
            <stop stop-color="#CFD8DB" offset="0%"></stop>
            <stop stop-color="#CFD8DB" offset="100%"></stop>
        </linearGradient>
        <linearGradient x1="0%" y1="49.9793984%" x2="100%" y2="49.9793984%" id="linearGradient-5">
            <stop stop-color="#CFD8DB" offset="0%"></stop>
            <stop stop-color="#CFD8DB" offset="100%"></stop>
        </linearGradient>
        <linearGradient x1="2.82801991e-05%" y1="50.1438285%" x2="99.9996517%" y2="50.1438285%" id="linearGradient-6">
            <stop stop-color="#CFD8DB" offset="0%"></stop>
            <stop stop-color="#CFD8DB" offset="100%"></stop>
        </linearGradient>
        <linearGradient x1="0.000560946941%" y1="50.0378437%" x2="99.999434%" y2="50.0378437%" id="linearGradient-7">
            <stop stop-color="#CFD8DB" offset="0%"></stop>
            <stop stop-color="#CFD8DB" offset="100%"></stop>
        </linearGradient>
    </defs>
    <g id="Services" stroke="none" stroke-width="1" fill="none" fill-rule="evenodd">
        <g id="Service_desktop-Development-Team" transform="translate(-217.000000, -3393.000000)">
            <g id="Personality-traits" transform="translate(128.000000, 3350.000000)">
                <g id="illustration-traits">
                    <g id="Group-11" transform="translate(89.000000, 227.319996)" fill-rule="nonzero">
                        <path d="M147.984969,163.627561 C76.1296739,123.567449 71.8201152,122.219698 -1.84465599e-14,82.1418516 L142.479288,6.45629598e-14 C214.176273,40.2729156 218.257161,41.8334689 289.936556,82.1063844 C242.61936,109.297844 195.302165,136.471569 147.984969,163.627561 Z" id="Path" fill="#F9F9F9"></path>
                        <polygon id="Path" fill="#EDEFF1" points="147.993948 163.299563 1.91999996 81.3384512 1.91999996 96.3968481 38.2078753 117.00953 147.993948 178.571904 289.936556 96.5600539 289.936556 81.394685"></polygon>
                        <polygon id="Path" fill="#CFD8DB" points="148.137683 163.441117 147.838937 163.281307 147.838937 178.394337 148.137683 178.571904 297.616556 93.051298 297.616556 77.9737808"></polygon>
                    </g>
                    <g id="Group-7" transform="translate(90.920000, 43.000000)" fill-rule="nonzero">
                        <rect id="Rectangle" fill="#CFD8DB" x="74.688847" y="16.6257106" width="27.7095176" height="27.7095176"></rect>
                        <polygon id="Path" fill="#CFD8DB" points="73.7651964 171.799009 148.580894 128.943117 148.580894 42.487927 73.7651964 84.9758541"></polygon>
                        <path d="M139.344388,158.727925 L139.087799,72.87312 L114.576763,62.80824 L104.245666,68.6679304 L104.245666,155.529224 C104.245666,155.529224 106.635998,155.267261 107.662356,158.6452 C109.012826,163.264015 116.669992,175.024758 133.429328,167.49678 C136.454382,166.118029 139.654996,162.51949 139.249855,158.714138 L139.344388,158.727925 Z" id="Path" fill="#D7E0E3"></path>
                        <polygon id="Path" fill="#E6E9ED" points="0.796799966 44.3352282 0.796799966 130.130785 73.7651964 171.799009 73.7651964 84.9758541 0.796799966 43.4115776"></polygon>
                        <path d="M135.304814,64.7552029 C127.462984,60.3890704 120.983157,63.7728231 117.598788,60.1161871 L148.580894,42.487927 L115.934119,23.5088948 C114.825973,23.2432423 113.656144,23.4638592 112.723658,24.1143529 C111.791171,24.7648465 111.186399,25.7821736 111.06393,26.9062916 C110.045868,31.7636141 101.433613,43.7841226 83.7138299,36.0342374 C78.6647922,33.8238828 73.1204811,25.8420468 82.8471013,20.4116695 C91.2942651,15.6907887 98.2831238,19.4429339 101.860099,15.3360405 L75.5143028,3.62342674e-13 L0.796799966,43.3475094 L73.904664,84.9758541 L104.446527,67.6068332 C105.47023,67.401078 106.533892,67.6355992 107.373265,68.2521345 C108.212638,68.8686698 108.748948,69.8093572 108.848957,70.8405001 C109.811989,75.3976509 117.81891,86.6677304 134.479358,79.395391 C139.211971,77.3896988 144.398585,69.8444761 135.304814,64.7552029 Z" id="Path" fill="#F7F7F7"></path>
                        <g id="Group" opacity="0.6" transform="translate(8.493890, 58.044521)">
                            <path d="M55.9020422,99.1902322 C55.2780445,99.1902322 54.7721944,98.6843276 54.7721944,98.0602625 L54.7721944,72.8958366 C54.7721944,72.2717716 55.2780445,71.7658669 55.9020422,71.7658669 C56.5260399,71.7658669 57.03189,72.2717716 57.03189,72.8958366 L57.03189,98.0602625 C57.03189,98.6843276 56.5260399,99.1902322 55.9020422,99.1902322 Z" id="Shape" fill="url(#linearGradient-1)"></path>
                            <path d="M1.129846,27.848597 C0.505848212,27.848597 -1.94384126e-06,27.342691 -1.94384126e-06,26.7186255 L-1.94384126e-06,1.54289996 C-1.94384126e-06,0.918836491 0.505848212,0.412930506 1.129846,0.412930506 C1.75384358,0.412930506 2.25969374,0.918836491 2.25969374,1.54289996 L2.25969374,26.7186255 C2.25969374,27.342691 1.75384358,27.848597 1.129846,27.848597 Z" id="Shape" fill="url(#linearGradient-2)"></path>
                            <path d="M9.26474983,35.9843779 C8.64075225,35.9843779 8.13490209,35.4784739 8.13490209,34.8544084 L8.13490209,9.6786829 C8.13490209,9.05461738 8.64075225,8.54871345 9.26474983,8.54871345 C9.88874762,8.54871345 10.3945976,9.05461738 10.3945976,9.6786829 L10.3945976,34.8544084 C10.3945976,35.4784739 9.88874762,35.9843779 9.26474983,35.9843779 Z" id="Shape" fill="url(#linearGradient-3)"></path>
                            <path d="M16.6878498,43.4082787 C16.063852,43.4082787 15.558002,42.9023748 15.558002,42.2783092 L15.558002,17.1025837 C15.558002,16.4785182 16.063852,15.9726143 16.6878498,15.9726143 C17.3118473,15.9726143 17.8176975,16.4785182 17.8176975,17.1025837 L17.8176975,42.2783092 C17.8176975,42.9023748 17.3118473,43.4082787 16.6878498,43.4082787 Z" id="Shape" fill="url(#linearGradient-3)"></path>
                            <path d="M40.3214406,83.630549 C39.6974428,83.630549 39.1915927,83.1246451 39.1915927,82.5005796 L39.1915927,57.3248541 C39.1915927,56.7007886 39.6974428,56.1948846 40.3214406,56.1948846 C40.9454382,56.1948846 41.4512883,56.7007886 41.4512883,57.3248541 L41.4512883,82.5005796 C41.4512883,83.1246451 40.9454382,83.630549 40.3214406,83.630549 Z" id="Shape" fill="url(#linearGradient-4)"></path>
                            <path d="M48.4789415,91.766332 C47.8549437,91.766332 47.3490937,91.260426 47.3490937,90.6363625 L47.3490937,65.4719363 C47.3490937,64.8478708 47.8549437,64.3419669 48.4789415,64.3419669 C49.102939,64.3419669 49.6087892,64.8478708 49.6087892,65.4719363 L49.6087892,90.6363625 C49.6087892,91.260426 49.102939,91.766332 48.4789415,91.766332 Z" id="Shape" fill="url(#linearGradient-5)"></path>
                            <path d="M25.7190989,58.4581464 L25.7190989,58.7971385 C25.7184213,59.4356602 26.0587617,60.0259345 26.6116797,60.3451953 C27.1659328,60.6625698 27.8469962,60.6617817 28.4005135,60.3431263 C28.9540308,60.024471 29.2967657,59.4358654 29.3007297,58.7971385 L29.3007297,58.4581464 C29.303104,57.8162114 28.9628467,57.2217724 28.4081375,56.8987883 C27.8521358,56.5804305 27.1686847,56.5823045 26.6144377,56.9037103 C26.0601909,57.225114 25.7190414,57.8173998 25.7190989,58.4581464 Z" id="Shape" fill="url(#linearGradient-6)"></path>
                            <path d="M25.7190798,49.8025781 L25.7190798,50.1415702 C25.716065,50.7807199 26.0570386,51.3720923 26.6116797,51.689629 C27.1649818,52.0145488 27.8500765,52.0175045 28.4061611,51.6973713 C28.9622457,51.3772361 29.3037682,50.7832651 29.3007375,50.1415702 L29.3007375,49.8025781 C29.3007899,49.1612568 28.9611462,48.5678893 28.4081375,48.2432199 C27.8521358,47.9248622 27.1686847,47.9267362 26.6144377,48.248142 C26.0601909,48.5695457 25.7190414,49.1618315 25.7190798,49.8025781 Z" id="Shape" fill="url(#linearGradient-7)"></path>
                            <path d="M25.7190798,41.5198998 L25.7190798,41.8588919 C25.716065,42.4980417 26.0570386,43.0894141 26.6116797,43.4069508 C27.1649818,43.7318705 27.8500765,43.7348262 28.4061611,43.414693 C28.9622457,43.0945578 29.3037682,42.5005868 29.3007375,41.8588919 L29.3007375,41.5198998 C29.3007899,40.8785785 28.9611462,40.285213 28.4081375,39.9605417 C27.8521358,39.642184 27.1686847,39.6440579 26.6144377,39.9654637 C26.0601909,40.2868674 25.7190414,40.8791532 25.7190798,41.5198998 Z" id="Shape" fill="url(#linearGradient-7)"></path>
                        </g>
                    </g>
                    <path d="M91.3559989,308.518242 L164.623997,350.293235 L195.300796,331.966836 C199.284795,340.64707 205.924795,344.987187 215.220795,344.987187 C224.516794,344.987187 230.227194,341.667187 232.351994,335.027188 L231.847006,301.698011 L230.359994,203.555193 C228.235194,209.929593 222.126394,212.983993 212.033595,212.718393 C205.563006,212.548114 200.479995,206.343993 199.284795,203.555193 C199.241878,203.455053 198.51859,201.670328 198.487995,201.563193 C198.109041,200.23617 197.046641,198.90817 195.300796,197.579193 L164.623997,215.108793 L91.3559989,172.992405 L91.3559989,308.518242 Z" id="Path-10" fill="#4B83FF" opacity="0.050062"></path>
                    <polygon id="Path-10" fill="#4B83FF" opacity="0.050062" points="231.953594 309.131189 239.124794 306.740789 239.523194 172.353146 229.961594 177.659194"></polygon>
                    <path d="M253.580354,283.997947 C244.492619,278.903854 249.681688,271.385958 254.390288,269.318194 C271.028255,262.019399 279.004046,273.316784 279.964984,277.904206 C280.127983,279.064 280.809802,280.087342 281.818642,280.686359 C282.827481,281.285376 284.054325,281.395338 285.154053,280.985311 L313.639995,262.839995 L240.374311,222.279992 L165.819197,265.785194 L196.363319,283.272176 C192.780391,287.380316 185.806721,283.614521 177.391644,288.352576 C167.699891,293.830095 173.273335,301.813581 178.256489,304.018282 C196.006399,311.810054 204.531298,299.745817 205.53342,294.85713 C205.660707,293.680989 206.303539,292.621438 207.289046,291.963413 C208.274553,291.305388 209.501568,291.116437 210.640122,291.447374 L238.754443,307.537589 L271.426358,288.777083 C268.021889,284.915432 261.473779,288.448432 253.580354,283.997947 Z" id="Path" fill="#E1EAFF" fill-rule="nonzero"></path>
                    <path d="M278.05659,329.364148 C281.665293,325.447092 288.56711,329.076532 296.909665,324.3925 C306.596907,318.9141 301.026057,310.915637 296.045222,308.710581 C278.303573,300.931253 269.782642,312.983733 268.808429,317.914292 C268.712456,318.963898 268.193862,319.929697 267.371353,320.590621 C266.548844,321.251546 265.492839,321.55101 264.445054,321.420468 L237.990375,305.943989 L208.997255,322.858548 C212.358975,326.638644 218.862874,323.15986 226.725183,327.583668 C235.794966,332.67858 230.622034,340.197683 225.915626,342.265779 C209.285403,349.565747 201.299602,338.266547 200.352832,333.692084 C200.263087,332.672175 199.752198,331.735538 198.942678,331.106784 C198.133158,330.47803 197.098024,330.21387 196.085506,330.377652 L163.428797,349.415091 L236.35754,391.201585 L310.836791,348.552243 L278.05659,329.364148 Z" id="Path" fill="#E1EAFF" fill-rule="nonzero"></path>
                    <path d="M313.679274,262.916791 L282.924694,280.918557 C281.231357,280.713161 279.911456,279.358092 279.755957,277.66539 C278.795733,273.100022 270.812163,261.809621 254.200299,269.095073 C249.481488,271.159057 244.309999,278.66321 253.390968,283.76166 C260.921863,287.985309 267.204466,284.97818 270.674988,288.053653 L239.124794,307.331963 L263.078593,321.211704 C264.12462,321.341949 267.109905,321.045087 267.93003,320.38513 C268.750155,319.725172 269.265671,318.76125 269.35811,317.714877 C270.373203,312.835127 277.655983,300.493419 295.324091,308.257279 C300.358405,310.457951 305.929929,318.547483 296.245391,323.987653 C288.014906,328.621365 280.583292,323.987653 276.898092,329.539549 L310.986191,348.971187 L386.532787,305.522337 L313.679274,262.916791 Z" id="Path" fill="#F5F8FF" fill-rule="nonzero"></path>
                    <line x1="91.7919979" y1="175.276389" x2="91.7919979" y2="303.460089" id="Path-9-Copy-2" stroke="#4B83FF" stroke-width="1.43999997" opacity="0.399781" stroke-linecap="round" stroke-linejoin="round" stroke-dasharray="1.743995780110453,5.231988255858681"></line>
                    <line x1="229.961594" y1="205.148793" x2="231.156794" y2="336.27169" id="Path-9-Copy-3" stroke="#4B83FF" stroke-width="1.43999997" opacity="0.399781" stroke-linecap="round" stroke-linejoin="round" stroke-dasharray="1.743995780110453,5.231988255858681"></line>
                    <line x1="164.391929" y1="217.988353" x2="164.391929" y2="347.91605" id="Path-9" stroke="#4B83FF" stroke-width="1.43999997" opacity="0.399781" stroke-linecap="round" stroke-linejoin="round" stroke-dasharray="1.743995780110453,5.231988255858681"></line>
                    <line x1="167.014397" y1="217.100793" x2="167.014397" y2="264.111991" id="Path-9-Copy-4" stroke="#4B83FF" stroke-width="1.43999997" opacity="0.399781" stroke-linecap="round" stroke-linejoin="round" stroke-dasharray="1.743995780110453,5.231988255858681"></line>
                    <line x1="195.708658" y1="200.623592" x2="195.708658" y2="330.551288" id="Path-9-Copy" stroke="#4B83FF" stroke-width="1.43999997" opacity="0.399781" stroke-linecap="round" stroke-linejoin="round" stroke-dasharray="1.743995780110453,5.231988255858681"></line>
                    <line x1="239.124794" y1="173.096394" x2="239.523194" y2="307.935989" id="Path-9-Copy-5" stroke="#4B83FF" stroke-width="1.43999997" opacity="0.399781" stroke-linecap="round" stroke-linejoin="round" stroke-dasharray="1.743995780110453,5.231988255858681"></line>
                </g>
            </g>
        </g>
    </g>
</svg>