<?xml version="1.0" encoding="UTF-8"?>
<svg width="462px" height="462px" viewBox="0 0 462 462" version="1.1" xmlns="http://www.w3.org/2000/svg" xmlns:xlink="http://www.w3.org/1999/xlink">
    <!-- Generator: Sketch 63.1 (92452) - https://sketch.com -->
    <title>Service_desktop-Service-detail</title>
    <desc>Created with Sketch.</desc>
    <defs>
        <linearGradient x1="0%" y1="50%" x2="100%" y2="50%" id="linearGradient-1">
            <stop stop-color="#CFD8DB" offset="0%"></stop>
            <stop stop-color="#CFD8DB" offset="100%"></stop>
        </linearGradient>
        <linearGradient x1="0%" y1="49.9793984%" x2="100%" y2="49.9793984%" id="linearGradient-2">
            <stop stop-color="#CFD8DB" offset="0%"></stop>
            <stop stop-color="#CFD8DB" offset="100%"></stop>
        </linearGradient>
        <linearGradient x1="0%" y1="49.9588477%" x2="100%" y2="49.9588477%" id="linearGradient-3">
            <stop stop-color="#CFD8DB" offset="0%"></stop>
            <stop stop-color="#CFD8DB" offset="100%"></stop>
        </linearGradient>
        <linearGradient x1="-1.5%" y1="50.0206016%" x2="98.5%" y2="50.0206016%" id="linearGradient-4">
            <stop stop-color="#CFD8DB" offset="0%"></stop>
            <stop stop-color="#CFD8DB" offset="100%"></stop>
        </linearGradient>
        <linearGradient x1="0%" y1="49.9177632%" x2="100%" y2="49.9177632%" id="linearGradient-5">
            <stop stop-color="#CFD8DB" offset="0%"></stop>
            <stop stop-color="#CFD8DB" offset="100%"></stop>
        </linearGradient>
        <linearGradient x1="3.2394671e-07%" y1="50.0213915%" x2="100%" y2="50.0213915%" id="linearGradient-6">
            <stop stop-color="#CFD8DB" offset="0%"></stop>
            <stop stop-color="#CFD8DB" offset="100%"></stop>
        </linearGradient>
        <linearGradient x1="0.000564198738%" y1="49.8792555%" x2="99.9996513%" y2="49.8792555%" id="linearGradient-7">
            <stop stop-color="#CFD8DB" offset="0%"></stop>
            <stop stop-color="#CFD8DB" offset="100%"></stop>
        </linearGradient>
        <linearGradient x1="0%" y1="50.0019796%" x2="100%" y2="50.0019796%" id="linearGradient-8">
            <stop stop-color="#CFD8DB" offset="0%"></stop>
            <stop stop-color="#CFD8DB" offset="100%"></stop>
        </linearGradient>
    </defs>
    <g id="Services" stroke="none" stroke-width="1" fill="none" fill-rule="evenodd">
        <g id="Service_desktop-MVP" transform="translate(-814.000000, -2653.000000)">
            <rect fill="#FFFFFF" x="0" y="0" width="1400" height="7537"></rect>
            <g id="illustration-management" transform="translate(856.000000, 2698.000000)">
                <g id="Group-9">
                    <g id="Group-20-Copy-5" transform="translate(151.109993, 0.000000)" fill-rule="nonzero">
                        <polygon id="Shape" stroke="#FFFFFF" stroke-width="0.883458479" fill="#F7F7F7" stroke-linecap="round" stroke-linejoin="round" points="37.1526041 43.7331448 -4.74567646e-15 22.2894632 38.6105289 1.42370294e-14 75.7631334 21.4464012"></polygon>
                        <polygon id="Shape" fill="#E6E9ED" points="9.96592056e-14 22.2894632 9.96592056e-14 68.6904905 37.1526041 90.1341721 37.1526041 43.7331448"></polygon>
                        <g id="Group-21" transform="translate(4.675262, 35.398413)">
                            <path d="M0.333947293,10.0184188 C0.149513363,10.0184188 0,9.83368239 0,9.60579859 L0,0.412620188 C0,0.184736389 0.149513363,0 0.333947293,0 C0.518381222,0 0.667894585,0.184736389 0.667894585,0.412620188 L0.667894585,9.60579859 C0.667894585,9.83368239 0.518381222,10.0184188 0.333947293,10.0184188 Z" id="Shape" fill="url(#linearGradient-1)"></path>
                            <path d="M3.67341992,12.6899971 C3.48898582,12.6899971 3.33947293,12.5051846 3.33947293,12.2772069 L3.33947293,3.08436861 C3.33947293,2.85639085 3.48898582,2.67157834 3.67341992,2.67157834 C3.85785401,2.67157834 4.00736751,2.85639085 4.00736751,3.08436861 L4.00736751,12.2772069 C4.00736751,12.5051846 3.85785401,12.6899971 3.67341992,12.6899971 Z" id="Shape" fill="url(#linearGradient-2)"></path>
                            <path d="M7.01289315,15.3615755 C6.82845922,15.3615755 6.67894585,15.1766869 6.67894585,14.9486151 L6.67894585,5.75611704 C6.67894585,5.5280453 6.82845922,5.34315668 7.01289315,5.34315668 C7.19732708,5.34315668 7.34684044,5.5280453 7.34684044,5.75611704 L7.34684044,14.9486151 C7.34684044,15.1766869 7.19732708,15.3615755 7.01289315,15.3615755 Z" id="Shape" fill="url(#linearGradient-3)"></path>
                            <path d="M18.3671014,39.4057805 C18.1826673,39.4057805 18.0331538,39.220968 18.0331538,38.9929903 L18.0331538,29.800152 C18.0331538,29.5721743 18.1826673,29.3873618 18.3671014,29.3873618 C18.5515355,29.3873618 18.7010484,29.5721743 18.7010484,29.800152 L18.7010484,38.9929903 C18.7010484,39.220968 18.5515355,39.4057805 18.3671014,39.4057805 Z" id="Shape" fill="url(#linearGradient-4)"></path>
                            <path d="M21.7065743,42.0773589 C21.5221402,42.0773589 21.3726267,41.8929263 21.3726267,41.6654173 L21.3726267,32.4708816 C21.3726267,32.2433726 21.5221402,32.0589401 21.7065743,32.0589401 C21.8910084,32.0589401 22.0405213,32.2433726 22.0405213,32.4708816 L22.0405213,41.6654173 C22.0405213,41.8929263 21.8910084,42.0773589 21.7065743,42.0773589 Z" id="Shape" fill="url(#linearGradient-5)"></path>
                            <path d="M25.046047,44.7489372 C24.861613,44.7489372 24.7120997,44.5642009 24.7120997,44.336317 L24.7120997,35.1431387 C24.7120997,34.9152548 24.861613,34.7305184 25.046047,34.7305184 C25.230481,34.7305184 25.3799942,34.9152548 25.3799942,35.1431387 L25.3799942,44.336317 C25.3799942,44.5642009 25.230481,44.7489372 25.046047,44.7489372 Z" id="Shape" fill="url(#linearGradient-1)"></path>
                            <path d="M18.0331538,23.3189993 L18.0331538,23.4341932 C18.0331263,23.6521238 18.1594009,23.8537578 18.3650006,23.9640852 C18.5723151,24.0716925 18.8264767,24.0708544 19.0329364,23.9618826 C19.2393962,23.8529109 19.3672527,23.6521156 19.368943,23.4341932 L19.368943,23.3189993 C19.3672466,23.1004927 19.239487,22.8990364 19.0328952,22.7891073 C18.8261829,22.6809245 18.5720861,22.6815617 18.3660263,22.7907796 C18.1599656,22.8999975 18.0331317,23.1012644 18.0331538,23.3189993 Z" id="Shape" fill="url(#linearGradient-6)" opacity="0.6"></path>
                            <path d="M18.0331538,19.9777044 L18.0331538,20.0927449 C18.0322739,20.3105936 18.1587747,20.5123231 18.3650052,20.6219317 C18.5719743,20.7319373 18.8276209,20.7323575 19.0350227,20.6230331 C19.2424253,20.5137087 19.3698311,20.3113765 19.368943,20.0927449 L19.368943,19.9777044 C19.3683278,19.7602197 19.2400757,19.5597178 19.0328936,19.4523523 C18.8271867,19.3420868 18.5724817,19.3410837 18.36574,19.4497249 C18.1589983,19.5583661 18.0320266,19.7599374 18.0331538,19.9777044 Z" id="Shape" fill="url(#linearGradient-7)" opacity="0.6"></path>
                            <path d="M18.0331538,16.6382315 L18.0331538,16.753272 C18.0322739,16.9711207 18.1587747,17.1728502 18.3650052,17.2824587 C18.5719743,17.3924644 18.8276209,17.3928846 19.0350227,17.2835601 C19.2424253,17.1742357 19.3698311,16.9719036 19.368943,16.753272 L19.368943,16.6382315 C19.3683278,16.4207467 19.2400757,16.2202449 19.0328936,16.1128794 C18.8271867,16.0026139 18.5724817,16.0016108 18.36574,16.110252 C18.1589983,16.2188931 18.0320266,16.4204645 18.0331538,16.6382315 Z" id="Shape" fill="url(#linearGradient-7)" opacity="0.6"></path>
                        </g>
                        <polygon id="Shape" fill="url(#linearGradient-8)" points="37.1526041 43.7331448 75.7631334 21.4464012 75.7631334 67.8474286 37.1526041 90.1341721"></polygon>
                    </g>
                    <g id="Group-20-Copy-10" transform="translate(151.109993, 281.519987)" fill-rule="nonzero">
                        <polygon id="Shape" stroke="#FFFFFF" stroke-width="0.883458479" fill="#F7F7F7" stroke-linecap="round" stroke-linejoin="round" points="37.1526041 43.7331448 -4.74567646e-15 22.2894632 38.6105289 1.42370294e-14 75.7631334 21.4464012"></polygon>
                        <polygon id="Shape" fill="#E6E9ED" points="9.96592056e-14 22.2894632 9.96592056e-14 68.6904905 37.1526041 90.1341721 37.1526041 43.7331448"></polygon>
                        <g id="Group-21" transform="translate(4.675262, 35.398413)">
                            <path d="M0.333947293,10.0184188 C0.149513363,10.0184188 0,9.83368239 0,9.60579859 L0,0.412620188 C0,0.184736389 0.149513363,0 0.333947293,0 C0.518381222,0 0.667894585,0.184736389 0.667894585,0.412620188 L0.667894585,9.60579859 C0.667894585,9.83368239 0.518381222,10.0184188 0.333947293,10.0184188 Z" id="Shape" fill="url(#linearGradient-1)"></path>
                            <path d="M3.67341992,12.6899971 C3.48898582,12.6899971 3.33947293,12.5051846 3.33947293,12.2772069 L3.33947293,3.08436861 C3.33947293,2.85639085 3.48898582,2.67157834 3.67341992,2.67157834 C3.85785401,2.67157834 4.00736751,2.85639085 4.00736751,3.08436861 L4.00736751,12.2772069 C4.00736751,12.5051846 3.85785401,12.6899971 3.67341992,12.6899971 Z" id="Shape" fill="url(#linearGradient-2)"></path>
                            <path d="M7.01289315,15.3615755 C6.82845922,15.3615755 6.67894585,15.1766869 6.67894585,14.9486151 L6.67894585,5.75611704 C6.67894585,5.5280453 6.82845922,5.34315668 7.01289315,5.34315668 C7.19732708,5.34315668 7.34684044,5.5280453 7.34684044,5.75611704 L7.34684044,14.9486151 C7.34684044,15.1766869 7.19732708,15.3615755 7.01289315,15.3615755 Z" id="Shape" fill="url(#linearGradient-3)"></path>
                            <path d="M18.3671014,39.4057805 C18.1826673,39.4057805 18.0331538,39.220968 18.0331538,38.9929903 L18.0331538,29.800152 C18.0331538,29.5721743 18.1826673,29.3873618 18.3671014,29.3873618 C18.5515355,29.3873618 18.7010484,29.5721743 18.7010484,29.800152 L18.7010484,38.9929903 C18.7010484,39.220968 18.5515355,39.4057805 18.3671014,39.4057805 Z" id="Shape" fill="url(#linearGradient-4)"></path>
                            <path d="M21.7065743,42.0773589 C21.5221402,42.0773589 21.3726267,41.8929263 21.3726267,41.6654173 L21.3726267,32.4708816 C21.3726267,32.2433726 21.5221402,32.0589401 21.7065743,32.0589401 C21.8910084,32.0589401 22.0405213,32.2433726 22.0405213,32.4708816 L22.0405213,41.6654173 C22.0405213,41.8929263 21.8910084,42.0773589 21.7065743,42.0773589 Z" id="Shape" fill="url(#linearGradient-5)"></path>
                            <path d="M25.046047,44.7489372 C24.861613,44.7489372 24.7120997,44.5642009 24.7120997,44.336317 L24.7120997,35.1431387 C24.7120997,34.9152548 24.861613,34.7305184 25.046047,34.7305184 C25.230481,34.7305184 25.3799942,34.9152548 25.3799942,35.1431387 L25.3799942,44.336317 C25.3799942,44.5642009 25.230481,44.7489372 25.046047,44.7489372 Z" id="Shape" fill="url(#linearGradient-1)"></path>
                            <path d="M18.0331538,23.3189993 L18.0331538,23.4341932 C18.0331263,23.6521238 18.1594009,23.8537578 18.3650006,23.9640852 C18.5723151,24.0716925 18.8264767,24.0708544 19.0329364,23.9618826 C19.2393962,23.8529109 19.3672527,23.6521156 19.368943,23.4341932 L19.368943,23.3189993 C19.3672466,23.1004927 19.239487,22.8990364 19.0328952,22.7891073 C18.8261829,22.6809245 18.5720861,22.6815617 18.3660263,22.7907796 C18.1599656,22.8999975 18.0331317,23.1012644 18.0331538,23.3189993 Z" id="Shape" fill="url(#linearGradient-6)" opacity="0.6"></path>
                            <path d="M18.0331538,19.9777044 L18.0331538,20.0927449 C18.0322739,20.3105936 18.1587747,20.5123231 18.3650052,20.6219317 C18.5719743,20.7319373 18.8276209,20.7323575 19.0350227,20.6230331 C19.2424253,20.5137087 19.3698311,20.3113765 19.368943,20.0927449 L19.368943,19.9777044 C19.3683278,19.7602197 19.2400757,19.5597178 19.0328936,19.4523523 C18.8271867,19.3420868 18.5724817,19.3410837 18.36574,19.4497249 C18.1589983,19.5583661 18.0320266,19.7599374 18.0331538,19.9777044 Z" id="Shape" fill="url(#linearGradient-7)" opacity="0.6"></path>
                            <path d="M18.0331538,16.6382315 L18.0331538,16.753272 C18.0322739,16.9711207 18.1587747,17.1728502 18.3650052,17.2824587 C18.5719743,17.3924644 18.8276209,17.3928846 19.0350227,17.2835601 C19.2424253,17.1742357 19.3698311,16.9719036 19.368943,16.753272 L19.368943,16.6382315 C19.3683278,16.4207467 19.2400757,16.2202449 19.0328936,16.1128794 C18.8271867,16.0026139 18.5724817,16.0016108 18.36574,16.110252 C18.1589983,16.2188931 18.0320266,16.4204645 18.0331538,16.6382315 Z" id="Shape" fill="url(#linearGradient-7)" opacity="0.6"></path>
                        </g>
                        <polygon id="Shape" fill="url(#linearGradient-8)" points="37.1526041 43.7331448 75.7631334 21.4464012 75.7631334 67.8474286 37.1526041 90.1341721"></polygon>
                    </g>
                    <g id="Group-20-Copy-8" transform="translate(302.219986, 140.759993)" fill-rule="nonzero">
                        <polygon id="Shape" stroke="#FFFFFF" stroke-width="0.883458479" fill="#F7F7F7" stroke-linecap="round" stroke-linejoin="round" points="37.1526041 43.7331448 -4.74567646e-15 22.2894632 38.6105289 1.42370294e-14 75.7631334 21.4464012"></polygon>
                        <polygon id="Shape" fill="#E6E9ED" points="9.96592056e-14 22.2894632 9.96592056e-14 68.6904905 37.1526041 90.1341721 37.1526041 43.7331448"></polygon>
                        <g id="Group-21" transform="translate(4.675262, 35.398413)">
                            <path d="M0.333947293,10.0184188 C0.149513363,10.0184188 0,9.83368239 0,9.60579859 L0,0.412620188 C0,0.184736389 0.149513363,0 0.333947293,0 C0.518381222,0 0.667894585,0.184736389 0.667894585,0.412620188 L0.667894585,9.60579859 C0.667894585,9.83368239 0.518381222,10.0184188 0.333947293,10.0184188 Z" id="Shape" fill="url(#linearGradient-1)"></path>
                            <path d="M3.67341992,12.6899971 C3.48898582,12.6899971 3.33947293,12.5051846 3.33947293,12.2772069 L3.33947293,3.08436861 C3.33947293,2.85639085 3.48898582,2.67157834 3.67341992,2.67157834 C3.85785401,2.67157834 4.00736751,2.85639085 4.00736751,3.08436861 L4.00736751,12.2772069 C4.00736751,12.5051846 3.85785401,12.6899971 3.67341992,12.6899971 Z" id="Shape" fill="url(#linearGradient-2)"></path>
                            <path d="M7.01289315,15.3615755 C6.82845922,15.3615755 6.67894585,15.1766869 6.67894585,14.9486151 L6.67894585,5.75611704 C6.67894585,5.5280453 6.82845922,5.34315668 7.01289315,5.34315668 C7.19732708,5.34315668 7.34684044,5.5280453 7.34684044,5.75611704 L7.34684044,14.9486151 C7.34684044,15.1766869 7.19732708,15.3615755 7.01289315,15.3615755 Z" id="Shape" fill="url(#linearGradient-3)"></path>
                            <path d="M18.3671014,39.4057805 C18.1826673,39.4057805 18.0331538,39.220968 18.0331538,38.9929903 L18.0331538,29.800152 C18.0331538,29.5721743 18.1826673,29.3873618 18.3671014,29.3873618 C18.5515355,29.3873618 18.7010484,29.5721743 18.7010484,29.800152 L18.7010484,38.9929903 C18.7010484,39.220968 18.5515355,39.4057805 18.3671014,39.4057805 Z" id="Shape" fill="url(#linearGradient-4)"></path>
                            <path d="M21.7065743,42.0773589 C21.5221402,42.0773589 21.3726267,41.8929263 21.3726267,41.6654173 L21.3726267,32.4708816 C21.3726267,32.2433726 21.5221402,32.0589401 21.7065743,32.0589401 C21.8910084,32.0589401 22.0405213,32.2433726 22.0405213,32.4708816 L22.0405213,41.6654173 C22.0405213,41.8929263 21.8910084,42.0773589 21.7065743,42.0773589 Z" id="Shape" fill="url(#linearGradient-5)"></path>
                            <path d="M25.046047,44.7489372 C24.861613,44.7489372 24.7120997,44.5642009 24.7120997,44.336317 L24.7120997,35.1431387 C24.7120997,34.9152548 24.861613,34.7305184 25.046047,34.7305184 C25.230481,34.7305184 25.3799942,34.9152548 25.3799942,35.1431387 L25.3799942,44.336317 C25.3799942,44.5642009 25.230481,44.7489372 25.046047,44.7489372 Z" id="Shape" fill="url(#linearGradient-1)"></path>
                            <path d="M18.0331538,23.3189993 L18.0331538,23.4341932 C18.0331263,23.6521238 18.1594009,23.8537578 18.3650006,23.9640852 C18.5723151,24.0716925 18.8264767,24.0708544 19.0329364,23.9618826 C19.2393962,23.8529109 19.3672527,23.6521156 19.368943,23.4341932 L19.368943,23.3189993 C19.3672466,23.1004927 19.239487,22.8990364 19.0328952,22.7891073 C18.8261829,22.6809245 18.5720861,22.6815617 18.3660263,22.7907796 C18.1599656,22.8999975 18.0331317,23.1012644 18.0331538,23.3189993 Z" id="Shape" fill="url(#linearGradient-6)" opacity="0.6"></path>
                            <path d="M18.0331538,19.9777044 L18.0331538,20.0927449 C18.0322739,20.3105936 18.1587747,20.5123231 18.3650052,20.6219317 C18.5719743,20.7319373 18.8276209,20.7323575 19.0350227,20.6230331 C19.2424253,20.5137087 19.3698311,20.3113765 19.368943,20.0927449 L19.368943,19.9777044 C19.3683278,19.7602197 19.2400757,19.5597178 19.0328936,19.4523523 C18.8271867,19.3420868 18.5724817,19.3410837 18.36574,19.4497249 C18.1589983,19.5583661 18.0320266,19.7599374 18.0331538,19.9777044 Z" id="Shape" fill="url(#linearGradient-7)" opacity="0.6"></path>
                            <path d="M18.0331538,16.6382315 L18.0331538,16.753272 C18.0322739,16.9711207 18.1587747,17.1728502 18.3650052,17.2824587 C18.5719743,17.3924644 18.8276209,17.3928846 19.0350227,17.2835601 C19.2424253,17.1742357 19.3698311,16.9719036 19.368943,16.753272 L19.368943,16.6382315 C19.3683278,16.4207467 19.2400757,16.2202449 19.0328936,16.1128794 C18.8271867,16.0026139 18.5724817,16.0016108 18.36574,16.110252 C18.1589983,16.2188931 18.0320266,16.4204645 18.0331538,16.6382315 Z" id="Shape" fill="url(#linearGradient-7)" opacity="0.6"></path>
                        </g>
                        <polygon id="Shape" fill="url(#linearGradient-8)" points="37.1526041 43.7331448 75.7631334 21.4464012 75.7631334 67.8474286 37.1526041 90.1341721"></polygon>
                    </g>
                    <g id="Group-20-Copy-9" transform="translate(0.000000, 140.759993)" fill-rule="nonzero">
                        <polygon id="Shape" stroke="#FFFFFF" stroke-width="0.883458479" fill="#F7F7F7" stroke-linecap="round" stroke-linejoin="round" points="37.1526041 43.7331448 -4.74567646e-15 22.2894632 38.6105289 1.42370294e-14 75.7631334 21.4464012"></polygon>
                        <polygon id="Shape" fill="#E6E9ED" points="9.96592056e-14 22.2894632 9.96592056e-14 68.6904905 37.1526041 90.1341721 37.1526041 43.7331448"></polygon>
                        <g id="Group-21" transform="translate(4.675262, 35.398413)">
                            <path d="M0.333947293,10.0184188 C0.149513363,10.0184188 0,9.83368239 0,9.60579859 L0,0.412620188 C0,0.184736389 0.149513363,0 0.333947293,0 C0.518381222,0 0.667894585,0.184736389 0.667894585,0.412620188 L0.667894585,9.60579859 C0.667894585,9.83368239 0.518381222,10.0184188 0.333947293,10.0184188 Z" id="Shape" fill="url(#linearGradient-1)"></path>
                            <path d="M3.67341992,12.6899971 C3.48898582,12.6899971 3.33947293,12.5051846 3.33947293,12.2772069 L3.33947293,3.08436861 C3.33947293,2.85639085 3.48898582,2.67157834 3.67341992,2.67157834 C3.85785401,2.67157834 4.00736751,2.85639085 4.00736751,3.08436861 L4.00736751,12.2772069 C4.00736751,12.5051846 3.85785401,12.6899971 3.67341992,12.6899971 Z" id="Shape" fill="url(#linearGradient-2)"></path>
                            <path d="M7.01289315,15.3615755 C6.82845922,15.3615755 6.67894585,15.1766869 6.67894585,14.9486151 L6.67894585,5.75611704 C6.67894585,5.5280453 6.82845922,5.34315668 7.01289315,5.34315668 C7.19732708,5.34315668 7.34684044,5.5280453 7.34684044,5.75611704 L7.34684044,14.9486151 C7.34684044,15.1766869 7.19732708,15.3615755 7.01289315,15.3615755 Z" id="Shape" fill="url(#linearGradient-3)"></path>
                            <path d="M18.3671014,39.4057805 C18.1826673,39.4057805 18.0331538,39.220968 18.0331538,38.9929903 L18.0331538,29.800152 C18.0331538,29.5721743 18.1826673,29.3873618 18.3671014,29.3873618 C18.5515355,29.3873618 18.7010484,29.5721743 18.7010484,29.800152 L18.7010484,38.9929903 C18.7010484,39.220968 18.5515355,39.4057805 18.3671014,39.4057805 Z" id="Shape" fill="url(#linearGradient-4)"></path>
                            <path d="M21.7065743,42.0773589 C21.5221402,42.0773589 21.3726267,41.8929263 21.3726267,41.6654173 L21.3726267,32.4708816 C21.3726267,32.2433726 21.5221402,32.0589401 21.7065743,32.0589401 C21.8910084,32.0589401 22.0405213,32.2433726 22.0405213,32.4708816 L22.0405213,41.6654173 C22.0405213,41.8929263 21.8910084,42.0773589 21.7065743,42.0773589 Z" id="Shape" fill="url(#linearGradient-5)"></path>
                            <path d="M25.046047,44.7489372 C24.861613,44.7489372 24.7120997,44.5642009 24.7120997,44.336317 L24.7120997,35.1431387 C24.7120997,34.9152548 24.861613,34.7305184 25.046047,34.7305184 C25.230481,34.7305184 25.3799942,34.9152548 25.3799942,35.1431387 L25.3799942,44.336317 C25.3799942,44.5642009 25.230481,44.7489372 25.046047,44.7489372 Z" id="Shape" fill="url(#linearGradient-1)"></path>
                            <path d="M18.0331538,23.3189993 L18.0331538,23.4341932 C18.0331263,23.6521238 18.1594009,23.8537578 18.3650006,23.9640852 C18.5723151,24.0716925 18.8264767,24.0708544 19.0329364,23.9618826 C19.2393962,23.8529109 19.3672527,23.6521156 19.368943,23.4341932 L19.368943,23.3189993 C19.3672466,23.1004927 19.239487,22.8990364 19.0328952,22.7891073 C18.8261829,22.6809245 18.5720861,22.6815617 18.3660263,22.7907796 C18.1599656,22.8999975 18.0331317,23.1012644 18.0331538,23.3189993 Z" id="Shape" fill="url(#linearGradient-6)" opacity="0.6"></path>
                            <path d="M18.0331538,19.9777044 L18.0331538,20.0927449 C18.0322739,20.3105936 18.1587747,20.5123231 18.3650052,20.6219317 C18.5719743,20.7319373 18.8276209,20.7323575 19.0350227,20.6230331 C19.2424253,20.5137087 19.3698311,20.3113765 19.368943,20.0927449 L19.368943,19.9777044 C19.3683278,19.7602197 19.2400757,19.5597178 19.0328936,19.4523523 C18.8271867,19.3420868 18.5724817,19.3410837 18.36574,19.4497249 C18.1589983,19.5583661 18.0320266,19.7599374 18.0331538,19.9777044 Z" id="Shape" fill="url(#linearGradient-7)" opacity="0.6"></path>
                            <path d="M18.0331538,16.6382315 L18.0331538,16.753272 C18.0322739,16.9711207 18.1587747,17.1728502 18.3650052,17.2824587 C18.5719743,17.3924644 18.8276209,17.3928846 19.0350227,17.2835601 C19.2424253,17.1742357 19.3698311,16.9719036 19.368943,16.753272 L19.368943,16.6382315 C19.3683278,16.4207467 19.2400757,16.2202449 19.0328936,16.1128794 C18.8271867,16.0026139 18.5724817,16.0016108 18.36574,16.110252 C18.1589983,16.2188931 18.0320266,16.4204645 18.0331538,16.6382315 Z" id="Shape" fill="url(#linearGradient-7)" opacity="0.6"></path>
                        </g>
                        <polygon id="Shape" fill="url(#linearGradient-8)" points="37.1526041 43.7331448 75.7631334 21.4464012 75.7631334 67.8474286 37.1526041 90.1341721"></polygon>
                    </g>
                    <g id="Group-4" transform="translate(58.994997, 56.924997)" stroke="#6291FB" stroke-width="2.0699999">
                        <path d="M65.3848524,3.10499985 C37.6503014,16.2937686 14.7349763,37.9745984 3.52997614e-13,64.7863662" id="Oval"></path>
                        <polyline id="Path-6" points="55.3724974 0 65.2049969 3.10499985 60.5474971 12.9374994"></polyline>
                    </g>
                    <g id="Group-8" transform="translate(56.407497, 247.364988)" stroke="#6291FB" stroke-width="2.0699999">
                        <path d="M67.9723522,-2.05915275e-13 C40.2378013,13.1887688 17.3224762,34.8695985 2.58749988,61.6813663" id="Oval-Copy-2" transform="translate(35.279926, 30.840683) scale(1, -1) translate(-35.279926, -30.840683) "></path>
                        <polyline id="Path-14" points="0 9.83249954 2.58749988 0 12.9374994 3.10499985"></polyline>
                    </g>
                    <g id="Group-6" transform="translate(249.434988, 60.029997)" stroke="#6291FB" stroke-width="2.0699999">
                        <path d="M65.3848524,-2.05915275e-13 C37.6503014,13.1887688 14.7349763,34.8695985 3.52997614e-13,61.6813663" id="Oval-Copy" transform="translate(32.692426, 30.840683) scale(-1, 1) translate(-32.692426, -30.840683) "></path>
                        <polyline id="Path-12" points="68.3099968 53.3024975 65.611604 61.8412471 56.1487473 59.0812472"></polyline>
                    </g>
                    <g id="Group-7" transform="translate(249.434988, 247.364988)" stroke="#6291FB" stroke-width="2.0699999">
                        <path d="M65.3848524,-2.05915275e-13 C37.6503014,13.1887688 14.7349763,34.8695985 3.52997614e-13,61.6813663" id="Oval-Copy-3" transform="translate(32.692426, 30.840683) scale(-1, -1) translate(-32.692426, -30.840683) "></path>
                        <polyline id="Path-13" points="3.62249983 52.7849975 0 61.5824971 8.79749958 63.652497"></polyline>
                    </g>
                </g>
            </g>
        </g>
    </g>
</svg>