<?xml version="1.0" encoding="UTF-8"?>
<svg width="464px" height="464px" viewBox="0 0 464 464" version="1.1" xmlns="http://www.w3.org/2000/svg" xmlns:xlink="http://www.w3.org/1999/xlink">
    <!-- Generator: Sketch 63.1 (92452) - https://sketch.com -->
    <title>Competetive</title>
    <desc>Created with Sketch.</desc>
    <defs>
        <linearGradient x1="0%" y1="50%" x2="100%" y2="50%" id="linearGradient-1">
            <stop stop-color="#CFD8DB" offset="0%"></stop>
            <stop stop-color="#CFD8DB" offset="100%"></stop>
        </linearGradient>
        <linearGradient x1="0%" y1="49.9793984%" x2="100%" y2="49.9793984%" id="linearGradient-2">
            <stop stop-color="#CFD8DB" offset="0%"></stop>
            <stop stop-color="#CFD8DB" offset="100%"></stop>
        </linearGradient>
        <linearGradient x1="0%" y1="49.9588477%" x2="100%" y2="49.9588477%" id="linearGradient-3">
            <stop stop-color="#CFD8DB" offset="0%"></stop>
            <stop stop-color="#CFD8DB" offset="100%"></stop>
        </linearGradient>
        <linearGradient x1="-1.5%" y1="50.0206016%" x2="98.5%" y2="50.0206016%" id="linearGradient-4">
            <stop stop-color="#CFD8DB" offset="0%"></stop>
            <stop stop-color="#CFD8DB" offset="100%"></stop>
        </linearGradient>
        <linearGradient x1="0%" y1="49.9177632%" x2="100%" y2="49.9177632%" id="linearGradient-5">
            <stop stop-color="#CFD8DB" offset="0%"></stop>
            <stop stop-color="#CFD8DB" offset="100%"></stop>
        </linearGradient>
        <linearGradient x1="3.2394671e-07%" y1="50.0213915%" x2="100%" y2="50.0213915%" id="linearGradient-6">
            <stop stop-color="#CFD8DB" offset="0%"></stop>
            <stop stop-color="#CFD8DB" offset="100%"></stop>
        </linearGradient>
        <linearGradient x1="0.000564198738%" y1="49.8792555%" x2="99.9996513%" y2="49.8792555%" id="linearGradient-7">
            <stop stop-color="#CFD8DB" offset="0%"></stop>
            <stop stop-color="#CFD8DB" offset="100%"></stop>
        </linearGradient>
    </defs>
    <g id="Services" stroke="none" stroke-width="1" fill="none" fill-rule="evenodd">
        <g id="Service_desktop-MVP" transform="translate(-128.000000, -3243.000000)">
            <rect fill="#FFFFFF" x="0" y="0" width="1400" height="7537"></rect>
            <g id="illustration-design" transform="translate(248.000000, 3328.000000)">
                <polygon id="Path" fill="#E6E9ED" fill-rule="nonzero" points="0 60.5000013 108.900002 124.461029 108.900002 264.000006 0 201.451451"></polygon>
                <polygon id="Path" fill="#F7F7F7" fill-rule="nonzero" points="1.50526319 61.4957908 108.141581 0 217.394742 61.4957908 108.795792 124.300003"></polygon>
                <path d="M108.900007,263.560018 L108.900007,125.62001 L217.800013,62.9200057" id="Path-2" stroke="#82A9FF" stroke-width="2.20000005" stroke-linecap="round" stroke-linejoin="round" stroke-dasharray="3.960000243186954,7.920000486373908"></path>
                <path d="M108.900002,264.22001 L217.800005,202.180014 L217.800005,68.2000061" id="Path-4" stroke="#82A9FF" stroke-width="2.20000005" stroke-linecap="round" stroke-linejoin="round" stroke-dasharray="3.960000243186954,7.920000486373908"></path>
                <g id="Group-21" transform="translate(15.400000, 93.500002)" fill-rule="nonzero">
                    <path d="M1.00284375,30.0853125 C0.448988643,30.0853125 0,29.5305491 0,28.8462141 L0,1.23909846 C0,0.554763393 0.448988643,0 1.00284375,0 C1.55669886,0 2.0056875,0.554763393 2.0056875,1.23909846 L2.0056875,28.8462141 C2.0056875,29.5305491 1.55669886,30.0853125 1.00284375,30.0853125 Z" id="Shape" fill="url(#linearGradient-1)"></path>
                    <path d="M11.0312804,38.1080626 C10.4774247,38.1080626 10.0284375,37.5530706 10.0284375,36.8684533 L10.0284375,9.26235924 C10.0284375,8.57774198 10.4774247,8.02275001 11.0312804,8.02275001 C11.585136,8.02275001 12.034125,8.57774198 12.034125,9.26235924 L12.034125,36.8684533 C12.034125,37.5530706 11.585136,38.1080626 11.0312804,38.1080626 Z" id="Shape" fill="url(#linearGradient-2)"></path>
                    <path d="M21.0597188,46.1308126 C20.5058637,46.1308126 20.056875,45.575592 20.056875,44.8906926 L20.056875,17.28562 C20.056875,16.6007205 20.5058637,16.0455 21.0597188,16.0455 C21.6135739,16.0455 22.0625625,16.6007205 22.0625625,17.28562 L22.0625625,44.8906926 C22.0625625,45.575592 21.6135739,46.1308126 21.0597188,46.1308126 Z" id="Shape" fill="url(#linearGradient-3)"></path>
                    <path d="M55.1564072,118.335563 C54.6025516,118.335563 54.1535626,117.780571 54.1535626,117.095953 L54.1535626,89.4898594 C54.1535626,88.8052421 54.6025516,88.2502501 55.1564072,88.2502501 C55.7102628,88.2502501 56.1592501,88.8052421 56.1592501,89.4898594 L56.1592501,117.095953 C56.1592501,117.780571 55.7102628,118.335563 55.1564072,118.335563 Z" id="Shape" fill="url(#linearGradient-4)"></path>
                    <path d="M65.1848448,126.358313 C64.6309891,126.358313 64.1820001,125.804462 64.1820001,125.121252 L64.1820001,97.5100606 C64.1820001,96.8268511 64.6309891,96.2730001 65.1848448,96.2730001 C65.7387004,96.2730001 66.1876876,96.8268511 66.1876876,97.5100606 L66.1876876,125.121252 C66.1876876,125.804462 65.7387004,126.358313 65.1848448,126.358313 Z" id="Shape" fill="url(#linearGradient-5)"></path>
                    <path d="M75.2132814,134.381063 C74.659426,134.381063 74.2104376,133.8263 74.2104376,133.141964 L74.2104376,105.534849 C74.2104376,104.850513 74.659426,104.29575 75.2132814,104.29575 C75.7671367,104.29575 76.2161251,104.850513 76.2161251,105.534849 L76.2161251,133.141964 C76.2161251,133.8263 75.7671367,134.381063 75.2132814,134.381063 Z" id="Shape" fill="url(#linearGradient-1)"></path>
                    <path d="M54.1535626,70.026957 L54.1535626,70.3728843 C54.1534801,71.02733 54.5326827,71.632837 55.1500987,71.9641501 C55.7726639,72.2872949 56.5359113,72.2847781 57.1559099,71.9575357 C57.7759085,71.6302936 58.1598617,71.0273053 58.1649376,70.3728843 L58.1649376,70.026957 C58.1598433,69.3707819 57.7761812,68.7658085 57.1557862,68.4356914 C56.535029,68.1108184 55.7719764,68.112732 55.1531786,68.4407133 C54.5343785,68.7686946 54.1534961,69.3730991 54.1535626,70.026957 Z" id="Shape" fill="url(#linearGradient-6)" opacity="0.6"></path>
                    <path d="M54.1535626,59.9930481 L54.1535626,60.338515 C54.1509201,60.9927145 54.5308022,61.5985081 55.1501122,61.9276629 C55.7716405,62.2580096 56.5393473,62.2592716 57.1621749,61.9309702 C57.7850049,61.6026691 58.1676047,60.9950656 58.1649376,60.338515 L58.1649376,59.9930481 C58.1630903,59.3399416 57.777949,58.7378344 57.1557814,58.4154158 C56.5380434,58.0842886 55.7731644,58.0812763 55.152319,58.4075258 C54.5314736,58.7337752 54.1501776,59.3390938 54.1535626,59.9930481 Z" id="Shape" fill="url(#linearGradient-7)" opacity="0.6"></path>
                    <path d="M54.1535626,49.9646106 L54.1535626,50.3100775 C54.1509201,50.964277 54.5308022,51.5700706 55.1501122,51.8992252 C55.7716405,52.2295722 56.5393473,52.2308341 57.1621749,51.9025328 C57.7850049,51.5742314 58.1676047,50.9666281 58.1649376,50.3100775 L58.1649376,49.9646106 C58.1630903,49.3115039 57.777949,48.7093969 57.1557814,48.3869782 C56.5380434,48.0558511 55.7731644,48.0528388 55.152319,48.3790883 C54.5314736,48.7053376 54.1501776,49.3106563 54.1535626,49.9646106 Z" id="Shape" fill="url(#linearGradient-7)" opacity="0.6"></path>
                </g>
            </g>
            <g id="illustration-goals" transform="translate(128.000000, 1546.000000)"></g>
        </g>
    </g>
</svg>