<?xml version="1.0" encoding="UTF-8"?>
<svg width="255px" height="365px" viewBox="0 0 255 365" version="1.1" xmlns="http://www.w3.org/2000/svg" xmlns:xlink="http://www.w3.org/1999/xlink">
    <!-- Generator: Sketch 63.1 (92452) - https://sketch.com -->
    <title>illustration-risk</title>
    <desc>Created with Sketch.</desc>
    <defs>
        <linearGradient x1="0%" y1="50%" x2="100%" y2="50%" id="linearGradient-1">
            <stop stop-color="#CFD8DB" offset="0%"></stop>
            <stop stop-color="#CFD8DB" offset="100%"></stop>
        </linearGradient>
        <linearGradient x1="0%" y1="49.9793984%" x2="100%" y2="49.9793984%" id="linearGradient-2">
            <stop stop-color="#CFD8DB" offset="0%"></stop>
            <stop stop-color="#CFD8DB" offset="100%"></stop>
        </linearGradient>
        <linearGradient x1="0%" y1="49.9588477%" x2="100%" y2="49.9588477%" id="linearGradient-3">
            <stop stop-color="#CFD8DB" offset="0%"></stop>
            <stop stop-color="#CFD8DB" offset="100%"></stop>
        </linearGradient>
        <linearGradient x1="-1.5%" y1="50.0206016%" x2="98.5%" y2="50.0206016%" id="linearGradient-4">
            <stop stop-color="#CFD8DB" offset="0%"></stop>
            <stop stop-color="#CFD8DB" offset="100%"></stop>
        </linearGradient>
        <linearGradient x1="0%" y1="49.9177632%" x2="100%" y2="49.9177632%" id="linearGradient-5">
            <stop stop-color="#CFD8DB" offset="0%"></stop>
            <stop stop-color="#CFD8DB" offset="100%"></stop>
        </linearGradient>
        <linearGradient x1="3.2394671e-07%" y1="50.0213915%" x2="100%" y2="50.0213915%" id="linearGradient-6">
            <stop stop-color="#CFD8DB" offset="0%"></stop>
            <stop stop-color="#CFD8DB" offset="100%"></stop>
        </linearGradient>
        <linearGradient x1="0.000564198738%" y1="49.8792555%" x2="99.9996513%" y2="49.8792555%" id="linearGradient-7">
            <stop stop-color="#CFD8DB" offset="0%"></stop>
            <stop stop-color="#CFD8DB" offset="100%"></stop>
        </linearGradient>
        <linearGradient x1="0%" y1="50.0019796%" x2="100%" y2="50.0019796%" id="linearGradient-8">
            <stop stop-color="#CFD8DB" offset="0%"></stop>
            <stop stop-color="#CFD8DB" offset="100%"></stop>
        </linearGradient>
        <linearGradient x1="0%" y1="50.0019796%" x2="100%" y2="50.0019796%" id="linearGradient-9">
            <stop stop-color="#CFD8DB" offset="0%"></stop>
            <stop stop-color="#CFD8DB" offset="100%"></stop>
        </linearGradient>
        <linearGradient x1="23.976217%" y1="24.6689779%" x2="76.023783%" y2="75.335199%" id="linearGradient-10">
            <stop stop-color="#CFD8DB" offset="0%"></stop>
            <stop stop-color="#CFD8DB" offset="100%"></stop>
        </linearGradient>
        <linearGradient x1="50%" y1="100%" x2="50%" y2="0%" id="linearGradient-11">
            <stop stop-color="#004FFF" offset="0%"></stop>
            <stop stop-color="#FFFFFF" stop-opacity="0" offset="100%"></stop>
        </linearGradient>
        <linearGradient x1="50.0034846%" y1="100%" x2="50.0034846%" y2="25.4750845%" id="linearGradient-12">
            <stop stop-color="#004FFF" offset="0%"></stop>
            <stop stop-color="#FFFFFF" stop-opacity="0" offset="100%"></stop>
        </linearGradient>
    </defs>
    <g id="Services" stroke="none" stroke-width="1" fill="none" fill-rule="evenodd">
        <g id="Service_desktop-Development-Team" transform="translate(-924.000000, -5300.000000)">
            <g id="Risk-management" transform="translate(128.000000, 5252.000000)">
                <g id="illustration-risk" transform="translate(685.000000, 0.000000)">
                    <g id="Group-20-Copy-16" opacity="0.402392" transform="translate(212.000000, 344.000000)">
                        <polygon id="Shape" stroke="#FFFFFF" stroke-width="0.603784188" fill="#E9EFFF" fill-rule="nonzero" opacity="0.401206" stroke-linecap="round" stroke-linejoin="round" points="29.2941487 33.2096098 1.08159986 16.9259352 30.4012522 0 58.6138014 16.2857398"></polygon>
                        <polygon id="Shape" fill="#CBDBFF" fill-rule="nonzero" opacity="0.401206" points="1.08159986 16.9259352 1.08159986 52.1614533 29.2941487 68.4451279 29.2941487 33.2096098"></polygon>
                        <polygon id="Shape" fill="#9CBAFB" fill-rule="nonzero" opacity="0.401206" points="29.2941487 33.2096098 58.6138014 16.2857398 58.6138014 51.5212579 29.2941487 68.4451279"></polygon>
                        <line x1="1.37092583" y1="19.3160204" x2="1.62239978" y2="51.3759932" id="Path-9-Copy-8" stroke="#4B83FF" stroke-width="1.08159986" stroke-linecap="round" stroke-linejoin="round" stroke-dasharray="1.768411721681844,5.305235737250086"></line>
                        <line x1="1.49760259" y1="52.4160015" x2="28.6623962" y2="67.599991" id="Path-9-Copy-11" stroke="#4B83FF" stroke-width="1.08159986" stroke-linecap="round" stroke-linejoin="round" stroke-dasharray="1.768411721681844,5.305235737250086"></line>
                        <line x1="1.97459424" y1="18.4945119" x2="28.6623962" y2="33.0754927" id="Path-9-Copy-14" stroke="#4B83FF" stroke-width="1.08159986" stroke-linecap="round" stroke-linejoin="round" stroke-dasharray="1.768411721681844,5.305235737250086"></line>
                        <line x1="31.4796246" y1="52.0241075" x2="58.1674265" y2="66.6050883" id="Path-9-Copy-12" stroke="#4B83FF" stroke-width="1.08159986" stroke-linecap="round" stroke-linejoin="round" stroke-dasharray="1.768411721681844,5.305235737250086" transform="translate(44.710297, 59.207283) scale(-1, 1) translate(-44.710297, -59.207283) "></line>
                        <line x1="31.4796246" y1="17.4129121" x2="58.1674265" y2="31.9938929" id="Path-9-Copy-13" stroke="#4B83FF" stroke-width="1.08159986" stroke-linecap="round" stroke-linejoin="round" stroke-dasharray="1.768411721681844,5.305235737250086" transform="translate(44.710297, 24.596088) scale(-1, 1) translate(-44.710297, -24.596088) "></line>
                        <line x1="29.6182591" y1="35.8868067" x2="29.869733" y2="67.9467795" id="Path-9-Copy-9" stroke="#4B83FF" stroke-width="1.08159986" stroke-linecap="round" stroke-linejoin="round" stroke-dasharray="1.768411721681844,5.305235737250086"></line>
                        <line x1="57.7398553" y1="19.6628089" x2="57.9913293" y2="51.7227816" id="Path-9-Copy-10" stroke="#4B83FF" stroke-width="1.08159986" stroke-linecap="round" stroke-linejoin="round" stroke-dasharray="1.768411721681844,5.305235737250086"></line>
                    </g>
                    <g id="Group-20-Copy-11" transform="translate(313.000000, 290.000000)" fill-rule="nonzero">
                        <polygon id="Shape" stroke="#FFFFFF" stroke-width="0.574599934" fill="#F7F7F7" stroke-linecap="round" stroke-linejoin="round" points="25.6935732 30.2444683 -3.28196068e-15 15.4146921 26.7018282 9.84588203e-15 52.3954017 14.831657"></polygon>
                        <polygon id="Shape" fill="#E6E9ED" points="6.89211742e-14 15.4146921 6.89211742e-14 47.5041842 25.6935732 62.3339604 25.6935732 30.2444683"></polygon>
                        <g id="Group-21" transform="translate(3.233264, 24.480430)">
                            <path d="M0.230947451,6.92842354 C0.103398743,6.92842354 0,6.80066566 0,6.64306838 L0,0.285355153 C0,0.12775788 0.103398743,0 0.230947451,0 C0.35849616,0 0.461894902,0.12775788 0.461894902,0.285355153 L0.461894902,6.64306838 C0.461894902,6.80066566 0.35849616,6.92842354 0.230947451,6.92842354 Z" id="Shape" fill="url(#linearGradient-1)"></path>
                            <path d="M2.54042175,8.77600315 C2.41287293,8.77600315 2.30947451,8.64819263 2.30947451,8.49053037 L2.30947451,2.13305239 C2.30947451,1.97539013 2.41287293,1.84757961 2.54042175,1.84757961 C2.66797058,1.84757961 2.77136941,1.97539013 2.77136941,2.13305239 L2.77136941,8.49053037 C2.77136941,8.64819263 2.66797058,8.77600315 2.54042175,8.77600315 Z" id="Shape" fill="url(#linearGradient-2)"></path>
                            <path d="M4.84989648,10.6235828 C4.72234777,10.6235828 4.61894902,10.4957196 4.61894902,10.3379924 L4.61894902,3.98074962 C4.61894902,3.82302237 4.72234777,3.69515922 4.84989648,3.69515922 C4.97744518,3.69515922 5.08084393,3.82302237 5.08084393,3.98074962 L5.08084393,10.3379924 C5.08084393,10.4957196 4.97744518,10.6235828 4.84989648,10.6235828 Z" id="Shape" fill="url(#linearGradient-3)"></path>
                            <path d="M12.70211,27.2517992 C12.5745612,27.2517992 12.4711624,27.1239887 12.4711624,26.9663265 L12.4711624,20.6088485 C12.4711624,20.4511862 12.5745612,20.3233757 12.70211,20.3233757 C12.8296589,20.3233757 12.9330573,20.4511862 12.9330573,20.6088485 L12.9330573,26.9663265 C12.9330573,27.1239887 12.8296589,27.2517992 12.70211,27.2517992 Z" id="Shape" fill="url(#linearGradient-4)"></path>
                            <path d="M15.0115845,29.0993789 C14.8840357,29.0993789 14.7806369,28.9718311 14.7806369,28.814493 L14.7806369,22.4558411 C14.7806369,22.2985031 14.8840357,22.1709553 15.0115845,22.1709553 C15.1391334,22.1709553 15.2425318,22.2985031 15.2425318,22.4558411 L15.2425318,28.814493 C15.2425318,28.9718311 15.1391334,29.0993789 15.0115845,29.0993789 Z" id="Shape" fill="url(#linearGradient-5)"></path>
                            <path d="M17.3210588,30.9469585 C17.1935101,30.9469585 17.0901114,30.8192006 17.0901114,30.6616033 L17.0901114,24.3038901 C17.0901114,24.1462928 17.1935101,24.0185349 17.3210588,24.0185349 C17.4486076,24.0185349 17.5520063,24.1462928 17.5520063,24.3038901 L17.5520063,30.6616033 C17.5520063,30.8192006 17.4486076,30.9469585 17.3210588,30.9469585 Z" id="Shape" fill="url(#linearGradient-1)"></path>
                            <path d="M12.4711624,16.126687 L12.4711624,16.2063514 C12.4711434,16.3570654 12.5584709,16.4965092 12.7006572,16.5728081 C12.8440293,16.6472259 13.0197995,16.6466463 13.1625806,16.5712849 C13.3053617,16.4959234 13.3937832,16.3570597 13.3949522,16.2063514 L13.3949522,16.126687 C13.393779,15.9755747 13.3054245,15.8362538 13.1625521,15.7602303 C13.0195964,15.6854145 12.843871,15.6858552 12.7013665,15.7613868 C12.5588614,15.8369185 12.4711471,15.9761083 12.4711624,16.126687 Z" id="Shape" fill="url(#linearGradient-6)" opacity="0.6"></path>
                            <path d="M12.4711624,13.8159524 L12.4711624,13.8955109 C12.4705538,14.0461681 12.5580378,14.1856779 12.7006603,14.2614798 C12.8437937,14.3375562 13.0205908,14.3378468 13.1640234,14.2622415 C13.3074565,14.1866361 13.3955664,14.0467096 13.3949522,13.8955109 L13.3949522,13.8159524 C13.3945268,13.6655468 13.3058316,13.5268861 13.162551,13.4526354 C13.0202905,13.3763793 12.8441446,13.3756856 12.7011685,13.4508184 C12.5581925,13.5259512 12.4703828,13.6653516 12.4711624,13.8159524 Z" id="Shape" fill="url(#linearGradient-7)" opacity="0.6"></path>
                            <path d="M12.4711624,11.5064779 L12.4711624,11.5860364 C12.4705538,11.7366936 12.5580378,11.8762034 12.7006603,11.9520053 C12.8437937,12.0280817 13.0205908,12.0283723 13.1640234,11.952767 C13.3074565,11.8771616 13.3955664,11.7372351 13.3949522,11.5860364 L13.3949522,11.5064779 C13.3945268,11.3560723 13.3058316,11.2174115 13.162551,11.1431609 C13.0202905,11.0669048 12.8441446,11.0662111 12.7011685,11.1413439 C12.5581925,11.2164767 12.4703828,11.3558771 12.4711624,11.5064779 Z" id="Shape" fill="url(#linearGradient-7)" opacity="0.6"></path>
                        </g>
                        <polygon id="Shape" fill="url(#linearGradient-8)" points="25.6935732 30.2444683 52.3954017 14.831657 52.3954017 46.9211491 25.6935732 62.3339604"></polygon>
                    </g>
                    <g id="Group-20-Copy-11" transform="translate(111.000000, 288.000000)" fill-rule="nonzero">
                        <polygon id="Shape" stroke="#FFFFFF" stroke-width="0.574599958" fill="#F7F7F7" stroke-linecap="round" stroke-linejoin="round" points="25.6935743 30.2444696 -3.28196081e-15 15.4146928 26.7018293 9.84588244e-15 52.3954039 14.8316576"></polygon>
                        <polygon id="Shape" fill="#E6E9ED" points="6.89211771e-14 15.4146928 6.89211771e-14 47.5041862 25.6935743 62.333963 25.6935743 30.2444696"></polygon>
                        <g id="Group-21" transform="translate(3.233264, 24.480431)">
                            <path d="M0.230947461,6.92842383 C0.103398747,6.92842383 0,6.80066594 0,6.64306866 L0,0.285355165 C0,0.127757885 0.103398747,0 0.230947461,0 C0.358496175,0 0.461894922,0.127757885 0.461894922,0.285355165 L0.461894922,6.64306866 C0.461894922,6.80066594 0.358496175,6.92842383 0.230947461,6.92842383 Z" id="Shape" fill="url(#linearGradient-1)"></path>
                            <path d="M2.54042186,8.77600351 C2.41287303,8.77600351 2.30947461,8.64819299 2.30947461,8.49053072 L2.30947461,2.13305248 C2.30947461,1.97539021 2.41287303,1.84757969 2.54042186,1.84757969 C2.66797069,1.84757969 2.77136953,1.97539021 2.77136953,2.13305248 L2.77136953,8.49053072 C2.77136953,8.64819299 2.66797069,8.77600351 2.54042186,8.77600351 Z" id="Shape" fill="url(#linearGradient-2)"></path>
                            <path d="M4.84989668,10.6235832 C4.72234797,10.6235832 4.61894922,10.49572 4.61894922,10.3379928 L4.61894922,3.98074979 C4.61894922,3.82302253 4.72234797,3.69515937 4.84989668,3.69515937 C4.97744539,3.69515937 5.08084414,3.82302253 5.08084414,3.98074979 L5.08084414,10.3379928 C5.08084414,10.49572 4.97744539,10.6235832 4.84989668,10.6235832 Z" id="Shape" fill="url(#linearGradient-3)"></path>
                            <path d="M12.7021106,27.2518004 C12.5745617,27.2518004 12.4711629,27.1239899 12.4711629,26.9663276 L12.4711629,20.6088494 C12.4711629,20.4511871 12.5745617,20.3233766 12.7021106,20.3233766 C12.8296594,20.3233766 12.9330578,20.4511871 12.9330578,20.6088494 L12.9330578,26.9663276 C12.9330578,27.1239899 12.8296594,27.2518004 12.7021106,27.2518004 Z" id="Shape" fill="url(#linearGradient-4)"></path>
                            <path d="M15.0115852,29.0993801 C14.8840363,29.0993801 14.7806375,28.9718323 14.7806375,28.8144942 L14.7806375,22.4558421 C14.7806375,22.298504 14.8840363,22.1709562 15.0115852,22.1709562 C15.139134,22.1709562 15.2425324,22.298504 15.2425324,22.4558421 L15.2425324,28.8144942 C15.2425324,28.9718323 15.139134,29.0993801 15.0115852,29.0993801 Z" id="Shape" fill="url(#linearGradient-5)"></path>
                            <path d="M17.3210596,30.9469598 C17.1935108,30.9469598 17.0901121,30.8192019 17.0901121,30.6616046 L17.0901121,24.3038911 C17.0901121,24.1462938 17.1935108,24.0185359 17.3210596,24.0185359 C17.4486083,24.0185359 17.552007,24.1462938 17.552007,24.3038911 L17.552007,30.6616046 C17.552007,30.8192019 17.4486083,30.9469598 17.3210596,30.9469598 Z" id="Shape" fill="url(#linearGradient-1)"></path>
                            <path d="M12.4711629,16.1266876 L12.4711629,16.2063521 C12.4711439,16.3570661 12.5584714,16.4965099 12.7006577,16.5728088 C12.8440299,16.6472266 13.0198001,16.646647 13.1625812,16.5712856 C13.3053622,16.4959241 13.3937838,16.3570604 13.3949527,16.2063521 L13.3949527,16.1266876 C13.3937796,15.9755754 13.305425,15.8362545 13.1625527,15.760231 C13.0195969,15.6854152 12.8438716,15.6858558 12.701367,15.7613875 C12.558862,15.8369191 12.4711476,15.976109 12.4711629,16.1266876 Z" id="Shape" fill="url(#linearGradient-6)" opacity="0.6"></path>
                            <path d="M12.4711629,13.815953 L12.4711629,13.8955114 C12.4705543,14.0461687 12.5580384,14.1856785 12.7006609,14.2614804 C12.8437942,14.3375568 13.0205914,14.3378474 13.1640239,14.2622421 C13.3074571,14.1866367 13.395567,14.0467102 13.3949527,13.8955114 L13.3949527,13.815953 C13.3945273,13.6655474 13.3058321,13.5268866 13.1625516,13.452636 C13.0202911,13.3763799 12.8441452,13.3756862 12.7011691,13.450819 C12.558193,13.5259518 12.4703834,13.6653522 12.4711629,13.815953 Z" id="Shape" fill="url(#linearGradient-7)" opacity="0.6"></path>
                            <path d="M12.4711629,11.5064784 L12.4711629,11.5860368 C12.4705543,11.7366941 12.5580384,11.8762039 12.7006609,11.9520058 C12.8437942,12.0280822 13.0205914,12.0283728 13.1640239,11.9527675 C13.3074571,11.8771621 13.395567,11.7372356 13.3949527,11.5860368 L13.3949527,11.5064784 C13.3945273,11.3560728 13.3058321,11.217412 13.1625516,11.1431614 C13.0202911,11.0669053 12.8441452,11.0662115 12.7011691,11.1413444 C12.558193,11.2164772 12.4703834,11.3558776 12.4711629,11.5064784 Z" id="Shape" fill="url(#linearGradient-7)" opacity="0.6"></path>
                        </g>
                        <polygon id="Shape" fill="url(#linearGradient-9)" points="25.6935743 30.2444696 52.3954039 14.8316576 52.3954039 46.921151 25.6935743 62.333963"></polygon>
                    </g>
                    <g id="Group-14" transform="translate(111.000000, 112.000000)">
                        <g id="Group-11" transform="translate(0.000000, 101.021426)" fill-rule="nonzero">
                            <path d="M129.472734,143.15851 C66.6062038,108.109732 62.835751,106.930579 -1.61389806e-14,71.8662859 L124.655788,5.64864321e-14 C187.383812,35.2349601 190.9542,36.6002954 253.666834,71.8352555 C212.268801,95.625189 170.870767,119.399607 129.472734,143.15851 Z" id="Path" fill="#F9F9F9"></path>
                            <polygon id="Path" fill="#EDEFF1" points="129.480589 142.871543 -1.61389806e-14 70.3234787 -1.61389806e-14 89.2599117 33.4282468 108.133951 129.480589 161.995156 253.666834 90.2426097 253.666834 71.2125864"></polygon>
                            <polygon id="Path" fill="#CFD8DB" points="129.606344 142.995389 129.34497 142.85557 129.34497 161.839803 129.606344 161.995156 253.666834 90.5324166 253.666834 71.5792551"></polygon>
                        </g>
                        <g id="Group-5" transform="translate(32.447998, 0.000000)">
                            <polygon id="Shape" stroke="#FFFFFF" stroke-width="1.0461013" fill="#F7F7F7" fill-rule="nonzero" stroke-linecap="round" stroke-linejoin="round" points="94.9407247 111.70061 0.133611171 56.96336 98.6606609 0.0805563995 193.467774 54.8104835"></polygon>
                            <polygon id="Shape" fill="#EDEFF1" fill-rule="nonzero" points="0.133611171 56.96336 0.133611171 175.393533 94.9407247 230.12346 94.9407247 111.70061"></polygon>
                            <polygon id="Shape" fill="url(#linearGradient-10)" fill-rule="nonzero" points="94.9407247 111.70061 193.467774 54.8104835 193.467774 173.240656 94.9407247 230.12346"></polygon>
                            <polygon id="Shape" fill="#E0E8EA" fill-rule="nonzero" opacity="0.4" points="95.4826051 96.4474069 28.4065906 57.717599 98.1187804 17.4719903 165.194795 56.2017982"></polygon>
                            <polygon id="Shape" fill="#DBDEE2" fill-rule="nonzero" points="165.194795 56.2017982 98.1187804 17.4719903 97.8917764 27.4473676 156.017593 61.2553913"></polygon>
                            <polygon id="Shape" fill="#E7E9EB" fill-rule="nonzero" points="98.1187804 17.4719903 28.4065906 57.717599 37.3567887 62.646706 97.8917764 27.4473676"></polygon>
                            <line x1="61.5052354" y1="92.544403" x2="61.5052354" y2="210.974576" id="Shape" stroke="#FFFFFF" stroke-width="1.0461013" opacity="0.4"></line>
                            <line x1="28.4065906" y1="73.3369373" x2="28.4065906" y2="191.76711" id="Shape" stroke="#FFFFFF" stroke-width="1.0461013" opacity="0.4"></line>
                            <polyline id="Shape" stroke="#FFFFFF" stroke-width="1.0461013" opacity="0.4" points="162.111934 73.0879652 161.826349 73.2637102 161.826349 191.693883 162.111934 191.518138"></polyline>
                            <line x1="128.866836" y1="92.544403" x2="128.866836" y2="210.974576" id="Shape" stroke="#FFFFFF" stroke-width="1.0461013" opacity="0.4"></line>
                            <line x1="0.133611171" y1="96.4474069" x2="94.9407247" y2="151.184657" id="Shape" stroke="#FFFFFF" stroke-width="1.0461013" opacity="0.4"></line>
                            <line x1="0.21416097" y1="136.224362" x2="95.0212745" y2="190.961612" id="Shape" stroke="#FFFFFF" stroke-width="1.0461013" opacity="0.4"></line>
                            <line x1="192.471886" y1="94.4556301" x2="94.8894657" y2="150.78923" id="Shape" stroke="#FFFFFF" stroke-width="1.0461013" opacity="0.4"></line>
                            <line x1="193.438484" y1="134.825725" x2="94.9407247" y2="191.693883" id="Shape" stroke="#FFFFFF" stroke-width="1.0461013" opacity="0.4"></line>
                        </g>
                    </g>
                    <g id="Group" opacity="0.3" transform="translate(136.000000, 48.000000)" fill="url(#linearGradient-11)" fill-rule="nonzero">
                        <polygon id="Shape" points="34.5676238 122.041905 103.792066 161.227462 172.509794 121.494564 203.284567 2.68810987 0.545214794 -9.82913297e-13"></polygon>
                    </g>
                    <g id="Group" opacity="0.3" transform="translate(239.000000, 59.000000)" fill="url(#linearGradient-12)" fill-rule="nonzero">
                        <polygon id="Shape" points="0.595993513 149.457607 0.595993513 45.7547358 99.4386176 0.736381092 69.1629126 110.3649"></polygon>
                    </g>
                </g>
            </g>
        </g>
    </g>
</svg>