<?xml version="1.0" encoding="UTF-8"?>
<svg width="464px" height="464px" viewBox="0 0 464 464" version="1.1" xmlns="http://www.w3.org/2000/svg" xmlns:xlink="http://www.w3.org/1999/xlink">
    <!-- Generator: Sketch 63.1 (92452) - https://sketch.com -->
    <title>Competetive</title>
    <desc>Created with Sketch.</desc>
    <defs>
        <linearGradient x1="52.6583186%" y1="38.6691091%" x2="50%" y2="63.4458163%" id="linearGradient-1">
            <stop stop-color="#004FFF" stop-opacity="0.03" offset="0%"></stop>
            <stop stop-color="#D8D8D8" stop-opacity="0" offset="100%"></stop>
        </linearGradient>
    </defs>
    <g id="Services" stroke="none" stroke-width="1" fill="none" fill-rule="evenodd">
        <g id="Service_desktop-MVP" transform="translate(-814.000000, -1469.000000)">
            <rect fill="#FFFFFF" x="0" y="0" width="1400" height="7537"></rect>
            <g id="bg-abstr-hww" transform="translate(-3.000000, 283.000000)" fill="url(#linearGradient-1)" fill-rule="nonzero">
                <path d="M3,500 C435.044792,776.063443 901.027287,914.095164 1400.94749,914.095164 C1403.68417,914.095164 1403.68417,1018.06344 1400.94749,1226 L3,1226 L3,500 Z" id="decor-bg-1"></path>
            </g>
            <g id="illustration-goals" transform="translate(945.000000, 1546.000000)">
                <polygon id="Path" fill="#E5EAF0" fill-rule="nonzero" opacity="0.148763021" points="0 92 99 150.146387 99 277 0 220.137679"></polygon>
                <polygon id="Path" fill="#C8CFDB" fill-rule="nonzero" opacity="0.148763021" points="198 93 99 150.832083 99 277 198 220.445042"></polygon>
                <polygon id="Path" fill="#F4F8FF" fill-rule="nonzero" opacity="0.148763021" points="1.36842105 92.9052632 98.3105263 37 197.631579 92.9052632 98.9052632 150"></polygon>
                <path d="M99.0000039,276.600011 L99.0000039,151.200004 L198.000004,94.200004" id="Path-2" stroke="#82A9FF" stroke-width="2" stroke-linecap="round" stroke-linejoin="round" stroke-dasharray="3.600000143051147,7.200000286102295"></path>
                <path d="M198,93.600004 L99,37.2000017 L0,93.600004 L98.4000039,151.200002" id="Path-3" stroke="#82A9FF" stroke-width="2" stroke-linecap="round" stroke-linejoin="round" stroke-dasharray="3.600000143051147,7.200000286102295"></path>
                <path d="M0,94.200004 L0,220.800009 L99,277.200004 L198,220.800009 L198,99.0000042" id="Path-4" stroke="#82A9FF" stroke-width="2" stroke-linecap="round" stroke-linejoin="round" stroke-dasharray="3.600000143051147,7.200000286102295"></path>
                <g id="Asset-4" transform="translate(78.600003, 0.600000)" fill="#6291FB" fill-rule="nonzero">
                    <path d="M16.7563489,70.2906977 L16.7563489,63.4115926 C16.6438165,61.8849718 16.6438165,60.3521434 16.7563489,58.8255226 C16.9603395,57.5093181 17.2603603,56.2097886 17.6540104,54.9373328 C18.1194646,53.7409667 18.7179056,52.4449035 19.4493335,51.049143 L22.042578,46.2636786 L29.9220516,32.4057714 C31.6294985,29.6151516 32.52733,26.4050618 32.515296,23.1339342 C32.515296,20.0433218 31.7173747,18.0493783 29.9220516,17.1521037 C27.6858605,16.3039885 25.1724715,16.6414624 23.2394601,18.0493783 C20.2151119,19.892894 17.7364271,22.5081556 16.0581677,25.6263635 C14.3244733,28.6969371 13.2382624,32.0898827 12.8664822,35.596081 L0,42.1760945 C0.405024783,38.1674107 1.2752908,34.2194446 2.59324447,30.4118279 C3.91665677,26.9116207 5.62257054,23.5681337 7.67999324,20.4421105 C9.80738968,17.1924649 12.2822113,14.1838443 15.060766,11.4693648 C17.7772819,8.71030194 20.8260632,6.2991193 24.1371216,4.2911682 C26.7908741,2.54035229 29.7261307,1.25883885 32.8145166,0.502675569 C35.0934902,-0.167558523 37.517355,-0.167558523 39.7963286,0.502675569 C41.7942873,1.47750698 43.4091247,3.09164823 44.3843765,5.08874559 C45.5690116,7.92624652 46.1138658,10.9897302 45.9802192,14.0614913 C45.9973719,16.5817704 45.6957611,19.0941104 45.0825577,21.5387794 C44.4640366,23.9033464 43.6293563,26.2060709 42.5890534,28.4178844 C41.5503629,30.7900116 40.3506852,33.0884026 38.9984072,35.2969894 C37.701785,37.5900245 36.2056824,39.9827566 34.7095798,42.475186 L32.2160755,46.6624673 C31.5178943,47.8588334 31.0191935,49.0551995 30.5204926,50.0521713 C30.082604,51.1825821 29.7487544,52.3505519 29.5230909,53.5415724 C29.4125376,54.8685714 29.4125376,56.2024603 29.5230909,57.5294593 L29.5230909,62.1155294 L16.7563489,70.2906977 Z M14.9910968,87.6457634 C15.1101297,84.8826835 15.9602893,82.1981079 17.4574163,79.8577891 C18.8944957,77.2873917 20.9832892,75.127008 23.5204516,73.5869527 C25.2626598,72.3867408 27.4984179,72.1211638 29.4807236,72.8789551 C31.3039661,73.8920407 32.3202958,75.8926409 32.0498064,77.9360812 C31.9808384,80.8168878 31.0906302,83.6206248 29.4807236,86.027483 C28.0770445,88.5621723 26.0217586,90.6896734 23.5204516,92.1971769 C22.5050617,92.5890149 21.425396,92.7946866 20.334789,92.8040321 C19.4289701,93.0653226 18.4659985,93.0653226 17.5601796,92.8040321 C16.7540657,92.4178843 16.1027758,91.7768665 15.71044,90.9834667 C15.1597572,89.8497784 14.9121627,88.5965188 14.9910968,87.3423358 L14.9910968,87.6457634 Z" id="Shape"></path>
                </g>
            </g>
        </g>
    </g>
</svg>