<?xml version="1.0" encoding="UTF-8"?>
<svg width="462px" height="462px" viewBox="0 0 462 462" version="1.1" xmlns="http://www.w3.org/2000/svg" xmlns:xlink="http://www.w3.org/1999/xlink">
    <!-- Generator: Sketch 63.1 (92452) - https://sketch.com -->
    <title>illustration-build once use everywhere</title>
    <desc>Created with Sketch.</desc>
    <g id="Services" stroke="none" stroke-width="1" fill="none" fill-rule="evenodd">
        <g id="Service_desktop-E-commerce" transform="translate(-128.000000, -1838.000000)">
            <rect fill="#FFFFFF" x="0" y="0" width="1400" height="4700"></rect>
            <g id="bg-abstr-hww" transform="translate(-3.000000, 283.000000)"></g>
            <g id="setting" transform="translate(233.000000, 1892.000000)" fill-rule="nonzero">
                <g id="Group">
                    <polygon id="Path" fill="#696969" points="152.351583 123.900127 121.770527 106.096671 134.548127 113.465087 165.129183 131.225951"></polygon>
                    <polygon id="Path" fill="#6291FB" points="95.7894074 204.399007 65.1657596 186.638143 65.1231676 165.810655 95.7042234 183.571519"></polygon>
                    <polygon id="Path" fill="#6291FB" points="161.849599 69.0416316 131.268543 51.2381757 149.370143 40.7605437 179.993791 58.5639996"></polygon>
                    <path d="M105.372607,145.962783 L74.7915515,128.201919 C91.7376051,117.183517 102.391723,98.7248228 103.455967,78.5396475 C103.455967,69.4675516 100.261567,63.1213436 94.9375674,60.0973116 L125.518623,77.9007675 C130.672255,80.8822075 134.037023,87.2710074 134.037023,96.3005114 C132.970014,116.495649 122.297479,134.958818 105.330015,145.962783 L105.372607,145.962783 Z" id="Path" fill="#6291FB"></path>
                    <path d="M85.1839995,147.964607 L54.6029437,130.203743 C59.7991676,133.227775 67.0398076,132.801855 75.0045115,128.201919 L105.585567,145.962783 C97.6208634,150.562719 90.4228154,150.988639 85.1839995,147.964607 Z" id="Path" fill="#6291FB"></path>
                    <polygon id="Path" fill="#82A9FF" points="45.7438077 200.182399 15.1627519 182.378943 27.8977598 160.273695 58.5214076 178.077151"></polygon>
                    <polygon id="Path" fill="#6291FB" points="138.296223 39.8661117 107.672575 22.1052479 120.450175 0 151.031231 17.7608639"></polygon>
                    <path d="M58.5214076,178.077151 L27.8977598,160.273695 C22.5559021,154.332508 19.1533137,146.903275 18.1441919,138.977695 L48.7252477,156.738559 C49.7568907,164.665983 53.1732043,172.092752 58.5214076,178.034559 L58.5214076,178.077151 Z" id="Path" fill="#6291FB"></path>
                    <path d="M114.998399,42.2512637 L84.2469755,24.4478078 C91.6442782,21.3369138 99.8057352,20.5207681 107.672575,22.1052479 L138.296223,39.8661117 C130.425136,38.2950555 122.263545,39.1260538 114.870623,42.2512637 L114.998399,42.2512637 Z" id="Path" fill="#82A9FF"></path>
                    <path d="M48.6826557,134.377759 L18.0590079,116.574303 C19.6924364,105.363501 22.9344151,94.4469271 27.6847998,84.1617915 L58.3510396,101.709695 C53.5663825,112.074566 50.3097149,123.078372 48.6826557,134.377759 L48.6826557,134.377759 Z" id="Path" fill="#6291FB"></path>
                    <path d="M71.8527035,78.3692795 L41.3568317,60.4380476 C47.9384517,51.1349191 55.8118914,42.8168954 64.7398396,35.7346878 L95.3634874,53.4955517 C86.4429589,60.5263658 78.5945614,68.8195536 72.0656635,78.1137275 L71.8527035,78.3692795 Z" id="Path" fill="#B0C8FD"></path>
                    <polygon id="Path" fill="#B0C8FD" points="30.5810558 144.812799 0 127.009343 18.0590079 116.574303 48.6826557 134.377759"></polygon>
                    <polygon id="Path" fill="#82A9FF" points="30.6662398 167.216191 0.0425919997 149.455327 0 127.009343 30.5810558 144.812799"></polygon>
                    <polygon id="Path" fill="#6291FB" points="95.3634874 53.4955517 64.7398396 35.7346878 64.6972476 14.9497919 95.2783034 32.7532478"></polygon>
                    <polygon id="Path" fill="#B0C8FD" points="95.2783034 32.7532478 64.6972476 14.9497919 84.2043835 3.70550398 114.785439 21.4663679"></polygon>
                    <polygon id="Path" fill="#B0C8FD" points="45.4456637 94.6394234 14.8646079 76.8785595 28.6218238 53.0270397 59.2028796 70.8304955"></polygon>
                    <path d="M180.036383,80.9247995 L161.849599,91.4450234 C160.225595,102.666426 156.998242,113.596394 152.266399,123.900127 L165.043999,131.225951 L151.627519,154.353407 L138.849919,147.112767 C132.201496,156.578919 124.258886,165.066329 115.253951,172.327231 L115.253951,193.154719 L98.2171514,205.634175 L95.7894074,204.441599 L95.7894074,183.614111 C88.4313573,186.758436 80.2909475,187.590303 72.4489915,185.999263 L59.6713916,207.806367 L45.7438077,200.182399 L58.5214076,178.077151 C53.1732043,172.135344 49.7568907,164.708575 48.7252477,156.781151 L33.3069438,168.451359 L30.6662398,167.216191 L30.6662398,144.812799 L48.7678397,134.377759 C50.3948989,123.078372 53.6515665,112.074566 58.4362236,101.709695 L48.1715517,96.0023674 L45.5308477,94.6394234 L59.4158396,70.5749435 L61.9287676,72.0230715 L72.1082555,77.8155835 C78.6686051,68.6205551 86.5309788,60.4281913 95.4486714,53.4955517 L95.4486714,32.7532478 L114.998399,21.2959999 L117.639103,22.5311679 L114.998399,42.2512637 C122.000226,38.9869791 129.838191,37.9607559 137.444383,39.3124157 L151.159007,17.7608639 L164.831039,25.5551998 L152.053439,47.6604477 C157.407671,53.5887671 160.799353,61.0266666 161.764415,68.9564476 L179.908607,58.4788156 L182.549311,59.6713916 L180.036383,80.9247995 Z M105.372607,145.962783 C122.340071,134.958818 133.012606,116.495649 134.079615,96.3005114 C134.079615,78.0711355 121.089055,70.7453115 105.202239,79.9025915 C88.3180253,90.9223027 77.7139855,109.344844 76.6655995,129.479679 C76.6655995,147.751647 89.4431994,155.034879 105.457791,145.962783 L105.372607,145.962783 Z" id="Shape" fill="#FFFFFF"></path>
                    <path d="M182.677087,82.2025595 L164.575487,92.6375994 C162.963103,103.861541 159.735266,114.79315 154.992287,125.092703 L167.769887,132.461119 L154.055263,156.184863 L141.277663,148.944223 C134.706476,158.218566 126.830929,166.49578 117.894655,173.519807 L117.894655,194.347295 L98.3875194,205.634175 L98.3875194,184.806687 C91.0181768,187.90705 82.8912266,188.737542 75.0471035,187.191839 L62.2695036,209.424863 L48.4271037,201.587935 L61.2047036,179.269727 C55.8312164,173.344592 52.411075,165.909502 51.4085437,157.973727 L33.3069438,168.451359 L33.3069438,146.005375 L51.1103997,135.570335 C52.7452222,124.414521 55.987488,113.554366 60.7361916,103.328191 L47.9585917,96.0023674 L61.7158076,72.0230715 L74.4934075,79.3488955 C81.0883372,70.0543074 88.9928916,61.7624155 97.9615994,54.7307196 L97.9615994,34.0735998 L117.468735,22.8293119 L117.468735,43.5716157 C124.865383,40.458145 133.027627,39.6419206 140.894335,41.2290557 L153.671935,19.3367679 L167.429151,27.2588798 L154.779327,48.9807997 C160.117229,54.9198316 163.506445,62.3523233 164.490303,70.2767995 L182.634495,59.6287996 L182.677087,82.2025595 Z M108.013311,147.197951 C124.997127,136.195529 135.661208,117.703728 136.677727,97.4930874 C136.677727,79.3063035 123.900127,71.9378875 107.842943,81.1377595 C90.9262717,92.1384686 80.2887498,110.564176 79.2211195,130.714847 C79.2211195,148.986815 91.9987194,156.270047 108.013311,147.197951 Z" id="Shape" fill="#B9CFFF"></path>
                </g>
                <polygon id="Path" fill="#FFFFFF" points="0 128.585247 30.5810558 146.260927 30.5810558 144.812799 32.2421438 143.833183 1.23516799 126.285279 0 127.009343"></polygon>
                <polygon id="Path" fill="#FFFFFF" points="64.6972476 16.7812479 95.3634874 34.2439678 95.2783034 32.7532478 97.0245754 31.7310398 66.1027836 14.1405439 64.6972476 14.9497919"></polygon>
                <polygon id="Path" fill="#FFFFFF" points="27.2162878 55.4547836 58.0954876 73.0878715 59.3306556 70.5749435 28.6218238 53.0270397"></polygon>
                <g id="Group" transform="translate(125.947799, 123.019599)">
                    <polygon id="Path" fill="#696969" points="116.443271 94.5829272 93.1028553 80.9960793 102.856423 86.6182233 126.239431 100.205071"></polygon>
                    <polygon id="Path" fill="#6291FB" points="73.2975754 156.043183 49.9145676 142.456335 49.8719756 126.569519 73.2549834 140.156367"></polygon>
                    <polygon id="Path" fill="#6291FB" points="123.726503 52.7149915 100.343495 39.1281436 114.185895 31.1208476 137.568903 44.7076955"></polygon>
                    <path d="M80.6233994,111.449359 L57.1977995,97.8625112 C70.1209135,89.5128294 78.2731529,75.4878117 79.1326794,60.1259994 C79.7076864,54.6292699 77.2633378,49.2517029 72.7438794,46.0706395 L96.1268873,59.6574874 C100.617881,62.8425952 103.056391,68.1910603 102.515687,73.6702553 C101.711916,89.0946327 93.5734794,103.202311 80.6233994,111.619727 L80.6233994,111.449359 Z" id="Path" fill="#6291FB"></path>
                    <path d="M65.0347275,112.940079 L41.6943116,99.3958232 C46.7608365,101.715998 52.6839204,101.130199 57.1977995,97.8625112 L80.5808074,111.449359 C76.0424507,114.744485 70.0727442,115.315359 64.9921355,112.940079 L65.0347275,112.940079 Z" id="Path" fill="#6291FB"></path>
                    <polygon id="Path" fill="#82A9FF" points="35.0925517 152.806191 11.7521358 139.261935 21.4631118 122.352911 44.8461196 135.939759"></polygon>
                    <polygon id="Path" fill="#6291FB" points="105.752679 30.4393756 82.3696714 16.8951197 92.1232393 0.0286878103 115.463655 13.5729437"></polygon>
                    <path d="M44.8461196,135.939759 L21.4631118,122.352911 C17.3789571,117.832312 14.7777138,112.169034 14.0095118,106.125359 L37.3499277,119.754799 C38.1620078,125.781505 40.7747367,131.422624 44.8461196,135.939759 L44.8461196,135.939759 Z" id="Path" fill="#6291FB"></path>
                    <path d="M87.8640393,32.2708316 L64.4810315,18.6839837 C70.1286873,16.3036997 76.3625069,15.6803177 82.3696714,16.8951197 L105.710087,30.3115996 C99.7125789,29.1136622 93.4932186,29.7519259 87.8640393,32.1430556 L87.8640393,32.2708316 Z" id="Path" fill="#82A9FF"></path>
                    <path d="M37.3073357,102.717999 L13.9669198,89.1311512 C15.195026,80.5706946 17.6628464,72.2346266 21.2927438,64.3851994 L44.7183436,77.7590873 C41.0740445,85.6841071 38.5785856,94.0883539 37.3073357,102.717999 L37.3073357,102.717999 Z" id="Path" fill="#6291FB"></path>
                    <path d="M55.0256075,59.8278554 L31.6425997,46.1558235 C36.6731824,39.0438744 42.6973383,32.6898242 49.5312396,27.2875676 L72.8716554,40.8744155 C66.0579669,46.2392374 60.0607187,52.5664778 55.0681995,59.6574874 L55.0256075,59.8278554 Z" id="Path" fill="#B0C8FD"></path>
                    <polygon id="Path" fill="#B0C8FD" points="23.5075277 110.554927 0.167111889 96.9680792 13.9669198 89.0033752 37.3073357 102.590223"></polygon>
                    <polygon id="Path" fill="#82A9FF" points="23.5501197 127.676911 0.209703888 114.090063 0.167111889 96.9680792 23.5075277 110.554927"></polygon>
                    <polygon id="Path" fill="#6291FB" points="72.9568394 40.8744155 49.6164236 27.2875676 49.5738316 11.4433437 72.9142474 24.9875997"></polygon>
                    <polygon id="Path" fill="#B0C8FD" points="72.9142474 24.9875997 49.5738316 11.4433437 64.4384395 2.83975979 87.8214473 16.3840157"></polygon>
                    <polygon id="Path" fill="#B0C8FD" points="34.8795917 72.2647193 11.4965838 58.6778714 22.0168077 40.4910876 45.3572236 54.0779355"></polygon>
                    <path d="M137.611495,61.8296794 L123.769095,69.7943834 C122.56214,78.3679682 120.108459,86.7190926 116.485863,94.5829272 L126.239431,100.205071 L115.932167,117.838159 L106.136007,112.301199 C101.067933,119.535482 95.002426,126.016827 88.1195913,131.552783 L88.1195913,147.439599 L75.3419914,156.980207 L73.3401674,156.043183 L73.3401674,140.156367 C67.7072537,142.535773 61.4872343,143.159259 55.4941195,141.945231 L45.8257356,158.598703 L35.1777357,152.806191 L44.9313036,135.769391 C40.8597078,131.309355 38.2188814,125.73098 37.3499277,119.754799 L25.5945357,128.613935 L23.5927117,127.719503 L23.5927117,110.682703 L37.3073357,102.717999 C38.5785856,94.0883539 41.0740445,85.6841071 44.7183436,77.7590873 L36.8814157,73.4998873 L34.8369997,72.4776793 L45.4849996,54.0779355 L47.3590476,55.1853275 L55.1533835,59.4445274 C60.1479301,52.4296561 66.1465386,46.1870851 72.9568394,40.9170075 L72.9568394,24.9875997 L87.8640393,16.4691997 L89.8658633,17.4062237 L87.9066313,32.3560156 C93.2194699,29.8734675 99.1673965,29.0853672 104.943431,30.0986396 L115.421063,13.6581277 L125.941287,19.7061917 L116.272903,36.7429916 C120.341589,41.2689949 122.927726,46.9317444 123.683911,52.9705435 L137.526311,44.9632475 L139.528135,45.9002715 L137.611495,61.8296794 Z M80.6233994,111.449359 C93.5734794,103.031943 101.711916,88.9242647 102.515687,73.4998873 C102.515687,59.6148954 92.6343433,53.9927515 80.4530314,61.0204314 C67.5551457,69.4160683 59.4499781,83.4734683 58.6459275,98.8421272 C58.6459275,112.812303 68.5272715,118.434447 80.6233994,111.619727 L80.6233994,111.449359 Z" id="Shape" fill="#FFFFFF"></path>
                    <path d="M139.613319,62.7667034 L125.770919,70.7314074 C124.555652,79.303194 122.10232,87.6531329 118.487687,95.5199512 L128.241255,101.099503 L117.763623,119.243695 L107.967463,113.706735 C102.970726,120.806733 96.974284,127.147468 90.1640073,132.532399 L90.1640073,148.461807 L75.2568074,156.980207 L75.2568074,141.050799 C69.6337347,143.465552 63.4070868,144.104564 57.4107595,142.882255 L47.6145996,159.919055 L37.0517837,153.828399 L46.8479436,136.791599 C42.7559251,132.259446 40.1541508,126.580144 39.3943436,120.521455 L25.5945357,128.486159 L25.5945357,111.449359 L39.3943436,103.484655 C40.617401,94.9504295 43.0856117,86.6417438 46.7201676,78.8238873 L36.9240077,73.2443353 L47.4016396,54.9297755 L57.1977995,60.5945114 C62.1740675,53.4913921 68.1569765,47.1497956 74.9586634,41.7688475 L74.9586634,26.0523996 L89.8658633,17.5339997 L89.8658633,33.3782236 C95.5135192,30.9979396 101.747339,30.3745576 107.754503,31.5893596 L117.380295,14.8507037 L127.900519,20.8987677 L118.317319,37.6374236 C122.392052,42.1427249 124.979763,47.7940468 125.728327,53.8223835 L139.570727,45.8576795 L139.613319,62.7667034 Z M82.7529994,112.343791 C95.7068835,103.949839 103.848742,89.8520681 104.645287,74.4369113 C104.645287,60.5519194 94.7639433,54.9297755 82.6252234,61.9574554 C69.7162769,70.3484842 61.596025,84.4045928 60.7755275,99.7791512 C60.7755275,113.749327 70.6568714,119.328879 82.7529994,112.343791 L82.7529994,112.343791 Z" id="Shape" fill="#B9CFFF"></path>
                </g>
                <polygon id="Path" fill="#FFFFFF" points="126.114911 221.180255 149.455327 234.681918 149.455327 233.574527 150.733087 232.850463 127.094527 219.433983 126.114911 219.987679"></polygon>
                <polygon id="Path" fill="#FFFFFF" points="175.521631 135.868479 198.904639 149.157183 198.862047 148.007199 200.182399 147.283135 176.586431 133.824063 175.521631 134.462943"></polygon>
                <polygon id="Path" fill="#FFFFFF" points="146.899807 165.342143 170.495775 178.843807 171.432799 176.884575 147.964607 163.510687"></polygon>
                <g id="Group" transform="translate(7.921200, 212.959999)">
                    <polygon id="Path" fill="#696969" points="101.753199 82.7136635 81.3090393 70.8730875 89.8274393 75.7711675 110.271599 87.6543354"></polygon>
                    <polygon id="Path" fill="#6291FB" points="63.9740954 136.507359 43.5299356 124.624191 43.4873436 110.696607 63.9315034 122.579775"></polygon>
                    <polygon id="Path" fill="#6291FB" points="108.056815 46.0845437 87.6552473 34.2439678 99.7513752 27.2588798 120.195535 39.0994557"></polygon>
                    <path d="M70.3628954,97.4930874 L49.9613275,85.6099195 C61.2802512,78.249729 68.3901174,65.9143486 69.0851354,52.4307517 C69.5901627,47.6321888 67.4544628,42.9369096 63.5055834,40.1642557 L83.9497433,52.0048317 C87.8699911,54.8205881 89.9955573,59.5098144 89.5292953,64.3139196 C88.8384353,77.809527 81.708456,90.1523135 70.3628954,97.4930874 Z" id="Path" fill="#6291FB"></path>
                    <path d="M56.7334555,98.8134394 L36.3318876,86.9302714 C40.7761725,89.00683 45.9982767,88.5009387 49.9613275,85.6099195 L70.3628954,97.4930874 C66.389864,100.357753 61.1824768,100.862219 56.7334555,98.8134394 L56.7334555,98.8134394 Z" id="Path" fill="#6291FB"></path>
                    <polygon id="Path" fill="#82A9FF" points="30.5393756 133.696287 10.1378078 121.813119 18.6562077 107.033695 39.0577756 118.916863"></polygon>
                    <polygon id="Path" fill="#6291FB" points="92.3403672 26.6625918 71.8962074 14.7794239 80.4571993 0 100.858767 11.8831679"></polygon>
                    <path d="M38.9299996,118.916863 L18.6562077,107.033695 C15.0799916,103.081935 12.7921018,98.1347449 12.0970398,92.8505594 L32.5411996,104.691135 C33.1771415,109.971696 35.4055189,114.93355 38.9299996,118.916863 Z" id="Path" fill="#6291FB"></path>
                    <path d="M76.7091033,28.1959038 L56.2649435,16.3553279 C61.1981727,14.2694415 66.6458978,13.7202158 71.8962074,14.7794239 L92.3403672,26.6199998 C87.0890375,25.5818877 81.6475431,26.1304852 76.7091033,28.1959038 L76.7091033,28.1959038 Z" id="Path" fill="#82A9FF"></path>
                    <path d="M32.4986076,89.7413434 L12.0544478,77.8581755 C13.143501,70.3734951 15.3097381,63.0857572 18.4858397,56.2214396 L38.9299996,68.1471996 C35.739728,75.0690351 33.5595022,82.4129536 32.4560156,89.9543034 L32.4986076,89.7413434 Z" id="Path" fill="#6291FB"></path>
                    <path d="M48.0020955,52.3455677 L27.6431197,40.3772157 C32.0049386,34.150905 37.2407065,28.5852119 43.1891996,23.8515198 L63.6333594,35.7346878 C57.6746935,40.4245369 52.4368197,45.9637679 48.0872795,52.1751997 L48.0020955,52.3455677 Z" id="Path" fill="#B0C8FD"></path>
                    <polygon id="Path" fill="#B0C8FD" points="20.4450717 96.6838394 0.000911834926 84.8432635 12.0544478 77.8581755 32.4986076 89.7413434"></polygon>
                    <polygon id="Path" fill="#82A9FF" points="20.4876637 111.676223 0.0435038347 99.7930554 0.000911834926 84.8432635 20.4450717 96.6838394"></polygon>
                    <polygon id="Path" fill="#6291FB" points="63.6759514 35.7346878 43.2317916 23.8515198 43.1891996 10.0091199 63.6333594 21.8496959"></polygon>
                    <polygon id="Path" fill="#B0C8FD" points="63.6333594 21.8496959 43.1891996 10.0091199 56.2223515 2.47033598 76.6665113 14.3535039"></polygon>
                    <polygon id="Path" fill="#B0C8FD" points="30.3264156 63.2065276 9.92484777 51.3233597 19.0821277 35.3939518 39.5262876 47.2771197"></polygon>
                    <path d="M120.238127,54.0918397 L108.141999,61.0769276 C107.05883,68.5629022 104.892344,75.8514758 101.710607,82.7136635 L110.229007,87.6543354 L101.242095,103.072639 L92.7236952,98.2171514 C88.3091688,104.604549 83.0185786,110.339606 77.0072473,115.253951 L77.0072473,129.138943 L65.7203674,137.657343 L63.9740954,136.848095 L63.9740954,122.579775 C59.0445976,124.677394 53.5975288,125.241395 48.3428315,124.198271 L39.8244316,138.764735 L30.4115996,133.653695 L38.9299996,118.916863 C35.4055189,114.93355 33.1771415,109.971696 32.5411996,104.691135 L22.2339357,112.485471 L20.4876637,111.676223 L20.4876637,96.6838394 L32.5411996,89.7413434 C33.6373277,82.2770425 35.7884235,75.0063384 38.9299996,68.1471996 L32.0726876,64.3139196 L30.4115996,63.2065276 L39.6966556,47.1067517 L41.3577436,48.0863677 L48.1724635,51.9622397 C52.5633123,45.8332434 57.813348,40.3680422 63.7611354,35.7346878 L63.7611354,21.8922879 L76.7942873,14.3535039 L78.5405593,15.1627519 L76.8368793,28.1959038 C81.5223199,26.0455475 86.748581,25.3625702 91.8292632,26.2366718 L100.986543,11.8831679 L110.058639,17.0367999 L101.540239,31.7736318 C105.085243,35.7411045 107.355683,40.6826515 108.056815,45.9567677 L120.152943,38.9716798 L121.899215,39.7809277 L120.238127,54.0918397 Z M70.3628954,97.4930874 C81.708456,90.1523135 88.8384353,77.809527 89.5292953,64.3139196 C89.5292953,52.1326077 81.0108953,47.2771197 70.2351194,53.3677757 C58.9610821,60.7249533 51.8727817,73.0187243 51.1539035,86.4617594 C51.1539035,98.6856634 59.6723035,103.498559 70.3628954,97.4930874 L70.3628954,97.4930874 Z" id="Shape" fill="#FFFFFF"></path>
                    <path d="M121.984399,54.9010876 L109.888271,61.8861756 C108.814427,69.3827141 106.662576,76.6846609 103.499471,83.5655035 L112.017871,88.4635834 L102.817999,104.307807 L94.2995992,99.4523194 C89.935153,105.665193 84.6830309,111.204316 78.7109273,115.892831 L78.7109273,129.777823 L65.6777754,137.316607 L65.6777754,123.516799 C60.7630319,125.613537 55.3297635,126.177647 50.0891035,125.135295 L41.5707036,139.957311 L32.2430556,134.633311 L40.7614556,119.726111 C37.1774308,115.762782 34.889014,110.799592 34.2022876,105.500383 L22.2339357,112.485471 L22.2339357,97.4930874 L34.2448796,90.5505914 C35.3349073,83.0934639 37.501277,75.8339734 40.6762716,68.9990396 L32.1578716,64.1009596 L41.3151516,48.0863677 L49.8335515,52.9844477 C54.20678,46.7923753 59.4416184,41.2563544 65.3796314,36.5439358 L65.3796314,22.7015359 L78.4127833,15.1627519 L78.4127833,29.0051518 C83.4262285,26.8784693 88.9719697,26.3432235 94.2995992,27.4718398 L102.817999,12.8201919 L112.017871,18.1015999 L103.499471,32.7106558 C106.990629,36.6775198 109.202572,41.6061444 109.845679,46.8511997 L121.941807,39.8661117 L121.984399,54.9010876 Z M72.1517594,98.3023354 C83.470683,90.9421449 90.5805493,78.6067645 91.2755673,65.1231676 C91.2755673,52.9418557 82.7571673,48.0863677 72.0239834,54.1770237 C60.7233956,61.5149182 53.6150424,73.8160104 52.9001755,87.2710074 C52.9001755,99.4949114 61.4185754,104.307807 72.1517594,98.3023354 L72.1517594,98.3023354 Z" id="Shape" fill="#B9CFFF"></path>
                </g>
                <polygon id="Path" fill="#FFFFFF" points="7.92211195 298.82547 28.3662718 310.623454 28.3662718 309.643838 29.4310718 309.004958 8.77395194 297.292158 7.92211195 297.803262"></polygon>
                <polygon id="Path" fill="#FFFFFF" points="51.1103997 224.161695 71.5971515 235.831902 71.5545595 234.809694 72.7045435 234.170815 52.0474237 222.415423 51.1103997 222.969119"></polygon>
                <polygon id="Path" fill="#FFFFFF" points="26.1088958 250.015038 46.7234237 261.77043 47.5326717 260.06675 27.0033278 248.35395"></polygon>
            </g>
        </g>
    </g>
</svg>