<?xml version="1.0" encoding="UTF-8"?>
<svg width="462px" height="462px" viewBox="0 0 462 462" version="1.1" xmlns="http://www.w3.org/2000/svg" xmlns:xlink="http://www.w3.org/1999/xlink">
    <!-- Generator: Sketch 63.1 (92452) - https://sketch.com -->
    <title>Service_desktop-Service-detail</title>
    <desc>Created with Sketch.</desc>
    <defs>
        <linearGradient x1="37.3680194%" y1="24.6689779%" x2="62.6319806%" y2="75.335199%" id="linearGradient-1">
            <stop stop-color="#CFD8DB" offset="0%"></stop>
            <stop stop-color="#CFD8DB" offset="100%"></stop>
        </linearGradient>
    </defs>
    <g id="Services" stroke="none" stroke-width="1" fill="none" fill-rule="evenodd">
        <g id="Service_desktop-Fintech-Software" transform="translate(-128.000000, -2062.000000)">
            <rect fill="#FFFFFF" x="0" y="0" width="1400" height="5630"></rect>
            <g id="bg-abstr-hww" transform="translate(-3.000000, 283.000000)"></g>
            <g id="Robust" transform="translate(128.000000, 2062.000000)">
                <g id="illustration-robust" transform="translate(112.000000, 64.000000)">
                    <g id="Group-14-Copy">
                        <g id="Group-11" transform="translate(0.000000, 175.121089)" fill-rule="nonzero">
                            <path d="M120.997646,133.787573 C62.2462634,101.033034 58.7226186,99.9310665 -1.50825476e-14,67.1620285 L116.49601,5.27889165e-14 C175.117953,32.9285334 178.454629,34.2044959 237.06219,67.1330293 C198.374009,89.36571 159.685828,111.583891 120.997646,133.787573 Z" id="Path" fill="#799EF0"></path>
                            <polygon id="Path" fill="#B0C8FD" points="121.004988 133.51939 -1.50825476e-14 65.7202111 -1.50825476e-14 83.4170941 31.2400848 101.055668 121.004988 151.391201 237.06219 84.3354661 237.06219 66.5511191"></polygon>
                            <polygon id="Path" fill="#6291FB" points="121.122511 133.635129 120.878245 133.504463 120.878245 151.246016 121.122511 151.391201 237.06219 84.6063027 237.06219 66.8937863"></polygon>
                            <path d="M120.894051,104.448193 C78.652753,80.8782291 76.2033593,80.0245594 34.0336808,56.5269407 L117.671165,8.21502639 C159.740576,31.9007418 162.075378,32.8122874 204.202085,56.4980028 L120.894051,104.448193 Z" id="Path" fill="#82A9FF"></path>
                            <polygon id="Path" fill="#B0C8FD" points="120.88674 104.650992 34.0336808 56.3316095 34.0336808 68.9372921 56.4487596 81.5141618 120.901063 117.35752 204.202085 69.6143974 204.202085 56.9222758"></polygon>
                            <polygon id="Path" fill="#6291FB" points="121.064077 104.526804 120.878245 104.424973 120.878245 117.255689 121.064077 117.35752 204.202085 69.1477781 204.202085 56.3316095"></polygon>
                            <path d="M125.458388,24.6500975 L90.8517575,36.4191888 C90.4557348,36.5443431 90.0918907,36.7546294 89.7857478,37.0352966 L69.40261,57.0143823 C68.6303261,57.7723381 68.9613049,58.7337528 70.1720284,59.2638921 L89.5350063,67.6486891 C107.403565,75.3858565 130.799899,77.5981132 152.12296,73.576219 L152.12296,73.576219 C153.085807,73.3928195 153.792182,73.0159908 154.136056,72.4142111 L154.136056,72.4142111 C161.1167,60.0877571 157.278206,46.5892656 143.877145,36.2744751 L129.354195,25.0985666 C128.44866,24.3964903 126.769408,24.2044939 125.458388,24.6500975 Z M75.8989651,57.4213 L82.4554981,50.9908541 L82.4053498,60.2410676 L75.8989651,57.4213 Z M145.575023,71.0745349 C142.435739,71.5144072 139.270665,71.8109986 136.085531,71.9686075 L136.119918,65.6155334 L145.575023,71.0745349 Z M130.168031,62.1782251 L130.113584,72.0975603 C126.773707,72.0789338 123.446725,71.9069968 120.16416,71.5846148 L120.24583,56.4512884 L130.168031,62.1782251 Z M114.293942,53.0082489 L114.197944,70.8194949 C110.84958,70.2971415 107.531303,69.597424 104.257117,68.7232956 L104.377472,47.2870434 L114.293942,53.0082489 Z M98.4198535,43.8382727 L98.2951992,66.8835692 C95.014067,65.7373221 93.380665,64.9793663 88.3658343,62.808661 L88.4618325,45.094846 L92.9594193,40.6860934 L98.4198535,43.8382727 Z M139.092996,38.3534807 C150.350575,47.0191082 154.216293,58.147734 149.810406,68.6287303 L97.1962348,38.2517513 L126.16333,28.4011909 L139.092996,38.3534807 Z" id="Shape" fill="#B9CFFF"></path>
                        </g>
                        <g id="Group-5" transform="translate(58.196806, 0.000000)">
                            <g id="Group-19" transform="translate(0.107239, 0.000000)">
                                <polygon id="Shape" stroke="#FFFFFF" stroke-width="0.698303661" fill="#F7F7F7" fill-rule="nonzero" stroke-linecap="round" stroke-linejoin="round" points="63.2865614 74.5096977 -7.54127378e-15 37.9709592 65.7697292 -1.43284202e-13 129.056291 36.5338503"></polygon>
                                <polygon id="Shape" fill="#EDEFF1" fill-rule="nonzero" points="-2.26238213e-14 37.9709592 -2.26238213e-14 167.97093 63.2865614 204.504781 63.2865614 74.5096977"></polygon>
                                <polygon id="Shape" fill="url(#linearGradient-1)" fill-rule="nonzero" points="63.2865614 74.5096977 129.056291 36.5338503 129.056291 166.533821 63.2865614 204.504781"></polygon>
                                <polygon id="Shape" fill="#EEF1F2" fill-rule="nonzero" opacity="0.4" points="63.6482827 64.3277322 18.8730527 38.4744362 65.4080079 11.6092982 110.183238 37.4625942"></polygon>
                                <polygon id="Shape" fill="#DBDEE2" fill-rule="nonzero" points="110.183238 37.4625942 65.4080079 11.6092982 65.256476 18.2681585 104.057183 40.8360175"></polygon>
                                <polygon id="Shape" fill="#E7E9EB" fill-rule="nonzero" points="65.4080079 11.6092982 18.8730527 38.4744362 24.8475755 41.7647614 65.256476 18.2681585"></polygon>
                                <line x1="40.9312378" y1="62.0346122" x2="40.9673802" y2="191.722332" id="Shape" stroke="#F4F5F6" stroke-width="0.698303661"></line>
                                <line x1="18.6430992" y1="48.2371931" x2="18.8730527" y2="178.900779" id="Shape" stroke="#F4F5F6" stroke-width="0.698303661"></line>
                                <polyline id="Shape" stroke="#E2E7E9" stroke-width="0.698303661" points="108.091642 48.4414418 107.884681 48.6348773 107.884681 178.986253 108.091642 178.792818"></polyline>
                                <line x1="85.5075149" y1="62.0346122" x2="85.9332471" y2="191.722332" id="Shape" stroke="#E2E7E9" stroke-width="0.698303661"></line>
                                <line x1="3.77063689e-14" y1="115.272049" x2="63.2865614" y2="151.810787" id="Shape" stroke="#F4F5F6" stroke-width="0.698303661"></line>
                                <line x1="3.77063689e-14" y1="89.0987804" x2="63.2865614" y2="125.637519" id="Shape-Copy-12" stroke="#F4F5F6" stroke-width="0.698303661"></line>
                                <line x1="3.77063689e-14" y1="63.6266221" x2="63.2865614" y2="100.165361" id="Shape-Copy-13" stroke="#F4F5F6" stroke-width="0.698303661"></line>
                                <line x1="0.053769381" y1="141.824347" x2="63.3403308" y2="178.363085" id="Shape" stroke="#F4F5F6" stroke-width="0.698303661"></line>
                                <line x1="128.391506" y1="113.942479" x2="63.2523446" y2="151.546829" id="Shape" stroke="#E2E7E9" stroke-width="0.698303661"></line>
                                <line x1="128.391506" y1="88.0374405" x2="63.2523446" y2="125.64179" id="Shape-Copy-10" stroke="#E2E7E9" stroke-width="0.698303661"></line>
                                <line x1="128.391506" y1="62.5652821" x2="63.2523446" y2="100.169632" id="Shape-Copy-11" stroke="#E2E7E9" stroke-width="0.698303661"></line>
                                <line x1="129.036738" y1="140.890715" x2="63.2865614" y2="178.851898" id="Shape" stroke="#E2E7E9" stroke-width="0.698303661"></line>
                            </g>
                        </g>
                    </g>
                </g>
            </g>
        </g>
    </g>
</svg>