<?xml version="1.0" encoding="UTF-8"?>
<svg width="462px" height="462px" viewBox="0 0 462 462" version="1.1" xmlns="http://www.w3.org/2000/svg" xmlns:xlink="http://www.w3.org/1999/xlink">
    <!-- Generator: Sketch 63.1 (92452) - https://sketch.com -->
    <title>illustration-multiplatform</title>
    <desc>Created with Sketch.</desc>
    <g id="Services" stroke="none" stroke-width="1" fill="none" fill-rule="evenodd">
        <g id="Service_desktop-IOT" transform="translate(-129.000000, -4458.000000)">
            <rect fill="#FFFFFF" x="0" y="0" width="1400" height="7058"></rect>
            <g id="illustration-multiplatform" transform="translate(154.000000, 4556.000000)" fill-rule="nonzero">
                <g id="android" transform="translate(198.000000, 158.000000)">
                    <g id="Group-10-Copy">
                        <path d="M98.6450118,124.178248 C65.4065397,105.647437 33.2221986,87.5517965 0,69.0127818 L116.900845,0 C150.066086,18.6292489 182.14465,36.8233263 215.301755,55.4525752 C193.413998,68.0306678 120.532769,111.616562 98.6450118,124.178248 Z" id="Path" fill="#F9F9F9"></path>
                        <polygon id="Path" fill="#EDEFF1" points="98.649165 124.026524 1 68.5 1 72.3065644 9.68979905 77.5044929 98.649165 127.932054"></polygon>
                        <polygon id="Path" fill="#CFD8DB" points="98.7066458 123.741495 98.5684534 123.667571 98.5684534 127.499407 98.7066458 127.581545 214.999176 59.2357894 214.999176 55.4203805"></polygon>
                    </g>
                    <path d="M85.0889598,61.8465915 C83.4722239,62.7790394 83.4637759,64.2880634 85.0699518,65.2152314 L98.6416635,73.0507512 C100.247839,73.9779192 102.860383,73.9726392 104.476063,73.0401912 C106.091743,72.1077432 106.101247,70.5987192 104.495071,69.6715513 L90.9233597,61.8360315 C89.3171837,60.9088635 86.7046398,60.9151995 85.0889598,61.8465915 Z" id="Path" fill="#B0C8FD"></path>
                    <path d="M118.254751,42.6970879 C116.639071,43.6305919 116.630623,45.1385598 118.236799,46.0657278 L131.806399,53.9012476 C133.412575,54.8294716 136.030399,54.8241916 137.640799,53.8906876 C139.251199,52.9571837 139.265983,51.4502717 137.659807,50.5220477 L124.090207,42.6865279 C122.484031,41.7593599 119.873599,41.7646399 118.254751,42.6970879 Z" id="Path" fill="#B0C8FD"></path>
                    <path d="M112.402399,46.0762878 L90.9391997,58.4673915 C90.4006397,58.7778555 90.3974717,59.2805115 90.9328637,59.5899195 L106.443391,68.5447993 C108.746527,69.8753593 112.363327,70.0802233 115.096255,69.0347833 L121.985599,73.0085112 C123.591775,73.9356792 126.204319,73.9303992 127.821055,72.9979512 C129.437791,72.0655032 129.445183,70.5564793 127.839007,69.6293113 L121.053151,65.7115514 L124.955071,63.4580474 L131.740927,67.3758073 C133.347103,68.3040313 135.959647,68.2987513 137.575327,67.3652473 C139.191007,66.4317433 139.199455,64.9248314 137.593279,63.9966074 L130.711327,60.0228795 C132.521311,58.4462715 132.167551,56.3575036 129.866527,55.0279996 L114.347551,46.0731198 C113.812159,45.7637118 112.940959,45.7658238 112.402399,46.0762878 Z" id="Path" fill="#B0C8FD"></path>
                    <path d="M97.2751995,41.5418239 L97.2910395,38.805728 C97.3068795,38.366432 96.7039035,38.006336 95.9446396,37.9999155 C95.1853756,37.993664 94.5570556,38.344256 94.5412156,38.782496 L94.5412156,38.809952 L94.5243196,41.9990719 C89.6624957,43.1131519 85.8091518,45.3370878 83.8808958,48.1375998 L78.355904,48.1460478 C77.59664,48.1597758 76.98944,48.5219838 76.9998643,48.9602237 C77.01056,49.3984637 77.606144,49.7321597 78.347456,49.7384957 L83.0867839,49.7311037 C82.0941439,52.5031037 83.5873278,55.3680316 87.0573438,57.3511996 C87.5927358,57.6606075 88.4639357,57.6584955 89.0024957,57.3511996 L110.463583,44.9569278 C111.002143,44.6464638 111.005311,44.1438079 110.469919,43.8343999 C107.035807,41.8311679 102.072607,40.9694719 97.2751995,41.5418239 Z M90.9782717,51.7279997 C90.4397117,52.0384637 89.5685117,52.0447997 89.0331197,51.7279997 C88.4977277,51.4111997 88.5051197,50.9159357 89.0394557,50.6054717 C89.5737917,50.2950077 90.4492157,50.2886717 90.9846077,50.6054717 C91.5199997,50.9222717 91.5168317,51.4185917 90.9782717,51.7279997 Z M100.732543,46.0952958 C100.193983,46.4068158 99.3227835,46.4120958 98.7873915,46.0952958 C98.2519995,45.7784958 98.2593915,45.2832318 98.7937275,44.9717118 C99.3280635,44.6601918 100.203487,44.6549118 100.738879,44.9717118 C101.274271,45.2885118 101.271103,45.7869438 100.732543,46.0974078 L100.732543,46.0952958 Z" id="Shape" fill="#B0C8FD"></path>
                </g>
                <g id="apple" transform="translate(0.000000, 73.000000)">
                    <g id="Group-10">
                        <path d="M128.814622,168.638484 C91.4680236,147.817347 37.3283136,117.372807 1.5916157e-13,96.5424527 L162.349266,2.28794757e-13 C199.613583,20.9317406 253.634442,51.4868844 290.889617,72.418625 C266.29663,86.5513135 153.407608,154.524229 128.814622,168.638484 Z" id="Path" fill="#F9F9F9"></path>
                        <polygon id="Path" fill="#EDEFF1" points="128.819289 168.468007 -1.61857074e-12 96.3005939 -1.61857074e-12 99.4540371 9.76381931 105.294406 128.819289 171.732647"></polygon>
                        <polygon id="Path" fill="#CFD8DB" points="128.883874 168.14775 128.728601 168.064689 128.728601 171.246528 128.883874 171.338817 290.54964 75.545832 290.54964 72.3824512"></polygon>
                    </g>
                    <path d="M167.646909,101.874237 C160.001086,106.238013 138.290495,100.964158 130.437312,96.4298858 C117.607488,89.0225263 124.483776,81.8098548 128.216256,79.6544629 C129.898176,78.683327 132.350783,78.025535 134.515391,77.4460791 C136.029119,77.0405751 137.592383,76.6212471 138.229439,76.2526071 C138.610751,76.0325752 139.151039,75.3079672 139.636031,74.6697592 C140.657855,73.3069433 141.931967,71.6100474 144.384575,70.1942395 L144.398399,70.1861755 C146.230078,69.1286396 152.18131,66.1541758 160.501054,67.1022717 L162.450237,67.3257597 L162.167997,68.4627836 C161.764797,70.0859515 161.030974,73.0488954 165.386685,75.5637112 C170.545341,78.541631 175.850301,77.769791 178.404284,77.3988471 C179.529788,77.2352631 180.693308,77.0659191 181.642556,77.6142711 C182.263484,77.971391 190.598204,88.5352304 183.370556,92.7112301 C181.601084,93.733054 179.821244,94.150078 178.25222,94.517566 C176.663613,94.8896619 175.293885,95.2087659 173.701821,96.1303659 C172.895421,96.5911658 172.253757,97.4033258 171.576381,98.2592617 C170.647869,99.4273896 169.599549,100.751038 167.703357,101.845437 L167.646909,101.874237 Z" id="Path" fill="#82A9FF"></path>
                    <path d="M133.455551,63 C140.392895,66.7877758 140.218943,72.2954874 135.068351,74.9266552 C128.887872,72.2793594 128.786496,65.6956798 133.455551,63 Z" id="Path" fill="#82A9FF"></path>
                </g>
                <g id="win" transform="translate(40.000000, 0.000000)">
                    <g id="Group-10-Copy-2">
                        <path d="M90.1702416,118.046947 C64.0276209,103.47215 26.1298213,82.1609702 1.11413107e-13,67.5797215 L113.644494,1.60156341e-13 C139.729518,14.6522194 177.544122,36.0408215 203.622746,50.6930409 C186.407654,60.5859236 107.385333,108.166968 90.1702416,118.046947 Z" id="Path" fill="#F9F9F9"></path>
                        <polygon id="Path" fill="#EDEFF1" points="90.1735082 117.927613 -1.13555754e-12 67.4104203 -2.69078294e-12 70.6178307 6.83467398 74.7060894 90.1735082 121.212861"></polygon>
                        <polygon id="Path" fill="#CFD8DB" points="90.2187178 117.703433 90.1100271 117.64529 90.1100271 119.872577 90.2187178 120.93718 203.384762 53.882086 203.384762 50.6677193"></polygon>
                    </g>
                    <path d="M84.0671983,50.2060142 C83.7648153,50.2106989 83.4700836,50.3017921 83.2177904,50.4685421 L70.245504,60.1775969 C69.887104,60.4463969 69.926528,60.8307809 70.345856,61.0735968 L81.8612466,67.721916 C82.3155185,67.984444 83.0547184,67.982652 83.5116784,67.721916 L98.4103646,59.1203171 C98.8673245,58.8559971 98.8691165,58.4295012 98.4148446,58.1669732 L84.9685742,50.3995501 C84.6914444,50.2538866 84.3796968,50.1869507 84.0671983,50.2060142 Z" id="Path" fill="#B0C8FD"></path>
                    <path d="M104.241532,35.0896 C103.936868,35.0906867 103.639042,35.1800034 103.38406,35.346752 L86.091262,48.3020144 C85.7328621,48.5708144 85.7722861,48.9560943 86.191614,49.1980143 L100.067964,57.2100453 C100.522236,57.4716773 101.261436,57.4707813 101.718396,57.2100453 L121.582714,45.7412467 C122.039674,45.4778227 122.042362,45.0513268 121.58809,44.7887988 L105.137532,35.2912 C104.862748,35.1437903 104.552972,35.0740909 104.241532,35.0896 Z" id="Path" fill="#B0C8FD"></path>
                    <path d="M100.05542,60.065597 L85.1567342,68.6671959 C84.6997742,68.9306199 84.6970862,69.3571158 85.1513582,69.6196438 L96.6667488,76.267963 C97.0798047,76.509883 97.7419486,76.536763 98.2105566,76.326203 L115.041019,68.8392279 C115.077374,68.8209129 115.112672,68.8005716 115.146747,68.7782999 C115.603706,68.5148759 115.606394,68.08838 115.152123,67.825852 L101.704956,60.062013 C101.250684,59.800381 100.51238,59.801277 100.05542,60.065597 Z" id="Path" fill="#B0C8FD"></path>
                    <path d="M123.230458,46.6847346 L103.36614,58.1535332 C102.908284,58.4178532 102.906492,58.8443491 103.360764,59.1068771 L117.236218,67.1180121 C117.649274,67.3599321 118.311418,67.3868121 118.780922,67.1762521 L141.220343,57.1939173 C141.256698,57.1756024 141.291997,57.155261 141.326071,57.1329893 C141.783031,56.8641893 141.784823,56.4421734 141.331447,56.1796454 L124.880889,46.6820466 C124.426617,46.4195186 123.687417,46.4213106 123.230458,46.6847346 Z" id="Path" fill="#B0C8FD"></path>
                </g>
            </g>
        </g>
    </g>
</svg>