<?xml version="1.0" encoding="UTF-8"?>
<svg width="365px" height="346px" viewBox="0 0 365 346" version="1.1" xmlns="http://www.w3.org/2000/svg" xmlns:xlink="http://www.w3.org/1999/xlink">
    <!-- Generator: Sketch 63.1 (92452) - https://sketch.com -->
    <title>illustration-competetive</title>
    <desc>Created with Sketch.</desc>
    <defs>
        <linearGradient x1="23.976217%" y1="24.6689779%" x2="76.023783%" y2="75.335199%" id="linearGradient-1">
            <stop stop-color="#CFD8DB" offset="0%"></stop>
            <stop stop-color="#CFD8DB" offset="100%"></stop>
        </linearGradient>
        <linearGradient x1="37.3680194%" y1="24.6689779%" x2="62.6319806%" y2="75.335199%" id="linearGradient-2">
            <stop stop-color="#CFD8DB" offset="0%"></stop>
            <stop stop-color="#CFD8DB" offset="100%"></stop>
        </linearGradient>
        <linearGradient x1="50%" y1="100%" x2="50%" y2="0%" id="linearGradient-3">
            <stop stop-color="#004FFF" offset="0%"></stop>
            <stop stop-color="#FFFFFF" stop-opacity="0" offset="100%"></stop>
        </linearGradient>
        <linearGradient x1="50.0034846%" y1="100%" x2="50.0034846%" y2="25.4750845%" id="linearGradient-4">
            <stop stop-color="#004FFF" offset="0%"></stop>
            <stop stop-color="#FFFFFF" stop-opacity="0" offset="100%"></stop>
        </linearGradient>
    </defs>
    <g id="Services" stroke="none" stroke-width="1" fill="none" fill-rule="evenodd">
        <g id="Service_desktop-Fintech-Software" transform="translate(-863.000000, -1490.000000)">
            <g id="Competetive" transform="translate(128.000000, 1432.000000)">
                <g id="illustration-competetive" transform="translate(686.000000, 0.000000)">
                    <g id="Group-14" transform="translate(49.000000, 235.239981)">
                        <g id="Group-11" transform="translate(0.000000, 48.719995)" fill-rule="nonzero">
                            <path d="M95.7638635,105.88648 C49.2649473,79.9628256 46.4761506,79.0906708 -1.19371167e-14,53.1555408 L92.2010335,4.17799085e-14 C138.597504,26.0613629 141.238324,27.0712264 187.623412,53.1325893 C157.003562,70.7286952 126.383713,88.3133254 95.7638635,105.88648 Z" id="Path" fill="#F9F9F9"></path>
                            <polygon id="Path" fill="#EDEFF1" points="95.7696738 105.674226 -1.19371167e-14 52.0144112 -1.19371167e-14 66.0206496 24.7250364 79.980739 95.7696738 119.818911 187.623412 66.7474972 187.623412 52.6720352"></polygon>
                            <polygon id="Path" fill="#CFD8DB" points="95.8626875 105.765828 95.6693634 105.662412 95.6693634 119.704005 95.8626875 119.818911 187.623412 66.9618515 187.623412 52.9432399"></polygon>
                            <path d="M95.6818729,82.6657606 C62.2499009,64.0112591 60.3113227,63.3356203 26.9360344,44.7383763 L93.1311121,6.5018014 C126.427043,25.2479149 128.274928,25.9693598 161.616206,44.7154733 L95.6818729,82.6657606 Z" id="Path" fill="#FCFCFC"></path>
                            <polygon id="Path" fill="#EDEFF1" points="95.6760867 82.8262664 26.9360344 44.583781 26.9360344 54.5605773 44.6764997 64.5145695 95.6874224 92.8828771 161.616206 55.0964738 161.616206 45.0512652"></polygon>
                            <polygon id="Path" fill="#CFD8DB" points="95.8164399 82.7279777 95.6693634 82.6473833 95.6693634 92.8022827 95.8164399 92.8828771 161.616206 54.7271669 161.616206 44.583781"></polygon>
                        </g>
                        <g id="Group-5" transform="translate(45.359995, 0.000000)">
                            <polygon id="Shape" stroke="#FFFFFF" stroke-width="0.552674027" fill="#F7F7F7" fill-rule="nonzero" stroke-linecap="round" stroke-linejoin="round" points="50.8731685 59.0134298 0.784874897 30.0947618 52.8384773 0.0425593865 102.926771 28.9573587"></polygon>
                            <polygon id="Shape" fill="#EDEFF1" fill-rule="nonzero" points="0.784874897 30.0947618 0.784874897 92.66354 50.8731685 121.578339 50.8731685 59.0134298"></polygon>
                            <polygon id="Shape" fill="url(#linearGradient-1)" fill-rule="nonzero" points="50.8731685 59.0134298 102.926771 28.9573587 102.926771 91.5261369 50.8731685 121.578339"></polygon>
                            <polygon id="Shape" fill="#E0E8EA" fill-rule="nonzero" opacity="0.4" points="51.1594536 50.9548899 15.7219956 30.4932398 52.5521921 9.23076494 87.9896502 29.6924151"></polygon>
                            <polygon id="Shape" fill="#DBDEE2" fill-rule="nonzero" points="87.9896502 29.6924151 52.5521921 9.23076494 52.4322619 14.5009352 83.1411702 32.3623187"></polygon>
                            <polygon id="Shape" fill="#E7E9EB" fill-rule="nonzero" points="52.5521921 9.23076494 15.7219956 30.4932398 20.4505453 33.0973751 52.4322619 14.5009352"></polygon>
                            <line x1="33.2086015" y1="48.8928632" x2="33.2086015" y2="111.461641" id="Shape" stroke="#FFFFFF" stroke-width="0.552674027" opacity="0.4"></line>
                            <line x1="15.7219956" y1="38.7452155" x2="15.7219956" y2="101.313994" id="Shape" stroke="#FFFFFF" stroke-width="0.552674027" opacity="0.4"></line>
                            <polyline id="Shape" stroke="#FFFFFF" stroke-width="0.552674027" opacity="0.4" points="86.3609198 38.6136791 86.2100398 38.7065283 86.2100398 101.275307 86.3609198 101.182457"></polyline>
                            <line x1="68.7969395" y1="48.8928632" x2="68.7969395" y2="111.461641" id="Shape" stroke="#FFFFFF" stroke-width="0.552674027" opacity="0.4"></line>
                            <line x1="0.784874897" y1="50.9548899" x2="50.8731685" y2="79.8735579" id="Shape" stroke="#FFFFFF" stroke-width="0.552674027" opacity="0.4"></line>
                            <line x1="0.827430797" y1="71.9697668" x2="50.9157244" y2="100.888435" id="Shape" stroke="#FFFFFF" stroke-width="0.552674027" opacity="0.4"></line>
                            <line x1="102.400625" y1="49.9025986" x2="50.8460874" y2="79.6646471" id="Shape" stroke="#FFFFFF" stroke-width="0.552674027" opacity="0.4"></line>
                            <line x1="102.911296" y1="71.2308416" x2="50.8731685" y2="101.275307" id="Shape" stroke="#FFFFFF" stroke-width="0.552674027" opacity="0.4"></line>
                        </g>
                    </g>
                    <g id="Group-17" transform="translate(226.239981, 58.000000)">
                        <g id="Group-14-Copy" transform="translate(0.000000, 34.439996)">
                            <g id="Group-11" transform="translate(0.000000, 89.039991)" fill-rule="nonzero">
                                <path d="M95.7638635,105.88648 C49.2649473,79.9628256 46.4761506,79.0906708 -1.19371167e-14,53.1555408 L92.2010335,4.17799085e-14 C138.597504,26.0613629 141.238324,27.0712264 187.623412,53.1325893 C157.003562,70.7286952 126.383713,88.3133254 95.7638635,105.88648 Z" id="Path" fill="#F9F9F9"></path>
                                <polygon id="Path" fill="#EDEFF1" points="95.7696738 105.674226 -1.19371167e-14 52.0144112 -1.19371167e-14 66.0206496 24.7250364 79.980739 95.7696738 119.818911 187.623412 66.7474972 187.623412 52.6720352"></polygon>
                                <polygon id="Path" fill="#CFD8DB" points="95.8626875 105.765828 95.6693634 105.662412 95.6693634 119.704005 95.8626875 119.818911 187.623412 66.9618515 187.623412 52.9432399"></polygon>
                                <path d="M95.6818729,82.6657606 C62.2499009,64.0112591 60.3113227,63.3356203 26.9360344,44.7383763 L93.1311121,6.5018014 C126.427043,25.2479149 128.274928,25.9693598 161.616206,44.7154733 L95.6818729,82.6657606 Z" id="Path" fill="#FCFCFC"></path>
                                <polygon id="Path" fill="#EDEFF1" points="95.6760867 82.8262664 26.9360344 44.583781 26.9360344 54.5605773 44.6764997 64.5145695 95.6874224 92.8828771 161.616206 55.0964738 161.616206 45.0512652"></polygon>
                                <polygon id="Path" fill="#CFD8DB" points="95.8164399 82.7279777 95.6693634 82.6473833 95.6693634 92.8022827 95.8164399 92.8828771 161.616206 54.7271669 161.616206 44.583781"></polygon>
                            </g>
                            <g id="Group-5" transform="translate(45.359995, 0.000000)">
                                <polygon id="Shape" stroke="#FFFFFF" stroke-width="0.552674027" fill="#F7F7F7" fill-rule="nonzero" stroke-linecap="round" stroke-linejoin="round" points="50.8731685 59.0134298 0.784874897 30.0947618 52.8384773 0.0425593865 102.926771 28.9573587"></polygon>
                                <polygon id="Shape" fill="#EDEFF1" fill-rule="nonzero" points="0.784874897 30.0947618 0.784874897 132.983536 50.8731685 161.898335 50.8731685 59.0134298"></polygon>
                                <polygon id="Shape" fill="url(#linearGradient-2)" fill-rule="nonzero" points="50.8731685 59.0134298 102.926771 28.9573587 102.926771 131.846133 50.8731685 161.898335"></polygon>
                                <polygon id="Shape" fill="#6D9BFF" fill-rule="nonzero" opacity="0.4" points="51.1594536 50.9548899 15.7219956 30.4932398 52.5521921 9.23076494 87.9896502 29.6924151"></polygon>
                                <polygon id="Shape" fill="#DBDEE2" fill-rule="nonzero" points="87.9896502 29.6924151 52.5521921 9.23076494 52.4322619 14.5009352 83.1411702 32.3623187"></polygon>
                                <polygon id="Shape" fill="#E7E9EB" fill-rule="nonzero" points="52.5521921 9.23076494 15.7219956 30.4932398 20.4505453 33.0973751 52.4322619 14.5009352"></polygon>
                                <polygon id="Path-7" fill="#BCCFD5" points="68.4599928 69.7199927 68.4599928 89.0399906 86.5199909 78.5399918 86.5199909 59.2199938"></polygon>
                                <polygon id="Path-7-Copy-5" fill="#BCCFD5" points="50.8199947 141.539985 50.8199947 161.699983 68.4599928 152.039984 68.4599928 131.879986"></polygon>
                                <polygon id="Path-7-Copy-2" fill="#D3DEE1" points="68.4599928 89.4599906 68.4599928 109.619988 86.5199909 99.1199896 86.5199909 78.9599917"></polygon>
                                <polygon id="Path-7-Copy-4" fill="#D3DEE1" points="50.8199947 120.119987 50.8199947 141.959985 68.4599928 131.879986 68.4599928 110.039988"></polygon>
                                <polygon id="Path-7-Copy-6" fill="#D3DEE1" points="68.8799928 131.039986 68.8799928 151.619984 86.5199909 141.539985 86.5199909 120.959987"></polygon>
                                <polygon id="Path-7-Copy" fill="#BCCFD5" points="86.5199909 79.3799917 86.5199909 99.5399895 102.899989 89.8799906 102.899989 69.7199927"></polygon>
                                <polygon id="Path-7-Copy-3" fill="#BCCFD5" points="86.5199909 99.5399895 86.5199909 121.379987 102.899989 111.719988 102.899989 89.8799906"></polygon>
                                <polygon id="Path-8" fill="#E7EEF0" points="15.5399984 79.3799917 15.5399984 99.9599895 33.1799965 110.039988 33.1799965 89.4599906"></polygon>
                                <polygon id="Path-8-Copy-4" fill="#E3EAEC" points="15.5399984 120.959987 15.5399984 141.539985 33.1799965 151.619984 33.1799965 131.039986"></polygon>
                                <polygon id="Path-8-Copy-2" fill="#E3EAEC" points="0.839999912 70.5599926 0.839999912 91.1399904 15.9599983 99.9599895 15.9599983 79.3799917"></polygon>
                                <polygon id="Path-8-Copy-3" fill="#DCE7EB" points="0.839999912 91.5599904 0.839999912 112.139988 15.9599983 120.959987 15.9599983 100.379989"></polygon>
                                <polygon id="Path-8-Copy" fill="#E7EEF0" points="33.1799965 69.2999927 33.1799965 89.4599906 50.8199947 99.5399895 50.8199947 79.3799917"></polygon>
                                <line x1="33.1799965" y1="49.1399948" x2="33.2086015" y2="151.781637" id="Shape" stroke="#F4F5F6" stroke-width="0.552674027"></line>
                                <line x1="15.5399984" y1="38.219996" x2="15.7219956" y2="141.63399" id="Shape" stroke="#F4F5F6" stroke-width="0.552674027"></line>
                                <polyline id="Shape" stroke="#E2E7E9" stroke-width="0.552674027" points="86.3342517 38.3816491 86.1704517 38.5347441 86.1704517 141.701638 86.3342517 141.548543"></polyline>
                                <line x1="68.4599928" y1="49.1399948" x2="68.7969395" y2="151.781637" id="Shape" stroke="#E2E7E9" stroke-width="0.552674027"></line>
                                <line x1="0.784874897" y1="91.2748857" x2="50.8731685" y2="120.193554" id="Shape" stroke="#F4F5F6" stroke-width="0.552674027"></line>
                                <line x1="0.784874897" y1="70.5599926" x2="50.8731685" y2="99.4786606" id="Shape-Copy-12" stroke="#F4F5F6" stroke-width="0.552674027"></line>
                                <line x1="0.784874897" y1="50.3999947" x2="50.8731685" y2="79.3186627" id="Shape-Copy-13" stroke="#F4F5F6" stroke-width="0.552674027"></line>
                                <line x1="0.827430797" y1="112.289763" x2="50.9157244" y2="141.208431" id="Shape" stroke="#F4F5F6" stroke-width="0.552674027"></line>
                                <line x1="102.400625" y1="90.2225944" x2="50.8460874" y2="119.984643" id="Shape" stroke="#E2E7E9" stroke-width="0.552674027"></line>
                                <line x1="102.400625" y1="69.7199927" x2="50.8460874" y2="99.4820412" id="Shape-Copy-10" stroke="#E2E7E9" stroke-width="0.552674027"></line>
                                <line x1="102.400625" y1="49.5599948" x2="50.8460874" y2="79.3220433" id="Shape-Copy-11" stroke="#E2E7E9" stroke-width="0.552674027"></line>
                                <line x1="102.911296" y1="111.550837" x2="50.8731685" y2="141.595302" id="Shape" stroke="#E2E7E9" stroke-width="0.552674027"></line>
                            </g>
                        </g>
                        <g id="Group-16" transform="translate(46.199995, 147.839984)" stroke="#7DA3FF" stroke-linecap="round" stroke-linejoin="round" stroke-width="1.16061544">
                            <line x1="34.2381554" y1="39.1514274" x2="50.2623859" y2="48.4015325" id="Shape"></line>
                            <line x1="0.386871813" y1="19.3474593" x2="16.1248171" y2="28.4312095" id="Shape"></line>
                            <line x1="66.5342143" y1="38.8457987" x2="50.796269" y2="47.9334176" id="Shape"></line>
                            <line x1="102.58293" y1="18.1288131" x2="86.8488532" y2="27.2125633" id="Shape"></line>
                            <line x1="102.528768" y1="-4.02877689e-14" x2="102.528768" y2="18.1675003" id="Shape"></line>
                            <line x1="50.5293274" y1="29.9438783" x2="50.5293274" y2="48.1113786" id="Shape"></line>
                            <line x1="0.386871813" y1="1.02907902" x2="0.386871813" y2="19.2004481" id="Shape"></line>
                        </g>
                        <g id="Group-15" transform="translate(46.199995, 34.439996)" stroke-linecap="round" stroke-linejoin="round" stroke-width="1.16061544">
                            <line x1="34.1607811" y1="49.2836002" x2="49.8987264" y2="58.3673504" id="Shape" stroke="#7DA3FF"></line>
                            <line x1="52.2354321" y1="-1.64135355e-14" x2="67.9733775" y2="9.08375016" id="Shape" stroke="#A1BCFF"></line>
                            <line x1="85.9203609" y1="19.448046" x2="101.654437" y2="28.5317962" id="Shape" stroke="#7DA3FF"></line>
                            <line x1="0.386871813" y1="30.3965183" x2="16.1248171" y2="39.4802685" id="Shape" stroke="#7DA3FF"></line>
                            <line x1="66.1473425" y1="49.2836002" x2="50.4093972" y2="58.3673504" id="Shape" stroke="#7DA3FF"></line>
                            <line x1="52.2857255" y1="-1.64135355e-14" x2="36.5516489" y2="9.08375016" id="Shape" stroke="#A1BCFF"></line>
                            <line x1="101.700862" y1="28.8722434" x2="85.9667855" y2="37.9598623" id="Shape" stroke="#7DA3FF"></line>
                            <line x1="16.1248171" y1="21.1038574" x2="0.386871813" y2="30.1876075" id="Shape" stroke="#7DA3FF"></line>
                            <line x1="50.1424556" y1="58.742616" x2="50.1424556" y2="76.9139851" id="Shape" stroke="#7DA3FF"></line>
                            <line x1="0.386871813" y1="30.6363788" x2="0.386871813" y2="48.8077479" id="Shape" stroke="#7DA3FF"></line>
                            <line x1="101.755024" y1="28.6672013" x2="101.755024" y2="46.8385703" id="Shape" stroke="#7DA3FF"></line>
                        </g>
                        <g id="Group" opacity="0.3" transform="translate(41.999996, 0.000000)" fill="url(#linearGradient-3)" fill-rule="nonzero">
                            <polygon id="Shape" points="18.2626901 64.5491633 54.8351932 85.2515895 91.1399904 64.2599933 107.39885 1.49243145 0.288046667 0.0722552249"></polygon>
                        </g>
                        <g id="Group" opacity="0.3" transform="translate(96.599990, 5.879999)" fill="url(#linearGradient-4)" fill-rule="nonzero">
                            <polygon id="Shape" points="0.314873967 79.0333658 0.314873967 24.2452955 52.5351892 0.461298445 36.5399962 58.3799939"></polygon>
                        </g>
                    </g>
                    <g id="vs" transform="translate(228.222242, 227.306210) rotate(-3.000000) translate(-228.222242, -227.306210) translate(202.722242, 200.806210)" fill="#4B83FF" fill-rule="nonzero">
                        <polygon id="Path" points="0 27.2691073 7.11527851 23.2069563 14.1105847 40.2588619 14.1844138 40.2588619 21.2996923 15.1465534 27.9719963 11.3399985 16.3070002 50.0719232 11.3050793 52.919993"></polygon>
                        <path d="M46.3532528,8.214496 C45.7707504,7.76111224 45.009087,7.60182933 44.2917173,7.78337725 C43.4206065,7.94135703 42.5847998,8.25196152 41.8234215,8.70065118 C41.3308098,8.99125003 40.8638379,9.32264857 40.427494,9.69130703 C39.9502478,10.0939951 39.508028,10.535848 39.1055228,11.0121815 C38.6891172,11.5052458 38.3409118,12.0512599 38.0701328,12.6357563 C37.8084388,13.1898208 37.6727294,13.7942034 37.672617,14.406095 C37.672617,15.3875781 37.9869318,15.9471152 38.5970724,16.0938791 C39.4001457,16.23983 40.2250721,16.2179612 41.0191454,16.0296699 C41.9990681,15.8370424 43.0437026,15.5985511 44.1622936,15.323369 C45.1870746,15.0575665 46.2506425,14.9706589 47.3054418,15.0665323 C48.2538286,15.1683673 49.1238028,15.6362172 49.7275148,16.3690612 C50.3746335,17.1303986 50.6519933,18.4512731 50.6519933,20.3316846 C50.6550166,22.1019144 50.3581359,23.8600589 49.7737375,25.5326278 C49.2042468,27.1944415 48.4146241,28.7737573 47.425621,30.2290703 C46.4265712,31.6770738 45.2599664,33.0039375 43.9496688,34.1825209 C42.6648164,35.3373818 41.2611764,36.3550323 39.7618861,37.2186977 C38.185263,38.170547 36.4513976,38.8382099 34.6404035,39.1908366 C33.1490179,39.4685082 31.6072296,39.2660331 30.239996,38.612954 L34.6773817,30.5134252 C35.3292909,31.121686 36.2065218,31.4339728 37.0994547,31.3756627 C38.1680399,31.3225686 39.2066849,31.0074076 40.1224237,30.4583888 C40.6658933,30.1364896 41.1821946,29.7714442 41.6662641,29.3668328 C42.1795909,28.9417787 42.6473742,28.465334 43.0621917,27.9450582 C43.4679044,27.4530485 43.8066906,26.910267 44.069848,26.3306561 C44.3139367,25.7876709 44.442948,25.2007024 44.4488747,24.6061811 C44.4488747,23.6338708 44.1160708,23.0559882 43.4689521,22.8633607 C42.6559511,22.6854908 41.8136572,22.6854908 41.0006563,22.8633607 C40.0114891,23.0376427 38.9483654,23.2577884 37.8020408,23.5146251 C36.7542975,23.7751298 35.6693493,23.8557912 34.5941807,23.7531164 C33.6469045,23.6681955 32.7677093,23.2287332 32.1351295,22.5239693 C31.4787662,21.7993229 31.1552068,20.5518304 31.1552068,18.7539735 C31.1624202,17.0225364 31.475302,15.3057413 32.0796622,13.6814486 C32.6738085,12.0198497 33.4816814,10.4413201 34.4832461,8.9850061 C35.4696035,7.54070982 36.6170202,6.21143033 37.9037309,5.02238273 C39.1362139,3.88481368 40.4909709,2.8850982 41.9436007,2.04124246 C43.3842127,1.20580553 44.9420015,0.587530567 46.5658775,0.206694596 C47.9064943,-0.143459173 49.3259325,-0.0467718786 50.6057474,0.481876775 L46.3532528,8.214496 Z" id="Path"></path>
                    </g>
                </g>
            </g>
        </g>
    </g>
</svg>