<?xml version="1.0" encoding="UTF-8"?>
<svg width="431px" height="240px" viewBox="0 0 431 240" version="1.1" xmlns="http://www.w3.org/2000/svg" xmlns:xlink="http://www.w3.org/1999/xlink">
    <!-- Generator: Sketch 63.1 (92452) - https://sketch.com -->
    <title>illustration-reliable</title>
    <desc>Created with Sketch.</desc>
    <defs>
        <linearGradient x1="99.9965065%" y1="49.9935034%" x2="0.000276915255%" y2="49.9935034%" id="linearGradient-1">
            <stop stop-color="#004FFF" offset="3%"></stop>
            <stop stop-color="#0452FF" stop-opacity="0.98" offset="14%"></stop>
            <stop stop-color="#115BFF" stop-opacity="0.93" offset="26%"></stop>
            <stop stop-color="#276AFF" stop-opacity="0.85" offset="38%"></stop>
            <stop stop-color="#457FFF" stop-opacity="0.73" offset="51%"></stop>
            <stop stop-color="#6C9AFF" stop-opacity="0.57" offset="64%"></stop>
            <stop stop-color="#9CBBFF" stop-opacity="0.39" offset="78%"></stop>
            <stop stop-color="#D4E1FF" stop-opacity="0.17" offset="91%"></stop>
            <stop stop-color="#FFFFFF" stop-opacity="0" offset="100%"></stop>
        </linearGradient>
        <linearGradient x1="0.00349353817%" y1="49.9935034%" x2="100.004654%" y2="49.9935034%" id="linearGradient-2">
            <stop stop-color="#004FFF" offset="3%"></stop>
            <stop stop-color="#0452FF" stop-opacity="0.98" offset="14%"></stop>
            <stop stop-color="#115BFF" stop-opacity="0.93" offset="26%"></stop>
            <stop stop-color="#276AFF" stop-opacity="0.85" offset="38%"></stop>
            <stop stop-color="#457FFF" stop-opacity="0.73" offset="51%"></stop>
            <stop stop-color="#6C9AFF" stop-opacity="0.57" offset="64%"></stop>
            <stop stop-color="#9CBBFF" stop-opacity="0.39" offset="78%"></stop>
            <stop stop-color="#D4E1FF" stop-opacity="0.17" offset="91%"></stop>
            <stop stop-color="#FFFFFF" stop-opacity="0" offset="100%"></stop>
        </linearGradient>
        <linearGradient x1="-0.0235288457%" y1="49.9596744%" x2="100.028392%" y2="49.9596744%" id="linearGradient-3">
            <stop stop-color="#004FFF" offset="3%"></stop>
            <stop stop-color="#0452FF" stop-opacity="0.98" offset="14%"></stop>
            <stop stop-color="#115BFF" stop-opacity="0.93" offset="26%"></stop>
            <stop stop-color="#276AFF" stop-opacity="0.85" offset="38%"></stop>
            <stop stop-color="#457FFF" stop-opacity="0.73" offset="51%"></stop>
            <stop stop-color="#6C9AFF" stop-opacity="0.57" offset="64%"></stop>
            <stop stop-color="#9CBBFF" stop-opacity="0.39" offset="78%"></stop>
            <stop stop-color="#D4E1FF" stop-opacity="0.17" offset="91%"></stop>
            <stop stop-color="#FFFFFF" stop-opacity="0" offset="100%"></stop>
        </linearGradient>
        <linearGradient x1="-0.000131729468%" y1="50.0206673%" x2="100.002257%" y2="50.0206673%" id="linearGradient-4">
            <stop stop-color="#004FFF" offset="3%"></stop>
            <stop stop-color="#0452FF" stop-opacity="0.98" offset="14%"></stop>
            <stop stop-color="#115BFF" stop-opacity="0.93" offset="26%"></stop>
            <stop stop-color="#276AFF" stop-opacity="0.85" offset="38%"></stop>
            <stop stop-color="#457FFF" stop-opacity="0.73" offset="51%"></stop>
            <stop stop-color="#6C9AFF" stop-opacity="0.57" offset="64%"></stop>
            <stop stop-color="#9CBBFF" stop-opacity="0.39" offset="78%"></stop>
            <stop stop-color="#D4E1FF" stop-opacity="0.17" offset="91%"></stop>
            <stop stop-color="#FFFFFF" stop-opacity="0" offset="100%"></stop>
        </linearGradient>
        <linearGradient x1="50.0046579%" y1="0.00120354149%" x2="50.0046579%" y2="99.9999246%" id="linearGradient-5">
            <stop stop-color="#3372FF" offset="0%"></stop>
            <stop stop-color="#3A77FF" stop-opacity="0.96" offset="8%"></stop>
            <stop stop-color="#4E85FF" stop-opacity="0.87" offset="22%"></stop>
            <stop stop-color="#6F9BFF" stop-opacity="0.71" offset="40%"></stop>
            <stop stop-color="#9CBAFF" stop-opacity="0.49" offset="61%"></stop>
            <stop stop-color="#D5E2FF" stop-opacity="0.21" offset="84%"></stop>
            <stop stop-color="#FFFFFF" stop-opacity="0" offset="100%"></stop>
        </linearGradient>
        <linearGradient x1="49.9720139%" y1="0.0333401224%" x2="49.9720139%" y2="99.9971139%" id="linearGradient-6">
            <stop stop-color="#3372FF" offset="0%"></stop>
            <stop stop-color="#3A77FF" stop-opacity="0.96" offset="8%"></stop>
            <stop stop-color="#4E85FF" stop-opacity="0.87" offset="22%"></stop>
            <stop stop-color="#6F9BFF" stop-opacity="0.71" offset="40%"></stop>
            <stop stop-color="#9CBAFF" stop-opacity="0.49" offset="61%"></stop>
            <stop stop-color="#D5E2FF" stop-opacity="0.21" offset="84%"></stop>
            <stop stop-color="#FFFFFF" stop-opacity="0" offset="100%"></stop>
        </linearGradient>
        <linearGradient x1="0.000479827381%" y1="49.9966124%" x2="99.9992004%" y2="49.9966124%" id="linearGradient-7">
            <stop stop-color="#3372FF" offset="0%"></stop>
            <stop stop-color="#3A77FF" stop-opacity="0.96" offset="8%"></stop>
            <stop stop-color="#4E85FF" stop-opacity="0.87" offset="22%"></stop>
            <stop stop-color="#6F9BFF" stop-opacity="0.71" offset="40%"></stop>
            <stop stop-color="#9CBAFF" stop-opacity="0.49" offset="61%"></stop>
            <stop stop-color="#D5E2FF" stop-opacity="0.21" offset="84%"></stop>
            <stop stop-color="#FFFFFF" stop-opacity="0" offset="100%"></stop>
        </linearGradient>
        <linearGradient x1="-0.0198669555%" y1="49.9591358%" x2="99.9847468%" y2="49.9591358%" id="linearGradient-8">
            <stop stop-color="#3372FF" offset="0%"></stop>
            <stop stop-color="#3A77FF" stop-opacity="0.96" offset="8%"></stop>
            <stop stop-color="#4E85FF" stop-opacity="0.87" offset="22%"></stop>
            <stop stop-color="#6F9BFF" stop-opacity="0.71" offset="40%"></stop>
            <stop stop-color="#9CBAFF" stop-opacity="0.49" offset="61%"></stop>
            <stop stop-color="#D5E2FF" stop-opacity="0.21" offset="84%"></stop>
            <stop stop-color="#FFFFFF" stop-opacity="0" offset="100%"></stop>
        </linearGradient>
        <linearGradient x1="0.000622643246%" y1="50.0007537%" x2="99.9989624%" y2="50.0007537%" id="linearGradient-9">
            <stop stop-color="#3372FF" offset="0%"></stop>
            <stop stop-color="#3A77FF" stop-opacity="0.96" offset="8%"></stop>
            <stop stop-color="#4E85FF" stop-opacity="0.87" offset="22%"></stop>
            <stop stop-color="#6F9BFF" stop-opacity="0.71" offset="40%"></stop>
            <stop stop-color="#9CBAFF" stop-opacity="0.49" offset="61%"></stop>
            <stop stop-color="#D5E2FF" stop-opacity="0.21" offset="84%"></stop>
            <stop stop-color="#FFFFFF" stop-opacity="0" offset="100%"></stop>
        </linearGradient>
    </defs>
    <g id="Services" stroke="none" stroke-width="1" fill="none" fill-rule="evenodd">
        <g id="Service_desktop-Fintech-Software" transform="translate(-831.000000, -2754.000000)" fill-rule="nonzero">
            <g id="Reliable" transform="translate(129.000000, 2652.000000)">
                <g id="illustration-reliable" transform="translate(684.000000, 0.000000)">
                    <g id="Group-26" transform="translate(71.900001, 147.080001)">
                        <path d="M121.257646,60.3977537 C121.167399,60.3968037 121.078998,60.3720518 121.001387,60.3259882 L18.092549,0.955702154 C17.8485197,0.814959888 17.7638249,0.503649075 17.9029167,0.258675314 C17.9705443,0.140057895 18.0827081,0.0533293674 18.2145268,0.0177286898 C18.3463456,-0.0178719878 18.4869208,0 18.6050688,0.0690430124 L121.513906,59.4393291 C121.716973,59.5543991 121.816646,59.7921379 121.756356,60.0176206 C121.696067,60.2431031 121.491044,60.3993729 121.257646,60.3977537 Z" id="Shape" fill="url(#linearGradient-1)"></path>
                        <path d="M183.067526,60.3977537 C183.157774,60.3968037 183.246174,60.3720518 183.323786,60.3259882 L286.212123,0.955702154 C286.456152,0.814959888 286.540847,0.503649075 286.401755,0.258675314 C286.334127,0.140057895 286.221964,0.0533293674 286.090145,0.0177286898 C285.958326,-0.0178719878 285.817751,0 285.699603,0.0690430124 L182.790766,59.4393291 C182.587699,59.5543991 182.488027,59.7921379 182.548316,60.0176206 C182.608605,60.2431031 182.813628,60.3993729 183.047026,60.3977537 L183.067526,60.3977537 Z" id="Shape" fill="url(#linearGradient-2)"></path>
                        <path d="M165.37022,51.0596437 C165.460001,51.0602515 165.54837,51.0372755 165.62648,50.9930039 L208.893396,26.0332928 C209.057485,25.9386989 209.156029,25.7613201 209.149656,25.572025 L208.883145,16.0442831 L230.250093,3.74380951 C230.481882,3.59646215 230.556314,3.29258879 230.418863,3.05479836 C230.281411,2.81700792 229.980944,2.72983959 229.737574,2.85715037 L208.104116,15.3370059 C207.940026,15.4315998 207.841483,15.6089786 207.847856,15.7982737 L208.119491,25.3208903 L165.129336,50.1063447 C164.931633,50.2236271 164.836203,50.4581976 164.895878,50.6801891 C164.955553,50.9021805 165.155735,51.0572853 165.385596,51.0596437 L165.37022,51.0596437 Z" id="Shape" fill="url(#linearGradient-3)"></path>
                        <path d="M200.201061,70.6583861 C200.289106,70.6583861 200.375597,70.6351702 200.452196,70.5917585 L235.303538,50.4907345 L250.899513,55.5544295 C251.037447,55.6002449 251.188348,55.5853412 251.314654,55.5134279 L279.421237,39.2819279 C279.58805,39.1946649 279.693596,39.0229715 279.696191,38.8347288 C279.698692,38.6464862 279.597832,38.4719991 279.433441,38.3802531 C279.26905,38.2885069 279.067593,38.294272 278.908717,38.3952688 L250.976391,54.5088892 L235.375291,49.4451943 C235.237356,49.3993789 235.086456,49.4142826 234.96015,49.4861958 L199.939676,69.7050994 C199.741183,69.8228782 199.645903,70.0588038 199.706936,70.2813937 C199.767968,70.5039836 199.970256,70.6583861 200.201061,70.6583861 Z" id="Shape" fill="url(#linearGradient-4)"></path>
                        <path d="M72.3682131,51.0596437 C72.4579944,51.0602515 72.5463635,51.0372755 72.624473,50.9930039 L115.891389,26.0332928 C116.055478,25.9386989 116.154022,25.7613201 116.147649,25.572025 L115.881139,16.0442831 L137.248086,3.74380951 C137.479875,3.59646215 137.554307,3.29258879 137.416856,3.05479836 C137.279404,2.81700792 136.978937,2.72983959 136.735567,2.85715037 L115.102109,15.3370059 C114.93802,15.4315998 114.839476,15.6089786 114.845849,15.7982737 L115.117484,25.3208903 L72.1273288,50.1063447 C71.9296265,50.2236271 71.834196,50.4581976 71.8938711,50.6801891 C71.9535462,50.9021805 72.1537282,51.0572853 72.3835887,51.0596437 L72.3682131,51.0596437 Z" id="Shape" fill="url(#linearGradient-3)" transform="translate(104.680987, 26.929163) scale(-1, 1) translate(-104.680987, -26.929163) "></path>
                        <path d="M24.3890481,70.6583861 C24.4770929,70.6583861 24.5635838,70.6351702 24.6401828,70.5917585 L59.4915247,50.4907345 L75.0875003,55.5544295 C75.2254344,55.6002449 75.3763347,55.5853412 75.5026412,55.5134279 L103.609224,39.2819279 C103.776037,39.1946649 103.881583,39.0229715 103.884178,38.8347288 C103.886679,38.6464862 103.785819,38.4719991 103.621428,38.3802531 C103.457037,38.2885069 103.25558,38.294272 103.096704,38.3952688 L75.1643782,54.5088892 L59.5632775,49.4451943 C59.4253434,49.3993789 59.2744431,49.4142826 59.1481365,49.4861958 L24.127663,69.7050994 C23.9291702,69.8228782 23.83389,70.0588038 23.8949227,70.2813937 C23.9559554,70.5039836 24.1582424,70.6583861 24.3890481,70.6583861 Z" id="Shape" fill="url(#linearGradient-4)" transform="translate(63.880406, 54.486829) scale(-1, 1) translate(-63.880406, -54.486829) "></path>
                        <path d="M51.1859483,132.278661 C50.8376522,132.279021 50.5326076,132.045203 50.4424913,131.708766 C50.3523739,131.372329 50.4997008,131.017339 50.8015585,130.843579 L109.633699,96.9045217 C109.871737,96.767192 110.164956,96.7672863 110.402906,96.9047677 C110.640854,97.0422501 110.787296,97.2962323 110.787296,97.5710434 C110.787296,97.8458544 110.640516,98.0997434 110.402478,98.237073 L51.5703381,132.17613 C51.4538044,132.244356 51.3209798,132.279776 51.1859483,132.278661 Z" id="Shape" fill="url(#linearGradient-5)"></path>
                        <path d="M61.5490973,156.787328 C61.1953511,156.79151 60.8844177,156.553743 60.795761,156.211261 C60.7071043,155.868779 60.8636155,155.510007 61.1749579,155.342022 L109.264685,129.003633 L108.987924,119.322135 C108.983096,119.055195 109.114417,118.804139 109.336437,118.655859 L127.874276,106.565519 C128.104069,106.404026 128.403638,106.380699 128.65566,106.504674 C128.90768,106.62865 129.072036,106.880193 129.084355,107.160786 C129.096673,107.441379 128.954995,107.706359 128.714809,107.851943 L110.540859,119.706525 L110.812494,129.4444 C110.820766,129.732042 110.668758,130.000524 110.417854,130.141427 L61.9437375,156.71045 C61.8208158,156.769057 61.6850299,156.795508 61.5490973,156.787328 Z" id="Shape" fill="url(#linearGradient-6)"></path>
                        <path d="M300.157785,165.018395 C300.023154,165.016506 299.891089,164.981289 299.773395,164.915891 L185.522496,99.0007274 C185.154522,98.7884346 185.028317,98.3180358 185.24061,97.950062 C185.452903,97.5820882 185.923302,97.4558833 186.291276,97.6681761 L300.542175,163.583339 C300.844033,163.7571 300.991359,164.112089 300.901242,164.448527 C300.811126,164.784963 300.506081,165.018395 300.157785,165.018395 Z" id="Shape" fill="url(#linearGradient-7)"></path>
                        <path d="M238.025018,161.94841 C237.89005,161.94904 237.757356,161.913655 237.640628,161.845897 L213.623953,148.007864 C213.3819,147.864471 213.235215,147.602394 213.239563,147.321088 L213.536825,136.865685 L165.872489,109.379252 C165.53733,109.153272 165.434422,108.706337 165.637008,108.35654 C165.839593,108.006743 166.278464,107.87358 166.641269,108.051826 L214.679744,135.763768 C214.922594,135.906383 215.069562,136.168967 215.064133,136.450544 L214.766872,146.905947 L238.419658,160.513346 C238.721516,160.687107 238.868842,161.042096 238.778725,161.378534 C238.688609,161.71497 238.383564,161.94841 238.035268,161.94841 L238.025018,161.94841 Z" id="Shape" fill="url(#linearGradient-8)"></path>
                        <path d="M292.639121,122.469015 C292.504153,122.469645 292.371459,122.43426 292.254731,122.366502 L261.31904,104.520565 L244.088126,110.11728 C243.881216,110.183042 243.656196,110.158866 243.467977,110.050653 L204.562604,87.6074137 C204.19463,87.3951209 204.068425,86.9247221 204.280718,86.5567483 C204.493011,86.1887745 204.96341,86.0625696 205.331384,86.2748624 L243.939495,108.54897 L261.170409,102.952255 C261.376539,102.884295 261.601792,102.906634 261.790558,103.013757 L293.02351,121.033951 C293.325368,121.207711 293.472695,121.562701 293.382578,121.899138 C293.292461,122.235575 292.987417,122.469394 292.639121,122.469015 Z" id="Shape" fill="url(#linearGradient-9)"></path>
                        <path d="M88.7991054,122.469015 C88.6641374,122.469645 88.531444,122.43426 88.4147156,122.366502 L57.4790244,104.520565 L40.2481109,110.11728 C40.0412005,110.183042 39.8161808,110.158866 39.627962,110.050653 L0.72258895,87.6074137 C0.354615156,87.3951209 0.228410247,86.9247221 0.440703096,86.5567483 C0.652995946,86.1887745 1.12339476,86.0625696 1.49136855,86.2748624 L40.0994802,108.54897 L57.3303937,102.952255 C57.536524,102.884295 57.7617764,102.906634 57.9505425,103.013757 L89.1834952,121.033951 C89.4853529,121.207711 89.6326798,121.562701 89.5425624,121.899138 C89.4524461,122.235575 89.1474015,122.469394 88.7991054,122.469015 Z" id="Shape" fill="url(#linearGradient-9)" transform="translate(44.953227, 104.320409) scale(-1, 1) translate(-44.953227, -104.320409) "></path>
                    </g>
                    <g id="Group-11" transform="translate(123.840002, 155.900001)">
                        <path d="M100.552067,111.180815 C51.7281997,83.9609751 48.7999629,83.0452125 -1.25339738e-14,55.8133233 L96.8110946,4.38689082e-14 C145.527394,27.3644338 148.300255,28.4247905 197.004602,55.7892243 C164.853757,74.2651373 132.702912,92.7290008 100.552067,111.180815 Z" id="Path" fill="#F9F9F9"></path>
                        <polygon id="Path" fill="#EDEFF1" points="100.558167 110.957948 -1.25339738e-14 54.6151371 -1.25339738e-14 69.3216889 25.9612908 83.9797842 100.558167 125.809869 197.004602 70.084879 197.004602 55.3056424"></polygon>
                        <polygon id="Path" fill="#CFD8DB" points="100.655832 111.05413 100.452841 110.945543 100.452841 125.689217 100.655832 125.809869 197.004602 70.309951 197.004602 55.5904074"></polygon>
                        <path d="M100.465976,86.7990571 C65.3624024,67.2118286 63.3268951,66.5024078 28.2828388,46.9752997 L97.7876772,6.82689214 C132.748409,26.5103133 134.688688,27.2678304 169.697033,46.9512516 L100.465976,86.7990571 Z" id="Path" fill="#FCFCFC"></path>
                        <polygon id="Path" fill="#EDEFF1" points="100.459901 86.9675883 28.2828388 46.8129746 28.2828388 57.2886118 46.9103293 67.7403046 100.471803 97.5270305 169.697033 57.8513031 169.697033 47.3038331"></polygon>
                        <polygon id="Path" fill="#CFD8DB" points="100.607272 86.8643851 100.452841 86.779761 100.452841 97.4424063 100.607272 97.5270305 169.697033 57.4635308 169.697033 46.8129746"></polygon>
                    </g>
                    <g id="Group-11-Copy-2" transform="translate(297.300005, 102.000000)">
                        <path d="M62.5657272,69.1791702 C32.1864338,52.2423819 30.3644198,51.6725741 -7.79891662e-15,34.7282883 L60.2380114,2.72962082e-14 C90.5503737,17.0267579 92.2757094,17.6865354 122.580635,34.7132934 C102.575666,46.2094164 82.5706964,57.698042 62.5657272,69.1791702 Z" id="Path" fill="#F9F9F9"></path>
                        <polygon id="Path" fill="#EDEFF1" points="62.5695232 69.0404975 -7.79891662e-15 33.9827503 -7.79891662e-15 43.1334931 16.1536912 52.2540853 62.5695232 78.2816926 122.580635 43.608367 122.580635 34.412398"></polygon>
                        <polygon id="Path" fill="#CFD8DB" points="62.6302922 69.1003442 62.5039871 69.0327791 62.5039871 78.2066202 62.6302922 78.2816926 122.580635 43.7484117 122.580635 34.5895851"></polygon>
                        <path d="M62.5121599,54.0082995 C40.6699372,41.8206913 39.4033994,41.3792739 17.59821,29.2290739 L60.8456628,4.24784378 C82.5990056,16.4953052 83.8062903,16.9666492 105.58926,29.2141106 L62.5121599,54.0082995 Z" id="Path" fill="#FCFCFC"></path>
                        <polygon id="Path" fill="#EDEFF1" points="62.5083796 54.1131633 17.59821 29.1280716 17.59821 35.6462455 29.1886479 42.1495207 62.5157857 60.6834826 105.58926 35.9963646 105.58926 29.4334947"></polygon>
                        <polygon id="Path" fill="#CFD8DB" points="62.6000771 54.048948 62.5039871 53.996293 62.5039871 60.6308276 62.6000771 60.6834826 105.58926 35.7550841 105.58926 29.1280716"></polygon>
                    </g>
                    <g id="Group-11-Copy-4" transform="translate(18.000000, 102.000000)">
                        <path d="M62.5657272,69.1791702 C32.1864338,52.2423819 30.3644198,51.6725741 -7.79891662e-15,34.7282883 L60.2380114,2.72962082e-14 C90.5503737,17.0267579 92.2757094,17.6865354 122.580635,34.7132934 C102.575666,46.2094164 82.5706964,57.698042 62.5657272,69.1791702 Z" id="Path" fill="#F9F9F9"></path>
                        <polygon id="Path" fill="#EDEFF1" points="62.5695232 69.0404975 -7.79891662e-15 33.9827503 -7.79891662e-15 43.1334931 16.1536912 52.2540853 62.5695232 78.2816926 122.580635 43.608367 122.580635 34.412398"></polygon>
                        <polygon id="Path" fill="#CFD8DB" points="62.6302922 69.1003442 62.5039871 69.0327791 62.5039871 78.2066202 62.6302922 78.2816926 122.580635 43.7484117 122.580635 34.5895851"></polygon>
                        <path d="M62.5121599,54.0082995 C40.6699372,41.8206913 39.4033994,41.3792739 17.59821,29.2290739 L60.8456628,4.24784378 C82.5990056,16.4953052 83.8062903,16.9666492 105.58926,29.2141106 L62.5121599,54.0082995 Z" id="Path" fill="#FCFCFC"></path>
                        <polygon id="Path" fill="#EDEFF1" points="62.5083796 54.1131633 17.59821 29.1280716 17.59821 35.6462455 29.1886479 42.1495207 62.5157857 60.6834826 105.58926 35.9963646 105.58926 29.4334947"></polygon>
                        <polygon id="Path" fill="#CFD8DB" points="62.6000771 54.048948 62.5039871 53.996293 62.5039871 60.6308276 62.6000771 60.6834826 105.58926 35.7550841 105.58926 29.1280716"></polygon>
                    </g>
                    <g id="Group-11-Copy-5" transform="translate(0.720006, 0.700003)">
                        <g id="Group-4">
                            <g id="Group-6" transform="translate(325.000000, 263.000000)">
                                <path d="M62.5657272,69.1791702 C32.1864338,52.2423819 30.3644198,51.6725741 -5.68434189e-14,34.7282883 L60.2380114,1.42108547e-14 C90.5503737,17.0267579 92.2757094,17.6865354 122.580635,34.7132934 C102.575666,46.2094164 82.5706964,57.698042 62.5657272,69.1791702 Z" id="Path" fill="#F9F9F9"></path>
                                <polygon id="Path" fill="#EDEFF1" points="62.5695232 69.0404975 -5.68434189e-14 33.9827503 -5.68434189e-14 43.1334931 16.1536912 52.2540853 62.5695232 78.2816926 122.580635 43.608367 122.580635 34.412398"></polygon>
                                <polygon id="Path" fill="#CFD8DB" points="62.6302922 69.1003442 62.5039871 69.0327791 62.5039871 78.2066202 62.6302922 78.2816926 122.580635 43.7484117 122.580635 34.5895851"></polygon>
                                <path d="M62.5121599,54.0082995 C40.6699372,41.8206913 39.4033994,41.3792739 17.59821,29.2290739 L60.8456628,4.24784378 C82.5990056,16.4953052 83.8062903,16.9666492 105.58926,29.2141106 L62.5121599,54.0082995 Z" id="Path" fill="#FCFCFC"></path>
                                <polygon id="Path" fill="#EDEFF1" points="62.5083796 54.1131633 17.59821 29.1280716 17.59821 35.6462455 29.1886479 42.1495207 62.5157857 60.6834826 105.58926 35.9963646 105.58926 29.4334947"></polygon>
                                <polygon id="Path" fill="#CFD8DB" points="62.6000771 54.048948 62.5039871 53.996293 62.5039871 60.6308276 62.6000771 60.6834826 105.58926 35.7550841 105.58926 29.1280716"></polygon>
                            </g>
                        </g>
                    </g>
                    <g id="Group-11-Copy-3" transform="translate(18.000000, 263.700003)">
                        <path d="M62.5657272,69.1791702 C32.1864338,52.2423819 30.3644198,51.6725741 -7.79891662e-15,34.7282883 L60.2380114,2.72962082e-14 C90.5503737,17.0267579 92.2757094,17.6865354 122.580635,34.7132934 C102.575666,46.2094164 82.5706964,57.698042 62.5657272,69.1791702 Z" id="Path" fill="#F9F9F9"></path>
                        <polygon id="Path" fill="#EDEFF1" points="62.5695232 69.0404975 -7.79891662e-15 33.9827503 -7.79891662e-15 43.1334931 16.1536912 52.2540853 62.5695232 78.2816926 122.580635 43.608367 122.580635 34.412398"></polygon>
                        <polygon id="Path" fill="#CFD8DB" points="62.6302922 69.1003442 62.5039871 69.0327791 62.5039871 78.2066202 62.6302922 78.2816926 122.580635 43.7484117 122.580635 34.5895851"></polygon>
                        <path d="M62.5121599,54.0082995 C40.6699372,41.8206913 39.4033994,41.3792739 17.59821,29.2290739 L60.8456628,4.24784378 C82.5990056,16.4953052 83.8062903,16.9666492 105.58926,29.2141106 L62.5121599,54.0082995 Z" id="Path" fill="#FCFCFC"></path>
                        <polygon id="Path" fill="#EDEFF1" points="62.5083796 54.1131633 17.59821 29.1280716 17.59821 35.6462455 29.1886479 42.1495207 62.5157857 60.6834826 105.58926 35.9963646 105.58926 29.4334947"></polygon>
                        <polygon id="Path" fill="#CFD8DB" points="62.6000771 54.048948 62.5039871 53.996293 62.5039871 60.6308276 62.6000771 60.6834826 105.58926 35.7550841 105.58926 29.1280716"></polygon>
                    </g>
                    <g id="code" transform="translate(194.400003, 185.300002)" fill="#6291FB">
                        <path d="M26.6943188,30.5311169 C26.3062103,30.7340933 25.8726454,30.8344555 25.4348228,30.8226669 L1.77553955,30.8663994 C1.33779498,30.8774156 0.904421329,30.7770977 0.516043516,30.5748494 C0.226189461,30.4461204 0.0287307553,30.1705707 0,29.8547209 L0.0699720021,16.9099005 C0.0699720021,16.3268005 0.874650027,15.880729 1.85717356,15.8777997 C2.83969709,15.874898 3.63271311,16.335547 3.62979761,16.901154 L3.56565661,28.8109719 L25.4464848,28.7701549 C26.4290083,28.7701549 27.2220243,29.2278884 27.2191168,29.7964109 C27.1901632,30.1182877 26.9894091,30.3993435 26.6943188,30.5311169 Z" id="Path"></path>
                        <path d="M52.8842561,15.4113335 C52.495234,15.6146729 52.0606353,15.7150421 51.6218446,15.7028835 C50.639321,15.7028835 49.846305,15.24515 49.8492205,14.6795429 L49.916277,2.04668106 L29.2920294,2.08458256 C28.3095059,2.08458256 27.5135743,1.62684905 27.5164819,1.06124203 C27.5194053,0.495635015 28.3182524,0.0437325013 29.3036914,0.0408170012 L51.7093096,0 C52.6918331,0 53.4848491,0.457733514 53.4819416,1.02334053 L53.4090461,14.6853739 C53.3759193,15.0035648 53.176012,15.2801034 52.8842561,15.4113335 Z" id="Path"></path>
                        <path d="M34.6069861,26.2540783 C34.3973554,26.3719049 34.1698556,26.4546321 33.9335055,26.4989803 C33.003461,26.6884878 31.9917825,26.4056843 31.668162,25.8721478 L19.3647516,5.34411166 C19.0440466,4.81057515 19.5367661,4.22164413 20.4668106,4.03505212 C21.3968552,3.84846012 22.4085337,4.12543263 22.7409007,4.66480014 L35.0472266,25.1899208 C35.2775511,25.5718513 35.0763816,25.9829368 34.6069861,26.2540783 Z" id="Path"></path>
                    </g>
                </g>
            </g>
        </g>
    </g>
</svg>