<?xml version="1.0" encoding="UTF-8"?>
<svg width="462px" height="462px" viewBox="0 0 462 462" version="1.1" xmlns="http://www.w3.org/2000/svg" xmlns:xlink="http://www.w3.org/1999/xlink">
    <!-- Generator: Sketch 63.1 (92452) - https://sketch.com -->
    <title>illustration-speech</title>
    <desc>Created with Sketch.</desc>
    <defs>
        <linearGradient x1="23.976217%" y1="24.6689779%" x2="76.023783%" y2="75.335199%" id="linearGradient-1">
            <stop stop-color="#CFD8DB" offset="0%"></stop>
            <stop stop-color="#CFD8DB" offset="100%"></stop>
        </linearGradient>
    </defs>
    <g id="Services" stroke="none" stroke-width="1" fill="none" fill-rule="evenodd">
        <g id="Service_desktop-AI/ML-DEVELOPMENT-1" transform="translate(-128.000000, -3344.000000)">
            <rect fill="#FFFFFF" x="0" y="0" width="1400" height="5560"></rect>
            <g id="Group-8" transform="translate(239.000000, 3386.000000)">
                <g id="Group-5" transform="translate(19.500001, 95.200005)">
                    <polygon id="Shape" stroke="#FFFFFF" stroke-width="1.07674919" fill-opacity="0.5" fill="#F7F7F7" fill-rule="nonzero" stroke-linecap="round" stroke-linejoin="round" points="97.8138362 114.97313 0.229135313 58.6322295 101.642756 0.0829164802 199.227457 56.4162797"></polygon>
                    <polygon id="Shape" fill-opacity="0.5" fill="#EDEFF1" fill-rule="nonzero" points="0.229135313 58.6322295 0.229135313 180.53208 97.8138362 236.865444 97.8138362 114.97313"></polygon>
                    <polygon id="Shape" fill-opacity="0.5" fill="url(#linearGradient-1)" fill-rule="nonzero" points="97.8138362 114.97313 199.227457 56.4162797 199.227457 178.31613 97.8138362 236.865444"></polygon>
                    <polygon id="Shape" fill-opacity="0.5" fill="#E0E8EA" fill-rule="nonzero" opacity="0.4" points="98.3715922 99.2730504 29.3304352 59.4085657 101.085 17.9838715 170.126157 57.8483561"></polygon>
                    <polygon id="Shape" fill-opacity="0.5" fill="#DBDEE2" fill-rule="nonzero" points="170.126157 57.8483561 101.085 17.9838715 100.851346 28.2514999 160.680088 63.0500056"></polygon>
                    <polygon id="Shape" fill-opacity="0.5" fill="#E7E9EB" fill-rule="nonzero" points="101.085 17.9838715 29.3304352 59.4085657 38.5428495 64.482082 100.851346 28.2514999"></polygon>
                    <line x1="132.733889" y1="95.2556992" x2="132.733889" y2="217.15555" id="Shape" stroke="#FFFFFF" stroke-width="1.07674919" opacity="0.4"></line>
                    <g id="Group-6" transform="translate(5.223291, 62.314500)" opacity="0.4" stroke="#FFFFFF" stroke-width="1.07674919">
                        <line x1="57.1767124" y1="32.5855053" x2="58.175488" y2="154.84105" id="Shape"></line>
                        <line x1="62.3767127" y1="35.1855054" x2="62.3767127" y2="157.085356" id="Shape-Copy"></line>
                        <line x1="67.576713" y1="39.0855056" x2="67.576713" y2="160.985356" id="Shape-Copy-2"></line>
                        <line x1="72.7767132" y1="41.6855058" x2="72.7767132" y2="163.585356" id="Shape-Copy-3"></line>
                        <line x1="77.9767135" y1="44.2855059" x2="77.9767135" y2="166.185357" id="Shape-Copy-4"></line>
                        <line x1="83.1767138" y1="46.885506" x2="83.1767138" y2="168.785357" id="Shape-Copy-5"></line>
                        <line x1="88.3767141" y1="50.7855063" x2="88.3767141" y2="172.685357" id="Shape-Copy-6"></line>
                        <line x1="47.5304362" y1="26.0855049" x2="47.5304362" y2="147.985356" id="Shape-Copy-11"></line>
                        <line x1="52.7304365" y1="29.9855051" x2="52.7304365" y2="151.885356" id="Shape-Copy-12"></line>
                        <line x1="26.7304351" y1="14.3855042" x2="26.7304351" y2="136.285355" id="Shape-Copy-7"></line>
                        <line x1="31.9304354" y1="18.2855045" x2="31.9304354" y2="140.185355" id="Shape-Copy-8"></line>
                        <line x1="37.1304357" y1="20.8855046" x2="37.1304357" y2="142.785355" id="Shape-Copy-9"></line>
                        <line x1="42.3304359" y1="23.4855048" x2="42.3304359" y2="145.385355" id="Shape-Copy-10"></line>
                        <line x1="21.507144" y1="11.8710076" x2="21.507144" y2="133.770858" id="Shape"></line>
                        <line x1="0.753724422" y1="-2.49400514e-13" x2="0.753724422" y2="121.899851" id="Shape-Copy-13"></line>
                        <line x1="5.95372471" y1="3.90000021" x2="5.95372471" y2="125.799851" id="Shape-Copy-14"></line>
                        <line x1="11.153725" y1="6.50000036" x2="11.153725" y2="128.399851" id="Shape-Copy-15"></line>
                        <line x1="16.3537253" y1="9.1000005" x2="16.3537253" y2="130.999851" id="Shape-Copy-16"></line>
                    </g>
                    <g id="Group-6" transform="translate(147.523301, 147.714500) scale(-1, 1) translate(-147.523301, -147.714500) translate(100.023301, 59.714500)" opacity="0.4" stroke="#FFFFFF" stroke-width="1.07674919">
                        <line x1="67.576713" y1="37.7855055" x2="67.576713" y2="159.685356" id="Shape-Copy"></line>
                        <line x1="72.7767132" y1="41.6855058" x2="72.7767132" y2="163.585356" id="Shape-Copy-2"></line>
                        <line x1="77.9767135" y1="44.2855059" x2="77.9767135" y2="166.185357" id="Shape-Copy-3"></line>
                        <line x1="83.1767138" y1="46.885506" x2="83.1767138" y2="168.785357" id="Shape-Copy-4"></line>
                        <line x1="88.3767141" y1="49.4855062" x2="88.3767141" y2="171.385357" id="Shape-Copy-5"></line>
                        <line x1="93.5767144" y1="53.3855064" x2="93.5767144" y2="175.285357" id="Shape-Copy-6"></line>
                        <line x1="52.7304365" y1="28.685505" x2="52.7304365" y2="150.585356" id="Shape-Copy-11"></line>
                        <line x1="57.9304368" y1="32.5855053" x2="57.9304368" y2="154.485356" id="Shape-Copy-12"></line>
                        <line x1="31.9304354" y1="16.9855044" x2="31.9304354" y2="138.885355" id="Shape-Copy-7"></line>
                        <line x1="37.1304357" y1="20.8855046" x2="37.1304357" y2="142.785355" id="Shape-Copy-8"></line>
                        <line x1="42.3304359" y1="23.4855048" x2="42.3304359" y2="145.385355" id="Shape-Copy-9"></line>
                        <line x1="47.5304362" y1="26.0855049" x2="47.5304362" y2="147.985356" id="Shape-Copy-10"></line>
                        <line x1="26.7071443" y1="14.4710077" x2="26.7071443" y2="136.370858" id="Shape"></line>
                        <line x1="11.153725" y1="6.50000036" x2="11.153725" y2="128.399851" id="Shape-Copy-14"></line>
                        <line x1="16.3537253" y1="9.1000005" x2="16.3537253" y2="130.999851" id="Shape-Copy-15"></line>
                        <line x1="21.5537256" y1="11.7000006" x2="21.5537256" y2="133.599851" id="Shape-Copy-16"></line>
                        <line x1="5.95372471" y1="2.60000014" x2="5.95372471" y2="124.499851" id="Shape-Copy-13"></line>
                        <line x1="1.32329084" y1="0.0855034627" x2="1.32329084" y2="121.985354" id="Shape-Copy-17"></line>
                    </g>
                </g>
                <g id="Group" opacity="0.8" fill="#9CBAFB" fill-rule="nonzero">
                    <polygon id="Path" points="28.4719507 103.910002 28.5324007 127.666853 22.9710006 130.870703 22.9105506 107.113853"></polygon>
                    <polygon id="Path" points="6.40770016 116.664953 6.46815016 140.421803 0.967200023 143.565203 0.906750022 119.808353"></polygon>
                    <polygon id="Path" points="57.7902014 86.984002 57.9111014 110.740853 52.3497013 113.884253 52.2892513 90.1274021"></polygon>
                    <polygon id="Path" points="46.7278511 78.5814518 46.9092011 131.293853 41.408251 134.437253 41.287351 81.7248519"></polygon>
                    <polygon id="Path" points="17.4096004 95.5074522 17.5305004 148.219853 12.0295503 151.423704 11.9086503 98.6508523"></polygon>
                    <polygon id="Path" points="37.5394509 72.2342017 37.7812509 150.275154 32.2803008 153.479004 32.0989508 75.3776017"></polygon>
                    <polygon id="Path" points="79.7940019 53.1320012 79.9149019 97.9859023 74.4139518 101.189752 74.2930518 56.2754013"></polygon>
                    <polygon id="Path" points="109.233153 57.3030513 109.354053 102.640552 103.853103 105.783952 103.732203 60.4464514"></polygon>
                    <polygon id="Path" points="98.1708024 48.8400511 98.3521524 101.612902 92.7907523 104.816752 92.6698522 52.0439012"></polygon>
                    <polygon id="Path" points="131.176503 18.1919003 131.297403 68.3049516 125.796453 71.5088016 125.675553 21.3353004"></polygon>
                    <polygon id="Path" points="120.235053 36.1455508 120.355953 88.8579521 114.855003 92.0618021 114.673653 39.2889509"></polygon>
                    <polygon id="Path" points="68.7921017 65.8265015 68.9130017 118.538903 63.4120515 121.742753 63.2911515 69.0303516"></polygon>
                    <polygon id="Path" points="88.9824022 42.5532509 89.1637522 120.594203 83.723252 123.798053 83.481452 45.696651"></polygon>
                    <polygon id="Path" points="153.301204 31.7931507 153.361654 55.6104513 147.860704 58.8143013 147.800254 34.9970008"></polygon>
                    <polygon id="Path" points="182.679904 14.8671503 182.800804 60.2046514 177.299854 63.4085014 177.178954 18.0710003"></polygon>
                    <polygon id="Path" points="171.617554 6.46460006 171.738454 59.2374513 166.237504 62.3808514 166.116604 9.66845014"></polygon>
                    <polygon id="Path" points="193.742255 20.0658504 193.802705 46.482501 188.241305 49.6863511 188.241305 23.2697005"></polygon>
                    <polygon id="Path" points="142.238853 23.4510505 142.359753 76.1634518 136.919253 79.3673018 136.737903 26.5944505"></polygon>
                    <polygon id="Path" points="162.368704 0.117349907 162.610504 78.2187518 157.170004 81.3621519 156.928204 3.32119998"></polygon>
                </g>
            </g>
        </g>
    </g>
</svg>