<?xml version="1.0" encoding="UTF-8"?>
<svg width="464px" height="464px" viewBox="0 0 464 464" version="1.1" xmlns="http://www.w3.org/2000/svg" xmlns:xlink="http://www.w3.org/1999/xlink">
    <!-- Generator: Sketch 63.1 (92452) - https://sketch.com -->
    <title>Competetive</title>
    <desc>Created with Sketch.</desc>
    <g id="Services" stroke="none" stroke-width="1" fill="none" fill-rule="evenodd">
        <g id="Service_desktop-MVP" transform="translate(-814.000000, -3835.000000)">
            <rect fill="#FFFFFF" x="0" y="0" width="1400" height="7537"></rect>
            <g id="illustration-prototype" transform="translate(832.000000, 3936.000000)" fill-rule="nonzero">
                <path d="M184.020892,240.912124 C130.668607,211.167642 53.3261633,167.675441 0,137.917792 L231.927527,2.27373675e-13 C285.162266,29.9024871 362.334923,73.5526932 415.556602,103.45518 C380.423764,123.644736 219.15373,220.748902 184.020892,240.912124 Z" id="Path" fill="#F9F9F9"></path>
                <polygon id="Path" fill="#EDEFF1" points="184.027558 240.668586 -2.05644857e-12 137.572279 -2.05644857e-12 142.077198 13.9483135 150.420583 184.027558 245.332357 289.419407 182.511259 289.419407 177.926914"></polygon>
                <polygon id="Path" fill="#CFD8DB" points="184.119823 240.211075 183.898005 240.092417 183.898005 244.637901 184.119823 244.769743 415.070922 107.922619 415.070922 103.403503"></polygon>
                <g id="cube" transform="translate(89.000000, 52.000000)">
                    <path d="M101.779998,10.8779998 L102.388998,11.2279998 L98.1889983,13.6639998 L97.5869983,13.3139998 L101.779998,10.8779998 Z M109.038998,11.5779998 L108.436998,11.9209998 L104.187998,9.47099984 L104.789998,9.12799984 L109.038998,11.5779998 Z" id="Shape" fill="#333333"></path>
                    <path d="M125.908998,2.54799996 L126.517998,2.89799995 L0.60899999,75.5999987 L0,75.2499987 L125.908998,2.54799996 Z M226.386996,60.563999 L226.995996,60.913999 L101.086998,133.601998 L100.477998,133.251998 L226.386996,60.563999 Z" id="Shape" fill-opacity="0.7" fill="#333333"></path>
                    <path d="M228.430996,75.3059987 L227.828996,75.656 L101.128998,2.50599996 L101.730998,2.15599996 L228.430996,75.3059987 Z M128.428998,133.041998 L127.826998,133.391999 L1.12699998,60.241999 L1.72899997,59.891999 L128.428998,133.041998 Z" id="Shape" fill-opacity="0.7" fill="#333333"></path>
                    <path d="M104.369998,9.83499983 C104.369998,9.70199983 104.565998,9.58999984 104.803998,9.59699984 C105.041998,9.60399984 105.216998,9.70199983 105.223998,9.83499983 L105.279998,13.7829998 C105.279998,13.9229998 105.090998,14.0279998 104.852998,14.0349998 C104.614998,14.0419998 104.425998,13.9229998 104.425998,13.7829998 L104.369998,9.83499983 L104.369998,9.83499983 Z M104.467998,17.2409997 C104.467998,17.1009997 104.649998,16.9889997 104.887998,16.9889997 C105.125998,16.9889997 105.314998,17.0939997 105.321998,17.2269997 L105.321998,17.2269997 L105.377998,21.1749996 C105.377998,21.3079996 105.188998,21.4199996 104.950998,21.4199996 C104.712998,21.4199996 104.523998,21.3079996 104.523998,21.1749996 L104.523998,21.1749996 L104.467998,17.2269997 L104.467998,17.2409997 Z M104.565998,24.6399996 C104.565998,24.5069996 104.747998,24.3949996 104.985998,24.3879996 C105.223998,24.3809996 105.412998,24.4929996 105.419998,24.6329996 L105.419998,24.6329996 L105.475998,28.5809995 C105.475998,28.7139995 105.293998,28.8259995 105.055998,28.8329995 C104.817998,28.8399995 104.628998,28.7279995 104.621998,28.5879995 L104.621998,28.5879995 L104.565998,24.6399996 Z M104.663998,32.0389995 C104.663998,31.9059995 104.859998,31.7939995 105.097998,31.8009995 C105.335998,31.8079995 105.517998,31.9059995 105.517998,32.0389995 L105.573998,35.9869994 C105.573998,36.1269994 105.377998,36.2319994 105.139998,36.2319994 C104.901998,36.2319994 104.726998,36.1199994 104.719998,35.9869994 L104.663998,32.0389995 Z M104.761998,39.4449993 C104.761998,39.3049993 104.943998,39.1929993 105.181998,39.1929993 C105.419998,39.1929993 105.615998,39.2979993 105.615998,39.4379993 L105.615998,39.4379993 L105.699998,43.3999993 C105.699998,43.5329993 105.503998,43.6449993 105.265998,43.6379993 C105.027998,43.6309993 104.852998,43.5329993 104.845998,43.3999993 L104.761998,39.4449993 Z M104.866998,46.8439992 C104.866998,46.7109992 105.055998,46.5989992 105.293998,46.5989992 C105.531998,46.5989992 105.713998,46.7109992 105.720998,46.8439992 L105.769998,50.7919991 C105.769998,50.9249991 105.587998,51.0369991 105.356998,51.0439991 C105.125998,51.0509991 104.922998,50.9389991 104.915998,50.7989991 L104.915998,50.7989991 L104.866998,46.8439992 Z M104.999998,54.2499991 C104.999998,54.1099991 105.195998,54.0049991 105.426998,54.0049991 C105.657998,54.0049991 105.846998,54.1099991 105.853998,54.2429991 L105.902998,58.190999 C105.902998,58.330999 105.720998,58.442999 105.489998,58.442999 C105.258998,58.442999 105.055998,58.337999 105.048998,58.204999 L105.048998,58.204999 L104.999998,54.2499991 Z M105.097998,61.648999 C105.097998,61.508999 105.300998,61.403999 105.538998,61.410999 C105.776998,61.417999 105.937998,61.515999 105.951998,61.648999 L106.000998,65.5969989 C106.000998,65.7299989 105.825998,65.8419989 105.587998,65.8489989 C105.349998,65.8559989 105.153998,65.7369989 105.146998,65.6039989 L105.146998,65.6039989 L105.097998,61.648999 Z M105.195998,69.0479988 C105.195998,68.9149988 105.398998,68.8099988 105.636998,68.8099988 C105.874998,68.8099988 106.035998,68.9219988 106.049998,69.0479988 L106.105998,72.9959988 C106.105998,73.1289988 105.909998,73.2409988 105.671998,73.2409988 C105.433998,73.2409988 105.251998,73.1289988 105.244998,72.9959988 L105.195998,69.0479988 Z M105.293998,76.4539987 C105.293998,76.3139987 105.489998,76.2089987 105.727998,76.2089987 C105.965998,76.2089987 106.140998,76.3139987 106.147998,76.4469987 L106.203998,80.3949986 C106.203998,80.5349986 106.014998,80.6469986 105.776998,80.6469986 C105.538998,80.6469986 105.349998,80.5349986 105.349998,80.3949986 L105.349998,80.3949986 L105.293998,76.4539987 L105.293998,76.4539987 Z M105.391998,83.8529986 C105.391998,83.7129986 105.573998,83.6009986 105.811998,83.6009986 C106.049998,83.6009986 106.238998,83.7059986 106.245998,83.8459986 L106.245998,83.8459986 L106.301998,87.7939985 C106.301998,87.9269985 106.112998,88.0389985 105.874998,88.0389985 C105.636998,88.0389985 105.447998,87.9269985 105.447998,87.7939985 L105.391998,83.8459986 L105.391998,83.8529986 Z M105.489998,91.2519984 C105.489998,91.1189984 105.671998,91.0069985 105.909998,90.9999985 C106.147998,90.9929985 106.343998,91.1119984 106.343998,91.2449984 L106.343998,91.2449984 L106.399998,95.1999984 C106.399998,95.3399984 106.217998,95.4519984 105.979998,95.4519984 C105.741998,95.4519984 105.552998,95.3469984 105.545998,95.2069984 L105.545998,95.2069984 L105.489998,91.2589984 L105.489998,91.2519984 Z M105.587998,98.6579983 C105.587998,98.5179983 105.783998,98.4129983 106.021998,98.4129983 C106.259998,98.4129983 106.441998,98.5249983 106.448998,98.6579983 L106.497998,102.598998 C106.497998,102.738998 106.301998,102.843998 106.070998,102.843998 C105.839998,102.843998 105.650998,102.738998 105.643998,102.605998 L105.587998,98.6579983 L105.587998,98.6579983 Z M105.692998,106.056998 C105.692998,105.923998 105.881998,105.811998 106.119998,105.811998 C106.357998,105.811998 106.539998,105.923998 106.546998,106.056998 L106.595998,110.004998 C106.595998,110.137998 106.399998,110.249998 106.168998,110.242998 C105.937998,110.235998 105.748998,110.137998 105.741998,110.004998 L105.692998,106.056998 Z M105.790998,113.455998 C105.790998,113.322998 105.986998,113.210998 106.217998,113.217998 C106.448998,113.224998 106.637998,113.322998 106.644998,113.455998 L106.693998,117.403998 C106.693998,117.543998 106.497998,117.648998 106.266998,117.648998 C106.035998,117.648998 105.846998,117.536998 105.839998,117.403998 L105.790998,113.455998 Z M105.888998,120.861998 C105.888998,120.721998 106.070998,120.609998 106.301998,120.609998 C106.532998,120.609998 106.735998,120.714998 106.742998,120.847998 L106.742998,120.847998 L106.784998,124.088998 C106.784998,124.228998 106.595998,124.340998 106.364998,124.340998 C106.133998,124.340998 105.930998,124.228998 105.930998,124.095998 L105.930998,124.095998 L105.888998,120.861998 Z M204.588997,67.6619988 C204.826997,67.6619988 205.015997,67.5429988 205.008997,67.4099989 C205.001997,67.2769989 204.819997,67.1719989 204.588997,67.1649989 L197.749997,67.1649989 C197.518997,67.1649989 197.322997,67.2699989 197.322997,67.4099989 C197.322997,67.5499988 197.518997,67.6549988 197.749997,67.6549988 L204.588997,67.6549988 L204.588997,67.6619988 Z M191.771997,67.5989988 C192.002997,67.5989988 192.198997,67.5009989 192.205997,67.3609989 C192.212997,67.2209989 192.023997,67.1089989 191.785997,67.1089989 L191.785997,67.1089989 L184.946997,67.1089989 C184.708997,67.1089989 184.519997,67.2139989 184.519997,67.3539989 C184.519997,67.4939989 184.708997,67.5989988 184.946997,67.5989988 L191.785997,67.5989988 L191.771997,67.5989988 Z M178.947997,67.5429988 C179.185997,67.5429988 179.381997,67.4379989 179.381997,67.3049989 C179.381997,67.1719989 179.199997,67.0529989 178.961997,67.0529989 L178.961997,67.0529989 L172.129997,67.0179989 C171.891997,67.0179989 171.695997,67.1229989 171.695997,67.2629989 C171.695997,67.4029989 171.877997,67.5079989 172.108997,67.5149989 L172.108997,67.5149989 L178.947997,67.5429988 Z M166.130997,67.4869989 C166.368997,67.4869989 166.550997,67.3749989 166.550997,67.2419989 C166.550997,67.1089989 166.361997,66.9969989 166.130997,66.9969989 L159.291997,66.9969989 C159.060997,66.9969989 158.871997,67.1089989 158.871997,67.2489989 C158.871997,67.3889989 159.060997,67.4869989 159.291997,67.4939989 L166.130997,67.4869989 Z M153.306997,67.4309989 C153.544997,67.4309989 153.740997,67.3259989 153.747997,67.1929989 C153.754997,67.0599989 153.558997,66.9409989 153.327997,66.9409989 L153.327997,66.9409989 L146.488998,66.9409989 C146.250998,66.9409989 146.061998,67.0529989 146.068998,67.1929989 C146.075998,67.3329989 146.257998,67.4309989 146.488998,67.4379989 L153.306997,67.4309989 Z M140.489998,67.3749989 C140.727998,67.3749989 140.916998,67.2629989 140.909998,67.1229989 C140.902998,66.9829989 140.720998,66.8849989 140.489998,66.8779989 L133.657998,66.8779989 C133.419998,66.8779989 133.223998,66.9829989 133.216998,67.1159989 C133.209998,67.2489989 133.405998,67.3679989 133.636998,67.3679989 L133.636998,67.3679989 L140.475998,67.3679989 L140.489998,67.3749989 Z M127.672998,67.3189989 C127.903998,67.3189989 128.092998,67.2069989 128.092998,67.0669989 C128.092998,66.9269989 127.903998,66.8289989 127.672998,66.8219989 L120.833998,66.8219989 C120.595998,66.8219989 120.406998,66.9269989 120.399998,67.0599989 C120.392998,67.1929989 120.581998,67.3119989 120.819998,67.3119989 L120.819998,67.3119989 L127.672998,67.3189989 Z M114.799998,67.2629989 C115.037998,67.2629989 115.219998,67.1439989 115.212998,67.0039989 C115.205998,66.8639989 115.023998,66.7729989 114.799998,66.7659989 L107.967998,66.7659989 C107.729998,66.7659989 107.533998,66.8709989 107.533998,67.0039989 C107.533998,67.1369989 107.715998,67.2559989 107.953998,67.2559989 L107.953998,67.2559989 L114.799998,67.2629989 Z M101.961998,67.1999989 C102.199998,67.1999989 102.381998,67.0809989 102.374998,66.9479989 C102.367998,66.8149989 102.185998,66.7169989 101.961998,66.7099989 L95.1229984,66.7099989 C94.8919984,66.7099989 94.7029984,66.8219989 94.7029984,66.9549989 C94.7029984,67.0879989 94.8919984,67.1999989 95.1229984,67.1999989 L101.961998,67.1999989 L101.961998,67.1999989 Z M89.1449985,67.1439989 C89.3759985,67.1439989 89.5649985,67.0319989 89.5649985,66.8989989 C89.5649985,66.7659989 89.3759985,66.6539989 89.1449985,66.6539989 L82.3059986,66.6539989 C82.0679986,66.6539989 81.8789986,66.7659989 81.8789986,66.8989989 C81.8789986,67.0319989 82.0679986,67.1509989 82.3059986,67.1509989 L89.1379985,67.1509989 L89.1449985,67.1439989 Z M76.2999987,67.0879989 C76.5379987,67.0879989 76.7339987,66.9829989 76.7339987,66.8499989 C76.7339987,66.7169989 76.5519987,66.5979989 76.3139987,66.5979989 L76.3139987,66.5979989 L69.4819988,66.5979989 C69.2439988,66.5979989 69.0549988,66.7099989 69.0479988,66.8429989 C69.0409988,66.9759989 69.2439988,67.0949989 69.4749988,67.0949989 L76.3139987,67.0949989 L76.2999987,67.0879989 Z M63.4829989,67.0319989 C63.7139989,67.0319989 63.9099989,66.9269989 63.9169989,66.7869989 C63.9239989,66.6469989 63.7349989,66.5419989 63.4969989,66.5349989 L63.4969989,66.5349989 L56.699999,66.4999989 C56.468999,66.4999989 56.272999,66.6049989 56.265999,66.7379989 C56.258999,66.8709989 56.447999,66.9899989 56.685999,66.9969989 L56.685999,66.9969989 L63.5249989,66.9969989 L63.4829989,67.0319989 Z M50.6799991,66.9759989 C50.9179991,66.9759989 51.1069991,66.8639989 51.0999991,66.7239989 C51.0929991,66.5839989 50.9109991,66.4859989 50.6799991,66.4789989 L43.8479993,66.4789989 C43.6099993,66.4789989 43.4209993,66.5909989 43.4279993,66.7239989 C43.4349993,66.8569989 43.6169993,66.9689989 43.8479993,66.9689989 L50.6799991,67.0039989 L50.6799991,66.9759989 Z M37.8629994,66.9199989 C38.1009994,66.9199989 38.2899993,66.8009989 38.2829993,66.6679989 C38.2759993,66.5349989 38.0939994,66.4299989 37.8629994,66.4229989 L31.0239995,66.4229989 C30.7929995,66.4229989 30.6039995,66.5349989 30.6039995,66.6679989 C30.6039995,66.8009989 30.7929995,66.9129989 31.0239995,66.9129989 L37.8629994,66.9199989 Z M25.0459996,66.8569989 C25.2769996,66.8569989 25.4659996,66.7449989 25.4659996,66.6119989 C25.4659996,66.4789989 25.2769996,66.3669989 25.0459996,66.3669989 L18.2069997,66.3669989 C17.9689997,66.3669989 17.7799997,66.4789989 17.7869997,66.6119989 C17.7939997,66.7449989 17.9759997,66.8569989 18.2069997,66.8569989 L25.0459996,66.8569989 Z M12.2219998,66.8009989 C12.4599998,66.8009989 12.6559998,66.6959989 12.6559998,66.5629989 C12.6559998,66.4299989 12.4739998,66.3109989 12.2359998,66.3109989 L12.2359998,66.3109989 L6.63599989,66.3109989 C6.39799989,66.3109989 6.20899989,66.4229989 6.20899989,66.5559989 C6.20899989,66.6889989 6.39799989,66.8079989 6.63599989,66.8079989 L12.2219998,66.8009989 Z" id="Shape" fill="#333333" opacity="0.5"></path>
                    <path d="M100.099998,0.118999998 L100.925998,0 L130.899998,67.0459989 L130.073998,67.1649989 L100.099998,0.118999998 Z M36.2529994,38.3879993 L37.0999994,38.2619993 L67.6479988,103.599998 L66.8219989,103.725998 L36.2529994,38.3879993 Z" id="Shape" fill-opacity="0.8" fill="#004FFF"></path>
                    <path d="M88.5709985,6.77599988 L88.3609985,7.25199988 L201.459997,24.5559996 L201.676997,24.0799996 L88.5709985,6.77599988 Z M27.1249995,43.6519993 L26.9219995,44.1279992 L139.999998,60.731999 L140.202998,60.255999 L27.1249995,43.6519993 Z M220.135996,70.1189988 L220.359996,69.6429988 L103.018998,50.9389991 L102.794998,51.4149991 L220.135996,70.1189988 Z M158.087997,107.337998 L158.318997,106.868998 L39.7669993,87.4999985 L39.5359993,87.9689985 L158.087997,107.337998 Z" id="Shape" fill-opacity="0.8" fill="#004FFF"></path>
                    <path d="M210.125996,77.6509987 L209.299996,77.7769987 L176.910997,11.0809998 L177.729997,10.9479998 L210.125996,77.6509987 Z M146.299998,113.476998 L145.473998,113.595998 L113.637998,44.7999992 L114.463998,44.6739992 L146.299998,113.476998 Z" id="Shape" fill-opacity="0.8" fill="#004FFF"></path>
                    <polygon id="Path" fill-opacity="0.8" fill="#333333" points="192.002997 15.3159997 192.604997 15.6659997 54.9499991 95.1439984 54.3409991 94.7939984"></polygon>
                    <path d="M204.063997,67.1509989 L204.672997,67.5009989 L141.399998,104.019998 L140.797998,103.669998 L204.063997,67.1509989 Z M104.040998,9.40099984 L104.642998,9.75099983 L30.8489995,52.3599991 L30.2399995,52.0099991 L104.040998,9.40099984 Z" id="Shape" fill="#004FFF"></path>
                </g>
            </g>
        </g>
    </g>
</svg>