<?xml version="1.0" encoding="UTF-8"?>
<svg width="464px" height="464px" viewBox="0 0 464 464" version="1.1" xmlns="http://www.w3.org/2000/svg" xmlns:xlink="http://www.w3.org/1999/xlink">
    <!-- Generator: Sketch 63.1 (92452) - https://sketch.com -->
    <title>illustration-strenghthen</title>
    <desc>Created with Sketch.</desc>
    <defs>
        <linearGradient x1="0%" y1="50.0019796%" x2="100%" y2="50.0019796%" id="linearGradient-1">
            <stop stop-color="#CFD8DB" offset="0%"></stop>
            <stop stop-color="#CFD8DB" offset="100%"></stop>
        </linearGradient>
    </defs>
    <g id="Services" stroke="none" stroke-width="1" fill="none" fill-rule="evenodd">
        <g id="Service_desktop-cto" transform="translate(-129.000000, -2911.000000)">
            <rect fill="#FFFFFF" x="0" y="0" width="1400" height="5289"></rect>
            <g id="Group-9" transform="translate(152.000000, 3058.000000)">
                <g id="Group-8" transform="translate(253.000000, 0.000000)" fill-rule="nonzero">
                    <g id="Group-20-Copy-18" opacity="0.7" transform="translate(112.000000, 33.000000)">
                        <polygon id="Shape" stroke="#FFFFFF" stroke-width="0.5" fill="#F7F7F7" stroke-linecap="round" stroke-linejoin="round" points="21.2725758 25.0404154 -2.71724594e-15 12.7623435 22.1073441 8.15173781e-15 43.3799202 12.279629"></polygon>
                        <polygon id="Shape" fill="#E6E9ED" points="5.70621646e-14 12.7623435 5.70621646e-14 39.3303163 21.2725758 51.6083882 21.2725758 25.0404154"></polygon>
                        <polygon id="Shape" fill="url(#linearGradient-1)" points="21.2725758 25.0404154 43.3799202 12.279629 43.3799202 38.8476018 21.2725758 51.6083882"></polygon>
                    </g>
                    <g id="Group-20-Copy-19" opacity="0.5" transform="translate(112.000000, 97.000000)">
                        <polygon id="Shape" stroke="#FFFFFF" stroke-width="0.5" fill="#F7F7F7" stroke-linecap="round" stroke-linejoin="round" points="21.2725758 25.0404154 -2.71724594e-15 12.7623435 22.1073441 8.15173781e-15 43.3799202 12.279629"></polygon>
                        <polygon id="Shape" fill="#E6E9ED" points="5.70621646e-14 12.7623435 5.70621646e-14 39.3303163 21.2725758 51.6083882 21.2725758 25.0404154"></polygon>
                        <polygon id="Shape" fill="url(#linearGradient-1)" points="21.2725758 25.0404154 43.3799202 12.279629 43.3799202 38.8476018 21.2725758 51.6083882"></polygon>
                    </g>
                    <g id="Group-20-Copy-17" opacity="0.3" transform="translate(56.000000, 0.000000)">
                        <polygon id="Shape" stroke="#FFFFFF" stroke-width="0.5" fill="#F7F7F7" stroke-linecap="round" stroke-linejoin="round" points="21.2725758 25.0404154 -2.71724594e-15 12.7623435 22.1073441 8.15173781e-15 43.3799202 12.279629"></polygon>
                        <polygon id="Shape" fill="#E6E9ED" points="5.70621646e-14 12.7623435 5.70621646e-14 39.3303163 21.2725758 51.6083882 21.2725758 25.0404154"></polygon>
                        <polygon id="Shape" fill="url(#linearGradient-1)" points="21.2725758 25.0404154 43.3799202 12.279629 43.3799202 38.8476018 21.2725758 51.6083882"></polygon>
                    </g>
                    <g id="Group-20-Copy-13" opacity="0.8" transform="translate(0.000000, 33.000000)">
                        <polygon id="Shape" stroke="#FFFFFF" stroke-width="0.5" fill="#F7F7F7" stroke-linecap="round" stroke-linejoin="round" points="21.2725758 25.0404154 -2.71724594e-15 12.7623435 22.1073441 8.15173781e-15 43.3799202 12.279629"></polygon>
                        <polygon id="Shape" fill="#E6E9ED" points="5.70621646e-14 12.7623435 5.70621646e-14 39.3303163 21.2725758 51.6083882 21.2725758 25.0404154"></polygon>
                        <polygon id="Shape" fill="url(#linearGradient-1)" points="21.2725758 25.0404154 43.3799202 12.279629 43.3799202 38.8476018 21.2725758 51.6083882"></polygon>
                    </g>
                    <g id="Group-20-Copy-14" opacity="0.45" transform="translate(0.000000, 97.000000)">
                        <polygon id="Shape" stroke="#FFFFFF" stroke-width="0.5" fill="#F7F7F7" stroke-linecap="round" stroke-linejoin="round" points="21.2725758 25.0404154 -2.71724594e-15 12.7623435 22.1073441 8.15173781e-15 43.3799202 12.279629"></polygon>
                        <polygon id="Shape" fill="#E6E9ED" points="5.70621646e-14 12.7623435 5.70621646e-14 39.3303163 21.2725758 51.6083882 21.2725758 25.0404154"></polygon>
                        <polygon id="Shape" fill="url(#linearGradient-1)" points="21.2725758 25.0404154 43.3799202 12.279629 43.3799202 38.8476018 21.2725758 51.6083882"></polygon>
                    </g>
                    <g id="Group-20-Copy-15" opacity="0.7" transform="translate(56.000000, 65.000000)">
                        <polygon id="Shape" stroke="#FFFFFF" stroke-width="0.5" fill="#F7F7F7" stroke-linecap="round" stroke-linejoin="round" points="21.2725758 25.0404154 -2.71724594e-15 12.7623435 22.1073441 8.15173781e-15 43.3799202 12.279629"></polygon>
                        <polygon id="Shape" fill="#E6E9ED" points="5.70621646e-14 12.7623435 5.70621646e-14 39.3303163 21.2725758 51.6083882 21.2725758 25.0404154"></polygon>
                        <polygon id="Shape" fill="url(#linearGradient-1)" points="21.2725758 25.0404154 43.3799202 12.279629 43.3799202 38.8476018 21.2725758 51.6083882"></polygon>
                    </g>
                    <g id="Group-20-Copy-16" opacity="0.25" transform="translate(56.000000, 127.000000)">
                        <polygon id="Shape" stroke="#FFFFFF" stroke-width="0.5" fill="#F7F7F7" stroke-linecap="round" stroke-linejoin="round" points="21.2725758 25.0404154 -2.71724594e-15 12.7623435 22.1073441 8.15173781e-15 43.3799202 12.279629"></polygon>
                        <polygon id="Shape" fill="#E6E9ED" points="5.70621646e-14 12.7623435 5.70621646e-14 39.3303163 21.2725758 51.6083882 21.2725758 25.0404154"></polygon>
                        <polygon id="Shape" fill="url(#linearGradient-1)" points="21.2725758 25.0404154 43.3799202 12.279629 43.3799202 38.8476018 21.2725758 51.6083882"></polygon>
                    </g>
                </g>
                <g id="Group-20-Copy-2" transform="translate(0.000000, 47.000000)" fill-rule="nonzero">
                    <polygon id="Shape" stroke="#FFFFFF" stroke-width="0.796704969" fill="#E9EFFF" stroke-linecap="round" stroke-linejoin="round" points="53.1814388 62.6010375 -6.79311474e-15 31.9058583 55.2683595 2.03793442e-14 108.449799 30.6990722"></polygon>
                    <polygon id="Shape" fill="#CBDBFF" points="1.42108547e-13 31.9058583 1.42108547e-13 58.3257893 53.1814388 89.0209685 53.1814388 62.6010375"></polygon>
                    <polygon id="Shape" fill="#9CBAFB" points="53.1814388 62.6010375 108.449799 30.6990722 108.449799 57.1190032 53.1814388 89.0209685"></polygon>
                    <g id="Asset-2-1" transform="translate(32.000000, 18.000000)" fill="#4B83FF">
                        <path d="M9.24000037,17.8740007 C8.61805322,17.8393465 7.9942871,17.889813 7.38600029,18.0240007 C6.77794135,18.1577608 6.19477903,18.386571 5.65800022,18.7020007 C5.17901146,18.9552085 4.7675576,19.3193452 4.45800018,19.7640008 C4.21567971,20.1152743 4.0993707,20.5382161 4.12800016,20.9640008 C4.18036753,21.4184986 4.36382119,21.8479469 4.65600019,22.2000009 C5.05011735,22.6628983 5.52604002,23.0493313 6.06000024,23.3400009 C6.68393374,23.7010557 7.35407563,23.9755717 8.05200032,24.156001 C8.75000602,24.3399753 9.46653478,24.4446368 10.1880004,24.468001 C10.882542,24.4958707 11.5778574,24.4374239 12.2580005,24.294001 C12.8906333,24.1728224 13.4988506,23.947782 14.0580006,23.6280009 C14.5584992,23.3729384 14.9750625,22.9792861 15.2580006,22.4940009 C15.470506,22.107878 15.5076308,21.6492775 15.3600006,21.2340008 L19.5960008,20.8740008 C19.8251751,21.6445431 19.6784855,22.4780067 19.2000008,23.1240009 C18.6479144,23.889449 17.9326881,24.522701 17.1060007,24.978001 C16.0544551,25.5795541 14.9289703,26.0414466 13.7580005,26.352001 C12.5673174,26.6692001 11.3420858,26.8384755 10.1100004,26.8560011 C8.87391896,26.8779646 7.64005108,26.7428843 6.43800026,26.4540011 C5.24698915,26.1724995 4.10308844,25.7197896 3.04200012,25.110001 C2.13501921,24.6294183 1.3412767,23.9604652 0.714000028,23.1480009 C0.238214196,22.5458218 -0.0141105275,21.7973291 3.68195058e-16,21.0300008 C0.0560127193,20.2516079 0.363450024,19.512495 0.876000035,18.9240008 C1.55004236,18.1375391 2.36372676,17.4825231 3.27600013,16.9920007 C3.68730951,16.766134 4.11211011,16.5657563 4.54800018,16.3920007 C5.04509829,16.1926723 5.5540743,16.0243496 6.07200024,15.8880006 C6.63954344,15.7389606 7.21701536,15.6306846 7.80000031,15.5640006 C8.42578246,15.4976184 9.05613907,15.4855734 9.68400038,15.5280006 L9.24000037,17.8740007 Z" id="Path"></path>
                        <polygon id="Path" points="16.4100007 12.7500005 12.6360005 14.9280006 10.0680004 13.4460005 20.5440008 7.39800029 23.1060009 8.88000035 19.3320008 11.0640004 29.9280012 17.1780007 27.0000011 18.8640007"></polygon>
                        <path d="M29.2020012,10.0020004 C28.2963044,9.51701559 27.5014521,8.84884933 26.8680011,8.04000032 C26.3986585,7.43540752 26.1527702,6.68714405 26.172001,5.92200024 C26.2339116,5.14391008 26.5429548,4.40599073 27.0540011,3.81600015 C27.7251811,3.02659253 28.5394611,2.37109714 29.4540012,1.88400007 C30.4962947,1.28087894 31.6140647,0.818840421 32.7780013,0.51000002 C33.9689908,0.19353729 35.1938863,0.0222936689 36.4260014,-3.05311332e-16 C37.6619446,-0.0189756552 38.8954393,0.116063793 40.0980016,0.402000016 C41.2897991,0.683918023 42.4339225,1.1387374 43.4940017,1.75200007 C44.398861,2.23311927 45.1921135,2.89961489 45.8220018,3.70800015 C46.2904603,4.31536849 46.5361598,5.06517564 46.5180018,5.83200023 C46.4557399,6.60889665 46.1490848,7.34612918 45.6420018,7.93800032 C44.9686386,8.725162 44.1548139,9.38029087 43.2420017,9.87000039 C42.1940689,10.4731528 41.0700779,10.9332425 39.9000016,11.2380004 C38.7101056,11.5598459 37.4845412,11.731183 36.2520014,11.7480005 C35.0160261,11.7676651 33.782446,11.6326163 32.5800013,11.3460005 C31.3949501,11.0636558 30.2571087,10.6109445 29.2020012,10.0020004 Z M32.2020013,8.25000033 C32.8278131,8.61155648 33.5000057,8.88608555 34.2000014,9.06600036 C34.9074901,9.25105711 35.6347821,9.34977541 36.3660014,9.36000037 C37.100993,9.36789719 37.8342643,9.28731792 38.5500015,9.12000036 C39.2549333,8.95217927 39.9319248,8.68340356 40.5600016,8.32200033 C41.0952306,8.03823699 41.5636797,7.64343052 41.9340017,7.16400028 C42.2148926,6.80488205 42.3632435,6.35982936 42.3540017,5.90400023 C42.3240463,5.44294468 42.1474467,5.00354792 41.8500017,4.65000018 C41.455081,4.18231755 40.9770345,3.79174335 40.4400016,3.49800014 C39.8153334,3.14424564 39.1478939,2.87202712 38.4540015,2.68800011 C37.0261995,2.31427047 35.5286177,2.29573094 34.0920014,2.6340001 C33.38683,2.798139 32.7095988,3.0649883 32.0820013,3.42600014 C31.54629,3.71165949 31.0778249,4.10852506 30.7080012,4.59000018 C30.4296989,4.95050306 30.2816611,5.39461656 30.2880012,5.85000023 C30.3221647,6.31406133 30.5028526,6.75527595 30.8040012,7.11000028 C31.2052302,7.5752228 31.6894587,7.96179174 32.2320013,8.25000033 L32.2020013,8.25000033 Z" id="Shape"></path>
                    </g>
                </g>
                <g id="Group-7" transform="translate(134.132298, 15.413745)">
                    <g id="Group-6" transform="translate(43.500000, 38.000000) rotate(-355.000000) translate(-43.500000, -38.000000) translate(8.000000, 3.000000)" stroke="#E6E9ED" stroke-width="2">
                        <path d="M60,60 C60,32.3857625 37.6142375,10 10,10" id="Oval" transform="translate(35.000000, 35.000000) rotate(-58.000000) translate(-35.000000, -35.000000) "></path>
                        <polyline id="Path-22" stroke-linecap="round" stroke-linejoin="round" points="68.0637084 20.090961 70.4166496 28.1861991 62.4166496 30.090961"></polyline>
                    </g>
                    <g id="Group-6-Copy" transform="translate(44.901776, 111.327436) rotate(-162.000000) translate(-44.901776, -111.327436) translate(9.901776, 76.327436)" stroke="#E6E9ED" stroke-width="2">
                        <path d="M60,60 C60,32.3857625 37.6142375,10 10,10" id="Oval" transform="translate(35.000000, 35.000000) rotate(-58.000000) translate(-35.000000, -35.000000) "></path>
                        <polyline id="Path-22" stroke-linecap="round" stroke-linejoin="round" points="67.1281963 18.2928932 69.7752551 27.1976551 60.7752551 29.2928932"></polyline>
                    </g>
                    <g id="loupe" transform="translate(33.867702, 59.586255)" fill="#4B83FF" fill-rule="nonzero">
                        <path d="M31.0656848,29.2131175 L22.1221897,20.2695241 C23.8545619,18.1296343 24.8976216,15.4104994 24.8976216,12.4489783 C24.8976216,5.58501607 19.3126669,0 12.4487801,0 C5.58489329,0 0,5.58495465 0,12.4489169 C0,19.3128791 5.58495472,24.8978951 12.4488415,24.8978951 C15.41033,24.8978951 18.1294351,23.854824 20.2693015,22.1224328 L29.2127966,31.0660261 C29.468325,31.3215574 29.8037675,31.4499987 30.1392714,31.4499987 C30.4747753,31.4499987 30.8102178,31.3215574 31.0657463,31.0660261 C31.5780931,30.5536737 31.5780931,29.7254699 31.0656848,29.2131175 Z M12.4488415,22.2770414 C7.02899748,22.2770414 2.62082491,17.8688204 2.62082491,12.4489169 C2.62082491,7.02901328 7.02899748,2.62079227 12.4488415,2.62079227 C17.8686856,2.62079227 22.2768581,7.02901328 22.2768581,12.4489169 C22.2768581,17.8688204 17.8686241,22.2770414 12.4488415,22.2770414 Z" id="Shape"></path>
                    </g>
                </g>
            </g>
        </g>
    </g>
</svg>