<?xml version="1.0" encoding="UTF-8"?>
<svg width="464px" height="464px" viewBox="0 0 464 464" version="1.1" xmlns="http://www.w3.org/2000/svg" xmlns:xlink="http://www.w3.org/1999/xlink">
    <!-- Generator: Sketch 63.1 (92452) - https://sketch.com -->
    <title>Competetive</title>
    <desc>Created with Sketch.</desc>
    <defs>
        <linearGradient x1="23.976217%" y1="24.6689779%" x2="76.023783%" y2="75.335199%" id="linearGradient-1">
            <stop stop-color="#CFD8DB" offset="0%"></stop>
            <stop stop-color="#CFD8DB" offset="100%"></stop>
        </linearGradient>
    </defs>
    <g id="Services" stroke="none" stroke-width="1" fill="none" fill-rule="evenodd">
        <g id="Service_desktop-MVP" transform="translate(-126.000000, -4452.000000)">
            <rect fill="#FFFFFF" x="0" y="0" width="1400" height="7537"></rect>
            <g id="illustration-a-team" transform="translate(200.000000, 4541.000000)">
                <g id="Group-10" transform="translate(0.000000, 144.000000)" fill-rule="nonzero">
                    <g id="Group-20-Copy-22" transform="translate(47.375996, 0.000000)">
                        <polygon id="Shape" fill="#E9EFFF" points="14.5913335 17.1757786 -1.8638195e-15 8.75397563 15.1639197 5.5914585e-15 29.7552534 8.42287103"></polygon>
                        <polygon id="Shape" fill="#CBDBFF" points="3.91402095e-14 8.75397563 3.91402095e-14 26.9775398 14.5913335 35.3993428 14.5913335 17.1757786"></polygon>
                        <polygon id="Shape" fill="#9CBAFB" points="14.5913335 17.1757786 29.7552534 8.42287103 29.7552534 26.6464352 14.5913335 35.3993428"></polygon>
                    </g>
                    <g id="Group-20-Copy-20" transform="translate(23.687998, 13.535999)">
                        <polygon id="Shape" fill="#E9EFFF" points="14.5913335 17.1757786 -1.8638195e-15 8.75397563 15.1639197 5.5914585e-15 29.7552534 8.42287103"></polygon>
                        <polygon id="Shape" fill="#CBDBFF" points="3.91402095e-14 8.75397563 3.91402095e-14 26.9775398 14.5913335 35.3993428 14.5913335 17.1757786"></polygon>
                        <polygon id="Shape" fill="#9CBAFB" points="14.5913335 17.1757786 29.7552534 8.42287103 29.7552534 26.6464352 14.5913335 35.3993428"></polygon>
                    </g>
                    <g id="Group-20-Copy-21" transform="translate(0.000000, 27.071998)">
                        <polygon id="Shape" fill="#E9EFFF" points="14.5913335 17.1757786 -1.8638195e-15 8.75397563 15.1639197 5.5914585e-15 29.7552534 8.42287103"></polygon>
                        <polygon id="Shape" fill="#CBDBFF" points="3.91402095e-14 8.75397563 3.91402095e-14 26.9775398 14.5913335 35.3993428 14.5913335 17.1757786"></polygon>
                        <polygon id="Shape" fill="#9CBAFB" points="14.5913335 17.1757786 29.7552534 8.42287103 29.7552534 26.6464352 14.5913335 35.3993428"></polygon>
                    </g>
                    <g id="Group-20-Copy-18" transform="translate(231.803981, 3.384000)">
                        <polygon id="Shape" fill="#E9EFFF" points="14.5913335 17.1757786 -1.8638195e-15 8.75397563 15.1639197 5.5914585e-15 29.7552534 8.42287103"></polygon>
                        <polygon id="Shape" fill="#CBDBFF" points="3.91402095e-14 8.75397563 3.91402095e-14 26.9775398 14.5913335 35.3993428 14.5913335 17.1757786"></polygon>
                        <polygon id="Shape" fill="#9CBAFB" points="14.5913335 17.1757786 29.7552534 8.42287103 29.7552534 26.6464352 14.5913335 35.3993428"></polygon>
                    </g>
                    <g id="Group-20-Copy-17" transform="translate(253.799979, 15.227999)">
                        <polygon id="Shape" fill="#E9EFFF" points="14.5913335 17.1757786 -1.8638195e-15 8.75397563 15.1639197 5.5914585e-15 29.7552534 8.42287103"></polygon>
                        <polygon id="Shape" fill="#CBDBFF" points="3.91402095e-14 8.75397563 3.91402095e-14 26.9775398 14.5913335 35.3993428 14.5913335 17.1757786"></polygon>
                        <polygon id="Shape" fill="#9CBAFB" points="14.5913335 17.1757786 29.7552534 8.42287103 29.7552534 26.6464352 14.5913335 35.3993428"></polygon>
                    </g>
                    <g id="Group-20-Copy-19" transform="translate(277.487977, 28.763998)">
                        <polygon id="Shape" fill="#E9EFFF" points="14.5913335 17.1757786 -1.8638195e-15 8.75397563 15.1639197 5.5914585e-15 29.7552534 8.42287103"></polygon>
                        <polygon id="Shape" fill="#CBDBFF" points="3.91402095e-14 8.75397563 3.91402095e-14 26.9775398 14.5913335 35.3993428 14.5913335 17.1757786"></polygon>
                        <polygon id="Shape" fill="#9CBAFB" points="14.5913335 17.1757786 29.7552534 8.42287103 29.7552534 26.6464352 14.5913335 35.3993428"></polygon>
                    </g>
                    <g id="Group-20-Copy-12" transform="translate(228.419981, 27.071998)">
                        <polygon id="Shape" fill="#E9EFFF" points="14.5913335 17.1757786 -1.8638195e-15 8.75397563 15.1639197 5.5914585e-15 29.7552534 8.42287103"></polygon>
                        <polygon id="Shape" fill="#CBDBFF" points="3.91402095e-14 8.75397563 3.91402095e-14 26.9775398 14.5913335 35.3993428 14.5913335 17.1757786"></polygon>
                        <polygon id="Shape" fill="#9CBAFB" points="14.5913335 17.1757786 29.7552534 8.42287103 29.7552534 26.6464352 14.5913335 35.3993428"></polygon>
                    </g>
                    <g id="Group-20-Copy-12" transform="translate(206.423983, 40.607997)">
                        <polygon id="Shape" fill="#E9EFFF" points="14.5913335 17.1757786 -1.8638195e-15 8.75397563 15.1639197 5.5914585e-15 29.7552534 8.42287103"></polygon>
                        <polygon id="Shape" fill="#CBDBFF" points="3.91402095e-14 8.75397563 3.91402095e-14 26.9775398 14.5913335 35.3993428 14.5913335 17.1757786"></polygon>
                        <polygon id="Shape" fill="#9CBAFB" points="14.5913335 17.1757786 29.7552534 8.42287103 29.7552534 26.6464352 14.5913335 35.3993428"></polygon>
                    </g>
                    <g id="Group-20-Copy-13" transform="translate(182.735985, 54.143995)">
                        <polygon id="Shape" fill="#E9EFFF" points="14.5913335 17.1757786 -1.8638195e-15 8.75397563 15.1639197 5.5914585e-15 29.7552534 8.42287103"></polygon>
                        <polygon id="Shape" fill="#CBDBFF" points="3.91402095e-14 8.75397563 3.91402095e-14 26.9775398 14.5913335 35.3993428 14.5913335 17.1757786"></polygon>
                        <polygon id="Shape" fill="#9CBAFB" points="14.5913335 17.1757786 29.7552534 8.42287103 29.7552534 26.6464352 14.5913335 35.3993428"></polygon>
                    </g>
                    <g id="Group-20-Copy-12" transform="translate(47.375996, 28.763998)">
                        <polygon id="Shape" fill="#E9EFFF" points="14.5913335 17.1757786 -1.8638195e-15 8.75397563 15.1639197 5.5914585e-15 29.7552534 8.42287103"></polygon>
                        <polygon id="Shape" fill="#CBDBFF" points="3.91402095e-14 8.75397563 3.91402095e-14 26.9775398 14.5913335 35.3993428 14.5913335 17.1757786"></polygon>
                        <polygon id="Shape" fill="#9CBAFB" points="14.5913335 17.1757786 29.7552534 8.42287103 29.7552534 26.6464352 14.5913335 35.3993428"></polygon>
                    </g>
                    <g id="Group-20-Copy-12" transform="translate(67.679994, 42.299996)">
                        <polygon id="Shape" fill="#E9EFFF" points="14.5913335 17.1757786 -1.8638195e-15 8.75397563 15.1639197 5.5914585e-15 29.7552534 8.42287103"></polygon>
                        <polygon id="Shape" fill="#CBDBFF" points="3.91402095e-14 8.75397563 3.91402095e-14 26.9775398 14.5913335 35.3993428 14.5913335 17.1757786"></polygon>
                        <polygon id="Shape" fill="#9CBAFB" points="14.5913335 17.1757786 29.7552534 8.42287103 29.7552534 26.6464352 14.5913335 35.3993428"></polygon>
                    </g>
                    <g id="Group-20-Copy-13" transform="translate(89.675993, 55.835995)">
                        <polygon id="Shape" fill="#E9EFFF" points="14.5913335 17.1757786 -1.8638195e-15 8.75397563 15.1639197 5.5914585e-15 29.7552534 8.42287103"></polygon>
                        <polygon id="Shape" fill="#CBDBFF" points="3.91402095e-14 8.75397563 3.91402095e-14 26.9775398 14.5913335 35.3993428 14.5913335 17.1757786"></polygon>
                        <polygon id="Shape" fill="#9CBAFB" points="14.5913335 17.1757786 29.7552534 8.42287103 29.7552534 26.6464352 14.5913335 35.3993428"></polygon>
                    </g>
                    <g id="Group-20-Copy-11" transform="translate(159.047987, 67.679994)">
                        <polygon id="Shape" fill="#E9EFFF" points="14.5913335 17.1757786 -1.8638195e-15 8.75397563 15.1639197 5.5914585e-15 29.7552534 8.42287103"></polygon>
                        <polygon id="Shape" fill="#CBDBFF" points="3.91402095e-14 8.75397563 3.91402095e-14 26.9775398 14.5913335 35.3993428 14.5913335 17.1757786"></polygon>
                        <polygon id="Shape" fill="#9CBAFB" points="14.5913335 17.1757786 29.7552534 8.42287103 29.7552534 26.6464352 14.5913335 35.3993428"></polygon>
                    </g>
                    <g id="Group-20-Copy-14" transform="translate(111.671991, 67.679994)">
                        <polygon id="Shape" fill="#E9EFFF" points="14.5913335 17.1757786 -1.8638195e-15 8.75397563 15.1639197 5.5914585e-15 29.7552534 8.42287103"></polygon>
                        <polygon id="Shape" fill="#CBDBFF" points="3.91402095e-14 8.75397563 3.91402095e-14 26.9775398 14.5913335 35.3993428 14.5913335 17.1757786"></polygon>
                        <polygon id="Shape" fill="#9CBAFB" points="14.5913335 17.1757786 29.7552534 8.42287103 29.7552534 26.6464352 14.5913335 35.3993428"></polygon>
                    </g>
                    <g id="Group-20-Copy-12" transform="translate(21.995998, 40.607997)">
                        <polygon id="Shape" fill="#E9EFFF" points="14.5913335 17.1757786 -1.8638195e-15 8.75397563 15.1639197 5.5914585e-15 29.7552534 8.42287103"></polygon>
                        <polygon id="Shape" fill="#CBDBFF" points="3.91402095e-14 8.75397563 3.91402095e-14 26.9775398 14.5913335 35.3993428 14.5913335 17.1757786"></polygon>
                        <polygon id="Shape" fill="#9CBAFB" points="14.5913335 17.1757786 29.7552534 8.42287103 29.7552534 26.6464352 14.5913335 35.3993428"></polygon>
                    </g>
                    <g id="Group-20-Copy-12" transform="translate(42.299996, 54.143995)">
                        <polygon id="Shape" fill="#E9EFFF" points="14.5913335 17.1757786 -1.8638195e-15 8.75397563 15.1639197 5.5914585e-15 29.7552534 8.42287103"></polygon>
                        <polygon id="Shape" fill="#CBDBFF" points="3.91402095e-14 8.75397563 3.91402095e-14 26.9775398 14.5913335 35.3993428 14.5913335 17.1757786"></polygon>
                        <polygon id="Shape" fill="#9CBAFB" points="14.5913335 17.1757786 29.7552534 8.42287103 29.7552534 26.6464352 14.5913335 35.3993428"></polygon>
                    </g>
                    <g id="Group-20-Copy-13" transform="translate(64.295995, 67.679994)">
                        <polygon id="Shape" fill="#E9EFFF" points="14.5913335 17.1757786 -1.8638195e-15 8.75397563 15.1639197 5.5914585e-15 29.7552534 8.42287103"></polygon>
                        <polygon id="Shape" fill="#CBDBFF" points="3.91402095e-14 8.75397563 3.91402095e-14 26.9775398 14.5913335 35.3993428 14.5913335 17.1757786"></polygon>
                        <polygon id="Shape" fill="#9CBAFB" points="14.5913335 17.1757786 29.7552534 8.42287103 29.7552534 26.6464352 14.5913335 35.3993428"></polygon>
                    </g>
                    <g id="Group-20-Copy-14" transform="translate(86.291993, 79.523993)">
                        <polygon id="Shape" fill="#E9EFFF" points="14.5913335 17.1757786 -1.8638195e-15 8.75397563 15.1639197 5.5914585e-15 29.7552534 8.42287103"></polygon>
                        <polygon id="Shape" fill="#CBDBFF" points="3.91402095e-14 8.75397563 3.91402095e-14 26.9775398 14.5913335 35.3993428 14.5913335 17.1757786"></polygon>
                        <polygon id="Shape" fill="#9CBAFB" points="14.5913335 17.1757786 29.7552534 8.42287103 29.7552534 26.6464352 14.5913335 35.3993428"></polygon>
                    </g>
                    <g id="Group-20-Copy-7" transform="translate(135.359989, 81.215993)">
                        <polygon id="Shape" fill="#E9EFFF" points="14.5913335 17.1757786 -1.8638195e-15 8.75397563 15.1639197 5.5914585e-15 29.7552534 8.42287103"></polygon>
                        <polygon id="Shape" fill="#CBDBFF" points="3.91402095e-14 8.75397563 3.91402095e-14 26.9775398 14.5913335 35.3993428 14.5913335 17.1757786"></polygon>
                        <polygon id="Shape" fill="#9CBAFB" points="14.5913335 17.1757786 29.7552534 8.42287103 29.7552534 26.6464352 14.5913335 35.3993428"></polygon>
                    </g>
                    <g id="Group-20-Copy-12" transform="translate(255.491979, 40.607997)">
                        <polygon id="Shape" fill="#E9EFFF" points="14.5913335 17.1757786 -1.8638195e-15 8.75397563 15.1639197 5.5914585e-15 29.7552534 8.42287103"></polygon>
                        <polygon id="Shape" fill="#CBDBFF" points="3.91402095e-14 8.75397563 3.91402095e-14 26.9775398 14.5913335 35.3993428 14.5913335 17.1757786"></polygon>
                        <polygon id="Shape" fill="#9CBAFB" points="14.5913335 17.1757786 29.7552534 8.42287103 29.7552534 26.6464352 14.5913335 35.3993428"></polygon>
                    </g>
                    <g id="Group-20-Copy-12" transform="translate(233.495981, 54.143995)">
                        <polygon id="Shape" fill="#E9EFFF" points="14.5913335 17.1757786 -1.8638195e-15 8.75397563 15.1639197 5.5914585e-15 29.7552534 8.42287103"></polygon>
                        <polygon id="Shape" fill="#CBDBFF" points="3.91402095e-14 8.75397563 3.91402095e-14 26.9775398 14.5913335 35.3993428 14.5913335 17.1757786"></polygon>
                        <polygon id="Shape" fill="#9CBAFB" points="14.5913335 17.1757786 29.7552534 8.42287103 29.7552534 26.6464352 14.5913335 35.3993428"></polygon>
                    </g>
                    <g id="Group-20-Copy-13" transform="translate(209.807983, 67.679994)">
                        <polygon id="Shape" fill="#E9EFFF" points="14.5913335 17.1757786 -1.8638195e-15 8.75397563 15.1639197 5.5914585e-15 29.7552534 8.42287103"></polygon>
                        <polygon id="Shape" fill="#CBDBFF" points="3.91402095e-14 8.75397563 3.91402095e-14 26.9775398 14.5913335 35.3993428 14.5913335 17.1757786"></polygon>
                        <polygon id="Shape" fill="#9CBAFB" points="14.5913335 17.1757786 29.7552534 8.42287103 29.7552534 26.6464352 14.5913335 35.3993428"></polygon>
                    </g>
                    <g id="Group-20-Copy-11" transform="translate(186.119985, 81.215993)">
                        <polygon id="Shape" fill="#E9EFFF" points="14.5913335 17.1757786 -1.8638195e-15 8.75397563 15.1639197 5.5914585e-15 29.7552534 8.42287103"></polygon>
                        <polygon id="Shape" fill="#CBDBFF" points="3.91402095e-14 8.75397563 3.91402095e-14 26.9775398 14.5913335 35.3993428 14.5913335 17.1757786"></polygon>
                        <polygon id="Shape" fill="#9CBAFB" points="14.5913335 17.1757786 29.7552534 8.42287103 29.7552534 26.6464352 14.5913335 35.3993428"></polygon>
                    </g>
                    <g id="Group-20-Copy-7" transform="translate(162.431986, 94.751992)">
                        <polygon id="Shape" fill="#E9EFFF" points="14.5913335 17.1757786 -1.8638195e-15 8.75397563 15.1639197 5.5914585e-15 29.7552534 8.42287103"></polygon>
                        <polygon id="Shape" fill="#CBDBFF" points="3.91402095e-14 8.75397563 3.91402095e-14 26.9775398 14.5913335 35.3993428 14.5913335 17.1757786"></polygon>
                        <polygon id="Shape" fill="#9CBAFB" points="14.5913335 17.1757786 29.7552534 8.42287103 29.7552534 26.6464352 14.5913335 35.3993428"></polygon>
                    </g>
                    <g id="Group-20-Copy-16" transform="translate(111.671991, 94.751992)">
                        <polygon id="Shape" fill="#E9EFFF" points="14.5913335 17.1757786 -1.8638195e-15 8.75397563 15.1639197 5.5914585e-15 29.7552534 8.42287103"></polygon>
                        <polygon id="Shape" fill="#CBDBFF" points="3.91402095e-14 8.75397563 3.91402095e-14 26.9775398 14.5913335 35.3993428 14.5913335 17.1757786"></polygon>
                        <polygon id="Shape" fill="#9CBAFB" points="14.5913335 17.1757786 29.7552534 8.42287103 29.7552534 26.6464352 14.5913335 35.3993428"></polygon>
                    </g>
                    <g id="Group-20-Copy-15" transform="translate(137.051989, 109.979991)">
                        <polygon id="Shape" fill="#E9EFFF" points="14.5913335 17.1757786 -1.8638195e-15 8.75397563 15.1639197 5.5914585e-15 29.7552534 8.42287103"></polygon>
                        <polygon id="Shape" fill="#CBDBFF" points="3.91402095e-14 8.75397563 3.91402095e-14 26.9775398 14.5913335 35.3993428 14.5913335 17.1757786"></polygon>
                        <polygon id="Shape" fill="#9CBAFB" points="14.5913335 17.1757786 29.7552534 8.42287103 29.7552534 26.6464352 14.5913335 35.3993428"></polygon>
                    </g>
                </g>
                <g id="Group-5" transform="translate(53.000000, 0.000000)">
                    <polygon id="Shape" stroke="#FFFFFF" stroke-width="1.07802324" fill="#F7F7F7" fill-rule="nonzero" stroke-linecap="round" stroke-linejoin="round" points="98.0311116 115.109171 0.330944788 58.7016055 101.864562 0.0830145902 199.564729 56.4830337"></polygon>
                    <polygon id="Shape" fill="#EDEFF1" fill-rule="nonzero" points="0.330944788 58.7016055 0.330944788 180.745693 98.0311116 237.145712 98.0311116 115.109171"></polygon>
                    <polygon id="Shape" fill="url(#linearGradient-1)" fill-rule="nonzero" points="98.0311116 115.109171 199.564729 56.4830337 199.564729 178.527121 98.0311116 237.145712"></polygon>
                    <polygon id="Shape" fill="#E0E8EA" fill-rule="nonzero" opacity="0.4" points="98.5895276 99.390514 29.4666785 59.4788602 101.306146 18.0051507 170.428995 57.9168045"></polygon>
                    <polygon id="Shape" fill="#DBDEE2" fill-rule="nonzero" points="170.428995 57.9168045 101.306146 18.0051507 101.072215 28.2849282 160.97175 63.1246087"></polygon>
                    <polygon id="Shape" fill="#E7E9EB" fill-rule="nonzero" points="101.306146 18.0051507 29.4666785 59.4788602 38.6899932 64.5583796 101.072215 28.2849282"></polygon>
                    <line x1="63.5753333" y1="95.3684094" x2="63.5753333" y2="217.412497" id="Shape" stroke="#FFFFFF" stroke-width="1.07802324" opacity="0.4"></line>
                    <line x1="29.4666785" y1="75.574825" x2="29.4666785" y2="197.618912" id="Shape" stroke="#FFFFFF" stroke-width="1.07802324" opacity="0.4"></line>
                    <polyline id="Shape" stroke="#FFFFFF" stroke-width="1.07802324" opacity="0.40359933" points="167.252061 75.3182554 166.957761 75.4993633 166.957761 197.543451 167.252061 197.362343"></polyline>
                    <line x1="132.992483" y1="95.3684094" x2="132.992483" y2="217.412497" id="Shape" stroke="#FFFFFF" stroke-width="1.07802324" opacity="0.4"></line>
                    <line x1="0.330944788" y1="99.390514" x2="98.0311116" y2="155.798079" id="Shape" stroke="#FFFFFF" stroke-width="1.07802324" opacity="0.4"></line>
                    <line x1="0.413952577" y1="140.381269" x2="98.1141194" y2="196.788834" id="Shape" stroke="#FFFFFF" stroke-width="1.07802324" opacity="0.4"></line>
                    <line x1="198.538451" y1="97.3379578" x2="97.9782885" y2="155.390586" id="Shape" stroke="#FFFFFF" stroke-width="1.07802324" opacity="0.4"></line>
                    <line x1="199.534544" y1="138.939952" x2="98.0311116" y2="197.543451" id="Shape" stroke="#FFFFFF" stroke-width="1.07802324" opacity="0.4"></line>
                </g>
            </g>
            <g id="illustrarion-mvp" transform="translate(126.000000, 4452.000000)"></g>
        </g>
    </g>
</svg>