<?xml version="1.0" encoding="UTF-8"?>
<svg width="464px" height="464px" viewBox="0 0 464 464" version="1.1" xmlns="http://www.w3.org/2000/svg" xmlns:xlink="http://www.w3.org/1999/xlink">
    <!-- Generator: Sketch 63.1 (92452) - https://sketch.com -->
    <title>illustration-cloud</title>
    <desc>Created with Sketch.</desc>
    <g id="Services" stroke="none" stroke-width="1" fill="none" fill-rule="evenodd">
        <g id="Service_desktop-IOT" transform="translate(-812.000000, -2317.000000)">
            <rect fill="#FFFFFF" x="0" y="0" width="1400" height="7058"></rect>
            <g id="illustration-cloud" transform="translate(897.000000, 2426.000000)" fill-rule="nonzero">
                <g id="Group" transform="translate(139.049996, 174.149995)">
                    <path d="M61.0424984,8.09999979 L48.2849987,0.719999981 L5.84999985,25.4699993 L18.6299995,32.8499991 C20.7541745,34.4046118 23.5559155,34.6804755 25.9424993,33.5699991 L68.3774982,8.81999977 C65.9831175,9.92953765 63.1754336,9.65393678 61.0424984,8.09999979 Z" id="Path" fill="#6291FB"></path>
                    <path d="M28.9799992,20.1599995 L28.9799992,26.9099993 C28.9799992,33.4349991 24.3224994,36.089999 18.6524995,32.8049991 L5.84999985,25.3799993 L0.292499992,33.4574991 L18.5849995,44.0999988 C29.6999992,50.5124987 38.834999,45.3599988 38.834999,32.6024991 L38.834999,25.8524993 L28.9799992,20.1599995 Z" id="Path" fill="#799EF0"></path>
                </g>
                <g id="Group">
                    <path d="M249.749993,9.31499975 C241.987494,4.81499987 231.412494,5.37749986 219.779994,12.0824997 C213.316557,15.9147049 207.487156,20.7269969 202.499995,26.3474993 L245.812493,51.5024986 C250.784204,45.8926312 256.589654,41.0813167 263.024993,37.237499 C274.657493,30.4874992 285.254992,29.9699992 293.017492,34.4924991 L249.749993,9.31499975 Z" id="Path" fill="#F7F7F7"></path>
                    <path d="M196.402495,19.5749995 C191.204995,16.5599996 184.139995,16.9199996 176.332495,21.4424994 C175.114319,22.12664 173.935009,22.8777927 172.799995,23.6924994 L215.999994,48.9149987 C217.138715,48.1057845 218.317728,47.3548207 219.532494,46.6649988 C227.339994,42.1649989 234.404994,41.7824989 239.602494,44.7974988 L196.402495,19.5749995 Z" id="Path" fill="#EEF3F5"></path>
                    <path d="M161.999996,2.45249994 C155.474997,-1.32749996 146.587496,-0.854999977 136.822496,4.70249988 C118.822497,15.0299996 104.152497,39.127499 101.474997,61.0874984 L144.674996,86.3099977 C147.352496,64.3499983 161.999996,40.2524989 179.999995,29.9249992 C189.764995,24.2999994 198.652495,23.8274994 205.177495,27.6749993 L161.999996,2.45249994 Z" id="Path" fill="#F7F7F7"></path>
                    <path d="M112.792497,29.4974992 C106.833051,39.1454435 102.940966,49.9252941 101.362497,61.1549984 L144.674996,86.3099977 C146.258539,75.0395925 150.16609,64.2210376 156.149996,54.5399986 L112.792497,29.4974992 Z" id="Path" fill="#CFD8DB"></path>
                    <path d="M101.362497,61.1549984 C96.170811,61.7018903 91.1666513,63.400691 86.7149977,66.1274982 C66.6899982,77.6474979 50.3999987,105.569997 49.0949987,129.757497 L92.3849976,154.934996 C93.7124975,130.724997 109.979997,102.824997 130.004997,91.2824976 C134.472249,88.5715528 139.480062,86.8741192 144.674996,86.3099977 L101.362497,61.1549984 Z" id="Path" fill="#F7F7F7"></path>
                    <path d="M60.7499984,93.3074975 C54.0567564,104.378583 50.0425792,116.860286 49.0274987,129.757497 L92.3849976,154.934996 C93.406761,141.983932 97.45266,129.453205 104.197497,118.349997 L60.7499984,93.3074975 Z" id="Path" fill="#CFD8DB"></path>
                    <path d="M49.0949987,129.757497 C44.4056057,130.319754 39.8846593,131.852278 35.8199991,134.257497 C15.9074996,145.844996 0,174.307495 0,197.999995 C0,210.014994 4.29749989,218.474994 11.0249997,222.389994 L54.3149986,247.499993 C47.5649987,243.584994 43.3799989,235.124994 43.2899989,223.132494 C43.2899989,199.439995 59.1974984,170.977495 79.1099979,159.524996 C83.1713159,157.112509 87.693838,155.57945 92.3849976,155.024996 L49.0949987,129.757497 Z" id="Path" fill="#F7F7F7"></path>
                    <path d="M43.2899989,223.154994 C43.3861443,215.438078 44.7858564,207.792912 47.4299987,200.542495 L4.09499989,175.499995 C1.46651345,182.714205 0.0818411017,190.322295 0,197.999995 C0,210.014994 4.29749989,218.474994 11.0249997,222.389994 L54.3149986,247.499995 C47.5874987,243.607494 43.3799989,235.147494 43.2899989,223.154994 Z" id="Path" fill="#CFD8DB"></path>
                    <path d="M263.047493,37.237499 C256.612154,41.0813167 250.806704,45.8926312 245.834993,51.5024986 C241.334994,42.3449989 231.232494,39.8924989 219.622494,46.5974988 C218.407728,47.2873207 217.228715,48.0382845 216.089994,48.8474987 C214.604994,27.4499993 198.967495,18.9224995 180.089995,29.8574992 C162.089996,40.1849989 147.442496,64.2824983 144.764996,86.2424977 C139.570062,86.8066192 134.562249,88.5040528 130.094997,91.2149976 C109.979997,102.824997 93.7124975,130.724997 92.3849976,154.934996 C87.693838,155.48945 83.1713159,157.022509 79.1099979,159.434996 C59.1974984,170.887495 43.1099989,199.349995 43.288503,223.042494 C43.4699988,246.734993 59.6699984,256.567493 79.5599979,245.092494 L263.564993,139.117496 C287.234992,125.459997 306.314992,91.5974976 306.136255,63.4499983 C305.954992,35.3024991 286.717492,23.6024994 263.047493,37.237499 Z" id="Path" fill="#E6E9ED"></path>
                </g>
                <g id="Group" transform="translate(152.999996, 67.499998)">
                    <polygon id="Path" fill="#799EF0" points="24.8849993 132.659996 15.0074996 126.922497 14.8274996 65.6774983 24.7049993 71.4149981"></polygon>
                    <polygon id="Path" fill="#799EF0" points="10.1474997 79.8074979 0.269999993 74.069998 35.887499 0.0449999988 45.7424988 5.75999985"></polygon>
                    <path d="M67.0949982,46.9349988 L81.6524978,38.519999 L45.6524988,5.75999985 L10.1474997,79.8074979 L24.7499993,71.4149981 L24.7499993,139.184996 C24.7499993,145.507496 22.4999994,149.962496 18.8774995,152.077496 L61.3124984,127.327497 C64.9349983,125.234997 67.1624982,120.779997 67.1849982,114.434997 L67.0949982,46.9349988 Z" id="Path" fill="#B0C8FD"></path>
                </g>
            </g>
        </g>
    </g>
</svg>