<?xml version="1.0" encoding="UTF-8"?>
<svg width="464px" height="464px" viewBox="0 0 464 464" version="1.1" xmlns="http://www.w3.org/2000/svg" xmlns:xlink="http://www.w3.org/1999/xlink">
    <!-- Generator: Sketch 63.1 (92452) - https://sketch.com -->
    <title>illustration-full control</title>
    <desc>Created with Sketch.</desc>
    <defs>
        <linearGradient x1="52.6583186%" y1="38.6691091%" x2="50%" y2="63.4458163%" id="linearGradient-1">
            <stop stop-color="#004FFF" stop-opacity="0.03" offset="0%"></stop>
            <stop stop-color="#D8D8D8" stop-opacity="0" offset="100%"></stop>
        </linearGradient>
        <linearGradient x1="37.3680194%" y1="24.6689779%" x2="62.6319806%" y2="75.335199%" id="linearGradient-2">
            <stop stop-color="#CFD8DB" offset="0%"></stop>
            <stop stop-color="#CFD8DB" offset="100%"></stop>
        </linearGradient>
        <linearGradient x1="96.9966196%" y1="49.9935034%" x2="0.000276915255%" y2="49.9935034%" id="linearGradient-3">
            <stop stop-color="#004FFF" offset="0%"></stop>
            <stop stop-color="#0452FF" stop-opacity="0.98" offset="14%"></stop>
            <stop stop-color="#115BFF" stop-opacity="0.93" offset="26%"></stop>
            <stop stop-color="#276AFF" stop-opacity="0.85" offset="38%"></stop>
            <stop stop-color="#457FFF" stop-opacity="0.73" offset="51%"></stop>
            <stop stop-color="#6C9AFF" stop-opacity="0.57" offset="64%"></stop>
            <stop stop-color="#9CBBFF" stop-opacity="0.39" offset="78%"></stop>
            <stop stop-color="#D4E1FF" stop-opacity="0.17" offset="91%"></stop>
            <stop stop-color="#FFFFFF" stop-opacity="0" offset="100%"></stop>
        </linearGradient>
        <linearGradient x1="2.11447183%" y1="20.2487545%" x2="74.0493528%" y2="63.3461659%" id="linearGradient-4">
            <stop stop-color="#FFFFFF" stop-opacity="0" offset="0%"></stop>
            <stop stop-color="#0150FF" offset="100%"></stop>
        </linearGradient>
        <linearGradient x1="0%" y1="42.3663343%" x2="60.4304237%" y2="55.1533109%" id="linearGradient-5">
            <stop stop-color="#FFFFFF" stop-opacity="0" offset="0%"></stop>
            <stop stop-color="#0150FF" offset="100%"></stop>
        </linearGradient>
        <linearGradient x1="0.00349353817%" y1="49.9935034%" x2="100.004654%" y2="49.9935034%" id="linearGradient-6">
            <stop stop-color="#004FFF" offset="3%"></stop>
            <stop stop-color="#0452FF" stop-opacity="0.98" offset="14%"></stop>
            <stop stop-color="#115BFF" stop-opacity="0.93" offset="26%"></stop>
            <stop stop-color="#276AFF" stop-opacity="0.85" offset="38%"></stop>
            <stop stop-color="#457FFF" stop-opacity="0.73" offset="51%"></stop>
            <stop stop-color="#6C9AFF" stop-opacity="0.57" offset="64%"></stop>
            <stop stop-color="#9CBBFF" stop-opacity="0.39" offset="78%"></stop>
            <stop stop-color="#D4E1FF" stop-opacity="0.17" offset="91%"></stop>
            <stop stop-color="#FFFFFF" stop-opacity="0" offset="100%"></stop>
        </linearGradient>
        <linearGradient x1="-0.0235288457%" y1="49.9596744%" x2="100.028392%" y2="49.9596744%" id="linearGradient-7">
            <stop stop-color="#004FFF" offset="3%"></stop>
            <stop stop-color="#0452FF" stop-opacity="0.98" offset="14%"></stop>
            <stop stop-color="#115BFF" stop-opacity="0.93" offset="26%"></stop>
            <stop stop-color="#276AFF" stop-opacity="0.85" offset="38%"></stop>
            <stop stop-color="#457FFF" stop-opacity="0.73" offset="51%"></stop>
            <stop stop-color="#6C9AFF" stop-opacity="0.57" offset="64%"></stop>
            <stop stop-color="#9CBBFF" stop-opacity="0.39" offset="78%"></stop>
            <stop stop-color="#D4E1FF" stop-opacity="0.17" offset="91%"></stop>
            <stop stop-color="#FFFFFF" stop-opacity="0" offset="100%"></stop>
        </linearGradient>
        <linearGradient x1="-0.000131729468%" y1="50.0206673%" x2="100.002257%" y2="50.0206673%" id="linearGradient-8">
            <stop stop-color="#004FFF" offset="3%"></stop>
            <stop stop-color="#0452FF" stop-opacity="0.98" offset="14%"></stop>
            <stop stop-color="#115BFF" stop-opacity="0.93" offset="26%"></stop>
            <stop stop-color="#276AFF" stop-opacity="0.85" offset="38%"></stop>
            <stop stop-color="#457FFF" stop-opacity="0.73" offset="51%"></stop>
            <stop stop-color="#6C9AFF" stop-opacity="0.57" offset="64%"></stop>
            <stop stop-color="#9CBBFF" stop-opacity="0.39" offset="78%"></stop>
            <stop stop-color="#D4E1FF" stop-opacity="0.17" offset="91%"></stop>
            <stop stop-color="#FFFFFF" stop-opacity="0" offset="100%"></stop>
        </linearGradient>
        <linearGradient x1="0.000479827381%" y1="49.9966124%" x2="99.9992004%" y2="49.9966124%" id="linearGradient-9">
            <stop stop-color="#3372FF" offset="0%"></stop>
            <stop stop-color="#3A77FF" stop-opacity="0.96" offset="8%"></stop>
            <stop stop-color="#4E85FF" stop-opacity="0.87" offset="22%"></stop>
            <stop stop-color="#6F9BFF" stop-opacity="0.71" offset="40%"></stop>
            <stop stop-color="#9CBAFF" stop-opacity="0.49" offset="61%"></stop>
            <stop stop-color="#D5E2FF" stop-opacity="0.21" offset="84%"></stop>
            <stop stop-color="#FFFFFF" stop-opacity="0" offset="100%"></stop>
        </linearGradient>
        <linearGradient x1="-0.0198669555%" y1="49.9591358%" x2="99.9847468%" y2="49.9591358%" id="linearGradient-10">
            <stop stop-color="#3372FF" offset="0%"></stop>
            <stop stop-color="#3A77FF" stop-opacity="0.96" offset="8%"></stop>
            <stop stop-color="#4E85FF" stop-opacity="0.87" offset="22%"></stop>
            <stop stop-color="#6F9BFF" stop-opacity="0.71" offset="40%"></stop>
            <stop stop-color="#9CBAFF" stop-opacity="0.49" offset="61%"></stop>
            <stop stop-color="#D5E2FF" stop-opacity="0.21" offset="84%"></stop>
            <stop stop-color="#FFFFFF" stop-opacity="0" offset="100%"></stop>
        </linearGradient>
        <linearGradient x1="0.000622643246%" y1="50.0007537%" x2="99.9989624%" y2="50.0007537%" id="linearGradient-11">
            <stop stop-color="#3372FF" offset="0%"></stop>
            <stop stop-color="#3A77FF" stop-opacity="0.96" offset="8%"></stop>
            <stop stop-color="#4E85FF" stop-opacity="0.87" offset="22%"></stop>
            <stop stop-color="#6F9BFF" stop-opacity="0.71" offset="40%"></stop>
            <stop stop-color="#9CBAFF" stop-opacity="0.49" offset="61%"></stop>
            <stop stop-color="#D5E2FF" stop-opacity="0.21" offset="84%"></stop>
            <stop stop-color="#FFFFFF" stop-opacity="0" offset="100%"></stop>
        </linearGradient>
        <linearGradient x1="50.0046579%" y1="0.00120354149%" x2="50.0046579%" y2="99.9999246%" id="linearGradient-12">
            <stop stop-color="#3372FF" offset="0%"></stop>
            <stop stop-color="#3A77FF" stop-opacity="0.96" offset="8%"></stop>
            <stop stop-color="#4E85FF" stop-opacity="0.87" offset="22%"></stop>
            <stop stop-color="#6F9BFF" stop-opacity="0.71" offset="40%"></stop>
            <stop stop-color="#9CBAFF" stop-opacity="0.49" offset="61%"></stop>
            <stop stop-color="#D5E2FF" stop-opacity="0.21" offset="84%"></stop>
            <stop stop-color="#FFFFFF" stop-opacity="0" offset="100%"></stop>
        </linearGradient>
        <linearGradient x1="49.9720139%" y1="0.0333401224%" x2="49.9720139%" y2="99.9971139%" id="linearGradient-13">
            <stop stop-color="#3372FF" offset="0%"></stop>
            <stop stop-color="#3A77FF" stop-opacity="0.96" offset="8%"></stop>
            <stop stop-color="#4E85FF" stop-opacity="0.87" offset="22%"></stop>
            <stop stop-color="#6F9BFF" stop-opacity="0.71" offset="40%"></stop>
            <stop stop-color="#9CBAFF" stop-opacity="0.49" offset="61%"></stop>
            <stop stop-color="#D5E2FF" stop-opacity="0.21" offset="84%"></stop>
            <stop stop-color="#FFFFFF" stop-opacity="0" offset="100%"></stop>
        </linearGradient>
        <linearGradient x1="0.000622643246%" y1="50.0007537%" x2="99.9989624%" y2="50.0007537%" id="linearGradient-14">
            <stop stop-color="#3372FF" offset="0%"></stop>
            <stop stop-color="#3A77FF" stop-opacity="0.96" offset="8%"></stop>
            <stop stop-color="#4E85FF" stop-opacity="0.87" offset="22%"></stop>
            <stop stop-color="#6F9BFF" stop-opacity="0.71" offset="40%"></stop>
            <stop stop-color="#9CBAFF" stop-opacity="0.49" offset="61%"></stop>
            <stop stop-color="#D5E2FF" stop-opacity="0.21" offset="84%"></stop>
            <stop stop-color="#FFFFFF" stop-opacity="0" offset="100%"></stop>
        </linearGradient>
        <linearGradient x1="50%" y1="100%" x2="50%" y2="0%" id="linearGradient-15">
            <stop stop-color="#004FFF" offset="0%"></stop>
            <stop stop-color="#FFFFFF" stop-opacity="0" offset="100%"></stop>
        </linearGradient>
        <linearGradient x1="50.0034846%" y1="100%" x2="50.0034846%" y2="25.4750845%" id="linearGradient-16">
            <stop stop-color="#004FFF" offset="0%"></stop>
            <stop stop-color="#FFFFFF" stop-opacity="0" offset="100%"></stop>
        </linearGradient>
    </defs>
    <g id="Services" stroke="none" stroke-width="1" fill="none" fill-rule="evenodd">
        <g id="Service_desktop-E-commerce" transform="translate(-814.000000, -1222.000000)">
            <rect fill="#FFFFFF" x="0" y="0" width="1400" height="4700"></rect>
            <g id="bg-abstr-hww" transform="translate(-3.000000, 283.000000)" fill="url(#linearGradient-1)" fill-rule="nonzero">
                <path d="M3,500 C435.044792,776.063443 901.027287,914.095164 1400.94749,914.095164 C1403.68417,914.095164 1403.68417,1018.06344 1400.94749,1226 L3,1226 L3,500 Z" id="decor-bg-1"></path>
            </g>
            <g id="Group-12" transform="translate(904.000000, 1264.000000)">
                <g id="Group-14-Copy" transform="translate(22.100001, 94.172000)">
                    <g id="Group-11" transform="translate(0.000000, 119.028011)" fill-rule="nonzero">
                        <path d="M124.493029,137.652431 C64.044435,103.951679 60.4189991,102.817878 -1.55182526e-14,69.1022068 L119.86135,5.4313884e-14 C180.176765,33.8797737 183.609831,35.1925963 243.910449,69.0723699 C204.104642,91.9473089 164.298836,114.807329 124.493029,137.652431 Z" id="Path" fill="#F9F9F9"></path>
                        <polygon id="Path" fill="#EDEFF1" points="124.500583 137.376501 -1.55182526e-14 67.6187382 -1.55182526e-14 85.8268492 32.1425491 103.974966 124.500583 155.764593 243.910449 86.7717512 243.910449 68.4736495"></polygon>
                        <polygon id="Path" fill="#CFD8DB" points="124.621501 137.495584 124.370179 137.361143 124.370179 155.615215 124.621501 155.764593 243.910449 87.0504117 243.910449 68.8262157"></polygon>
                        <path d="M124.386442,107.465495 C80.9248757,83.2146414 78.4047238,82.3363109 35.0168466,58.1598924 L121.070452,8.45234228 C164.355165,32.8222912 166.757415,33.7601695 210.10108,58.1301185 L124.386442,107.465495 Z" id="Path" fill="#FCFCFC"></path>
                        <polygon id="Path" fill="#EDEFF1" points="124.37892 107.674152 35.0168466 57.9589185 35.0168466 70.9287544 58.0794528 83.8689449 124.393656 120.747747 210.10108 71.6254199 210.10108 58.5666479"></polygon>
                        <polygon id="Path" fill="#CFD8DB" points="124.561379 107.546377 124.370179 107.441604 124.370179 120.642974 124.561379 120.747747 210.10108 71.1453208 210.10108 57.9589185"></polygon>
                    </g>
                    <g id="Group-5" transform="translate(57.367997, 0.728005)">
                        <polygon id="Shape" stroke="#FFFFFF" stroke-width="0.718476275" fill="#F7F7F7" fill-rule="nonzero" stroke-linecap="round" stroke-linejoin="round" points="65.1351227 76.7174629 0.0203374229 39.1231925 67.6900242 0.0553272055 132.804809 37.6445683"></polygon>
                        <polygon id="Shape" fill="#EDEFF1" fill-rule="nonzero" points="0.0203374229 39.1231925 0.0203374229 172.878606 65.1351227 210.467847 65.1351227 76.7174629"></polygon>
                        <polygon id="Shape" fill="url(#linearGradient-2)" fill-rule="nonzero" points="65.1351227 76.7174629 132.804809 37.6445683 132.804809 171.399982 65.1351227 210.467847"></polygon>
                        <polygon id="Shape" fill="#F3F4F5" fill-rule="nonzero" points="65.5072934 66.2413605 19.4385954 39.6412139 67.3178535 11.9999951 113.386552 38.6001418"></polygon>
                        <polygon id="Shape" fill="#DBDEE2" fill-rule="nonzero" points="113.386552 38.6001418 67.3178535 11.9999951 67.1619442 18.8512168 107.083527 42.0710166"></polygon>
                        <polygon id="Shape" fill="#E7E9EB" fill-rule="nonzero" points="67.3178535 11.9999951 19.4385954 39.6412139 25.5857103 43.02659 67.1619442 18.8512168"></polygon>
                        <polygon id="Path-7" fill="#BCCFD5" points="87.9979956 90.6359955 87.9979956 115.751994 111.475994 102.101995 111.475994 76.9859962"></polygon>
                        <polygon id="Path-7-Copy-5" fill="#BCCFD5" points="65.0659967 184.001991 65.0659967 210.209989 87.9979956 197.65199 87.9979956 171.443991"></polygon>
                        <polygon id="Path-7-Copy-2" fill="#D3DEE1" points="87.9979956 116.297994 87.9979956 142.505993 111.475994 128.855994 111.475994 102.647995"></polygon>
                        <polygon id="Path-7-Copy-4" fill="#D3DEE1" points="65.0659967 156.155992 65.0659967 184.547991 87.9979956 171.443991 87.9979956 143.051993"></polygon>
                        <polygon id="Path-7-Copy-6" fill="#D3DEE1" points="88.5439955 170.351991 88.5439955 197.10599 111.475994 184.001991 111.475994 157.247992"></polygon>
                        <polygon id="Path-7-Copy" fill="#BCCFD5" points="111.475994 103.193995 111.475994 129.401994 132.769993 116.843994 132.769993 90.6359955"></polygon>
                        <polygon id="Path-7-Copy-3" fill="#BCCFD5" points="111.475994 129.401994 111.475994 157.793992 132.769993 145.235993 132.769993 116.843994"></polygon>
                        <polygon id="Path-8" fill="#E7EEF0" points="19.201999 103.193995 19.201999 129.947994 42.1339978 143.051993 42.1339978 116.297994"></polygon>
                        <polygon id="Path-8-Copy-4" fill="#E3EAEC" points="19.201999 157.247992 19.201999 184.001991 42.1339978 197.10599 42.1339978 170.351991"></polygon>
                        <polygon id="Path-8-Copy-2" fill="#E3EAEC" points="0.0919999454 91.7279954 0.0919999454 118.481994 19.747999 129.947994 19.747999 103.193995"></polygon>
                        <polygon id="Path-8-Copy-3" fill="#DCE7EB" points="0.0919999454 119.027994 0.0919999454 145.781993 19.747999 157.247992 19.747999 130.493993"></polygon>
                        <polygon id="Path-8-Copy" fill="#E7EEF0" points="42.1339978 90.0899955 42.1339978 116.297994 65.0659967 129.401994 65.0659967 103.193995"></polygon>
                        <line x1="42.1339978" y1="63.8819968" x2="42.1711843" y2="197.316139" id="Shape" stroke="#F4F5F6" stroke-width="0.718476275"></line>
                        <line x1="19.201999" y1="49.6859975" x2="19.4385954" y2="184.124197" id="Shape" stroke="#F4F5F6" stroke-width="0.718476275"></line>
                        <polyline id="Shape" stroke="#E2E7E9" stroke-width="0.718476275" points="111.234533 49.8961466 111.021593 50.0951701 111.021593 184.21214 111.234533 184.013116"></polyline>
                        <line x1="87.9979956" y1="63.8819968" x2="88.4360263" y2="197.316139" id="Shape" stroke="#E2E7E9" stroke-width="0.718476275"></line>
                        <line x1="0.0203374229" y1="118.657358" x2="65.1351227" y2="156.251628" id="Shape" stroke="#F4F5F6" stroke-width="0.718476275"></line>
                        <line x1="0.0203374229" y1="91.7279954" x2="65.1351227" y2="129.322266" id="Shape-Copy-12" stroke="#F4F5F6" stroke-width="0.718476275"></line>
                        <line x1="0.0203374229" y1="65.5199967" x2="65.1351227" y2="103.114267" id="Shape-Copy-13" stroke="#F4F5F6" stroke-width="0.718476275"></line>
                        <line x1="0.0756600951" y1="145.976699" x2="65.1904453" y2="183.57097" id="Shape" stroke="#F4F5F6" stroke-width="0.718476275"></line>
                        <line x1="132.12082" y1="117.289379" x2="65.0999173" y2="155.980044" id="Shape" stroke="#E2E7E9" stroke-width="0.718476275"></line>
                        <line x1="132.12082" y1="90.6359955" x2="65.0999173" y2="129.326661" id="Shape-Copy-10" stroke="#E2E7E9" stroke-width="0.718476275"></line>
                        <line x1="132.12082" y1="64.4279968" x2="65.0999173" y2="103.118662" id="Shape-Copy-11" stroke="#E2E7E9" stroke-width="0.718476275"></line>
                        <line x1="132.784692" y1="145.016097" x2="65.1351227" y2="184.073903" id="Shape" stroke="#E2E7E9" stroke-width="0.718476275"></line>
                    </g>
                </g>
                <g id="Group-10" transform="translate(2.600000, 0.000000)" fill-rule="nonzero">
                    <g id="Group-9" transform="translate(22.100001, 24.700001)">
                        <path d="M94.4379799,55.1513355 C94.3555715,55.1504681 94.2748504,55.1278662 94.2039799,55.0858039 L0.234262811,0.872685604 C0.0114309751,0.744168839 -0.0659069058,0.459899871 0.0611028164,0.236205623 C0.122855985,0.127891843 0.225276732,0.0486969412 0.345645096,0.0161886969 C0.466013459,-0.0163195473 0.594377691,0 0.702262797,0.0630456287 L94.6719799,54.2761639 C94.8574074,54.3812384 94.9484219,54.5983262 94.8933694,54.8042224 C94.838317,55.0101186 94.6511038,55.152814 94.4379799,55.1513355 Z" id="Shape" fill="url(#linearGradient-3)"></path>
                        <polygon id="Path" fill="url(#linearGradient-4)" points="51.0888923 3.69969046 51.6111133 2.8003099 72.020004 14.6506335 72.020004 23.0997013 97.7592104 37.8992108 97.2408004 38.8007934 70.9800039 23.7008354 70.9800039 15.2477008"></polygon>
                        <polygon id="Path" fill="url(#linearGradient-5)" points="6.75920536 34.6492106 32.5585018 49.4845027 46.8615011 44.9347469 71.7605428 59.3499816 71.2394651 60.250025 46.7376026 46.0655025 32.43938 50.6149794 6.24079536 35.5507932"></polygon>
                    </g>
                    <g id="Group-7" transform="translate(140.400008, 16.900001)">
                        <path d="M18.685423,62.0452586 C18.7781324,62.0442827 18.8689437,62.0188556 18.9486731,61.9715356 L124.643555,0.981771402 C124.894241,0.837190027 124.981246,0.517387406 124.83836,0.265731353 C124.768888,0.143878338 124.653665,0.0547840643 124.51825,0.0182122859 C124.382836,-0.0183594925 124.238426,3.74100776e-14 124.117055,0.0709263394 L18.401113,61.0606905 C18.192507,61.1788993 18.0901157,61.4231231 18.1520497,61.6547564 C18.2139838,61.8863896 18.4245986,62.0469219 18.664363,62.0452586 L18.685423,62.0452586 Z" id="Shape" fill="url(#linearGradient-6)"></path>
                        <path d="M0.505376798,52.4524275 C0.597607169,52.4530519 0.688386679,52.4294492 0.768626816,52.3839699 L45.2157599,26.7434182 C45.3843249,26.646244 45.4855567,26.4640267 45.4790099,26.2695681 L45.2052298,16.4819325 L67.1550163,3.8459316 C67.3931274,3.69456495 67.4695897,3.38240266 67.3283892,3.13812588 C67.1871888,2.8938491 66.8785251,2.80430302 66.6285163,2.93508653 L44.4049498,15.7553624 C44.2363848,15.8525366 44.1351529,16.0347539 44.1416998,16.2292124 L44.4207448,26.0115831 L0.257921781,51.4731248 C0.0548266644,51.5936064 -0.0432070178,51.8345754 0.0180959064,52.0626223 C0.0793988307,52.2906691 0.285041288,52.4500048 0.521171799,52.4524275 L0.505376798,52.4524275 Z" id="Shape" fill="url(#linearGradient-7)"></path>
                        <path d="M36.2863192,72.5857763 C36.3767658,72.5857763 36.4656158,72.5619271 36.5443043,72.5173313 L72.3463067,51.8679999 L88.3677028,57.0698202 C88.5093995,57.1168854 88.6644159,57.1015751 88.7941678,57.0277002 L117.66743,40.3534441 C117.838794,40.2638007 117.947218,40.087424 117.949884,39.8940465 C117.952453,39.7006691 117.848843,39.5214224 117.679967,39.4271737 C117.511092,39.332925 117.304139,39.3388473 117.14093,39.442599 L88.4466778,55.9957602 L72.4200167,50.7939398 C72.27832,50.7468747 72.1233036,50.7621849 71.9935517,50.8360598 L36.0178042,71.6064862 C35.8138969,71.7274777 35.7160177,71.9698388 35.7787153,72.1985004 C35.8414128,72.4271621 36.0492178,72.5857763 36.2863192,72.5857763 Z" id="Shape" fill="url(#linearGradient-8)"></path>
                    </g>
                    <g id="Group-8" transform="translate(148.200008, 96.200005)">
                        <path d="M136.58923,79.9973638 C136.452635,79.9954481 136.318642,79.9597168 136.19923,79.8933634 L20.2808306,13.0161637 C19.9074862,12.8007726 19.7794396,12.3235082 19.9948307,11.9501637 C20.2102217,11.5768192 20.6874861,11.4487727 21.0608306,11.6641637 L136.97923,78.5413634 C137.285493,78.71766 137.43497,79.0778311 137.343538,79.419178 C137.252106,79.7605249 136.94261,79.9973638 136.58923,79.9973638 Z" id="Shape" fill="url(#linearGradient-9)"></path>
                        <path d="M73.5496304,76.882572 C73.412693,76.8832115 73.2780625,76.84731 73.1596304,76.7785634 L48.7924305,62.7385634 C48.5468445,62.5930765 48.3980188,62.3271745 48.4024305,62.0417634 L48.7040305,51.4337635 L0.344030711,23.5461636 C0.00397970518,23.316885 -0.100429828,22.8634277 0.105112202,22.5085251 C0.310654233,22.1536225 0.755930765,22.0185162 1.12403071,22.1993636 L49.8636305,50.3157635 C50.1100248,50.4604602 50.2591385,50.7268766 50.2536305,51.0125635 L49.9520305,61.6205634 L73.9500304,75.4265634 C74.2562934,75.60286 74.4057705,75.9630311 74.3143383,76.304378 C74.2229061,76.6457249 73.9134104,76.882572 73.5600304,76.882572 L73.5496304,76.882572 Z" id="Shape" fill="url(#linearGradient-10)"></path>
                        <path d="M128.96083,36.8269722 C128.823893,36.8276117 128.689262,36.7917102 128.57083,36.7229636 L97.1836303,18.6165636 L79.7012303,24.2949636 C79.4912997,24.3616851 79.2629967,24.3371567 79.0720304,24.2273636 L39.5988305,1.45656372 C39.2254861,1.24117265 39.0974396,0.763908224 39.3128306,0.390563758 C39.5282216,0.0172192915 40.005486,-0.110827281 40.3788305,0.104563725 L79.5504303,22.7037636 L97.0328303,17.0253636 C97.2419687,16.9564124 97.4705087,16.9790775 97.6620303,17.0877636 L129.35083,35.3709636 C129.657093,35.5472602 129.80657,35.9074313 129.715138,36.2487782 C129.623706,36.5901251 129.31421,36.827357 128.96083,36.8269722 L128.96083,36.8269722 Z" id="Shape" fill="url(#linearGradient-11)"></path>
                    </g>
                    <g id="Group-6" transform="translate(0.000000, 98.800005)">
                        <path d="M52.8822368,47.9511319 C52.5200089,47.9515071 52.2027625,47.7083356 52.1090415,47.3584418 C52.0153195,47.0085469 52.1685394,46.6393576 52.4824714,46.4586466 L113.667897,11.1620277 C113.915456,11.0192048 114.220405,11.0193029 114.467872,11.1622835 C114.715339,11.3052652 114.867638,11.5694067 114.867638,11.8552102 C114.867638,12.1410137 114.714987,12.4050582 114.467428,12.547881 L53.2820022,47.8445 C53.1608072,47.9154557 53.0226696,47.9522917 52.8822368,47.9511319 Z" id="Shape" fill="url(#linearGradient-12)"></path>
                        <path d="M63.6599118,73.4401454 C63.2920157,73.4444949 62.9686449,73.1972171 62.876442,72.8410368 C62.784239,72.4848554 62.9470107,72.1117325 63.2708068,71.9370276 L113.284122,44.545103 L112.996291,34.4763453 C112.99127,34.198728 113.127844,33.93763 113.358745,33.7834186 L132.638097,21.2094645 C132.877082,21.0415119 133.188634,21.017252 133.450736,21.1461865 C133.712837,21.2751209 133.883768,21.5367253 133.896579,21.8285423 C133.90939,22.1203593 133.762045,22.3959384 133.512251,22.547346 L114.611343,34.8761107 L114.893844,45.0035006 C114.902447,45.3026488 114.744359,45.5818695 114.483419,45.7284085 L64.0703376,73.3601924 C63.942499,73.4211443 63.8012816,73.4486535 63.6599118,73.4401454 Z" id="Shape" fill="url(#linearGradient-13)"></path>
                        <path d="M91.99992,37.7491001 C91.8595533,37.7497555 91.7215522,37.7129557 91.6001546,37.6424872 L59.4270359,19.0827126 L41.506886,24.9032967 C41.2916992,24.9716886 41.0576787,24.946546 40.8619312,24.8340041 L0.40034335,1.49303542 C0.0176506064,1.27225086 -0.113602499,0.783036094 0.107182063,0.40034335 C0.327966626,0.0176506064 0.817181389,-0.113602499 1.19987413,0.107182063 L41.35231,23.2722539 L59.27246,17.4516698 C59.4868355,17.3809924 59.721098,17.4042246 59.9174148,17.5156323 L92.3996854,36.2566338 C92.7136174,36.4373449 92.8668374,36.8065341 92.7731153,37.156429 C92.6793943,37.5063228 92.362148,37.7494943 91.99992,37.7491001 Z" id="Shape" fill="url(#linearGradient-14)" transform="translate(46.400207, 18.874550) scale(-1, 1) translate(-46.400207, -18.874550) "></path>
                    </g>
                    <g id="Group-4" transform="translate(71.200004, 0.000000)">
                        <g id="Group-11-Copy-3" transform="translate(4.200000, 46.800003)">
                            <path d="M68.3217794,75.5436597 C35.1475884,57.0486855 33.157949,56.4264553 -8.51641761e-15,37.9232938 L65.7799136,2.98074616e-14 C98.8810158,18.5932211 100.765082,19.3136982 133.858064,37.9069193 C112.012636,50.4606867 90.1672075,63.0062668 68.3217794,75.5436597 Z" id="Path" fill="#82A9FF"></path>
                            <polygon id="Path" fill="#B0C8FD" points="68.3259246 75.3922291 -8.51641761e-15 37.1091662 -8.51641761e-15 47.1017782 17.6398322 57.0614656 68.3259246 85.4836149 133.858064 47.6203404 133.858064 37.5783415"></polygon>
                            <polygon id="Path" fill="#6291FB" points="68.3922844 75.4575817 68.2543592 75.3838006 68.2543592 85.4016359 68.3922844 85.4836149 133.858064 47.7732693 133.858064 37.7718298"></polygon>
                            <path d="M68.263284,65.477068 C44.4115749,52.1681988 43.3112698,51.6180215 19.5000011,38.3500021 L66.4434689,11.1386461 C90.1981212,24.5128751 91.5164761,25.0275827 115.303481,38.4018116 L68.263284,65.477068 Z" id="Path" fill="#EEF0F3"></path>
                        </g>
                        <g id="Group" opacity="0.3" fill="url(#linearGradient-15)">
                            <polygon id="Shape" points="23.7000014 85.1500047 72.450004 112.450006 119.250007 85.1500047 141.350008 1.30000007 0.0992934614 0.491820563"></polygon>
                        </g>
                        <g id="Group" opacity="0.3" transform="translate(71.800004, 7.800000)" fill="url(#linearGradient-16)">
                            <polygon id="Shape" points="0.650000036 104.650006 0.650000036 32.7132662 67.6000037 -1.18234318e-12 47.5635876 77.3472506"></polygon>
                        </g>
                    </g>
                </g>
                <g id="Group-11-Copy-2" transform="translate(226.600012, 136.100008)" fill-rule="nonzero">
                    <path d="M36.2349423,40.0651179 C18.6407738,30.2561766 17.5855544,29.9261724 -4.51674273e-15,20.1128889 L34.8868456,1.58085996e-14 C52.4422509,9.86104723 53.4414791,10.2431574 70.9925774,20.1042046 C59.406699,26.7621846 47.8208206,33.4158223 36.2349423,40.0651179 Z" id="Path" fill="#799EF0"></path>
                    <polygon id="Path" fill="#B0C8FD" points="36.2371407 39.9848057 -4.51674273e-15 19.6811106 -4.51674273e-15 24.9807635 9.35541063 30.2629547 36.2371407 45.336844 70.9925774 25.2557867 70.9925774 19.9299411"></polygon>
                    <polygon id="Path" fill="#6291FB" points="36.2723351 40.0194659 36.1991855 39.9803355 36.1991855 45.2933658 36.2723351 45.336844 70.9925774 25.3368936 70.9925774 20.032559"></polygon>
                    <path d="M36.2039188,31.2789079 C23.553995,24.2204543 22.8204796,23.9648074 10.1920037,16.9280188 L35.2387669,2.46013882 C47.8372159,9.55325638 48.5364149,9.82623525 61.1520221,16.9193528 L36.2039188,31.2789079 Z" id="Path" fill="#82A9FF"></path>
                    <polygon id="Path" fill="#B0C8FD" points="36.2017294 31.3396397 10.1920037 16.8695233 10.1920037 20.6445239 16.9046061 24.4108959 36.2060186 35.1448403 61.1520221 20.8472953 61.1520221 17.0464091"></polygon>
                    <polygon id="Path" fill="#6291FB" points="36.254836 31.3024495 36.1991855 31.2719543 36.1991855 35.1143451 36.254836 35.1448403 61.1520221 20.7075577 61.1520221 16.8695233"></polygon>
                </g>
                <g id="Group-11-Copy-6" transform="translate(0.000000, 126.100007)" fill-rule="nonzero">
                    <path d="M39.8584374,44.0716307 C20.5048516,33.281795 19.3441103,32.9187904 -4.96841711e-15,22.1241783 L38.375531,1.73894599e-14 C57.6864773,10.8471522 58.7856283,11.2674734 78.0918368,22.1146256 C65.3473703,29.4384036 52.6029039,36.7574053 39.8584374,44.0716307 Z" id="Path" fill="#799EF0"></path>
                    <polygon id="Path" fill="#B0C8FD" points="39.8608557 43.9832872 -4.96841711e-15 21.6492221 -4.96841711e-15 27.4788405 10.2909519 33.2892509 39.8608557 49.8705295 78.0918368 27.781366 78.0918368 21.9229356"></polygon>
                    <polygon id="Path" fill="#6291FB" points="39.8995695 44.0214134 39.8191049 43.97837 39.8191049 49.8227035 39.8995695 49.8705295 78.0918368 27.8705836 78.0918368 22.0358153"></polygon>
                    <path d="M39.8243116,34.4067994 C25.9093951,26.6425003 25.1025281,26.3612887 11.2112043,18.6208211 L38.7626445,2.70615276 C52.6209387,10.5085823 53.3900575,10.808859 67.2672258,18.6112885 L39.8243116,34.4067994 Z" id="Path" fill="#82A9FF"></path>
                    <polygon id="Path" fill="#B0C8FD" points="39.8219032 34.4736045 11.2112043 18.5564761 11.2112043 22.7089768 18.5950671 26.851986 39.8266214 38.6593252 67.2672258 22.9320254 67.2672258 18.7510504"></polygon>
                    <polygon id="Path" fill="#6291FB" points="39.8803205 34.4326951 39.8191049 34.3991505 39.8191049 38.6257805 39.8803205 38.6593252 67.2672258 22.778314 67.2672258 18.5564761"></polygon>
                </g>
                <g id="Group-11-Copy-4" transform="translate(217.100012, 11.700001)" fill-rule="nonzero">
                    <path d="M29.2807594,32.3758506 C15.0632505,24.449434 14.210548,24.1827639 -3.64989287e-15,16.2528384 L28.1913885,1.2774625e-14 C42.3775736,7.96852247 43.1850306,8.27729832 57.3677353,16.2458208 C48.00541,21.6260062 38.6430847,27.0026828 29.2807594,32.3758506 Z" id="Path" fill="#799EF0"></path>
                    <polygon id="Path" fill="#B0C8FD" points="29.2825359 32.3109518 -3.64989287e-15 15.9039266 -3.64989287e-15 20.1864742 7.55992726 24.4549112 29.2825359 36.635831 57.3677353 20.4087151 57.3677353 16.1050018"></polygon>
                    <polygon id="Path" fill="#6291FB" points="29.3109758 32.3389601 29.251865 32.3073396 29.251865 36.6006971 29.3109758 36.635831 57.3677353 20.4742561 57.3677353 16.1879253"></polygon>
                    <path d="M29.2556899,25.2758834 C19.03353,19.5720829 18.4407903,19.3654996 8.235962,13.6792062 L28.4757693,1.98799083 C38.6563334,7.7198026 39.2213426,7.94039157 49.415772,13.6722033 L29.2556899,25.2758834 Z" id="Path" fill="#82A9FF"></path>
                    <polygon id="Path" fill="#B0C8FD" points="29.2539208 25.3249596 8.235962 13.6319371 8.235962 16.6824424 13.6602868 19.7259751 29.2573868 28.399869 49.415772 16.8462981 49.415772 13.7748751"></polygon>
                    <polygon id="Path" fill="#6291FB" points="29.2968352 25.2949069 29.251865 25.2702643 29.251865 28.3752264 29.2968352 28.399869 49.415772 16.7333788 49.415772 13.6319371"></polygon>
                </g>
                <g id="Group-11-Copy-5" transform="translate(10.100001, 13.100001)" fill-rule="nonzero">
                    <path d="M32.534178,35.9731683 C16.7369455,27.1660385 15.7894982,26.8697384 -4.05543662e-15,18.0587098 L31.3237658,1.41940282e-14 C47.0861941,8.85391408 47.9833686,9.19699838 63.7419298,18.0509125 C53.3393459,24.0288964 42.9367619,30.0029817 32.534178,35.9731683 Z" id="Path" fill="#799EF0"></path>
                    <polygon id="Path" fill="#B0C8FD" points="32.5361519 35.9010585 -4.05543662e-15 17.6710301 -4.05543662e-15 22.4294163 8.3999194 27.1721242 32.5361519 40.7064799 63.7419298 22.6763507 63.7419298 17.8944469"></polygon>
                    <polygon id="Path" fill="#6291FB" points="32.5677518 35.9321788 32.5020731 35.897045 32.5020731 40.6674423 32.5677518 40.7064799 63.7419298 22.749174 63.7419298 17.9865842"></polygon>
                    <path d="M32.506323,28.0843156 C21.1483673,21.7467594 20.4897676,21.5172223 9.15106913,15.1991184 L31.6397445,2.20887876 C42.9514827,8.57755868 43.5792707,8.82265754 54.9064148,15.1913375 L32.506323,28.0843156 Z" id="Path" fill="#82A9FF"></path>
                    <polygon id="Path" fill="#B0C8FD" points="32.5043573 28.1388448 9.15106913 15.1465972 9.15106913 18.5360476 15.1780968 21.9177507 32.5082084 31.5554108 54.9064148 18.7181095 54.9064148 15.3054171"></polygon>
                    <polygon id="Path" fill="#6291FB" points="32.5520399 28.1054529 32.5020731 28.0780722 32.5020731 31.5280302 32.5520399 31.5554108 54.9064148 18.5926436 54.9064148 15.1465972"></polygon>
                </g>
            </g>
        </g>
    </g>
</svg>