<?xml version="1.0" encoding="UTF-8"?>
<svg width="318px" height="341px" viewBox="0 0 318 341" version="1.1" xmlns="http://www.w3.org/2000/svg" xmlns:xlink="http://www.w3.org/1999/xlink">
    <!-- Generator: Sketch 63.1 (92452) - https://sketch.com -->
    <title>illustration-research</title>
    <desc>Created with Sketch.</desc>
    <defs>
        <linearGradient x1="23.7219259%" y1="24.6689779%" x2="76.2780741%" y2="75.335199%" id="linearGradient-1">
            <stop stop-color="#CFD8DB" offset="0%"></stop>
            <stop stop-color="#CFD8DB" offset="100%"></stop>
        </linearGradient>
        <linearGradient x1="50%" y1="100%" x2="50%" y2="0%" id="linearGradient-2">
            <stop stop-color="#004FFF" offset="0%"></stop>
            <stop stop-color="#FFFFFF" stop-opacity="0" offset="100%"></stop>
        </linearGradient>
        <linearGradient x1="50.0034846%" y1="100%" x2="50.0034846%" y2="25.4750845%" id="linearGradient-3">
            <stop stop-color="#004FFF" offset="0%"></stop>
            <stop stop-color="#FFFFFF" stop-opacity="0" offset="100%"></stop>
        </linearGradient>
    </defs>
    <g id="Services" stroke="none" stroke-width="1" fill="none" fill-rule="evenodd">
        <g id="Service_desktop-Development-Team" transform="translate(-882.000000, -1475.000000)">
            <g id="project-research" transform="translate(128.000000, 1421.000000)">
                <g id="illustration-research" transform="translate(686.000000, 0.000000)">
                    <g id="Group-17" transform="translate(68.000000, 54.000000)">
                        <g id="Group-14-Copy" transform="translate(0.000000, 57.903600)">
                            <g id="Group-11" transform="translate(0.000000, 80.577597)" fill-rule="nonzero">
                                <path d="M161.840947,178.948171 C83.2577701,135.13719 78.5447031,133.663248 -2.01737295e-14,89.8328738 L155.819764,7.06080531e-14 C234.229808,44.0437082 238.692794,45.7503777 317.083601,89.7940859 C265.33605,119.531508 213.588498,149.249536 161.840947,178.948171 Z" id="Path" fill="#F9F9F9"></path>
                                <polygon id="Path" fill="#EDEFF1" points="161.850766 178.589461 -2.01737295e-14 87.9043646 -2.01737295e-14 111.57491 41.7853161 135.167464 161.850766 202.493983 317.083601 112.803283 317.083601 89.0157493"></polygon>
                                <polygon id="Path" fill="#CFD8DB" points="162.00796 178.744269 161.681242 178.569496 161.681242 202.29979 162.00796 202.493983 317.083601 113.165541 317.083601 89.4740853"></polygon>
                                <path d="M161.702383,139.705151 C105.202344,108.17904 101.926147,107.03721 45.5219031,75.6078643 L157.391597,10.9880456 C213.661727,42.668981 216.784652,43.8882228 273.131418,75.5691582 L161.702383,139.705151 Z" id="Path" fill="#FCFCFC"></path>
                                <polygon id="Path" fill="#EDEFF1" points="161.692604 139.976406 45.5219031 75.3465982 45.5219031 92.2073858 75.5032928 109.029634 161.711762 156.97208 273.131418 93.1130509 273.131418 76.1366465"></polygon>
                                <polygon id="Path" fill="#CFD8DB" points="161.929801 139.810298 161.681242 139.674093 161.681242 156.835875 161.929801 156.97208 273.131418 92.4889222 273.131418 75.3465982"></polygon>
                            </g>
                            <g id="Group-5" transform="translate(77.958400, 0.000000)">
                                <polygon id="Shape" stroke="#FFFFFF" stroke-width="0.934019209" fill="#F7F7F7" fill-rule="nonzero" stroke-linecap="round" stroke-linejoin="round" points="84.6756641 99.910596 0.0264386512 51.0380417 87.9970364 0.249814099 172.646262 49.1158302"></polygon>
                                <polygon id="Shape" fill="#EDEFF1" fill-rule="nonzero" points="0.0264386512 51.1601531 0.0264386512 154.842196 84.6756641 203.708213 84.6756641 98.7327073"></polygon>
                                <polygon id="Shape" fill="url(#linearGradient-1)" fill-rule="nonzero" points="84.6756641 98.7327073 172.646262 47.9379415 172.646262 152.919985 84.6756641 203.708213"></polygon>
                                <polygon id="Shape" fill="#6D9BFF" fill-rule="nonzero" opacity="0.4" points="85.1594861 86.2916622 25.2701754 51.7114696 87.5132144 15.7778832 147.402525 50.3580758"></polygon>
                                <polygon id="Shape" fill="#DBDEE2" fill-rule="nonzero" points="147.402525 50.3580758 87.5132144 15.7778832 87.3105323 24.6844719 139.208593 54.8702133"></polygon>
                                <polygon id="Shape" fill="#E7E9EB" fill-rule="nonzero" points="87.5132144 15.7778832 25.2701754 51.7114696 33.2614253 56.1124589 87.3105323 24.6844719"></polygon>
                                <polygon id="Path-7" fill="#BCCFD5" points="114.397401 115.841408 114.397401 152.392209 144.918801 134.647209 144.918801 98.0964084"></polygon>
                                <polygon id="Path-7-Copy-5" fill="#BCCFD5" points="84.5858004 169.302597 84.5858004 203.372998 114.397401 187.047597 114.397401 152.977197"></polygon>
                                <polygon id="Path-7-Copy-2" fill="#D3DEE1" points="114.397401 81.287397 114.397401 115.357797 144.918801 97.6127971 144.918801 63.5423969"></polygon>
                                <polygon id="Path-7-Copy-4" fill="#D3DEE1" points="84.5858004 133.102797 84.5858004 170.012397 114.397401 152.977197 114.397401 116.067597"></polygon>
                                <polygon id="Path-7-Copy-6" fill="#D3DEE1" points="115.107201 151.557597 115.107201 186.337797 144.918801 169.302597 144.918801 134.522397"></polygon>
                                <polygon id="Path-7-Copy" fill="#BCCFD5" points="144.918801 64.2521969 144.918801 98.3225971 172.601001 81.997197 172.601001 47.9267968"></polygon>
                                <polygon id="Path-7-Copy-3" fill="#BCCFD5" points="144.918801 98.3225971 144.918801 135.232197 172.601001 118.906797 172.601001 81.997197"></polygon>
                                <polygon id="Path-8" fill="#E7EEF0" points="24.9626001 64.2521969 24.9626001 99.0323971 54.7742002 116.067597 54.7742002 81.287397"></polygon>
                                <polygon id="Path-8-Copy-4" fill="#E3EAEC" points="24.9626001 134.522397 24.9626001 169.302597 54.7742002 186.337797 54.7742002 151.557597"></polygon>
                                <polygon id="Path-8-Copy-2" fill="#E3EAEC" points="0.119599936 50.6463969 0.119599936 84.126597 25.6724001 99.0323971 25.6724001 65.552197"></polygon>
                                <polygon id="Path-8-Copy-3" fill="#DCE7EB" points="0.119599936 84.836397 0.119599936 119.616597 25.6724001 134.522397 25.6724001 99.7421971"></polygon>
                                <polygon id="Path-8-Copy" fill="#E7EEF0" points="54.7742002 116.296409 54.7742002 151.66681 84.5858004 168.70201 84.5858004 133.331609"></polygon>
                                <line x1="55.2916069" y1="81.8464075" x2="54.8225427" y2="186.873138" id="Shape" stroke="#F4F5F6" stroke-width="0.934019209"></line>
                                <line x1="24.9626001" y1="64.181536" x2="25.2701754" y2="176.471518" id="Shape" stroke="#F4F5F6" stroke-width="0.934019209"></line>
                                <polyline id="Shape" stroke="#E2E7E9" stroke-width="0.934019209" points="144.53344 64.2757854 144.27994 64.4318143 144.27994 169.575791 144.53344 169.419762"></polyline>
                                <line x1="115.09161" y1="80.5464074" x2="114.966841" y2="186.610991" id="Shape" stroke="#E2E7E9" stroke-width="0.934019209"></line>
                                <line x1="0.0264386512" y1="84.35457" x2="84.6756641" y2="133.227124" id="Shape" stroke="#F4F5F6" stroke-width="0.934019209"></line>
                                <line x1="0.0983581291" y1="119.869716" x2="84.7475836" y2="168.74227" id="Shape" stroke="#F4F5F6" stroke-width="0.934019209"></line>
                                <line x1="171.757076" y1="82.5761975" x2="84.6298972" y2="132.874065" id="Shape" stroke="#E2E7E9" stroke-width="0.934019209"></line>
                                <line x1="172.620109" y1="118.620932" x2="84.6756641" y2="169.396084" id="Shape" stroke="#E2E7E9" stroke-width="0.934019209"></line>
                            </g>
                        </g>
                        <g id="Group-16" transform="translate(78.078000, 179.649597)" stroke="#7DA3FF" stroke-linecap="round" stroke-linejoin="round" stroke-width="1.96144031">
                            <line x1="57.862489" y1="66.1659196" x2="84.9434415" y2="81.7985989" id="Shape"></line>
                            <line x1="0.653813435" y1="32.6972099" x2="27.250944" y2="48.0487494" id="Shape"></line>
                            <line x1="112.442835" y1="65.649407" x2="85.845704" y2="81.0074846" id="Shape"></line>
                            <line x1="173.36517" y1="30.6376976" x2="146.774578" y2="45.989237" id="Shape"></line>
                            <line x1="173.273637" y1="-6.80863369e-14" x2="173.273637" y2="30.7030789" id="Shape"></line>
                            <line x1="85.3945728" y1="50.6051599" x2="85.3945728" y2="81.3082388" id="Shape"></line>
                            <line x1="0.653813435" y1="1.73914374" x2="0.653813435" y2="32.4487608" id="Shape"></line>
                        </g>
                        <g id="Group-15" transform="translate(78.078000, 58.203600)" stroke-linecap="round" stroke-linejoin="round" stroke-width="1.96144031">
                            <line x1="57.7317263" y1="83.2892935" x2="84.3288569" y2="98.640833" id="Shape" stroke="#7DA3FF"></line>
                            <line x1="88.27789" y1="-2.7738878e-14" x2="114.875021" y2="15.3515395" id="Shape" stroke="#A1BCFF"></line>
                            <line x1="145.205426" y1="32.8672014" x2="171.796018" y2="48.2187408" id="Shape" stroke="#7DA3FF"></line>
                            <line x1="0.653813435" y1="51.3701216" x2="27.250944" y2="66.7216611" id="Shape" stroke="#7DA3FF"></line>
                            <line x1="111.789021" y1="83.2892935" x2="85.1918906" y2="98.640833" id="Shape" stroke="#7DA3FF"></line>
                            <line x1="88.3628858" y1="-2.7738878e-14" x2="61.7722934" y2="15.3515395" id="Shape" stroke="#A1BCFF"></line>
                            <line x1="171.874476" y1="48.7940967" x2="145.283883" y2="64.1521743" id="Shape" stroke="#7DA3FF"></line>
                            <line x1="27.250944" y1="35.6655229" x2="0.653813435" y2="51.0170623" id="Shape" stroke="#7DA3FF"></line>
                            <line x1="84.7407593" y1="99.275032" x2="84.7407593" y2="129.984649" id="Shape" stroke="#7DA3FF"></line>
                            <line x1="0.653813435" y1="51.7754859" x2="0.653813435" y2="82.485103" id="Shape" stroke="#7DA3FF"></line>
                            <line x1="171.96601" y1="48.4475755" x2="171.96601" y2="79.1571926" id="Shape" stroke="#7DA3FF"></line>
                        </g>
                        <g id="Group" opacity="0.3" transform="translate(70.980000, 0.000000)" fill="url(#linearGradient-2)" fill-rule="nonzero">
                            <polygon id="Shape" points="30.8639497 108.965987 92.6714867 143.953091 154.026601 108.477289 181.504077 2.40009809 0.486798921 -8.77601154e-13"></polygon>
                        </g>
                        <g id="Group" opacity="0.3" transform="translate(163.254001, 9.937200)" fill="url(#linearGradient-3)" fill-rule="nonzero">
                            <polygon id="Shape" points="0.532137063 133.444291 0.532137063 40.8524425 88.7844796 0.657483115 61.7526003 98.5400892"></polygon>
                        </g>
                    </g>
                    <g id="1" transform="translate(265.000000, 222.000000)" fill="#FFFFFF" fill-rule="nonzero">
                        <path d="M11.1288037,24.7967997 L9.81433715,25.5553456 C8.75114484,26.1693616 7.88632693,25.6762595 7.88632693,24.4562569 L7.88632693,23.9466237 C7.45500617,24.0399669 7.0145529,24.0844875 6.57327735,24.0793456 L6.25823991,24.6229859 C5.4949708,25.9402864 4.27449594,26.6204272 3.53153659,26.1967561 L2.60248316,25.66823 C1.85999613,25.245976 1.83874173,23.8559382 2.60248316,22.5391101 L2.9175206,21.9959421 C2.6912801,21.6204844 2.50842209,21.2205419 2.37246333,20.8038064 L1.92801021,21.0607485 C0.864817908,21.6742922 0,21.1811901 0,19.9616599 L0,18.4530698 C0,17.2335396 0.864817908,15.7414807 1.92801021,15.1279371 L2.37246333,14.870995 C2.52130337,14.2545567 2.70325292,13.6465866 2.9175206,13.0497291 L2.60248316,12.8702475 C1.83874173,12.4357131 1.85999613,11.0211147 2.60248316,9.74112755 L3.53153659,8.13854581 C4.27449594,6.85619703 5.49686008,6.12929656 6.25871223,6.56477559 L6.57327735,6.74425719 C6.98628565,6.25985769 7.42507631,5.79804747 7.88774389,5.36083193 L7.88774389,4.85072633 C7.88774389,3.63072379 8.7525618,2.13866493 9.81575411,1.52512126 L11.1302206,0.76610303 C12.1929406,0.152087038 13.0582309,0.645661431 13.0582309,1.86566397 L13.0582309,2.37576957 C13.4893887,2.28240621 13.9296878,2.23788514 14.3708081,2.24304765 L14.6844286,1.70035198 C15.4476977,0.382106875 16.6728958,-0.298033916 17.4116042,0.125637118 L18.3406577,0.655107831 C19.0826724,1.07736191 19.1043991,2.46739965 18.3406577,3.78422779 L18.0256202,4.32739578 C18.2520602,4.70274817 18.4349289,5.10271397 18.5706775,5.51953144 L19.0156029,5.26258937 C20.0783229,4.64857338 20.9431408,5.14214777 20.9431408,6.36167799 L20.9431408,7.87026805 C20.9431408,9.08979828 20.0783229,10.5818571 19.0156029,11.1954008 L18.5706775,11.4523429 C18.4218672,12.0683752 18.2397566,12.6758836 18.0251479,13.2721918 L18.3406577,13.4521457 C19.1039268,13.8862078 19.0831447,15.3012785 18.3406577,16.5812657 L17.4111319,18.1843198 C16.6681726,19.4666685 15.4462807,20.193569 14.6844286,19.75809 L14.3693912,19.5786084 C13.9568739,20.0628496 13.5187208,20.5246526 13.0568139,20.9620336 L13.0568139,21.4721392 C13.0568139,22.6926141 12.1915237,24.1827837 11.1288037,24.7967997 Z M6.77873655,22.4824317 C7.36441334,22.541944 7.99543285,22.4781808 8.6533746,22.2935037 C8.92401396,22.2174602 9.11341428,22.3879677 9.11341428,22.7096176 L9.11341428,23.7487216 C9.11341428,24.1922301 9.42797939,24.3712393 9.81433715,24.1483043 L11.1288037,23.3892861 C11.5151614,23.166351 11.8297266,22.6241277 11.8297266,22.1806192 L11.8297266,21.1415152 C11.8297266,20.8203376 12.0186546,20.4306736 12.2897662,20.1940413 C12.9726161,19.5931775 13.6000243,18.9320988 14.1644043,18.2187991 C14.4057598,17.916042 14.7127678,17.7833201 14.9106699,17.8962046 L15.5525527,18.2622525 C15.8288599,18.4200074 16.2733131,18.1564529 16.5444247,17.690273 L17.4744228,16.0843851 C17.7436452,15.6205668 17.7526193,15.1052657 17.4744228,14.9475108 L16.8325399,14.5814628 C16.6346379,14.4685784 16.5963799,14.1384267 16.7380759,13.7785189 C17.075433,12.9370641 17.3359564,12.0668085 17.5164593,11.1783973 C17.5863626,10.8269912 17.8305521,10.4699173 18.1106378,10.3069669 L19.0165476,9.78410867 C19.4029053,9.56117363 19.7174705,9.01847796 19.7174705,8.5754418 L19.7174705,7.07015798 C19.7174705,6.62664951 19.4029053,6.44764023 19.0165476,6.67057527 L18.1106378,7.19390582 C17.8305521,7.35543926 17.5863626,7.27892342 17.5164593,7.00875638 C17.3464241,6.35175927 17.0847588,5.7807244 16.7380759,5.30840441 C16.5963799,5.11428089 16.6346379,4.74162042 16.8325399,4.39777146 L17.4744228,3.29112571 C17.7516746,2.81313788 17.7445898,2.30728317 17.4744228,2.15377917 L16.5434801,1.62194686 C16.2742577,1.46797054 15.8298046,1.71641086 15.5516081,2.19392637 L14.9106699,3.30104443 C14.7127678,3.64300411 14.4057598,3.86452219 14.1644043,3.83996155 C13.5782552,3.78092155 12.947708,3.84468475 12.2897662,4.02888954 C12.0186546,4.10540538 11.8297266,3.93442555 11.8297266,3.61324795 L11.8297266,2.57414396 C11.8297266,2.13110781 11.5151614,1.95162621 11.1288037,2.17503357 L9.81433715,2.93310716 C9.42797939,3.15651452 9.11577588,3.69873787 9.11577588,4.14177402 L9.11577588,5.18087801 C9.11577588,5.5020556 8.92684788,5.889358 8.6557362,6.12835192 C7.97276373,6.72926028 7.34534584,7.3905072 6.78109815,8.10406645 C6.53974263,8.40682356 6.23273463,8.53954548 6.03483256,8.426661 L5.39294969,8.06061301 C5.11617017,7.90238581 4.67218938,8.16641269 4.4010777,8.6321202 L3.47013499,10.2361189 C3.2009126,10.7004095 3.19193852,11.2152382 3.47013499,11.3734654 L4.11249018,11.7395134 C4.31039226,11.8523979 4.34865018,12.1820773 4.20695418,12.5424574 C3.86980413,13.3841059 3.6094406,14.2545137 3.42904315,15.1430513 C3.35819515,15.4920958 3.1135334,15.851059 2.83391996,16.0116478 L1.92801021,16.535923 C1.54165246,16.758858 1.22803198,17.3010814 1.22803198,17.7445898 L1.22803198,19.2531799 C1.22803198,19.6962161 1.5425971,19.8756976 1.92895485,19.6522903 L2.83391996,19.1289597 C3.1135334,18.9674263 3.35819515,19.0434698 3.42809851,19.3141092 C3.59766139,19.9711063 3.85979899,20.5421412 4.20600954,21.0144612 C4.34770554,21.209057 4.30991994,21.5836067 4.11154554,21.9250941 L3.47013499,23.0341014 C3.19288316,23.5120893 3.19996796,24.017944 3.47013499,24.171448 L4.39918842,24.7023357 C4.66888314,24.856312 5.11333625,24.6078717 5.39106041,24.1303561 L6.0334156,23.0232381 C6.17936248,22.7714915 6.48259191,22.4540925 6.77968119,22.4838487 L6.77873655,22.4824317 Z" id="Shape"></path>
                        <path d="M10.4713343,18.3902513 C7.95906421,19.8412183 5.91486328,18.6736433 5.91486328,15.7924913 C5.91486328,12.9113393 7.95906421,9.38358131 10.4713343,7.93497589 C12.9836043,6.48637047 15.0282776,7.6515839 15.0282776,10.5327359 C15.0282776,13.4138878 12.9840766,16.9397566 10.4713343,18.3902513 Z M10.4713343,9.34107251 C8.63542644,10.4009586 7.14195062,12.9779365 7.14195062,15.0840113 C7.14195062,17.1900862 8.63542644,18.0426238 10.4713343,16.9822654 C12.3072421,15.921907 13.8011902,13.3454014 13.8011902,11.2393266 C13.8011902,9.13325171 12.3072421,8.28071413 10.4713343,9.34107251 Z" id="Shape"></path>
                    </g>
                    <g id="2" transform="translate(297.000000, 241.000000)" fill="#FFFFFF" fill-rule="nonzero">
                        <path d="M15.6527998,0.157949998 C14.7019498,-0.382049996 13.1624998,0.506699994 12.2116499,2.14469998 L11.3503499,3.63554996 L2.18159997,19.4444998 L2.16224997,19.4786998 C2.15774997,19.4867998 2.15774997,19.4921998 2.15234998,19.4953498 C2.14289998,19.5178498 2.12804998,19.5403498 2.11859998,19.5650998 C2.11859998,19.5704998 2.11364998,19.5736498 2.11364998,19.5790498 C2.10374998,19.6015498 2.09924998,19.6154998 2.08934998,19.6379998 C2.08439998,19.6460998 2.08439998,19.6514998 2.07944998,19.6600498 C2.07494998,19.6798498 2.06999998,19.6937998 2.06504998,19.7135998 C2.06504998,19.7189998 2.06009998,19.7216998 2.06009998,19.7275498 L0.0260999997,27.9211497 C-0.0337499996,28.1555997 0.0116999999,28.3499997 0.142649998,28.4233497 C0.234899997,28.4746497 0.359099996,28.4611497 0.488249994,28.3859997 C0.544104559,28.3522149 0.596286371,28.3127015 0.643949993,28.2680997 L6.75629992,22.3991997 C6.76124992,22.3964997 6.76124992,22.3964997 6.76619992,22.3879497 C6.78257757,22.3734082 6.7976363,22.357446 6.81119992,22.3402497 C6.81527087,22.3374409 6.81865503,22.3337491 6.82109992,22.3294497 C6.83549992,22.3096497 6.85529992,22.2871497 6.86969992,22.2673497 C6.88409992,22.2475497 6.89894992,22.2223497 6.91469992,22.2034497 C6.91964992,22.1944497 6.92459992,22.1917497 6.92459992,22.1863497 C6.932468,22.1759744 6.93897118,22.1646316 6.94394992,22.1525997 L16.9712998,4.85234994 C17.9203498,3.21389996 17.9203498,1.44719998 16.9712998,0.90449999 L15.6527998,0.157949998 Z M6.60059992,21.1765498 L3.21344996,19.2455998 L11.6909999,4.62329995 L15.0781498,6.55424992 L6.60059992,21.1765498 Z M2.73644997,20.5541998 L5.69564993,22.2412497 L1.25234999,26.5049997 L2.73644997,20.5541998 Z M16.2854998,4.46669995 L15.7693498,5.36219994 L12.3821999,3.43079996 L12.9032999,2.53079997 C13.4729998,1.54889998 14.3963998,1.01564999 14.9665498,1.33964998 L16.2899998,2.09609998 C16.8556498,2.42639997 16.8533998,3.48524996 16.2854998,4.46669995 Z" id="Shape"></path>
                    </g>
                    <g id="3" transform="translate(296.000000, 173.000000)" fill="#FFFFFF" fill-rule="nonzero">
                        <path d="M17.7452019,5.27444419 C17.7452019,4.79026584 17.5216678,4.47854056 17.1457638,4.43968405 L16.1577605,4.34319765 C16.538467,3.86294861 16.8776975,3.43683674 17.146637,3.09760628 C17.5216678,2.62434269 17.7452019,2.05415611 17.7452019,1.57216071 C17.7452019,1.09016531 17.5216678,0.777566849 17.146637,0.736963976 C15.9115238,0.605986966 11.7233156,0.169396933 9.6586813,0.00305613023 C9.18061521,-0.0358003827 8.60082365,0.287276242 8.08259128,0.916839069 C8.08259128,0.916839069 2.46804346,7.94288247 0.599438115,10.2913003 C0.223534097,10.7628175 0,11.3330041 0,11.8171824 C0,12.3013608 0.223534097,12.6113397 0.598564935,12.6523792 L1.58744136,12.7554144 L0.599438115,13.9927106 C0.223534097,14.4655376 0,15.0357241 0,15.5199025 C0,16.0040808 0.223534097,16.3140598 0.598564935,16.3546626 L1.58744136,16.4594442 L0.599438115,17.6954306 C0.223534097,18.167821 0,18.7384442 0,19.222186 C0,19.7059277 0.223534097,20.0163432 0.598564935,20.0573827 C2.19692105,20.2250333 6.12535816,20.633245 8.08652059,20.7912906 C8.32664511,20.8105005 8.59951388,20.7367168 8.87238265,20.5791078 C9.17420121,20.3953972 9.44041551,20.1587623 9.65824471,19.8805637 C11.6189705,17.4587988 15.5474077,12.5148533 17.1453272,10.5008635 C17.520358,10.0275999 17.7443287,9.4574133 17.7443287,8.9754179 C17.7443287,8.4934225 17.520358,8.17907768 17.1448906,8.14022117 L16.1564508,8.04373477 L17.1453272,6.79857999 C17.5216678,6.32706276 17.7452019,5.75687618 17.7452019,5.27444419 Z M1.01157911,11.6194071 C0.950019912,11.6124217 0.806381791,11.5731286 0.806381791,11.352214 C0.806381791,11.1312995 0.949146732,10.9269753 1.01070593,10.8501355 C2.87669173,8.50433725 8.48338093,1.48877201 8.48294434,1.48964519 C8.73965928,1.17530037 9.01995008,1.01987432 9.25789165,1.03864769 C11.3168502,1.2045519 15.5011291,1.64114193 16.7340594,1.77124576 C16.7956186,1.7782312 16.9388201,1.81752431 16.9388201,2.03843886 C16.9388201,2.25935342 16.7956186,2.46411415 16.7340594,2.54182717 C15.1378862,4.55232427 11.2146882,9.49059414 9.25876483,11.9062468 C9.01602077,12.205311 8.72874453,12.3707786 8.48731024,12.3520052 C6.5309503,12.1948328 2.60731568,11.7879309 1.01157911,11.6194071 Z M16.7349326,9.17450295 C16.7960552,9.18061521 16.9388201,9.21816196 16.9388201,9.44125946 C16.9388201,9.66435697 16.7956186,9.86693475 16.7340594,9.94464777 C15.1378862,11.9568912 11.2146882,16.8960343 9.25876483,19.3108138 C9.01602077,19.6098779 8.72874453,19.7757821 8.48731024,19.7565722 C6.5309503,19.5993998 2.60731568,19.1916247 1.01157911,19.0244107 C0.950019912,19.0169887 0.806381791,18.9781321 0.806381791,18.756781 C0.806381791,18.5354299 0.949146732,18.3315423 1.01070593,18.2547025 L2.37941568,16.5402134 C4.22924765,16.7301301 6.66978593,16.9746205 8.08652059,17.0885705 C8.32664511,17.108217 8.59951388,17.0344333 8.87238265,16.8768243 C9.17420121,16.6931138 9.44041551,16.4564788 9.65824471,16.1782803 C11.0758525,14.4306104 13.5159542,11.3688045 15.3679692,9.04221617 L16.7349326,9.17450295 Z M16.7349326,6.24236429 C15.1387594,8.25067844 11.2155614,13.1915678 9.25963801,15.6067839 C9.01689395,15.9058481 8.72961771,16.0713157 8.48818342,16.0525423 C6.53182348,15.8953699 2.60818886,15.4875948 1.01245229,15.3199443 C0.950893092,15.3129588 0.807254971,15.2736657 0.807254971,15.0527512 C0.807254971,14.8318366 0.950019912,14.6275125 1.01157911,14.5506726 L2.37941568,12.8379299 C4.22924765,13.0278466 6.66978593,13.272337 8.08652059,13.386287 C8.32664511,13.4059336 8.59951388,13.3321498 8.87238265,13.1745408 C9.17420121,12.9908303 9.44041551,12.7541954 9.65824471,12.4759968 C11.0758525,10.7283269 13.5159542,7.66652098 15.3679692,5.33993269 L16.7366789,5.47396583 C16.7978015,5.48007809 16.9405665,5.51762484 16.9405665,5.74072234 C16.9405665,5.96381985 16.7956186,6.16639763 16.7340594,6.24323747 L16.7349326,6.24236429 Z" id="Shape"></path>
                    </g>
                    <g id="4" transform="translate(150.000000, 204.000000)" fill="#FFFFFF" fill-rule="nonzero">
                        <path d="M16.2189997,9.16299984 L0.454999992,0.0629999989 C0.202999997,-0.0839999986 0,0.0349999994 0,0.321999995 L0,21.1889996 C0.0167437445,21.5083028 0.18606546,21.8000572 0.454999992,21.9729996 L16.2189997,31.0729995 C16.4639997,31.2199995 16.6739997,31.0729995 16.6739997,30.8139995 L16.6739997,9.94699983 C16.6528621,9.62902035 16.4846052,9.33910068 16.2189997,9.16299984 L16.2189997,9.16299984 Z M15.7639997,9.93999983 L15.7639997,29.7709995 L0.909999985,21.1959996 L0.909999985,1.39999998 L15.7639997,9.93999983 Z" id="Rectangle"></path>
                        <polygon id="Path-3" points="16.2189997 11.5989998 16.2189997 12.6419998 0.454999992 3.54199994 0.454999992 2.49899996"></polygon>
                        <path d="M13.7899998,12.6349998 L8.33699986,9.48499984 C8.08499986,9.33799984 7.88199987,9.44999984 7.88199987,9.74399983 L7.88199987,16.6949997 C7.88958083,17.0225169 8.06031488,17.3245848 8.33699986,17.4999997 L13.7899998,20.6499996 C14.0419998,20.7969996 14.2449998,20.6849996 14.2449998,20.3909997 L14.2449998,13.4189998 C14.2305721,13.0990123 14.0606775,12.8062707 13.7899998,12.6349998 Z M13.3349998,13.4119998 L13.3349998,19.3269997 L8.79199985,16.7019997 L8.79199985,10.7869998 L13.3349998,13.4119998 Z" id="Rectangle-2"></path>
                        <path d="M6.51699989,18.1999997 L2.27499996,15.7499997 C2.02299997,15.6029997 1.81999997,15.7499997 1.81999997,16.0089997 L1.81999997,19.5089997 C1.83787115,19.8279664 2.00691688,20.1192452 2.27499996,20.2929997 L6.51699989,22.7429996 C6.76899988,22.8829996 6.97199988,22.7429996 6.97199988,22.4839996 L6.97199988,18.9839997 C6.9541287,18.665033 6.78508297,18.3737542 6.51699989,18.1999997 Z M6.0619999,18.9769997 L6.0619999,21.4129996 L2.72999995,19.4599997 L2.72999995,17.0239997 L6.0619999,18.9769997 Z" id="Rectangle-Copy-3"></path>
                        <path d="M13.7899998,22.0219996 C14.0580828,22.1957541 14.2271286,22.4870329 14.2449998,22.8059996 C14.2449998,23.0719996 14.0769998,23.1909996 13.8529998,23.0999996 L13.7899998,23.0999996 L8.33699986,19.9499997 C8.06891678,19.7762452 7.89987105,19.4849664 7.88199987,19.1659997 C7.88199987,18.8999997 8.04999986,18.7809997 8.27399986,18.8789997 L8.33699986,18.8789997 L13.7899998,22.0219996 Z" id="Path-4-Copy-5"></path>
                        <path d="M6.51699989,8.77799985 C6.79578113,8.94537251 6.9758937,9.23772915 6.99999988,9.56199984 C6.99999988,9.82799983 6.82499988,9.94699983 6.60799989,9.85599983 L6.51699989,9.79999983 L2.27499996,7.34999987 C2.01179561,7.18136004 1.84325428,6.89872919 1.81999997,6.58699989 C1.81999997,6.32799989 1.98799997,6.20199989 2.21199996,6.29999989 L2.27499996,6.29999989 L6.51699989,8.77799985 Z" id="Path-4-Copy"></path>
                        <path d="M6.51699989,12.9499998 C6.79685533,13.1196302 6.97694598,13.4145613 6.99999988,13.7409998 C6.99999988,13.9999998 6.82499988,14.1189998 6.60799989,14.0279998 L6.54499989,14.0279998 L2.27499996,11.5499998 C2.00691688,11.3762453 1.83787115,11.0849665 1.81999997,10.7659998 C1.81999997,10.4999998 1.98799997,10.3809998 2.21199996,10.4719998 L2.27499996,10.4719998 L6.51699989,12.9499998 Z" id="Path-4-Copy-3"></path>
                        <path d="M6.51699989,10.8639998 C6.79578113,11.0313725 6.9758937,11.3237291 6.99999988,11.6479998 C6.99999988,11.9139998 6.82499988,12.0329998 6.60799989,11.9419998 L6.54499989,11.9419998 L2.30299996,9.49199984 C2.03232225,9.3207289 1.8624276,9.02798736 1.84799997,8.70799985 C1.84799997,8.44899986 2.01599997,8.32999986 2.23999996,8.42099986 L2.30299996,8.42099986 L6.51699989,10.8639998 Z" id="Path-4-Copy-2"></path>
                        <path d="M13.7899998,24.1079996 C14.0580828,24.2817541 14.2271286,24.5730329 14.2449998,24.8919996 C14.2449998,25.1579996 14.0769998,25.2769996 13.8529998,25.1859996 L13.7899998,25.1859996 L8.33699986,22.0359996 C8.06806533,21.8630572 7.89874361,21.5713028 7.88199987,21.2519996 C7.88199987,20.9929996 8.04999986,20.8669996 8.27399986,20.9649996 L8.33699986,20.9649996 L13.7899998,24.1079996 Z" id="Path-4-Copy-6"></path>
                        <path d="M13.7899998,26.1939996 C14.0580828,26.367754 14.2271286,26.6590328 14.2449998,26.9779995 C14.2449998,27.2439995 14.0769998,27.3629995 13.8529998,27.2719995 L13.7899998,27.2369995 L8.33699986,24.0869996 C8.06632215,23.9157286 7.8964275,23.6229871 7.88199987,23.3029996 C7.88199987,23.0439996 8.04999986,22.9249996 8.27399986,23.0159996 L8.33699986,23.0159996 L13.7899998,26.1939996 Z" id="Path-4-Copy-7"></path>
                    </g>
                    <g id="5" transform="translate(175.000000, 261.000000)" fill="#FFFFFF" fill-rule="nonzero">
                        <path d="M4.9904644,0.691200055 C5.23929642,0.580608046 5.61945645,0.829440066 5.84064046,1.2372481 C6.06182448,1.64505613 6.03417648,2.00448016 5.84064046,2.14963217 L5.78534446,2.14963217 L1.50681612,4.02969632 L5.77843246,10.7896329 C6.00379207,11.0595867 6.04469098,11.4385832 5.88211247,11.7504009 L5.84064046,11.7918729 C5.64019245,11.9370249 5.30150442,11.7918729 5.0526724,11.4531849 L4.9904644,11.3633289 L0.207360016,3.7946883 C-0.0483840038,3.39379227 -0.0691200055,2.94451223 0.152064012,2.76480022 L0.207360016,2.76480022 L4.9904644,0.691200055 Z" id="Path-4"></path>
                        <path d="M16.5888013,18.0403214 C16.3399693,18.1509134 15.9667213,17.9020814 15.7455373,17.4873614 C15.5243532,17.0726414 15.5520012,16.7270413 15.7455373,16.5818893 L15.7939213,16.5818893 L20.0448016,14.7294732 L15.7662733,7.96953663 C15.5444209,7.69810422 15.5037567,7.3212825 15.6625932,7.00876856 L15.7109772,6.96729655 C15.9114253,6.82214454 16.2501133,6.96729655 16.4989453,7.30598458 L16.5542413,7.38892859 L21.3442577,14.9921292 C21.6000017,15.3930252 21.6138257,15.8423053 21.3995537,15.9943693 L21.3442577,15.9943693 L16.5888013,18.0403214 Z" id="Path-4-Copy-4"></path>
                        <path d="M12.642049,5.32224042 C12.801025,5.0803204 13.167361,5.16326441 13.4576651,5.51577644 C13.7130338,5.78738037 13.8143769,6.16936592 13.7272331,6.53184052 L13.6926731,6.58713652 L9.24825673,13.3678091 C9.08928072,13.6097291 8.72294469,13.5198731 8.43264067,13.174273 C8.17625156,12.903252 8.07705795,12.5195293 8.16998465,12.158209 L8.16998465,12.102913 L12.642049,5.32224042 Z" id="Line-3"></path>
                    </g>
                </g>
            </g>
        </g>
    </g>
</svg>