<?xml version="1.0" encoding="UTF-8"?>
<svg width="394px" height="311px" viewBox="0 0 394 311" version="1.1" xmlns="http://www.w3.org/2000/svg" xmlns:xlink="http://www.w3.org/1999/xlink">
    <!-- Generator: Sketch 63.1 (92452) - https://sketch.com -->
    <title>illustration-stable</title>
    <desc>Created with Sketch.</desc>
    <defs>
        <linearGradient x1="0%" y1="50%" x2="100%" y2="50%" id="linearGradient-1">
            <stop stop-color="#CFD8DB" offset="0%"></stop>
            <stop stop-color="#CFD8DB" offset="100%"></stop>
        </linearGradient>
        <linearGradient x1="0%" y1="49.9793984%" x2="100%" y2="49.9793984%" id="linearGradient-2">
            <stop stop-color="#CFD8DB" offset="0%"></stop>
            <stop stop-color="#CFD8DB" offset="100%"></stop>
        </linearGradient>
        <linearGradient x1="0%" y1="49.9588477%" x2="100%" y2="49.9588477%" id="linearGradient-3">
            <stop stop-color="#CFD8DB" offset="0%"></stop>
            <stop stop-color="#CFD8DB" offset="100%"></stop>
        </linearGradient>
        <linearGradient x1="-1.5%" y1="50.0206016%" x2="98.5%" y2="50.0206016%" id="linearGradient-4">
            <stop stop-color="#CFD8DB" offset="0%"></stop>
            <stop stop-color="#CFD8DB" offset="100%"></stop>
        </linearGradient>
        <linearGradient x1="0%" y1="49.9177632%" x2="100%" y2="49.9177632%" id="linearGradient-5">
            <stop stop-color="#CFD8DB" offset="0%"></stop>
            <stop stop-color="#CFD8DB" offset="100%"></stop>
        </linearGradient>
        <linearGradient x1="3.2394671e-07%" y1="50.0213915%" x2="100%" y2="50.0213915%" id="linearGradient-6">
            <stop stop-color="#CFD8DB" offset="0%"></stop>
            <stop stop-color="#CFD8DB" offset="100%"></stop>
        </linearGradient>
        <linearGradient x1="0.000564198738%" y1="49.8792555%" x2="99.9996513%" y2="49.8792555%" id="linearGradient-7">
            <stop stop-color="#CFD8DB" offset="0%"></stop>
            <stop stop-color="#CFD8DB" offset="100%"></stop>
        </linearGradient>
        <linearGradient x1="0%" y1="50.0019796%" x2="100%" y2="50.0019796%" id="linearGradient-8">
            <stop stop-color="#CFD8DB" offset="0%"></stop>
            <stop stop-color="#CFD8DB" offset="100%"></stop>
        </linearGradient>
    </defs>
    <g id="Services" stroke="none" stroke-width="1" fill="none" fill-rule="evenodd">
        <g id="Service_desktop-Fintech-Software" transform="translate(-847.000000, -3927.000000)">
            <g id="Stable" transform="translate(128.000000, 3852.000000)">
                <g id="illustration-stable" transform="translate(686.000000, 0.000000)">
                    <path d="M140.253797,371.54182 C79.673729,337.76777 93.5504079,345.386502 33,311.597501 L319.467044,146.04 C379.913642,179.993461 365.844175,172.554139 426.275944,206.5076 C386.383561,229.432291 180.146179,348.647031 140.253797,371.54182 Z" id="Path" fill="#F9F9F9" fill-rule="nonzero"></path>
                    <g id="Group-22" transform="translate(100.851250, 283.931250)" fill-rule="nonzero">
                        <polygon id="Shape-Copy-14" fill="#EDEFF1" points="36.9596279 43.523295 0 22.1825091 38.4099801 0 75.3696085 21.3434925"></polygon>
                        <polygon id="Path-Copy-3" fill="#CFD8DB" points="0 22.0371114 37.1540324 43.523295 38.2155761 42.9925232 38.2155761 0"></polygon>
                    </g>
                    <g id="Group-22-Copy" transform="translate(197.156250, 228.118125)" fill-rule="nonzero">
                        <polygon id="Shape-Copy-14" fill="#EDEFF1" points="38.1027081 44.869375 0 22.8685654 39.5979164 0 77.700625 22.0035999"></polygon>
                        <polygon id="Path-Copy-3" fill="#CFD8DB" points="0 22.7186709 38.303125 44.869375 39.3975 44.3221875 39.3975 0"></polygon>
                    </g>
                    <polygon id="Path" fill="#EDEFF1" fill-rule="nonzero" points="140.261366 371.265289 33 311.205181 33 325.075394 47.7024578 333.413608 140.261366 385.315875 259.930944 316.172976 259.930944 302.212577"></polygon>
                    <polygon id="Path" fill="#CFD8DB" fill-rule="nonzero" points="140.382547 371.384631 140.130679 371.249898 140.130679 385.166172 140.382547 385.315875 426.275944 220.147243 426.275944 206.26091"></polygon>
                    <g id="Group-20-Copy-2" transform="translate(198.250625, 120.869375)" fill-rule="nonzero">
                        <polygon id="Shape" stroke="#FFFFFF" stroke-width="0.5471875" fill="#F7F7F7" stroke-linecap="round" stroke-linejoin="round" points="36.5257149 42.9952198 -4.66560096e-15 21.9133651 37.9590396 1.39968029e-14 74.4847549 21.0845284"></polygon>
                        <polygon id="Shape" fill="#E6E9ED" points="9.79776202e-14 21.9133651 9.79776202e-14 67.5314513 36.5257149 88.613306 36.5257149 42.9952198"></polygon>
                        <g id="Group-21" transform="translate(4.596375, 34.801123)">
                            <path d="M0.328312481,9.84937442 C0.146990571,9.84937442 0,9.66775515 0,9.44371652 L0,0.4056579 C0,0.181619266 0.146990571,0 0.328312481,0 C0.50963439,0 0.656624961,0.181619266 0.656624961,0.4056579 L0.656624961,9.44371652 C0.656624961,9.66775515 0.50963439,9.84937442 0.328312481,9.84937442 Z" id="Shape" fill="url(#linearGradient-1)"></path>
                            <path d="M3.61143699,12.4758743 C3.43011491,12.4758743 3.28312481,12.2941802 3.28312481,12.0700491 L3.28312481,3.03232496 C3.28312481,2.80819394 3.43011491,2.62649984 3.61143699,2.62649984 C3.79275906,2.62649984 3.93974977,2.80819394 3.93974977,3.03232496 L3.93974977,12.0700491 C3.93974977,12.2941802 3.79275906,12.4758743 3.61143699,12.4758743 Z" id="Shape" fill="url(#linearGradient-2)"></path>
                            <path d="M6.89456209,15.1023741 C6.71324018,15.1023741 6.56624961,14.9206052 6.56624961,14.6963818 L6.56624961,5.65899201 C6.56624961,5.43476861 6.71324018,5.25299969 6.89456209,5.25299969 C7.075884,5.25299969 7.22287457,5.43476861 7.22287457,5.65899201 L7.22287457,14.6963818 C7.22287457,14.9206052 7.075884,15.1023741 6.89456209,15.1023741 Z" id="Shape" fill="url(#linearGradient-3)"></path>
                            <path d="M18.0571867,38.7408727 C17.8758647,38.7408727 17.7288739,38.5591786 17.7288739,38.3350476 L17.7288739,29.2973234 C17.7288739,29.0731924 17.8758647,28.8914983 18.0571867,28.8914983 C18.2385088,28.8914983 18.3854989,29.0731924 18.3854989,29.2973234 L18.3854989,38.3350476 C18.3854989,38.5591786 18.2385088,38.7408727 18.0571867,38.7408727 Z" id="Shape" fill="url(#linearGradient-4)"></path>
                            <path d="M21.3403115,41.3673725 C21.1589895,41.3673725 21.0119988,41.186052 21.0119988,40.9623818 L21.0119988,31.9229888 C21.0119988,31.6993187 21.1589895,31.5179981 21.3403115,31.5179981 C21.5216336,31.5179981 21.6686237,31.6993187 21.6686237,31.9229888 L21.6686237,40.9623818 C21.6686237,41.186052 21.5216336,41.3673725 21.3403115,41.3673725 Z" id="Shape" fill="url(#linearGradient-5)"></path>
                            <path d="M24.623436,43.9938724 C24.4421141,43.9938724 24.2951236,43.8122532 24.2951236,43.5882145 L24.2951236,34.5501559 C24.2951236,34.3261172 24.4421141,34.144498 24.623436,34.144498 C24.804758,34.144498 24.9517485,34.3261172 24.9517485,34.5501559 L24.9517485,43.5882145 C24.9517485,43.8122532 24.804758,43.9938724 24.623436,43.9938724 Z" id="Shape" fill="url(#linearGradient-1)"></path>
                            <path d="M17.7288739,22.9255295 L17.7288739,23.0387796 C17.7288469,23.253033 17.8529909,23.4512648 18.0551214,23.5597306 C18.2589377,23.6655222 18.5088108,23.6646983 18.7117869,23.5575652 C18.914763,23.4504322 19.0404621,23.253025 19.0421239,23.0387796 L19.0421239,22.9255295 C19.0404561,22.7107099 18.9148522,22.5126528 18.7117464,22.4045785 C18.508522,22.2982212 18.2587127,22.2988476 18.0561297,22.4062226 C17.853546,22.5135976 17.7288522,22.7114685 17.7288739,22.9255295 Z" id="Shape" fill="url(#linearGradient-6)" opacity="0.6"></path>
                            <path d="M17.7288739,19.6406134 L17.7288739,19.7537129 C17.7280089,19.9678857 17.8523752,20.1662113 18.0551258,20.2739705 C18.2586027,20.3821199 18.5099357,20.382533 18.7138379,20.2750532 C18.9177409,20.1675735 19.0429971,19.9686554 19.0421239,19.7537129 L19.0421239,19.6406134 C19.0415191,19.4267984 18.915431,19.2296797 18.7117448,19.1241258 C18.5095088,19.0157209 18.2591016,19.0147347 18.0558483,19.1215428 C17.852595,19.2283508 17.7277658,19.4265209 17.7288739,19.6406134 Z" id="Shape" fill="url(#linearGradient-7)" opacity="0.6"></path>
                            <path d="M17.7288739,16.3574886 L17.7288739,16.4705881 C17.7280089,16.6847609 17.8523752,16.8830865 18.0551258,16.9908456 C18.2586027,17.0989951 18.5099357,17.0994082 18.7138379,16.9919285 C18.9177409,16.8844487 19.0429971,16.6855306 19.0421239,16.4705881 L19.0421239,16.3574886 C19.0415191,16.1436736 18.915431,15.9465549 18.7117448,15.841001 C18.5095088,15.7325961 18.2591016,15.7316099 18.0558483,15.838418 C17.852595,15.945226 17.7277658,16.1433961 17.7288739,16.3574886 Z" id="Shape" fill="url(#linearGradient-7)" opacity="0.6"></path>
                        </g>
                        <polygon id="Shape" fill="url(#linearGradient-8)" points="36.5257149 42.9952198 74.4847549 21.0845284 74.4847549 66.7026146 36.5257149 88.613306"></polygon>
                    </g>
                    <g id="Group-23" transform="translate(289.083750, 158.078125)">
                        <g id="Group-20-Copy-3" fill-rule="nonzero">
                            <polygon id="Shape" stroke="#FFFFFF" stroke-width="0.5471875" fill="#F7F7F7" stroke-linecap="round" stroke-linejoin="round" points="36.5257149 42.9952198 -4.66560096e-15 21.9133651 37.9590396 1.39968029e-14 74.4847549 21.0845284"></polygon>
                            <polygon id="Shape" fill="#E6E9ED" points="9.79776202e-14 21.9133651 9.79776202e-14 67.5314513 36.5257149 88.613306 36.5257149 42.9952198"></polygon>
                            <g id="Group-21" transform="translate(4.596375, 34.801123)">
                                <path d="M0.328312481,9.84937442 C0.146990571,9.84937442 0,9.66775515 0,9.44371652 L0,0.4056579 C0,0.181619266 0.146990571,0 0.328312481,0 C0.50963439,0 0.656624961,0.181619266 0.656624961,0.4056579 L0.656624961,9.44371652 C0.656624961,9.66775515 0.50963439,9.84937442 0.328312481,9.84937442 Z" id="Shape" fill="url(#linearGradient-1)"></path>
                                <path d="M3.61143699,12.4758743 C3.43011491,12.4758743 3.28312481,12.2941802 3.28312481,12.0700491 L3.28312481,3.03232496 C3.28312481,2.80819394 3.43011491,2.62649984 3.61143699,2.62649984 C3.79275906,2.62649984 3.93974977,2.80819394 3.93974977,3.03232496 L3.93974977,12.0700491 C3.93974977,12.2941802 3.79275906,12.4758743 3.61143699,12.4758743 Z" id="Shape" fill="url(#linearGradient-2)"></path>
                                <path d="M6.89456209,15.1023741 C6.71324018,15.1023741 6.56624961,14.9206052 6.56624961,14.6963818 L6.56624961,5.65899201 C6.56624961,5.43476861 6.71324018,5.25299969 6.89456209,5.25299969 C7.075884,5.25299969 7.22287457,5.43476861 7.22287457,5.65899201 L7.22287457,14.6963818 C7.22287457,14.9206052 7.075884,15.1023741 6.89456209,15.1023741 Z" id="Shape" fill="url(#linearGradient-3)"></path>
                                <path d="M18.0571867,38.7408727 C17.8758647,38.7408727 17.7288739,38.5591786 17.7288739,38.3350476 L17.7288739,29.2973234 C17.7288739,29.0731924 17.8758647,28.8914983 18.0571867,28.8914983 C18.2385088,28.8914983 18.3854989,29.0731924 18.3854989,29.2973234 L18.3854989,38.3350476 C18.3854989,38.5591786 18.2385088,38.7408727 18.0571867,38.7408727 Z" id="Shape" fill="url(#linearGradient-4)"></path>
                                <path d="M21.3403115,41.3673725 C21.1589895,41.3673725 21.0119988,41.186052 21.0119988,40.9623818 L21.0119988,31.9229888 C21.0119988,31.6993187 21.1589895,31.5179981 21.3403115,31.5179981 C21.5216336,31.5179981 21.6686237,31.6993187 21.6686237,31.9229888 L21.6686237,40.9623818 C21.6686237,41.186052 21.5216336,41.3673725 21.3403115,41.3673725 Z" id="Shape" fill="url(#linearGradient-5)"></path>
                                <path d="M24.623436,43.9938724 C24.4421141,43.9938724 24.2951236,43.8122532 24.2951236,43.5882145 L24.2951236,34.5501559 C24.2951236,34.3261172 24.4421141,34.144498 24.623436,34.144498 C24.804758,34.144498 24.9517485,34.3261172 24.9517485,34.5501559 L24.9517485,43.5882145 C24.9517485,43.8122532 24.804758,43.9938724 24.623436,43.9938724 Z" id="Shape" fill="url(#linearGradient-1)"></path>
                                <path d="M17.7288739,22.9255295 L17.7288739,23.0387796 C17.7288469,23.253033 17.8529909,23.4512648 18.0551214,23.5597306 C18.2589377,23.6655222 18.5088108,23.6646983 18.7117869,23.5575652 C18.914763,23.4504322 19.0404621,23.253025 19.0421239,23.0387796 L19.0421239,22.9255295 C19.0404561,22.7107099 18.9148522,22.5126528 18.7117464,22.4045785 C18.508522,22.2982212 18.2587127,22.2988476 18.0561297,22.4062226 C17.853546,22.5135976 17.7288522,22.7114685 17.7288739,22.9255295 Z" id="Shape" fill="url(#linearGradient-6)" opacity="0.6"></path>
                                <path d="M17.7288739,19.6406134 L17.7288739,19.7537129 C17.7280089,19.9678857 17.8523752,20.1662113 18.0551258,20.2739705 C18.2586027,20.3821199 18.5099357,20.382533 18.7138379,20.2750532 C18.9177409,20.1675735 19.0429971,19.9686554 19.0421239,19.7537129 L19.0421239,19.6406134 C19.0415191,19.4267984 18.915431,19.2296797 18.7117448,19.1241258 C18.5095088,19.0157209 18.2591016,19.0147347 18.0558483,19.1215428 C17.852595,19.2283508 17.7277658,19.4265209 17.7288739,19.6406134 Z" id="Shape" fill="url(#linearGradient-7)" opacity="0.6"></path>
                                <path d="M17.7288739,16.3574886 L17.7288739,16.4705881 C17.7280089,16.6847609 17.8523752,16.8830865 18.0551258,16.9908456 C18.2586027,17.0989951 18.5099357,17.0994082 18.7138379,16.9919285 C18.9177409,16.8844487 19.0429971,16.6855306 19.0421239,16.4705881 L19.0421239,16.3574886 C19.0415191,16.1436736 18.915431,15.9465549 18.7117448,15.841001 C18.5095088,15.7325961 18.2591016,15.7316099 18.0558483,15.838418 C17.852595,15.945226 17.7277658,16.1433961 17.7288739,16.3574886 Z" id="Shape" fill="url(#linearGradient-7)" opacity="0.6"></path>
                            </g>
                            <polygon id="Shape" fill="url(#linearGradient-8)" points="36.5257149 42.9952198 74.4847549 21.0845284 74.4847549 66.7026146 36.5257149 88.613306"></polygon>
                        </g>
                        <polygon id="Path-11" fill="#F9F9F9" points="0 67.85125 0 41.58625 36.6615625 62.9265625 77.700625 39.9446875 77.700625 65.6625 36.6615625 89.1915625"></polygon>
                    </g>
                    <polygon id="Path-10" fill="#4B83FF" opacity="0.050062" points="100.85125 305.714021 137.496231 327.432656 175.26875 305.142478 175.26875 142.483281 137.496231 164.773459 100.85125 143.626367"></polygon>
                    <line x1="137.512813" y1="164.097188" x2="137.512813" y2="327.159063" id="Path-9" stroke="#4B83FF" stroke-width="1.094375" opacity="0.399781" stroke-linecap="round" stroke-linejoin="round" stroke-dasharray="2.188749899268146,6.566250103116033"></line>
                    <g id="Group-20" transform="translate(100.851250, 76.000000)" fill-rule="nonzero">
                        <polygon id="Shape" stroke="#FFFFFF" stroke-width="0.5471875" fill="#F7F7F7" stroke-linecap="round" stroke-linejoin="round" points="36.5257149 42.9952198 -4.66560096e-15 21.9133651 37.9590396 1.39968029e-14 74.4847549 21.0845284"></polygon>
                        <polygon id="Shape" fill="#E6E9ED" points="9.79776202e-14 21.9133651 9.79776202e-14 67.5314513 36.5257149 88.613306 36.5257149 42.9952198"></polygon>
                        <g id="Group-21" transform="translate(4.596375, 34.801123)">
                            <path d="M0.328312481,9.84937442 C0.146990571,9.84937442 0,9.66775515 0,9.44371652 L0,0.4056579 C0,0.181619266 0.146990571,0 0.328312481,0 C0.50963439,0 0.656624961,0.181619266 0.656624961,0.4056579 L0.656624961,9.44371652 C0.656624961,9.66775515 0.50963439,9.84937442 0.328312481,9.84937442 Z" id="Shape" fill="url(#linearGradient-1)"></path>
                            <path d="M3.61143699,12.4758743 C3.43011491,12.4758743 3.28312481,12.2941802 3.28312481,12.0700491 L3.28312481,3.03232496 C3.28312481,2.80819394 3.43011491,2.62649984 3.61143699,2.62649984 C3.79275906,2.62649984 3.93974977,2.80819394 3.93974977,3.03232496 L3.93974977,12.0700491 C3.93974977,12.2941802 3.79275906,12.4758743 3.61143699,12.4758743 Z" id="Shape" fill="url(#linearGradient-2)"></path>
                            <path d="M6.89456209,15.1023741 C6.71324018,15.1023741 6.56624961,14.9206052 6.56624961,14.6963818 L6.56624961,5.65899201 C6.56624961,5.43476861 6.71324018,5.25299969 6.89456209,5.25299969 C7.075884,5.25299969 7.22287457,5.43476861 7.22287457,5.65899201 L7.22287457,14.6963818 C7.22287457,14.9206052 7.075884,15.1023741 6.89456209,15.1023741 Z" id="Shape" fill="url(#linearGradient-3)"></path>
                            <path d="M18.0571867,38.7408727 C17.8758647,38.7408727 17.7288739,38.5591786 17.7288739,38.3350476 L17.7288739,29.2973234 C17.7288739,29.0731924 17.8758647,28.8914983 18.0571867,28.8914983 C18.2385088,28.8914983 18.3854989,29.0731924 18.3854989,29.2973234 L18.3854989,38.3350476 C18.3854989,38.5591786 18.2385088,38.7408727 18.0571867,38.7408727 Z" id="Shape" fill="url(#linearGradient-4)"></path>
                            <path d="M21.3403115,41.3673725 C21.1589895,41.3673725 21.0119988,41.186052 21.0119988,40.9623818 L21.0119988,31.9229888 C21.0119988,31.6993187 21.1589895,31.5179981 21.3403115,31.5179981 C21.5216336,31.5179981 21.6686237,31.6993187 21.6686237,31.9229888 L21.6686237,40.9623818 C21.6686237,41.186052 21.5216336,41.3673725 21.3403115,41.3673725 Z" id="Shape" fill="url(#linearGradient-5)"></path>
                            <path d="M24.623436,43.9938724 C24.4421141,43.9938724 24.2951236,43.8122532 24.2951236,43.5882145 L24.2951236,34.5501559 C24.2951236,34.3261172 24.4421141,34.144498 24.623436,34.144498 C24.804758,34.144498 24.9517485,34.3261172 24.9517485,34.5501559 L24.9517485,43.5882145 C24.9517485,43.8122532 24.804758,43.9938724 24.623436,43.9938724 Z" id="Shape" fill="url(#linearGradient-1)"></path>
                            <path d="M17.7288739,22.9255295 L17.7288739,23.0387796 C17.7288469,23.253033 17.8529909,23.4512648 18.0551214,23.5597306 C18.2589377,23.6655222 18.5088108,23.6646983 18.7117869,23.5575652 C18.914763,23.4504322 19.0404621,23.253025 19.0421239,23.0387796 L19.0421239,22.9255295 C19.0404561,22.7107099 18.9148522,22.5126528 18.7117464,22.4045785 C18.508522,22.2982212 18.2587127,22.2988476 18.0561297,22.4062226 C17.853546,22.5135976 17.7288522,22.7114685 17.7288739,22.9255295 Z" id="Shape" fill="url(#linearGradient-6)" opacity="0.6"></path>
                            <path d="M17.7288739,19.6406134 L17.7288739,19.7537129 C17.7280089,19.9678857 17.8523752,20.1662113 18.0551258,20.2739705 C18.2586027,20.3821199 18.5099357,20.382533 18.7138379,20.2750532 C18.9177409,20.1675735 19.0429971,19.9686554 19.0421239,19.7537129 L19.0421239,19.6406134 C19.0415191,19.4267984 18.915431,19.2296797 18.7117448,19.1241258 C18.5095088,19.0157209 18.2591016,19.0147347 18.0558483,19.1215428 C17.852595,19.2283508 17.7277658,19.4265209 17.7288739,19.6406134 Z" id="Shape" fill="url(#linearGradient-7)" opacity="0.6"></path>
                            <path d="M17.7288739,16.3574886 L17.7288739,16.4705881 C17.7280089,16.6847609 17.8523752,16.8830865 18.0551258,16.9908456 C18.2586027,17.0989951 18.5099357,17.0994082 18.7138379,16.9919285 C18.9177409,16.8844487 19.0429971,16.6855306 19.0421239,16.4705881 L19.0421239,16.3574886 C19.0415191,16.1436736 18.915431,15.9465549 18.7117448,15.841001 C18.5095088,15.7325961 18.2591016,15.7316099 18.0558483,15.838418 C17.852595,15.945226 17.7277658,16.1433961 17.7288739,16.3574886 Z" id="Shape" fill="url(#linearGradient-7)" opacity="0.6"></path>
                        </g>
                        <polygon id="Shape" fill="url(#linearGradient-8)" points="36.5257149 42.9952198 74.4847549 21.0845284 74.4847549 66.7026146 36.5257149 88.613306"></polygon>
                    </g>
                    <line x1="101.398438" y1="145.492813" x2="101.398438" y2="306.365938" id="Path-9-Copy-2" stroke="#4B83FF" stroke-width="1.094375" opacity="0.399781" stroke-linecap="round" stroke-linejoin="round" stroke-dasharray="2.188749899268146,6.566250103116033"></line>
                    <line x1="175.815938" y1="143.304063" x2="175.815938" y2="306.365938" id="Path-9-Copy" stroke="#4B83FF" stroke-width="1.094375" opacity="0.399781" stroke-linecap="round" stroke-linejoin="round" stroke-dasharray="2.188749899268146,6.566250103116033"></line>
                </g>
            </g>
        </g>
    </g>
</svg>