<?xml version="1.0" encoding="UTF-8"?>
<svg width="420px" height="265px" viewBox="0 0 420 265" version="1.1" xmlns="http://www.w3.org/2000/svg" xmlns:xlink="http://www.w3.org/1999/xlink">
    <!-- Generator: Sketch 63.1 (92452) - https://sketch.com -->
    <title>illustration-secure</title>
    <desc>Created with Sketch.</desc>
    <defs>
        <radialGradient cx="-10.6989887%" cy="50%" fx="-10.6989887%" fy="50%" r="100%" id="radialGradient-1">
            <stop stop-color="#E6EDEF" offset="0%"></stop>
            <stop stop-color="#B5C7CE" offset="100%"></stop>
        </radialGradient>
        <linearGradient x1="0%" y1="50%" x2="100%" y2="50%" id="linearGradient-2">
            <stop stop-color="#CFD8DB" offset="0%"></stop>
            <stop stop-color="#CFD8DB" offset="100%"></stop>
        </linearGradient>
        <linearGradient x1="0%" y1="49.9793984%" x2="100%" y2="49.9793984%" id="linearGradient-3">
            <stop stop-color="#CFD8DB" offset="0%"></stop>
            <stop stop-color="#CFD8DB" offset="100%"></stop>
        </linearGradient>
        <linearGradient x1="0%" y1="49.9588477%" x2="100%" y2="49.9588477%" id="linearGradient-4">
            <stop stop-color="#CFD8DB" offset="0%"></stop>
            <stop stop-color="#CFD8DB" offset="100%"></stop>
        </linearGradient>
        <linearGradient x1="-1.5%" y1="50.0206016%" x2="98.5%" y2="50.0206016%" id="linearGradient-5">
            <stop stop-color="#CFD8DB" offset="0%"></stop>
            <stop stop-color="#CFD8DB" offset="100%"></stop>
        </linearGradient>
        <linearGradient x1="0%" y1="49.9177632%" x2="100%" y2="49.9177632%" id="linearGradient-6">
            <stop stop-color="#CFD8DB" offset="0%"></stop>
            <stop stop-color="#CFD8DB" offset="100%"></stop>
        </linearGradient>
        <linearGradient x1="3.2394671e-07%" y1="50.0213915%" x2="100%" y2="50.0213915%" id="linearGradient-7">
            <stop stop-color="#CFD8DB" offset="0%"></stop>
            <stop stop-color="#CFD8DB" offset="100%"></stop>
        </linearGradient>
        <linearGradient x1="0.000564198738%" y1="49.8792555%" x2="99.9996513%" y2="49.8792555%" id="linearGradient-8">
            <stop stop-color="#CFD8DB" offset="0%"></stop>
            <stop stop-color="#CFD8DB" offset="100%"></stop>
        </linearGradient>
        <linearGradient x1="0%" y1="50.0019796%" x2="100%" y2="50.0019796%" id="linearGradient-9">
            <stop stop-color="#CFD8DB" offset="0%"></stop>
            <stop stop-color="#CFD8DB" offset="100%"></stop>
        </linearGradient>
        <linearGradient x1="0%" y1="50%" x2="100%" y2="50%" id="linearGradient-10">
            <stop stop-color="#CFD8DB" offset="0%"></stop>
            <stop stop-color="#CFD8DB" offset="100%"></stop>
        </linearGradient>
        <linearGradient x1="0%" y1="49.9793984%" x2="100%" y2="49.9793984%" id="linearGradient-11">
            <stop stop-color="#CFD8DB" offset="0%"></stop>
            <stop stop-color="#CFD8DB" offset="100%"></stop>
        </linearGradient>
        <linearGradient x1="0%" y1="49.9588477%" x2="100%" y2="49.9588477%" id="linearGradient-12">
            <stop stop-color="#CFD8DB" offset="0%"></stop>
            <stop stop-color="#CFD8DB" offset="100%"></stop>
        </linearGradient>
        <linearGradient x1="-1.5%" y1="50.0206016%" x2="98.5%" y2="50.0206016%" id="linearGradient-13">
            <stop stop-color="#CFD8DB" offset="0%"></stop>
            <stop stop-color="#CFD8DB" offset="100%"></stop>
        </linearGradient>
        <linearGradient x1="0%" y1="49.9177632%" x2="100%" y2="49.9177632%" id="linearGradient-14">
            <stop stop-color="#CFD8DB" offset="0%"></stop>
            <stop stop-color="#CFD8DB" offset="100%"></stop>
        </linearGradient>
        <linearGradient x1="0%" y1="50.0019796%" x2="100%" y2="50.0019796%" id="linearGradient-15">
            <stop stop-color="#CFD8DB" offset="0%"></stop>
            <stop stop-color="#CFD8DB" offset="100%"></stop>
        </linearGradient>
        <linearGradient x1="0%" y1="50%" x2="100%" y2="50%" id="linearGradient-16">
            <stop stop-color="#CFD8DB" offset="0%"></stop>
            <stop stop-color="#CFD8DB" offset="100%"></stop>
        </linearGradient>
        <linearGradient x1="0%" y1="49.9793984%" x2="100%" y2="49.9793984%" id="linearGradient-17">
            <stop stop-color="#CFD8DB" offset="0%"></stop>
            <stop stop-color="#CFD8DB" offset="100%"></stop>
        </linearGradient>
        <linearGradient x1="0%" y1="49.9588477%" x2="100%" y2="49.9588477%" id="linearGradient-18">
            <stop stop-color="#CFD8DB" offset="0%"></stop>
            <stop stop-color="#CFD8DB" offset="100%"></stop>
        </linearGradient>
        <linearGradient x1="-1.5%" y1="50.0206016%" x2="98.5%" y2="50.0206016%" id="linearGradient-19">
            <stop stop-color="#CFD8DB" offset="0%"></stop>
            <stop stop-color="#CFD8DB" offset="100%"></stop>
        </linearGradient>
        <linearGradient x1="0%" y1="49.9177632%" x2="100%" y2="49.9177632%" id="linearGradient-20">
            <stop stop-color="#CFD8DB" offset="0%"></stop>
            <stop stop-color="#CFD8DB" offset="100%"></stop>
        </linearGradient>
        <linearGradient x1="0%" y1="50.0019796%" x2="100%" y2="50.0019796%" id="linearGradient-21">
            <stop stop-color="#CFD8DB" offset="0%"></stop>
            <stop stop-color="#CFD8DB" offset="100%"></stop>
        </linearGradient>
        <linearGradient x1="0%" y1="50%" x2="100%" y2="50%" id="linearGradient-22">
            <stop stop-color="#CFD8DB" offset="0%"></stop>
            <stop stop-color="#CFD8DB" offset="100%"></stop>
        </linearGradient>
        <linearGradient x1="0%" y1="49.9793984%" x2="100%" y2="49.9793984%" id="linearGradient-23">
            <stop stop-color="#CFD8DB" offset="0%"></stop>
            <stop stop-color="#CFD8DB" offset="100%"></stop>
        </linearGradient>
        <linearGradient x1="0%" y1="49.9588477%" x2="100%" y2="49.9588477%" id="linearGradient-24">
            <stop stop-color="#CFD8DB" offset="0%"></stop>
            <stop stop-color="#CFD8DB" offset="100%"></stop>
        </linearGradient>
        <linearGradient x1="-1.5%" y1="50.0206016%" x2="98.5%" y2="50.0206016%" id="linearGradient-25">
            <stop stop-color="#CFD8DB" offset="0%"></stop>
            <stop stop-color="#CFD8DB" offset="100%"></stop>
        </linearGradient>
        <linearGradient x1="0%" y1="49.9177632%" x2="100%" y2="49.9177632%" id="linearGradient-26">
            <stop stop-color="#CFD8DB" offset="0%"></stop>
            <stop stop-color="#CFD8DB" offset="100%"></stop>
        </linearGradient>
        <linearGradient x1="0%" y1="50.0019796%" x2="100%" y2="50.0019796%" id="linearGradient-27">
            <stop stop-color="#CFD8DB" offset="0%"></stop>
            <stop stop-color="#CFD8DB" offset="100%"></stop>
        </linearGradient>
        <linearGradient x1="23.976217%" y1="24.6689779%" x2="76.023783%" y2="75.335199%" id="linearGradient-28">
            <stop stop-color="#CFD8DB" offset="0%"></stop>
            <stop stop-color="#CFD8DB" offset="100%"></stop>
        </linearGradient>
    </defs>
    <g id="Services" stroke="none" stroke-width="1" fill="none" fill-rule="evenodd">
        <g id="Service_desktop-Fintech-Software" transform="translate(-150.000000, -3346.000000)">
            <g id="Secure" transform="translate(128.000000, 3244.000000)">
                <g id="illustration-secure" transform="translate(0.000000, 1.000000)">
                    <circle id="Oval" fill="url(#radialGradient-1)" cx="253.267756" cy="276.862255" r="47.8485013"></circle>
                    <path d="M113.145256,360.090561 C50.0810925,324.9316 85.0332876,344.25524 22,309.080715 L350.973424,118.506501 C413.898645,153.852229 378.745757,134.715356 441.65554,170.061084 C400.127364,193.925806 154.673432,336.256967 113.145256,360.090561 Z" id="Path" fill="#F9F9F9" fill-rule="nonzero"></path>
                    <polygon id="Path" fill="#EDEFF1" fill-rule="nonzero" points="113.153136 359.802691 22 308.672308 22 313.997271 37.3053346 322.677395 113.153136 365.315423 237.729785 291.058808 237.729785 285.63996"></polygon>
                    <polygon id="Path" fill="#CFD8DB" fill-rule="nonzero" points="113.279286 359.926926 113.01709 359.786668 113.01709 365.159581 113.279286 365.315423 437.09854 174.006773 437.09854 168.665029"></polygon>
                    <g id="Group-20-Copy-2" transform="translate(278.306007, 129.342001)" fill-rule="nonzero">
                        <polygon id="Shape" stroke="#FFFFFF" stroke-width="0.569625015" fill="#F7F7F7" stroke-linecap="round" stroke-linejoin="round" points="26.6164201 31.3307716 -3.39984024e-15 15.9683481 27.660889 1.01995207e-14 54.2773095 15.3643719"></polygon>
                        <polygon id="Shape" fill="#E6E9ED" points="7.13966451e-14 15.9683481 7.13966451e-14 49.210412 26.6164201 64.5728355 26.6164201 31.3307716"></polygon>
                        <g id="Group-21" transform="translate(3.349395, 25.359704)">
                            <path d="M0.239242488,7.17727464 C0.107112559,7.17727464 0,7.04492803 0,6.88167027 L0,0.295604374 C0,0.132346614 0.107112559,0 0.239242488,0 C0.371372418,0 0.478484976,0.132346614 0.478484976,0.295604374 L0.478484976,6.88167027 C0.478484976,7.04492803 0.371372418,7.17727464 0.239242488,7.17727464 Z" id="Shape" fill="url(#linearGradient-2)"></path>
                            <path d="M2.63166715,9.09121455 C2.4995371,9.09121455 2.39242488,8.95881341 2.39242488,8.79548833 L2.39242488,2.20966613 C2.39242488,2.04634105 2.4995371,1.91393991 2.63166715,1.91393991 C2.7637972,1.91393991 2.87090986,2.04634105 2.87090986,2.20966613 L2.87090986,8.79548833 C2.87090986,8.95881341 2.7637972,9.09121455 2.63166715,9.09121455 Z" id="Shape" fill="url(#linearGradient-3)"></path>
                            <path d="M5.02409225,11.0051545 C4.89196232,11.0051545 4.78484976,10.8726988 4.78484976,10.7093064 L4.78484976,4.12372788 C4.78484976,3.96033548 4.89196232,3.82787981 5.02409225,3.82787981 C5.15622218,3.82787981 5.26333474,3.96033548 5.26333474,4.12372788 L5.26333474,10.7093064 C5.26333474,10.8726988 5.15622218,11.0051545 5.02409225,11.0051545 Z" id="Shape" fill="url(#linearGradient-4)"></path>
                            <path d="M13.1583371,28.2306136 C13.026207,28.2306136 12.9190944,28.0982125 12.9190944,27.9348874 L12.9190944,21.3490652 C12.9190944,21.1857401 13.026207,21.053339 13.1583371,21.053339 C13.2904671,21.053339 13.3975793,21.1857401 13.3975793,21.3490652 L13.3975793,27.9348874 C13.3975793,28.0982125 13.2904671,28.2306136 13.1583371,28.2306136 Z" id="Shape" fill="url(#linearGradient-5)"></path>
                            <path d="M15.5507619,30.1445535 C15.4186319,30.1445535 15.3115192,30.0124246 15.3115192,29.8494353 L15.3115192,23.262397 C15.3115192,23.0994078 15.4186319,22.9672789 15.5507619,22.9672789 C15.682892,22.9672789 15.7900042,23.0994078 15.7900042,23.262397 L15.7900042,29.8494353 C15.7900042,30.0124246 15.682892,30.1445535 15.5507619,30.1445535 Z" id="Shape" fill="url(#linearGradient-6)"></path>
                            <path d="M17.9431866,32.0584934 C17.8110566,32.0584934 17.7039441,31.9261469 17.7039441,31.762889 L17.7039441,25.1768232 C17.7039441,25.0135654 17.8110566,24.8812188 17.9431866,24.8812188 C18.0753166,24.8812188 18.1824291,25.0135654 18.1824291,25.1768232 L18.1824291,31.762889 C18.1824291,31.9261469 18.0753166,32.0584934 17.9431866,32.0584934 Z" id="Shape" fill="url(#linearGradient-2)"></path>
                            <path d="M12.9190944,16.705916 L12.9190944,16.7884418 C12.9190747,16.944569 13.0095388,17.0890212 13.1568321,17.1680606 C13.3053538,17.2451514 13.4874372,17.2445509 13.6353466,17.1664827 C13.783256,17.0884145 13.8748534,16.9445631 13.8760643,16.7884418 L13.8760643,16.705916 C13.874849,16.5493761 13.783321,16.4050512 13.635317,16.3262972 C13.4872267,16.2487941 13.3051898,16.2492507 13.1575668,16.3274952 C13.0099434,16.4057398 12.9190785,16.5499289 12.9190944,16.705916 Z" id="Shape" fill="url(#linearGradient-7)" opacity="0.6"></path>
                            <path d="M12.9190944,14.3121858 L12.9190944,14.3946018 C12.918464,14.5506703 13.0090902,14.6951909 13.1568353,14.7737154 C13.3051096,14.8525242 13.4882569,14.8528253 13.6368412,14.7745044 C13.785426,14.6961835 13.8767006,14.5512312 13.8760643,14.3946018 L13.8760643,14.3121858 C13.8756236,14.1563781 13.7837428,14.0127369 13.6353159,13.9358194 C13.4879458,13.8568244 13.3054732,13.8561057 13.1573618,13.9339372 C13.0092504,14.0117685 12.9182868,14.1561758 12.9190944,14.3121858 Z" id="Shape" fill="url(#linearGradient-8)" opacity="0.6"></path>
                            <path d="M12.9190944,11.9197609 L12.9190944,12.0021769 C12.918464,12.1582454 13.0090902,12.302766 13.1568353,12.3812905 C13.3051096,12.4600994 13.4882569,12.4604004 13.6368412,12.3820795 C13.785426,12.3037586 13.8767006,12.1588063 13.8760643,12.0021769 L13.8760643,11.9197609 C13.8756236,11.7639531 13.7837428,11.620312 13.6353159,11.5433945 C13.4879458,11.4643995 13.3054732,11.4636808 13.1573618,11.5415123 C13.0092504,11.6193436 12.9182868,11.7637509 12.9190944,11.9197609 Z" id="Shape" fill="url(#linearGradient-8)" opacity="0.6"></path>
                        </g>
                        <polygon id="Shape" fill="url(#linearGradient-9)" points="26.6164201 31.3307716 54.2773095 15.3643719 54.2773095 48.6064358 26.6164201 64.5728355"></polygon>
                    </g>
                    <g id="Group-20-Copy-4" transform="translate(340.964759, 129.342001)" fill-rule="nonzero">
                        <polygon id="Shape" stroke="#FFFFFF" stroke-width="0.569625015" fill="#F7F7F7" stroke-linecap="round" stroke-linejoin="round" points="26.6164201 31.3307716 -3.39984024e-15 15.9683481 27.660889 1.01995207e-14 54.2773095 15.3643719"></polygon>
                        <polygon id="Shape" fill="#E6E9ED" points="7.13966451e-14 15.9683481 7.13966451e-14 49.210412 26.6164201 64.5728355 26.6164201 31.3307716"></polygon>
                        <g id="Group-21" transform="translate(3.349395, 25.359704)">
                            <path d="M0.239242488,7.17727464 C0.107112559,7.17727464 0,7.04492803 0,6.88167027 L0,0.295604374 C0,0.132346614 0.107112559,0 0.239242488,0 C0.371372418,0 0.478484976,0.132346614 0.478484976,0.295604374 L0.478484976,6.88167027 C0.478484976,7.04492803 0.371372418,7.17727464 0.239242488,7.17727464 Z" id="Shape" fill="url(#linearGradient-2)"></path>
                            <path d="M2.63166715,9.09121455 C2.4995371,9.09121455 2.39242488,8.95881341 2.39242488,8.79548833 L2.39242488,2.20966613 C2.39242488,2.04634105 2.4995371,1.91393991 2.63166715,1.91393991 C2.7637972,1.91393991 2.87090986,2.04634105 2.87090986,2.20966613 L2.87090986,8.79548833 C2.87090986,8.95881341 2.7637972,9.09121455 2.63166715,9.09121455 Z" id="Shape" fill="url(#linearGradient-3)"></path>
                            <path d="M5.02409225,11.0051545 C4.89196232,11.0051545 4.78484976,10.8726988 4.78484976,10.7093064 L4.78484976,4.12372788 C4.78484976,3.96033548 4.89196232,3.82787981 5.02409225,3.82787981 C5.15622218,3.82787981 5.26333474,3.96033548 5.26333474,4.12372788 L5.26333474,10.7093064 C5.26333474,10.8726988 5.15622218,11.0051545 5.02409225,11.0051545 Z" id="Shape" fill="url(#linearGradient-4)"></path>
                            <path d="M13.1583371,28.2306136 C13.026207,28.2306136 12.9190944,28.0982125 12.9190944,27.9348874 L12.9190944,21.3490652 C12.9190944,21.1857401 13.026207,21.053339 13.1583371,21.053339 C13.2904671,21.053339 13.3975793,21.1857401 13.3975793,21.3490652 L13.3975793,27.9348874 C13.3975793,28.0982125 13.2904671,28.2306136 13.1583371,28.2306136 Z" id="Shape" fill="url(#linearGradient-5)"></path>
                            <path d="M15.5507619,30.1445535 C15.4186319,30.1445535 15.3115192,30.0124246 15.3115192,29.8494353 L15.3115192,23.262397 C15.3115192,23.0994078 15.4186319,22.9672789 15.5507619,22.9672789 C15.682892,22.9672789 15.7900042,23.0994078 15.7900042,23.262397 L15.7900042,29.8494353 C15.7900042,30.0124246 15.682892,30.1445535 15.5507619,30.1445535 Z" id="Shape" fill="url(#linearGradient-6)"></path>
                            <path d="M17.9431866,32.0584934 C17.8110566,32.0584934 17.7039441,31.9261469 17.7039441,31.762889 L17.7039441,25.1768232 C17.7039441,25.0135654 17.8110566,24.8812188 17.9431866,24.8812188 C18.0753166,24.8812188 18.1824291,25.0135654 18.1824291,25.1768232 L18.1824291,31.762889 C18.1824291,31.9261469 18.0753166,32.0584934 17.9431866,32.0584934 Z" id="Shape" fill="url(#linearGradient-2)"></path>
                            <path d="M12.9190944,16.705916 L12.9190944,16.7884418 C12.9190747,16.944569 13.0095388,17.0890212 13.1568321,17.1680606 C13.3053538,17.2451514 13.4874372,17.2445509 13.6353466,17.1664827 C13.783256,17.0884145 13.8748534,16.9445631 13.8760643,16.7884418 L13.8760643,16.705916 C13.874849,16.5493761 13.783321,16.4050512 13.635317,16.3262972 C13.4872267,16.2487941 13.3051898,16.2492507 13.1575668,16.3274952 C13.0099434,16.4057398 12.9190785,16.5499289 12.9190944,16.705916 Z" id="Shape" fill="url(#linearGradient-7)" opacity="0.6"></path>
                            <path d="M12.9190944,14.3121858 L12.9190944,14.3946018 C12.918464,14.5506703 13.0090902,14.6951909 13.1568353,14.7737154 C13.3051096,14.8525242 13.4882569,14.8528253 13.6368412,14.7745044 C13.785426,14.6961835 13.8767006,14.5512312 13.8760643,14.3946018 L13.8760643,14.3121858 C13.8756236,14.1563781 13.7837428,14.0127369 13.6353159,13.9358194 C13.4879458,13.8568244 13.3054732,13.8561057 13.1573618,13.9339372 C13.0092504,14.0117685 12.9182868,14.1561758 12.9190944,14.3121858 Z" id="Shape" fill="url(#linearGradient-8)" opacity="0.6"></path>
                            <path d="M12.9190944,11.9197609 L12.9190944,12.0021769 C12.918464,12.1582454 13.0090902,12.302766 13.1568353,12.3812905 C13.3051096,12.4600994 13.4882569,12.4604004 13.6368412,12.3820795 C13.785426,12.3037586 13.8767006,12.1588063 13.8760643,12.0021769 L13.8760643,11.9197609 C13.8756236,11.7639531 13.7837428,11.620312 13.6353159,11.5433945 C13.4879458,11.4643995 13.3054732,11.4636808 13.1573618,11.5415123 C13.0092504,11.6193436 12.9182868,11.7637509 12.9190944,11.9197609 Z" id="Shape" fill="url(#linearGradient-8)" opacity="0.6"></path>
                        </g>
                        <polygon id="Shape" fill="url(#linearGradient-9)" points="26.6164201 31.3307716 54.2773095 15.3643719 54.2773095 48.6064358 26.6164201 64.5728355"></polygon>
                    </g>
                    <g id="Group-20-Copy-5" transform="translate(303.369508, 102.000000)" fill-rule="nonzero">
                        <polygon id="Shape" stroke="#FFFFFF" stroke-width="0.569625015" fill="#F7F7F7" stroke-linecap="round" stroke-linejoin="round" points="23.9547791 28.1976956 -3.05985634e-15 14.3715139 24.8948011 9.17956902e-15 48.8495805 13.8279352"></polygon>
                        <polygon id="Shape" fill="#E6E9ED" points="6.42569831e-14 14.3715139 6.42569831e-14 44.2893726 23.9547791 58.1155543 23.9547791 28.1976956"></polygon>
                        <g id="Group-21" transform="translate(3.014455, 22.823734)">
                            <path d="M0.215318248,6.45954744 C0.0964013067,6.45954744 0,6.34043548 0,6.19350349 L0,0.266043947 C0,0.119111957 0.0964013067,0 0.215318248,0 C0.334235189,0 0.430636496,0.119111957 0.430636496,0.266043947 L0.430636496,6.19350349 C0.430636496,6.34043548 0.334235189,6.45954744 0.215318248,6.45954744 Z" id="Shape" fill="url(#linearGradient-10)"></path>
                            <path d="M2.36850053,8.18209342 C2.24958348,8.18209342 2.15318248,8.06293239 2.15318248,7.91593981 L2.15318248,1.9886996 C2.15318248,1.84170702 2.24958348,1.72254598 2.36850053,1.72254598 C2.48741758,1.72254598 2.58381897,1.84170702 2.58381897,1.9886996 L2.58381897,7.91593981 C2.58381897,8.06293239 2.48741758,8.18209342 2.36850053,8.18209342 Z" id="Shape" fill="url(#linearGradient-11)"></path>
                            <path d="M4.52168321,9.9046394 C4.40276626,9.9046394 4.30636496,9.7854293 4.30636496,9.63837613 L4.30636496,3.71135524 C4.30636496,3.56430207 4.40276626,3.44509197 4.52168321,3.44509197 C4.64060015,3.44509197 4.73700145,3.56430207 4.73700145,3.71135524 L4.73700145,9.63837613 C4.73700145,9.7854293 4.64060015,9.9046394 4.52168321,9.9046394 Z" id="Shape" fill="url(#linearGradient-12)"></path>
                            <path d="M11.8425038,25.4075533 C11.7235868,25.4075533 11.6271854,25.2883922 11.6271854,25.1413996 L11.6271854,19.2141594 C11.6271854,19.0671668 11.7235868,18.9480058 11.8425038,18.9480058 C11.9614209,18.9480058 12.0578219,19.0671668 12.0578219,19.2141594 L12.0578219,25.1413996 C12.0578219,25.2883922 11.9614209,25.4075533 11.8425038,25.4075533 Z" id="Shape" fill="url(#linearGradient-13)"></path>
                            <path d="M13.9956863,27.1300992 C13.8767693,27.1300992 13.7803679,27.0111832 13.7803679,26.8644928 L13.7803679,20.9361582 C13.7803679,20.7894678 13.8767693,20.6705518 13.9956863,20.6705518 C14.1146034,20.6705518 14.2110044,20.7894678 14.2110044,20.9361582 L14.2110044,26.8644928 C14.2110044,27.0111832 14.1146034,27.1300992 13.9956863,27.1300992 Z" id="Shape" fill="url(#linearGradient-14)"></path>
                            <path d="M16.1488686,28.8526452 C16.0299516,28.8526452 15.9335503,28.7335333 15.9335503,28.5866013 L15.9335503,22.6591417 C15.9335503,22.5122097 16.0299516,22.3930978 16.1488686,22.3930978 C16.2677856,22.3930978 16.3641868,22.5122097 16.3641868,22.6591417 L16.3641868,28.5866013 C16.3641868,28.7335333 16.2677856,28.8526452 16.1488686,28.8526452 Z" id="Shape" fill="url(#linearGradient-10)"></path>
                            <path d="M11.6271854,15.035325 L11.6271854,15.1095982 C11.6271677,15.2501127 11.7085854,15.3801197 11.8411493,15.4512552 C11.9748189,15.5206368 12.1386939,15.5200965 12.2718124,15.449835 C12.4049309,15.3795736 12.4873685,15.2501074 12.4884584,15.1095982 L12.4884584,15.035325 C12.4873646,14.8944391 12.4049894,14.7645467 12.2717858,14.693668 C12.1385045,14.6239153 11.9746713,14.6243262 11.8418106,14.6947463 C11.7089495,14.7651664 11.6271711,14.8949366 11.6271854,15.035325 Z" id="Shape" fill="url(#linearGradient-7)" opacity="0.6"></path>
                            <path d="M11.6271854,12.8809677 L11.6271854,12.9551421 C11.626618,13.0956038 11.7081816,13.2256723 11.8411522,13.2963444 C11.9745991,13.3672724 12.1394317,13.3675433 12.2731575,13.2970545 C12.4068839,13.2265657 12.489031,13.0961086 12.4884584,12.9551421 L12.4884584,12.8809677 C12.4880618,12.7407408 12.405369,12.6114637 12.2717848,12.542238 C12.1391517,12.4711424 11.9749263,12.4704957 11.8416261,12.5405439 C11.7083258,12.6105922 11.6264586,12.7405587 11.6271854,12.8809677 Z" id="Shape" fill="url(#linearGradient-8)" opacity="0.6"></path>
                            <path d="M11.6271854,10.7277853 L11.6271854,10.8019596 C11.626618,10.9424213 11.7081816,11.0724898 11.8411522,11.1431619 C11.9745991,11.2140899 12.1394317,11.2143608 12.2731575,11.143872 C12.4068839,11.0733832 12.489031,10.9429261 12.4884584,10.8019596 L12.4884584,10.7277853 C12.4880618,10.5875582 12.405369,10.4582813 12.2717848,10.3890555 C12.1391517,10.3179599 11.9749263,10.3173132 11.8416261,10.3873615 C11.7083258,10.4574097 11.6264586,10.5873762 11.6271854,10.7277853 Z" id="Shape" fill="url(#linearGradient-8)" opacity="0.6"></path>
                        </g>
                        <polygon id="Shape" fill="url(#linearGradient-15)" points="23.9547791 28.1976956 48.8495805 13.8279352 48.8495805 43.7457939 23.9547791 58.1155543"></polygon>
                    </g>
                    <g id="Group-20-Copy-7" transform="translate(339.825509, 176.051252)" fill-rule="nonzero">
                        <polygon id="Shape" stroke="#FFFFFF" stroke-width="0.569625015" fill="#F7F7F7" stroke-linecap="round" stroke-linejoin="round" points="7.18643329 8.45930817 -9.17956847e-16 4.31145391 7.46843989 2.75387054e-15 14.6548733 4.14838032"></polygon>
                        <polygon id="Shape" fill="#E6E9ED" points="1.92770938e-14 4.31145391 1.92770938e-14 13.286811 7.18643329 17.4346652 7.18643329 8.45930817"></polygon>
                        <g id="Group-21" transform="translate(0.904337, 6.847120)">
                            <path d="M0.0645954705,1.93786412 C0.0289203903,1.93786412 0,1.90213053 0,1.85805094 L0,0.0798131794 C0,0.035733585 0.0289203903,0 0.0645954705,0 C0.100270551,0 0.129190941,0.035733585 0.129190941,0.0798131794 L0.129190941,1.85805094 C0.129190941,1.90213053 0.100270551,1.93786412 0.0645954705,1.93786412 Z" id="Shape" fill="url(#linearGradient-16)"></path>
                            <path d="M0.710550117,2.45462788 C0.674875004,2.45462788 0.645954705,2.41887957 0.645954705,2.3747818 L0.645954705,0.596609843 C0.645954705,0.552512072 0.674875004,0.516763764 0.710550117,0.516763764 C0.74622523,0.516763764 0.775145646,0.552512072 0.775145646,0.596609843 L0.775145646,2.3747818 C0.775145646,2.41887957 0.74622523,2.45462788 0.710550117,2.45462788 Z" id="Shape" fill="url(#linearGradient-17)"></path>
                            <path d="M1.35650488,2.97139164 C1.3208298,2.97139164 1.29190941,2.93562861 1.29190941,2.89151267 L1.29190941,1.11340651 C1.29190941,1.06929056 1.3208298,1.03352753 1.35650488,1.03352753 C1.39217996,1.03352753 1.42110035,1.06929056 1.42110035,1.11340651 L1.42110035,2.89151267 C1.42110035,2.93562861 1.39217996,2.97139164 1.35650488,2.97139164 Z" id="Shape" fill="url(#linearGradient-18)"></path>
                            <path d="M3.55275094,7.62226552 C3.51707582,7.62226552 3.48815541,7.58651721 3.48815541,7.54241944 L3.48815541,5.76424748 C3.48815541,5.72014971 3.51707582,5.68440141 3.55275094,5.68440141 C3.58842605,5.68440141 3.61734635,5.72014971 3.61734635,5.76424748 L3.61734635,7.54241944 C3.61734635,7.58651721 3.58842605,7.62226552 3.55275094,7.62226552 Z" id="Shape" fill="url(#linearGradient-19)"></path>
                            <path d="M4.19870564,8.13902929 C4.16303053,8.13902929 4.13411011,8.10335447 4.13411011,8.05934736 L4.13411011,6.28084708 C4.13411011,6.23683998 4.16303053,6.20116517 4.19870564,6.20116517 C4.23438076,6.20116517 4.26330105,6.23683998 4.26330105,6.28084708 L4.26330105,8.05934736 C4.26330105,8.10335447 4.23438076,8.13902929 4.19870564,8.13902929 Z" id="Shape" fill="url(#linearGradient-20)"></path>
                            <path d="M4.84466029,8.65579305 C4.8089852,8.65579305 4.78006482,8.62005948 4.78006482,8.57597987 L4.78006482,6.79774212 C4.78006482,6.75366251 4.8089852,6.71792893 4.84466029,6.71792893 C4.88033538,6.71792893 4.90925576,6.75366251 4.90925576,6.79774212 L4.90925576,8.57597987 C4.90925576,8.62005948 4.88033538,8.65579305 4.84466029,8.65579305 Z" id="Shape" fill="url(#linearGradient-16)"></path>
                            <path d="M3.48815541,4.51059722 L3.48815541,4.53287919 C3.48815541,4.57503354 3.51257541,4.61403564 3.55234459,4.63537628 C3.59244544,4.65619078 3.64160796,4.65602866 3.6815435,4.63495023 C3.72147903,4.61387181 3.74621034,4.57503195 3.74653729,4.53287919 L3.74653729,4.51059722 C3.74620916,4.46833147 3.7214966,4.42936375 3.68153553,4.40810015 C3.64155114,4.38717433 3.59240116,4.38729759 3.55254297,4.40842362 C3.51268464,4.42954965 3.48815541,4.46848073 3.48815541,4.51059722 Z" id="Shape" fill="url(#linearGradient-7)" opacity="0.6"></path>
                            <path d="M3.48815541,3.86429009 L3.48815541,3.8865424 C3.4879852,3.9286809 3.51245428,3.96770146 3.55234546,3.98890308 C3.59237953,4.01018147 3.64182928,4.01026275 3.68194704,3.98911611 C3.72206495,3.96796948 3.74670909,3.92883234 3.74653729,3.8865424 L3.74653729,3.86429009 C3.7464183,3.822222 3.72161047,3.78343889 3.68153522,3.76267117 C3.6417453,3.74134251 3.59247768,3.74114847 3.55248761,3.76216296 C3.51249753,3.78317743 3.48793738,3.82216739 3.48815541,3.86429009 Z" id="Shape" fill="url(#linearGradient-8)" opacity="0.6"></path>
                            <path d="M3.48815541,3.21833539 L3.48815541,3.2405877 C3.4879852,3.28272619 3.51245428,3.32174676 3.55234546,3.34294836 C3.59237953,3.36422676 3.64182928,3.36430805 3.68194704,3.3431614 C3.72206495,3.32201476 3.74670909,3.28287764 3.74653729,3.2405877 L3.74653729,3.21833539 C3.7464183,3.17626728 3.72161047,3.13748419 3.68153522,3.11671646 C3.6417453,3.0953878 3.59247768,3.09519377 3.55248761,3.11620825 C3.51249753,3.13722272 3.48793738,3.17621269 3.48815541,3.21833539 Z" id="Shape" fill="url(#linearGradient-8)" opacity="0.6"></path>
                        </g>
                        <polygon id="Shape" fill="url(#linearGradient-21)" points="7.18643329 8.45930817 14.6548733 4.14838032 14.6548733 13.1237374 7.18643329 17.4346652"></polygon>
                    </g>
                    <g id="Group-20-Copy-6" transform="translate(317.040508, 181.747502)" fill-rule="nonzero">
                        <polygon id="Shape" stroke="#FFFFFF" stroke-width="0.683549978" fill="#F7F7F7" stroke-linecap="round" stroke-linejoin="round" points="14.3728666 16.9186163 -1.83591369e-15 8.62290781 14.9368798 5.50774108e-15 29.3097465 8.29676064"></polygon>
                        <polygon id="Shape" fill="#E6E9ED" points="3.85541876e-14 8.62290781 3.85541876e-14 26.573622 14.3728666 34.8693305 14.3728666 16.9186163"></polygon>
                        <g id="Group-21" transform="translate(1.808673, 13.694240)">
                            <path d="M0.129190941,3.87572823 C0.0578407806,3.87572823 0,3.80426106 0,3.71610187 L0,0.159626359 C0,0.07146717 0.0578407806,0 0.129190941,0 C0.200541102,0 0.258381882,0.07146717 0.258381882,0.159626359 L0.258381882,3.71610187 C0.258381882,3.80426106 0.200541102,3.87572823 0.129190941,3.87572823 Z" id="Shape" fill="url(#linearGradient-22)"></path>
                            <path d="M1.42110023,4.90925576 C1.34975001,4.90925576 1.29190941,4.83775914 1.29190941,4.7495636 L1.29190941,1.19321969 C1.29190941,1.10502414 1.34975001,1.03352753 1.42110023,1.03352753 C1.49245046,1.03352753 1.55029129,1.10502414 1.55029129,1.19321969 L1.55029129,4.7495636 C1.55029129,4.83775914 1.49245046,4.90925576 1.42110023,4.90925576 Z" id="Shape" fill="url(#linearGradient-23)"></path>
                            <path d="M2.71300976,5.94278329 C2.6416596,5.94278329 2.58381882,5.87125723 2.58381882,5.78302533 L2.58381882,2.22681301 C2.58381882,2.13858112 2.6416596,2.06705506 2.71300976,2.06705506 C2.78435992,2.06705506 2.8422007,2.13858112 2.8422007,2.22681301 L2.8422007,5.78302533 C2.8422007,5.87125723 2.78435992,5.94278329 2.71300976,5.94278329 Z" id="Shape" fill="url(#linearGradient-24)"></path>
                            <path d="M7.10550187,15.244531 C7.03415165,15.244531 6.97631082,15.1730344 6.97631082,15.0848389 L6.97631082,11.528495 C6.97631082,11.4402994 7.03415165,11.3688028 7.10550187,11.3688028 C7.1768521,11.3688028 7.2346927,11.4402994 7.2346927,11.528495 L7.2346927,15.0848389 C7.2346927,15.1730344 7.1768521,15.244531 7.10550187,15.244531 Z" id="Shape" fill="url(#linearGradient-25)"></path>
                            <path d="M8.39741128,16.2780586 C8.32606106,16.2780586 8.26822023,16.2067089 8.26822023,16.1186947 L8.26822023,12.5616942 C8.26822023,12.47368 8.32606106,12.4023303 8.39741128,12.4023303 C8.46876151,12.4023303 8.52660211,12.47368 8.52660211,12.5616942 L8.52660211,16.1186947 C8.52660211,16.2067089 8.46876151,16.2780586 8.39741128,16.2780586 Z" id="Shape" fill="url(#linearGradient-26)"></path>
                            <path d="M9.68932058,17.3115861 C9.61797039,17.3115861 9.56012964,17.240119 9.56012964,17.1519597 L9.56012964,13.5954842 C9.56012964,13.507325 9.61797039,13.4358579 9.68932058,13.4358579 C9.76067076,13.4358579 9.81851152,13.507325 9.81851152,13.5954842 L9.81851152,17.1519597 C9.81851152,17.240119 9.76067076,17.3115861 9.68932058,17.3115861 Z" id="Shape" fill="url(#linearGradient-22)"></path>
                            <path d="M6.97631082,9.02119444 L6.97631082,9.06575838 C6.97630019,9.15006708 7.02515081,9.22807128 7.10468918,9.27075256 C7.18489089,9.31238155 7.28321593,9.31205732 7.363087,9.26990046 C7.44295807,9.22774363 7.49242068,9.1500639 7.49307458,9.06575838 L7.49307458,9.02119444 C7.49241831,8.93666294 7.4429932,8.85872749 7.36307106,8.81620029 C7.28310227,8.77434866 7.18480232,8.77459518 7.10508595,8.81684724 C7.02536927,8.85909929 6.97631082,8.93696145 6.97631082,9.02119444 Z" id="Shape" fill="url(#linearGradient-7)" opacity="0.6"></path>
                            <path d="M6.97631082,7.72858018 L6.97631082,7.77308481 C6.9759704,7.85736179 7.02490855,7.93540292 7.10469092,7.97780615 C7.18475905,8.02036293 7.28365857,8.02052551 7.36389409,7.97823222 C7.4441299,7.93593895 7.49341818,7.85766468 7.49307458,7.77308481 L7.49307458,7.72858018 C7.49283661,7.644444 7.44322094,7.56687779 7.36307044,7.52534233 C7.28349059,7.48268501 7.18495537,7.48229695 7.10497521,7.52432591 C7.02499505,7.56635485 6.97587475,7.64433478 6.97631082,7.72858018 Z" id="Shape" fill="url(#linearGradient-8)" opacity="0.6"></path>
                            <path d="M6.97631082,6.43667077 L6.97631082,6.4811754 C6.9759704,6.56545239 7.02490855,6.64349351 7.10469092,6.68589672 C7.18475905,6.72845353 7.28365857,6.7286161 7.36389409,6.68632281 C7.4441299,6.64402952 7.49341818,6.56575527 7.49307458,6.4811754 L7.49307458,6.43667077 C7.49283661,6.35253456 7.44322094,6.27496838 7.36307044,6.23343292 C7.28349059,6.1907756 7.18495537,6.19038754 7.10497521,6.2324165 C7.02499505,6.27444544 6.97587475,6.35242537 6.97631082,6.43667077 Z" id="Shape" fill="url(#linearGradient-8)" opacity="0.6"></path>
                        </g>
                        <polygon id="Shape" fill="url(#linearGradient-27)" points="14.3728666 16.9186163 29.3097465 8.29676064 29.3097465 26.2474748 14.3728666 34.8693305"></polygon>
                    </g>
                    <g id="Group-5" transform="translate(72.152251, 189.114753)">
                        <polygon id="Shape" stroke="#FFFFFF" stroke-width="0.637129629" fill="#F7F7F7" fill-rule="nonzero" stroke-linecap="round" stroke-linejoin="round" points="58.6472339 68.0314304 0.904813738 34.6936231 60.9128668 0.0490630006 118.655287 33.3824104"></polygon>
                        <polygon id="Shape" fill="#EDEFF1" fill-rule="nonzero" points="0.904813738 34.6936231 0.904813738 106.823704 58.6472339 140.157052 58.6472339 68.0314304"></polygon>
                        <polygon id="Shape" fill="url(#linearGradient-28)" fill-rule="nonzero" points="58.6472339 68.0314304 118.655287 33.3824104 118.655287 105.512492 58.6472339 140.157052"></polygon>
                        <polygon id="Shape" fill="#E0E8EA" fill-rule="nonzero" opacity="0.4" points="58.9772671 58.7414435 18.1245159 35.1529936 60.5828337 10.6413429 101.435585 34.2297928"></polygon>
                        <polygon id="Shape" fill="#DBDEE2" fill-rule="nonzero" points="101.435585 34.2297928 60.5828337 10.6413429 60.4445766 16.716862 95.8461956 37.3076915"></polygon>
                        <polygon id="Shape" fill="#E7E9EB" fill-rule="nonzero" points="60.5828337 10.6413429 18.1245159 35.1529936 23.575648 38.1550739 60.4445766 16.716862"></polygon>
                        <line x1="38.2832971" y1="56.3643128" x2="38.2832971" y2="128.494394" id="Shape" stroke="#FFFFFF" stroke-width="0.637129629" opacity="0.4"></line>
                        <line x1="18.1245159" y1="44.6659759" x2="18.1245159" y2="116.796057" id="Shape" stroke="#FFFFFF" stroke-width="0.637129629" opacity="0.4"></line>
                        <polyline id="Shape" stroke="#FFFFFF" stroke-width="0.637129629" opacity="0.40359933" points="99.5579639 44.5143391 99.3840275 44.6213768 99.3840275 116.751458 99.5579639 116.64442"></polyline>
                        <line x1="79.3099846" y1="56.3643128" x2="79.3099846" y2="128.494394" id="Shape" stroke="#FFFFFF" stroke-width="0.637129629" opacity="0.4"></line>
                        <line x1="0.904813738" y1="58.7414435" x2="58.6472339" y2="92.0792507" id="Shape" stroke="#FFFFFF" stroke-width="0.637129629" opacity="0.4"></line>
                        <line x1="0.953872718" y1="82.9676601" x2="58.6962929" y2="116.305467" id="Shape" stroke="#FFFFFF" stroke-width="0.637129629" opacity="0.4"></line>
                        <line x1="118.04874" y1="57.5283487" x2="58.6160146" y2="91.8384157" id="Shape" stroke="#FFFFFF" stroke-width="0.637129629" opacity="0.4"></line>
                        <line x1="118.637447" y1="82.1158178" x2="58.6472339" y2="116.751458" id="Shape" stroke="#FFFFFF" stroke-width="0.637129629" opacity="0.4"></line>
                    </g>
                </g>
            </g>
        </g>
    </g>
</svg>