<?xml version="1.0" encoding="UTF-8"?>
<svg width="309px" height="319px" viewBox="0 0 309 319" version="1.1" xmlns="http://www.w3.org/2000/svg" xmlns:xlink="http://www.w3.org/1999/xlink">
    <!-- Generator: Sketch 63.1 (92452) - https://sketch.com -->
    <title>illustration-screening</title>
    <desc>Created with Sketch.</desc>
    <defs>
        <linearGradient x1="37.3680194%" y1="24.6689779%" x2="62.6319806%" y2="75.335199%" id="linearGradient-1">
            <stop stop-color="#CFD8DB" offset="0%"></stop>
            <stop stop-color="#CFD8DB" offset="100%"></stop>
        </linearGradient>
    </defs>
    <g id="Services" stroke="none" stroke-width="1" fill="none" fill-rule="evenodd">
        <g id="Service_desktop-Development-Team" transform="translate(-204.000000, -2100.000000)" fill-rule="nonzero">
            <g id="Screening" transform="translate(128.000000, 2013.000000)">
                <g id="illustration-screening" transform="translate(0.000000, 25.000000)">
                    <g id="Group-11" transform="translate(76.000000, 191.000000)">
                        <path d="M157.296949,173.923854 C80.9201468,131.342952 76.3394084,129.910394 -1.96073129e-14,87.3106418 L151.444822,6.86255952e-14 C227.653352,42.8070957 231.991031,44.4658471 308.180864,87.2729429 C257.886226,116.175429 207.591587,145.059066 157.296949,173.923854 Z" id="Path" fill="#F9F9F9"></path>
                        <polygon id="Path" fill="#EDEFF1" points="157.306493 173.575216 -2.84217094e-14 85.4362792 -2.84217094e-14 101.442228 40.6121124 124.372375 157.306493 189.808572 308.180864 102.636112 308.180864 86.5164596"></polygon>
                        <polygon id="Path" fill="#CFD8DB" points="157.459272 173.725677 157.141728 173.555811 157.141728 189.619832 157.459272 189.808572 308.180864 102.9882 308.180864 86.961927"></polygon>
                    </g>
                    <g id="Group-7-Copy-2" opacity="0.403576079" transform="translate(147.000000, 63.000000)">
                        <polygon id="Shape" stroke="#FFFFFF" stroke-width="0.90779481" fill="#F7F7F7" stroke-linecap="round" stroke-linejoin="round" points="15.9725308 56.5626101 1.04138297 47.9420548 86.7047453 -2.1245229e-13 101.473183 7.19400583"></polygon>
                        <polygon id="Shape" fill="#EDEFF1" points="0.904740596 217.100012 15.9725308 225.556227 15.9725308 56.5626101 1.10880652 47.9809821"></polygon>
                        <polygon id="Shape" fill="url(#linearGradient-1)" points="15.9725308 56.5626101 101.473183 7.19400583 101.473183 176.193978 15.9725308 225.556227"></polygon>
                        <polygon id="Shape" fill="#F7F7F7" points="67.6000037 47.5844557 91.000005 33.8000019 91.000005 75.9173254 67.6000037 89.7000049"></polygon>
                        <path d="M91.3733007,116.957366 L30.519782,152.090645 C29.2457821,152.833205 28.2047421,152.046965 28.2047421,150.336165 L28.2047421,150.336165 C28.2343868,148.578015 29.0926114,146.937133 30.519782,145.909925 L91.3733007,110.776646 C92.6545807,110.041366 93.7247407,110.820326 93.7247407,112.531126 L93.7247407,112.531126 C93.6901225,114.296711 92.8169505,115.940329 91.3733007,116.957366 Z" id="Path" fill="#FFFFFF"></path>
                        <path d="M91.3733007,98.7574812 L30.519782,133.89076 C29.2457821,134.63332 28.2047421,133.84708 28.2047421,132.13628 L28.2047421,132.13628 C28.2343868,130.37813 29.0926114,128.737248 30.519782,127.710041 L91.3733007,92.5767613 C92.6545807,91.8414813 93.7247407,92.6204413 93.7247407,94.3312413 L93.7247407,94.3312413 C93.6901225,96.0968263 92.8169505,97.7404442 91.3733007,98.7574812 Z" id="Path-Copy-2" fill="#FFFFFF"></path>
                        <path d="M56.1547436,76.3807237 L30.519782,90.9907581 C29.2457821,91.7333181 28.2047421,90.9470781 28.2047421,89.2362781 C28.2343868,87.4781278 29.0926114,85.8372457 30.519782,84.8100382 L56.1547436,70.2000039 C57.4360236,69.4647239 58.5061836,70.2436839 58.5061836,71.9544838 C58.4715654,73.7200688 57.5983934,75.3636867 56.1547436,76.3807237 Z" id="Path-Copy-4" fill="#FFFFFF"></path>
                        <path d="M56.1547436,59.7574791 L30.519782,74.3675134 C29.2457821,75.1100734 28.2047421,74.3238334 28.2047421,72.6130334 C28.2343868,70.8548831 29.0926114,69.214001 30.519782,68.1867935 L56.1547436,53.5767592 C57.4360236,52.8414792 58.5061836,53.6204392 58.5061836,55.3312391 C58.4715654,57.0968242 57.5983934,58.740442 56.1547436,59.7574791 Z" id="Path-Copy-6" fill="#FFFFFF"></path>
                        <path d="M56.1547436,92.2574808 L30.519782,106.867515 C29.2457821,107.610075 28.2047421,106.823835 28.2047421,105.113035 C28.2343868,103.354885 29.0926114,101.714003 30.519782,100.686795 L56.1547436,86.076761 C57.4360236,85.341481 58.5061836,86.120441 58.5061836,87.8312409 C58.4715654,89.596826 57.5983934,91.2404438 56.1547436,92.2574808 Z" id="Path-Copy-5" fill="#FFFFFF"></path>
                        <path d="M91.3733007,135.186486 L30.519782,170.319765 C29.2457821,171.055045 28.2047421,170.276085 28.2047421,168.565285 L28.2047421,168.565285 C28.2332365,166.806842 29.0917147,165.165475 30.519782,164.139045 L91.3733007,129.005766 C92.6545807,128.277766 93.6956207,129.049446 93.6956207,130.752966 L93.6956207,130.752966 C93.6677228,132.515292 92.806161,134.160092 91.3733007,135.186486 Z" id="Path" fill="#FFFFFF"></path>
                        <path d="M91.3733007,153.408325 L30.519782,188.541604 C29.2457821,189.269604 28.2047421,188.497924 28.2047421,186.794404 L28.2047421,186.794404 C28.2332512,185.033967 29.0914727,183.390392 30.519782,182.360885 L91.3733007,147.227605 C92.6545807,146.499605 93.6956207,147.278565 93.6956207,148.982085 L93.6956207,148.982085 C93.6700775,150.743015 92.8077362,152.3866 91.3733007,153.408325 Z" id="Path" fill="#FFFFFF"></path>
                    </g>
                    <g id="Group-7-Copy" opacity="0.748790923" transform="translate(181.000000, 82.000000)">
                        <polygon id="Shape" stroke="#FFFFFF" stroke-width="0.90779481" fill="#F7F7F7" stroke-linecap="round" stroke-linejoin="round" points="15.9725308 56.5626101 1.04138297 47.9420548 86.7047453 -2.1245229e-13 101.473183 7.19400583"></polygon>
                        <polygon id="Shape" fill="#EDEFF1" points="0.904740596 217.100012 15.9725308 225.556227 15.9725308 56.5626101 1.10880652 47.9809821"></polygon>
                        <polygon id="Shape" fill="url(#linearGradient-1)" points="15.9725308 56.5626101 101.473183 7.19400583 101.473183 176.193978 15.9725308 225.556227"></polygon>
                        <polygon id="Shape" fill="#F7F7F7" points="67.6000037 47.5844557 91.000005 33.8000019 91.000005 75.9173254 67.6000037 89.7000049"></polygon>
                        <path d="M91.3733007,116.957366 L30.519782,152.090645 C29.2457821,152.833205 28.2047421,152.046965 28.2047421,150.336165 L28.2047421,150.336165 C28.2343868,148.578015 29.0926114,146.937133 30.519782,145.909925 L91.3733007,110.776646 C92.6545807,110.041366 93.7247407,110.820326 93.7247407,112.531126 L93.7247407,112.531126 C93.6901225,114.296711 92.8169505,115.940329 91.3733007,116.957366 Z" id="Path" fill="#FFFFFF"></path>
                        <path d="M91.3733007,98.7574812 L30.519782,133.89076 C29.2457821,134.63332 28.2047421,133.84708 28.2047421,132.13628 L28.2047421,132.13628 C28.2343868,130.37813 29.0926114,128.737248 30.519782,127.710041 L91.3733007,92.5767613 C92.6545807,91.8414813 93.7247407,92.6204413 93.7247407,94.3312413 L93.7247407,94.3312413 C93.6901225,96.0968263 92.8169505,97.7404442 91.3733007,98.7574812 Z" id="Path-Copy-2" fill="#FFFFFF"></path>
                        <path d="M56.1547436,76.3807237 L30.519782,90.9907581 C29.2457821,91.7333181 28.2047421,90.9470781 28.2047421,89.2362781 C28.2343868,87.4781278 29.0926114,85.8372457 30.519782,84.8100382 L56.1547436,70.2000039 C57.4360236,69.4647239 58.5061836,70.2436839 58.5061836,71.9544838 C58.4715654,73.7200688 57.5983934,75.3636867 56.1547436,76.3807237 Z" id="Path-Copy-4" fill="#FFFFFF"></path>
                        <path d="M56.1547436,59.7574791 L30.519782,74.3675134 C29.2457821,75.1100734 28.2047421,74.3238334 28.2047421,72.6130334 C28.2343868,70.8548831 29.0926114,69.214001 30.519782,68.1867935 L56.1547436,53.5767592 C57.4360236,52.8414792 58.5061836,53.6204392 58.5061836,55.3312391 C58.4715654,57.0968242 57.5983934,58.740442 56.1547436,59.7574791 Z" id="Path-Copy-6" fill="#FFFFFF"></path>
                        <path d="M56.1547436,92.2574808 L30.519782,106.867515 C29.2457821,107.610075 28.2047421,106.823835 28.2047421,105.113035 C28.2343868,103.354885 29.0926114,101.714003 30.519782,100.686795 L56.1547436,86.076761 C57.4360236,85.341481 58.5061836,86.120441 58.5061836,87.8312409 C58.4715654,89.596826 57.5983934,91.2404438 56.1547436,92.2574808 Z" id="Path-Copy-5" fill="#FFFFFF"></path>
                        <path d="M91.3733007,135.186486 L30.519782,170.319765 C29.2457821,171.055045 28.2047421,170.276085 28.2047421,168.565285 L28.2047421,168.565285 C28.2332365,166.806842 29.0917147,165.165475 30.519782,164.139045 L91.3733007,129.005766 C92.6545807,128.277766 93.6956207,129.049446 93.6956207,130.752966 L93.6956207,130.752966 C93.6677228,132.515292 92.806161,134.160092 91.3733007,135.186486 Z" id="Path" fill="#FFFFFF"></path>
                        <path d="M91.3733007,153.408325 L30.519782,188.541604 C29.2457821,189.269604 28.2047421,188.497924 28.2047421,186.794404 L28.2047421,186.794404 C28.2332512,185.033967 29.0914727,183.390392 30.519782,182.360885 L91.3733007,147.227605 C92.6545807,146.499605 93.6956207,147.278565 93.6956207,148.982085 L93.6956207,148.982085 C93.6700775,150.743015 92.8077362,152.3866 91.3733007,153.408325 Z" id="Path" fill="#FFFFFF"></path>
                    </g>
                    <g id="Group-7" transform="translate(218.000000, 102.000000)">
                        <polygon id="Shape" stroke="#FFFFFF" stroke-width="0.90779481" fill="#E9EFFF" stroke-linecap="round" stroke-linejoin="round" points="15.9725308 56.5626101 1.04138297 47.9420548 86.7047453 -2.1245229e-13 101.473183 7.19400583"></polygon>
                        <polygon id="Shape" fill="#CBDBFF" points="0.904740596 217.100012 15.9725308 225.556227 15.9725308 56.5626101 1.10880652 47.9809821"></polygon>
                        <polygon id="Shape" fill="#9CBAFB" points="15.9725308 56.5626101 101.473183 7.19400583 101.473183 176.193978 15.9725308 225.556227"></polygon>
                        <polygon id="Shape" fill="#F7F7F7" points="67.6000037 47.5844557 91.000005 33.8000019 91.000005 75.9173254 67.6000037 89.7000049"></polygon>
                        <path d="M91.3733007,116.957366 L30.519782,152.090645 C29.2457821,152.833205 28.2047421,152.046965 28.2047421,150.336165 L28.2047421,150.336165 C28.2343868,148.578015 29.0926114,146.937133 30.519782,145.909925 L91.3733007,110.776646 C92.6545807,110.041366 93.7247407,110.820326 93.7247407,112.531126 L93.7247407,112.531126 C93.6901225,114.296711 92.8169505,115.940329 91.3733007,116.957366 Z" id="Path" fill="#EFF4FF"></path>
                        <path d="M91.3733007,98.7574812 L30.519782,133.89076 C29.2457821,134.63332 28.2047421,133.84708 28.2047421,132.13628 L28.2047421,132.13628 C28.2343868,130.37813 29.0926114,128.737248 30.519782,127.710041 L91.3733007,92.5767613 C92.6545807,91.8414813 93.7247407,92.6204413 93.7247407,94.3312413 L93.7247407,94.3312413 C93.6901225,96.0968263 92.8169505,97.7404442 91.3733007,98.7574812 Z" id="Path-Copy-2" fill="#EFF4FF"></path>
                        <path d="M56.1547436,76.3807237 L30.519782,90.9907581 C29.2457821,91.7333181 28.2047421,90.9470781 28.2047421,89.2362781 C28.2343868,87.4781278 29.0926114,85.8372457 30.519782,84.8100382 L56.1547436,70.2000039 C57.4360236,69.4647239 58.5061836,70.2436839 58.5061836,71.9544838 C58.4715654,73.7200688 57.5983934,75.3636867 56.1547436,76.3807237 Z" id="Path-Copy-4" fill="#EFF4FF"></path>
                        <path d="M56.1547436,59.7574791 L30.519782,74.3675134 C29.2457821,75.1100734 28.2047421,74.3238334 28.2047421,72.6130334 C28.2343868,70.8548831 29.0926114,69.214001 30.519782,68.1867935 L56.1547436,53.5767592 C57.4360236,52.8414792 58.5061836,53.6204392 58.5061836,55.3312391 C58.4715654,57.0968242 57.5983934,58.740442 56.1547436,59.7574791 Z" id="Path-Copy-6" fill="#EFF4FF"></path>
                        <path d="M56.1547436,92.2574808 L30.519782,106.867515 C29.2457821,107.610075 28.2047421,106.823835 28.2047421,105.113035 C28.2343868,103.354885 29.0926114,101.714003 30.519782,100.686795 L56.1547436,86.076761 C57.4360236,85.341481 58.5061836,86.120441 58.5061836,87.8312409 C58.4715654,89.596826 57.5983934,91.2404438 56.1547436,92.2574808 Z" id="Path-Copy-5" fill="#EFF4FF"></path>
                        <path d="M91.3733007,135.186486 L30.519782,170.319765 C29.2457821,171.055045 28.2047421,170.276085 28.2047421,168.565285 L28.2047421,168.565285 C28.2332365,166.806842 29.0917147,165.165475 30.519782,164.139045 L91.3733007,129.005766 C92.6545807,128.277766 93.6956207,129.049446 93.6956207,130.752966 L93.6956207,130.752966 C93.6677228,132.515292 92.806161,134.160092 91.3733007,135.186486 Z" id="Path" fill="#EFF4FF"></path>
                        <path d="M91.3733007,153.408325 L30.519782,188.541604 C29.2457821,189.269604 28.2047421,188.497924 28.2047421,186.794404 L28.2047421,186.794404 C28.2332512,185.033967 29.0914727,183.390392 30.519782,182.360885 L91.3733007,147.227605 C92.6545807,146.499605 93.6956207,147.278565 93.6956207,148.982085 L93.6956207,148.982085 C93.6700775,150.743015 92.8077362,152.3866 91.3733007,153.408325 Z" id="Path" fill="#EFF4FF"></path>
                    </g>
                </g>
            </g>
        </g>
    </g>
</svg>