<?xml version="1.0" encoding="UTF-8"?>
<svg width="464px" height="464px" viewBox="0 0 464 464" version="1.1" xmlns="http://www.w3.org/2000/svg" xmlns:xlink="http://www.w3.org/1999/xlink">
    <!-- Generator: Sketch 63.1 (92452) - https://sketch.com -->
    <title>Competetive</title>
    <desc>Created with Sketch.</desc>
    <g id="Services" stroke="none" stroke-width="1" fill="none" fill-rule="evenodd">
        <g id="Service_desktop-Development-Team" transform="translate(-128.000000, -4608.000000)">
            <rect fill="#FFFFFF" x="0" y="0" width="1400" height="6944"></rect>
            <g id="Transparency" transform="translate(128.000000, 4580.000000)">
                <g id="illustration-transparency" transform="translate(0.000000, 28.000000)">
                    <line x1="303.275407" y1="96.1772251" x2="302.852407" y2="151.380228" id="Path-9-Copy-8" stroke="#4B83FF" stroke-width="1.41" opacity="0.399781" stroke-linecap="round" stroke-linejoin="round" stroke-dasharray="1.536896401321897,4.610689876306083"></line>
                    <g id="illustration-secure" transform="translate(27.768448, 147.715503)" fill-rule="nonzero">
                        <path d="M138.020892,240.340623 C84.6686074,210.596141 53.3261633,193.10394 0,163.346291 L274.927527,0.428499487 C328.162266,30.3309866 359.334923,47.9811927 412.556602,77.8836798 C377.423764,98.0732352 173.15373,220.177402 138.020892,240.340623 Z" id="Path" fill="#F9F9F9"></path>
                        <polygon id="Path" fill="#EDEFF1" points="138.027558 240.097085 3.9495835e-13 163.000779 3.9495835e-13 167.505698 12.9483135 174.849082 138.027558 244.760857 243.419407 181.939758 243.419407 177.355413"></polygon>
                        <polygon id="Path" fill="#CFD8DB" points="138.119823 239.639574 137.898005 239.520916 137.898005 244.0664 138.119823 244.198243 412.070922 82.3511185 412.070922 77.8320029"></polygon>
                    </g>
                    <g id="chat" transform="translate(125.904452, 183.247504)" fill-rule="nonzero">
                        <path d="M211.418795,15.1332488 L217.090379,18.395425 L204.271787,19.261729 L42.2593942,112.795494 C32.5540817,118.399398 16.8523209,118.42647 7.20115238,112.795494 L7.20115238,112.795494 C-2.45001613,107.218662 -2.39587212,98.1630771 7.30944038,92.5591728 L161.51156,3.60057619 C169.782057,-1.17763206 183.169162,-1.20470406 191.358442,3.60057619 L211.418795,15.1332488 Z" id="Path" fill="#9CBAFB"></path>
                        <path d="M176.225193,12.3177606 L22.4426892,101.100389 C20.8630291,101.827955 19.0300265,101.752419 17.5155849,100.897349 L17.5155849,100.897349 C16.0536968,100.044581 15.9048008,98.7721971 17.1636489,98.0412531 L170.946153,9.25862448 C172.525813,8.53105872 174.358816,8.60659454 175.873257,9.46166449 L175.873257,9.46166449 C177.321609,10.3144325 177.497577,11.5868166 176.225193,12.3177606 Z" id="Path" fill="#FFFFFF"></path>
                        <path d="M186.404266,18.1923849 L116.165958,58.8003871 C114.586298,59.5279528 112.753295,59.452417 111.238854,58.5973471 L111.238854,58.5973471 C109.776966,57.758115 109.62807,56.4857309 110.886918,55.7547869 L181.125225,15.1467848 C182.704886,14.419219 184.537888,14.4947548 186.05233,15.3498248 L186.05233,15.3498248 C187.514218,16.2432008 187.663114,17.4614409 186.404266,18.1923849 Z" id="Path" fill="#FFFFFF"></path>
                        <path d="M34.7469138,167.629833 L40.4049621,170.905545 L41.8939222,163.501353 L134.750887,109.89879 C144.4562,104.294885 145.26836,97.0260531 138.568039,93.1547569 L138.568039,93.1547569 C128.916871,87.5779246 116.504358,88.1464366 106.78551,93.7638769 L21.7658891,142.845415 C13.4953927,147.623624 13.4547847,155.339144 21.6711371,160.076744 L34.7469138,167.629833 Z" id="Path" fill="#CFD8DB"></path>
                        <path d="M42.8820502,149.965352 L122.406054,104.051237 C123.664902,103.320293 123.50247,102.047909 122.054118,101.208677 L122.054118,101.208677 C120.539677,100.353607 118.706674,100.278071 117.127014,101.005637 L37.589474,146.919752 C36.3306259,147.650696 36.4930579,148.92308 37.954946,149.762312 L37.954946,149.762312 C39.4693876,150.617382 41.3023901,150.692918 42.8820502,149.965352 Z" id="Path" fill="#FFFFFF"></path>
                    </g>
                    <path d="M165.78934,333.912124 C112.437056,304.167642 81.0946115,286.675441 27.7684483,256.917792 L302.695975,94 C355.930714,123.902487 387.103372,141.552693 440.325051,171.45518 C405.192212,191.644736 200.922178,313.748902 165.78934,333.912124 Z" id="Path" fill="#9CBAFB" fill-rule="nonzero" opacity="0.12048"></path>
                    <line x1="28.1914483" y1="256.426507" x2="27.7684483" y2="311.629509" id="Path-9-Copy-2" stroke="#4B83FF" stroke-width="1.41" opacity="0.399781" stroke-linecap="round" stroke-linejoin="round" stroke-dasharray="1.536896401321897,4.610689876306083"></line>
                    <line x1="166.223402" y1="334.749234" x2="165.800402" y2="389.952237" id="Path-9-Copy-6" stroke="#4B83FF" stroke-width="1.41" opacity="0.399781" stroke-linecap="round" stroke-linejoin="round" stroke-dasharray="1.536896401321897,4.610689876306083"></line>
                    <line x1="439.481412" y1="173.163228" x2="439.058412" y2="228.366231" id="Path-9-Copy-7" stroke="#4B83FF" stroke-width="1.41" opacity="0.399781" stroke-linecap="round" stroke-linejoin="round" stroke-dasharray="1.536896401321897,4.610689876306083"></line>
                </g>
            </g>
        </g>
    </g>
</svg>