<?xml version="1.0" encoding="UTF-8"?>
<svg width="464px" height="465px" viewBox="0 0 464 465" version="1.1" xmlns="http://www.w3.org/2000/svg" xmlns:xlink="http://www.w3.org/1999/xlink">
    <!-- Generator: Sketch 63.1 (92452) - https://sketch.com -->
    <title>illustration-use correct dev strat</title>
    <desc>Created with Sketch.</desc>
    <defs>
        <linearGradient x1="37.3680194%" y1="24.6689779%" x2="62.6319806%" y2="75.335199%" id="linearGradient-1">
            <stop stop-color="#CFD8DB" offset="0%"></stop>
            <stop stop-color="#CFD8DB" offset="100%"></stop>
        </linearGradient>
        <linearGradient x1="59.8691335%" y1="0%" x2="0%" y2="0%" id="linearGradient-2">
            <stop stop-color="#CFD8DB" offset="0%"></stop>
            <stop stop-color="#FFFFFF" stop-opacity="0" offset="100%"></stop>
        </linearGradient>
        <linearGradient x1="59.8691335%" y1="0%" x2="0%" y2="0%" id="linearGradient-3">
            <stop stop-color="#CFD8DB" offset="0%"></stop>
            <stop stop-color="#FFFFFF" stop-opacity="0" offset="100%"></stop>
        </linearGradient>
        <linearGradient x1="9.18168608%" y1="39.7409294%" x2="121.717139%" y2="95.3370072%" id="linearGradient-4">
            <stop stop-color="#CFD8DB" offset="0%"></stop>
            <stop stop-color="#FFFFFF" stop-opacity="0" offset="100%"></stop>
        </linearGradient>
        <linearGradient x1="-0.0198669555%" y1="49.9778249%" x2="140.419352%" y2="94.5386366%" id="linearGradient-5">
            <stop stop-color="#CFD8DB" offset="0%"></stop>
            <stop stop-color="#FFFFFF" stop-opacity="0" offset="100%"></stop>
        </linearGradient>
        <linearGradient x1="-0.000131729468%" y1="50.0206673%" x2="100.002257%" y2="50.0206673%" id="linearGradient-6">
            <stop stop-color="#004FFF" offset="3%"></stop>
            <stop stop-color="#0452FF" stop-opacity="0.98" offset="14%"></stop>
            <stop stop-color="#115BFF" stop-opacity="0.93" offset="26%"></stop>
            <stop stop-color="#276AFF" stop-opacity="0.85" offset="38%"></stop>
            <stop stop-color="#457FFF" stop-opacity="0.73" offset="51%"></stop>
            <stop stop-color="#6C9AFF" stop-opacity="0.57" offset="64%"></stop>
            <stop stop-color="#9CBBFF" stop-opacity="0.39" offset="78%"></stop>
            <stop stop-color="#D4E1FF" stop-opacity="0.17" offset="91%"></stop>
            <stop stop-color="#FFFFFF" stop-opacity="0" offset="100%"></stop>
        </linearGradient>
        <linearGradient x1="6.81212704%" y1="55.5928927%" x2="128.605249%" y2="46.3645445%" id="linearGradient-7">
            <stop stop-color="#CFD8DB" offset="0%"></stop>
            <stop stop-color="#FFFFFF" stop-opacity="0" offset="100%"></stop>
        </linearGradient>
        <linearGradient x1="0%" y1="50.0019796%" x2="100%" y2="50.0019796%" id="linearGradient-8">
            <stop stop-color="#CFD8DB" offset="0%"></stop>
            <stop stop-color="#CFD8DB" offset="100%"></stop>
        </linearGradient>
        <linearGradient x1="0%" y1="50.0019796%" x2="100%" y2="50.0019796%" id="linearGradient-9">
            <stop stop-color="#CFD8DB" offset="0%"></stop>
            <stop stop-color="#CFD8DB" offset="100%"></stop>
        </linearGradient>
        <linearGradient x1="50%" y1="100%" x2="50%" y2="0%" id="linearGradient-10">
            <stop stop-color="#004FFF" offset="0%"></stop>
            <stop stop-color="#FFFFFF" stop-opacity="0" offset="100%"></stop>
        </linearGradient>
        <linearGradient x1="50.0034846%" y1="100%" x2="50.0034846%" y2="25.4750845%" id="linearGradient-11">
            <stop stop-color="#004FFF" offset="0%"></stop>
            <stop stop-color="#FFFFFF" stop-opacity="0" offset="100%"></stop>
        </linearGradient>
    </defs>
    <g id="Services" stroke="none" stroke-width="1" fill="none" fill-rule="evenodd">
        <g id="Service_desktop-cto" transform="translate(-814.000000, -2303.000000)">
            <rect fill="#FFFFFF" x="0" y="0" width="1400" height="5289"></rect>
            <g id="Group-4" transform="translate(878.000000, 2372.000000)">
                <g id="Group-14-Copy" transform="translate(76.000000, 109.000000)">
                    <g id="Group-11" transform="translate(0.000000, 95.222403)" fill-rule="nonzero">
                        <path d="M99.5944176,110.121939 C51.2355449,83.1613382 48.3351964,82.2542972 -1.24146013e-14,55.2817622 L95.8890744,4.34511046e-14 C144.141404,27.1038173 146.887856,28.1540753 195.128347,55.2578927 C163.283704,73.5578427 131.439061,91.845858 99.5944176,110.121939 Z" id="Path" fill="#F9F9F9"></path>
                        <polygon id="Path" fill="#EDEFF1" points="99.6004602 109.901194 -1.24146013e-14 54.0949874 -1.24146013e-14 68.6614753 25.7140378 83.1799682 99.6004602 124.611667 195.128347 69.4173968 195.128347 54.7789164"></polygon>
                        <polygon id="Path" fill="#CFD8DB" points="99.6971946 109.996461 99.4961375 109.888908 99.4961375 124.492164 99.6971946 124.611667 195.128347 69.6403252 195.128347 55.0609693"></polygon>
                        <path d="M99.5091473,85.9723906 C64.7398967,66.5717092 62.7237753,65.8690448 28.0134756,46.5279112 L96.8563561,6.76187342 C131.484125,26.2578314 133.405924,27.008134 168.080854,46.504092 L99.5091473,85.9723906 Z" id="Path" fill="#FCFCFC"></path>
                        <polygon id="Path" fill="#EDEFF1" points="99.5031297 86.1393167 28.0134756 46.367132 28.0134756 56.7430001 46.4635595 67.0951519 99.5149189 96.5981917 168.080854 57.3003325 168.080854 46.8533156"></polygon>
                        <polygon id="Path" fill="#CFD8DB" points="99.649097 86.0370965 99.4961375 85.9532782 99.4961375 96.5143735 99.649097 96.5981917 168.080854 56.9162533 168.080854 46.367132"></polygon>
                    </g>
                    <g id="Group-5" transform="translate(45.894395, 0.582404)">
                        <polygon id="Shape" stroke="#FFFFFF" stroke-width="0.574780986" fill="#F7F7F7" fill-rule="nonzero" stroke-linecap="round" stroke-linejoin="round" points="52.108095 61.3739667 0.0162699373 31.2985521 54.1520162 0.0442617618 106.243841 30.1156529"></polygon>
                        <polygon id="Shape" fill="#EDEFF1" fill-rule="nonzero" points="0.0162699373 31.2985521 0.0162699373 138.302877 52.108095 168.374268 52.108095 61.3739667"></polygon>
                        <polygon id="Shape" fill="url(#linearGradient-1)" fill-rule="nonzero" points="52.108095 61.3739667 106.243841 30.1156529 106.243841 137.119977 52.108095 168.374268"></polygon>
                        <polygon id="Shape" fill="#F3F4F5" fill-rule="nonzero" points="52.4058316 52.9930853 15.5508754 31.7129692 53.8542796 9.59999549 90.7092358 30.8801116"></polygon>
                        <polygon id="Shape" fill="#DBDEE2" fill-rule="nonzero" points="90.7092358 30.8801116 53.8542796 9.59999549 53.7295522 15.0809725 85.6668167 33.6568113"></polygon>
                        <polygon id="Shape" fill="#E7E9EB" fill-rule="nonzero" points="53.8542796 9.59999549 15.5508754 31.7129692 20.468567 34.42127 53.7295522 15.0809725"></polygon>
                        <polygon id="Path-7" fill="#BCCFD5" points="70.3983922 72.5087921 70.3983922 92.6015899 89.1807902 81.681591 89.1807902 61.5887932"></polygon>
                        <polygon id="Path-7-Copy-5" fill="#BCCFD5" points="52.0527943 147.201584 52.0527943 168.167982 70.3983922 158.121583 70.3983922 137.155185"></polygon>
                        <polygon id="Path-7-Copy-2" fill="#D3DEE1" points="70.3983922 93.0383898 70.3983922 114.004788 89.1807902 103.084789 89.1807902 82.118391"></polygon>
                        <polygon id="Path-7-Copy-4" fill="#D3DEE1" points="52.0527943 124.924786 52.0527943 147.638384 70.3983922 137.155185 70.3983922 114.441587"></polygon>
                        <polygon id="Path-7-Copy-6" fill="#D3DEE1" points="70.8351922 136.281585 70.8351922 157.684783 89.1807902 147.201584 89.1807902 125.798386"></polygon>
                        <polygon id="Path-7-Copy" fill="#BCCFD5" points="89.1807902 82.555191 89.1807902 103.521589 106.215988 93.4751898 106.215988 72.5087921"></polygon>
                        <polygon id="Path-7-Copy-3" fill="#BCCFD5" points="89.1807902 103.521589 89.1807902 126.235186 106.215988 116.188787 106.215988 93.4751898"></polygon>
                        <polygon id="Path-8" fill="#E7EEF0" points="15.3615983 82.555191 15.3615983 103.958389 33.7071963 114.441587 33.7071963 93.0383898"></polygon>
                        <polygon id="Path-8-Copy-4" fill="#E3EAEC" points="15.3615983 125.798386 15.3615983 147.201584 33.7071963 157.684783 33.7071963 136.281585"></polygon>
                        <polygon id="Path-8-Copy-2" fill="#E3EAEC" points="0.0735999519 73.382392 0.0735999519 94.7855896 15.7983982 103.958389 15.7983982 82.555191"></polygon>
                        <polygon id="Path-8-Copy-3" fill="#DCE7EB" points="0.0735999519 95.2223896 0.0735999519 116.625587 15.7983982 125.798386 15.7983982 104.395189"></polygon>
                        <polygon id="Path-8-Copy" fill="#E7EEF0" points="33.7071963 72.0719921 33.7071963 93.0383898 52.0527943 103.521589 52.0527943 82.555191"></polygon>
                        <line x1="33.7071963" y1="51.1055944" x2="33.7369455" y2="157.852902" id="Shape" stroke="#F4F5F6" stroke-width="0.574780986"></line>
                        <line x1="15.3615983" y1="39.7487956" x2="15.5508754" y2="147.299348" id="Shape" stroke="#F4F5F6" stroke-width="0.574780986"></line>
                        <polyline id="Shape" stroke="#E2E7E9" stroke-width="0.574780986" points="88.9876214 39.9169149 88.8172694 40.0761337 88.8172694 147.369703 88.9876214 147.210484"></polyline>
                        <line x1="70.3983922" y1="51.1055944" x2="70.7488169" y2="157.852902" id="Shape" stroke="#E2E7E9" stroke-width="0.574780986"></line>
                        <line x1="0.0162699373" y1="94.9258807" x2="52.108095" y2="125.001295" id="Shape" stroke="#F4F5F6" stroke-width="0.574780986"></line>
                        <line x1="0.0162699373" y1="73.382392" x2="52.108095" y2="103.457807" id="Shape-Copy-12" stroke="#F4F5F6" stroke-width="0.574780986"></line>
                        <line x1="0.0162699373" y1="52.4159943" x2="52.108095" y2="82.4914088" id="Shape-Copy-13" stroke="#F4F5F6" stroke-width="0.574780986"></line>
                        <line x1="0.0605280725" y1="116.781353" x2="52.1523532" y2="146.856767" id="Shape" stroke="#F4F5F6" stroke-width="0.574780986"></line>
                        <line x1="105.69665" y1="93.8314977" x2="52.0799307" y2="124.784028" id="Shape" stroke="#E2E7E9" stroke-width="0.574780986"></line>
                        <line x1="105.69665" y1="72.5087921" x2="52.0799307" y2="103.461322" id="Shape-Copy-10" stroke="#E2E7E9" stroke-width="0.574780986"></line>
                        <line x1="105.69665" y1="51.5423944" x2="52.0799307" y2="82.4949247" id="Shape-Copy-11" stroke="#E2E7E9" stroke-width="0.574780986"></line>
                        <line x1="106.227747" y1="116.01287" x2="52.108095" y2="147.259114" id="Shape" stroke="#E2E7E9" stroke-width="0.574780986"></line>
                    </g>
                </g>
                <line x1="133.5" y1="116.5" x2="30.5" y2="131.5" id="Path-21" stroke="url(#linearGradient-2)" stroke-width="1.4" opacity="0.4"></line>
                <line x1="309.5" y1="116.5" x2="218.5" y2="131.5" id="Path-21-Copy" stroke="url(#linearGradient-3)" stroke-width="1.4" opacity="0.4" transform="translate(264.000000, 124.000000) scale(-1, 1) translate(-264.000000, -124.000000) "></line>
                <path d="M269.349639,184.082577 C269.212701,184.083217 269.078071,184.047315 268.959639,183.978569 L244.592439,169.938569 C244.346853,169.793082 244.198027,169.52718 244.202439,169.241769 L244.504039,158.633769 L196.144039,130.746169 C195.803988,130.51689 195.699578,130.063433 195.90512,129.70853 C196.110663,129.353628 196.555939,129.218521 196.924039,129.399369 L245.663639,157.515769 C245.910033,157.660466 246.059147,157.926882 246.053639,158.212569 L245.752039,168.820569 L269.750039,182.626569 C270.056302,182.802865 270.205779,183.163036 270.114347,183.504383 C270.022914,183.84573 269.713419,184.082577 269.360039,184.082577 L269.349639,184.082577 Z" id="Shape" fill="url(#linearGradient-4)" fill-rule="nonzero"></path>
                <path d="M161.349639,182.082577 C161.212701,182.083217 161.078071,182.047315 160.959639,181.978569 L136.592439,167.938569 C136.346853,167.793082 136.198027,167.52718 136.202439,167.241769 L136.504039,156.633769 L88.144039,128.746169 C87.803988,128.51689 87.6995785,128.063433 87.9051205,127.70853 C88.1106625,127.353628 88.5559391,127.218521 88.924039,127.399369 L137.663639,155.515769 C137.910033,155.660466 138.059147,155.926882 138.053639,156.212569 L137.752039,166.820569 L161.750039,180.626569 C162.056302,180.802865 162.205779,181.163036 162.114347,181.504383 C162.022914,181.84573 161.713419,182.082577 161.360039,182.082577 L161.349639,182.082577 Z" id="Shape" fill="url(#linearGradient-5)" fill-rule="nonzero" transform="translate(124.970493, 154.700947) scale(-1, 1) translate(-124.970493, -154.700947) "></path>
                <path d="M202.526392,97.2253558 C202.616838,97.2253558 202.705688,97.2015066 202.784377,97.1569108 L238.586379,76.5075794 L254.607775,81.7093998 C254.749472,81.7564649 254.904488,81.7411546 255.03424,81.6672798 L283.907502,64.9930236 C284.078867,64.9033802 284.187291,64.7270035 284.189957,64.5336261 C284.192526,64.3402486 284.088915,64.1610019 283.92004,64.0667532 C283.751164,63.9725045 283.544212,63.9784268 283.381002,64.0821786 L254.68675,80.6353397 L238.660089,75.4335193 C238.518393,75.3864542 238.363376,75.4017645 238.233624,75.4756393 L202.257877,96.2460658 C202.053969,96.3670572 201.95609,96.6094184 202.018788,96.83808 C202.081485,97.0667416 202.28929,97.2253558 202.526392,97.2253558 Z" id="Shape" fill="url(#linearGradient-6)" fill-rule="nonzero"></path>
                <path d="M66.5263918,97.2253558 C66.6168383,97.2253558 66.7056884,97.2015066 66.7843768,97.1569108 L102.586379,76.5075794 L118.607775,81.7093998 C118.749472,81.7564649 118.904488,81.7411546 119.03424,81.6672798 L147.907502,64.9930236 C148.078867,64.9033802 148.187291,64.7270035 148.189957,64.5336261 C148.192526,64.3402486 148.088915,64.1610019 147.92004,64.0667532 C147.751164,63.9725045 147.544212,63.9784268 147.381002,64.0821786 L118.68675,80.6353397 L102.660089,75.4335193 C102.518393,75.3864542 102.363376,75.4017645 102.233624,75.4756393 L66.2578767,96.2460658 C66.0539695,96.3670572 65.9560903,96.6094184 66.0187878,96.83808 C66.0814854,97.0667416 66.2892903,97.2253558 66.5263918,97.2253558 Z" id="Shape-Copy" fill="url(#linearGradient-7)" fill-rule="nonzero" transform="translate(107.094978, 80.612678) scale(-1, 1) translate(-107.094978, -80.612678) "></path>
                <g id="Group-20-Copy-2" transform="translate(120.000000, 59.000000)" fill-rule="nonzero">
                    <polygon id="Shape" stroke="#FFFFFF" stroke-width="0.796704969" fill="#E9EFFF" stroke-linecap="round" stroke-linejoin="round" points="53.1814388 62.6010375 -6.79311474e-15 31.9058583 55.2683595 2.03793442e-14 108.449799 30.6990722"></polygon>
                    <polygon id="Shape" fill="#CBDBFF" points="1.42108547e-13 31.9058583 1.42108547e-13 58.3257893 53.1814388 89.0209685 53.1814388 62.6010375"></polygon>
                    <polygon id="Shape" fill="#9CBAFB" points="53.1814388 62.6010375 108.449799 30.6990722 108.449799 57.1190032 53.1814388 89.0209685"></polygon>
                    <g id="Asset-2-1" transform="translate(32.000000, 18.000000)" fill="#4B83FF">
                        <path d="M9.24000037,17.8740007 C8.61805322,17.8393465 7.9942871,17.889813 7.38600029,18.0240007 C6.77794135,18.1577608 6.19477903,18.386571 5.65800022,18.7020007 C5.17901146,18.9552085 4.7675576,19.3193452 4.45800018,19.7640008 C4.21567971,20.1152743 4.0993707,20.5382161 4.12800016,20.9640008 C4.18036753,21.4184986 4.36382119,21.8479469 4.65600019,22.2000009 C5.05011735,22.6628983 5.52604002,23.0493313 6.06000024,23.3400009 C6.68393374,23.7010557 7.35407563,23.9755717 8.05200032,24.156001 C8.75000602,24.3399753 9.46653478,24.4446368 10.1880004,24.468001 C10.882542,24.4958707 11.5778574,24.4374239 12.2580005,24.294001 C12.8906333,24.1728224 13.4988506,23.947782 14.0580006,23.6280009 C14.5584992,23.3729384 14.9750625,22.9792861 15.2580006,22.4940009 C15.470506,22.107878 15.5076308,21.6492775 15.3600006,21.2340008 L19.5960008,20.8740008 C19.8251751,21.6445431 19.6784855,22.4780067 19.2000008,23.1240009 C18.6479144,23.889449 17.9326881,24.522701 17.1060007,24.978001 C16.0544551,25.5795541 14.9289703,26.0414466 13.7580005,26.352001 C12.5673174,26.6692001 11.3420858,26.8384755 10.1100004,26.8560011 C8.87391896,26.8779646 7.64005108,26.7428843 6.43800026,26.4540011 C5.24698915,26.1724995 4.10308844,25.7197896 3.04200012,25.110001 C2.13501921,24.6294183 1.3412767,23.9604652 0.714000028,23.1480009 C0.238214196,22.5458218 -0.0141105275,21.7973291 3.68303478e-16,21.0300008 C0.0560127193,20.2516079 0.363450024,19.512495 0.876000035,18.9240008 C1.55004236,18.1375391 2.36372676,17.4825231 3.27600013,16.9920007 C3.68730951,16.766134 4.11211011,16.5657563 4.54800018,16.3920007 C5.04509829,16.1926723 5.5540743,16.0243496 6.07200024,15.8880006 C6.63954344,15.7389606 7.21701536,15.6306846 7.80000031,15.5640006 C8.42578246,15.4976184 9.05613907,15.4855734 9.68400038,15.5280006 L9.24000037,17.8740007 Z" id="Path"></path>
                        <polygon id="Path" points="16.4100007 12.7500005 12.6360005 14.9280006 10.0680004 13.4460005 20.5440008 7.39800029 23.1060009 8.88000035 19.3320008 11.0640004 29.9280012 17.1780007 27.0000011 18.8640007"></polygon>
                        <path d="M29.2020012,10.0020004 C28.2963044,9.51701559 27.5014521,8.84884933 26.8680011,8.04000032 C26.3986585,7.43540752 26.1527702,6.68714405 26.172001,5.92200024 C26.2339116,5.14391008 26.5429548,4.40599073 27.0540011,3.81600015 C27.7251811,3.02659253 28.5394611,2.37109714 29.4540012,1.88400007 C30.4962947,1.28087894 31.6140647,0.818840421 32.7780013,0.51000002 C33.9689908,0.19353729 35.1938863,0.0222936689 36.4260014,-3.05311332e-16 C37.6619446,-0.0189756552 38.8954393,0.116063793 40.0980016,0.402000016 C41.2897991,0.683918023 42.4339225,1.1387374 43.4940017,1.75200007 C44.398861,2.23311927 45.1921135,2.89961489 45.8220018,3.70800015 C46.2904603,4.31536849 46.5361598,5.06517564 46.5180018,5.83200023 C46.4557399,6.60889665 46.1490848,7.34612918 45.6420018,7.93800032 C44.9686386,8.725162 44.1548139,9.38029087 43.2420017,9.87000039 C42.1940689,10.4731528 41.0700779,10.9332425 39.9000016,11.2380004 C38.7101056,11.5598459 37.4845412,11.731183 36.2520014,11.7480005 C35.0160261,11.7676651 33.782446,11.6326163 32.5800013,11.3460005 C31.3949501,11.0636558 30.2571087,10.6109445 29.2020012,10.0020004 Z M32.2020013,8.25000033 C32.8278131,8.61155648 33.5000057,8.88608555 34.2000014,9.06600036 C34.9074901,9.25105711 35.6347821,9.34977541 36.3660014,9.36000037 C37.100993,9.36789719 37.8342643,9.28731792 38.5500015,9.12000036 C39.2549333,8.95217927 39.9319248,8.68340356 40.5600016,8.32200033 C41.0952306,8.03823699 41.5636797,7.64343052 41.9340017,7.16400028 C42.2148926,6.80488205 42.3632435,6.35982936 42.3540017,5.90400023 C42.3240463,5.44294468 42.1474467,5.00354792 41.8500017,4.65000018 C41.455081,4.18231755 40.9770345,3.79174335 40.4400016,3.49800014 C39.8153334,3.14424564 39.1478939,2.87202712 38.4540015,2.68800011 C37.0261995,2.31427047 35.5286177,2.29573094 34.0920014,2.6340001 C33.38683,2.798139 32.7095988,3.0649883 32.0820013,3.42600014 C31.54629,3.71165949 31.0778249,4.10852506 30.7080012,4.59000018 C30.4296989,4.95050306 30.2816611,5.39461656 30.2880012,5.85000023 C30.3221647,6.31406133 30.5028526,6.75527595 30.8040012,7.11000028 C31.2052302,7.5752228 31.6894587,7.96179174 32.2320013,8.25000033 L32.2020013,8.25000033 Z" id="Shape"></path>
                    </g>
                </g>
                <g id="Group-20-Copy-3" transform="translate(253.000000, 166.000000)" fill-rule="nonzero">
                    <polygon id="Shape" stroke="#FFFFFF" stroke-width="0.5" fill="#F7F7F7" stroke-linecap="round" stroke-linejoin="round" points="21.2725758 25.0404154 -2.71724594e-15 12.7623435 22.1073441 8.15173781e-15 43.3799202 12.279629"></polygon>
                    <polygon id="Shape" fill="#E6E9ED" points="5.70621646e-14 12.7623435 5.70621646e-14 39.3303163 21.2725758 51.6083882 21.2725758 25.0404154"></polygon>
                    <polygon id="Shape" fill="url(#linearGradient-8)" points="21.2725758 25.0404154 43.3799202 12.279629 43.3799202 38.8476018 21.2725758 51.6083882"></polygon>
                </g>
                <g id="Group-20-Copy-10" transform="translate(38.000000, 25.000000)" fill-rule="nonzero">
                    <polygon id="Shape" stroke="#FFFFFF" stroke-width="0.5" fill="#F7F7F7" stroke-linecap="round" stroke-linejoin="round" points="19.1453177 22.5363732 -2.44552128e-15 11.4861089 19.8966092 7.33656383e-15 39.0419272 11.0516658"></polygon>
                    <polygon id="Shape" fill="#E6E9ED" points="5.13559468e-14 11.4861089 5.13559468e-14 35.3972837 19.1453177 46.4475481 19.1453177 22.5363732"></polygon>
                    <polygon id="Shape" fill="url(#linearGradient-9)" points="19.1453177 22.5363732 39.0419272 11.0516658 39.0419272 34.9628407 19.1453177 46.4475481"></polygon>
                </g>
                <g id="Group-20-Copy-8" transform="translate(305.000000, 98.000000)" fill-rule="nonzero">
                    <polygon id="Shape" stroke="#FFFFFF" stroke-width="0.5" fill="#F7F7F7" stroke-linecap="round" stroke-linejoin="round" points="21.2725758 25.0404154 -2.71724594e-15 12.7623435 22.1073441 8.15173781e-15 43.3799202 12.279629"></polygon>
                    <polygon id="Shape" fill="#E6E9ED" points="5.70621646e-14 12.7623435 5.70621646e-14 39.3303163 21.2725758 51.6083882 21.2725758 25.0404154"></polygon>
                    <polygon id="Shape" fill="url(#linearGradient-8)" points="21.2725758 25.0404154 43.3799202 12.279629 43.3799202 38.8476018 21.2725758 51.6083882"></polygon>
                </g>
                <g id="Group-20-Copy-11" transform="translate(0.000000, 98.000000)" fill-rule="nonzero">
                    <polygon id="Shape" stroke="#FFFFFF" stroke-width="0.5" fill="#F7F7F7" stroke-linecap="round" stroke-linejoin="round" points="21.2725758 25.0404154 -2.71724594e-15 12.7623435 22.1073441 8.15173781e-15 43.3799202 12.279629"></polygon>
                    <polygon id="Shape" fill="#E6E9ED" points="5.70621646e-14 12.7623435 5.70621646e-14 39.3303163 21.2725758 51.6083882 21.2725758 25.0404154"></polygon>
                    <polygon id="Shape" fill="url(#linearGradient-8)" points="21.2725758 25.0404154 43.3799202 12.279629 43.3799202 38.8476018 21.2725758 51.6083882"></polygon>
                </g>
                <g id="Group" transform="translate(261.000000, 0.000000)" fill-rule="nonzero">
                    <g id="Group-20-Copy-9" transform="translate(9.900000, 23.399999)">
                        <polygon id="Shape" stroke="#FFFFFF" stroke-width="0.5" fill="#F7F7F7" stroke-linecap="round" stroke-linejoin="round" points="18.9538647 22.3110097 0 11.3712479 19.6976433 0 38.6515083 10.9411493"></polygon>
                        <polygon id="Shape" fill="#CBDBFF" points="0 11.3712479 0 35.0433112 18.9538647 45.9830731 18.9538647 22.3110097"></polygon>
                        <polygon id="Shape" fill="#9CBAFB" points="18.9538647 22.3110097 38.6515083 10.9411493 38.6515083 34.6132127 18.9538647 45.9830731"></polygon>
                        <g id="Group-21" transform="translate(1.800000, 17.100000)" fill="#FFFFFF">
                            <path d="M0.18284378,5.4853134 C0.0818619855,5.4853134 0,5.384166 0,5.25939441 L0,0.225918989 C0,0.101147398 0.0818619855,0 0.18284378,0 C0.283825574,0 0.36568756,0.101147398 0.36568756,0.225918989 L0.36568756,5.25939441 C0.36568756,5.384166 0.283825574,5.4853134 0.18284378,5.4853134 Z" id="Shape"></path>
                            <path d="M2.01128141,6.94806363 C1.91029953,6.94806363 1.8284378,6.84687456 1.8284378,6.72205152 L1.8284378,1.68876235 C1.8284378,1.56393931 1.91029953,1.46275024 2.01128141,1.46275024 C2.1122633,1.46275024 2.19412536,1.56393931 2.19412536,1.68876235 L2.19412536,6.72205152 C2.19412536,6.84687456 2.1122633,6.94806363 2.01128141,6.94806363 Z" id="Shape"></path>
                            <path d="M3.83971938,8.41081387 C3.73873758,8.41081387 3.6568756,8.30958313 3.6568756,8.18470863 L3.6568756,3.15160572 C3.6568756,3.02673122 3.73873758,2.92550048 3.83971938,2.92550048 C3.94070117,2.92550048 4.02256316,3.02673122 4.02256316,3.15160572 L4.02256316,8.18470863 C4.02256316,8.30958313 3.94070117,8.41081387 3.83971938,8.41081387 Z" id="Shape"></path>
                            <path d="M10.0564081,21.575566 C9.95542617,21.575566 9.87356411,21.4743769 9.87356411,21.3495539 L9.87356411,16.3162647 C9.87356411,16.1914417 9.95542617,16.0902526 10.0564081,16.0902526 C10.1573899,16.0902526 10.2392517,16.1914417 10.2392517,16.3162647 L10.2392517,21.3495539 C10.2392517,21.4743769 10.1573899,21.575566 10.0564081,21.575566 Z" id="Shape"></path>
                            <path d="M11.8848459,23.0383163 C11.783864,23.0383163 11.7020019,22.9373352 11.7020019,22.8127688 L11.7020019,17.7785503 C11.7020019,17.6539839 11.783864,17.5530029 11.8848459,17.5530029 C11.9858277,17.5530029 12.0676895,17.6539839 12.0676895,17.7785503 L12.0676895,22.8127688 C12.0676895,22.9373352 11.9858277,23.0383163 11.8848459,23.0383163 Z" id="Shape"></path>
                            <path d="M13.7132835,24.5010665 C13.6123017,24.5010665 13.5304397,24.3999191 13.5304397,24.2751475 L13.5304397,19.2416721 C13.5304397,19.1169005 13.6123017,19.0157531 13.7132835,19.0157531 C13.8142653,19.0157531 13.8961273,19.1169005 13.8961273,19.2416721 L13.8961273,24.2751475 C13.8961273,24.3999191 13.8142653,24.5010665 13.7132835,24.5010665 Z" id="Shape"></path>
                            <path d="M9.87356411,12.7676854 L9.87356411,12.8307567 C9.87354907,12.9500787 9.9426873,13.0604779 10.0552578,13.1208847 C10.1687672,13.1798021 10.3079265,13.1793433 10.420968,13.1196787 C10.5340094,13.0600142 10.6040138,12.9500742 10.6049392,12.8307567 L10.6049392,12.7676854 C10.6040104,12.6480481 10.5340591,12.5377461 10.4209454,12.4775574 C10.3077657,12.4183249 10.1686419,12.4186738 10.0558194,12.478473 C9.94299649,12.5382723 9.873552,12.6484705 9.87356411,12.7676854 Z" id="Shape" opacity="0.6"></path>
                            <path d="M9.87356411,10.93825 L9.87356411,11.0012374 C9.87308232,11.1205145 9.94234443,11.230966 10.0552603,11.2909792 C10.1685806,11.3512098 10.308553,11.3514399 10.4221102,11.2915822 C10.5356679,11.2317246 10.6054255,11.1209432 10.6049392,11.0012374 L10.6049392,10.93825 C10.6046024,10.8191722 10.5343814,10.7093928 10.4209445,10.6506077 C10.3083153,10.5902349 10.1688585,10.5896857 10.0556627,10.6491692 C9.94246685,10.7086527 9.87294695,10.8190176 9.87356411,10.93825 Z" id="Shape" opacity="0.6"></path>
                            <path d="M9.87356411,9.10981222 L9.87356411,9.17279957 C9.87308232,9.29207668 9.94234443,9.40252819 10.0552603,9.4625414 C10.1685806,9.522772 10.308553,9.52300208 10.4221102,9.46314444 C10.5356679,9.4032868 10.6054255,9.29250536 10.6049392,9.17279957 L10.6049392,9.10981222 C10.6046024,8.99073434 10.5343814,8.88095502 10.4209445,8.82216994 C10.3083153,8.76179709 10.1688585,8.76124786 10.0556627,8.8207314 C9.94246685,8.88021491 9.87294695,8.99057981 9.87356411,9.10981222 Z" id="Shape" opacity="0.6"></path>
                        </g>
                    </g>
                    <polygon id="Shape" fill="url(#linearGradient-10)" opacity="0.3" points="9.89999974 34.6499991 28.7999992 45.4499988 49.0499987 33.7499991 57.1836575 0.327181781 2.27114063e-12 -8.05132469e-14"></polygon>
                    <polygon id="Shape" fill="url(#linearGradient-11)" opacity="0.3" points="28.7999992 45.4499988 28.7999992 15.7499996 56.1670499 2.69999993 49.0499987 33.7499991"></polygon>
                </g>
                <g id="Group-20-Copy-12" transform="translate(52.000000, 166.000000)" fill-rule="nonzero">
                    <polygon id="Shape" stroke="#FFFFFF" stroke-width="0.5" fill="#F7F7F7" stroke-linecap="round" stroke-linejoin="round" points="21.2725758 25.0404154 -2.71724594e-15 12.7623435 22.1073441 8.15173781e-15 43.3799202 12.279629"></polygon>
                    <polygon id="Shape" fill="#E6E9ED" points="5.70621646e-14 12.7623435 5.70621646e-14 39.3303163 21.2725758 51.6083882 21.2725758 25.0404154"></polygon>
                    <polygon id="Shape" fill="url(#linearGradient-8)" points="21.2725758 25.0404154 43.3799202 12.279629 43.3799202 38.8476018 21.2725758 51.6083882"></polygon>
                </g>
            </g>
        </g>
    </g>
</svg>