<svg width="81" height="63" viewBox="0 0 81 63" fill="none" xmlns="http://www.w3.org/2000/svg">
<path id="01 copy" opacity="0.051183" fill-rule="evenodd" clip-rule="evenodd" d="M0 31.5C0 26.6803 0.386715 22.5635 1.16016 19.1496C1.9336 15.7356 2.95051 12.8668 4.21094 10.543C5.47136 8.21925 6.88932 6.35452 8.46484 4.94877C10.0404 3.54303 11.6445 2.48156 13.2773 1.76434C14.9102 1.04713 16.4857 0.573772 18.0039 0.344262C19.5221 0.114753 20.8542 0 22 0C23.1458 0 24.4779 0.114753 25.9961 0.344262C27.5143 0.573772 29.0898 1.04713 30.7227 1.76434C32.3555 2.48156 33.9596 3.54303 35.5352 4.94877C37.1107 6.35452 38.5286 8.21925 39.7891 10.543C41.0495 12.8668 42.0664 15.7356 42.8398 19.1496C43.6133 22.5635 44 26.6803 44 31.5C44 36.3197 43.6133 40.4365 42.8398 43.8504C42.0664 47.2644 41.0495 50.1332 39.7891 52.457C38.5286 54.7808 37.1107 56.6455 35.5352 58.0512C33.9596 59.457 32.3555 60.5184 30.7227 61.2357C29.0898 61.9529 27.5143 62.4262 25.9961 62.6557C24.4779 62.8852 23.1458 63 22 63C20.8542 63 19.5221 62.8852 18.0039 62.6557C16.4857 62.4262 14.9102 61.9529 13.2773 61.2357C11.6445 60.5184 10.0404 59.457 8.46484 58.0512C6.88932 56.6455 5.47136 54.7808 4.21094 52.457C2.95051 50.1332 1.9336 47.2644 1.16016 43.8504C0.386715 40.4365 0 36.3197 0 31.5ZM10 31.5C10 33.377 10.1268 35.5526 10.3805 38.0268C10.6342 40.501 11.1556 42.8472 11.9449 45.0655C12.7341 47.2837 13.8897 49.1607 15.4118 50.6964C16.9338 52.2322 18.9632 53 21.5 53C24.0368 53 26.0662 52.2322 27.5882 50.6964C29.1103 49.1607 30.2659 47.2837 31.0551 45.0655C31.8444 42.8472 32.3658 40.501 32.6195 38.0268C32.8732 35.5526 33 33.377 33 31.5C33 29.623 32.8732 27.4474 32.6195 24.9732C32.3658 22.499 31.8444 20.1528 31.0551 17.9345C30.2659 15.7163 29.1103 13.8393 27.5882 12.3036C26.0662 10.7678 24.0368 10 21.5 10C18.9632 10 16.9338 10.7678 15.4118 12.3036C13.8897 13.8393 12.7341 15.7163 11.9449 17.9345C11.1556 20.1528 10.6342 22.499 10.3805 24.9732C10.1268 27.4474 10 29.623 10 31.5ZM70.5975 12.8898L59.0681 23.4873L53 16.3362L71.5511 1H81V62H70.5975V12.8898Z" fill="#004FFF"/>
</svg>
