<svg width="93" height="61" viewBox="0 0 93 61" fill="none" xmlns="http://www.w3.org/2000/svg">
<path id="02 copy" opacity="0.05" fill-rule="evenodd" clip-rule="evenodd" d="M0 30.5C0 25.8333 0.377926 21.8472 1.13379 18.5417C1.88965 15.2361 2.88346 12.4583 4.11523 10.2083C5.34701 7.95832 6.73274 6.15278 8.27246 4.79167C9.81218 3.43055 11.3799 2.40278 12.9756 1.70833C14.5713 1.01389 16.111 0.555557 17.5947 0.333333C19.0785 0.11111 20.3802 0 21.5 0C22.6198 0 23.9215 0.11111 25.4053 0.333333C26.889 0.555557 28.4287 1.01389 30.0244 1.70833C31.6201 2.40278 33.1878 3.43055 34.7275 4.79167C36.2673 6.15278 37.653 7.95832 38.8848 10.2083C40.1165 12.4583 41.1103 15.2361 41.8662 18.5417C42.6221 21.8472 43 25.8333 43 30.5C43 35.1667 42.6221 39.1528 41.8662 42.4583C41.1103 45.7639 40.1165 48.5417 38.8848 50.7917C37.653 53.0417 36.2673 54.8472 34.7275 56.2083C33.1878 57.5695 31.6201 58.5972 30.0244 59.2917C28.4287 59.9861 26.889 60.4444 25.4053 60.6667C23.9215 60.8889 22.6198 61 21.5 61C20.3802 61 19.0785 60.8889 17.5947 60.6667C16.111 60.4444 14.5713 59.9861 12.9756 59.2917C11.3799 58.5972 9.81218 57.5695 8.27246 56.2083C6.73274 54.8472 5.34701 53.0417 4.11523 50.7917C2.88346 48.5417 1.88965 45.7639 1.13379 42.4583C0.377926 39.1528 0 35.1667 0 30.5ZM10 31C10 32.8333 10.1213 34.9583 10.364 37.375C10.6066 39.7917 11.1054 42.0833 11.8603 44.25C12.6152 46.4167 13.7206 48.25 15.1765 49.75C16.6324 51.25 18.5735 52 21 52C23.4265 52 25.3676 51.25 26.8235 49.75C28.2794 48.25 29.3848 46.4167 30.1397 44.25C30.8946 42.0833 31.3934 39.7917 31.636 37.375C31.8787 34.9583 32 32.8333 32 31C32 29.1667 31.8787 27.0417 31.636 24.625C31.3934 22.2083 30.8946 19.9167 30.1397 17.75C29.3848 15.5833 28.2794 13.75 26.8235 12.25C25.3676 10.75 23.4265 10 21 10C18.5735 10 16.6324 10.75 15.1765 12.25C13.7206 13.75 12.6152 15.5833 11.8603 17.75C11.1054 19.9167 10.6066 22.2083 10.364 24.625C10.1213 27.0417 10 29.1667 10 31ZM53 49.4167L76.2067 27.25C76.8819 26.5833 77.5851 25.875 78.3165 25.125C79.0478 24.375 79.7089 23.5833 80.2996 22.75C80.8903 21.9167 81.3826 21.0417 81.7764 20.125C82.1702 19.2083 82.3671 18.25 82.3671 17.25C82.3671 16.0278 82.128 14.9444 81.6498 14C81.1716 13.0556 80.5387 12.25 79.7511 11.5833C78.9634 10.9167 78.0492 10.4028 77.0084 10.0417C75.9676 9.68055 74.8565 9.5 73.6751 9.5C71.1434 9.5 69.0619 10.2222 67.4304 11.6667C65.7989 13.1111 64.8143 15.0555 64.4768 17.5L53.8439 16.6667C54.0689 13.9444 54.73 11.5417 55.827 9.45833C56.9241 7.37499 58.3446 5.6389 60.0886 4.25C61.8326 2.8611 63.8579 1.80556 66.1646 1.08333C68.4712 0.361108 70.9747 0 73.6751 0C76.3755 0 78.8931 0.347219 81.2278 1.04167C83.5626 1.73611 85.602 2.76388 87.346 4.125C89.09 5.48612 90.4684 7.22221 91.481 9.33333C92.4937 11.4445 93 13.9167 93 16.75C93 20.4722 92.1421 23.6805 90.4262 26.375C88.7103 29.0695 86.5021 31.6389 83.8017 34.0833L65.3207 51H93V60H53V49.4167Z" fill="#004FFF"/>
</svg>
