<svg xmlns="http://www.w3.org/2000/svg" xmlns:xlink="http://www.w3.org/1999/xlink" width="223" height="221" viewBox="0 0 223 221">
    <defs>
        <path id="a" d="M12 39h167v167H12V39z"/>
        <mask id="b" width="167" height="167" x="0" y="0" fill="#fff">
            <use xlink:href="#a"/>
        </mask>
    </defs>
    <g fill="none" fill-rule="evenodd" transform="translate(1)">
        <use fill-rule="nonzero" stroke="#004FFF" stroke-dasharray="7,9" stroke-width="2" mask="url(#b)" opacity=".451" xlink:href="#a"/>
        <path fill-rule="nonzero" stroke="#004FFF" stroke-linecap="square" d="M20.5 12.5v208M186.25 12.5v208M208 32H0M208 198H0"/>
        <path fill-rule="nonzero" stroke="#333" stroke-linecap="square" stroke-width=".5" d="M20.5 20.5h165M200 32v165"/>
        <path fill="#333" d="M97.02 11.73c-.2 0-.3-.15-.3-.45 0-.32.43-1.055 1.29-2.205.86-1.15 1.91-2.415 3.15-3.795-.14-1.2-.29-2.08-.45-2.64-.16-.56-.45-.84-.87-.84-.56 0-1.04.255-1.44.765-.4.51-.92 1.335-1.56 2.475l-.57 1.05-.27-.48.63-1.32c.36-.82.68-1.47.96-1.95.28-.48.645-.885 1.095-1.215.45-.33.995-.495 1.635-.495.72 0 1.275.25 1.665.75.39.5.665 1.2.825 2.1 1-1.04 1.865-1.88 2.595-2.52.73-.64 1.225-.96 1.485-.96.12 0 .275.03.465.09s.285.14.285.24c-.32 0-.9.4-1.74 1.2-.84.8-1.81 1.84-2.91 3.12l.09 1.2c.1 1.3.24 2.26.42 2.88.18.62.55.93 1.11.93.68 0 1.435-.49 2.265-1.47.83-.98 1.485-2 1.965-3.06l.3.3c-.3.88-.735 1.73-1.305 2.55-.57.82-1.205 1.485-1.905 1.995s-1.39.765-2.07.765c-.8 0-1.385-.365-1.755-1.095-.37-.73-.635-1.735-.795-3.015-1.3 1.56-2.61 3.19-3.93 4.89-.12.14-.24.21-.36.21zM209.89 123.67c-.54 0-.99-.14-1.35-.42-.36-.28-.54-.67-.54-1.17 0-.8.255-1.505.765-2.115a7.487 7.487 0 0 1 1.875-1.59c.74-.45 1.8-1.025 3.18-1.725.6-1.54 1.16-3.37 1.68-5.49-.72 1.18-1.44 2.11-2.16 2.79-.72.68-1.46 1.02-2.22 1.02-.64 0-1.2-.21-1.68-.63-.48-.42-.72-1.02-.72-1.8 0-.72.16-1.6.48-2.64.32-1.04.69-1.95 1.11-2.73.42-.78.77-1.17 1.05-1.17.18 0 .445.075.795.225.35.15.525.305.525.465-.4.58-.83 1.515-1.29 2.805-.46 1.29-.69 2.315-.69 3.075 0 .8.36 1.2 1.08 1.2.54 0 1.175-.37 1.905-1.11.73-.74 1.425-1.65 2.085-2.73.1-.34.2-.8.3-1.38.08-.38.245-.73.495-1.05.25-.32.595-.48 1.035-.48.18 0 .39.03.63.09 0 .54-.225 1.65-.675 3.33a49.142 49.142 0 0 1-1.665 5.07c1-.4 1.94-1.025 2.82-1.875.88-.85 1.59-1.925 2.13-3.225l.39.3c-.74 2.34-2.63 4.21-5.67 5.61-.88 2.16-1.805 3.925-2.775 5.295s-1.935 2.055-2.895 2.055zm-.15-.96c.22 0 .53-.185.93-.555.4-.37.85-.955 1.35-1.755.5-.8 1-1.81 1.5-3.03-1.06.56-1.895 1.035-2.505 1.425a5.92 5.92 0 0 0-1.5 1.335c-.39.5-.585 1.06-.585 1.68 0 .2.07.4.21.6.14.2.34.3.6.3z"/>
    </g>
</svg>
