<svg xmlns="http://www.w3.org/2000/svg" width="165" height="200" viewBox="0 0 165 200">
    <defs>
        <linearGradient id="a" x1="0%" y1="50%" y2="50%">
            <stop offset="0%" stop-color="#CFD8DB"/>
            <stop offset="100%" stop-color="#CFD8DB"/>
        </linearGradient>
        <linearGradient id="b" x1="0%" y1="49.979%" y2="49.979%">
            <stop offset="0%" stop-color="#CFD8DB"/>
            <stop offset="100%" stop-color="#CFD8DB"/>
        </linearGradient>
        <linearGradient id="c" x1="0%" y1="49.959%" y2="49.959%">
            <stop offset="0%" stop-color="#CFD8DB"/>
            <stop offset="100%" stop-color="#CFD8DB"/>
        </linearGradient>
        <linearGradient id="d" x1="-1.5%" x2="98.5%" y1="50.021%" y2="50.021%">
            <stop offset="0%" stop-color="#CFD8DB"/>
            <stop offset="100%" stop-color="#CFD8DB"/>
        </linearGradient>
        <linearGradient id="e" x1="0%" y1="49.918%" y2="49.918%">
            <stop offset="0%" stop-color="#CFD8DB"/>
            <stop offset="100%" stop-color="#CFD8DB"/>
        </linearGradient>
        <linearGradient id="f" x1="0%" y1="50.021%" y2="50.021%">
            <stop offset="0%" stop-color="#CFD8DB"/>
            <stop offset="100%" stop-color="#CFD8DB"/>
        </linearGradient>
        <linearGradient id="g" x1=".001%" y1="49.879%" y2="49.879%">
            <stop offset="0%" stop-color="#CFD8DB"/>
            <stop offset="100%" stop-color="#CFD8DB"/>
        </linearGradient>
    </defs>
    <g fill="none" fill-rule="nonzero">
        <path fill="#EDEFF1" d="M0 47l82 48v104.718l-82-46.94z"/>
        <path fill="#CFD8DB" d="M164.942 47L82 95v104.718l82.942-46.94z"/>
        <path fill="#F7F7F7" d="M0 47L81.5 0 165 47 82 95z"/>
        <path fill="#6291FB" d="M37 50.5L84 23l48 27.5-49 27z"/>
        <path fill="#BCC7CA" d="M84 23.5V16l55 30.5-7 4z"/>
        <path fill="#CFD8DB" d="M84 23.5V16L30 46.5l7 4z"/>
        <path fill="url(#a)" d="M11.053 95.28c-.581 0-1.053-.448-1.053-1V72c0-.552.472-1 1.053-1 .582 0 1.054.448 1.054 1v22.28c0 .552-.472 1-1.054 1z"/>
        <path fill="url(#b)" d="M19.053 102.27c-.581 0-1.053-.448-1.053-1V79c0-.552.472-1 1.053-1 .582 0 1.054.448 1.054 1v22.27c0 .552-.472 1-1.054 1z"/>
        <path fill="url(#c)" d="M25.053 109.26c-.581 0-1.053-.448-1.053-1V86c0-.552.472-1 1.053-1 .582 0 1.054.448 1.054 1v22.26c0 .552-.472 1-1.054 1z"/>
        <path fill="url(#d)" d="M55.053 160.27c-.581 0-1.053-.448-1.053-1V137c0-.552.472-1 1.053-1 .582 0 1.054.448 1.054 1v22.27c0 .552-.472 1-1.054 1z"/>
        <path fill="url(#e)" d="M62.053 167.32c-.581 0-1.053-.448-1.053-1V144c0-.552.472-1 1.053-1 .582 0 1.054.448 1.054 1v22.32c0 .552-.472 1-1.054 1z"/>
        <path fill="url(#a)" d="M1.833 24.53c-.582 0-1.053-.448-1.053-1V1.25c0-.552.471-1 1.053-1s1.053.448 1.053 1v22.28c0 .552-.471 1-1.053 1z" opacity=".6" transform="translate(68 150)"/>
        <g fill="#9EB3BA" opacity=".4">
            <path d="M94.053 174.17c-.581 0-1.053-.448-1.053-1v-22.28c0-.552.472-1 1.053-1 .582 0 1.054.448 1.054 1v22.28c0 .552-.472 1-1.054 1zM101.648 167c-.581 0-1.053-.448-1.053-1v-22.31c0-.552.472-1 1.053-1 .582 0 1.054.448 1.054 1V166c0 .552-.472 1-1.054 1zM108.57 160.39c-.583 0-1.054-.448-1.054-1v-22.27c0-.552.471-1 1.053-1s1.054.448 1.054 1v22.27c0 .552-.472 1-1.054 1zM137.79 108.9c-.581 0-1.053-.448-1.053-1V85.62c0-.552.472-1 1.053-1 .582 0 1.054.448 1.054 1v22.28c0 .552-.472 1-1.054 1zM145.375 101.7c-.582 0-1.053-.448-1.053-1V78.42c0-.552.471-1 1.053-1s1.053.448 1.053 1v22.28c0 .552-.471 1-1.053 1zM152.296 95.13c-.582 0-1.054-.448-1.054-1V71.85c0-.552.472-1 1.054-1 .582 0 1.053.448 1.053 1v22.28c0 .552-.471 1-1.053 1z"/>
        </g>
        <path fill="url(#f)" d="M54 127.59v.3c0 .568.317 1.093.832 1.38.52.28 1.157.278 1.675-.006.518-.283.839-.806.843-1.374v-.3a1.597 1.597 0 0 0-.843-1.38 1.753 1.753 0 0 0-1.672.005A1.577 1.577 0 0 0 54 127.59z" opacity=".6"/>
        <path fill="url(#g)" d="M54 118.588v.3a1.576 1.576 0 0 0 .832 1.38c.52.286 1.16.287 1.68.002s.84-.812.838-1.382v-.3a1.568 1.568 0 0 0-.843-1.37 1.741 1.741 0 0 0-1.673-.007 1.567 1.567 0 0 0-.834 1.377zM54 111.588v.3a1.576 1.576 0 0 0 .832 1.38c.52.286 1.16.287 1.68.002s.84-.812.838-1.382v-.3a1.568 1.568 0 0 0-.843-1.37 1.741 1.741 0 0 0-1.673-.007 1.567 1.567 0 0 0-.834 1.377z" opacity=".6"/>
        <path fill="#9EB3BA" d="M140.35 131.59v.3a1.557 1.557 0 0 1-.832 1.37 1.753 1.753 0 0 1-1.676.006 1.578 1.578 0 0 1-.842-1.376v-.3c.002-.57.323-1.095.843-1.38a1.753 1.753 0 0 1 1.672.004c.517.285.835.81.835 1.376zM140.35 124.59v.3c0 .568-.317 1.093-.832 1.38-.52.28-1.158.278-1.675-.006a1.588 1.588 0 0 1-.843-1.374v-.3c.004-.569.325-1.094.843-1.38a1.753 1.753 0 0 1 1.672.005c.517.284.835.808.835 1.375zM140.35 117.59v.3c0 .568-.317 1.093-.832 1.38-.52.28-1.158.278-1.675-.006a1.588 1.588 0 0 1-.843-1.374v-.3c.004-.569.325-1.094.843-1.38a1.753 1.753 0 0 1 1.672.005c.517.284.835.808.835 1.375z" opacity=".15"/>
    </g>
</svg>
