<svg xmlns="http://www.w3.org/2000/svg" width="214" height="246" viewBox="0 0 214 246">
    <g fill="none" fill-rule="nonzero">
        <path fill="#333" d="M17 69h1v7h-1v-7zm7-5v1h-7v-1h7z"/>
        <path fill="#333" fill-opacity=".7" d="M25 37h1v209h-1zM190.75 37h1v209h-1z"/>
        <path fill="#333" fill-opacity=".7" d="M213.5 56.5v1H4.5v-1zM213.5 222.5v1H4.5v-1z"/>
        <path fill="#333" d="M17.648 65.355a.5.5 0 0 1 .704-.71l5.683 5.63a.5.5 0 0 1-.704.711l-5.683-5.63zm10.655 10.558a.5.5 0 1 1 .704-.71l5.683 5.63a.5.5 0 1 1-.704.711l-5.683-5.63zm10.655 10.558a.5.5 0 1 1 .704-.71l5.683 5.63a.5.5 0 1 1-.704.71l-5.683-5.63zm10.655 10.558a.5.5 0 0 1 .704-.71l5.683 5.63a.5.5 0 0 1-.704.71l-5.683-5.63zm10.655 10.558a.5.5 0 1 1 .704-.71l5.683 5.63a.5.5 0 0 1-.704.71l-5.683-5.63zm10.655 10.558a.5.5 0 0 1 .704-.71l5.683 5.63a.5.5 0 1 1-.704.71l-5.683-5.63zm10.655 10.558a.5.5 0 0 1 .704-.71l5.683 5.63a.5.5 0 1 1-.704.71l-5.683-5.63zm10.656 10.558a.5.5 0 0 1 .703-.71l5.683 5.63a.5.5 0 1 1-.704.71l-5.682-5.63zm10.655 10.557a.5.5 0 0 1 .703-.71l5.683 5.631a.5.5 0 0 1-.704.71l-5.682-5.63zm10.655 10.558a.5.5 0 0 1 .704-.71l5.682 5.63a.5.5 0 0 1-.704.711l-5.682-5.63zm10.655 10.558a.5.5 0 1 1 .704-.71l5.682 5.63a.5.5 0 1 1-.704.711l-5.682-5.63zm10.655 10.558a.5.5 0 1 1 .704-.71l5.682 5.63a.5.5 0 1 1-.703.711l-5.683-5.63zm10.655 10.558a.5.5 0 0 1 .704-.71l5.682 5.63a.5.5 0 0 1-.703.711l-5.683-5.63zm10.655 10.558a.5.5 0 0 1 .704-.71l5.683 5.63a.5.5 0 0 1-.704.71l-5.683-5.63zm10.655 10.558a.5.5 0 0 1 .704-.71l5.683 5.63a.5.5 0 0 1-.704.71l-5.683-5.63zm10.655 10.558a.5.5 0 1 1 .704-.71l4.674 4.63a.5.5 0 1 1-.704.711l-4.674-4.631zM182.852 65.355a.5.5 0 0 0-.704-.71l-5.683 5.63a.5.5 0 0 0 .704.711l5.683-5.63zm-10.655 10.558a.5.5 0 1 0-.704-.71l-5.683 5.63a.5.5 0 1 0 .704.711l5.683-5.63zm-10.655 10.558a.5.5 0 1 0-.704-.71l-5.683 5.63a.5.5 0 1 0 .704.71l5.683-5.63zm-10.655 10.558a.5.5 0 0 0-.704-.71l-5.683 5.63a.5.5 0 0 0 .704.71l5.683-5.63zm-10.655 10.558a.5.5 0 1 0-.704-.71l-5.683 5.63a.5.5 0 0 0 .704.71l5.683-5.63zm-10.655 10.558a.5.5 0 0 0-.704-.71l-5.683 5.63a.5.5 0 1 0 .704.71l5.683-5.63zm-10.655 10.558a.5.5 0 0 0-.704-.71l-5.683 5.63a.5.5 0 1 0 .704.71l5.683-5.63zm-10.656 10.558a.5.5 0 0 0-.703-.71l-5.683 5.63a.5.5 0 1 0 .704.71l5.682-5.63zm-10.655 10.557a.5.5 0 0 0-.703-.71l-5.683 5.631a.5.5 0 0 0 .704.71l5.682-5.63zm-10.655 10.558a.5.5 0 0 0-.704-.71l-5.682 5.63a.5.5 0 0 0 .704.711l5.682-5.63zm-10.655 10.558a.5.5 0 1 0-.704-.71l-5.682 5.63a.5.5 0 1 0 .704.711l5.682-5.63zm-10.655 10.558a.5.5 0 1 0-.704-.71l-5.682 5.63a.5.5 0 1 0 .703.711l5.683-5.63zM54.991 192.05a.5.5 0 0 0-.704-.71l-5.682 5.63a.5.5 0 0 0 .703.711l5.683-5.63zm-10.655 10.558a.5.5 0 0 0-.704-.71l-5.683 5.63a.5.5 0 0 0 .704.71l5.683-5.63zm-10.655 10.558a.5.5 0 0 0-.704-.71l-5.683 5.63a.5.5 0 0 0 .704.71l5.683-5.63zm-10.655 10.558a.5.5 0 1 0-.704-.71l-4.674 4.63a.5.5 0 1 0 .704.711l4.674-4.631z" opacity=".499"/>
        <path fill="#004FFF" fill-opacity=".797" d="M.245 54.93l.51-.86 120.5 71.5-.51.86zM2.25 162.933l.5-.866 118.5 68.5-.5.866z"/>
        <path fill="#004FFF" fill-opacity=".797" d="M.248 74.068l.504.864 118-69-.504-.864zM2.243 178.07l.514.86 117-70-.514-.86zM199.248 55.934l-.496-.868-123.5 70.5.496.868zM201.245 160.936l-.49-.872-125.5 70.5.49.872z"/>
        <path fill="#004FFF" fill-opacity=".797" d="M201.746 75.065l-.492.87-122-69 .492-.87zM200.252 179.568l-.504.864-124.5-72.5.504-.864z"/>
        <path fill="#333" fill-opacity=".796" d="M97.75.5h1V229h-1z"/>
        <path fill="#004FFF" d="M181.75 65h1v105h-1zM16.75 65h1v122.5h-1z"/>
    </g>
</svg>
