<?xml version="1.0" encoding="utf-8"?>
<!-- Generator: Adobe Illustrator 16.0.0, SVG Export Plug-In . SVG Version: 6.00 Build 0)  -->
<!DOCTYPE svg PUBLIC "-//W3C//DTD SVG 1.1//EN" "http://www.w3.org/Graphics/SVG/1.1/DTD/svg11.dtd">
<svg width="2008" height="669" viewBox="0 0 2008 669" fill="none" version="1.1" xmlns="http://www.w3.org/2000/svg" xmlns:xlink="http://www.w3.org/1999/xlink">
<rect x="119.118" y="1.38513" width="1771.53" height="240.314" fill="#3370FA"/>
<rect x="119.118" y="241.699" width="1771.53" height="240.314" fill="#FBFF28"/>
<path fill-rule="evenodd" clip-rule="evenodd" d="M115.678 0H1892.58C1903.75 23.5035 1915.58 48.5849 1927.68 74.2486C1954.28 130.645 1982.21 189.855 2007.31 241.313C1992.51 272.133 1977.71 302.105 1962.94 332.027C1945.83 366.696 1928.74 401.296 1911.74 437.067L1892.07 482.626H114.723C105.737 463.756 96.7965 444.958 87.8824 426.215L87.8719 426.193C63.653 375.271 39.6276 324.756 15.3982 274.3L0 241.313C3.62628 235.39 8.25441 225.4 12.0062 217.301C13.2576 214.6 14.4115 212.109 15.3982 210.05C43.5567 151.555 71.448 92.9421 99.3328 34.3431C104.781 22.8946 110.228 11.4465 115.678 0ZM449.667 360.746C458.849 331.184 468.271 302.48 477.563 274.174C486.753 246.179 495.814 218.575 504.388 190.915H506.488C515.074 219.064 524.146 247.269 533.198 275.412C542.393 303.997 551.566 332.519 560.191 360.857H609.504C628.53 300.377 647.408 240.323 666.45 179.74L666.486 179.629C672.268 161.234 678.065 142.791 683.886 124.273H635.083C618.475 182.904 602.377 239.867 584.497 303.171C580.72 290.66 577.086 278.621 573.559 266.934C563.597 233.929 554.481 203.726 545.366 173.615H466.465C458.519 198.88 449.738 227.044 441.25 254.265C436.078 270.855 431.014 287.095 426.316 302.115C419.08 275.771 411.176 247.381 403.229 218.837L403.229 218.837L403.226 218.828L403.226 218.826C394.191 186.376 385.101 153.727 376.876 123.661H328.199C352.188 203.876 375.667 282.255 399.21 360.802H449.667V360.746ZM1641.44 159.93C1652.51 185.797 1644.81 216.059 1611.15 232.246C1633.36 240.423 1646.59 252.662 1653.27 270.462C1666.95 307.51 1643.22 344.725 1606.44 355.35C1595.5 358.521 1583.85 361.469 1572.53 361.636C1538.97 362.211 1502.53 362.119 1467.69 362.032H1467.69H1467.68L1467.66 362.032C1455.28 362.001 1443.11 361.97 1431.33 361.97L1431.97 122.715L1452.71 122.381C1480.49 122.215 1508.26 122.235 1536.03 122.256H1536.04C1545.29 122.263 1554.55 122.27 1563.81 122.27C1564.54 122.27 1565.25 122.258 1565.97 122.245C1567.38 122.221 1568.78 122.196 1570.17 122.27C1601.22 124.384 1629.16 131.338 1641.44 159.93ZM954.243 254.274H1095.31V222.232H1004V154.812H1148.18V124.105H954.243V254.274ZM1151.68 330.262V360.579C1119.49 360.579 1087.12 360.524 1054.41 360.469C1020.98 360.413 987.188 360.356 952.844 360.356L952.908 330.262H1151.68Z" fill="black"/>
<path d="M1480.39 156.092C1506.92 156.092 1531.17 155.758 1555.34 156.203C1582.07 156.704 1593.27 164.269 1596.39 182.682C1599.89 203.598 1590.98 217.95 1563.93 222.066C1559.48 222.734 1551.46 223.457 1544.4 223.568V249.602C1551.46 249.824 1561.01 250.102 1566.93 250.77C1596.64 254.219 1610.7 268.905 1608.16 293.715C1606.18 313.629 1592.82 326.869 1569.85 327.814C1540.58 329.038 1511.12 328.148 1480.39 328.148C1480.39 270.351 1480.39 215.168 1480.39 156.092Z" fill="black"/>
<path fill-rule="evenodd" clip-rule="evenodd" d="M186.044 565.128V668.178H223.114C231.162 668.178 238.386 666.946 244.976 664.481C251.503 662.016 257.016 658.495 261.642 654.035C266.204 649.516 269.753 644.117 272.224 637.779C274.696 631.442 275.9 624.341 275.9 616.536C275.9 609.435 274.759 602.745 272.604 596.525C270.45 590.304 267.091 584.846 262.719 580.21C258.347 575.574 252.834 571.877 246.18 569.178C239.526 566.478 231.859 565.128 223.051 565.128H186.044ZM264.938 598.637C266.903 604.094 267.917 610.08 267.917 616.594C267.917 622.991 266.966 628.918 265.002 634.317C263.037 639.833 260.249 644.586 256.447 648.636C252.708 652.685 248.083 655.854 242.443 658.142C236.803 660.431 230.34 661.605 223.052 661.605H194.03V571.818H223.052C230.276 571.818 236.676 572.933 242.189 575.222C247.702 577.393 252.392 580.503 256.194 584.494C260.059 588.426 262.911 593.179 264.938 598.637Z" fill="black"/>
<path d="M528.993 661.606V668.237H454.789V565.071H527.535V571.761H462.773V612.253H519.361V618.649H462.773V661.43L528.993 661.606Z" fill="black"/>
<path d="M703.82 565.128L746.15 659.023L788.48 565.128H796.908L749.889 668.295H742.475L695.266 565.128H703.82Z" fill="black"/>
<path d="M1045.19 661.606V668.237H970.981V565.071H1043.73V571.761H978.966V612.253H1035.55V618.649H978.966V661.43L1045.19 661.606Z" fill="black"/>
<path d="M1223.76 668.295V565.128H1231.8V661.605H1298.28V668.295H1223.76Z" fill="black"/>
<path fill-rule="evenodd" clip-rule="evenodd" d="M1494.97 664.481C1501.44 667.533 1508.47 669 1516.2 669C1523.62 669 1530.46 667.592 1536.92 664.716C1543.26 661.899 1548.77 658.085 1553.4 653.273C1558.09 648.461 1561.7 642.944 1564.43 636.665C1567.02 630.327 1568.35 623.696 1568.35 616.712C1568.35 610.316 1567.09 603.978 1564.62 597.757C1562.08 591.537 1558.53 585.903 1554.03 580.974C1549.41 576.044 1543.96 572.054 1537.49 569.061C1531.03 565.951 1524 564.484 1516.27 564.484C1508.85 564.484 1502.01 565.833 1495.61 568.709C1489.21 571.584 1483.63 575.399 1479.07 580.27C1474.38 585.082 1470.7 590.715 1468.04 596.995C1465.44 603.274 1464.11 609.846 1464.11 616.712C1464.11 623.285 1465.38 629.799 1467.85 636.02C1470.32 642.357 1473.94 647.874 1478.5 652.745C1483.12 657.615 1488.64 661.488 1494.97 664.481ZM1475.26 633.789C1473.17 628.331 1472.03 622.698 1472.03 616.771C1472.03 611.078 1473.17 605.562 1475.26 600.222C1477.42 594.764 1480.33 589.893 1484.2 585.609C1488.06 581.325 1492.75 577.804 1498.2 575.222C1503.65 572.581 1509.74 571.349 1516.39 571.349C1522.73 571.349 1528.62 572.523 1533.94 575.046C1539.26 577.511 1543.83 580.973 1547.82 585.14C1551.81 589.306 1554.85 594.177 1557.01 599.635C1559.23 605.151 1560.37 610.785 1560.37 616.712C1560.37 622.287 1559.23 627.803 1557.13 633.32C1555.04 638.719 1552.19 643.589 1548.33 647.873C1544.46 652.216 1539.83 655.678 1534.45 658.319C1529.13 660.842 1523.04 662.192 1516.39 662.192C1509.93 662.192 1503.91 660.96 1498.46 658.436C1493.01 655.913 1488.44 652.568 1484.45 648.343C1480.46 644.117 1477.42 639.305 1475.26 633.789Z" fill="black"/>
<path fill-rule="evenodd" clip-rule="evenodd" d="M1746.67 565.128V668.295H1754.71V629.329H1793.43C1798.12 629.329 1802.43 628.39 1806.29 626.688C1810.16 624.928 1813.45 622.463 1816.24 619.47C1819.03 616.477 1821.19 613.015 1822.71 609.142C1824.23 605.327 1824.99 601.278 1824.99 597.111C1824.99 593.238 1824.1 589.365 1822.52 585.551C1820.93 581.736 1818.71 578.332 1815.86 575.222C1812.88 572.229 1809.46 569.706 1805.53 567.887C1801.6 566.067 1797.3 565.128 1792.54 565.128H1746.67ZM1793.12 622.522H1754.71H1754.65V571.76H1792.16C1795.46 571.76 1798.69 572.464 1801.67 573.755C1804.65 575.164 1807.25 576.983 1809.46 579.389C1811.68 581.678 1813.46 584.319 1814.79 587.429C1816.12 590.48 1816.75 593.649 1816.75 597.053C1816.75 600.398 1816.24 603.508 1815.1 606.56C1814.03 609.67 1812.44 612.37 1810.35 614.717C1808.39 617.123 1805.92 619.001 1802.94 620.409C1800.09 621.818 1796.79 622.522 1793.12 622.522Z" fill="black"/>
</svg>
